<svg xmlns="http://www.w3.org/2000/svg" width="30" height="46">
    <defs>
        <linearGradient id="linear-gradient" x1="-.05" y1=".087" x2="1.05" y2=".913" gradientUnits="objectBoundingBox">
            <stop offset="0" stop-color="#fff"/>
            <stop offset=".624" stop-color="#c9c6c0"/>
            <stop offset="1" stop-color="#ada89f"/>
        </linearGradient>
        <clipPath id="clip-path">
            <path id="사각형_5256" data-name="사각형 5256" d="M5.67 0h18.662A5.668 5.668 0 0 1 30 5.668v34.664A5.668 5.668 0 0 1 24.332 46H5.669A5.669 5.669 0 0 1 0 40.331V5.67A5.67 5.67 0 0 1 5.67 0z" transform="translate(.434 .151)" style="fill:none"/>
        </clipPath>
        <style>
            .cls-5{fill:#fff}.cls-8{fill:#666}
        </style>
    </defs>
    <g id="card" transform="translate(-195.699 -138.205)">
        <g id="그룹_15157" data-name="그룹 15157" transform="translate(195.266 138.054)">
            <g id="그룹_15153" data-name="그룹 15153">
                <g id="그룹_15152" data-name="그룹 15152">
                    <g id="그룹_15151" data-name="그룹 15151">
                        <rect id="사각형_5255" data-name="사각형 5255" width="30" height="46" rx="1.5" transform="translate(.434 .151)" style="fill:#0c284c"/>
                    </g>
                </g>
            </g>
            <g id="그룹_15156" data-name="그룹 15156">
                <g id="그룹_15155" data-name="그룹 15155" style="clip-path:url(#clip-path)">
                    <g id="그룹_15154" data-name="그룹 15154" transform="translate(-4.144 25.535)">
                        <ellipse id="타원_1342" data-name="타원 1342" cx="10.358" cy="10.359" rx="10.358" ry="10.359" transform="rotate(-76.08 20.734 -.023)" style="fill:#35c567"/>
                        <path id="패스_8390" data-name="패스 8390" class="cls-5" d="M297.779 309.007h-5.822v-5.821a.4.4 0 0 0-.809 0v5.821h-5.822a.4.4 0 0 0 0 .809h5.822v5.821a.4.4 0 0 0 .809 0v-5.821h5.822a.4.4 0 1 0 0-.809z" transform="translate(-263.239 -296.865)"/>
                        <path id="패스_8391" data-name="패스 8391" class="cls-5" d="M185.634 298.621a.171.171 0 0 0-.259-.043 6.63 6.63 0 0 1-10.521-2.864.258.258 0 0 1 .242-.344h13.774a10.395 10.395 0 0 1 1.214-7.035 10.362 10.362 0 1 0-2.787 13.473.172.172 0 0 0 .045-.223zm-10.78-7.321a6.631 6.631 0 0 1 12.5 0 .258.258 0 0 1-.242.344H175.1a.258.258 0 0 1-.246-.344z" transform="translate(-170.747 -280.96)"/>
                    </g>
                </g>
            </g>
        </g>
        <g id="그룹_15159" data-name="그룹 15159" transform="translate(210.709 143.424)">
            <path id="패스_8392" data-name="패스 8392" d="M274.752 165.731a.22.22 0 0 0-.221.217v5.277a.219.219 0 0 0 .221.217h3.748a.219.219 0 0 0 .221-.217v-5.277a.219.219 0 0 0-.221-.217z" transform="translate(-274.345 -165.731)" style="fill:#706563"/>
            <g id="그룹_15158" data-name="그룹 15158" transform="translate(0 .066)">
                <rect id="사각형_5257" data-name="사각형 5257" width="4.448" height="5.93" rx="1" transform="translate(0 .006)" style="stroke:#666;stroke-miterlimit:10;stroke-width:.5px;fill:url(#linear-gradient)"/>
                <path id="패스_8393" data-name="패스 8393" class="cls-8" d="M278.388 167.325h-1.539v-1.844h-.149v1.844h-1.112v-1.844h-.152v1.844h-1.496v.152h4.448z" transform="translate(-273.94 -165.481)"/>
                <path id="패스_8394" data-name="패스 8394" class="cls-8" d="M276.7 188.306h.152v-1.965h-2.912v.152h1.493v1.814h.152v-1.814h1.115z" transform="translate(-273.94 -182.37)"/>
            </g>
        </g>
        <g id="그룹_15162" data-name="그룹 15162" transform="translate(197.447 139.807)">
            <g id="그룹_15160" data-name="그룹 15160" transform="translate(15.173 .19)">
                <path id="패스_8395" data-name="패스 8395" class="cls-5" d="M283.4 148.095a.387.387 0 0 1 .389-.382h9.687a.386.386 0 0 1 .388.382v1.513h.194v-1.513a.578.578 0 0 0-.582-.572h-9.687a.578.578 0 0 0-.582.572v1.513h.194z" transform="translate(-283.211 -147.523)"/>
                <path id="패스_8396" data-name="패스 8396" class="cls-5" d="M289.19 152.392c0 .016-.01.022-.027.022h-.148c-.017 0-.023-.006-.023-.023v-.4a.028.028 0 0 0-.031-.029h-.388a.025.025 0 0 0-.027.029v.4c0 .017-.01.023-.026.023h-.151c-.014 0-.02-.006-.02-.022v-1c0-.015.006-.024.02-.024h.151a.023.023 0 0 1 .026.024v.387a.024.024 0 0 0 .027.027h.388c.018 0 .031-.008.031-.027v-.387c0-.015.006-.024.023-.024h.148c.017 0 .027.009.027.024z" transform="translate(-287.372 -150.678)"/>
                <path id="패스_8397" data-name="패스 8397" class="cls-5" d="M293.936 153.482a.163.163 0 0 1-.166-.164v-.618c0-.018.007-.027.024-.027h.142c.014 0 .024.009.024.027v.6c0 .017.007.026.027.026h.261c.017 0 .028-.008.028-.026v-.6c0-.018.007-.027.024-.027h.142a.024.024 0 0 1 .025.027v.906a.152.152 0 0 1-.017.065l-.1.158a.042.042 0 0 1-.036.022h-.014c-.017 0-.024-.01-.024-.025v-.4c0-.017-.01-.024-.026-.02l-.273.077a.2.2 0 0 1-.042 0" transform="translate(-291.786 -151.755)"/>
                <path id="패스_8398" data-name="패스 8398" class="cls-5" d="M298.607 153.481a.165.165 0 0 1-.164-.164v-.62c0-.018.007-.027.024-.027h.144c.013 0 .022.008.022.027v.6c0 .017.009.024.029.024h.26c.017 0 .028-.007.028-.024v-.6c0-.018.006-.027.023-.027h.142a.023.023 0 0 1 .025.027v.75c0 .016-.01.021-.025.021h-.142c-.017 0-.023-.006-.023-.023v-.023c0-.018-.011-.025-.027-.02l-.273.074a.16.16 0 0 1-.044 0" transform="translate(-295.581 -151.738)"/>
                <path id="패스_8399" data-name="패스 8399" class="cls-5" d="M303.816 152.77v.623c0 .016-.01.021-.026.021h-.142c-.017 0-.023-.006-.023-.023v-.6a.026.026 0 0 0-.028-.028h-.26a.025.025 0 0 0-.029.028v.6a.02.02 0 0 1-.023.023h-.143c-.017 0-.024-.006-.024-.021v-.75c0-.018.007-.027.024-.027h.143c.013 0 .023.008.023.027v.024c0 .016.007.023.029.017l.271-.074a.219.219 0 0 1 .041-.007.167.167 0 0 1 .166.166" transform="translate(-299.378 -151.683)"/>
                <path id="패스_8400" data-name="패스 8400" class="cls-5" d="M307.638 151.844v-.358a.183.183 0 0 1 .1-.172l.15-.088a.181.181 0 0 1 .1-.028h.131c.019 0 .027-.007.027-.024v-.294c0-.016.007-.027.021-.027h.145c.017 0 .024.012.024.027v1.095c0 .016-.007.021-.024.021h-.145c-.014 0-.021-.006-.021-.023v-.023c0-.018-.008-.026-.027-.02l-.275.073a.13.13 0 0 1-.042 0 .168.168 0 0 1-.165-.164m.509-.02v-.451c0-.02-.008-.03-.029-.03h-.263c-.02 0-.027.01-.027.03v.451c0 .017.007.024.027.024h.263c.02 0 .029-.007.029-.024" transform="translate(-303.048 -150.258)"/>
                <path id="패스_8401" data-name="패스 8401" class="cls-5" d="M312.333 153.481a.165.165 0 0 1-.165-.164v-.358a.183.183 0 0 1 .1-.172l.152-.088a.175.175 0 0 1 .1-.028h.326c.016 0 .024.008.024.027v.75c0 .016-.008.021-.024.021h-.146c-.016 0-.022-.006-.022-.023v-.023c0-.018-.01-.026-.029-.02l-.273.074a.153.153 0 0 1-.042 0m.344-.184v-.451a.026.026 0 0 0-.029-.03h-.263c-.02 0-.027.01-.027.03v.451c0 .017.007.024.027.024h.263c.019 0 .029-.007.029-.024" transform="translate(-306.727 -151.738)"/>
                <path id="패스_8402" data-name="패스 8402" class="cls-5" d="M317.039 150.995c0 .017-.01.023-.024.023h-.142c-.018 0-.024-.006-.024-.023v-.116c0-.016.005-.027.024-.027h.142a.025.025 0 0 1 .024.027zm0 .978c0 .016-.01.021-.024.021h-.142c-.018 0-.024-.006-.024-.021v-.749c0-.018.005-.027.024-.027h.142c.015 0 .024.009.024.027z" transform="translate(-310.525 -150.258)"/>
                <path id="패스_8403" data-name="패스 8403" class="cls-5" d="M319.9 152.209v-.539a.2.2 0 0 1 .1-.182l.166-.093a.191.191 0 0 1 .1-.027h.353a.022.022 0 0 1 .025.026v.1c0 .016-.008.023-.025.023h-.493c-.017 0-.024.01-.024.029v.685c0 .018.007.027.024.027h.507c.016 0 .026.007.026.021a.039.039 0 0 1-.023.037l-.122.068a.2.2 0 0 1-.1.026h-.307a.2.2 0 0 1-.208-.2" transform="translate(-313.007 -150.679)"/>
                <path id="패스_8404" data-name="패스 8404" class="cls-5" d="M324.7 153.481a.165.165 0 0 1-.165-.164v-.358a.184.184 0 0 1 .1-.172l.152-.088a.175.175 0 0 1 .1-.028h.326c.016 0 .024.008.024.027v.75c0 .016-.008.021-.024.021h-.145c-.016 0-.021-.006-.021-.023v-.023c0-.018-.01-.026-.029-.02l-.273.074a.153.153 0 0 1-.043 0m.344-.184v-.451a.026.026 0 0 0-.029-.03h-.263c-.02 0-.027.01-.027.03v.451c0 .017.007.024.027.024h.263c.019 0 .029-.007.029-.024" transform="translate(-316.775 -151.738)"/>
                <path id="패스_8405" data-name="패스 8405" class="cls-5" d="M329.732 152.76c0 .014-.01.021-.025.021h-.28c-.019 0-.026.01-.026.028v.6c0 .017-.011.023-.026.023h-.143c-.017 0-.023-.006-.023-.021v-.75c0-.018.006-.027.023-.027h.143a.024.024 0 0 1 .026.027v.023c0 .016.007.023.026.023a.034.034 0 0 0 .016 0l.082-.054a.205.205 0 0 1 .1-.024h.084a.023.023 0 0 1 .025.024z" transform="translate(-320.564 -151.701)"/>
                <path id="패스_8406" data-name="패스 8406" class="cls-5" d="M332.109 151.844v-.358a.183.183 0 0 1 .1-.172l.151-.088a.18.18 0 0 1 .1-.028h.131c.019 0 .027-.007.027-.024v-.294c0-.016.007-.027.021-.027h.145c.017 0 .024.012.024.027v1.095c0 .016-.007.021-.024.021h-.145c-.014 0-.021-.006-.021-.023v-.023c0-.018-.009-.026-.027-.02l-.275.073a.129.129 0 0 1-.042 0 .169.169 0 0 1-.165-.164m.509-.02v-.451c0-.02-.009-.03-.029-.03h-.263c-.02 0-.027.01-.027.03v.451c0 .017.007.024.027.024h.263c.02 0 .029-.007.029-.024" transform="translate(-322.934 -150.258)"/>
            </g>
            <g id="그룹_15161" data-name="그룹 15161">
                <path id="패스_8407" data-name="패스 8407" class="cls-5" d="m204.008 149.682-.09-.1a1.251 1.251 0 0 0-.173.629h.062a.759.759 0 0 1 .2-.53" transform="translate(-203.745 -149.025)"/>
                <path id="패스_8408" data-name="패스 8408" class="cls-5" d="M203.993 153.329a.586.586 0 0 1-.185-.444h-.062a1.548 1.548 0 0 0 .12.619z" transform="translate(-203.746 -151.711)"/>
                <path id="패스_8409" data-name="패스 8409" class="cls-5" d="m214.916 152.043-.115.119a.256.256 0 0 1 .254.282h.062a.516.516 0 0 0-.2-.4" transform="translate(-212.713 -151.024)"/>
                <path id="패스_8410" data-name="패스 8410" class="cls-5" d="M215.238 154.151h-.062a.362.362 0 0 1-.225.318l.162.223a1.118 1.118 0 0 0 .126-.541" transform="translate(-212.835 -152.74)"/>
                <path id="패스_8411" data-name="패스 8411" class="cls-5" d="M205.437 151.208a.408.408 0 0 0-.007.074.592.592 0 0 0 .624.606c.662 0 .859-.541 1.155-.541l.115-.119a.959.959 0 0 0-.613-.192c-.524 0-.8.438-1.041.438a.214.214 0 0 1-.183-.224.243.243 0 0 1 0-.033z" transform="translate(-205.109 -150.21)"/>
                <path id="패스_8412" data-name="패스 8412" class="cls-5" d="M205.219 147.06c.382 0 .648.29.99.29a.623.623 0 0 0 .693-.589l-.062-.01c-.018.1-.085.227-.205.227s-.235-.1-.41-.2a1.247 1.247 0 0 0-.63-.2 1.1 1.1 0 0 0-.941.571l.09.1a.645.645 0 0 1 .475-.194" transform="translate(-204.481 -146.585)"/>
                <path id="패스_8413" data-name="패스 8413" class="cls-5" d="M205.393 155.492a1.349 1.349 0 0 1-.891-.272l-.127.174a1.174 1.174 0 0 0 1.156.7 1.127 1.127 0 0 0 1.019-.534l-.162-.223a2.271 2.271 0 0 1-1 .157" transform="translate(-204.255 -153.617)"/>
                <path id="패스_8414" data-name="패스 8414" class="cls-5" d="M219.273 151.144a.564.564 0 0 1-.6-.625.577.577 0 0 1 .6-.628.749.749 0 0 1 .369.089l-.04.261a.6.6 0 0 0-.322-.1c-.208 0-.31.154-.31.379s.1.387.313.387a.32.32 0 0 0 .163-.039v-.215h-.21l-.035-.222h.506v.588a.793.793 0 0 1-.441.128" transform="translate(-215.86 -149.282)"/>
                <path id="패스_8415" data-name="패스 8415" class="cls-5" d="M225.342 151.172a.991.991 0 0 1-.422-.091l.044-.255a.854.854 0 0 0 .383.112c.086 0 .145-.037.145-.108s-.035-.1-.2-.165c-.241-.093-.346-.171-.346-.371a.365.365 0 0 1 .413-.357.766.766 0 0 1 .364.081l-.045.252a.66.66 0 0 0-.315-.1c-.091 0-.135.039-.135.094s.033.091.184.149c.263.1.368.187.368.38 0 .263-.193.378-.432.378" transform="translate(-220.924 -149.318)"/>
                <path id="패스_8416" data-name="패스 8416" class="cls-5" d="M235.751 150.054h-.13v.6h.13v-.254h.155v-.117h-.155z" transform="translate(-229.602 -149.407)"/>
                <path id="패스_8417" data-name="패스 8417" class="cls-5" d="M231.795 150.189h-.612v.117h.452a.411.411 0 0 1-.044.116h-.408v.109h.317a.741.741 0 0 1-.386.148l.051.1a.644.644 0 0 0 .63-.588" transform="translate(-225.948 -149.517)"/>
                <path id="패스_8418" data-name="패스 8418" class="cls-5" d="M232.189 153.773h.673v-.32h-.809v.113h.679v.1h-.673v.265a.066.066 0 0 0 .065.065h.744v-.113h-.68z" transform="translate(-226.711 -152.173)"/>
                <path id="사각형_5258" data-name="사각형 5258" class="cls-5" transform="translate(7.23 .646)" d="M0 0h.126v.66H0z"/>
                <path id="패스_8419" data-name="패스 8419" class="cls-5" d="M240.37 150.713v-.66h-.126v.255h-.159v.117h.159v.288z" transform="translate(-233.235 -149.407)"/>
                <path id="패스_8420" data-name="패스 8420" class="cls-5" d="M238.2 150.659h-.366v-.128h.272v-.109h-.272v-.12h.323v-.113h-.453v.518a.066.066 0 0 0 .065.065h.431z" transform="translate(-231.295 -149.517)"/>
                <path id="패스_8421" data-name="패스 8421" class="cls-5" d="M238.387 153.909h.7v.362h.129v-.479h-.828z" transform="translate(-231.859 -152.448)"/>
                <path id="패스_8422" data-name="패스 8422" class="cls-5" d="M244.136 150.121v.15a.469.469 0 0 1-.428.453l.057.1a.48.48 0 0 1 .878 0l.057-.1a.47.47 0 0 1-.429-.453v-.15z" transform="translate(-236.168 -149.463)"/>
                <path id="사각형_5259" data-name="사각형 5259" class="cls-5" transform="translate(7.505 1.59)" d="M0 0h1.061v.117H0z"/>
            </g>
        </g>
    </g>
</svg>
