<svg xmlns="http://www.w3.org/2000/svg" width="64" height="64" viewBox="0 0 64 64">
    <defs>
        <style>
            .cls-1{fill:#fff;opacity:0}.cls-2{fill:none;stroke:#3ddb87;stroke-linecap:round;stroke-miterlimit:10;stroke-width:2px}
        </style>
    </defs>
    <g id="그룹_15578" transform="translate(-271 -176)">
        <g id="_1" transform="translate(-4560.188 -11828.11)">
            <path id="사각형_5491" d="M0 0H32V32H0z" class="cls-1" transform="translate(4863.188 12004.11)"/>
            <path id="선_9" d="M2.908 0L0 0" class="cls-2" transform="translate(4867.188 12020.536)"/>
            <path id="선_10" d="M2.908 0L0 0" class="cls-2" transform="translate(4889.212 12020.536)"/>
            <path id="선_11" d="M0 0L0 2.908" class="cls-2" transform="translate(4879.654 12030.094)"/>
            <path id="선_12" d="M0 0L0 2.908" class="cls-2" transform="translate(4879.654 12007.977)"/>
        </g>
        <g id="_2">
            <path id="사각형_5492" d="M0 0H32V32H0z" class="cls-1" transform="translate(271 208)"/>
            <path id="패스_289" fill="#3ddb87" d="M1733.956 844.949h-3.634a5.854 5.854 0 0 1-5.854-5.854v-3.635c-.563-.64-1.276-.25-1.276.307v3.327a5.854 5.854 0 0 1-5.855 5.854h-3.637c-.64.563-.25 1.276.307 1.276h3.327a5.854 5.854 0 0 1 5.855 5.854v3.634c.562.64 1.276.251 1.276-.307v-3.327a5.854 5.854 0 0 1 5.854-5.854h3.327c.557 0 .947-.713.306-1.276" transform="translate(-1436.752 -620.568)"/>
        </g>
    </g>
</svg>
