<svg xmlns="http://www.w3.org/2000/svg" width="51.589" height="13.472" viewBox="0 0 51.589 13.472">
    <path data-name="패스 19532" d="M9.776 5.36h1.64V1.344a.043.043 0 0 0-.044-.044H9.82a.044.044 0 0 0-.044.044z" transform="translate(-3.896 -.407)" style="fill:#00192d"/>
    <path data-name="패스 19533" d="M9.482 1.3H7.933a.047.047 0 0 0-.047.044v9.25a.611.611 0 0 0 .613.61h2.862a.174.174 0 0 0 .128-.056l1.388-1.385a.045.045 0 0 0-.031-.078H9.529V1.343a.047.047 0 0 0-.047-.043" transform="translate(-7.886 -.409)" style="fill:#00192d"/>
    <path data-name="패스 19534" d="M19.4 9.522h3.149a.183.183 0 0 0 .128-.052l1.385-1.361a.042.042 0 0 0-.031-.073H15.26V6.154h7.984a.044.044 0 0 0 .044-.043V1.9a.6.6 0 0 0-.61-.6h-7.94a.183.183 0 0 0-.128.052l-1.385 1.357a.044.044 0 0 0 .031.076h8.357v1.883H13.63a.045.045 0 0 0-.047.043v4.213a.6.6 0 0 0 .61.6h3.572V11.4h-5.538a.045.045 0 0 0-.047.043v1.4a.047.047 0 0 0 .047.046h12.42a.047.047 0 0 0 .047-.046v-1.4a.045.045 0 0 0-.047-.043H19.4z" transform="translate(.886 -.407)" style="fill:#00192d"/>
    <path data-name="패스 19535" d="M23.69 5.023V9.4a.046.046 0 0 0 .047.047h1.546a.048.048 0 0 0 .047-.047V5.023h3.093V9.4a.048.048 0 0 0 .047.047h1.549a.048.048 0 0 0 .047-.047V5.023h2.281a.176.176 0 0 0 .128-.053l1.388-1.388a.044.044 0 0 0-.034-.075H21.954a.182.182 0 0 0-.128.053l-1.384 1.385a.045.045 0 0 0 .031.078z" transform="translate(17.715 4.025)" style="fill:#00192d"/>
    <path data-name="패스 19536" d="M25.739 2.558c1.752 0 2.962.7 2.962 1.823 0 1.108-1.238 1.823-2.962 1.823-1.708 0-2.934-.716-2.934-1.823 0-1.126 1.2-1.823 2.934-1.823m0 5.065c2.825 0 4.773-1.273 4.773-3.242 0-1.954-1.948-3.217-4.773-3.217-2.809 0-4.748 1.263-4.748 3.217 0 1.969 1.938 3.242 4.748 3.242" transform="translate(18.903 -.694)" style="fill:#00192d"/>
    <path data-name="패스 19537" d="M12.095 4.586v3.279a.046.046 0 0 0 .078.034l1.509-1.509a.182.182 0 0 0 .053-.128v-2.8a.611.611 0 0 0-.61-.61h-2.8a.182.182 0 0 0-.128.053L8.691 4.418a.045.045 0 0 0 .031.078H12a.09.09 0 0 1 .09.09" transform="translate(-6.214 2.726)" style="fill:#00192d"/>
    <path data-name="패스 19538" d="M12.646 1.013H11.1a.045.045 0 0 0-.044.046v13.377a.045.045 0 0 0 .044.046h1.549a.045.045 0 0 0 .044-.046V6.755h.9a.183.183 0 0 0 .128-.052L15.1 5.342a.044.044 0 0 0-.031-.076H12.69V1.059a.045.045 0 0 0-.044-.046" transform="translate(-1.379 -1.013)" style="fill:#00192d"/>
    <path data-name="패스 19539" d="m22.009 4.735.022.012 4.337 2.561a.047.047 0 0 0 .056-.009l1.03-1.052a.042.042 0 0 0-.009-.068L22.83 3.528v-.713h4.3a.044.044 0 0 0 .044-.044V1.344a.043.043 0 0 0-.044-.044H16.884a.043.043 0 0 0-.044.044v1.428a.044.044 0 0 0 .044.044h4.306v.712l-.025.012-4.617 2.635a.046.046 0 0 0-.009.072L17.591 7.3a.052.052 0 0 0 .056.006z" transform="translate(9.785 -.407)" style="fill:#00192d"/>
    <path data-name="패스 19540" d="M22.311 5.023V9.4a.045.045 0 0 0 .044.047h1.553a.045.045 0 0 0 .044-.047l.006-4.378h4.334a.176.176 0 0 0 .128-.053l1.388-1.388a.044.044 0 0 0-.031-.075H17.523a.176.176 0 0 0-.128.053l-1.387 1.386a.046.046 0 0 0 .034.078z" transform="translate(8.66 4.025)" style="fill:#00192d"/>
</svg>
