<svg xmlns="http://www.w3.org/2000/svg" width="58.081" height="53.244" viewBox="0 0 58.081 53.244">
    <defs>
        <style>
            .cls-1{fill:#fff}.cls-3{fill:#7239b0}
        </style>
    </defs>
    <g id="BI" transform="translate(-58.387 -58.756)">
        <path id="Box" class="cls-1" transform="translate(58.387 64)" d="M0 0h48v48H0z"/>
        <g id="Shape" transform="translate(58.387 74.8)">
            <path id="패스_309" data-name="패스 309" d="M301.107 833.172h-7.2v7.17a.5.5 0 0 1-1 0v-7.17h-7.2a.5.5 0 1 1 0-1h7.2v-7.169a.5.5 0 0 1 1 0v7.169h7.2a.5.5 0 1 1 0 1m-7.7-13.256a12.758 12.758 0 1 0 12.8 12.758 12.781 12.781 0 0 0-12.8-12.758" transform="translate(-258.216 -819.916)" style="fill:#3cdc87"/>
            <path id="패스_310" data-name="패스 310" d="M225.034 829.954a8.205 8.205 0 0 1 15.455 0 .317.317 0 0 1-.3.423h-14.856a.318.318 0 0 1-.3-.423m13.323 9.02a.211.211 0 0 0-.32-.054 8.208 8.208 0 0 1-13-3.528.318.318 0 0 1 .3-.423H241.6a13.436 13.436 0 0 1 1.806-9.365 12.762 12.762 0 1 0-2.993 17.3.212.212 0 0 0 .056-.275z" transform="translate(-219.958 -819.915)"/>
        </g>
        <g id="그룹_19800" data-name="그룹 19800" transform="rotate(9 4173.725 -4609.166)">
            <path id="패스_17323" data-name="패스 17323" class="cls-3" d="M863.748 858.436s17.416 9.149 32.812 1.956c0 0-15.649-5.492-32.812-1.956z" transform="translate(0 -200.761)"/>
            <path id="패스_17324" data-name="패스 17324" class="cls-3" d="m978.3 660.441-2.183-7.872a9.71 9.71 0 0 1-.472-2.611 19.025 19.025 0 0 1 3.378 2.986l1.934-2.431a15.052 15.052 0 0 0 4.878 2.435 43.288 43.288 0 0 1-4.043-6.444l-3.56 2.346a.343.343 0 0 1-.571-.092q-2.164-2.835-4.387-5.624a17.341 17.341 0 0 0-2.569-2.771 1.258 1.258 0 0 0-.6-.314c-.427-.057-.791.29-1.07.618a35.077 35.077 0 0 0-4 6.358 62.393 62.393 0 0 0-5.489 12.385l.039.261c2.647 1.99 6.19 2.222 9.5 2.2a31.189 31.189 0 0 0 9.266-1.132z" transform="translate(-88.547)"/>
            <path id="패스_17325" data-name="패스 17325" d="m969.582 837.859 1.262-3.281a33.246 33.246 0 0 0 15.459.946l.877 3.385a38.985 38.985 0 0 1-17.598-1.05z" transform="translate(-97.82 -179.805)" style="fill:#f15a24"/>
            <path id="패스_17326" data-name="패스 17326" class="cls-1" d="m1010.994 843.575.636-3.807-.349.2a14.721 14.721 0 0 0 1.932.235l-.284-.284a36.754 36.754 0 0 0-.245 3.8l.284-.284-2.247-.218c-.364-.035-.361.533 0 .568l2.247.218a.287.287 0 0 0 .284-.284 36.737 36.737 0 0 1 .245-3.8c.018-.158-.145-.276-.284-.284a13.565 13.565 0 0 1-1.781-.214.288.288 0 0 0-.349.2l-.636 3.807c-.06.354.487.507.547.147z" transform="translate(-135.586 -184.274)"/>
        </g>
    </g>
</svg>
