<svg xmlns="http://www.w3.org/2000/svg" width="48" height="48" viewBox="0 0 48 48">
    <g>
        <path fill="#fff" d="M0 0H48V48H0z" transform="translate(-58.387 -64) translate(58.387 64)"/>
        <g>
            <path fill="#3cdc87" d="M301.107 833.172h-7.2v7.17a.5.5 0 0 1-1 0v-7.17h-7.2a.5.5 0 1 1 0-1h7.2v-7.169a.5.5 0 0 1 1 0v7.169h7.2a.5.5 0 1 1 0 1m-7.7-13.256a12.758 12.758 0 1 0 12.8 12.758 12.781 12.781 0 0 0-12.8-12.758" transform="translate(-58.387 -64) translate(58.387 74.8) translate(-258.216 -819.916)"/>
            <path d="M225.034 829.954a8.205 8.205 0 0 1 15.455 0 .317.317 0 0 1-.3.423h-14.856a.318.318 0 0 1-.3-.423m13.323 9.02a.211.211 0 0 0-.32-.054 8.208 8.208 0 0 1-13-3.528.318.318 0 0 1 .3-.423H241.6a13.436 13.436 0 0 1 1.806-9.365 12.762 12.762 0 1 0-2.993 17.3.212.212 0 0 0 .056-.275z" transform="translate(-58.387 -64) translate(58.387 74.8) translate(-219.958 -819.915)"/>
        </g>
    </g>
</svg>
