<svg xmlns="http://www.w3.org/2000/svg" width="58" height="48" viewBox="0 0 58 48">
  <defs>
    <style>
      .cls-1 {
        fill: #fff;
      }

      .cls-2 {
        fill: #3cdc87;
      }

      .cls-3 {
        fill: #ed553e;
      }

      .cls-4 {
        fill: #0f1f2e;
      }
    </style>
  </defs>
  <g id="BI_xmas" transform="translate(-58.387 -64)">
    <rect id="Box" class="cls-1" width="58" height="48" transform="translate(58.387 64)"/>
    <g id="Shape" transform="translate(58.387 74.8)">
      <path id="패스_309" data-name="패스 309" class="cls-2" d="M301.107,833.172h-7.2v7.17a.5.5,0,0,1-1,0v-7.17h-7.2a.5.5,0,1,1,0-1h7.2v-7.169a.5.5,0,0,1,1,0v7.169h7.2a.5.5,0,1,1,0,1m-7.7-13.256a12.758,12.758,0,1,0,12.8,12.758,12.781,12.781,0,0,0-12.8-12.758" transform="translate(-258.216 -819.916)"/>
      <path id="패스_310" data-name="패스 310" d="M225.034,829.954a8.205,8.205,0,0,1,15.455,0,.317.317,0,0,1-.3.423H225.333a.318.318,0,0,1-.3-.423m13.323,9.02a.211.211,0,0,0-.32-.054,8.208,8.208,0,0,1-13-3.528.318.318,0,0,1,.3-.423H241.6a13.436,13.436,0,0,1,1.806-9.365,12.762,12.762,0,1,0-2.993,17.3.212.212,0,0,0,.056-.275Z" transform="translate(-219.958 -819.915)"/>
    </g>
    <g id="산타모자" transform="translate(84.387 66)">
      <path id="패스_17809" data-name="패스 17809" class="cls-3" d="M18.736,9.741s10.212.554,17.693,7.93c0,0,2.853-.026,4.01-4.784,0,0,2.3.04,3.487,4.878,0,0,4.629-5.3-3.211-13.931-3.246-3.574-6.659-6.5-16.97.118a13.8,13.8,0,0,0-5.009,5.79" transform="translate(-16.224 0)"/>
      <path id="패스_17810" data-name="패스 17810" class="cls-1" d="M197.18,111.383a3.548,3.548,0,1,0-2.908,4.09,3.548,3.548,0,0,0,2.908-4.09" transform="translate(-165.315 -94.612)"/>
      <path id="패스_17811" data-name="패스 17811" class="cls-1" d="M22.939,75.584c-6.832-5.18-12.523-7.486-19-8.085a3.622,3.622,0,0,0-2.087.351,2.081,2.081,0,0,0-1.1,1.933A1.841,1.841,0,0,0,1.8,71.2a5.237,5.237,0,0,0,1.671.374A35.741,35.741,0,0,1,20.6,79.025a1.844,1.844,0,0,0,2.586-.335q.053-.069.1-.142a2.163,2.163,0,0,0-.343-2.962" transform="translate(-0.652 -59.146)"/>
      <path id="패스_17812" data-name="패스 17812" d="M170.561,92.344a.252.252,0,0,1-.158-.056,4.957,4.957,0,0,0-3.088-.867.253.253,0,1,1-.042-.5h.022a5.369,5.369,0,0,1,3.426.98.253.253,0,0,1-.159.449" transform="translate(-145.168 -79.153)"/>
      <path id="패스_17813" data-name="패스 17813" class="cls-4" d="M6.777,64.923a18.352,18.352,0,0,0-3.14-.47c-.51-.031-1.019-.036-1.529-.028a1.873,1.873,0,0,0-.771.165A2,2,0,0,0,.4,65.3a2.639,2.639,0,0,0-.367,1.147,2.31,2.31,0,0,0,.108,1.242,1.454,1.454,0,0,0,.809.853,9.616,9.616,0,0,0,1.448.424c.495.118.993.216,1.493.308,1.022.187,2.05.344,3.063.576A27.993,27.993,0,0,1,12.6,71.96,36.19,36.19,0,0,1,17.7,74.808c.406.279.8.57,1.189.877a8.672,8.672,0,0,0,1.155.828,2.689,2.689,0,0,0,1.259.405A1.865,1.865,0,0,0,22.48,76.5a1.655,1.655,0,0,0,.58-1.145,5.54,5.54,0,0,0-.007-1.379,2.228,2.228,0,0,0-.561-1.235,3.369,3.369,0,0,0-.981-.683c-.379-.189-.769-.351-1.141-.555a13.413,13.413,0,0,1-1.277-.813c-.773-.545-1.526-1.116-2.307-1.651a27.219,27.219,0,0,0-4.721-2.661,18.621,18.621,0,0,0-2.526-.872q-.684-.18-1.381-.3c-.275-.048-.548-.085-.819-.151l-.56-.135c-.419-.1-.6.545-.178.646l.56.136c.253.061.506.1.763.141a17.269,17.269,0,0,1,2.5.628,21.808,21.808,0,0,1,4.563,2.2c.739.457,1.46.943,2.168,1.446.759.539,1.494,1.116,2.28,1.616a10.317,10.317,0,0,0,1.2.655,7.779,7.779,0,0,1,1.013.521,1.579,1.579,0,0,1,.654.771,3.348,3.348,0,0,1,.121,1.231,1.392,1.392,0,0,1-.309,1.034,1.169,1.169,0,0,1-.871.3,2.454,2.454,0,0,1-1.1-.46c-.38-.243-.721-.538-1.077-.813a29.579,29.579,0,0,0-4.742-2.916,41.583,41.583,0,0,0-5.245-2.3A21.19,21.19,0,0,0,6.2,69.007c-.957-.184-1.921-.33-2.876-.524-.478-.1-.954-.207-1.423-.34-.215-.061-.432-.122-.642-.2a.733.733,0,0,1-.351-.228A1.472,1.472,0,0,1,.7,67.271a1.525,1.525,0,0,1-.02-.543,2.367,2.367,0,0,1,.235-.979,1.382,1.382,0,0,1,.761-.58s.081-.031.11-.04.18-.033.077-.025c.12-.01.24-.009.36-.011a17.2,17.2,0,0,1,2.925.19q.732.113,1.452.286c.419.1.6-.546.178-.646" transform="translate(0 -56.506)"/>
      <path id="패스_17814" data-name="패스 17814" class="cls-4" d="M193.065,104.87a4.827,4.827,0,0,0-2.165.62,3.407,3.407,0,0,0-1.382,1.971A3.979,3.979,0,0,0,190.8,111.8a4.3,4.3,0,0,0,1.123.524,3.975,3.975,0,0,0,1.255.211,3.591,3.591,0,0,0,2.177-.815,3.2,3.2,0,0,0,.8-.824,3.671,3.671,0,0,0,.392-1.169,4.375,4.375,0,0,0-.221-2.43,4.185,4.185,0,0,0-1.325-1.8,2.939,2.939,0,0,0-1.019-.484c-.1-.025-.193-.044-.291-.059l-.14-.019a1.159,1.159,0,0,0-.123-.009c-.092-.009-.185-.027-.277-.041a.346.346,0,0,0-.412.234.338.338,0,0,0,.234.412,3.865,3.865,0,0,1,1.394.351,2.951,2.951,0,0,1,1.091,1.154,3.712,3.712,0,0,1,.5,1.866,3.925,3.925,0,0,1-.152,1.061,1.891,1.891,0,0,1-.441.859,3.484,3.484,0,0,1-1.661.975,3.2,3.2,0,0,1-2.034-.287,2.563,2.563,0,0,1-.8-.529,2.934,2.934,0,0,1-.523-.768,3.451,3.451,0,0,1-.319-1.961,3.144,3.144,0,0,1,1.046-2.07,3.817,3.817,0,0,1,1.992-.641.344.344,0,0,0,.335-.335.338.338,0,0,0-.335-.335" transform="translate(-164.628 -91.532)"/>
    </g>
  </g>
</svg>
