<svg xmlns="http://www.w3.org/2000/svg" width="131" height="60" viewBox="0 0 131 60">
    <defs>
        <style>
            .cls-1{fill:#3ddb87}
        </style>
    </defs>
    <g id="img" transform="translate(-114.117 -384)">
        <path id="빼기_99" d="M-10348.743-2332.406a1.335 1.335 0 0 1-.811-.273 1.363 1.363 0 0 1-.26-1.9c7.182-9.568 6.484-28.971 6.451-29.792a8.949 8.949 0 0 0-2.583-6.329 8.686 8.686 0 0 0-6.221-2.609 8.847 8.847 0 0 0-8.8 8.872c0 1.064.055 2.142.107 3.185v.046c.339 6.729.723 14.354-11.088 20.72a1.346 1.346 0 0 1-.635.16 1.338 1.338 0 0 1-1.187-.715 1.364 1.364 0 0 1 .553-1.836c10.307-5.559 10-11.7 9.669-18.2-.062-1.207-.112-2.293-.112-3.363a11.551 11.551 0 0 1 11.492-11.583 11.552 11.552 0 0 1 11.5 11.583 80.215 80.215 0 0 1-.528 12.108 59.247 59.247 0 0 1-2.044 10.148 29.842 29.842 0 0 1-4.422 9.238 1.333 1.333 0 0 1-1.081.54zm-7.1 0a1.34 1.34 0 0 1-.925-.37 1.366 1.366 0 0 1-.055-1.917c6.415-6.832 9-15.987 8.388-29.684a3.812 3.812 0 0 0-3.73-3.816 3.746 3.746 0 0 0-3.728 3.756c0 1.438.072 2.816.143 4.15v.027c.4 7.583.737 14.131-11.261 23.22a1.325 1.325 0 0 1-.808.273 1.333 1.333 0 0 1-1.078-.544 1.362 1.362 0 0 1 .266-1.9c10.86-8.228 10.565-13.828 10.192-20.918v-.066c-.071-1.354-.145-2.754-.145-4.245a6.452 6.452 0 0 1 6.421-6.468 6.552 6.552 0 0 1 6.418 6.405c.651 14.489-2.161 24.257-9.119 31.671a1.339 1.339 0 0 1-.98.426zm-6.522-1.763a1.331 1.331 0 0 1-.972-.419 1.367 1.367 0 0 1 .039-1.917c10.038-9.7 9.935-16.863 9.814-25.155l-.006-.427v-.115c-.01-.728-.021-1.481-.021-2.234a1.354 1.354 0 0 1 1.347-1.357 1.354 1.354 0 0 1 1.347 1.357c0 .895.012 1.768.026 2.735.125 8.554.243 16.633-10.641 27.155a1.333 1.333 0 0 1-.934.377zm21.127-.273a1.331 1.331 0 0 1-.458-.081 1.364 1.364 0 0 1-.808-1.737c4.169-11.54 4.217-28.011 4.217-28.176a13.946 13.946 0 0 0-13.878-13.982 14.663 14.663 0 0 0-10.711 4.712 11.94 11.94 0 0 0-3.17 9.148c.06.673.136 1.36.209 2.023l.006.05.015.133c.722 6.423 1.54 13.7-10.088 16.24a1.363 1.363 0 0 1-.289.031 1.34 1.34 0 0 1-1.313-1.071 1.36 1.36 0 0 1 1.031-1.612c9.246-2.018 8.69-6.985 7.987-13.273v-.011c-.072-.631-.164-1.459-.239-2.266a14.641 14.641 0 0 1 3.865-11.221 17.4 17.4 0 0 1 12.7-5.595 16.651 16.651 0 0 1 16.569 16.694c0 .693-.05 17.121-4.377 29.1a1.348 1.348 0 0 1-1.269.894zm5.832-2.816a1.42 1.42 0 0 1-.344-.044 1.362 1.362 0 0 1-.958-1.659 133.564 133.564 0 0 0 3.5-25.475 19.042 19.042 0 0 0-5.554-13.5 18.738 18.738 0 0 0-13.4-5.593 18.752 18.752 0 0 0-13.4 5.593 19.046 19.046 0 0 0-5.548 13.5 19.263 19.263 0 0 0 .817 5.569 3.9 3.9 0 0 1-2.406 4.8 3.867 3.867 0 0 1-1.308.23 3.837 3.837 0 0 1-1.743-.42 3.966 3.966 0 0 1-2-2.4 27.132 27.132 0 0 1-1.133-7.775 26.842 26.842 0 0 1 7.827-19.035 26.436 26.436 0 0 1 18.89-7.885 26.449 26.449 0 0 1 18.893 7.885 27.228 27.228 0 0 1 2.773 3.273v5.271a24.226 24.226 0 0 0-4.678-6.628 23.779 23.779 0 0 0-16.988-7.09 23.779 23.779 0 0 0-16.988 7.09 24.141 24.141 0 0 0-7.035 17.118 24.319 24.319 0 0 0 1.019 6.994 1.236 1.236 0 0 0 .63.763 1.136 1.136 0 0 0 .528.13 1.191 1.191 0 0 0 .4-.07 1.193 1.193 0 0 0 .742-1.458 21.974 21.974 0 0 1-.936-6.358 21.739 21.739 0 0 1 6.338-15.42 21.415 21.415 0 0 1 15.3-6.387 21.415 21.415 0 0 1 15.3 6.387 21.73 21.73 0 0 1 6.34 15.42 134.426 134.426 0 0 1-3.584 26.167 1.348 1.348 0 0 1-1.295 1.007z" class="cls-1" transform="translate(10504 2775.856)"/>
        <g id="noun_Face_ID_1301653" transform="translate(167.354 -3616)">
            <g id="그룹_15192" transform="translate(5.862 4000)">
                <path id="패스_9070" d="M4043.744 4002.857a1.429 1.429 0 0 1 0-2.857h7.685a8.594 8.594 0 0 1 8.571 8.572v7.526a1.428 1.428 0 1 1-2.857 0v-7.526a5.736 5.736 0 0 0-5.714-5.714zm13.4 41.18a1.428 1.428 0 0 1 2.857 0v7.392a8.593 8.593 0 0 1-8.571 8.571h-7.737a1.428 1.428 0 1 1 0-2.857h7.737a5.736 5.736 0 0 0 5.714-5.714zm-41.194 13.106a1.428 1.428 0 1 1 0 2.857h-7.377a8.594 8.594 0 0 1-8.572-8.571v-7.392a1.429 1.429 0 0 1 2.857 0v7.392a5.736 5.736 0 0 0 5.714 5.714zm-13.092-41.167a1.429 1.429 0 0 1-2.857 0v-7.4a8.594 8.594 0 0 1 8.572-8.572h7.6a1.429 1.429 0 1 1 0 2.857h-7.6a5.737 5.737 0 0 0-5.714 5.714zm14.82 1.834a1.32 1.32 0 0 1 1.316 1.316v4.194a1.32 1.32 0 0 1-1.316 1.316 1.32 1.32 0 0 1-1.316-1.316v-4.194a1.32 1.32 0 0 1 1.315-1.316zm11.877 1.594a1.423 1.423 0 1 1 2.845.011l-.083 11.74a6.937 6.937 0 0 1-.577 3.089 3.826 3.826 0 0 1-3.889 2.12 1.424 1.424 0 0 1 .067-2.847c.756.02 1.116-.223 1.277-.546a4.547 4.547 0 0 0 .276-1.827zm-10.532 22.825a1.426 1.426 0 1 1 2.3-1.685 6.115 6.115 0 0 0 .95 1.02 11.322 11.322 0 0 0 7.147 2.314 12.977 12.977 0 0 0 7.7-2.226 8.207 8.207 0 0 0 1.377-1.264 1.424 1.424 0 1 1 2.164 1.853 11.012 11.012 0 0 1-1.857 1.71 15.857 15.857 0 0 1-9.417 2.773 14.161 14.161 0 0 1-8.966-2.994 8.981 8.981 0 0 1-1.398-1.5zm23.1-24.42a1.32 1.32 0 0 1 1.316 1.316v4.194a1.32 1.32 0 0 1-1.316 1.316 1.32 1.32 0 0 1-1.316-1.316v-4.194a1.32 1.32 0 0 1 1.316-1.315z" class="cls-1" transform="translate(-4000 -4000)"/>
            </g>
        </g>
    </g>
</svg>
