<svg xmlns="http://www.w3.org/2000/svg" width="50.858" height="70.281" viewBox="0 0 50.858 70.281">
    <defs>
        <linearGradient id="tuljcykwtc" x1="-.05" y1=".087" x2="1.05" y2=".913" gradientUnits="objectBoundingBox">
            <stop offset="0" stop-color="#fff"/>
            <stop offset=".624" stop-color="#c9c6c0"/>
            <stop offset="1" stop-color="#ada89f"/>
        </linearGradient>
        <clipPath id="8151vuq4ob">
            <rect data-name="사각형 6916" width="35.858" height="55.281" rx="2" style="fill:none"/>
        </clipPath>
        <filter id="4f0k1vnn3a" x="0" y="0" width="50.858" height="70.281" filterUnits="userSpaceOnUse">
            <feOffset dx="3" dy="3"/>
            <feGaussianBlur stdDeviation="2.5" result="blur"/>
            <feFlood flood-opacity=".161"/>
            <feComposite operator="in" in2="blur"/>
            <feComposite in="SourceGraphic"/>
        </filter>
    </defs>
    <g data-name="그룹 19459">
        <g style="filter:url(#4f0k1vnn3a)">
            <rect data-name="사각형 6915" width="35.858" height="55.281" rx="2" transform="translate(4.5 4.5)" style="fill:#0c284c"/>
        </g>
        <g data-name="그룹 19457" style="clip-path:url(#8151vuq4ob)" transform="translate(4.5 4.5)">
            <g data-name="그룹 19456">
                <path data-name="패스 14143" d="M12.383 0a12.8 12.8 0 0 1 12.539 12.837A12.424 12.424 0 0 1 12.54 25.516 12.8 12.8 0 0 1 0 12.68 12.424 12.424 0 0 1 12.383 0z" transform="rotate(-76.08 41.616 18.527)" style="fill:#35c567"/>
                <path data-name="패스 14110" d="M300.781 310.259H293.6v-6.992a.5.5 0 0 0-1 0v6.992h-7.181a.486.486 0 1 0 0 .971h7.181v6.992a.5.5 0 0 0 1 0v-6.992h7.181a.486.486 0 1 0 0-.971z" transform="translate(-264.098 -265.308)" style="fill:#fff"/>
                <path data-name="패스 14111" d="M189.109 301.734a.214.214 0 0 0-.319-.052 8.277 8.277 0 0 1-5.265 1.871 8.168 8.168 0 0 1-7.711-5.311.311.311 0 0 1 .3-.413H193.1a12.193 12.193 0 0 1 1.5-8.45 12.837 12.837 0 0 0-11.074-6.231 12.434 12.434 0 0 0-.988 24.852 12.98 12.98 0 0 0 8.622-2.433.2.2 0 0 0 .056-.268zm-13.3-8.8a8.254 8.254 0 0 1 15.423 0 .311.311 0 0 1-.3.413h-14.82a.311.311 0 0 1-.299-.409z" transform="translate(-176.669 -250.152)" style="fill:#fff"/>
            </g>
        </g>
    </g>
    <g data-name="그룹 19461">
        <path data-name="패스 14112" d="M274.81 165.731a.28.28 0 0 0-.279.279v6.777a.279.279 0 0 0 .279.279h4.744a.279.279 0 0 0 .279-.279v-6.777a.28.28 0 0 0-.279-.279z" transform="translate(-251.706 -154.72)" style="fill:#706563"/>
        <g data-name="그룹 19460">
            <path data-name="사각형 6917" d="M2.655 0h.275a2.655 2.655 0 0 1 2.655 2.655v2.137A2.655 2.655 0 0 1 2.93 7.447h-.274A2.656 2.656 0 0 1 0 4.791V2.655A2.655 2.655 0 0 1 2.655 0z" transform="translate(22.684 10.958)" style="stroke:#666;stroke-miterlimit:10;stroke-width:.5px;fill:url(#tuljcykwtc)"/>
            <path data-name="패스 14113" d="M279.525 167.8h-1.933v-2.315h-.19v2.315H276v-2.315h-.19v2.315h-1.87v.191h5.585z" transform="translate(-251.256 -154.53)" style="fill:#666"/>
            <path data-name="패스 14114" d="M277.4 188.809h.19v-2.468h-3.65v.191h1.875v2.278H276v-2.278h1.4z" transform="translate(-251.256 -170.403)" style="fill:#666"/>
        </g>
    </g>
    <g data-name="그룹 19464">
        <g data-name="그룹 19462">
            <path data-name="패스 14115" d="M283.457 148.263a.5.5 0 0 1 .494-.494h12.314a.5.5 0 0 1 .494.494v1.959h.246v-1.959a.741.741 0 0 0-.74-.74h-12.314a.741.741 0 0 0-.74.74v1.959h.246z" transform="translate(-258.603 -140.865)" style="fill:#fff"/>
            <path data-name="패스 14116" d="M289.405 152.653c0 .02-.012.027-.034.027h-.186c-.021 0-.029-.007-.029-.029v-.505a.035.035 0 0 0-.039-.036h-.487a.032.032 0 0 0-.034.036v.505c0 .022-.013.029-.032.029h-.19c-.018 0-.025-.007-.025-.027V151.4c0-.019.007-.03.025-.03h.19a.029.029 0 0 1 .032.03v.486a.03.03 0 0 0 .034.033h.487c.023 0 .039-.011.039-.033v-.486c0-.019.007-.03.029-.03h.186c.022 0 .034.011.034.03z" transform="translate(-262.514 -143.791)" style="fill:#fff"/>
            <path data-name="패스 14117" d="M293.979 153.69a.2.2 0 0 1-.209-.205v-.785c0-.023.009-.034.031-.034h.178c.018 0 .03.011.03.034v.753c0 .022.009.032.034.032h.327c.021 0 .036-.011.036-.032v-.753c0-.023.009-.034.031-.034h.178a.03.03 0 0 1 .032.034v1.138a.191.191 0 0 1-.022.082l-.121.2a.053.053 0 0 1-.045.028h-.023c-.022 0-.031-.012-.031-.032v-.5c0-.021-.013-.03-.032-.025l-.343.1a.255.255 0 0 1-.052 0" transform="translate(-266.638 -144.782)" style="fill:#fff"/>
            <path data-name="패스 14118" d="M298.648 153.689a.207.207 0 0 1-.205-.205v-.784c0-.023.009-.033.031-.033h.18c.016 0 .028.011.028.033v.754c0 .022.011.03.036.03h.327c.021 0 .035-.009.035-.03v-.754c0-.023.007-.033.029-.033h.179a.029.029 0 0 1 .032.033v.941c0 .02-.012.027-.032.027h-.179c-.022 0-.029-.007-.029-.029v-.029c0-.023-.014-.032-.034-.025l-.343.093a.2.2 0 0 1-.056.005" transform="translate(-270.194 -144.782)" style="fill:#fff"/>
            <path data-name="패스 14119" d="M303.994 152.813v.782c0 .02-.012.027-.032.027h-.178c-.022 0-.029-.007-.029-.029v-.754a.033.033 0 0 0-.036-.035h-.327a.031.031 0 0 0-.036.035v.754a.025.025 0 0 1-.029.029h-.18c-.021 0-.03-.007-.03-.027v-.941c0-.023.009-.033.03-.033h.18c.016 0 .029.011.029.033v.031c0 .02.009.029.036.022l.341-.093a.275.275 0 0 1 .052-.009.21.21 0 0 1 .209.209" transform="translate(-273.751 -144.731)" style="fill:#fff"/>
            <path data-name="패스 14120" d="M307.638 152.1v-.45a.23.23 0 0 1 .127-.216l.189-.11a.226.226 0 0 1 .125-.036h.165c.023 0 .034-.009.034-.031v-.369c0-.02.009-.034.027-.034h.182c.021 0 .03.015.03.034v1.375c0 .02-.009.027-.03.027h-.187c-.018 0-.027-.007-.027-.029v-.029c0-.023-.01-.032-.034-.025l-.345.092a.163.163 0 0 1-.053.006.211.211 0 0 1-.207-.206m.639-.025v-.566c0-.025-.01-.038-.036-.038h-.33c-.025 0-.034.013-.034.038v.566c0 .022.009.03.034.03h.33c.026 0 .036-.009.036-.03" transform="translate(-277.191 -143.397)" style="fill:#fff"/>
            <path data-name="패스 14121" d="M312.375 153.689a.207.207 0 0 1-.207-.205v-.45a.23.23 0 0 1 .125-.216l.191-.111a.219.219 0 0 1 .124-.036h.409c.02 0 .03.011.03.033v.941c0 .02-.011.027-.03.027h-.182c-.02 0-.027-.007-.027-.029v-.029c0-.023-.012-.032-.036-.025l-.343.093a.192.192 0 0 1-.053.005m.432-.23v-.566a.032.032 0 0 0-.036-.037h-.33c-.025 0-.034.012-.034.037v.566c0 .022.009.03.034.03h.33c.023 0 .036-.009.036-.03" transform="translate(-280.638 -144.782)" style="fill:#fff"/>
            <path data-name="패스 14122" d="M317.088 151.031c0 .022-.012.029-.03.029h-.179c-.023 0-.03-.007-.03-.029v-.146c0-.02.007-.034.03-.034h.179a.031.031 0 0 1 .03.034zm0 1.229c0 .02-.012.027-.03.027h-.179c-.023 0-.03-.007-.03-.027v-.941c0-.023.007-.034.03-.034h.179c.018 0 .03.011.03.034z" transform="translate(-284.2 -143.397)" style="fill:#fff"/>
            <path data-name="패스 14123" d="M319.9 152.424v-.677a.25.25 0 0 1 .13-.229l.209-.116a.24.24 0 0 1 .123-.033h.443a.028.028 0 0 1 .032.032v.13c0 .02-.011.028-.032.028h-.619c-.022 0-.03.013-.03.036v.861c0 .023.009.033.03.033h.637c.02 0 .032.009.032.027a.05.05 0 0 1-.029.046l-.153.086a.252.252 0 0 1-.127.032h-.385a.254.254 0 0 1-.261-.257" transform="translate(-286.521 -143.792)" style="fill:#fff"/>
            <path data-name="패스 14124" d="M324.747 153.689a.207.207 0 0 1-.207-.205v-.45a.231.231 0 0 1 .125-.216l.191-.111a.219.219 0 0 1 .123-.036h.409c.02 0 .03.011.03.033v.941c0 .02-.011.027-.03.027h-.182c-.02 0-.027-.007-.027-.029v-.029c0-.023-.012-.032-.036-.025l-.343.093a.191.191 0 0 1-.054.005m.432-.23v-.566a.032.032 0 0 0-.036-.037h-.33c-.025 0-.034.012-.034.037v.566c0 .022.009.03.034.03h.33c.023 0 .036-.009.036-.03" transform="translate(-290.052 -144.782)" style="fill:#fff"/>
            <path data-name="패스 14125" d="M329.866 152.794c0 .018-.012.027-.032.027h-.352c-.023 0-.032.012-.032.035v.754c0 .021-.014.029-.032.029h-.18c-.022 0-.029-.007-.029-.027v-.941c0-.023.007-.034.029-.034h.18a.03.03 0 0 1 .032.034v.029c0 .02.009.029.032.029a.043.043 0 0 0 .02 0l.1-.068a.258.258 0 0 1 .123-.03h.105a.028.028 0 0 1 .032.03z" transform="translate(-293.605 -144.748)" style="fill:#fff"/>
            <path data-name="패스 14126" d="M332.109 152.1v-.45a.229.229 0 0 1 .127-.216l.189-.11a.225.225 0 0 1 .125-.036h.164c.023 0 .034-.009.034-.031v-.369c0-.02.009-.034.027-.034h.182c.022 0 .03.015.03.034v1.375c0 .02-.009.027-.03.027h-.182c-.018 0-.027-.007-.027-.029v-.029c0-.023-.011-.032-.034-.025l-.345.092a.161.161 0 0 1-.053.006.212.212 0 0 1-.207-.206m.639-.025v-.566c0-.025-.011-.038-.036-.038h-.33c-.025 0-.034.013-.034.038v.566c0 .022.009.03.034.03h.33c.025 0 .036-.009.036-.03" transform="translate(-295.812 -143.397)" style="fill:#fff"/>
        </g>
        <g data-name="그룹 19463">
            <path data-name="패스 14127" d="m204.075 149.707-.113-.124a1.571 1.571 0 0 0-.217.789h.078a.953.953 0 0 1 .252-.665" transform="translate(-197.4 -142.432)" style="fill:#fff"/>
            <path data-name="패스 14128" d="M204.056 153.442a.736.736 0 0 1-.232-.557h-.078a1.943 1.943 0 0 0 .151.777z" transform="translate(-197.401 -144.944)" style="fill:#fff"/>
            <path data-name="패스 14129" d="m214.945 152.043-.144.149a.322.322 0 0 1 .319.355h.078a.648.648 0 0 0-.252-.5" transform="translate(-205.813 -144.304)" style="fill:#fff"/>
            <path data-name="패스 14130" d="M215.312 154.151h-.078a.455.455 0 0 1-.283.4l.2.279a1.4 1.4 0 0 0 .158-.679" transform="translate(-205.927 -145.908)" style="fill:#fff"/>
            <path data-name="패스 14131" d="M205.439 151.251a.515.515 0 0 0-.009.093.744.744 0 0 0 .784.761c.831 0 1.078-.679 1.45-.679h.006l.145-.149a1.2 1.2 0 0 0-.77-.24c-.658 0-1.009.55-1.308.55a.268.268 0 0 1-.229-.282.3.3 0 0 1 0-.042z" transform="translate(-198.682 -143.539)" style="fill:#fff"/>
            <path data-name="패스 14132" d="M205.364 147.182c.48 0 .814.364 1.243.364a.783.783 0 0 0 .87-.74l-.078-.013c-.022.13-.106.285-.258.285s-.295-.126-.515-.247a1.566 1.566 0 0 0-.791-.246 1.382 1.382 0 0 0-1.181.716l.113.125a.81.81 0 0 1 .6-.244" transform="translate(-198.092 -140.151)" style="fill:#fff"/>
            <path data-name="패스 14133" d="M205.653 155.562a1.694 1.694 0 0 1-1.119-.342l-.159.219a1.474 1.474 0 0 0 1.452.876 1.415 1.415 0 0 0 1.28-.671l-.2-.279a2.851 2.851 0 0 1-1.25.2" transform="translate(-197.879 -146.722)" style="fill:#fff"/>
            <path data-name="패스 14134" d="M219.425 151.464a.709.709 0 0 1-.747-.784.724.724 0 0 1 .756-.789.941.941 0 0 1 .464.112l-.051.327a.751.751 0 0 0-.4-.129c-.262 0-.389.193-.389.476s.131.486.393.486a.4.4 0 0 0 .2-.049v-.27h-.264l-.044-.279h.635v.738a1 1 0 0 1-.553.161" transform="translate(-208.763 -142.667)" style="fill:#fff"/>
            <path data-name="패스 14135" d="M225.45 151.488a1.245 1.245 0 0 1-.53-.114l.055-.321a1.072 1.072 0 0 0 .481.141c.108 0 .182-.046.182-.136s-.044-.125-.257-.207c-.3-.116-.435-.215-.435-.466a.458.458 0 0 1 .518-.448.962.962 0 0 1 .457.1l-.057.316a.828.828 0 0 0-.4-.123c-.115 0-.169.049-.169.119s.042.115.231.187c.33.121.462.235.462.477 0 .33-.242.475-.543.475" transform="translate(-213.513 -142.701)" style="fill:#fff"/>
            <path data-name="패스 14136" d="M235.784 150.053h-.163v.748h.163v-.317h.195v-.146h-.195z" transform="translate(-221.656 -142.79)" style="fill:#fff"/>
            <path data-name="패스 14137" d="M231.969 150.189h-.769v.147h.567a.516.516 0 0 1-.055.146h-.512v.137h.4a.93.93 0 0 1-.485.186l.064.123a.809.809 0 0 0 .791-.738" transform="translate(-218.226 -142.893)" style="fill:#fff"/>
            <path data-name="패스 14138" d="M232.223 153.854h.845v-.4h-1.016v.141h.853v.127h-.845v.333a.083.083 0 0 0 .081.081h.935v-.142h-.853z" transform="translate(-218.941 -145.377)" style="fill:#fff"/>
            <path data-name="사각형 6918" transform="translate(15.508 7.263)" style="fill:#fff" d="M0 0h.158v.829H0z"/>
            <path data-name="패스 14139" d="M240.443 150.882v-.829h-.158v.32h-.2v.146h.2v.362z" transform="translate(-225.053 -142.79)" style="fill:#fff"/>
            <path data-name="패스 14140" d="M238.329 150.779h-.46v-.161h.341v-.136h-.341v-.151h.406v-.142h-.569v.65a.083.083 0 0 0 .081.081h.541z" transform="translate(-223.243 -142.893)" style="fill:#fff"/>
            <path data-name="패스 14141" d="M238.387 153.939h.878v.455h.163v-.6h-1.04z" transform="translate(-223.76 -145.636)" style="fill:#fff"/>
            <path data-name="패스 14142" d="M244.246 150.121v.189a.589.589 0 0 1-.538.569l.071.128a.6.6 0 0 1 1.1 0l.071-.128a.59.59 0 0 1-.538-.569v-.189z" transform="translate(-227.81 -142.842)" style="fill:#fff"/>
            <path data-name="사각형 6919" transform="translate(15.854 8.466)" style="fill:#fff" d="M0 0h1.333v.146H0z"/>
        </g>
    </g>
</svg>
