<svg xmlns="http://www.w3.org/2000/svg" width="269.658" height="411.608" viewBox="0 0 269.658 411.608">
  <defs>
    <style>
      .cls-1 {
        fill: #f5f5f5;
      }

      .cls-1, .cls-2, .cls-6 {
        stroke-linecap: round;
      }

      .cls-2, .cls-6 {
        fill: #fff;
      }

      .cls-2 {
        stroke: #0f1f2e;
        stroke-linejoin: round;
      }

      .cls-3 {
        fill: #e5e5e5;
      }

      .cls-4, .cls-5, .cls-7 {
        fill: #aeaeae;
        font-family: Montserrat-Bold, Montserrat;
        font-weight: 700;
      }

      .cls-4 {
        font-size: 20px;
      }

      .cls-5 {
        font-size: 8px;
      }

      .cls-7 {
        font-size: 15px;
      }

      .cls-8, .cls-9 {
        stroke: none;
      }

      .cls-9 {
        fill: #0f1f2e;
      }

      .cls-10 {
        fill: none;
      }
    </style>
  </defs>
  <g id="coin" transform="translate(-27.856 -67.246)">
    <g id="그룹_16536" data-name="그룹 16536" transform="translate(-8 -87.456)">
      <g id="패스_10744" data-name="패스 10744" class="cls-1" transform="matrix(0.921, 0.391, -0.391, 0.921, 45.811, 514.335)">
        <path class="cls-8" d="M 35.60208892822266 24.97912979125977 C 30.77389907836914 24.97912979125977 26.0819091796875 24.48733901977539 21.65646934509277 23.51740837097168 C 17.49023056030273 22.60429954528809 13.72991943359375 21.30878829956055 10.47999000549316 19.66687965393066 C 4.137559413909912 16.46258926391602 0.4999996423721313 12.29521942138672 0.4999996423721313 8.233319282531738 C 0.4999996423721313 3.033642768859863 0.5680156946182251 1.171151995658875 0.6136927008628845 0.5069210529327393 L 72.48753356933594 0.9768111705780029 L 72.3759765625 8.225628852844238 L 72.37592315673828 8.229469299316406 L 72.37592315673828 8.233319282531738 C 72.37592315673828 10.22837924957275 71.41481018066406 12.25190925598145 69.519287109375 14.24769878387451 C 67.65982055664062 16.20552825927734 64.91146087646484 18.07754898071289 61.57131958007812 19.66136932373047 C 58.11373138427734 21.30088806152344 54.15750885009766 22.59798812866211 49.81256103515625 23.51663970947266 C 45.22264862060547 24.48707962036133 40.44155883789062 24.97912979125977 35.60208892822266 24.97912979125977 Z"/>
        <path class="cls-9" d="M 1.086921691894531 1.010026931762695 C 1.046615600585938 1.929718017578125 1 3.924953460693359 1 8.233318328857422 C 1 10.12507915496826 1.836563110351562 12.04328918457031 3.486457824707031 13.93465900421143 C 5.158607482910156 15.85156917572021 7.654899597167969 17.67940902709961 10.70544815063477 19.22060012817383 C 13.91786956787109 20.84355926513672 17.63832855224609 22.1248893737793 21.76350784301758 23.02900886535645 C 26.15385818481445 23.99123954772949 30.80982971191406 24.47912979125977 35.60208892822266 24.47912979125977 C 40.40686798095703 24.47912979125977 45.15316009521484 23.99070930480957 49.70912933349609 23.0274486541748 C 54.01586151123047 22.11687850952148 57.93479919433594 20.83236885070801 61.35708999633789 19.2095890045166 C 64.64216613769531 17.65187835693359 67.33924102783203 15.81701946258545 69.15673828125 13.90336894989014 C 70.96105194091797 12.00360870361328 71.87590789794922 10.09592914581299 71.87590789794922 8.233318328857422 L 71.87590789794922 8.225618362426758 L 71.87602996826172 8.217929840087891 L 71.97983551025391 1.473493576049805 L 1.086921691894531 1.010026931762695 M 0.182098388671875 1.9073486328125e-06 C 0.185150146484375 5.7220458984375e-06 0.1868362426757812 0.004119873046875 0.1868362426757812 0.004119873046875 L 72.9952392578125 0.4801082611083984 L 72.87590789794922 8.233318328857422 C 72.87590789794922 16.9184684753418 55.72621154785156 25.47912979125977 35.60208892822266 25.47912979125977 C 15.47801971435547 25.47912979125977 0 16.9184684753418 0 8.233318328857422 C 0 0.3730030059814453 0.1530303955078125 -3.814697265625e-05 0.182098388671875 1.9073486328125e-06 Z"/>
      </g>
      <g id="타원_1830" data-name="타원 1830" class="cls-2" transform="matrix(0.921, 0.391, -0.391, 0.921, 51.807, 500.534)">
        <ellipse class="cls-8" cx="36.438" cy="15.726" rx="36.438" ry="15.726"/>
        <ellipse class="cls-10" cx="36.438" cy="15.726" rx="35.938" ry="15.226"/>
      </g>
      <path id="빼기_125" data-name="빼기 125" class="cls-3" d="M54.4,28.4h0c.287-3.056-1.843-6.884-6-10.779A58.53,58.53,0,0,0,31.612,7.153a66.49,66.49,0,0,0-11.1-3.637A44.253,44.253,0,0,0,10.745,2.3a20.362,20.362,0,0,0-6.722.974A7.444,7.444,0,0,0,0,6.2,5.339,5.339,0,0,1,.4,4.61,6.69,6.69,0,0,1,4.321,1.151,19.482,19.482,0,0,1,11.513,0a44.264,44.264,0,0,1,9.763,1.214,66.526,66.526,0,0,1,11.1,3.638C39.642,7.934,45.97,12.007,50.2,16.321a19.9,19.9,0,0,1,4.3,6.064,6.73,6.73,0,0,1,.27,5.3A5.241,5.241,0,0,1,54.4,28.4Z" transform="translate(51.044 513.374)"/>
      <text id="P" class="cls-4" transform="matrix(0.809, 0.588, -0.588, 0.809, 75.886, 538.119)"><tspan x="-7.32" y="0">P</tspan></text>
    </g>
    <g id="그룹_16537" data-name="그룹 16537" transform="translate(369.094 -412.875) rotate(22)">
      <g id="패스_10744-2" data-name="패스 10744" class="cls-1" transform="matrix(0.921, 0.391, -0.391, 0.921, 40.192, 506.545)">
        <path class="cls-8" d="M 15.50568771362305 10.59685897827148 C 11.44653797149658 10.59685897827148 7.606017589569092 9.785968780517578 4.691587448120117 8.313549041748047 C 2.027777671813965 6.967749118804932 0.499997615814209 5.244568824768066 0.499997615814209 3.585838794708252 C 0.499997615814209 1.798124432563782 0.5184143781661987 0.9271948933601379 0.5351837277412415 0.5047671794891357 L 31.28373527526855 0.7057911157608032 L 31.23952674865723 3.57814884185791 L 31.23946762084961 3.58198881149292 L 31.23946762084961 3.585838794708252 C 31.23946762084961 4.379979133605957 30.84698677062988 5.195888996124268 30.07291793823242 6.010899066925049 C 29.28675842285156 6.838648796081543 28.11871719360352 7.632988929748535 26.69507789611816 8.308049201965332 C 23.62751770019531 9.762619018554688 19.54913711547852 10.59685897827148 15.50568771362305 10.59685897827148 Z"/>
        <path class="cls-9" d="M 1.020437240600586 1.007950782775879 C 1.00933837890625 1.509313583374023 0.9999980926513672 2.310212135314941 0.9999980926513672 3.585838794708252 C 0.9999980926513672 5.027578830718994 2.464317321777344 6.628108978271484 4.917057037353516 7.867279052734375 C 7.762907028198242 9.305038452148438 11.52335739135742 10.09685897827148 15.50568771362305 10.09685897827148 C 19.47761726379395 10.09685897827148 23.4779167175293 9.28019905090332 26.48085784912109 7.856268882751465 C 29.14746856689453 6.591818809509277 30.73946762084961 4.995398998260498 30.73946762084961 3.585838794708252 L 30.73946762084961 3.57814884185791 L 30.73958778381348 3.570448875427246 L 30.77603149414062 1.202483177185059 L 1.020437240600586 1.007950782775879 M 0.07930374145507812 -3.814697265625e-06 C 0.08063125610351562 -1.9073486328125e-06 0.08136749267578125 0.001789093017578125 0.08136749267578125 0.001789093017578125 L 31.79143714904785 0.2090988159179688 L 31.73946762084961 3.585838794708252 C 31.73946762084961 7.36845874786377 24.27029800415039 11.09685897827148 15.50568771362305 11.09685897827148 C 6.741098403930664 11.09685897827148 -1.9073486328125e-06 7.36845874786377 -1.9073486328125e-06 3.585838794708252 C -1.9073486328125e-06 0.1624574661254883 0.06664466857910156 -2.002716064453125e-05 0.07930374145507812 -3.814697265625e-06 Z"/>
      </g>
      <g id="타원_1830-2" data-name="타원 1830" class="cls-2" transform="matrix(0.921, 0.391, -0.391, 0.921, 42.803, 500.534)">
        <ellipse class="cls-8" cx="15.87" cy="6.849" rx="15.87" ry="6.849"/>
        <ellipse class="cls-10" cx="15.87" cy="6.849" rx="15.37" ry="6.349"/>
      </g>
      <path id="빼기_125-2" data-name="빼기 125" class="cls-3" d="M23.694,12.368h0c.125-1.331-.8-3-2.612-4.695a25.492,25.492,0,0,0-7.313-4.558A28.958,28.958,0,0,0,8.932,1.531,19.273,19.273,0,0,0,4.68,1a8.868,8.868,0,0,0-2.927.424A3.242,3.242,0,0,0,0,2.7a2.325,2.325,0,0,1,.174-.693A2.914,2.914,0,0,1,1.882.5,8.485,8.485,0,0,1,5.014,0,19.278,19.278,0,0,1,9.266.529,28.974,28.974,0,0,1,14.1,2.113a24.47,24.47,0,0,1,7.76,5,8.668,8.668,0,0,1,1.874,2.641,2.931,2.931,0,0,1,.117,2.31A2.283,2.283,0,0,1,23.694,12.368Z" transform="translate(41.979 506.501)"/>
      <text id="P-2" data-name="P" class="cls-5" transform="matrix(0.848, 0.53, -0.53, 0.848, 52.963, 517.137)"><tspan x="-2.928" y="0">P</tspan></text>
    </g>
    <g id="그룹_16539" data-name="그룹 16539" transform="translate(-267.38 185.819) rotate(-76)">
      <g id="패스_10744-3" data-name="패스 10744" class="cls-1" transform="matrix(0.921, 0.391, -0.391, 0.921, 44.621, 513.057)">
        <path class="cls-8" d="M 32.51547622680664 21.31611061096191 C 32.51510238647461 21.31611061096191 32.51491928100586 21.31611061096191 32.51454544067383 21.31611061096191 C 32.28482437133789 21.31610107421875 32.05218505859375 21.3148307800293 31.82306671142578 21.31230926513672 C 27.54846572875977 21.265380859375 23.3898868560791 20.78873062133789 19.46283531188965 19.89562034606934 C 15.75202560424805 19.05167961120605 12.40119647979736 17.87421035766602 9.503416061401367 16.39590072631836 C 3.834336042404175 13.50382995605469 0.5605559945106506 9.76123046875 0.5214859843254089 6.12775993347168 C 0.4845426082611084 2.692004203796387 0.5095280408859253 1.178407549858093 0.5385696887969971 0.5121961832046509 L 64.06189727783203 1.633702754974365 L 63.98109436035156 6.83314037322998 L 63.98099517822266 6.839710235595703 L 63.9810676574707 6.846290111541748 C 64.00140380859375 8.737730026245117 63.08990478515625 10.62852001190186 61.27190780639648 12.46615028381348 C 60.04438781738281 13.70691967010498 58.439697265625 14.87748050689697 56.50242614746094 15.94529056549072 C 54.5479850769043 17.02256011962891 52.30112457275391 17.9696102142334 49.82427597045898 18.76012992858887 C 44.58518600463867 20.43225860595703 38.59980010986328 21.31611061096191 32.51547622680664 21.31611061096191 Z"/>
        <path class="cls-9" d="M 1.021827697753906 1.020803451538086 C 1.002189636230469 1.831615447998047 0.9914894104003906 3.335474014282227 1.021457672119141 6.122389793395996 C 1.039577484130859 7.80763053894043 1.797706604003906 9.518239974975586 3.274765014648438 11.20670986175537 C 4.773765563964844 12.92024993896484 7.00616455078125 14.56063079833984 9.730625152587891 15.95051002502441 C 12.5915641784668 17.41002082824707 15.90325546264648 18.57331085205078 19.57371520996094 19.4080696105957 C 23.46624755859375 20.2933292388916 27.58937454223633 20.76579093933105 31.82855606079102 20.81233978271484 C 32.05661773681641 20.81484031677246 32.28742599487305 20.81611061096191 32.51454544067383 20.81611061096191 C 38.54840850830078 20.81611061096191 44.48149871826172 19.94040107727051 49.67239379882812 18.28363990783691 C 54.51731491088867 16.7373104095459 58.51058578491211 14.5463399887085 60.91659545898438 12.11431980133057 C 62.63712692260742 10.37520027160645 63.49994659423828 8.604579925537109 63.48109436035156 6.851659774780273 L 63.48095703125 6.838520050048828 L 63.48115539550781 6.825369834899902 L 63.55419158935547 2.124814987182617 L 1.021827697753906 1.020803451538086 M 0.1171035766601562 -0.153717041015625 C 0.1441421508789062 -0.1537113189697266 0.1652984619140625 0.005529403686523438 0.1652984619140625 0.005529403686523438 L 64.56957244873047 1.142589569091797 L 64.48103332519531 6.840909957885742 C 64.56428527832031 14.58344268798828 50.00640106201172 21.81610679626465 32.51454544067383 21.81610679626465 C 32.28305053710938 21.81610679626465 32.05007934570312 21.81483268737793 31.81758499145508 21.81228065490723 C 14.01762771606445 21.61684036254883 0.105865478515625 13.97813987731934 0.021514892578125 6.133140563964844 C -0.03714752197265625 0.6769695281982422 0.05533599853515625 -0.1537265777587891 0.1171035766601562 -0.153717041015625 Z"/>
      </g>
      <g id="패스_10745" data-name="패스 10745" class="cls-6" transform="matrix(0.921, 0.391, -0.391, 0.921, 49.899, 500.534)">
        <path class="cls-8" d="M 33.35313415527344 28.26764297485352 C 33.08386611938477 28.26764297485352 32.81050491333008 28.26613235473633 32.54063415527344 28.2631721496582 C 23.99906539916992 28.16939353942871 15.96045589447021 26.61858177185059 9.905605316162109 23.89644241333008 C 6.99034595489502 22.58579254150391 4.702495574951172 21.07809257507324 3.105585813522339 19.41520309448242 C 1.497175812721252 17.74033355712891 0.6719057559967041 15.98543262481689 0.6526957750320435 14.19925308227539 C 0.6329857707023621 12.36632251739502 1.462865829467773 10.58800315856934 3.119265794754028 8.913692474365234 C 5.454835891723633 6.552882671356201 9.288395881652832 4.546482563018799 14.20549583435059 3.111402750015259 C 19.27591514587402 1.631582736968994 25.2257251739502 0.8493826985359192 31.41169548034668 0.8493826985359192 C 31.68096542358398 0.8493826985359192 31.95432662963867 0.8508926630020142 32.22419738769531 0.8538526892662048 C 40.76576614379883 0.9476326704025269 48.80437469482422 2.498442649841309 54.85922622680664 5.220582485198975 C 57.77448654174805 6.531232833862305 60.06234741210938 8.038932800292969 61.65924453735352 9.701822280883789 C 63.26765441894531 11.37669277191162 64.09292602539062 13.13159275054932 64.11212921142578 14.91777229309082 C 64.1318359375 16.75070190429688 63.30195617675781 18.52902221679688 61.64555740356445 20.20333290100098 C 59.30998611450195 22.56415176391602 55.47642517089844 24.57055282592773 50.559326171875 26.00562286376953 C 45.48891448974609 27.48544311523438 39.53910446166992 28.26764297485352 33.35313415527344 28.26764297485352 Z"/>
        <path class="cls-9" d="M 31.41169738769531 1.349382400512695 C 25.27248764038086 1.349382400512695 19.37111663818359 2.124652862548828 14.34559631347656 3.591373443603516 C 9.509807586669922 5.002712249755859 5.750724792480469 6.964742660522461 3.474727630615234 9.26533317565918 C 1.915706634521484 10.84120178222656 1.134456634521484 12.49941253662109 1.152664184570312 14.19388294219971 C 1.170455932617188 15.84862232208252 1.948844909667969 17.48881149291992 3.466217041015625 19.06887245178223 C 5.0185546875 20.68535232543945 7.254055023193359 22.15614318847656 10.11062622070312 23.44040298461914 C 13.01527404785156 24.74628257751465 16.4001350402832 25.78509330749512 20.17117691040039 26.52798271179199 C 24.09266662597656 27.30051231384277 28.25620651245117 27.71610260009766 32.54613494873047 27.76320266723633 C 32.8140869140625 27.76615333557129 33.08559417724609 27.76764297485352 33.35313415527344 27.76764297485352 C 39.49234771728516 27.76764297485352 45.39371490478516 26.99237251281738 50.41923522949219 25.5256519317627 C 55.25502777099609 24.11431312561035 59.01410675048828 22.15228271484375 61.29010772705078 19.85169219970703 C 62.84912490844727 18.27581405639648 63.63037490844727 16.61761283874512 63.61215591430664 14.9231424331665 C 63.59436416625977 13.26839256286621 62.81597518920898 11.62821197509766 61.29861450195312 10.04815292358398 C 59.74627685546875 8.431673049926758 57.51077651977539 6.960872650146484 54.65420532226562 5.676612854003906 C 51.74955749511719 4.370742797851562 48.36469650268555 3.331932067871094 44.59365844726562 2.589042663574219 C 40.67216491699219 1.816513061523438 36.50862503051758 1.400922775268555 32.21869659423828 1.353822708129883 C 31.95074462890625 1.350872039794922 31.67923736572266 1.349382400512695 31.41169738769531 1.349382400512695 M 31.41169738769531 0.3493862152099609 C 31.68381118774414 0.3493862152099609 31.95590591430664 0.3508758544921875 32.22968673706055 0.3538818359375 C 50.02965545654297 0.5493221282958984 64.52775573730469 7.067392349243164 64.61209869384766 14.91239261627197 C 64.69514465332031 22.6367301940918 50.77259826660156 28.76763916015625 33.35313415527344 28.76763916015625 C 33.08102035522461 28.76763916015625 32.80892181396484 28.76614952087402 32.5351448059082 28.76314353942871 C 14.73517608642578 28.56769180297852 0.2370758056640625 22.04963302612305 0.1527252197265625 14.20463275909424 C 0.06967926025390625 6.480295181274414 13.99223327636719 0.3493862152099609 31.41169738769531 0.3493862152099609 Z"/>
      </g>
      <path id="빼기_125-3" data-name="빼기 125" class="cls-3" d="M47.185,26.689v0c.1-2.769-1.844-6.2-5.483-9.664A51.7,51.7,0,0,0,27.1,7.7C20.614,4.864,14.089,3.3,8.731,3.3c-4.063,0-7.089.906-8.751,2.62A5.046,5.046,0,0,1,.35,4.183C1.461,1.486,4.936,0,10.135,0c5.358,0,11.883,1.563,18.371,4.4A49.342,49.342,0,0,1,44.194,14.809a18.068,18.068,0,0,1,3.788,5.5,6.278,6.278,0,0,1,.238,4.813,4.954,4.954,0,0,1-1.033,1.562Z" transform="translate(50.107 512.185)"/>
      <text id="P-3" data-name="P" class="cls-7" transform="translate(72.714 533.982) rotate(22)"><tspan x="-5.49" y="0">P</tspan></text>
    </g>
  </g>
</svg>
