<svg xmlns="http://www.w3.org/2000/svg" width="328.001" height="64" viewBox="0 0 328.001 64">
  <defs>
    <style>
      .cls-1 {
        fill: #f5f5f5;
      }

      .cls-2, .cls-3 {
        fill: #aeaeae;
      }

      .cls-2 {
        opacity: 0;
      }

      .cls-4, .cls-5 {
        stroke: none;
      }

      .cls-5 {
        fill: #e5e5e5;
      }
    </style>
  </defs>
  <g id="cupon_used" transform="translate(-24 -551)">
    <g id="빼기_99" data-name="빼기 99" class="cls-1" transform="translate(24 551)">
      <path class="cls-4" d="M 320.0003967285156 63.49990844726562 L 267.6214294433594 63.49990844726562 C 266.9057922363281 61.92233657836914 265.7813110351562 60.54199981689453 264.3534240722656 59.49266052246094 C 262.9312438964844 58.44758224487305 261.2621154785156 57.77358627319336 259.5010986328125 57.52967071533203 L 259.5010986328125 50.42829513549805 C 261.2863159179688 49.82038879394531 262.501708984375 48.1827507019043 262.501708984375 46.32120132446289 C 262.501708984375 44.46070098876953 261.2861938476562 42.82305526733398 259.5010986328125 42.21430206298828 L 259.5010986328125 35.00858688354492 C 261.2863159179688 34.40068054199219 262.501708984375 32.76304244995117 262.501708984375 30.90149116516113 C 262.501708984375 29.04099273681641 261.2861938476562 27.40334892272949 259.5010986328125 26.79459381103516 L 259.5010986328125 20.55458641052246 C 261.2863159179688 19.94668006896973 262.501708984375 18.30904197692871 262.501708984375 16.4474925994873 C 262.501708984375 14.58699321746826 261.2861938476562 12.94934844970703 259.5010986328125 12.34059429168701 L 259.5010986328125 6.393646717071533 C 262.9722290039062 5.895719528198242 265.9796447753906 3.679871797561646 267.4889831542969 0.4999920725822449 L 320.0003967285156 0.4999920725822449 C 324.1359558105469 0.4999920725822449 327.5005187988281 3.864533662796021 327.5005187988281 8.000117301940918 L 327.5005187988281 56.00070190429688 C 327.5005187988281 60.13578414916992 324.1359558105469 63.49990844726562 320.0003967285156 63.49990844726562 Z M 248.3782043457031 63.49990844726562 L 8.000092506408691 63.49990844726562 C 3.864551067352295 63.49990844726562 0.5000094175338745 60.13578414916992 0.5000094175338745 56.00070190429688 L 0.5000094175338745 8.000117301940918 C 0.5000094175338745 3.864533662796021 3.864551067352295 0.4999920725822449 8.000092506408691 0.4999920725822449 L 248.5105743408203 0.4999920725822449 C 250.020263671875 3.681043148040771 253.0283355712891 5.897000312805176 256.5003967285156 6.393824100494385 L 256.5003967285156 12.34064292907715 C 254.7162628173828 12.94936370849609 253.5015869140625 14.58695507049561 253.5015869140625 16.4474925994873 C 253.5015869140625 18.3088436126709 254.7163696289062 19.94645690917969 256.5003967285156 20.55449295043945 L 256.5003967285156 26.79464340209961 C 254.7162628173828 27.40336418151855 253.5015869140625 29.04095458984375 253.5015869140625 30.90149116516113 C 253.5015869140625 32.76284408569336 254.7163696289062 34.40045547485352 256.5003967285156 35.00849151611328 L 256.5003967285156 42.21435165405273 C 254.7162628173828 42.82307052612305 253.5015869140625 44.46066284179688 253.5015869140625 46.32120132446289 C 253.5015869140625 48.18255233764648 254.7163696289062 49.82016372680664 256.5003967285156 50.42819976806641 L 256.5003967285156 57.5295524597168 C 254.7389068603516 57.7731819152832 253.0693664550781 58.44699859619141 251.6468811035156 59.4920768737793 C 250.2186126708984 60.54139709472656 249.0938873291016 61.92197799682617 248.3782043457031 63.49990844726562 Z"/>
      <path class="cls-5" d="M 320.0003967285156 62.99990844726562 C 323.8602600097656 62.99990844726562 327.0005187988281 59.86007690429688 327.0005187988281 56.00070190429688 L 327.0005187988281 8.000117301940918 C 327.0005187988281 4.140242099761963 323.8602600097656 0.9999920725822449 320.0003967285156 0.9999920725822449 L 267.800048828125 0.9999920725822449 C 266.243408203125 4.048490524291992 263.3517456054688 6.200891017913818 260.0010986328125 6.818296909332275 L 260.0010986328125 11.99635791778564 C 261.8011169433594 12.75694465637207 263.001708984375 14.49135494232178 263.001708984375 16.4474925994873 C 263.001708984375 18.40459442138672 261.8011474609375 20.13908767700195 260.0010986328125 20.89896011352539 L 260.0010986328125 26.45035743713379 C 261.8011169433594 27.21094512939453 263.001708984375 28.94535446166992 263.001708984375 30.90149116516113 C 263.001708984375 32.85859680175781 261.8011474609375 34.59308624267578 260.0010986328125 35.35295867919922 L 260.0010986328125 41.87006378173828 C 261.8011169433594 42.63065338134766 263.001708984375 44.36506271362305 263.001708984375 46.32120132446289 C 263.001708984375 48.27830505371094 261.8011474609375 50.01279449462891 260.0010986328125 50.77266693115234 L 260.0010986328125 57.10266494750977 C 261.6851806640625 57.40268325805664 263.2769165039062 58.08112335205078 264.6495056152344 59.08974075317383 C 266.0574035644531 60.12434768676758 267.1842956542969 61.4666862487793 267.9381408691406 62.99990844726562 L 320.0003967285156 62.99990844726562 M 248.0614929199219 62.99990844726562 C 248.8154296875 61.46631622314453 249.9425659179688 60.12376022338867 251.3508453369141 59.08915710449219 C 252.7237091064453 58.08050537109375 254.3158721923828 57.40220642089844 256.0003967285156 57.10248565673828 L 256.0003967285156 50.77248764038086 C 254.2014770507812 50.01248168945312 253.0015869140625 48.27809524536133 253.0015869140625 46.32120132446289 C 253.0015869140625 44.36516189575195 254.2014770507812 42.63082122802734 256.0003967285156 41.87020874023438 L 256.0003967285156 35.35277557373047 C 254.2014770507812 34.5927734375 253.0015869140625 32.8583869934082 253.0015869140625 30.90149116516113 C 253.0015869140625 28.94545364379883 254.2014770507812 27.21111297607422 256.0003967285156 26.45050048828125 L 256.0003967285156 20.89877891540527 C 254.2014770507812 20.13877487182617 253.0015869140625 18.40438652038574 253.0015869140625 16.4474925994873 C 253.0015869140625 14.49145317077637 254.2014770507812 12.75711250305176 256.0003967285156 11.99650096893311 L 256.0003967285156 6.818606853485107 C 252.6488800048828 6.201988697052002 249.7562866210938 4.049744129180908 248.1994934082031 0.9999920725822449 L 8.000092506408691 0.9999920725822449 C 4.140217781066895 0.9999920725822449 1.000009417533875 4.140242099761963 1.000009417533875 8.000117301940918 L 1.000009417533875 56.00070190429688 C 1.000009417533875 59.86007690429688 4.140217781066895 62.99990844726562 8.000092506408691 62.99990844726562 L 248.0614929199219 62.99990844726562 M 320.0003967285156 63.99990844726562 L 267.2932739257812 63.99990844726562 C 266.623046875 62.37799072265625 265.50439453125 60.95895004272461 264.0573425292969 59.89557647705078 C 262.5866394042969 58.81482696533203 260.8382263183594 58.15049362182617 259.0010986328125 57.97440719604492 L 259.0010986328125 50.05440902709961 C 260.7681274414062 49.61661529541016 262.001708984375 48.08182525634766 262.001708984375 46.32120132446289 C 262.001708984375 44.56182479858398 260.7677917480469 43.02669906616211 259.0010986328125 42.58799362182617 L 259.0010986328125 34.63470077514648 C 260.7681274414062 34.19690704345703 262.001708984375 32.66211700439453 262.001708984375 30.90149116516113 C 262.001708984375 29.14211654663086 260.7677917480469 27.60699272155762 259.0010986328125 27.16828346252441 L 259.0010986328125 20.18070030212402 C 260.7681274414062 19.7429084777832 262.001708984375 18.20811653137207 262.001708984375 16.4474925994873 C 262.001708984375 14.68811702728271 260.7677917480469 13.15299224853516 259.0010986328125 12.71428394317627 L 259.0010986328125 5.950783729553223 C 262.5907592773438 5.593992233276367 265.7196044921875 3.314200401306152 267.1674194335938 -7.924398232717067e-06 L 320.0003967285156 -7.924398232717067e-06 C 324.4116821289062 -7.924398232717067e-06 328.0005187988281 3.588825464248657 328.0005187988281 8.000117301940918 L 328.0005187988281 56.00070190429688 C 328.0005187988281 60.41149139404297 324.4116821289062 63.99990844726562 320.0003967285156 63.99990844726562 Z M 248.7064208984375 63.99990844726562 L 8.000092506408691 63.99990844726562 C 3.588842630386353 63.99990844726562 9.399414011568297e-06 60.41149139404297 9.399414011568297e-06 56.00070190429688 L 9.399414011568297e-06 8.000117301940918 C 9.399414011568297e-06 3.588825464248657 3.588842630386353 -7.924398232717067e-06 8.000092506408691 -7.924398232717067e-06 L 248.8321685791016 -7.924398232717067e-06 C 250.2802124023438 3.31528377532959 253.4097595214844 5.595242023468018 257.0003967285156 5.950783729553223 L 257.0003967285156 12.71428394317627 C 255.2344207763672 13.15299224853516 254.0015869140625 14.68778419494629 254.0015869140625 16.4474925994873 C 254.0015869140625 18.20782470703125 255.2347106933594 19.74295043945312 257.0003967285156 20.18070030212402 L 257.0003967285156 27.16828346252441 C 255.2344207763672 27.60699272155762 254.0015869140625 29.14178466796875 254.0015869140625 30.90149116516113 C 254.0015869140625 32.66182708740234 255.2347106933594 34.19694900512695 257.0003967285156 34.63470077514648 L 257.0003967285156 42.58799362182617 C 255.2344207763672 43.02669906616211 254.0015869140625 44.56149291992188 254.0015869140625 46.32120132446289 C 254.0015869140625 48.08153533935547 255.2347106933594 49.61665725708008 257.0003967285156 50.05440902709961 L 257.0003967285156 57.97440719604492 C 255.1630096435547 58.15011596679688 253.4144744873047 58.81390762329102 251.9429321289062 59.89503479003906 C 250.4960021972656 60.95803451538086 249.3769226074219 62.37728500366211 248.7066802978516 63.99928283691406 L 248.7064208984375 63.99990844726562 Z"/>
    </g>
    <g id="그룹_17343" data-name="그룹 17343" transform="translate(304 567.064)">
      <rect id="사각형_5745" data-name="사각형 5745" class="cls-2" width="32" height="32" transform="translate(0 -0.064)"/>
      <rect id="사각형_5746" data-name="사각형 5746" class="cls-3" width="5" height="16" rx="2.5" transform="translate(1.211 15.975) rotate(-45)"/>
      <rect id="사각형_5747" data-name="사각형 5747" class="cls-3" width="5" height="26" rx="2.5" transform="translate(27.375 5.368) rotate(45)"/>
    </g>
  </g>
</svg>
