<svg xmlns="http://www.w3.org/2000/svg" width="328" height="80" viewBox="0 0 328 80">
  <defs>
    <style>
      .cls-1 {
        fill: #fff;
      }
    </style>
  </defs>
  <path id="빼기_99" data-name="빼기 99" class="cls-1" d="M320,83H267.167A10.006,10.006,0,0,0,259,77.05V68.874a4,4,0,0,0,0-7.748V53.874a4,4,0,0,0,0-7.747V37.874a4,4,0,0,0,0-7.748V22.874a4,4,0,0,0,0-7.748V7.951A10.02,10.02,0,0,0,266.663,3H320a8.009,8.009,0,0,1,8,8V75A8.009,8.009,0,0,1,320,83Zm-71.169,0H8a8.009,8.009,0,0,1-8-8V11A8.009,8.009,0,0,1,8,3H249.338A10.02,10.02,0,0,0,257,7.951v7.176a4,4,0,0,0,0,7.748v7.251a4,4,0,0,0,0,7.748v8.253a4,4,0,0,0,0,7.747v7.252a4,4,0,0,0,0,7.748V77.05A10.006,10.006,0,0,0,248.832,83Z" transform="translate(0 -3)"/>
</svg>
