<svg xmlns="http://www.w3.org/2000/svg" width="328.001" height="64" viewBox="0 0 328.001 64">
  <defs>
    <style>
      .cls-1 {
        fill: #fff;
      }

      .cls-2, .cls-3 {
        stroke: none;
      }

      .cls-3 {
        fill: #e5e5e5;
      }
    </style>
  </defs>
  <g id="cupon_enable" transform="translate(-24 -551)">
    <g id="빼기_99" data-name="빼기 99" class="cls-1" transform="translate(24 551)">
      <path class="cls-2" d="M 320.0003967285156 63.49990844726562 L 267.6224060058594 63.49990844726562 C 266.9067993164062 61.92203903198242 265.7821655273438 60.54149627685547 264.3539733886719 59.49211883544922 C 262.9315185546875 58.44700241088867 261.2622375488281 57.773193359375 259.5010986328125 57.52959823608398 L 259.5010986328125 50.42829513549805 C 261.2863159179688 49.82038879394531 262.501708984375 48.1827507019043 262.501708984375 46.32120132446289 C 262.501708984375 44.45969009399414 261.2863464355469 42.82205200195312 259.5010986328125 42.214111328125 L 259.5010986328125 35.00839614868164 C 261.2861938476562 34.39967727661133 262.501708984375 32.76202774047852 262.501708984375 30.90149116516113 C 262.501708984375 29.03997993469238 261.2863464355469 27.40234375 259.5010986328125 26.79440307617188 L 259.5010986328125 20.55458641052246 C 261.2863159179688 19.94668006896973 262.501708984375 18.30904197692871 262.501708984375 16.4474925994873 C 262.501708984375 14.58598041534424 261.2863464355469 12.94834423065186 259.5010986328125 12.34040355682373 L 259.5010986328125 6.393648624420166 C 262.9723510742188 5.895721435546875 265.9800109863281 3.679835081100464 267.4897155761719 0.4999920725822449 L 320.0003967285156 0.4999920725822449 C 324.1359558105469 0.4999920725822449 327.5005187988281 3.864533662796021 327.5005187988281 8.000117301940918 L 327.5005187988281 55.99978256225586 C 327.5005187988281 60.13536834716797 324.1359558105469 63.49990844726562 320.0003967285156 63.49990844726562 Z M 248.378173828125 63.49990844726562 L 8.000092506408691 63.49990844726562 C 3.864551067352295 63.49990844726562 0.5000094175338745 60.13536834716797 0.5000094175338745 55.99978256225586 L 0.5000094175338745 8.000117301940918 C 0.5000094175338745 3.864533662796021 3.864551067352295 0.4999920725822449 8.000092506408691 0.4999920725822449 L 248.5108184814453 0.4999920725822449 C 250.0204467773438 3.680456399917603 253.0288391113281 5.896374225616455 256.5013122558594 6.393730640411377 L 256.5013122558594 12.34041595458984 C 254.7167205810547 12.94834995269775 253.5015869140625 14.58598518371582 253.5015869140625 16.4474925994873 C 253.5015869140625 18.30810737609863 254.7166748046875 19.94572639465332 256.5013122558594 20.55437850952148 L 256.5013122558594 26.7944164276123 C 254.7167205810547 27.4023494720459 253.5015869140625 29.03998565673828 253.5015869140625 30.90149116516113 C 253.5015869140625 32.76210784912109 254.7166748046875 34.39972305297852 256.5013122558594 35.00837707519531 L 256.5013122558594 42.2141227722168 C 254.7167205810547 42.82205581665039 253.5015869140625 44.45969390869141 253.5015869140625 46.32120132446289 C 253.5015869140625 48.18181610107422 254.7166748046875 49.81943511962891 256.5013122558594 50.42808532714844 L 256.5013122558594 57.52947616577148 C 254.7396240234375 57.77280044555664 253.0698394775391 58.44655227661133 251.6470947265625 59.49174118041992 C 250.2187805175781 60.54106140136719 249.0939636230469 61.92179107666016 248.378173828125 63.49990844726562 Z"/>
      <path class="cls-3" d="M 320.0003967285156 62.99990844726562 C 323.8602600097656 62.99990844726562 327.0005187988281 59.85965728759766 327.0005187988281 55.99978256225586 L 327.0005187988281 8.000117301940918 C 327.0005187988281 4.140242099761963 323.8602600097656 0.9999920725822449 320.0003967285156 0.9999920725822449 L 267.8007507324219 0.9999920725822449 C 266.2438049316406 4.048454284667969 263.3518371582031 6.200901508331299 260.0010986328125 6.818301677703857 L 260.0010986328125 11.99604988098145 C 261.8011474609375 12.75597095489502 263.001708984375 14.4904260635376 263.001708984375 16.4474925994873 C 263.001708984375 18.40459442138672 261.8011474609375 20.13908767700195 260.0010986328125 20.89896011352539 L 260.0010986328125 26.45005035400391 C 261.8011474609375 27.20997047424316 263.001708984375 28.94442558288574 263.001708984375 30.90149116516113 C 263.001708984375 32.85770416259766 261.8011169433594 34.59207153320312 260.0010986328125 35.35262298583984 L 260.0010986328125 41.86975860595703 C 261.8011474609375 42.62968063354492 263.001708984375 44.3641357421875 263.001708984375 46.32120132446289 C 263.001708984375 48.27830505371094 261.8011474609375 50.01279449462891 260.0010986328125 50.77266693115234 L 260.0010986328125 57.10250091552734 C 261.6851806640625 57.40223693847656 263.2772827148438 58.08058166503906 264.6500549316406 59.08919906616211 C 266.0581970214844 60.12384414672852 267.1852416992188 61.46639251708984 267.9391174316406 62.99990844726562 L 320.0003967285156 62.99990844726562 M 248.0614471435547 62.99990844726562 C 248.8155059814453 61.46601867675781 249.9426422119141 60.12349319458008 251.3510437011719 59.08878326416016 C 252.7241363525391 58.08009338378906 254.3167114257812 57.40181732177734 256.0013122558594 57.10233688354492 L 256.0013122558594 50.77229690551758 C 254.2017211914062 50.01179504394531 253.0015869140625 48.27744674682617 253.0015869140625 46.32120132446289 C 253.0015869140625 44.3640251159668 254.2016906738281 42.62963485717773 256.0013122558594 41.86979675292969 L 256.0013122558594 35.35258865356445 C 254.2017211914062 34.59208679199219 253.0015869140625 32.85773849487305 253.0015869140625 30.90149116516113 C 253.0015869140625 28.94431495666504 254.2016906738281 27.20992660522461 256.0013122558594 26.45008850097656 L 256.0013122558594 20.89858818054199 C 254.2017211914062 20.13808631896973 253.0015869140625 18.40373992919922 253.0015869140625 16.4474925994873 C 253.0015869140625 14.49031543731689 254.2016906738281 12.75592613220215 256.0013122558594 11.9960880279541 L 256.0013122558594 6.818502902984619 C 252.6494293212891 6.201586246490479 249.7567138671875 4.049068450927734 248.1998138427734 0.9999920725822449 L 8.000092506408691 0.9999920725822449 C 4.140217781066895 0.9999920725822449 1.000009417533875 4.140242099761963 1.000009417533875 8.000117301940918 L 1.000009417533875 55.99978256225586 C 1.000009417533875 59.85965728759766 4.140217781066895 62.99990844726562 8.000092506408691 62.99990844726562 L 248.0614471435547 62.99990844726562 M 320.0003967285156 63.99990844726562 L 267.294189453125 63.99990844726562 C 266.6240234375 62.37770080566406 265.5052490234375 60.95849227905273 264.0579223632812 59.89503479003906 C 262.5869750976562 58.81428527832031 260.8383483886719 58.15011596679688 259.0010986328125 57.97440719604492 L 259.0010986328125 50.05440902709961 C 260.7681274414062 49.61661529541016 262.001708984375 48.08182525634766 262.001708984375 46.32120132446289 C 262.001708984375 44.56086730957031 260.7677917480469 43.02574157714844 259.0010986328125 42.58799362182617 L 259.0010986328125 34.63470077514648 C 260.7681274414062 34.19594955444336 262.001708984375 32.66115951538086 262.001708984375 30.90149116516113 C 262.001708984375 29.14115905761719 260.7677917480469 27.60603332519531 259.0010986328125 27.16828346252441 L 259.0010986328125 20.18070030212402 C 260.7681274414062 19.7429084777832 262.001708984375 18.20811653137207 262.001708984375 16.4474925994873 C 262.001708984375 14.68715858459473 260.7677917480469 13.15203380584717 259.0010986328125 12.71428394317627 L 259.0010986328125 5.950783729553223 C 262.5909118652344 5.593992233276367 265.7200012207031 3.314200401306152 267.1681823730469 -7.924398232717067e-06 L 320.0003967285156 -7.924398232717067e-06 C 324.4116821289062 -7.924398232717067e-06 328.0005187988281 3.588825464248657 328.0005187988281 8.000117301940918 L 328.0005187988281 55.99978256225586 C 328.0005187988281 60.41107559204102 324.4116821289062 63.99990844726562 320.0003967285156 63.99990844726562 Z M 248.7063903808594 63.99990844726562 L 8.000092506408691 63.99990844726562 C 3.588842630386353 63.99990844726562 9.399414011568297e-06 60.41107559204102 9.399414011568297e-06 55.99978256225586 L 9.399414011568297e-06 8.000117301940918 C 9.399414011568297e-06 3.588825464248657 3.588842630386353 -7.924398232717067e-06 8.000092506408691 -7.924398232717067e-06 L 248.8324279785156 -7.924398232717067e-06 C 250.2803802490234 3.314658641815186 253.4101715087891 5.594616889953613 257.0013122558594 5.950783729553223 L 257.0013122558594 12.71428394317627 C 255.2348022460938 13.15199184417725 254.0015869140625 14.68678379058838 254.0015869140625 16.4474925994873 C 254.0015869140625 18.20699119567871 255.2351379394531 19.74211692810059 257.0013122558594 20.18070030212402 L 257.0013122558594 27.16828346252441 C 255.2348022460938 27.60599136352539 254.0015869140625 29.14078330993652 254.0015869140625 30.90149116516113 C 254.0015869140625 32.66099166870117 255.2351379394531 34.19611740112305 257.0013122558594 34.63470077514648 L 257.0013122558594 42.58799362182617 C 255.2348022460938 43.02569961547852 254.0015869140625 44.56049346923828 254.0015869140625 46.32120132446289 C 254.0015869140625 48.0806999206543 255.2351379394531 49.61582565307617 257.0013122558594 50.05440902709961 L 257.0013122558594 57.97440719604492 C 255.1636810302734 58.14978408813477 253.4148864746094 58.81349182128906 251.9430999755859 59.89469909667969 C 250.4961395263672 60.95774078369141 249.3770141601562 62.3770751953125 248.7066345214844 63.99928283691406 L 248.7063903808594 63.99990844726562 Z"/>
    </g>
  </g>
</svg>
