<svg xmlns="http://www.w3.org/2000/svg" width="38.002" height="80.002" viewBox="0 0 38.002 80.002">
  <defs>
    <style>
      .cls-1 {
        fill: #fff;
      }
    </style>
  </defs>
  <path id="img" class="cls-1" d="M-12451.832-11841a10,10,0,0,0-8.169-5.949v-8.179a3.993,3.993,0,0,0,3-3.872,3.994,3.994,0,0,0-3-3.875v-7.252a3.994,3.994,0,0,0,3-3.875,3.993,3.993,0,0,0-3-3.872v-8.252a4,4,0,0,0,3-3.875,4,4,0,0,0-3-3.875v-7.252a3.994,3.994,0,0,0,3-3.872,4,4,0,0,0-3-3.875v-7.176a10.018,10.018,0,0,0,7.664-4.951H-12441v80Zm-27.168,0v-80h9.337a10.021,10.021,0,0,0,7.664,4.951v7.176a4,4,0,0,0-3,3.875,4,4,0,0,0,3,3.872v7.252a4,4,0,0,0-3,3.875,4,4,0,0,0,3,3.875v8.252a4,4,0,0,0-3,3.872,4,4,0,0,0,3,3.875v7.252a4,4,0,0,0-3,3.875,4,4,0,0,0,3,3.872v8.179a10,10,0,0,0-8.168,5.946v0Z" transform="translate(12479 11921.001)"/>
</svg>
