<svg xmlns="http://www.w3.org/2000/svg" xmlns:xlink="http://www.w3.org/1999/xlink" width="388" height="140" viewBox="0 0 388 140">
  <defs>
    <style>
      .cls-1 {
        fill: #fff;
      }

      .cls-2, .cls-3 {
        stroke: none;
      }

      .cls-3 {
        fill: #e5e5e5;
      }

      .cls-4 {
        filter: url(#빼기_99);
      }
    </style>
    <filter id="빼기_99" x="0" y="0" width="388" height="140" filterUnits="userSpaceOnUse">
      <feOffset dy="10" input="SourceAlpha"/>
      <feGaussianBlur stdDeviation="10" result="blur"/>
      <feFlood flood-color="#5d5d5d" flood-opacity="0.161"/>
      <feComposite operator="in" in2="blur"/>
      <feComposite in="SourceGraphic"/>
    </filter>
  </defs>
  <g class="cls-4" transform="matrix(1, 0, 0, 1, 0, 0)">
    <g id="빼기_99-2" data-name="빼기 99" class="cls-1" transform="translate(30 17)">
      <path class="cls-2" d="M 320.0003967285156 82.49979400634766 L 267.4885559082031 82.49979400634766 C 265.9789733886719 79.32041168212891 262.9714050292969 77.10491180419922 259.5002136230469 76.60704803466797 L 259.5002136230469 69.24441528320312 C 261.2846069335938 68.61600494384766 262.4999389648438 66.92298889160156 262.4999389648438 64.99979400634766 C 262.4999389648438 63.07714080810547 261.2846069335938 61.38449096679688 259.5002136230469 60.7560920715332 L 259.5002136230469 54.2441291809082 C 261.2846069335938 53.61576080322266 262.4999389648438 51.92311096191406 262.4999389648438 50.00041961669922 C 262.4999389648438 48.07772827148438 261.2846069335938 46.38507461547852 259.5002136230469 45.75667190551758 L 259.5002136230469 38.24391555786133 C 261.2846069335938 37.61550521850586 262.4999389648438 35.92249298095703 262.4999389648438 33.99929428100586 C 262.4999389648438 32.07664108276367 261.2846069335938 30.38399314880371 259.5002136230469 29.75559043884277 L 259.5002136230469 23.24454116821289 C 261.2846069335938 22.61612892150879 262.4999389648438 20.92311668395996 262.4999389648438 18.99991798400879 C 262.4999389648438 17.07722663879395 261.2846069335938 15.38457584381104 259.5002136230469 14.75617408752441 L 259.5002136230469 8.393442153930664 C 262.5706176757812 7.952467918395996 265.3117065429688 6.154001235961914 266.9465942382812 3.499710321426392 L 320.0003967285156 3.499710321426392 C 324.1354675292969 3.499710321426392 327.4996032714844 6.864252090454102 327.4996032714844 10.99979400634766 L 327.4996032714844 74.99971008300781 C 327.4996032714844 79.13525390625 324.1354675292969 82.49979400634766 320.0003967285156 82.49979400634766 Z M 248.5103454589844 82.49979400634766 L 8.000093460083008 82.49979400634766 C 3.864551544189453 82.49979400634766 0.5000099539756775 79.13525390625 0.5000099539756775 74.99971008300781 L 0.5000099539756775 10.99979400634766 C 0.5000099539756775 6.864252090454102 3.864551544189453 3.499710321426392 8.000093460083008 3.499710321426392 L 249.0539855957031 3.499710321426392 C 250.6888885498047 6.153966903686523 253.4300384521484 7.952469348907471 256.5003967285156 8.39344596862793 L 256.5003967285156 14.75617694854736 C 254.7160186767578 15.38457870483398 253.5007171630859 17.07722663879395 253.5007171630859 18.99991798400879 C 253.5007171630859 20.9230785369873 254.7160186767578 22.61608505249023 256.5003967285156 23.24453163146973 L 256.5003967285156 29.75559234619141 C 254.7160186767578 30.38399505615234 253.5007171630859 32.07664108276367 253.5007171630859 33.99929428100586 C 253.5007171630859 35.92245101928711 254.7160186767578 37.61545944213867 256.5003967285156 38.2439079284668 L 256.5003967285156 45.75667572021484 C 254.7160186767578 46.38507843017578 253.5007171630859 48.07772827148438 253.5007171630859 50.00041961669922 C 253.5007171630859 51.92306900024414 254.7160186767578 53.61571884155273 256.5003967285156 54.24411773681641 L 256.5003967285156 60.7560920715332 C 254.7160186767578 61.38449478149414 253.5007171630859 63.07714080810547 253.5007171630859 64.99979400634766 C 253.5007171630859 66.92295074462891 254.7160186767578 68.61595916748047 256.5003967285156 69.24440765380859 L 256.5003967285156 76.60697174072266 C 253.0285339355469 77.10428619384766 250.0202941894531 79.31986999511719 248.5103454589844 82.49979400634766 Z"/>
      <path class="cls-3" d="M 320.0003967285156 81.99979400634766 C 323.8597717285156 81.99979400634766 326.9996032714844 78.85958862304688 326.9996032714844 74.99971008300781 L 326.9996032714844 10.99979400634766 C 326.9996032714844 7.139918804168701 323.8597717285156 3.999710321426392 320.0003967285156 3.999710321426392 L 267.2215881347656 3.999710321426392 C 265.5735778808594 6.527669906616211 262.9506225585938 8.273177146911621 260.0002136230469 8.818007469177246 L 260.0002136230469 14.41577339172363 C 261.7994689941406 15.19871807098389 262.9999389648438 16.9857120513916 262.9999389648438 18.99991798400879 C 262.9999389648438 21.01464080810547 261.7994384765625 22.80198287963867 260.0002136230469 23.58494567871094 L 260.0002136230469 29.41518974304199 C 261.7994689941406 30.19813346862793 262.9999389648438 31.98512268066406 262.9999389648438 33.99929428100586 C 262.9999389648438 36.01401519775391 261.7994384765625 37.80135726928711 260.0002136230469 38.58432006835938 L 260.0002136230469 45.4162712097168 C 261.7994689941406 46.19921875 262.9999389648438 47.98621368408203 262.9999389648438 50.00041961669922 C 262.9999389648438 52.01466369628906 261.7994384765625 53.80165481567383 260.0002136230469 54.58454132080078 L 260.0002136230469 60.41569137573242 C 261.7994689941406 61.19863510131836 262.9999389648438 62.98562240600586 262.9999389648438 64.99979400634766 C 262.9999389648438 67.01451873779297 261.7994384765625 68.80185699462891 260.0002136230469 69.58481597900391 L 260.0002136230469 76.18238830566406 C 263.3509216308594 76.7996826171875 266.2427368164062 78.95175170898438 267.799560546875 81.99979400634766 L 320.0003967285156 81.99979400634766 M 248.1993560791016 81.99979400634766 C 249.7564239501953 78.95142364501953 252.6493225097656 76.79923248291016 256.0003967285156 76.18222045898438 L 256.0003967285156 69.58479309082031 C 254.201171875 68.80177307128906 253.0007171630859 67.01444244384766 253.0007171630859 64.99979400634766 C 253.0007171630859 62.98562240600586 254.201171875 61.19863891601562 256.0003967285156 60.41569519042969 L 256.0003967285156 54.58451843261719 C 254.201171875 53.80157470703125 253.0007171630859 52.01458740234375 253.0007171630859 50.00041961669922 C 253.0007171630859 47.98621368408203 254.201171875 46.19922256469727 256.0003967285156 45.41627883911133 L 256.0003967285156 38.58429336547852 C 254.201171875 37.80127334594727 253.0007171630859 36.01394271850586 253.0007171630859 33.99929428100586 C 253.0007171630859 31.98512268066406 254.201171875 30.19813919067383 256.0003967285156 29.41519546508789 L 256.0003967285156 23.58491897583008 C 254.201171875 22.80189895629883 253.0007171630859 21.01456642150879 253.0007171630859 18.99991798400879 C 253.0007171630859 16.9857120513916 254.201171875 15.19872283935547 256.0003967285156 14.41577911376953 L 256.0003967285156 8.81800651550293 C 253.0499877929688 8.273170471191406 250.4270172119141 6.527641773223877 248.7789764404297 3.999710321426392 L 8.000093460083008 3.999710321426392 C 4.140218257904053 3.999710321426392 1.000010013580322 7.139918804168701 1.000010013580322 10.99979400634766 L 1.000010013580322 74.99971008300781 C 1.000010013580322 78.85958862304688 4.140218257904053 81.99979400634766 8.000093460083008 81.99979400634766 L 248.1993560791016 81.99979400634766 M 320.0003967285156 82.99979400634766 L 267.1670227050781 82.99979400634766 C 265.7190551757812 79.68629455566406 262.590087890625 77.40666961669922 259.0002136230469 77.04991912841797 L 259.0002136230469 68.87429046630859 C 260.7667236328125 68.42000579833984 261.9999389648438 66.82712554931641 261.9999389648438 64.99979400634766 C 261.9999389648438 63.17329406738281 260.7663879394531 61.58045959472656 259.0002136230469 61.1262092590332 L 259.0002136230469 53.87400054931641 C 260.7667236328125 53.41971206665039 261.9999389648438 51.82720947265625 261.9999389648438 50.00041961669922 C 261.9999389648438 48.17391967773438 260.7663879394531 46.5810432434082 259.0002136230469 46.12679290771484 L 259.0002136230469 37.87379455566406 C 260.7667236328125 37.41950225830078 261.9999389648438 35.82662582397461 261.9999389648438 33.99929428100586 C 261.9999389648438 32.17279434204102 260.7663879394531 30.57995986938477 259.0002136230469 30.12570953369141 L 259.0002136230469 22.87441825866699 C 260.7667236328125 22.42012786865234 261.9999389648438 20.82725143432617 261.9999389648438 18.99991798400879 C 261.9999389648438 17.17341804504395 260.7663879394531 15.58054351806641 259.0002136230469 15.12629413604736 L 259.0002136230469 7.95058536529541 C 262.1884765625 7.634335517883301 265.0526733398438 5.783876895904541 266.6628112792969 2.999710321426392 L 320.0003967285156 2.999710321426392 C 324.4111633300781 2.999710321426392 327.9996032714844 6.588543891906738 327.9996032714844 10.99979400634766 L 327.9996032714844 74.99971008300781 C 327.9996032714844 79.41095733642578 324.4111633300781 82.99979400634766 320.0003967285156 82.99979400634766 Z M 248.8318786621094 82.99979400634766 L 8.000093460083008 82.99979400634766 C 3.58884334564209 82.99979400634766 9.969075108529069e-06 79.41095733642578 9.969075108529069e-06 74.99971008300781 L 9.969075108529069e-06 10.99979400634766 C 9.969075108529069e-06 6.588543891906738 3.58884334564209 2.999710321426392 8.000093460083008 2.999710321426392 L 249.3377532958984 2.999710321426392 C 250.9478454589844 5.783710479736328 253.8120574951172 7.634293556213379 257.0003967285156 7.95058536529541 L 257.0003967285156 15.12629413604736 C 255.2339324951172 15.58062744140625 254.0007171630859 17.17308616638184 254.0007171630859 18.99991798400879 C 254.0007171630859 20.82691955566406 255.2342224121094 22.42016792297363 257.0003967285156 22.87441825866699 L 257.0003967285156 30.12570953369141 C 255.2339324951172 30.58004379272461 254.0007171630859 32.17250061035156 254.0007171630859 33.99929428100586 C 254.0007171630859 35.8262939453125 255.2342224121094 37.4195442199707 257.0003967285156 37.87379455566406 L 257.0003967285156 46.12679290771484 C 255.2339324951172 46.58112716674805 254.0007171630859 48.173583984375 254.0007171630859 50.00041961669922 C 254.0007171630859 51.82687759399414 255.2342224121094 53.41975021362305 257.0003967285156 53.87400054931641 L 257.0003967285156 61.1262092590332 C 255.2339324951172 61.58054351806641 254.0007171630859 63.17300033569336 254.0007171630859 64.99979400634766 C 254.0007171630859 66.82679748535156 255.2342224121094 68.4200439453125 257.0003967285156 68.87429046630859 L 257.0003967285156 77.04991912841797 C 253.4101715087891 77.40604400634766 250.2806396484375 79.68529510498047 248.8321380615234 82.99921417236328 L 248.8318786621094 82.99979400634766 Z"/>
    </g>
  </g>
</svg>
