<svg xmlns="http://www.w3.org/2000/svg" width="140" height="124" viewBox="0 0 140 124">
    <defs>
        <clipPath id="clip-path">
            <path id="사각형_4557" d="M0 0H140V124H0z" class="cls-1" transform="translate(211 131)"/>
        </clipPath>
        <clipPath id="clip-path-2">
            <path id="사각형_4516" d="M0 0H112V111H0z" class="cls-1" transform="translate(225.97 143.54)"/>
        </clipPath>
        <style>
            .cls-1,.cls-5{fill:#fff}.cls-1{stroke:#707070}.cls-5,.cls-6{fill-rule:evenodd}
        </style>
    </defs>
    <g id="img_cs" transform="translate(-211 -129)">
        <g id="마스크_그룹_117" clip-path="url(#clip-path)" transform="translate(0 -2)">
            <path id="패스_8866" fill="#3ddb87" d="M101.077 3.176a59.1 59.1 0 0 1-46.8 0 38.864 38.864 0 1 0-.13 71.431 59.819 59.819 0 0 1 47.061 0A38.868 38.868 0 1 0 116.8 0h-.311a38.741 38.741 0 0 0-15.415 3.176" opacity="0.905" transform="rotate(-45 376.653 -127.974)"/>
        </g>
        <g id="마스크_그룹_112" clip-path="url(#clip-path-2)" transform="translate(3.029 -1.54)">
            <g id="Introduction" transform="translate(249.533 146.023)">
                <g id="variations">
                    <g id="images">
                        <g id="a-person_bust">
                            <g id="body_Device" transform="translate(0 37.918)">
                                <path id="_-Background" d="M15.782 27.024c.326-.894-.15-1.786-.414-2.652a54.163 54.163 0 0 0-3.407-8.8 1.255 1.255 0 0 1 1.4-1.82 27.244 27.244 0 0 0 5.427-.06c.656-1.7 2.4-2.4 3.782-3.377 1.563-.976 3.082-2.1 4.707-2.951a.948.948 0 0 1 1.669-.43c1.645-1.024 3.618-.834 5.382-1.5 1.34-2.167 1.441-4.445 1.8-6.536.155-.911-.01-1.79.613-2.6 2.091-2.942 10.352-4.217 13.4-2.474 1.64-1.023 1.679.83 1.94 1.973a3.63 3.63 0 0 1 .4 1.9c1.761 3.68 5.79 5.344 9.4 6.691a1.13 1.13 0 0 1 1.53-.02 23.788 23.788 0 0 1 8.784 3.743c2.977.871 5.074 3.293 6.59 5.891a1.123 1.123 0 0 1 .158.809 44.124 44.124 0 0 1 7.2 23.289c3 1.8-1.425 17.971-2.455 21.329-.668 1.183-1.427 4.559-3.1 4.3-1.147 1.3-2.974 1.042-4.531 1.142a5.7 5.7 0 0 1-.173 3.047 1.222 1.222 0 0 1-2.356-.064c-15.5 3.012-31.4.609-47.072 1.061-4.531.032-9.062.172-13.583.5a1.245 1.245 0 0 1-1.239-1.239c.972-10.344 1.885-23.952 2.971-34.194a34.741 34.741 0 0 1 1.177-6.958z" class="cls-5" transform="translate(-9.024 6.975)"/>
                                <path id="_-Ink" d="M51.462-4.145a.117.117 0 0 0-.229.031c-.071 2.908.652 6.463 2.979 8.427a13.541 13.541 0 0 0 4.223 2l.164.06 2.562.955c.679.253 1.412.643 2.013.285-.486 1.2-.893 2.443-1.485 3.6a18.082 18.082 0 0 1-2.716 3.97c-4.317 4.769-11.148 6.223-17.273 4.827a15.334 15.334 0 0 1-8.381-4.567 12.355 12.355 0 0 1-2.8-6.925.539.539 0 0 0 .2-.005 7.875 7.875 0 0 0 2.241-.993l.066-.039a6.358 6.358 0 0 0 1.812-1.463 8.023 8.023 0 0 0 .959-2.6 19.374 19.374 0 0 0 .237-2.995c0-.071-.318-.113-.352-.039-.292.642-.387 2.052-.613 2.72l-.046.133a6.193 6.193 0 0 1-.947 2.111 9.388 9.388 0 0 1-3.616 2.038.992.992 0 0 0-1.977.079c0 .068 0 .135.007.2-.151.083-.3.178-.431.269l-.132.09a17.9 17.9 0 0 1-1.537.953c-1.032.559-2.124 1-3.18 1.51a16.2 16.2 0 0 0-3 1.858 15.444 15.444 0 0 0-1.258 1.1l-.108.107a4.79 4.79 0 0 0-1.09 1.3c-.048.11-.287.364-.416.373-2.008.132-4.012.318-6.007.6-.517.072-.721.339-.53.769.656 1.48 3.225 7.392 3.908 8.979-.08 1.166.028 2.538-.044 3.7q-.158 2.552-.408 5.1c-.591 6.069-1.486 12.108-2.3 18.151-.405 3.024-.774 6.053-1.139 9.082q-.276 2.3-.46 4.6-.075.961-.136 1.923l-.035.569a2.853 2.853 0 0 0 .286 2.014.6.6 0 0 0 .923.119 1.826 1.826 0 0 0 .487-1.218c.024-.4.03-.8.048-1.2q.059-1.3.147-2.6.174-2.6.4-5.2c.537-6.071 1.556-12.1 2.235-18.151q.513-4.579.714-9.181.1-2.3.073-4.6c-.006-.573-.033-1.144-.072-1.713q1.525 3.465 3.2 6.855l.265.535a46.42 46.42 0 0 0 2.286 4.2l.146.229c.345.546.816 1.408 1.444 1.58a5.252 5.252 0 0 0 1.422.027c.446-.008.892-.01 1.337-.028a6.527 6.527 0 0 0 1.459-.216 1.652 1.652 0 0 0 .225-.075 4.633 4.633 0 0 0 2.157 1.756 14.809 14.809 0 0 0 2.1.656l.251.063c.762.19 1.633.28 2.062 1.016l.1.171a4.313 4.313 0 0 0 1.154 1.408 6.3 6.3 0 0 0 1.914.887c.687.21 1.391.371 2.089.543l.19.047c.461.115.926.221 1.384.347.2.053.394.109.586.175a2.034 2.034 0 0 1 .565.329 1.358 1.358 0 0 0 1.4.82 1.751 1.751 0 0 0 .8-.266c.419.356.879.676 1.306 1.006q.9.694 1.8 1.377 1.865 1.407 3.763 2.77 3.367 2.41 6.874 4.62c.974.617 5.969 3.6 6.972 4.121l.251.129c2.487 1.272 4.908 2.666 7.416 3.9a13.99 13.99 0 0 0 2.283.909 11.094 11.094 0 0 0-.223 2.663.656.656 0 0 0 1.311 0l-.014-.407a10.324 10.324 0 0 0-.227-2.059 9.858 9.858 0 0 0 5.353-.742 5.758 5.758 0 0 0 1.339-1.2 12.39 12.39 0 0 0 1.878-3.165 38.458 38.458 0 0 0 2.387-7.533 52.123 52.123 0 0 0-2.158-28.66 54.53 54.53 0 0 0-2.935-6.619l-.14-.264a30.994 30.994 0 0 0-3.951-6.014 19.706 19.706 0 0 0-5.9-4.459 31.55 31.55 0 0 0-3.33-1.453c-.183-.068-.366-.129-.551-.187a7.68 7.68 0 0 0-4.061-1.45.345.345 0 0 0-.236.095 1.931 1.931 0 0 0-.208.047.4.4 0 0 0-.293.385l.007.057a.471.471 0 0 0 .018.082.859.859 0 0 0-.151.037c-1.376-.389-2.73-.983-4.073-1.463l-.306-.108a9.79 9.79 0 0 1-3.2-1.561A8.2 8.2 0 0 1 52.857.02c-.615-1.339-.89-2.79-1.395-4.165zM21.1 43.746a.113.113 0 0 0-.216 0 18.717 18.717 0 0 0-.288 3l-.008.11c-.08 1.093-.147 2.189-.195 3.283q-.141 3.231-.332 6.46c-.062 1.067-.37 5.628-.432 6.452-.083 1.091-.427 5.841-.34 6.542a.347.347 0 0 0 .677.092 15.342 15.342 0 0 0 .542-3.156c.118-.988.189-1.983.267-2.975l.023-.3q.26-3.274.414-6.554t.187-6.563c.011-.994-.005-1.992-.044-2.985l-.012-.3a17.617 17.617 0 0 0-.243-3.106zM63.663 6.117c.291.065.581.123.871.178 1.1.592 2.176 1.206 3.316 1.734 1.21.56 2.415 1.138 3.564 1.815a19.077 19.077 0 0 1 5.816 5.327 45.825 45.825 0 0 1 6.217 12.516A109.513 109.513 0 0 1 86 41.251a105.92 105.92 0 0 1-1.26 13.773l-.083.349a37.517 37.517 0 0 1-1.886 6.016 10.543 10.543 0 0 1-1.6 2.628 7.478 7.478 0 0 1-1.08 1.033 5.012 5.012 0 0 1-2.761.829 5.615 5.615 0 0 1-2.342-.354 28.517 28.517 0 0 1-3.8-1.821l-.128-.066c-.546-.283-10.346-5.8-13.839-8.02q-3.375-2.141-6.67-4.41-1.651-1.135-3.262-2.308-.846-.617-1.684-1.244c-.233-.174-.461-.357-.694-.532.057-.071.112-.142.165-.212a9.516 9.516 0 0 0 1.717-3.9 15.5 15.5 0 0 0 .277-2.587l.011-.375a9.054 9.054 0 0 0-.095-1.906c.158.087.32.173.482.264q.869.492 1.739.981c1.162.652 2.328 1.3 3.509 1.916 2.109 1.105 4.238 2.157 6.425 3.1l1.064.459a55.975 55.975 0 0 0 5.629 2.166c1.083.333 5.7 1.39 6.213 1.489l.962.184a13.661 13.661 0 0 1 3.933 1.462c.427.234.546-.22.093-.536a14.239 14.239 0 0 0-4.456-1.887l-.078-.021c-.584-.16-1.647-.971-1.655-1.236-.016-.59-.068-1.182-.1-1.771q-.1-1.856-.248-3.7-.057-.713-.128-1.429a5.447 5.447 0 0 1 .928-.5l.059-.017c.372-.1.246-.58-.084-.621a2.665 2.665 0 0 0-.892.043c-.046.01-.089.021-.13.034-.051-.454-1.773 1.313-1.751 2.576.024 1.305.069 2.607.127 3.911a12.3 12.3 0 0 0 .112 1.572 73.033 73.033 0 0 1-9.517-3.826q-3.243-1.587-6.424-3.3c-1.062-.572-2.128-1.135-3.189-1.709l-1.109-.604-.557-.3a3.4 3.4 0 0 0-1.562-.587.592.592 0 0 0-.458.207 1.877 1.877 0 0 0-1.1-.37c-.6-.823-1.2-1.638-1.828-2.436l-.464-.591a15.5 15.5 0 0 0-2.68-2.83 69.384 69.384 0 0 0-7.8-2.7q-.563-.133-1.132-.246a64.682 64.682 0 0 0-2.4-6.381 43.607 43.607 0 0 0-2.445-4.794 2.228 2.228 0 0 0-1.779-1.15 21.9 21.9 0 0 0-2.509.049q-1.437.051-2.872.125c.245-.257.469-.543.715-.79a14.814 14.814 0 0 1 1.3-1.155 16.161 16.161 0 0 1 2.914-1.8 29.178 29.178 0 0 0 3.047-1.564A8.784 8.784 0 0 0 28.536 8.4a14.253 14.253 0 0 0 4.394 8.876 17.921 17.921 0 0 0 9.5 4.367 20.881 20.881 0 0 0 10.531-.843c1.731-.629 7.2-4.748 7.78-5.474 1.827-2.278 3.629-5.468 3.018-8.493a.125.125 0 0 0-.108-.093.979.979 0 0 0-.3-.556 2.669 2.669 0 0 1 .312-.067zM24.4 15.882c.837.163 1.179 1.2 1.531 1.87.832 1.59 1.6 3.21 2.366 4.832.237.5 1.72 3.664 2.293 4.638-.525-.1-1.052-.182-1.581-.248a4.4 4.4 0 0 0-.483-1.585l-.014-.035c-.21-.538-.431-1.385-.973-1.664a.261.261 0 0 0-.387.222c-.041.592.538 1.27.821 1.772q.257.456.5.918c.061.115.112.229.174.331-.273-.03-.546-.056-.82-.075l-.179-.012a5.458 5.458 0 0 0-3.013.415 1.757 1.757 0 0 0-.819 2.361c.583 1.126 1.866 1.275 2.995 1.366 1.41.114 2.823.319 4.222.519 1.448.207 2.811.741 4.237 1.016a.122.122 0 0 0 .094-.222 16.45 16.45 0 0 0-3.751-1.446l-.1-.031a16.184 16.184 0 0 0-2.055-.568q-1.028-.173-2.066-.28l-.067-.006c-.761-.064-2.7-.042-2.62-1.169.054-.746 1.266-.875 1.819-.884a25.218 25.218 0 0 1 7.5 1.354l.538.161c.987.3 1.975.6 2.944.951a6.953 6.953 0 0 1 2.761 1.852c.886.934 1.745 1.889 2.664 2.791q.869.853 1.759 1.682a1.826 1.826 0 0 1 .315.606 2.911 2.911 0 0 1 .049 1.221c-.119 1.071-.146 2.153-.295 3.22a10.891 10.891 0 0 1-.743 2.932 5.421 5.421 0 0 1-.615 1.039l-.194.253c-.085.11-.18.23-.279.343a.673.673 0 0 0-.6-.265 3.872 3.872 0 0 1-1.445-.073c-.4-.093-.79-.2-1.185-.3-.775-.2-1.557-.378-2.325-.6l-.132-.04a4.985 4.985 0 0 1-1.62-.764c-.553-.429-.723-1.048-1.133-1.583-.874-1.143-2.764-1.119-4.044-1.432a5.779 5.779 0 0 1-2.886-1.475l-.044-.047a.337.337 0 0 0-.152-.373l-.029-.016a.312.312 0 0 0-.16-.039 3.757 3.757 0 0 1-.2-.321c-.05-.093-.176-.025-.16.067.01.055.024.108.036.162a9.191 9.191 0 0 0-2.27-.151h-.96a4.065 4.065 0 0 1-.436-.02l-.023-.01c-.06-.026.025.017-.017-.039l-.136-.186c-.159-.223-.31-.452-.457-.684a41.591 41.591 0 0 0 4.923.867 41.841 41.841 0 0 0 5.324.388.379.379 0 0 0 0-.758c-1.882-.072-3.755-.172-5.624-.413q-1.45-.187-2.887-.465-.554-.106-1.106-.225l-.276-.06a2.932 2.932 0 0 1-.9-.253l-.14-.241c.023-.283.741-.245.909-.245h1.432c.955 0 1.909-.005 2.864-.013 1.907-.016 3.822-.082 5.728 0 .463.02.706-.723.248-.918a23.455 23.455 0 0 0-6.415-1.315 27 27 0 0 1-3.376-.582l-.274-.07a6.076 6.076 0 0 1-2.051-.822 9.248 9.248 0 0 1 2.889-.366h.07q1.918-.118 3.841-.121c2.621 0 5.244.089 7.862.214a.059.059 0 0 0 .015-.115 41.357 41.357 0 0 0-8.181-.914q-1.924-.03-3.848.055l-.47.022a5.812 5.812 0 0 0-3.219.72.5.5 0 0 0-.224.365c-1.226-2.445-2.359-4.941-3.5-7.421-.884-1.928-1.735-3.872-2.651-5.785l-.3-.619c-.4-.826-.8-1.652-1.256-2.447 1.689-.226 3.388-.383 5.088-.5 1.555-.116 6.611-.359 7.355-.214zm-4.458 17.533a5.784 5.784 0 0 0 2.614 1.308 22.755 22.755 0 0 0 3.3.67c1.075.152 2.142.288 3.2.463-.8.01-1.6.016-2.4.03q-1.381.025-2.762.063a6.4 6.4 0 0 0-2.094.177 1.2 1.2 0 0 0-.316.183q-.799-1.429-1.542-2.894zm2.451-15.179a7.021 7.021 0 0 0 1.282 3.051.736.736 0 0 0 1.25 0 1.912 1.912 0 0 0-.173-2.072l-.1-.188a4.869 4.869 0 0 0-.677-.975v-.029a.8.8 0 1 0-1.582.213zm42.353-5.166zm-36.565-.779h-.1c-.742.016.508-.001.1 0z" class="cls-6" transform="translate(-10.141 6.556)"/>
                            </g>
                            <g id="head_Short-3" transform="translate(15.061)">
                                <path id="_-Background-2" d="M11.524 48.461c.65-4.691 2.136-9.245 2.35-14.006l.381-6.112a1.241 1.241 0 0 1 2.332-.574c1.435-1.592 4-1.357 5.963-1.309a29.884 29.884 0 0 1 26.462 19.092 1.045 1.045 0 0 1-.041.783c1.846 6.158-4.682 10.124-9.135 12.87a20.266 20.266 0 0 1-6.327 4.582 22.191 22.191 0 0 1-8.875 2.091 1.117 1.117 0 0 1-1.119-1.086c-.972-.226-2.636.035-3.15-.962a15.031 15.031 0 0 1-8.841-15.37z" class="cls-5" transform="translate(-10.905 -18.727)"/>
                                <path id="_-Ink-2" d="M12.739 23.837c.017-.152-.2-.157-.248-.034-.372 1.013-.757 2.018-1.051 3.056-.284 1-.488 2.024-.7 3.043-.34 1.692-1.44 10.757-1.3 10.842.035.8-.159 5.264 0 6.054a13.617 13.617 0 0 0 4.992 7.726 16.057 16.057 0 0 0 8.153 3.376 14.857 14.857 0 0 0 4.363-.131l.18-.032A6.984 6.984 0 0 0 31 56.088c.485-.529.2-1.694-.656-1.584a5.111 5.111 0 0 0-1.278.3c-.334.131-.668.257-1.01.364a11.984 11.984 0 0 1-2.016.452 13.464 13.464 0 0 1-4.3-.142 14.7 14.7 0 0 1-6.965-3.413 11.127 11.127 0 0 1-3.763-7.7 64.457 64.457 0 0 1 .5-10.2q.253-2.623.64-5.231c.248-1.697.401-3.392.587-5.097zm19.929-12.508a29.2 29.2 0 0 0-7.226-.587 14.535 14.535 0 0 0-7.089 1.8c-.515-.054-1.5 1.658-2.013 1.65-.64-.008-1.828 1.348-1.907 2a2.219 2.219 0 0 0-1.506.737 1.426 1.426 0 0 0-.277.578 4.74 4.74 0 0 0-1.074.4 1.118 1.118 0 0 0-.51 1.254q.051.15.116.294l.033.071-.02.027A1.155 1.155 0 0 0 11.6 21.1a3.9 3.9 0 0 0 1.249.523c-.036.176-.069.354-.1.533-.01.073.083.125.124.053a10.723 10.723 0 0 1-.395 1.031c-.093.212.205.4.319.187.3-.572.49-1.159.765-1.749a2.135 2.135 0 0 0 .75-.186.831.831 0 0 0 .368-.341l.014.021c.818 1.052 2.416 1.421 3.651 1.754a28.482 28.482 0 0 0 4.047.741c2.38.283 4.778.336 7.168.446l.475.023a6.588 6.588 0 0 0 3.5 1.543 6.373 6.373 0 0 0 2.148-.105 2.178 2.178 0 0 0 .961.572 4.372 4.372 0 0 0 1.967 3.393l-.02.081a2.969 2.969 0 0 0 .739 3.233 2.481 2.481 0 0 0 .447.28l-.035.08c-.527 1.231-.695 2.591.3 3.612a.914.914 0 0 0 1.407-.159l.015-.024.052-.083a.253.253 0 0 0 .129.127c.376.162.526.043.87-.124a5.343 5.343 0 0 1 .994-.362 5.74 5.74 0 0 1 .836-.155 4.478 4.478 0 0 1 2.639 4.7 3.182 3.182 0 0 1-1.742 2.548 2.773 2.773 0 0 1-1.442.207c-.65-.088-1.149-.5-1.822-.263a.63.63 0 0 0-.446.586 1.252 1.252 0 0 0 .4 1.033 15.6 15.6 0 0 0-1.261 1.378c-.512.546-1.031 1.093-1.585 1.6a14.082 14.082 0 0 1-1.666 1.316l-.062.041c-.738.48-1.667.907-1.7 1.911a.855.855 0 0 0 .421.735c.93.576 1.941-.18 2.67-.735q.44-.335.853-.694a1.213 1.213 0 0 0 .598-.108 4.228 4.228 0 0 0 .393-.2 1.389 1.389 0 0 0 1.136-.206c.467.115 2.789-1.969 3.209-2.061a7.753 7.753 0 0 0 1.784-2.138l1.1-2.4c1.281-2.1.885-2.739.88-7.8a63.2 63.2 0 0 0-.459-8.42 15.345 15.345 0 0 0-1.894-6.163 17.535 17.535 0 0 0-3.823-4.723 20.016 20.016 0 0 0-9.858-4.86zM46.037 39.8c.376-.9-1.394-.913-1.862-.87h-.014c-1.053.1-2.7.612-3.131 1.675-.178.44.35.917.772.772a3.306 3.306 0 0 0 .977-.712c.087-.07.178-.135.27-.2a.982.982 0 0 1-.235.405l-.025.024c-.51.458.4 1.178.74.571a1.609 1.609 0 0 0 .2-1.043 1.165 1.165 0 0 0-.088-.3l.1-.051.061-.028c.406-.184 2.137-.907 2.123-.261-.004.07.088.07.112.018z" class="cls-6" transform="translate(-9.377 -10.738)"/>
                            </g>
                            <g id="face_Smiling" transform="translate(16.767 16.953)">
                                <path id="_-Ink-3" d="M18.032 30.12a4.22 4.22 0 0 0 1.773-1.364.819.819 0 0 0 .166-.636.918.918 0 0 0-.357-.575.855.855 0 0 0-.64-.173.8.8 0 0 0-.541.358l-.032.044a2.794 2.794 0 0 1-1.023.859 2.305 2.305 0 0 1-1.267.223 3.4 3.4 0 0 1-2.064-1.184l-.233-.243a.366.366 0 0 0-.193-.149.415.415 0 0 0-.266 0 .423.423 0 0 0-.209.159.388.388 0 0 0-.066.257 2.663 2.663 0 0 0 .878 1.683 3.766 3.766 0 0 0 4.076.738zm-2.511-10.011c-.783.476-1.975 1.586-1.133 2.765.991 1.04 2.418-.152 3.121-.692.652-.418 1.384.657.78 1.145-5.081 3.763-7.142-3.094-3.163-3.778.438-.075.6.413.395.56zm9.1-4.377c-.086-1.074-1.721-1.318-1.884-.255a4.351 4.351 0 0 0 .454 2.683.8.8 0 0 0 1.516-.309 8.657 8.657 0 0 0-.081-2.12zm-12.443-.475a.872.872 0 0 0-.951-.387c-1.232.36-.869 2.109-.436 2.961a.857.857 0 0 0 1.343.169 2.077 2.077 0 0 0 .116-2.644.9.9 0 0 0-.067-.1zm11.379-4.951l-.195-.034c-.6-.1-1.35-.2-1.776.28a.7.7 0 0 0 0 .98c.534.432 1.124.265 1.764.3a7.017 7.017 0 0 1 1.542.263 10.479 10.479 0 0 1 2.974 1.539c.125.084.252-.076.193-.193a6.145 6.145 0 0 0-2.68-2.5 6.629 6.629 0 0 0-1.817-.636z" class="cls-6" transform="translate(-7.425 -8.078)"/>
                                <path id="_-Ink-4" d="M1 3.049l.149-.03C2.765 2.679 4.871 2 5.638.41c.029-.225 0-.273-.027-.3L5.6.095A.21.21 0 0 0 5.468 0l-.082.021a4.653 4.653 0 0 0-.9.351l-.291.144A8.049 8.049 0 0 1 3.151.96a12.284 12.284 0 0 1-2.377.525.975.975 0 0 0-.474.181.716.716 0 0 0-.267.406.729.729 0 0 0 .082.609.771.771 0 0 0 .376.324.883.883 0 0 0 .509.044z" class="cls-6" transform="rotate(-165.02 3.02 1.853)"/>
                            </g>
                            <g id="accessories_Glasses-2" transform="translate(12.26 20.548)">
                                <path id="_-Ink-5" d="M6.286 10.758a4.675 4.675 0 0 0 5.033.976c4.3-1.8 2.194-7.4-1.121-8.905a11.107 11.107 0 0 0-1.472-.4c-.046-.022-.145.042-.265-.019-3.655.408-4.488 6.085-2.175 8.352m13.864.333a5.307 5.307 0 0 0 6.178 1.58c4.235-1.668 2.733-6.637-.165-8.586-6.12-2.3-8.648 3.553-6.014 7.006m9.18-4.149h.012l-.067-.03.022.057a.248.248 0 0 1 .033-.022M3.373 4.918a1.9 1.9 0 0 1 1.131.3c.705-2.38 3.309-4.582 5.573-2.976a6.291 6.291 0 0 1 3.858 3.537 4.271 4.271 0 0 1 4.664.6c.77-2.545 2.665-3.437 4.921-3.568 2.462-.4 4.916 1.989 5.682 3.907a3.512 3.512 0 0 1 2.187.118c3.887-1.02 10.683-1.582 11.473-1.015.563.216.872 1.546.086 1.618-.685-.1.08-.974-.611-1.07-3.681-.228-7.255.513-10.9.825A2.131 2.131 0 0 1 29.5 7.6c.883 3.255-1.023 5.47-3.879 6.133a5.838 5.838 0 0 1-7.111-7.054 6.351 6.351 0 0 0-4.339-.287c2.438 8.977-12.014 8.575-9.757-.869-1.5.748-1.828-.454-1.04-.6" class="cls-6" transform="translate(-2.958 -1.691)"/>
                            </g>
                        </g>
                    </g>
                </g>
            </g>
        </g>
    </g>
</svg>
