<svg xmlns="http://www.w3.org/2000/svg" width="30" height="15.935" viewBox="0 0 30 15.935">
    <path data-name="패스 309" d="M293.41 828.2h-4.494v4.478a.312.312 0 0 1-.624 0V828.2H283.8a.311.311 0 1 1 0-.622h4.494V823.1a.312.312 0 0 1 .624 0v4.477h4.494a.311.311 0 1 1 0 .622m-4.806-8.279a7.968 7.968 0 1 0 8 7.967 7.982 7.982 0 0 0-8-7.967" transform="translate(-266.601 -819.917)" style="fill:#3cdc87"/>
    <path data-name="패스 310" d="M223.128 826.185a5.124 5.124 0 0 1 9.652 0 .2.2 0 0 1-.187.264h-9.278a.2.2 0 0 1-.187-.264m8.321 5.633a.132.132 0 0 0-.2-.034 5.126 5.126 0 0 1-8.121-2.2.2.2 0 0 1 .187-.264h10.159a8.391 8.391 0 0 1 1.128-5.849 7.97 7.97 0 1 0-1.869 10.8.132.132 0 0 0 .035-.172z" transform="translate(-219.958 -819.915)" style="fill:#fff"/>
</svg>
