<svg xmlns="http://www.w3.org/2000/svg" width="102.806" height="93.555" viewBox="0 0 102.806 93.555">
    <defs>
        <clipPath id="5kk7bdwwla">
            <path data-name="사각형 7411" style="fill:none" d="M0 0h29.414v11.285H0z"/>
        </clipPath>
        <clipPath id="cs3f8t8cqb">
            <path data-name="사각형 7398" style="fill:none" d="M0 0h26.323v29.362H0z"/>
        </clipPath>
        <clipPath id="ynxvnrr5hc">
            <path data-name="사각형 7407" style="fill:none" d="M0 0h8.776v29.134H0z"/>
        </clipPath>
        <clipPath id="tu4tdw20td">
            <path data-name="사각형 7410" style="fill:none" d="M0 0h70.613v72.497H0z"/>
        </clipPath>
        <clipPath id="4982f3scle">
            <path data-name="사각형 7409" style="fill:none" d="M0 0h70.613v72.497H0z"/>
        </clipPath>
        <clipPath id="rhfbvn411f">
            <path data-name="사각형 7408" transform="translate(.375 .374)" style="fill:none" d="M0 0h15.555v8.345H0z"/>
        </clipPath>
    </defs>
    <g data-name="그룹 20700">
        <g data-name="그룹 20699" style="clip-path:url(#5kk7bdwwla)" transform="rotate(-12.04 331.228 -111.562)">
            <path data-name="패스 20573" d="M24.656 4.763a2.019 2.019 0 0 1-3.8-.948 2 2 0 0 1 .05-.44l-1.845-.682S13.582 7.435 6.9 6.784l6.081 3.291s9.089 3.511 16.061-3.691z" style="fill:#fff"/>
            <path data-name="패스 20574" d="M18.262 11.285a16.764 16.764 0 0 1-5.419-.861l-6.124-3.31a.373.373 0 0 1-.18-.439.384.384 0 0 1 .394-.264c6.451.623 11.827-3.955 11.881-4a.373.373 0 0 1 .376-.068l1.844.683a.374.374 0 0 1 .236.433 1.643 1.643 0 0 0 3.055 1.129.379.379 0 0 1 .461-.175l4.383 1.621a.376.376 0 0 1 .139.613 14.972 14.972 0 0 1-11.046 4.64M8.487 7.218l4.669 2.526c.045.014 8.548 3.179 15.2-3.212L24.812 5.22a2.394 2.394 0 0 1-4.333-1.4c0-.065 0-.129.008-.194l-1.354-.5a18.775 18.775 0 0 1-10.646 4.1"/>
            <path data-name="패스 20575" d="M18.022 11.272a17.143 17.143 0 0 1-4.4-.532l-6.9-3.624a.375.375 0 0 1-.185-.439.37.37 0 0 1 .4-.266c6.451.623 11.827-3.955 11.881-4a.372.372 0 0 1 .375-.068l1.845.683a.373.373 0 0 1 .235.433 1.644 1.644 0 0 0 3.056 1.129.379.379 0 0 1 .461-.175l4.382 1.621a.375.375 0 0 1 .143.61 15.173 15.173 0 0 1-11.289 4.63m-4.114-1.223c.024 0 8.4 2.4 14.456-3.515L24.811 5.22a2.394 2.394 0 0 1-4.332-1.4c0-.065 0-.129.008-.194l-1.355-.5a18.794 18.794 0 0 1-10.607 4.1z"/>
            <path data-name="패스 20576" d="M11.692 4.169 8.08 2.948A2.018 2.018 0 1 1 4.271 1.66L.466.374C-.167 4.485 2.68 5.75 2.68 5.75l11.054 4.631a7.154 7.154 0 0 1-2.042-6.212" style="fill:#c2ffdb"/>
            <path data-name="패스 20577" d="M13.734 10.756a.387.387 0 0 1-.145-.029L2.534 6.1C2.5 6.079-.573 4.661.095.317A.377.377 0 0 1 .271.054.38.38 0 0 1 .586.019L4.391 1.3a.375.375 0 0 1 .223.506 1.643 1.643 0 1 0 3.1 1.048.378.378 0 0 1 .184-.24.374.374 0 0 1 .3-.026l3.612 1.221a.376.376 0 0 1 .247.434A6.714 6.714 0 0 0 14 10.115a.376.376 0 0 1-.265.641M.781.876C.455 4.284 2.732 5.362 2.833 5.408l9.65 4.042a7.516 7.516 0 0 1-1.211-5.027l-2.957-1A2.394 2.394 0 0 1 3.8 1.9z"/>
        </g>
    </g>
    <g data-name="그룹 20673">
        <g data-name="그룹 20672" style="clip-path:url(#cs3f8t8cqb)" transform="translate(0 4.146)">
            <path data-name="패스 20502" d="M8.724 1.457S4.518-.831.375 1.275l4.986 3.269A2.282 2.282 0 0 1 8.954 6.9l6.085 3.99.403-4.89z" style="fill:#c2ffdb"/>
            <path data-name="패스 20503" d="M15.039 11.263a.366.366 0 0 1-.206-.062L8.748 7.212a.377.377 0 0 1-.159-.4 1.909 1.909 0 0 0-2.4-2.275 1.948 1.948 0 0 0-.606.307.373.373 0 0 1-.43.014L.169 1.588A.374.374 0 0 1 .2.941a9.957 9.957 0 0 1 8.7.186.3.3 0 0 1 .03.019l6.718 4.547a.376.376 0 0 1 .164.342l-.4 4.884a.372.372 0 0 1-.209.306.379.379 0 0 1-.164.038M9.368 6.722l5.349 3.507.334-4.038-6.519-4.412a9.536 9.536 0 0 0-7.383-.445l4.209 2.759a2.66 2.66 0 0 1 3.927 1.523 2.667 2.667 0 0 1 .083 1.106"/>
            <path data-name="패스 20504" d="M22.548 10.613 8.725 1.457s9.445 5.256-.59 19.692L13.072 24a2.707 2.707 0 1 1 4.619 2.671l4 2.313s9.026-9.843.859-18.375" style="fill:#fff"/>
            <path data-name="패스 20505" d="M21.69 29.363a.374.374 0 0 1-.188-.051L17.5 27a.372.372 0 0 1-.182-.258.377.377 0 0 1 .082-.306 2.332 2.332 0 1 0-3.979-2.3.374.374 0 0 1-.54.194l-4.934-2.857a.378.378 0 0 1-.178-.242.374.374 0 0 1 .058-.3c3.741-5.382 5.188-10.066 4.3-13.922a8.586 8.586 0 0 0-3.24-5l-.372-.247a.375.375 0 0 1 .389-.641 5.172 5.172 0 0 1 .48.318L22.755 10.3a.462.462 0 0 1 .064.053c8.313 8.685-.76 18.787-.853 18.889a.376.376 0 0 1-.276.121m-3.454-2.806 3.375 1.952c1.292-1.52 7.9-10.037.694-17.607L11.584 3.8a9.518 9.518 0 0 1 1.272 3.027c.925 3.992-.482 8.768-4.182 14.2l4.226 2.445a3.048 3.048 0 0 1 1.834-1.486 3.083 3.083 0 0 1 3.5 4.571"/>
        </g>
    </g>
    <g data-name="그룹 20692">
        <g data-name="그룹 20691" style="clip-path:url(#ynxvnrr5hc)" transform="rotate(-31 84.89 -126.87)">
            <path data-name="패스 20545" d="M3.192 20.665a1.9 1.9 0 0 1 1.267-1.79V11.1l-3.238 2.737-.845 7.039s-.14 5.209 4.083 7.884v-6.305a1.9 1.9 0 0 1-1.267-1.79" style="fill:#c2ffdb"/>
            <path data-name="패스 20546" d="M4.459 29.134a.369.369 0 0 1-.2-.058C-.095 26.319 0 21.087 0 20.866l.847-7.074a.381.381 0 0 1 .131-.242l3.238-2.735a.371.371 0 0 1 .4-.054.375.375 0 0 1 .217.34v7.774a.374.374 0 0 1-.249.353 1.523 1.523 0 0 0 0 2.873.375.375 0 0 1 .25.354v6.3a.374.374 0 0 1-.375.375M1.576 14.028l-.827 6.893c0 .013-.069 4.5 3.335 7.12V22.7a2.273 2.273 0 0 1 0-4.076v-6.715z"/>
            <path data-name="패스 20547" d="M6.148 6.516A2.252 2.252 0 0 1 8.4 4.264V.374a10.318 10.318 0 0 0-8.025 6.9v13.6c.282-3.379 2.675-5.632 6.476-5.843a5.478 5.478 0 0 1 1.519.169l.031-.033v-6.4a2.253 2.253 0 0 1-2.253-2.251" style="fill:#fff"/>
            <path data-name="패스 20548" d="M.376 21.251H.36a.376.376 0 0 1-.36-.375V7.273a.371.371 0 0 1 .013-.093A10.79 10.79 0 0 1 8.323.008a.378.378 0 0 1 .314.076.372.372 0 0 1 .139.291v3.889a.375.375 0 0 1-.375.375 1.878 1.878 0 1 0 0 3.755.375.375 0 0 1 .375.375v6.4a.371.371 0 0 1-.106.26.453.453 0 0 1-.383.138 5.273 5.273 0 0 0-1.414-.163c-3.563.2-5.852 2.254-6.123 5.5a.376.376 0 0 1-.374.344M.751 7.325V18.18a6.942 6.942 0 0 1 6.08-3.52 4.978 4.978 0 0 1 1.2.091V9.118a2.628 2.628 0 0 1 0-5.2V.846a9.98 9.98 0 0 0-7.28 6.479"/>
        </g>
    </g>
    <g data-name="패스 8797" style="fill:#fff">
        <path d="M-1.102 2.919c.282-.565.54-1.218.59-1.786A4.229 4.229 0 0 0-.657-.38c.357.102.793.19 1.23.19.17 0 .334-.013.487-.04.485-.085 1.022-.28 1.475-.472-.24.512-.482 1.123-.541 1.597-.065.522.072 1.137.223 1.618a4.634 4.634 0 0 0-1.26-.182c-.139 0-.278.007-.414.021-.546.057-1.135.298-1.645.567z" style="stroke:none" transform="rotate(135 22.075 21.948)"/>
        <path d="M1.855-.046a5.582 5.582 0 0 1-.73.186C.95.17.764.186.572.186.32.186.07.159-.167.118c.045.314.062.667.03 1.048a4.235 4.235 0 0 1-.241 1.022 3.93 3.93 0 0 1 .882-.209 4.744 4.744 0 0 1 1.193.036c-.079-.381-.122-.79-.075-1.166.034-.274.12-.584.233-.895m1.531-1.481S2.48.027 2.366.94c-.114.915.5 2.223.5 2.223S1.827 2.596.581 2.725c-1.246.13-2.805 1.357-2.805 1.357S-.993 2.331-.885 1.1c.108-1.23-.432-2.118-.432-2.118S-.049-.416.995-.6c1.044-.183 2.391-.928 2.391-.928z" style="fill:#0f1f2e;stroke:none" transform="rotate(135 22.075 21.948)"/>
    </g>
    <g data-name="패스 8798" style="fill:#fff">
        <path d="M9.73 10.08c-1.366-.828-3.395-1.923-4.752-2.054a5.358 5.358 0 0 0-.51-.023c-1.388 0-2.89.482-3.755.812.262-1.034.652-2.924.44-4.35C.953 3.117.078 1.094-.494-.125.754.506 2.86 1.484 4.216 1.639c.227.026.473.039.73.039 1.18 0 2.42-.27 3.178-.47-.286.873-.678 2.42-.51 3.967.158 1.439 1.278 3.519 2.117 4.905z" style="stroke:none" transform="rotate(-133 27.3 -2.508)"/>
        <path d="M.276.667C.795 1.855 1.365 3.334 1.524 4.41c.18 1.21-.052 2.726-.29 3.822.897-.297 2.1-.604 3.234-.604.188 0 .372.008.546.025 1.062.102 2.471.737 3.699 1.404-.685-1.261-1.35-2.727-1.471-3.842-.14-1.282.089-2.562.338-3.489-.75.167-1.708.327-2.633.327-.272 0-.532-.014-.774-.042C3.072 1.885 1.512 1.247.276.667m-1.61-1.659s3.66 2.037 5.592 2.258C6.192 1.486 8.733.64 8.733.64s-.988 2.273-.745 4.494c.242 2.22 2.985 6.19 2.985 6.19S7.036 8.6 4.943 8.4C2.848 8.198.145 9.455.145 9.455S1.073 6.48.782 4.52C.492 2.56-1.334-.992-1.334-.992z" style="fill:#0f1f2e;stroke:none" transform="rotate(-133 27.3 -2.508)"/>
    </g>
    <g data-name="gun">
        <g data-name="그룹 20698" style="clip-path:url(#tu4tdw20td)" transform="rotate(-3 418.224 -533.512)">
            <path data-name="패스 20549" d="m19.315 13.19-7.19 13.193h11.51L30.8 12.312z" style="fill:#4e4f4f"/>
            <g data-name="그룹 20697">
                <g data-name="그룹 20696" style="clip-path:url(#4982f3scle)">
                    <path data-name="패스 20550" d="M23.635 26.758h-11.51a.374.374 0 0 1-.325-.558l7.189-13.192a.373.373 0 0 1 .3-.194l11.488-.879a.352.352 0 0 1 .34.166.369.369 0 0 1 .021.378l-7.169 14.074a.372.372 0 0 1-.334.2m-10.878-.75h10.649l6.759-13.271-10.618.812z"/>
                    <path data-name="패스 20551" d="m12.6 29.9-.477-3.518h11.51l7.167-14.07 3.866 1.119L26.513 29.9z" style="fill:#fff"/>
                    <path data-name="패스 20552" d="M26.513 30.275H12.6a.375.375 0 0 1-.371-.324l-.477-3.518a.374.374 0 0 1 .371-.426h11.283l7.062-13.866a.376.376 0 0 1 .439-.19l3.866 1.119a.375.375 0 0 1 .232.526l-8.156 16.47a.374.374 0 0 1-.336.209m-13.583-.75h13.351l7.853-15.859L31 12.757l-7.025 13.8a.374.374 0 0 1-.334.2H12.555z"/>
                    <path data-name="패스 20553" d="m12.6 29.9 37.33 26.168 13.912-.479L26.513 29.9z" style="fill:#ced8d3"/>
                    <path data-name="패스 20554" d="M49.93 56.443a.369.369 0 0 1-.215-.068L12.387 30.207a.375.375 0 0 1 .215-.682h13.911a.377.377 0 0 1 .213.066L64.054 55.28a.374.374 0 0 1-.2.683l-13.911.48zM13.79 30.275l36.252 25.414 12.65-.436L26.4 30.275z"/>
                    <path data-name="패스 20555" d="m63.842 55.588 6.4-15.51-35.573-26.647L26.514 29.9z" style="fill:#fff"/>
                    <path data-name="패스 20556" d="M63.842 55.963a.37.37 0 0 1-.213-.066L26.3 30.209a.374.374 0 0 1-.124-.475l8.155-16.47a.374.374 0 0 1 .561-.134l35.57 26.648a.372.372 0 0 1 .122.442l-6.4 15.511a.371.371 0 0 1-.24.217.353.353 0 0 1-.106.015M26.993 29.775l36.679 25.241L69.78 40.2 34.805 14z"/>
                    <path data-name="패스 20557" d="m35.82 43.578 4.8-.414-3.678 22.4-5.756.8z" style="fill:#fff"/>
                    <path data-name="패스 20558" d="M31.191 66.74a.371.371 0 0 1-.274-.118.376.376 0 0 1-.094-.331l4.63-22.791a.377.377 0 0 1 .335-.3l4.8-.414a.367.367 0 0 1 .308.119.377.377 0 0 1 .095.316l-3.678 22.4a.377.377 0 0 1-.318.311l-5.757.8a.291.291 0 0 1-.051 0m4.941-22.812-4.464 22.001 4.958-.688 3.554-21.654z"/>
                    <path data-name="패스 20559" d="m49.419 49.4-8.794-6.236-3.678 22.4 9.434 5.917z" style="fill:#fff"/>
                    <path data-name="패스 20560" d="M46.381 71.858a.377.377 0 0 1-.2-.058l-9.434-5.917a.376.376 0 0 1-.171-.378l3.678-22.4a.374.374 0 0 1 .587-.245l8.795 6.24a.373.373 0 0 1 .155.356l-3.038 22.077a.377.377 0 0 1-.213.289.366.366 0 0 1-.159.036m-9.023-6.478 8.731 5.477 2.928-21.283-8.117-5.756z"/>
                    <path data-name="패스 20561" d="m31.191 66.365 5.756-.8 9.434 5.916-5.6.639z" style="fill:#ced8d3"/>
                    <path data-name="패스 20562" d="M40.785 72.5a.374.374 0 0 1-.193-.053L31 66.687a.375.375 0 0 1 .141-.693l5.757-.8a.354.354 0 0 1 .251.053l9.434 5.917a.376.376 0 0 1-.157.691l-5.6.639h-.042m-8.49-5.906 8.574 5.145 4.406-.5-8.411-5.276z"/>
                    <path data-name="패스 20563" d="m14.743.374-5.438.55a2.785 2.785 0 0 1 .025.344 2.637 2.637 0 0 1-5.268.186l-3.687.373s2.352 14.9 14.368 19.041h10.1S14.4 12.672 14.743.374" style="fill:#fff"/>
                    <path data-name="패스 20564" d="M24.84 21.243h-10.1a.364.364 0 0 1-.122-.021C2.532 17.052.029 2.038 0 1.887a.374.374 0 0 1 .333-.432l3.687-.373a.382.382 0 0 1 .279.086.367.367 0 0 1 .132.261 2.262 2.262 0 0 0 4.518-.161 2.2 2.2 0 0 0-.016-.294.373.373 0 0 1 .334-.422L14.7 0a.4.4 0 0 1 .3.1.376.376 0 0 1 .12.286c-.333 11.96 9.851 20.107 9.953 20.188a.375.375 0 0 1-.231.67m-10.034-.75h9.029c-2.4-2.188-9.555-9.57-9.474-19.7L9.7 1.261v.007a3.012 3.012 0 0 1-5.964.6l-2.921.3C1.3 4.515 4.273 16.816 14.806 20.493"/>
                    <path data-name="패스 20565" d="m14.743.374-5.438.55a2.785 2.785 0 0 1 .025.344 2.637 2.637 0 0 1-5.268.186l-3.687.373s2.352 14.9 14.368 19.041h10.1S14.4 12.672 14.743.374" style="fill:#fff"/>
                    <path data-name="패스 20566" d="M24.84 21.243h-10.1a.364.364 0 0 1-.122-.021C2.532 17.052.029 2.038 0 1.887a.374.374 0 0 1 .333-.432l3.687-.373a.382.382 0 0 1 .279.086.367.367 0 0 1 .132.261 2.262 2.262 0 0 0 4.518-.161 2.2 2.2 0 0 0-.016-.294.373.373 0 0 1 .334-.422L14.7 0a.4.4 0 0 1 .3.1.376.376 0 0 1 .12.286c-.333 11.96 9.851 20.107 9.953 20.188a.375.375 0 0 1-.231.67m-10.034-.75h9.029c-2.4-2.188-9.555-9.57-9.474-19.7L9.7 1.261v.007a3.012 3.012 0 0 1-5.964.6l-2.921.3C1.3 4.515 4.273 16.816 14.806 20.493"/>
                    <g data-name="그룹 20695" style="opacity:.76;isolation:isolate">
                        <g data-name="그룹 20694">
                            <g data-name="그룹 20693" style="clip-path:url(#rhfbvn411f)">
                                <path data-name="패스 20567" d="M15.93 8.068A21.978 21.978 0 0 1 14.743.374l-5.438.55a2.6 2.6 0 0 1 .025.344 2.637 2.637 0 0 1-5.267.187l-3.688.373a30.6 30.6 0 0 0 2.175 6.89z" style="fill:#c2ffdb"/>
                            </g>
                        </g>
                    </g>
                    <path data-name="패스 20568" d="M2.856 9.1a.375.375 0 0 1-.027-.749l1-.073a.373.373 0 0 1 .4.346.376.376 0 0 1-.347.4l-1 .073h-.026"/>
                    <path data-name="패스 20569" d="M6.35 8.845a.375.375 0 0 1-.027-.745l1.665-.122a.371.371 0 0 1 .4.346.376.376 0 0 1-.347.4l-1.664.122H6.35m4.162-.305a.375.375 0 0 1-.027-.749l1.665-.122a.379.379 0 0 1 .4.347.374.374 0 0 1-.347.4l-1.664.121h-.028"/>
                    <path data-name="패스 20570" d="M14.674 8.235a.375.375 0 0 1-.027-.749l1-.072a.375.375 0 1 1 .055.748l-1 .072h-.028"/>
                    <path data-name="패스 20571" d="M24.84 21.243h-10.1a.364.364 0 0 1-.122-.021C2.532 17.052.029 2.038 0 1.887a.374.374 0 0 1 .333-.432l3.687-.373a.382.382 0 0 1 .279.086.367.367 0 0 1 .132.261 2.262 2.262 0 0 0 4.518-.161 2.2 2.2 0 0 0-.016-.294.373.373 0 0 1 .334-.422L14.7 0a.4.4 0 0 1 .3.1.376.376 0 0 1 .12.286c-.333 11.96 9.851 20.107 9.953 20.188a.375.375 0 0 1-.231.67m-10.034-.75h9.029c-2.4-2.188-9.555-9.57-9.474-19.7L9.7 1.261v.007a3.012 3.012 0 0 1-5.964.6l-2.921.3C1.3 4.515 4.273 16.816 14.806 20.493"/>
                    <path data-name="패스 20572" d="M37.175 26.084a1 1 0 0 1 1.349-.488 1.681 1.681 0 0 1 .625.446 1.851 1.851 0 0 1 .416.784l.93-.093a3.735 3.735 0 0 0-.33-.836 2.77 2.77 0 0 0-.786-.9 4.721 4.721 0 0 0-.412-.28 3.423 3.423 0 0 0-.428-.223 1.662 1.662 0 0 0-.4-.123 1.887 1.887 0 0 0-1.111.137 1.924 1.924 0 0 0-.849.84 2.321 2.321 0 0 0-.334 1.231 2.688 2.688 0 0 0 .344 1.209 2.066 2.066 0 0 0 .26.363 4.077 4.077 0 0 0 .353.355q.193.171.392.314a2.832 2.832 0 0 0 .381.236 2.174 2.174 0 0 0 .671.232 2.4 2.4 0 0 0 .794-.013l-.3-1.014a.908.908 0 0 1-.375.016 1.625 1.625 0 0 1-.375-.11 2.048 2.048 0 0 1-.357-.2 1.934 1.934 0 0 1-.3-.27 1.208 1.208 0 0 1-.207-.321 1.438 1.438 0 0 1-.113-.846 1.294 1.294 0 0 1 .16-.443m7.058 4.089a2.213 2.213 0 0 0-.061-.9 2.657 2.657 0 0 0-.425-.854 3.6 3.6 0 0 0-.782-.77 3.235 3.235 0 0 0-.932-.5 1.916 1.916 0 0 0-.85-.088 1.518 1.518 0 0 0-.738.3 2.255 2.255 0 0 0-.587.7 2.577 2.577 0 0 0-.321.895 2.107 2.107 0 0 0 .054.894 2.535 2.535 0 0 0 .418.845 3.644 3.644 0 0 0 .78.766 3.325 3.325 0 0 0 .934.5 1.954 1.954 0 0 0 .857.1 1.575 1.575 0 0 0 .745-.3 2.2 2.2 0 0 0 .594-.693 2.464 2.464 0 0 0 .314-.9m-1.34.139a1.066 1.066 0 0 1-.728.577 1.121 1.121 0 0 1-.889-.246 1.39 1.39 0 0 1-.562-.827 1.339 1.339 0 0 1 .171-.989 1.2 1.2 0 0 1 .317-.372 1.051 1.051 0 0 1 .4-.191 1 1 0 0 1 .444.011 1.256 1.256 0 0 1 .454.221 1.418 1.418 0 0 1 .356.378 1.352 1.352 0 0 1 .189.457 1.5 1.5 0 0 1 .013.5 1.346 1.346 0 0 1-.166.484m5.861 1.741-1.012-.754-1.339 2.34a.512.512 0 0 1-.461.3.968.968 0 0 1-.559-.208 1.079 1.079 0 0 1-.38-.484.67.67 0 0 1 .068-.6l1.332-2.333-1.015-.751-1.377 2.412a1.516 1.516 0 0 0-.206.66 1.662 1.662 0 0 0 .1.668 2.418 2.418 0 0 0 .385.647 3.5 3.5 0 0 0 .635.594 3.227 3.227 0 0 0 .737.42 1.829 1.829 0 0 0 .679.14 1.207 1.207 0 0 0 .587-.162 1.253 1.253 0 0 0 .452-.478zm3.316 4.271a1.421 1.421 0 0 0 .078-1.281 3.189 3.189 0 0 0-1.134-1.319L49.4 32.531l-2.076 3.637 1.01.746.632-1.107.719.531a2.947 2.947 0 0 0 .762.421 1.88 1.88 0 0 0 .683.118 1.208 1.208 0 0 0 .553-.159 1.053 1.053 0 0 0 .387-.394m-.976-.749a.453.453 0 0 1-.348.219.787.787 0 0 1-.571-.2l-.764-.565.551-.965.776.573a.994.994 0 0 1 .385.484.549.549 0 0 1-.029.456m4.86 4.4a2.485 2.485 0 0 0 .314-.9 2.217 2.217 0 0 0-.061-.9 2.687 2.687 0 0 0-.425-.854 3.6 3.6 0 0 0-.782-.77 3.235 3.235 0 0 0-.932-.5 1.932 1.932 0 0 0-.85-.088 1.528 1.528 0 0 0-.738.305 2.253 2.253 0 0 0-.587.695 2.575 2.575 0 0 0-.321.9 2.1 2.1 0 0 0 .054.893 2.549 2.549 0 0 0 .418.846 3.6 3.6 0 0 0 .78.765 3.311 3.311 0 0 0 .934.5 1.954 1.954 0 0 0 .857.1 1.579 1.579 0 0 0 .745-.3 2.2 2.2 0 0 0 .594-.693m-1.027-.759a1.063 1.063 0 0 1-.727.577 1.12 1.12 0 0 1-.889-.246 1.39 1.39 0 0 1-.562-.827 1.339 1.339 0 0 1 .171-.989 1.222 1.222 0 0 1 .317-.372 1.051 1.051 0 0 1 .4-.191 1 1 0 0 1 .444.011 1.272 1.272 0 0 1 .454.221 1.418 1.418 0 0 1 .356.378 1.352 1.352 0 0 1 .189.457 1.505 1.505 0 0 1 .013.5 1.33 1.33 0 0 1-.167.484m4.974 1.074-1.249 2.186-.241-3.287-.987-.73-2.075 3.637 1 .742 1.289-2.26.251 3.4.935.692 2.077-3.638z" style="fill:#222"/>
                </g>
            </g>
        </g>
    </g>
</svg>
