<svg xmlns="http://www.w3.org/2000/svg" width="422.258" height="380.109" viewBox="0 0 422.258 380.109">
    <defs>
        <linearGradient id="z5vf19s3za" x1=".384" x2=".554" y1=".999" y2=".061" gradientUnits="objectBoundingBox">
            <stop offset="0" stop-color="#3ddb87"/>
            <stop offset="1" stop-color="#d0ffe6"/>
        </linearGradient>
    </defs>
    <path fill="url(#z5vf19s3za)" d="M248.848 7.843a145.089 145.089 0 0 1-115.223 0A95.683 95.683 0 0 0 .01 94.611c-.746 53.633 42.374 97.346 95.67 97.346a95.114 95.114 0 0 0 37.62-7.707 146.851 146.851 0 0 1 115.862 0 95.116 95.116 0 0 0 37.626 7.707c53.3 0 96.415-43.712 95.671-97.345A95.463 95.463 0 0 0 287.563 0h-.764a95.129 95.129 0 0 0-37.951 7.843" opacity="0.663" transform="rotate(-36 345.844 112.34)"/>
</svg>
