<svg xmlns="http://www.w3.org/2000/svg" width="192" height="46" viewBox="0 0 192 46">
  <defs>
    <style>
      .cls-1 {
        fill: #0f1f2e;
        stroke: #fff;
        stroke-width: 2px;
      }

      .cls-2 {
        fill: #fff;
      }
    </style>
  </defs>
  <g id="state" transform="translate(1 1)">
    <rect id="사각형_5856" data-name="사각형 5856" class="cls-1" width="190" height="44" rx="8"/>
    <path id="합치기_157" data-name="합치기 157" class="cls-2" d="M174.568,33.254a1.25,1.25,0,1,1,1.25,1.25A1.25,1.25,0,0,1,174.568,33.254ZM-2,33.254A1.25,1.25,0,0,1-.75,32,1.25,1.25,0,0,1,.5,33.254,1.25,1.25,0,0,1-.75,34.5,1.25,1.25,0,0,1-2,33.254Zm176.567-32a1.25,1.25,0,1,1,1.25,1.25A1.25,1.25,0,0,1,174.568,1.25ZM-2,1.25A1.25,1.25,0,0,1-.75,0,1.25,1.25,0,0,1,.5,1.25,1.25,1.25,0,0,1-.75,2.5,1.25,1.25,0,0,1-2,1.25Z" transform="translate(6.815 5.047)"/>
  </g>
</svg>
