<svg xmlns="http://www.w3.org/2000/svg" xmlns:xlink="http://www.w3.org/1999/xlink" width="328" height="160" viewBox="0 0 328 160">
  <defs>
    <style>
      .cls-1 {
        fill: #f5f5f5;
      }

      .cls-13, .cls-15, .cls-17, .cls-2, .cls-6, .cls-8 {
        fill: #fff;
      }

      .cls-2 {
        stroke: #707070;
      }

      .cls-3 {
        fill: #3ddb87;
      }

      .cls-4 {
        clip-path: url(#clip-path);
      }

      .cls-5 {
        clip-path: url(#clip-path-2);
      }

      .cls-6 {
        opacity: 0;
      }

      .cls-7 {
        clip-path: url(#clip-path-3);
      }

      .cls-10, .cls-11, .cls-12, .cls-15, .cls-17, .cls-8, .cls-9 {
        stroke: #0f1f2e;
      }

      .cls-10, .cls-11, .cls-12, .cls-8, .cls-9 {
        stroke-linecap: round;
      }

      .cls-10, .cls-12, .cls-8, .cls-9 {
        stroke-linejoin: round;
      }

      .cls-9 {
        fill: #576877;
      }

      .cls-10 {
        fill: #7a7ea5;
      }

      .cls-11, .cls-12 {
        fill: none;
      }

      .cls-11, .cls-17 {
        stroke-miterlimit: 10;
      }

      .cls-13, .cls-14 {
        fill-rule: evenodd;
      }

      .cls-16, .cls-20 {
        fill: #0f1f2e;
      }

      .cls-18 {
        fill: #dcfceb;
      }

      .cls-19 {
        fill: #a6acb2;
      }

      .cls-19, .cls-20 {
        font-size: 45px;
        font-family: BlackHanSans-Regular, Black Han Sans;
        letter-spacing: -0.02em;
      }
    </style>
    <clipPath id="clip-path">
      <rect id="사각형_6405" data-name="사각형 6405" class="cls-1" width="328" height="160" rx="16" transform="translate(23 431)"/>
    </clipPath>
    <clipPath id="clip-path-2">
      <rect id="사각형_5804" data-name="사각형 5804" class="cls-2" width="205" height="148" rx="16" transform="translate(-19 313.152)"/>
    </clipPath>
    <clipPath id="clip-path-3">
      <path id="패스_10499" data-name="패스 10499" class="cls-3" d="M0,0H179.972V173.187H0Z" transform="translate(0)"/>
    </clipPath>
  </defs>
  <g id="배너2" class="cls-4" transform="translate(-23 -431)">
    <rect id="사각형_4591" data-name="사각형 4591" class="cls-1" width="328" height="160" rx="16" transform="translate(23 431)"/>
    <g id="topimg" class="cls-5" transform="translate(164 127.848)">
      <g id="topimg-2" data-name="topimg" transform="translate(32.529 307.194)">
        <path id="패스_11286" data-name="패스 11286" class="cls-6" d="M0,0H182V157.209H0Z" transform="translate(1.465 0)"/>
        <g id="그룹_15953" data-name="그룹 15953" transform="translate(13.116 29.578)">
          <g id="그룹_15917" data-name="그룹 15917" transform="translate(31.456 38.09)">
            <path id="패스_9483" data-name="패스 9483" class="cls-8" d="M261.1,547.57v-9.621l-16.532-7.815V547.57c-10.515,4.413-15.423,19.761-13.75,31.583v16.585l51.466-6.884-2.291-24.414C276.734,553.134,272.427,548.893,261.1,547.57Z" transform="translate(-204.94 -530.134)"/>
            <path id="패스_9484" data-name="패스 9484" class="cls-9" d="M205.068,508.237c-1.545-.459-2.443-1.349-5.758-2.2a50.864,50.864,0,0,0-7.5-1.2l.068.158c-.2-.028-.4-.059-.6-.083a3.674,3.674,0,0,1-1.7,3.513c-2.978,1.148-5.636.409-8.133-.187s-6.292-4.031-6.343-4.009l-2.406,2.562a36.082,36.082,0,0,1-4.648,3.777,20.813,20.813,0,0,0-7.917,11.665c-.973,4.1.25,4.742-2.2,5.736s-7.546-2.492-7.611-1.757c-.516,1.882-13.638,1.757-13.638,1.757s2.593,8.744,6.1,14.479a40.571,40.571,0,0,0,18.989,16.706l6.946,3.517s-.279,10.537,3.239,10.686L221.96,576.2s-.874.695-1.559-2.841l-2.632-7.679s-3.961-25.138-4.167-32.63C242.794,525.677,210.348,509.808,205.068,508.237Z" transform="translate(-136.677 -487.68)"/>
            <path id="패스_9496" data-name="패스 9496" class="cls-10" d="M239.755,762.317" transform="translate(-201.494 -699.321)"/>
            <path id="패스_9503" data-name="패스 9503" class="cls-11" d="M438.675,632.716c.5,3.019.906,9.2.067,11.381" transform="translate(-350.361 -604.937)"/>
            <path id="패스_9504" data-name="패스 9504" class="cls-11" d="M454.008,569.806c1.678-1.006,8.388.5,7.381,4.026-.839,2.684-5.032-1.342-6.71-2.181" transform="translate(-372.916 -566.752)"/>
            <path id="패스_9506" data-name="패스 9506" class="cls-11" d="M275.764,566.269c5.536,4.865,19.931,9.5,23.695-2.082" transform="translate(-239.265 -545.153)"/>
            <path id="패스_9512" data-name="패스 9512" class="cls-12" d="M0,.087C6.878-.752,12.078,4.616,15.1,10.32c2.013,4.194.671,6.039-3.523,3.523" transform="matrix(0.819, 0.574, -0.574, 0.819, 34.361, 48.92)"/>
          </g>
          <path id="Path" class="cls-13" d="M26.17,12.408c4.9,0,10.79,2.342,11.29,2.389h.014q.395,0,3.086,2.315l-1.943,3.732.157.148c.752.71,1.395,1.358,1.9,1.869,4.14,4.168,5.9,20.192,4.925,25.9S41.8,60.394,33.388,60.394s-17.774-4.982-19.216-6.534a4.121,4.121,0,0,0-3.239-1.487l-.147-.183-.176-.025a11.042,11.042,0,0,1-3.565-.955c-1.4-.781-2.944-4.89-2.944-5.795S1.8,38,1.752,37.313v-.019c0-.577-3.007-3.227-3.007-4.069S-.32,33.1.287,30.132l.176-.871c.645-3.158,1.768-8.968,6.582-11.24C12.335,15.524,21.215,12.408,26.17,12.408Z" transform="translate(55.102 -6.268)"/>
          <path id="_-Ink" data-name="🖍-Ink" class="cls-14" d="M3.931,17.005C6.562,14.255,21.5,10,29.06,10.9l.227.029a13.552,13.552,0,0,1,1.784.344,15.521,15.521,0,0,1,5.422,2.2c1.308.9,5.434,2.376,4.218,4.737a3.449,3.449,0,0,1,.314,2.71,3.211,3.211,0,0,1-.243.823,24.1,24.1,0,0,1,2.344,4.489,47.1,47.1,0,0,1,1.849,11.6c.327,7.347-.491,16.122-6.988,20.873A11.678,11.678,0,0,1,23.5,58.087c-.25-.292.267-1.05.451-.986,8.086,6.122,19.82.69,19.63-16.369l0-.334c-.056-5.455-.522-11.061-2.813-16a14.13,14.13,0,0,0-.746-1.386q-.284-.5-.609-.981a9.143,9.143,0,0,1-1.8-.328c-.2-.051-.4-.107-.605-.172-2.937.158-5.809.329-8.754.492l-.92.056c-2.5.158-5.075.411-7.089,1.931-1.976,1.384-1.985,4.112-3.676,5.631-2.412,1.612-2.429,3.065-2.894,5.441.034,1.791,1.3,4.392-1.018,5.146.39.548-.154.285-.2.093l-.012,0c.348.637-.163.236-.209.031a.2.2,0,0,1-.082-.054c.35.558-.216.167-.182.066a2.794,2.794,0,0,0-3.053-.913.053.053,0,0,1-.083.02c-4.177.891-3.1,9.407,1.181,8.584.183-.037.179.05.215.058-.1-.256.18-.152.177-.1h.017c.013,0,.008,0,.018,0-.1-.523.442.235.4.266a.14.14,0,0,1,.051-.017l-.019-.05c-.089-.234-.082-.137-.081-.271-.067-.166-.072-.093-.056-.2.236-.18.305.366.384.406-.135-.185-.028-.336.1-.236a17.582,17.582,0,0,0,3.819,5.351c.176.137.354.271.539.4.685.587,2.8,2.056,2.693,2.008-.1-.029.031.561,0,.547a11.914,11.914,0,0,1-1.294-.188c-.237-.17-.477-.337-.715-.506a5.488,5.488,0,0,1-.647-.446,14.007,14.007,0,0,1-3.551-3.239c-1.605,1.369-4.814.061-6.8-1.01a5.485,5.485,0,0,1-2.624-4.638c-.371-2.57-2.5-3.45-2.356-9.09H.279a1.123,1.123,0,0,1-.224-.091,1.123,1.123,0,0,1-.207-.125l-.08-.109h0a.678.678,0,0,1-.107-.07l-.015.019c-.047.055-.015-.028-.013-.045L-.5,36.5c-.329-.442-.689-.937-.983-1.334l-.009.016c-.007.012-.01.021-.007.025a8.46,8.46,0,0,1-1.539-3.339,5.784,5.784,0,0,1,.057-2.633C-2.178,26.344.463,19.807,3.931,17.005Zm25.1-4.652c-5.126-.434-10.167.678-15.058,2.024l-.337.1c-2.781.782-5.722,1.485-8.072,3.158C2.275,20.107.58,24.048-.9,27.686A6.633,6.633,0,0,0,.416,35.324a30.52,30.52,0,0,1,1.088-5.5c.113-.282.027-.375.27-.411C2.14,34.277.334,37.873,3.909,43.641c1.551,2.722-.244,4.713,4.135,6.145l.119.045a5.24,5.24,0,0,0,2.8.417l-.08-.128c-.082-.132-.106-.2.012-.253,0-.006-.008-.013-.012-.02q-.144-.268-.278-.542c-.036.012-.072.02-.109.03.024.044.027.088-.04.1a1.932,1.932,0,0,1-.741.1l-.054,0a2.538,2.538,0,0,1-.627-.116c-.053-.009-.107-.017-.16-.028A3.718,3.718,0,0,1,7.453,48.7C3.4,46.437,3.822,38.727,8.813,38c.1-4.854,2.447-13.044,6.338-17.67,3.517-4.255,13.119-6.1,19.8-5.449l.292.1a28.233,28.233,0,0,1,3.044.752,9.345,9.345,0,0,0-2.446-1.22,17.84,17.84,0,0,0-5.61-2A5.6,5.6,0,0,0,29.027,12.353ZM8.585,41.9c.268-.144.238,0,.3-.045,1.93-.155,4.012,1.509,5.091,2.9-.085.087-.316-.171-.356-.212a.05.05,0,0,1-.019.012l.03.042c.437.618-.43-.109-.511-.259a.065.065,0,0,1-.045.009c.069.066.279.24.315.363l.056.046c.525.443.481.775-.115.147a.093.093,0,0,1,.01.077l.021.013c.293.2.534.764-.078.187.064.421-.607-.393-.628-.387A9.064,9.064,0,0,0,8.33,42.9l-.05-.006c-.267-.034-.393-.112-.3-.284-.329-.077-.252-.237-.1-.231-.232-.15-.023-.294.111-.238-.093-.252.279-.084.313-.119C8.5,41.729,8.553,41.973,8.585,41.9ZM4.538,26.257c.927-.334,3.666.667,3.447,1.993a.647.647,0,0,1-.862.307L6.728,28.3c-.686-.453-1.305-.849-2.042-1.244C4.285,26.855,4.113,26.439,4.538,26.257Zm5.275-1.97-.358-.229c-1.932-1.245-4.664-3.133.181-1.18.552.233,1.286.371,1.587.889C11.7,24.72,10.451,24.784,9.813,24.286Zm.217-5.588c-.155-.579,1.774.1,2.336.28l.086.032a2.994,2.994,0,0,1,1.5.851c.383.642-.392.774-.872.485C12.1,19.712,11.016,19.234,10.031,18.7ZM14.937,16c-1.086-1.168,1.82-.049,2.256.261l.012.009a.5.5,0,0,1-.046.853C16.291,17.138,15.652,16.426,14.937,16Zm4.942-1.28c-1.726-1.222.548-.641,1.338-.162C21.755,15.025,21.2,15.814,19.879,14.719Z" transform="translate(56.581 -5.271)"/>
          <g id="face_Smiling" data-name="face/Smiling" transform="translate(78.744 27.212)">
            <path id="_-Ink-2" data-name="🖍-Ink" class="cls-14" d="M20.883,28.072a4.4,4.4,0,0,1-1.851-1.4.832.832,0,0,1-.173-.654.942.942,0,0,1,.373-.591.9.9,0,0,1,.669-.178.839.839,0,0,1,.565.368l.033.045a2.907,2.907,0,0,0,1.069.883,2.441,2.441,0,0,0,1.323.229,3.564,3.564,0,0,0,2.156-1.217c.081-.081.162-.165.243-.25a.381.381,0,0,1,.2-.153.447.447,0,0,1,.5.167.4.4,0,0,1,.069.264,2.724,2.724,0,0,1-.917,1.73,3.98,3.98,0,0,1-4.257.759ZM23.5,19.084c.817.489,2.063,1.63,1.183,2.843-1.035,1.069-2.525-.157-3.259-.711-.681-.43-1.446.676-.814,1.177,5.306,3.869,7.459-3.181,3.3-3.884C23.461,18.431,23.291,18.932,23.5,19.084ZM14,15.887c.09-1.1,1.8-1.354,1.967-.262a4.412,4.412,0,0,1-.475,2.758.837.837,0,0,1-1.584-.317A8.763,8.763,0,0,1,14,15.887ZM26.991,15.4a.917.917,0,0,1,.993-.4c1.286.37.907,2.169.455,3.044a.9.9,0,0,1-1.4.177,2.109,2.109,0,0,1-.121-2.718A.925.925,0,0,1,26.991,15.4Zm-11.884-5.09.2-.035c.629-.107,1.41-.21,1.855.288a.715.715,0,0,1,0,1.007c-.558.444-1.174.272-1.842.31a7.434,7.434,0,0,0-1.61.27,11.007,11.007,0,0,0-3.106,1.582c-.13.086-.264-.078-.2-.2a6.378,6.378,0,0,1,2.8-2.57A7,7,0,0,1,15.107,10.309Z" transform="translate(-10.389 -7.997)"/>
            <path id="_-Ink-3" data-name="🖍-Ink" class="cls-14" d="M1.036.02l.155.032c1.692.355,3.891,1.061,4.7,2.7.031.232,0,.281-.027.314l-.009.011a.216.216,0,0,1-.14.1l-.086-.021a4.933,4.933,0,0,1-.94-.365L4.383,2.64a8.531,8.531,0,0,0-1.09-.462,13.03,13.03,0,0,0-2.482-.55,1.033,1.033,0,0,1-.5-.188.744.744,0,0,1-.28-.419A.739.739,0,0,1,.117.394.793.793,0,0,1,.508.062.931.931,0,0,1,1.036.02Z" transform="matrix(0.966, -0.259, 0.259, 0.966, 15.046, 1.528)"/>
          </g>
          <g id="그룹_15930" data-name="그룹 15930" transform="translate(60.032 50.453)">
            <path id="패스_9516" data-name="패스 9516" class="cls-8" d="M599.752,549.9l.5-9.526,13.083.684-.5,9.526a25.725,25.725,0,0,1,17.841,25.839L629.433,600.2l-51.361-2.684,1.243-23.779A25.726,25.726,0,0,1,599.752,549.9Z" transform="translate(-540.284 -540.37)"/>
            <path id="패스_9517" data-name="패스 9517" class="cls-8" d="M513.923,643.5c-.891-.562-1.791-1.111-2.631-1.732-1.767-1.307-3.548-2.618-5.239-4.022a21.48,21.48,0,0,1-2.927-2.945c-3.382-4.15-5.036-9.566-1.941-14.6,2.833-4.609,7.105-6.268,12.4-6.321,5.72-.057,7.818-13.853,11.87-17.781,2.208-3.018,4.446-5.736,7.719-7.55,0,0,3.4,2.7,10.156,2.982s16.859-1.87,16.859-1.87c4.38,2.836,2.622-.719,8.271,9.065,8.579,12.984,6.093,11.313,4.332,27.752,0,0-2.773,18.473-7.641,25.408s-8.952,6.484-12.852,6.846l-34.549-6.846c-.22-.042.22-5.06,0-5.322A15.855,15.855,0,0,0,513.923,643.5Z" transform="translate(-481.517 -576.551)"/>
            <path id="패스_9529" data-name="패스 9529" class="cls-8" d="M664.621,570.849" transform="translate(-605.055 -563.18)"/>
            <path id="패스_9535" data-name="패스 9535" class="cls-12" d="M741.866,664.9c-.5,2.349,1.342,5.579,0,8.263-1.51,3.019-3.355,6.542-3.858,9.9" transform="translate(-661.932 -631.96)"/>
            <path id="패스_9537" data-name="패스 9537" class="cls-12" d="M703.507,820.976a19.749,19.749,0,0,1,3.145-1.761" transform="translate(-639.371 -751.007)"/>
            <path id="패스_9538" data-name="패스 9538" class="cls-12" d="M724.507,827.1a11.376,11.376,0,0,0,3.4-1.384" transform="translate(-655.087 -755.872)"/>
            <path id="패스_9539" data-name="패스 9539" class="cls-12" d="M740.507,844.973a13.692,13.692,0,0,1,3.145-1.258" transform="translate(-667.061 -769.342)"/>
            <path id="패스_9540" data-name="패스 9540" class="cls-12" d="M705.507,814.157c2.642-1.761,9.436,1.258,11.449,4.026" transform="translate(-640.868 -746.83)"/>
            <path id="패스_9541" data-name="패스 9541" class="cls-12" d="M747.507,772.038c1.258-1.384,9.31-5.661,9.058-.881-.126,2.516-5.284,2.139-6.668,1.761" transform="translate(-672.3 -709.482)"/>
            <path id="패스_9542" data-name="패스 9542" class="cls-12" d="M710.966,755.215c-3.4,2.894-2.894,7.674-7.045,10.065-2.013,1.132-4.4,2.139-5.913,3.9" transform="translate(-636.558 -702.459)"/>
            <path id="패스_9543" data-name="패스 9543" class="cls-12" d="M686.02,817.215c-.881.252-1.636.4-2.013,1.033" transform="translate(-624.778 -749.51)"/>
            <path id="패스_9544" data-name="패스 9544" class="cls-12" d="M585.007,676.715a10.842,10.842,0,0,1,.755,4.277" transform="translate(-545.474 -642.408)"/>
            <path id="패스_9545" data-name="패스 9545" class="cls-12" d="M563.34,699.382c3.187,1.678,1.174,6.039,3.187,7.884,1.677,1.677,2.013-1.51,1.845-3.019" transform="translate(-529.259 -659.371)"/>
            <path id="패스_9546" data-name="패스 9546" class="cls-12" d="M578.183,743.382c-1.006,5.7-.5,11.742-1.51,17.446" transform="translate(-539.237 -692.3)"/>
            <path id="패스_9548" data-name="패스 9548" class="cls-12" d="M636.347,591.383a27.853,27.853,0,0,1-1.006,2.684" transform="translate(-583.143 -578.547)"/>
            <path id="패스_9549" data-name="패스 9549" class="cls-12" d="M652.51,591.383c-.168.839-.336,1.845-.5,2.684" transform="translate(-595.615 -576.592)"/>
            <path id="패스_9550" data-name="패스 9550" class="cls-12" d="M672.175,593.383a14.42,14.42,0,0,0-.168,2.684" transform="translate(-610.583 -577.437)"/>
            <path id="패스_9551" data-name="패스 9551" class="cls-12" d="M690.007,590.728a17.275,17.275,0,0,1,.168,3.184" transform="translate(-623.402 -574.798)"/>
            <path id="패스_9552" data-name="패스 9552" class="cls-12" d="M710.007,594.716v2.852" transform="translate(-638.37 -579.738)"/>
            <path id="패스_9553" data-name="패스 9553" class="cls-12" d="M728.007,595.383v2.684" transform="translate(-652.492 -580.889)"/>
            <g id="그룹_15929" data-name="그룹 15929" transform="translate(0 25.864)">
              <g id="그룹_15928" data-name="그룹 15928" transform="translate(0 0)">
                <g id="그룹_15921" data-name="그룹 15921">
                  <path id="패스_9555" data-name="패스 9555" class="cls-15" d="M458.32,659.655c.729-1.695-1.247-5.483-1.765-7.294a23.839,23.839,0,0,1-.783-6.124c-.038-1.52-.634-3.5-2.126-3-1.372.445-2.078,1.889-2.715,3.457a9.379,9.379,0,0,1-1.222,2.556,3.984,3.984,0,0,1-1.037.886c-2.065,1.037-3.207.253-5.383,0a49.16,49.16,0,0,0-6.845-.11c-5.614.135-7.128,2.828-.362,3.225.672.027,3.672-.2,4.343-.174a63.3,63.3,0,0,0-10.019,1.258c-2.4.541-3.159,1.941-.858,2.969-2.865.272-1.421,1.973-.074,2.6-.358-.168-.472,1.673-.137,1.989a6.972,6.972,0,0,0,2.521,1.057,42.522,42.522,0,0,0,7.017,1.262,22.98,22.98,0,0,1,6.081,1.814,6.115,6.115,0,0,0,4.772.555c1.871-.433,7.686-.13,8.593-6.677" transform="translate(-427.892 -643.159)"/>
                </g>
                <g id="그룹_15923" data-name="그룹 15923" transform="translate(18.762 9.279)">
                  <g id="그룹_15922" data-name="그룹 15922">
                    <path id="패스_9557" data-name="패스 9557" class="cls-16" d="M504.894,680.135a5.256,5.256,0,0,0-2.29,3.362,8.612,8.612,0,0,0,.249,4.118c.221.765,1.48.539,1.248-.237-.643-2.209-.658-4.854,1.416-6.17.631-.42.007-1.5-.623-1.073Z" transform="translate(-502.455 -680.037)"/>
                  </g>
                </g>
                <g id="그룹_15925" data-name="그룹 15925" transform="translate(0.393 12.783)">
                  <g id="그룹_15924" data-name="그룹 15924">
                    <path id="패스_9558" data-name="패스 9558" class="cls-16" d="M430.142,695.8c1.675-.113,3.341-.331,4.994-.5a22.66,22.66,0,0,1,4.669-.165.566.566,0,1,0,.136-1.122,23.485,23.485,0,0,0-4.836.224c-1.665.183-3.343.423-5.031.554a.675.675,0,0,0-.617.6c.018.3.332.427.686.4Z" transform="translate(-429.455 -693.96)"/>
                  </g>
                </g>
                <g id="그룹_15927" data-name="그룹 15927" transform="translate(1.166 15.548)">
                  <g id="그룹_15926" data-name="그룹 15926">
                    <path id="패스_9559" data-name="패스 9559" class="cls-16" d="M433.251,706.794a60.154,60.154,0,0,1,9.214-.713c.353-.015.675-.185.71-.52a.586.586,0,0,0-.584-.609,61.671,61.671,0,0,0-9.443.812c-.357.07-.647.309-.621.6a.6.6,0,0,0,.724.429Z" transform="translate(-432.525 -704.951)"/>
                  </g>
                </g>
              </g>
            </g>
          </g>
          <g id="head_Medium-Bangs-2" data-name="head/Medium-Bangs-2" transform="translate(107.883 12.489)">
            <path id="_-Background" data-name="🎨-Background" class="cls-13" d="M-10.569,20.891c.23-.581.637-1.31,1.316-1.339.526-1.608,1.833-3.246,3.651-3.2,5.337-5.46,12.056-5.2,19.081-4.047,3.706.688,7.47,2.034,10.234,4.691,3.311,3.128,4.6,8.587,2.007,12.542,2.241,1.2,2.284,4.052,1.326,6.109a1.975,1.975,0,0,1-.075,3.339,1.179,1.179,0,0,1-.111.826,10.951,10.951,0,0,0,2.172,1.271,1.023,1.023,0,0,1,.556.672c2.272,1.491,7.937,5.135,7.87,8.035a3.03,3.03,0,0,1-2.452,2.905c.811,1.622,1.427,3.517.65,5.267a11.313,11.313,0,0,1-1.9,2.111,20.026,20.026,0,0,1-3.57-1.479,2.238,2.238,0,0,1-3.033,1.671,6.166,6.166,0,0,1-2.776-2.372c-1.035,2.258-4.08,2.284-6.047,1.311a7.749,7.749,0,0,1-3.859-4.117A21.217,21.217,0,0,1,1.527,56.822a1.259,1.259,0,0,1-1.437.63c-2.3-.69-4.834-.729-6.78-2.311-4.057-2.913-2.845-8.811-2.562-13.389-2.231-3.943-1.522-8.637-.693-13.152a26.022,26.022,0,0,0-1.512-3.753C-12.059,23.538-12.047,21.592-10.569,20.891Z" transform="translate(12.253 -10.887)"/>
            <path id="_-Ink-4" data-name="🖍-Ink" class="cls-14" d="M27.357,39.555a.215.215,0,0,0-.165.39c1.288.82,2.619,1.552,3.864,2.444a25.234,25.234,0,0,1,3.3,2.852l.113.116a5.589,5.589,0,0,1,1.953,3.555c.008,1.088-.83,2.275-2,2.132a.721.721,0,0,0-.692.909l.162.425c.651,1.72,1.313,3.669.8,5.478l-.019.065c-.124.414-.255.78-.736.772a4.483,4.483,0,0,1-1.328-.3,6.5,6.5,0,0,1-2.319-1.421.76.76,0,0,0-1.264.712l0,.022c.109.789-1.148,1.155-1.719,1.042-1.128-.223-1.932-1.353-2.572-2.215-.308-.414-1.055-.577-1.326,0a3.417,3.417,0,0,1-2.933,2.033,3.414,3.414,0,0,1-2.514-1.039l-.047-.049a2.914,2.914,0,0,0-.836-.652.544.544,0,0,0-.811.465,1.717,1.717,0,0,0,.536,1.3,4.963,4.963,0,0,0,1.064.841,4.885,4.885,0,0,0,2.607.688,4.97,4.97,0,0,0,3.671-1.865,4.62,4.62,0,0,0,3.472,2.042A3.017,3.017,0,0,0,30.2,58.83a8,8,0,0,0,2.243,1.084l.072.021c1.139.332,2.45.464,3.184-.668a5.739,5.739,0,0,0,.582-3.748,14,14,0,0,0-.858-3.131,3.493,3.493,0,0,0,2.228-2.455A5.157,5.157,0,0,0,36.187,45.4a20.478,20.478,0,0,0-4.041-3.487A15.324,15.324,0,0,0,27.357,39.555ZM-9.9,26.49c0-.046-.079-.063-.086-.012-.5,3.633-.76,6.722-1,10.38-.122,1.853.806,4.026.655,5.877a48.529,48.529,0,0,0-.332,5.38,8.441,8.441,0,0,0,3.661,6.693A15.7,15.7,0,0,0,.354,57.474a18.7,18.7,0,0,0,4.536.021,5.547,5.547,0,0,0,1.234-.185l.331-.083c.6-.154,1.277-.363,1.363-1.078a.768.768,0,0,0-.439-.775,1.591,1.591,0,0,0-1.23.01,4.319,4.319,0,0,1-.943.21,17.845,17.845,0,0,1-4.476.082,13.374,13.374,0,0,1-6.616-2.386c-.079-.057-.26-.2-.435-.354a6.6,6.6,0,0,1-1.945-2.664,11.927,11.927,0,0,1-.4-4.243c.038-3.292-1.061-6.906-1.015-10.2S-9.707,29.788-9.9,26.49ZM15.187,11.1a23.849,23.849,0,0,0-8.3-.855c-2.824.213-3.915.059-6.529,1.128a14.35,14.35,0,0,0-4.122,2.369c-1.215.849-1.415,1.177-.737,1.027.847-.187,6.094-2.371,7.149-2.574a28.789,28.789,0,0,1,4.484-.548c5.086-.168,10.745.985,14.846,4.157a10.705,10.705,0,0,1,3.975,5.867,10.243,10.243,0,0,1-.928,7.288.733.733,0,0,0,.26.99,3.209,3.209,0,0,1,1.86,2.879,3.07,3.07,0,0,1-.543,1.659c-.349.52-.88.885-1.27,1.371a.538.538,0,0,0-.038.631c-.228.1-.474.154-.7.272a.3.3,0,0,0,0,.511,1.138,1.138,0,0,0,1.364-.417,1.934,1.934,0,0,0,.158-.223,2.375,2.375,0,0,0,1.072-.56,1.133,1.133,0,0,1,.166,1.76,2.339,2.339,0,0,1-1.009.639l-.045.016a1.878,1.878,0,0,0-.938.5,6.153,6.153,0,0,0-.537-.915,3.715,3.715,0,0,0-3.178-1.81,2.4,2.4,0,0,0-2.157,1.865c-.016.076.1.136.133.056.5-1.165,2.08-1.208,3.022-.6A5.035,5.035,0,0,1,24.6,40.895a4.169,4.169,0,0,1-.823,3.676,2.49,2.49,0,0,1-1.429.72,2.188,2.188,0,0,1-.745-.05l-.166-.035a1.191,1.191,0,0,0-.351-.032l-.18.024h0l-.1.048q-.133.06.024-.033a.438.438,0,0,0-.481.45.109.109,0,0,0-.027.023c-1.162,1.423-2.025,3.059-3.259,4.435l-.361.4a10.072,10.072,0,0,1-3.249,2.689l-.15.062c-.367.155-.735.367-.782.81a.767.767,0,0,0,.63.787c.82.21,1.754-.519,2.355-1a15.574,15.574,0,0,0,3.272-3.717l.089-.137a10.369,10.369,0,0,0,1.644-3.829l.039.063.007.01a.943.943,0,0,0,.148.158,1.31,1.31,0,0,0,.526.258,3.141,3.141,0,0,0,1.12.078,3.94,3.94,0,0,0,2.04-.826c1.8-1.414,2.015-4.044,1.286-6.179a2.353,2.353,0,0,0,1.746-.6,2.613,2.613,0,0,0,1.083-1.64A1.81,1.81,0,0,0,27.55,35.7a4.988,4.988,0,0,0,1.075-2.794A4.491,4.491,0,0,0,26.6,29.038a11.723,11.723,0,0,0,.619-8.227C25.629,15.432,20.3,12.423,15.187,11.1Zm4.537,40.874-.015-.047c-.127-.416-.291-1.244-.912-.929-.594.3-.215,1.192-.007,1.625a1.8,1.8,0,0,0,1.253,1.046,1.4,1.4,0,0,0,1.311-.388,1.23,1.23,0,0,0,.206-.349.5.5,0,0,0,.036-.106.231.231,0,0,0,.06.1,5.285,5.285,0,0,1,.7.957c.045.08.187.024.151-.064-.221-.541-.184-1.377-.677-1.768-.434-.345-.842-.073-1.072.328l-.012.021C20.41,53.018,19.875,52.439,19.724,51.979Zm4.724-1.954-.045-.063c-.464-.635-1.248-1.4-2.031-.808a.406.406,0,0,0,0,.688l.1.07a3.729,3.729,0,0,1,.935.82,5.226,5.226,0,0,0,.886,1.076,1.616,1.616,0,0,0,2.263-.079l.055-.07a2.2,2.2,0,0,0,.145-.207l.034.047.009.014.008.012a2.961,2.961,0,0,0,.889.916,2.578,2.578,0,0,0,2.258.279.068.068,0,0,0-.018-.134,2.812,2.812,0,0,1-2.212-1.6l-.043-.1a1.284,1.284,0,0,0-.7-.792.94.94,0,0,0-1.006.285c-.211.233-.265.695-.645.593C24.911,50.867,24.676,50.346,24.449,50.024Zm2.66-5.647a.4.4,0,0,0-.585.238,2.052,2.052,0,0,0,1.834,2.267,1.511,1.511,0,0,0,.751-.178c.181-.095.4-.337.595-.377.257-.052.484.291.665.466a6.784,6.784,0,0,0,.7.606.147.147,0,0,0,.214-.164l-.085-.227c-.308-.807-.838-1.985-1.83-1.65-.486.164-.852.717-1.364.279C27.592,45.287,27.553,44.715,27.109,44.377Zm-4.377-4.131a2.244,2.244,0,0,0-3.511.791.87.87,0,0,0,.227.858.9.9,0,0,0,1.069.138c.307-.18.433-.473.658-.725a2.709,2.709,0,0,1,1.244-.721,1.332,1.332,0,0,1,.32.238c.049.049.143-.018.1-.077a1.334,1.334,0,0,0-.215-.222l.04-.012h0A.162.162,0,0,0,22.732,40.246ZM16.721,28.52a.426.426,0,0,0-.422.422l.008.063a.973.973,0,0,0,.632.879,3.483,3.483,0,0,0,1.156.3,2.894,2.894,0,0,0,.477,0l.034.2a8.547,8.547,0,0,1,.144,1.2,4.549,4.549,0,0,1-.558,2.04,4.347,4.347,0,0,0-.014,3.859.631.631,0,0,0,.562.322.663.663,0,0,0,.562-.322.641.641,0,0,0,.01-.636l-.01-.021a2.847,2.847,0,0,1-.254-1.98c.152-.633.5-1.2.649-1.834a3.92,3.92,0,0,0-.537-2.931,1.933,1.933,0,0,0,1-.623h0c.093-.1.042-.306-.12-.293l-.184.015a4.2,4.2,0,0,1-1.541-.057,2.637,2.637,0,0,1-.741-.352l-.05-.033A1.175,1.175,0,0,0,16.721,28.52Zm-1.258-7.6a3.2,3.2,0,0,0-2.989,1.953,4.838,4.838,0,0,0,.179,3.936l.149.346a3.52,3.52,0,0,0,1.137,1.635c.6.361,1.118-.058.941-.724a3.4,3.4,0,0,0-.621-1.03,9.111,9.111,0,0,1-.593-.953,4.521,4.521,0,0,1-.6-2.111c0-1.354.9-2.906,2.4-2.886A.083.083,0,0,0,15.463,20.918ZM8.8,18.733c.082-.062.009-.2-.083-.143a6.684,6.684,0,0,0-2.9,4.591,5.507,5.507,0,0,0,.394,2.977,2,2,0,0,0,1.243,1.175,1.053,1.053,0,0,0,1.255-.7A.478.478,0,0,0,8.5,26.11a3.179,3.179,0,0,1-1.237-1.423,5.165,5.165,0,0,1-.376-1.992A4.763,4.763,0,0,1,8.8,18.733Zm-18.662.695a.093.093,0,0,0-.112-.145A3.98,3.98,0,0,0-11.981,22.2a4.367,4.367,0,0,0,.991,3.681c.521.487,1.455-.161,1.021-.788a5.3,5.3,0,0,1-.81-1.33,4.2,4.2,0,0,1-.2-1.428A4.438,4.438,0,0,1-9.862,19.428Zm13.5-1.494C1.754,17.843.611,20,.349,21.6A4.073,4.073,0,0,0,.856,24.48l.032.05c.452.688,1.274,1.479,2.159,1.154a.513.513,0,0,0,.223-.844c-.385-.466-.981-.656-1.343-1.154a3.084,3.084,0,0,1-.516-1.937l0-.075c.063-1.249.659-3.647,2.226-3.6C3.729,18.071,3.728,17.937,3.641,17.933Zm-5.9-.358c-1.825-.233-2.937,1.915-3.279,3.394a5.738,5.738,0,0,0,.013,2.875l.02.065c.223.685.881,1.859,1.739,1.509.235-.1.475-.357.363-.639-.144-.36-.351-.454-.628-.684a1.832,1.832,0,0,1-.471-.683,4.84,4.84,0,0,1-.317-2.17l.005-.085c.1-1.407.866-3.5,2.555-3.466C-2.184,17.693-2.189,17.584-2.261,17.575ZM-5.6,15.556c-1.016-.387-1.848.585-2.432,1.278A9.287,9.287,0,0,0-9.8,19.721,4.9,4.9,0,0,0-9.9,22.737a4,4,0,0,0,.7,1.333l.04.05a1.06,1.06,0,0,0,1.188.505.4.4,0,0,0,.275-.484c-.081-.444-.31-.559-.606-.869a2.787,2.787,0,0,1-.585-.964,3.922,3.922,0,0,1-.1-2.273A7.906,7.906,0,0,1-7.93,17.687l.1-.156c.487-.77,1.182-1.957,2.209-1.832C-5.534,15.71-5.533,15.582-5.6,15.556Z" transform="translate(12.042 -10.179)"/>
          </g>
          <g id="face_Smile-Big" data-name="face/Smile-Big" transform="translate(111.297 35.029)">
            <path id="_-Ink-5" data-name="🖍-Ink" class="cls-14" d="M20.889,23.4c-1.227-.7-4.306-1.418-4.5.786a2.33,2.33,0,0,0,1.548,2.23l.033.014c.827.34,2.294.723,3.01-.013.6-.613-.194-1.711-.935-1.209-.381.258-1.182.068-1.606-.055l-.027-.008c-.458-.134-1.069-.565-.88-1.128.168-.5.881-.589,1.328-.605a17.678,17.678,0,0,1,1.977.181A.1.1,0,0,0,20.889,23.4Zm-5.083-3.544a2.523,2.523,0,0,0-2.319,3.224.657.657,0,0,0,.631.48l.07-.006a.619.619,0,0,0,.1-.017.66.66,0,0,0,.481-.63l-.005-.083c-.039-.7.037-1.512.874-1.682.709-.144,1.106.537,1.114,1.165a.151.151,0,0,0,.226.129,1.176,1.176,0,0,0,.406-1.465A1.723,1.723,0,0,0,15.806,19.855Zm12.36.389a2.668,2.668,0,0,0-3.107,1.311.458.458,0,0,0-.383.46,1.285,1.285,0,0,0,.346.833.757.757,0,0,0,1.247-.307l.007-.023a1.244,1.244,0,0,1,1.567-.863c.773.269.751,1.084,1.293,1.559a.187.187,0,0,0,.216.028c.576-.278.472-1.114.267-1.592A2.517,2.517,0,0,0,28.166,20.244Zm1.651-3.673c-.982-1-3.543-1.968-4.215-.121a.734.734,0,0,0,.511.9,13.783,13.783,0,0,0,1.731-.094,2.611,2.611,0,0,1,1.374.5c1.07.827,1.306,2.227,2.051,3.28A.062.062,0,0,0,31.383,21,5.824,5.824,0,0,0,29.817,16.571Zm-12.809-.985a3.3,3.3,0,0,0-2.045-.006,3.974,3.974,0,0,0-1.733,1.1,4.4,4.4,0,0,0-.565.758c-.083.144-.171.441-.266.619a.918.918,0,0,0-.273,1.45l.021.021.061.061a.99.99,0,0,0,.957.252c.755-.218.846-.811,1.108-1.441A2.578,2.578,0,0,1,15.1,17.35a3.982,3.982,0,0,1,3.257-.541c.054.016.118-.053.079-.1a3.09,3.09,0,0,0-.563-.657A3.012,3.012,0,0,0,17.008,15.586Z" transform="translate(-11.875 -15.406)"/>
          </g>
          <path id="_-Ink-6" data-name="🖍-Ink" class="cls-14" d="M36.164,49.223a5.114,5.114,0,0,0,2.149-1.654.992.992,0,0,0,.2-.771,1.113,1.113,0,0,0-.433-.7,1.036,1.036,0,0,0-.776-.21.972.972,0,0,0-.656.434l-.039.054a3.386,3.386,0,0,1-1.24,1.041,2.794,2.794,0,0,1-1.535.27,4.12,4.12,0,0,1-2.5-1.435c-.094-.1-.188-.195-.282-.3a.443.443,0,0,0-.234-.18.5.5,0,0,0-.323,0,.512.512,0,0,0-.254.193.471.471,0,0,0-.08.312,3.227,3.227,0,0,0,1.064,2.04,4.564,4.564,0,0,0,4.94.895Z" transform="translate(86.499 2.748)"/>
          <g id="그룹_16220" data-name="그룹 16220" transform="translate(38.594 48.503) rotate(45)">
            <g id="그룹_15912" data-name="그룹 15912" transform="translate(0 0)">
              <path id="패스_9507" data-name="패스 9507" class="cls-15" d="M23.92,11.559c-.757-1.727-1.505-5.425-3.105-6.367a26.044,26.044,0,0,1-4.823-3.8C14.909.357,13.076-.658,12.261.547c-.743,1.1-.2,2.553.529,4.08A10.427,10.427,0,0,1,13.922,7.28a3.665,3.665,0,0,1,0,1.318c-.527,2.1-5.572,3.87-7.269,4.995a34.63,34.63,0,0,0-4.764,4C-1.8,21,.284,24.56,4.929,20.737c.446-.4,2.1-2.492,2.548-2.894a31.789,31.789,0,0,0-4.867,7.492c-.812,2.061.355,3.952,2.765,3.442-1.24,2.188,1.407,2.891,2.767,2.568-.361.087,1.55,1.947,2.045,2.011a4,4,0,0,0,2.279-.821,21.3,21.3,0,0,0,4.511-4,13.962,13.962,0,0,1,4.454-2.976,4.011,4.011,0,0,0,2.7-3.135c.551-1.749,1.3-3.86,1.038-5.772-.219-1.58-.392-3.681-1.246-5.1h0"/>
            </g>
            <g id="그룹_15913" data-name="그룹 15913" transform="translate(12.539 11.53)">
              <path id="패스_9509" data-name="패스 9509" class="cls-16" d="M.01.4C-.177,3.36,2.228,5.894,4.96,7.6c.709.439,1.054-.64.349-1.069C3.068,5.162,1.047,3.14,1.2.694,1.247-.007.054-.3.01.4Z" transform="translate(0 0)"/>
            </g>
            <g id="그룹_15914" data-name="그룹 15914" transform="translate(4.443 21.313)">
              <path id="패스_9510" data-name="패스 9510" class="cls-16" d="M1.065,8.372C2.552,5.978,3.646,3.067,5.682,1.226,6.171.78,5.381-.341,4.888.1,2.772,1.983,1.623,4.869.079,7.325c-.363.578.62,1.639.986,1.048Z" transform="translate(0 0)"/>
            </g>
            <g id="그룹_15915" data-name="그룹 15915" transform="translate(7.814 23.451)">
              <path id="패스_9511" data-name="패스 9511" class="cls-16" d="M1.158,8.221A32.138,32.138,0,0,1,5.169,1.115c.387-.584-.611-1.51-1-.933A32.518,32.518,0,0,0,.036,7.457c-.248.706.873,1.479,1.122.765Z" transform="translate(0 0)"/>
            </g>
          </g>
          <g id="그룹_16221" data-name="그룹 16221" transform="translate(64.03 72.076) rotate(4)">
            <g id="그룹_15899" data-name="그룹 15899" transform="translate(0 1.743)">
              <path id="패스_9461" data-name="패스 9461" class="cls-17" d="M1.535,0,.723.231A1.425,1.425,0,0,0,.066,1.972l6.36,26.377c.157.686.714,1.162,1.238,1.059l.639-.126Z" transform="translate(0 0)"/>
            </g>
            <g id="그룹_15902" data-name="그룹 15902" transform="translate(3.271 17.494)">
              <path id="패스_9464" data-name="패스 9464" class="cls-17" d="M.634,0,.37.041C.153.075-.013.15,0,.209L.547,2.5c.014.059.2.078.417.043L1.226,2.5Z" transform="translate(0 0)"/>
            </g>
            <g id="그룹_15903" data-name="그룹 15903" transform="translate(1.054 0)">
              <path id="패스_9465" data-name="패스 9465" class="cls-17" d="M15.276.006.781,1.643A1.031,1.031,0,0,0,.046,3.029L6.406,29.892c.154.684.71,1.159,1.234,1.056l13.168-2.593a1.139,1.139,0,0,0,.738-1.384L16.574,1.108A1.3,1.3,0,0,0,15.276.006Z" transform="translate(0)"/>
            </g>
            <path id="패스_9469" data-name="패스 9469" class="cls-8" d="M4.253.28A.26.26,0,0,1,4.06.619L.343,1.053A.338.338,0,0,1,.01.772h0A.258.258,0,0,1,.2.43L3.923,0A.332.332,0,0,1,4.253.28Z" transform="translate(7.589 3.212)"/>
            <path id="패스_10474" data-name="패스 10474" class="cls-18" d="M2.443,1.189,10.988,0c1.349,0,1.987,1.308,2.229,3.1l3.1,15.873c0,1.44.042,1.969-1.508,2.31L6.3,23.585c-1.349,0-2.234-.462-2.234-1.9L0,3.8A2.529,2.529,0,0,1,2.443,1.189Z" transform="translate(4.253 4.98)"/>
          </g>
          <g id="그룹_16292" data-name="그룹 16292" transform="matrix(0.996, -0.087, 0.087, 0.996, 23.82, 54.392)">
            <g id="그룹_15899-2" data-name="그룹 15899" transform="translate(0 1.743)">
              <path id="패스_9461-2" data-name="패스 9461" class="cls-17" d="M1.535,0,.723.231A1.425,1.425,0,0,0,.066,1.972l6.36,26.377c.157.686.714,1.162,1.238,1.059l.639-.126Z" transform="translate(0 0)"/>
            </g>
            <g id="그룹_15902-2" data-name="그룹 15902" transform="translate(3.271 17.494)">
              <path id="패스_9464-2" data-name="패스 9464" class="cls-17" d="M.634,0,.37.041C.153.075-.013.15,0,.209L.547,2.5c.014.059.2.078.417.043L1.226,2.5Z" transform="translate(0 0)"/>
            </g>
            <g id="그룹_15903-2" data-name="그룹 15903" transform="translate(1.054 0)">
              <path id="패스_9465-2" data-name="패스 9465" class="cls-17" d="M15.276.006.781,1.643A1.031,1.031,0,0,0,.046,3.029L6.406,29.892c.154.684.71,1.159,1.234,1.056l13.168-2.593a1.139,1.139,0,0,0,.738-1.384L16.574,1.108A1.3,1.3,0,0,0,15.276.006Z" transform="translate(0)"/>
            </g>
            <path id="패스_9469-2" data-name="패스 9469" class="cls-8" d="M4.253.28A.26.26,0,0,1,4.06.619L.343,1.053A.338.338,0,0,1,.01.772h0A.258.258,0,0,1,.2.43L3.923,0A.332.332,0,0,1,4.253.28Z" transform="translate(7.589 3.212)"/>
            <path id="패스_10474-2" data-name="패스 10474" class="cls-18" d="M2.443,1.189,10.988,0c1.349,0,1.987,1.308,2.229,3.1l3.1,15.873c0,1.44.042,1.969-1.508,2.31L6.3,23.585c-1.349,0-2.234-.462-2.234-1.9L0,3.8A2.529,2.529,0,0,1,2.443,1.189Z" transform="translate(4.253 4.98)"/>
          </g>
        </g>
        <g id="그룹_16204" data-name="그룹 16204" transform="translate(114.466 146.266)">
          <path id="패스_9531" data-name="패스 9531" class="cls-8" d="M654.546,820.873a9.92,9.92,0,0,0-5.373,1.474,7.4,7.4,0,0,0-3.2,4.744c-.341,2.33,1.039,2.466,2.943,2.563,0,1.008,1.446,1.721,2.3,1.815.67.074,2.515-.437,2.619-1.315-.322,2.713,3.87,1.133,4.756.021.576.852.87,1.129,1.972.973a3.042,3.042,0,0,0,2.062-1.073c2.12.631,4.232.655,4.469-2.07a4.664,4.664,0,0,0-1.336-3.268,5.811,5.811,0,0,0-2.64-1.642C660.461,822.056,658.646,820.144,654.546,820.873Z" transform="translate(-645.918 -820.711)"/>
          <path id="패스_9532" data-name="패스 9532" class="cls-12" d="M657.38,839.535c.085-2.3,1.19-4.845,3.57-5.525" transform="translate(-654.457 -831.546)"/>
          <path id="패스_9533" data-name="패스 9533" class="cls-12" d="M677,844.692c0-1.445.778-4.25,2.393-5.015" transform="translate(-669.071 -835.768)"/>
          <path id="패스_9534" data-name="패스 9534" class="cls-12" d="M695.608,846.6a4.4,4.4,0,0,1,2.152-3.594" transform="translate(-682.937 -838.251)"/>
        </g>
      </g>
    </g>
    <text id="함께_할인" data-name="함께 할인" class="cls-19" transform="translate(43 556)"><tspan x="0" y="0">함께 할인</tspan></text>
    <text id="친구도_나도" data-name="친구도 나도" class="cls-20" transform="translate(142 506)"><tspan x="-98.505" y="0">친구도 나도</tspan></text>
  </g>
</svg>
