<svg xmlns="http://www.w3.org/2000/svg" width="329.001" height="252" viewBox="0 0 329.001 252">
    <defs>
        <clipPath id="clip-path">
            <path id="패스_11561" d="M528.683 225.569l-2.624-2.627a7.856 7.856 0 0 0 .727.642l2.625 2.628a7.878 7.878 0 0 1-.728-.643z" class="cls-1" transform="translate(-526.059 -222.942)"/>
        </clipPath>
        <clipPath id="clip-path-2">
            <path id="패스_11563" d="M536.5 215.537l2.624 2.628a1.867 1.867 0 0 0-1.192.37l-2.624-2.628a1.867 1.867 0 0 1 1.192-.37z" class="cls-1" transform="translate(-535.307 -215.537)"/>
        </clipPath>
        <clipPath id="clip-path-3">
            <path id="패스_11571" d="M537.81 220.341l-2.625-2.627a1.23 1.23 0 0 1 .125-1.809l2.624 2.628a1.227 1.227 0 0 0-.123 1.808z" class="cls-1" transform="translate(-534.846 -215.905)"/>
        </clipPath>
        <clipPath id="clip-path-4">
            <path id="패스_11574" d="M540.785 215.907l2.624 2.628a1.857 1.857 0 0 0-1.19-.37l-2.624-2.628a1.859 1.859 0 0 1 1.19.37z" class="cls-1" transform="translate(-539.595 -215.537)"/>
        </clipPath>
        <clipPath id="clip-path-5">
            <path id="패스_11576" d="M540.907 216.015l2.624 2.628a1.126 1.126 0 0 0-.127-.11l-2.624-2.633a1.5 1.5 0 0 1 .127.115z" class="cls-1" transform="translate(-540.78 -215.905)"/>
        </clipPath>
        <clipPath id="clip-path-6">
            <path id="패스_11578" d="M534.918 225.9l2.624 2.627q-5.158 0-8.134-2.319l-2.625-2.628q2.974 2.32 8.135 2.32z" class="cls-1" transform="translate(-526.783 -223.581)"/>
        </clipPath>
        <clipPath id="clip-path-7">
            <path id="패스_11588" d="M550.046 211.013l2.624 2.628a9.06 9.06 0 0 1-.821 12.621q-2.986 2.315-8.138 2.319l-2.625-2.627q5.159 0 8.139-2.32a9.06 9.06 0 0 0 .821-12.621z" class="cls-1" transform="translate(-541.085 -211.013)"/>
        </clipPath>
        <clipPath id="clip-path-8">
            <path id="패스_11599" d="M600.711 209.677l2.657 2.661q-.014 5.154-.094 7.44l-2.657-2.661q.075-2.29.094-7.44z" class="cls-1" transform="translate(-600.617 -209.677)"/>
        </clipPath>
        <clipPath id="clip-path-9">
            <path id="패스_11605" d="M589.243 209.677l2.657 2.661q-.027 10.255-.609 15.546a28.77 28.77 0 0 1-2.273 8.911 32.988 32.988 0 0 1-5.387 7.777l-2.657-2.661a32.991 32.991 0 0 0 5.386-7.777 28.769 28.769 0 0 0 2.273-8.911q.578-5.291.61-15.546z" class="cls-1" transform="translate(-580.975 -209.677)"/>
        </clipPath>
        <clipPath id="clip-path-10">
            <path id="패스_11614" d="M600.282 226.879l2.657 2.661a42.414 42.414 0 0 1-1.466 8.043 19.02 19.02 0 0 1-2.757 5.658 31.234 31.234 0 0 1-4.816 5.059l-2.657-2.661a31.138 31.138 0 0 0 4.812-5.063 18.986 18.986 0 0 0 2.758-5.658 42.511 42.511 0 0 0 1.469-8.039z" class="cls-1" transform="translate(-591.246 -226.879)"/>
        </clipPath>
        <clipPath id="clip-path-11">
            <path id="패스_11632" d="M684.617 226.392l-2.652-2.656c.117.118.239.231.366.343l2.652 2.656c-.126-.111-.249-.225-.366-.343z" class="cls-1" transform="translate(-681.965 -223.736)"/>
        </clipPath>
        <clipPath id="clip-path-12">
            <path id="패스_11634" d="M691.378 217.711l2.652 2.656a.967.967 0 0 0-.73.273l-2.653-2.655a.967.967 0 0 1 .731-.274z" class="cls-1" transform="translate(-690.647 -217.711)"/>
        </clipPath>
        <clipPath id="clip-path-13">
            <path id="패스_11642" d="M693.285 222.091l-2.652-2.656a1.126 1.126 0 0 1 .018-1.453l2.653 2.655a.965.965 0 0 0-.276.73.979.979 0 0 0 .257.724z" class="cls-1" transform="translate(-690.376 -217.981)"/>
        </clipPath>
        <clipPath id="clip-path-14">
            <path id="패스_11644" d="M693.31 222.1l-2.652-2.656-.015-.014 2.653 2.655z" class="cls-1" transform="translate(-690.643 -219.428)"/>
        </clipPath>
        <clipPath id="clip-path-15">
            <path id="패스_11646" d="M688.542 226.117l2.652 2.656a9.111 9.111 0 0 1-6.216-2.043l-2.652-2.656a9.11 9.11 0 0 0 6.216 2.043z" class="cls-1" transform="translate(-682.326 -224.074)"/>
        </clipPath>
        <clipPath id="clip-path-16">
            <path id="패스_11649" d="M697.825 217.969l2.652 2.656a.978.978 0 0 0-.723-.258l-2.653-2.656a.981.981 0 0 1 .724.258z" class="cls-1" transform="translate(-697.101 -217.711)"/>
        </clipPath>
        <clipPath id="clip-path-17">
            <path id="패스_11651" d="M697.842 217.994l2.652 2.656-.013-.014-2.652-2.655z" class="cls-1" transform="translate(-697.829 -217.981)"/>
        </clipPath>
        <clipPath id="clip-path-18">
            <path id="패스_11660" d="M706.576 213.926l2.652 2.656a6.632 6.632 0 0 1 1.919 4.918 6.812 6.812 0 0 1-2.35 5.382 9.186 9.186 0 0 1-6.227 2.043l-2.653-2.656a9.187 9.187 0 0 0 6.228-2.043 6.812 6.812 0 0 0 2.35-5.382 6.636 6.636 0 0 0-1.919-4.918z" class="cls-1" transform="translate(-699.918 -213.926)"/>
        </clipPath>
        <clipPath id="clip-path-19">
            <path id="패스_11681" d="M749.808 214.178l2.652 2.656a2.5 2.5 0 0 0-1.842-.62 2.223 2.223 0 0 0-2.479 2.546l-2.653-2.656a2.223 2.223 0 0 1 2.48-2.545 2.5 2.5 0 0 1 1.842.619z" class="cls-1" transform="translate(-745.486 -213.559)"/>
        </clipPath>
        <clipPath id="clip-path-20">
            <path id="패스_11686" d="M748.754 226.448l-2.653-2.656a2.61 2.61 0 0 1-.63-1.928l2.652 2.656a2.608 2.608 0 0 0 .631 1.928z" class="cls-1" transform="translate(-745.471 -221.863)"/>
        </clipPath>
        <clipPath id="clip-path-21">
            <path id="패스_11688" d="M739.638 233.2l-2.652-2.655q3.763 3.768 11.049 3.768l2.652 2.656q-7.277 0-11.049-3.769z" class="cls-1" transform="translate(-736.986 -230.545)"/>
        </clipPath>
        <clipPath id="clip-path-22">
            <path id="패스_11697" d="M759.028 207.4l2.653 2.656.13.133q3.765 3.913 3.744 11.612t-3.808 11.6q-3.8 3.914-11.223 3.914l-2.652-2.656q7.43 0 11.223-3.914t3.808-11.6q.021-7.69-3.745-11.612z" class="cls-1" transform="translate(-747.872 -207.397)"/>
        </clipPath>
        <filter id="타원_1602" width="91" height="90" x="110.5" y="101" filterUnits="userSpaceOnUse">
            <feOffset dy="10"/>
            <feGaussianBlur result="blur" stdDeviation="5"/>
            <feFlood flood-color="#225f3e" flood-opacity=".341"/>
            <feComposite in2="blur" operator="in"/>
            <feComposite in="SourceGraphic"/>
        </filter>
        <style>
            .cls-1{fill:none}.cls-4{isolation:isolate}.cls-5{fill:#3e3e3e}.cls-6{fill:#333}.cls-7{fill:#585858}.cls-9{fill:#353535}.cls-12{fill:#373737}.cls-13{fill:#393939}.cls-14{fill:#3b3b3b}.cls-15{fill:#3d3d3d}.cls-16{fill:#3f3f3f}.cls-17{fill:#414141}
        </style>
    </defs>
    <g id="txt" transform="translate(-27.5 -51)">
        <g id="그룹_16526" transform="translate(21.833 -44.372)"/>
        <g id="txt1" transform="translate(1 -2)">
            <g id="그룹_17524" class="cls-4" transform="translate(-470.706 -36.898)">
                <g id="그룹_17523">
                    <g id="그룹_17462" class="cls-4" transform="translate(557.174 197.226)">
                        <g id="그룹_17456" transform="translate(12.5)">
                            <path id="패스_11550" d="M569.5 197.22l2.624 2.628-.025 9.2-2.624-2.628z" class="cls-5" transform="translate(-569.477 -197.22)"/>
                        </g>
                        <g id="그룹_17457" transform="translate(17.437 9.197)">
                            <path id="패스_11551" d="M574.42 206.378l2.624 2.628-.026 9.594-2.624-2.628z" class="cls-5" transform="translate(-574.394 -206.378)"/>
                        </g>
                        <g id="그룹_17458" transform="translate(12.473 18.792)">
                            <path id="패스_11552" d="M574.415 215.932l2.624 2.628h-4.964l-2.624-2.628z" class="cls-6" transform="translate(-569.451 -215.932)"/>
                        </g>
                        <g id="그룹_17459">
                            <path id="패스_11553" d="M569.53 206.417h4.964l-.026 9.594H569.5l-.026 9.667H557.03l.078-28.459h12.447z" class="cls-7" transform="translate(-557.03 -197.22)"/>
                        </g>
                        <g id="그룹_17460" transform="translate(12.447 18.792)">
                            <path id="패스_11554" d="M569.451 215.932l2.624 2.628-.026 9.667-2.624-2.628z" class="cls-5" transform="translate(-569.425 -215.932)"/>
                        </g>
                        <g id="그룹_17461" transform="translate(0 28.459)">
                            <path id="패스_11555" d="M569.477 225.558l2.624 2.628h-12.446l-2.624-2.628z" class="cls-6" transform="translate(-557.03 -225.558)"/>
                        </g>
                    </g>
                    <g id="그룹_17467" class="cls-4" transform="translate(523.206 195.899)">
                        <g id="그룹_17463" transform="translate(21.134)">
                            <path id="패스_11556" d="M544.26 195.9l2.624 2.628-.009 3.312-2.624-2.628z" class="cls-5" transform="translate(-544.25 -195.899)"/>
                        </g>
                        <g id="그룹_17464">
                            <path id="패스_11557" d="M553.014 199.211l-.022 8.069h-29.786l.022-8.069h8.665l.009-3.312h12.447l-.009 3.312z" class="cls-7" transform="translate(-523.206 -195.899)"/>
                        </g>
                        <g id="그룹_17465" transform="translate(29.785 3.312)">
                            <path id="패스_11558" d="M552.888 199.2l2.624 2.628-.022 8.069-2.624-2.628z" class="cls-5" transform="translate(-552.866 -199.197)"/>
                        </g>
                        <g id="그룹_17466" transform="translate(0 11.382)">
                            <path id="패스_11559" d="M552.992 207.232l2.624 2.628h-29.785l-2.624-2.628z" class="cls-6" transform="translate(-523.206 -207.232)"/>
                        </g>
                    </g>
                    <g id="그룹_17492" class="cls-4" transform="translate(523.839 208.147)">
                        <g id="그룹_17470" class="cls-4" transform="translate(2.233 14.91)">
                            <g id="그룹_17469" clip-path="url(#clip-path)">
                                <g id="그룹_17468" class="cls-4">
                                    <path id="패스_11560" d="M526.786 223.584l2.625 2.628a7.878 7.878 0 0 1-.728-.643l-2.624-2.627a7.856 7.856 0 0 0 .727.642" class="cls-9" transform="translate(-526.059 -222.942)"/>
                                </g>
                            </g>
                        </g>
                        <g id="그룹_17473" class="cls-4" transform="translate(11.52 7.474)">
                            <g id="그룹_17472" clip-path="url(#clip-path-2)">
                                <g id="그룹_17471" class="cls-4">
                                    <path id="패스_11562" d="M536.5 215.537l2.624 2.628a1.867 1.867 0 0 0-1.192.37l-2.624-2.628a1.867 1.867 0 0 1 1.192-.37" class="cls-9" transform="translate(-535.307 -215.537)"/>
                                </g>
                            </g>
                        </g>
                        <g id="그룹_17476" class="cls-4" transform="translate(11.057 7.843)">
                            <g id="그룹_17475" clip-path="url(#clip-path-3)">
                                <g id="그룹_17474" class="cls-4">
                                    <path id="패스_11564" d="M535.308 215.9l2.624 2.628a1.209 1.209 0 0 0-.265.276l-2.624-2.628a1.228 1.228 0 0 1 .265-.276" class="cls-9" transform="translate(-534.845 -215.905)"/>
                                    <path id="패스_11565" d="M535.043 216.18l2.624 2.628a1.12 1.12 0 0 0-.094.17l-2.624-2.628a1.121 1.121 0 0 1 .094-.17" class="cls-12" transform="translate(-534.846 -215.904)"/>
                                    <path id="패스_11566" d="M534.949 216.349l2.624 2.628a1.3 1.3 0 0 0-.058.162l-2.624-2.627a1.123 1.123 0 0 1 .058-.163" class="cls-13" transform="translate(-534.846 -215.903)"/>
                                    <path id="패스_11567" d="M534.891 216.511l2.624 2.627a1.483 1.483 0 0 0-.035.179l-2.624-2.628a1.262 1.262 0 0 1 .035-.178" class="cls-14" transform="translate(-534.846 -215.902)"/>
                                    <path id="패스_11568" d="M534.856 216.688l2.624 2.628a1.587 1.587 0 0 0-.01.171v.051l-2.624-2.628v-.051a1.358 1.358 0 0 1 .01-.171" class="cls-15" transform="translate(-534.846 -215.902)"/>
                                    <path id="패스_11569" d="M534.847 216.909l2.624 2.628a1.231 1.231 0 0 0 .029.241l-2.624-2.628a1.245 1.245 0 0 1-.029-.241" class="cls-16" transform="translate(-534.846 -215.901)"/>
                                    <path id="패스_11570" d="M534.876 217.149l2.624 2.628a1.116 1.116 0 0 0 .309.558l-2.625-2.627a1.122 1.122 0 0 1-.308-.559" class="cls-17" transform="translate(-534.846 -215.9)"/>
                                </g>
                            </g>
                        </g>
                        <g id="그룹_17477" transform="translate(12.712 7.474)">
                            <path id="패스_11572" d="M539.608 215.537l2.624 2.628h-3.114l-2.624-2.628z" class="cls-6" transform="translate(-536.494 -215.537)"/>
                        </g>
                        <g id="그룹_17480" class="cls-4" transform="translate(15.826 7.474)">
                            <g id="그룹_17479" clip-path="url(#clip-path-4)">
                                <g id="그룹_17478" class="cls-4">
                                    <path id="패스_11573" d="M540.785 215.907l2.624 2.628a1.857 1.857 0 0 0-1.19-.37l-2.624-2.628a1.859 1.859 0 0 1 1.19.37" class="cls-9" transform="translate(-539.595 -215.537)"/>
                                </g>
                            </g>
                        </g>
                        <g id="그룹_17483" class="cls-4" transform="translate(17.016 7.843)">
                            <g id="그룹_17482" clip-path="url(#clip-path-5)">
                                <g id="그룹_17481" class="cls-4">
                                    <path id="패스_11575" d="M540.907 216.015l2.624 2.628a1.126 1.126 0 0 0-.127-.11l-2.624-2.633a1.5 1.5 0 0 1 .127.11" class="cls-9" transform="translate(-540.78 -215.905)"/>
                                </g>
                            </g>
                        </g>
                        <g id="그룹_17486" class="cls-4" transform="translate(2.96 15.552)">
                            <g id="그룹_17485" clip-path="url(#clip-path-6)">
                                <g id="그룹_17484" class="cls-4">
                                    <path id="패스_11577" d="M534.918 225.9l2.624 2.627q-5.158 0-8.134-2.319l-2.625-2.628q2.974 2.315 8.135 2.32" class="cls-9" transform="translate(-526.783 -223.581)"/>
                                </g>
                            </g>
                        </g>
                        <g id="그룹_17487" transform="translate(11.095 17.871)">
                            <path id="패스_11579" d="M541.112 225.891l2.624 2.628h-6.228l-2.624-2.628z" class="cls-6" transform="translate(-534.884 -225.891)"/>
                        </g>
                        <g id="그룹_17488">
                            <path id="패스_11580" d="M526.8 223.647a7.941 7.941 0 0 1-2.96-6.688 7.8 7.8 0 0 1 3-6.616q2.984-2.248 8.147-2.247h6.227q5.159 0 8.126 2.247a7.757 7.757 0 0 1 2.961 6.616 7.988 7.988 0 0 1-3 6.688q-2.986 2.315-8.139 2.32h-6.227q-5.162 0-8.135-2.32zm8.56-7.709a1.225 1.225 0 0 0-.005 1.914 1.859 1.859 0 0 0 1.19.37h3.114a1.867 1.867 0 0 0 1.192-.37 1.164 1.164 0 0 0 .463-.957 1.146 1.146 0 0 0-.458-.957 1.859 1.859 0 0 0-1.19-.37h-3.114a1.867 1.867 0 0 0-1.192.37" class="cls-7" transform="translate(-523.836 -208.095)"/>
                        </g>
                        <g id="그룹_17491" class="cls-4" transform="translate(17.322 2.93)">
                            <g id="그룹_17490" clip-path="url(#clip-path-7)">
                                <g id="그룹_17489" class="cls-4">
                                    <path id="패스_11581" d="M550.008 211.013l2.624 2.628a7.231 7.231 0 0 1 1.944 3.636l-2.625-2.628a7.221 7.221 0 0 0-1.943-3.636" class="cls-17" transform="translate(-541.047 -211.013)"/>
                                    <path id="패스_11582" d="M551.943 214.634l2.625 2.628a10.273 10.273 0 0 1 .225 1.874l-2.624-2.628a10.181 10.181 0 0 0-.226-1.874" class="cls-16" transform="translate(-541.039 -210.998)"/>
                                    <path id="패스_11583" d="M552.168 216.5l2.624 2.628c.005.14.007.28.006.423a11.571 11.571 0 0 1-.082 1.369l-2.624-2.628a11.544 11.544 0 0 0 .082-1.369c0-.143 0-.283-.006-.423" class="cls-15" transform="translate(-541.038 -210.99)"/>
                                    <path id="패스_11584" d="M552.093 218.284l2.624 2.628a9.277 9.277 0 0 1-.262 1.34l-2.624-2.628a9.277 9.277 0 0 0 .262-1.34" class="cls-14" transform="translate(-541.039 -210.982)"/>
                                    <path id="패스_11585" d="M551.833 219.618l2.624 2.628a7.986 7.986 0 0 1-.407 1.142l-2.625-2.628a7.886 7.886 0 0 0 .408-1.142" class="cls-13" transform="translate(-541.041 -210.976)"/>
                                    <path id="패스_11586" d="M551.428 220.755l2.625 2.628a7.316 7.316 0 0 1-.636 1.139l-2.624-2.628a7.193 7.193 0 0 0 .635-1.139" class="cls-12" transform="translate(-541.044 -210.972)"/>
                                    <path id="패스_11587" d="M550.834 221.889l2.624 2.628a7.507 7.507 0 0 1-1.61 1.7q-2.986 2.315-8.138 2.319l-2.625-2.627q5.159 0 8.139-2.32a7.49 7.49 0 0 0 1.61-1.7" class="cls-9" transform="translate(-541.085 -210.967)"/>
                                </g>
                            </g>
                        </g>
                    </g>
                    <g id="그룹_17498" class="cls-4" transform="translate(524.414 227.669)">
                        <g id="그룹_17493" transform="translate(12.47 8.674)">
                            <path id="패스_11589" d="M536.833 236.173l2.624 2.628-.007 2.509-2.624-2.628z" class="cls-5" transform="translate(-536.826 -236.173)"/>
                        </g>
                        <g id="그룹_17494" transform="translate(12.477 8.674)">
                            <path id="패스_11590" d="M557.087 236.173l2.624 2.628h-20.254l-2.624-2.628z" class="cls-6" transform="translate(-536.833 -236.173)"/>
                        </g>
                        <g id="그룹_17495">
                            <path id="패스_11591" d="M524.409 247.392l.054-19.857h45.147l-.054 19.857zm12.477-11.182l-.007 2.509h20.255l.006-2.509h-20.254" class="cls-7" transform="translate(-524.409 -227.535)"/>
                        </g>
                        <g id="그룹_17496" transform="translate(45.147)">
                            <path id="패스_11592" d="M569.419 227.535l2.624 2.628-.055 19.857-2.624-2.628z" class="cls-5" transform="translate(-569.365 -227.535)"/>
                        </g>
                        <g id="그룹_17497" transform="translate(0 19.857)">
                            <path id="패스_11593" d="M569.556 247.308l2.624 2.628h-45.147l-2.624-2.628z" class="cls-6" transform="translate(-524.409 -247.308)"/>
                        </g>
                    </g>
                    <g id="그룹_17518" class="cls-4" transform="translate(574.606 197.226)">
                        <g id="그룹_17499" transform="translate(2.092 10.721)">
                            <path id="패스_11594" d="M580.805 207.763l2.657 2.661h-3.692l-2.657-2.661z" class="cls-6" transform="translate(-577.113 -207.763)"/>
                        </g>
                        <g id="그룹_17500" transform="translate(14.288 10.721)">
                            <path id="패스_11595" d="M589.111 207.763l2.657 2.661-.005 1.947-2.657-2.661z" class="cls-5" transform="translate(-589.106 -207.763)"/>
                        </g>
                        <g id="그룹_17501" transform="translate(14.293 10.721)">
                            <path id="패스_11596" d="M591.725 207.763l2.657 2.661h-2.614l-2.657-2.661z" class="cls-6" transform="translate(-589.111 -207.763)"/>
                        </g>
                        <g id="그룹_17502" transform="translate(26.087 .667)">
                            <path id="패스_11597" d="M600.742 197.876l2.657 2.661-.033 12-2.657-2.661z" class="cls-5" transform="translate(-600.709 -197.876)"/>
                        </g>
                        <g id="그룹_17505" class="cls-4" transform="translate(25.993 12.668)">
                            <g id="그룹_17504" clip-path="url(#clip-path-8)">
                                <g id="그룹_17503" class="cls-4">
                                    <path id="패스_11598" d="M600.711 209.677l2.657 2.661q-.014 5.154-.094 7.44l-2.657-2.661q.075-2.29.094-7.44" class="cls-15" transform="translate(-600.617 -209.677)"/>
                                </g>
                            </g>
                        </g>
                        <g id="그룹_17508" class="cls-4" transform="translate(6.019 12.668)">
                            <g id="그룹_17507" clip-path="url(#clip-path-9)">
                                <g id="그룹_17506" class="cls-4">
                                    <path id="패스_11600" d="M589.117 209.677l2.657 2.661q-.028 10.255-.609 15.546c-.018.164-.038.326-.057.488l-2.657-2.661c.019-.162.039-.324.057-.488q.577-5.291.609-15.546" class="cls-15" transform="translate(-580.849 -209.677)"/>
                                    <path id="패스_11601" d="M588.467 225.445l2.657 2.661a34.3 34.3 0 0 1-.94 4.888l-2.657-2.66a34.325 34.325 0 0 0 .94-4.889" class="cls-14" transform="translate(-580.864 -209.411)"/>
                                    <path id="패스_11602" d="M587.546 230.253l2.657 2.66a22.877 22.877 0 0 1-1.157 3.273l-2.657-2.661a22.908 22.908 0 0 0 1.157-3.272" class="cls-13" transform="translate(-580.884 -209.329)"/>
                                    <path id="패스_11603" d="M586.425 233.471l2.657 2.661c-.039.087-.078.175-.119.261a25.2 25.2 0 0 1-2.051 3.554l-2.657-2.661a25.3 25.3 0 0 0 2.051-3.554l.119-.261" class="cls-12" transform="translate(-580.92 -209.275)"/>
                                    <path id="패스_11604" d="M584.31 237.223l2.657 2.661a41.662 41.662 0 0 1-3.335 4.223l-2.657-2.661a41.809 41.809 0 0 0 3.335-4.223" class="cls-9" transform="translate(-580.975 -209.211)"/>
                                </g>
                            </g>
                        </g>
                        <g id="그룹_17509" transform="translate(0 40.214)">
                            <path id="패스_11606" d="M581.075 241.454l2.657 2.661-6.019-4.689-2.657-2.661z" class="cls-6" transform="translate(-575.056 -236.766)"/>
                        </g>
                        <g id="그룹_17510" transform="translate(25.5 30.161)">
                            <path id="패스_11607" d="M603.084 226.879l2.657 2.661h-2.952l-2.657-2.661z" class="cls-6" transform="translate(-600.132 -226.879)"/>
                        </g>
                        <g id="그룹_17511" transform="translate(10.447 43.559)">
                            <path id="패스_11608" d="M591.346 245.42l2.654 2.661-6.017-5.365-2.657-2.661z" class="cls-6" transform="translate(-585.329 -240.055)"/>
                        </g>
                        <g id="그룹_17514" class="cls-4" transform="translate(16.464 30.16)">
                            <g id="그룹_17513" clip-path="url(#clip-path-10)">
                                <g id="그룹_17512" class="cls-4">
                                    <path id="패스_11609" d="M600.135 226.879l2.657 2.661q-.076.772-.167 1.5l-2.657-2.661q.09-.731.167-1.5" class="cls-15" transform="translate(-591.099 -226.879)"/>
                                    <path id="패스_11610" d="M599.986 228.356l2.657 2.661a41.421 41.421 0 0 1-1.1 5.855l-2.658-2.661a41.218 41.218 0 0 0 1.1-5.855" class="cls-14" transform="translate(-591.117 -226.854)"/>
                                    <path id="패스_11611" d="M598.9 234.114l2.658 2.661q-.1.351-.2.685a21.174 21.174 0 0 1-.911 2.444l-2.657-2.661a21.173 21.173 0 0 0 .911-2.444q.1-.334.2-.685" class="cls-13" transform="translate(-591.135 -226.757)"/>
                                    <path id="패스_11612" d="M597.82 237.191l2.657 2.661a18.021 18.021 0 0 1-1.553 2.8l-2.658-2.661a17.941 17.941 0 0 0 1.554-2.8" class="cls-12" transform="translate(-591.161 -226.705)"/>
                                    <path id="패스_11613" d="M596.351 239.943l2.658 2.661q-.145.21-.293.416a31.235 31.235 0 0 1-4.813 5.063l-2.657-2.661a31.138 31.138 0 0 0 4.812-5.063q.15-.206.293-.416" class="cls-9" transform="translate(-591.246 -226.658)"/>
                                </g>
                            </g>
                        </g>
                        <g id="그룹_17515" transform="translate(28.396 50.268)">
                            <path id="패스_11615" d="M613.564 246.652l2.657 2.661h-10.583l-2.657-2.661z" class="cls-6" transform="translate(-602.981 -246.652)"/>
                        </g>
                        <g id="그룹_17516" transform="translate(38.98)">
                            <path id="패스_11616" d="M613.526 197.22l2.657 2.661-.138 50.268-2.657-2.661z" class="cls-5" transform="translate(-613.388 -197.22)"/>
                        </g>
                        <g id="그룹_17517">
                            <path id="패스_11617" d="M603.535 217.327l.055-20.107h10.584l-.138 50.267h-10.584l.056-20.107h-2.952a42.511 42.511 0 0 1-1.466 8.043 18.988 18.988 0 0 1-2.758 5.658 31.141 31.141 0 0 1-4.812 5.063l-6.017-5.365a19.257 19.257 0 0 0 4.341-6.635 28.481 28.481 0 0 0 1.731-8.107q.355-4.5.373-12.668l.01-3.482.005-1.946h-2.614l-.005 1.946q-.028 10.255-.609 15.546a28.768 28.768 0 0 1-2.273 8.911 32.991 32.991 0 0 1-5.386 7.777l-6.019-4.688a18.34 18.34 0 0 0 3.775-6.773 39.051 39.051 0 0 0 1.6-8.609q.383-4.73.409-12.165l.005-1.946h-3.692l.027-10.054h24l-.034 12q-.014 5.154-.094 7.44z" class="cls-7" transform="translate(-575.056 -197.22)"/>
                        </g>
                    </g>
                    <g id="그룹_17522" class="cls-4" transform="translate(615.506 197.226)">
                        <g id="그룹_17519">
                            <path id="패스_11618" d="M615.5 197.22h10.461l-.138 50.3h-10.459z" class="cls-7" transform="translate(-615.364 -197.22)"/>
                        </g>
                        <g id="그룹_17520" transform="translate(10.461)">
                            <path id="패스_11619" d="M625.918 197.22l2.624 2.628-.138 50.3-2.624-2.628z" class="cls-5" transform="translate(-625.78 -197.22)"/>
                        </g>
                        <g id="그룹_17521" transform="translate(0 50.301)">
                            <path id="패스_11620" d="M625.825 247.308l2.624 2.628h-10.461l-2.624-2.628z" class="cls-6" transform="translate(-615.364 -247.308)"/>
                        </g>
                    </g>
                </g>
            </g>
            <text id="함께" fill="#3ddb87" stroke="#175d38" stroke-linecap="round" font-family="BlackHanSans-Regular, Black Han Sans" font-size="65px" letter-spacing="-0.02em" transform="translate(104 210.5)">
                <tspan x="-54.502" y="0">함께</tspan>
            </text>
        </g>
        <g id="BI" transform="translate(-254.855 409.427)">
            <g id="Shape" transform="translate(407.856 -252.426)">
                <g filter="url(#타원_1602)" transform="translate(-125.5 -106)">
                    <ellipse id="타원_1602-2" cx="30.5" cy="30" fill="#fff" rx="30.5" ry="30" transform="translate(125.5 106)"/>
                </g>
                <path id="패스_309" fill="#3ddb87" stroke="#fff" d="M325.585 849.106H309.8v15.788a1.1 1.1 0 0 1-2.194 0v-15.788h-15.79a1.1 1.1 0 0 1 0-2.193H307.6v-15.788a1.1 1.1 0 1 1 2.194 0v15.787h15.787a1.1 1.1 0 0 1 0 2.193M308.7 819.916a28.093 28.093 0 1 0 28.093 28.093 28.093 28.093 0 0 0-28.093-28.093" transform="translate(-278.625 -817.898)"/>
            </g>
            <g id="txt2" transform="translate(251.855 -411.427)">
                <g id="그룹_17597" class="cls-4" transform="translate(-459.484 -43.195)">
                    <g id="그룹_17596" transform="translate(679.396 201.695)">
                        <g id="그룹_17531" class="cls-4" transform="translate(34.276 1.341)">
                            <g id="그룹_17525" transform="translate(12.549)">
                                <path id="패스_11621" d="M725.552 203.016l2.652 2.656-.021 7.69-2.652-2.656z" class="cls-5" transform="translate(-725.531 -203.016)"/>
                            </g>
                            <g id="그룹_17526" transform="translate(17.543 7.69)">
                                <path id="패스_11622" d="M730.474 210.593l2.652 2.656-.023 8.5-2.652-2.656z" class="cls-5" transform="translate(-730.451 -210.593)"/>
                            </g>
                            <g id="그룹_17527" transform="translate(12.526 16.192)">
                                <path id="패스_11623" d="M730.525 218.969l2.652 2.656h-5.017l-2.652-2.656z" class="cls-6" transform="translate(-725.508 -218.969)"/>
                            </g>
                            <g id="그룹_17528">
                                <path id="패스_11624" d="M725.716 210.706h5.017l-.023 8.5h-5.017l-.019 7.024h-12.507l.064-23.216h12.507z" class="cls-7" transform="translate(-713.167 -203.016)"/>
                            </g>
                            <g id="그룹_17529" transform="translate(12.506 16.192)">
                                <path id="패스_11625" d="M725.508 218.969l2.652 2.656-.019 7.024-2.652-2.656z" class="cls-5" transform="translate(-725.489 -218.969)"/>
                            </g>
                            <g id="그룹_17530" transform="translate(0 23.216)">
                                <path id="패스_11626" d="M725.673 225.89l2.652 2.656h-12.506l-2.652-2.656z" class="cls-6" transform="translate(-713.167 -225.89)"/>
                            </g>
                        </g>
                        <g id="그룹_17536" class="cls-4">
                            <g id="그룹_17532" transform="translate(21.355)">
                                <path id="패스_11627" d="M700.444 201.695l2.652 2.656-.007 2.682-2.652-2.656z" class="cls-5" transform="translate(-700.436 -201.695)"/>
                            </g>
                            <g id="그룹_17533">
                                <path id="패스_11628" d="M709.518 204.377l-.018 6.687h-30.1l.018-6.687h8.757l.007-2.682h12.579l-.007 2.682z" class="cls-7" transform="translate(-679.396 -201.695)"/>
                            </g>
                            <g id="그룹_17534" transform="translate(30.103 2.682)">
                                <path id="패스_11629" d="M709.074 204.337l2.652 2.656-.018 6.687-2.652-2.656z" class="cls-5" transform="translate(-709.056 -204.337)"/>
                            </g>
                            <g id="그룹_17535" transform="translate(0 9.368)">
                                <path id="패스_11630" d="M709.5 210.925l2.652 2.656h-30.1l-2.652-2.656z" class="cls-6" transform="translate(-679.396 -210.925)"/>
                            </g>
                        </g>
                        <g id="그룹_17564" class="cls-4" transform="translate(.644 10.034)">
                            <g id="그룹_17539" class="cls-4" transform="translate(1.963 12.337)">
                                <g id="그룹_17538" clip-path="url(#clip-path-11)">
                                    <g id="그룹_17537" class="cls-4">
                                        <path id="패스_11631" d="M682.331 224.079l2.652 2.656c-.127-.112-.25-.225-.366-.343l-2.652-2.656c.117.118.239.231.366.343" class="cls-9" transform="translate(-681.965 -223.736)"/>
                                    </g>
                                </g>
                            </g>
                            <g id="그룹_17542" class="cls-4" transform="translate(10.775 6.222)">
                                <g id="그룹_17541" clip-path="url(#clip-path-12)">
                                    <g id="그룹_17540" class="cls-4">
                                        <path id="패스_11633" d="M691.378 217.711l2.652 2.656a.967.967 0 0 0-.73.273l-2.653-2.655a.967.967 0 0 1 .731-.274" class="cls-9" transform="translate(-690.647 -217.711)"/>
                                    </g>
                                </g>
                            </g>
                            <g id="그룹_17545" class="cls-4" transform="translate(10.5 6.496)">
                                <g id="그룹_17544" clip-path="url(#clip-path-13)">
                                    <g id="그룹_17543" class="cls-4">
                                        <path id="패스_11635" d="M690.649 217.981l2.653 2.655a.815.815 0 0 0-.113.132l-2.652-2.656a.812.812 0 0 1 .112-.131" class="cls-9" transform="translate(-690.374 -217.981)"/>
                                        <path id="패스_11636" d="M690.538 218.11l2.652 2.656a.911.911 0 0 0-.073.132l-2.652-2.656a.79.79 0 0 1 .073-.132" class="cls-12" transform="translate(-690.375 -217.979)"/>
                                        <path id="패스_11637" d="M690.466 218.24l2.652 2.656a.974.974 0 0 0-.049.135l-2.652-2.655a.933.933 0 0 1 .049-.136" class="cls-13" transform="translate(-690.375 -217.977)"/>
                                        <path id="패스_11638" d="M690.417 218.374l2.652 2.655a1.159 1.159 0 0 0-.031.163l-2.652-2.656a1.134 1.134 0 0 1 .031-.162" class="cls-14" transform="translate(-690.376 -217.975)"/>
                                        <path id="패스_11639" d="M690.386 218.534l2.652 2.656a1.481 1.481 0 0 0-.01.167v.056l-2.652-2.656v-.055a1.3 1.3 0 0 1 .01-.168" class="cls-15" transform="translate(-690.376 -217.973)"/>
                                        <path id="패스_11640" d="M690.377 218.754l2.652 2.656a1.236 1.236 0 0 0 .028.237l-2.652-2.655a1.257 1.257 0 0 1-.028-.239" class="cls-16" transform="translate(-690.376 -217.969)"/>
                                        <path id="패스_11641" d="M690.405 218.989l2.652 2.655a.854.854 0 0 0 .227.431l-2.652-2.656a.846.846 0 0 1-.227-.43" class="cls-17" transform="translate(-690.376 -217.966)"/>
                                    </g>
                                </g>
                            </g>
                            <g id="그룹_17548" class="cls-4" transform="translate(10.771 7.964)">
                                <g id="그룹_17547" clip-path="url(#clip-path-14)">
                                    <g id="그룹_17546" class="cls-4">
                                        <path id="패스_11643" d="M690.643 219.428l2.653 2.655.014.015-2.652-2.656-.015-.014" class="cls-17" transform="translate(-690.643 -219.428)"/>
                                    </g>
                                </g>
                            </g>
                            <g id="그룹_17551" class="cls-4" transform="translate(2.329 12.68)">
                                <g id="그룹_17550" clip-path="url(#clip-path-15)">
                                    <g id="그룹_17549" class="cls-4">
                                        <path id="패스_11645" d="M688.542 226.117l2.652 2.656a9.111 9.111 0 0 1-6.216-2.043l-2.652-2.656a9.11 9.11 0 0 0 6.216 2.043" class="cls-9" transform="translate(-682.326 -224.074)"/>
                                    </g>
                                </g>
                            </g>
                            <g id="그룹_17552" transform="translate(11.506 6.222)">
                                <path id="패스_11647" d="M697.187 217.711l2.652 2.656h-5.82l-2.652-2.656z" class="cls-6" transform="translate(-691.367 -217.711)"/>
                            </g>
                            <g id="그룹_17555" class="cls-4" transform="translate(17.326 6.222)">
                                <g id="그룹_17554" clip-path="url(#clip-path-16)">
                                    <g id="그룹_17553" class="cls-4">
                                        <path id="패스_11648" d="M697.825 217.969l2.652 2.656a.978.978 0 0 0-.723-.258l-2.653-2.656a.981.981 0 0 1 .724.258" class="cls-9" transform="translate(-697.101 -217.711)"/>
                                    </g>
                                </g>
                            </g>
                            <g id="그룹_17558" class="cls-4" transform="translate(18.064 6.496)">
                                <g id="그룹_17557" clip-path="url(#clip-path-17)">
                                    <g id="그룹_17556" class="cls-4">
                                        <path id="패스_11650" d="M697.842 217.994l2.652 2.656-.013-.014-2.652-2.655.013.013" class="cls-9" transform="translate(-697.829 -217.981)"/>
                                    </g>
                                </g>
                            </g>
                            <g id="그룹_17559" transform="translate(8.545 14.724)">
                                <path id="패스_11652" d="M700.09 226.087l2.652 2.656H691.1l-2.652-2.656z" class="cls-6" transform="translate(-688.45 -226.087)"/>
                            </g>
                            <g id="그룹_17562" class="cls-4" transform="translate(20.185 2.38)">
                                <g id="그룹_17561" clip-path="url(#clip-path-18)">
                                    <g id="그룹_17560" class="cls-4">
                                        <path id="패스_11653" d="M706.478 213.926l2.652 2.656a6.336 6.336 0 0 1 1.742 3.177l-2.653-2.655a6.341 6.341 0 0 0-1.741-3.178" class="cls-17" transform="translate(-699.82 -213.926)"/>
                                        <path id="패스_11654" d="M708.193 217.057l2.653 2.655a7.884 7.884 0 0 1 .174 1.432l-2.652-2.656a7.771 7.771 0 0 0-.175-1.431" class="cls-16" transform="translate(-699.794 -213.879)"/>
                                        <path id="패스_11655" d="M708.366 218.467l2.652 2.656v.309a8.945 8.945 0 0 1-.063 1.044l-2.653-2.656a8.747 8.747 0 0 0 .064-1.044v-.309" class="cls-15" transform="translate(-699.792 -213.858)"/>
                                        <path id="패스_11656" d="M708.309 219.8l2.653 2.656a7.473 7.473 0 0 1-.21 1.07l-2.652-2.655a7.355 7.355 0 0 0 .209-1.071" class="cls-14" transform="translate(-699.796 -213.838)"/>
                                        <path id="패스_11657" d="M708.1 220.855l2.652 2.655a6.8 6.8 0 0 1-.341.956l-2.653-2.656a6.71 6.71 0 0 0 .342-.955" class="cls-13" transform="translate(-699.801 -213.822)"/>
                                        <path id="패스_11658" d="M707.771 221.8l2.653 2.656a6.4 6.4 0 0 1-.556.995l-2.652-2.656a6.322 6.322 0 0 0 .555-.995" class="cls-12" transform="translate(-699.809 -213.808)"/>
                                        <path id="패스_11659" d="M707.325 222.776l2.652 2.656a6.877 6.877 0 0 1-1.179 1.317 9.186 9.186 0 0 1-6.227 2.043l-2.653-2.656a9.187 9.187 0 0 0 6.228-2.043 6.911 6.911 0 0 0 1.179-1.317" class="cls-9" transform="translate(-699.918 -213.794)"/>
                                    </g>
                                </g>
                            </g>
                            <g id="그룹_17563">
                                <path id="패스_11661" d="M682.36 224.261a6.78 6.78 0 0 1-2.329-5.382 6.653 6.653 0 0 1 2.359-5.29 9.27 9.27 0 0 1 6.227-2.008h11.64a9.259 9.259 0 0 1 6.216 2.008 6.607 6.607 0 0 1 2.321 5.29 6.812 6.812 0 0 1-2.35 5.382 9.188 9.188 0 0 1-6.228 2.043h-11.64a9.11 9.11 0 0 1-6.216-2.043zm8.446-6.184a1 1 0 0 0 .726 1.733h5.82a.919.919 0 0 0 1.006-1 .954.954 0 0 0-.262-.73.969.969 0 0 0-.739-.274h-5.82a.967.967 0 0 0-.731.274" class="cls-7" transform="translate(-680.031 -211.581)"/>
                            </g>
                        </g>
                        <g id="그룹_17572" class="cls-4" transform="translate(1.214 26.089)">
                            <g id="그룹_17565" transform="translate(12.6 16.73)">
                                <path id="패스_11662" d="M693.012 243.883l2.652 2.656-.006 2.007-2.652-2.656z" class="cls-5" transform="translate(-693.007 -243.883)"/>
                            </g>
                            <g id="그룹_17566" transform="translate(.051 7.362)">
                                <path id="패스_11663" d="M713.629 234.653l2.652 2.656H683.3l-2.652-2.656z" class="cls-6" transform="translate(-680.643 -234.653)"/>
                            </g>
                            <g id="그룹_17567" transform="translate(45.518)">
                                <path id="패스_11664" d="M725.485 227.4l2.652 2.656-.046 16.73-2.652-2.656z" class="cls-5" transform="translate(-725.44 -227.4)"/>
                            </g>
                            <g id="그룹_17568" transform="translate(12.605 16.73)">
                                <path id="패스_11665" d="M725.925 243.883l2.652 2.656h-32.913l-2.652-2.656z" class="cls-6" transform="translate(-693.012 -243.883)"/>
                            </g>
                            <g id="그룹_17569">
                                <path id="패스_11666" d="M693.2 244.13l-.005 2.007h33.579l-.02 7.352h-46.161l.046-16.721h32.986l.005-2.007h-32.986l.02-7.362h45.492l-.046 16.73z" class="cls-7" transform="translate(-680.593 -227.4)"/>
                            </g>
                            <g id="그룹_17570" transform="translate(46.158 18.737)">
                                <path id="패스_11667" d="M726.091 245.86l2.652 2.656-.02 7.352-2.652-2.656z" class="cls-5" transform="translate(-726.07 -245.86)"/>
                            </g>
                            <g id="그룹_17571" transform="translate(0 26.089)">
                                <path id="패스_11668" d="M726.751 253.1l2.652 2.656h-46.158l-2.652-2.656z" class="cls-6" transform="translate(-680.593 -253.104)"/>
                            </g>
                        </g>
                        <g id="그룹_17580" class="cls-4" transform="translate(55.348 1.341)">
                            <g id="그룹_17573" transform="translate(12.657 34.382)">
                                <path id="패스_11669" d="M746.814 236.891l2.652 2.656-.018 6.358-2.652-2.656z" class="cls-5" transform="translate(-746.796 -236.891)"/>
                            </g>
                            <g id="그룹_17574" transform="translate(33.27)">
                                <path id="패스_11670" d="M779.656 203.016l-.1 35.723h-12.58l.1-35.723z" class="cls-7" transform="translate(-766.978 -203.016)"/>
                            </g>
                            <g id="그룹_17575" transform="translate(45.85)">
                                <path id="패스_11671" d="M779.47 203.016l2.652 2.656-.1 35.723-2.652-2.656z" class="cls-5" transform="translate(-779.372 -203.016)"/>
                            </g>
                            <g id="그룹_17576" transform="translate(33.27 35.723)">
                                <path id="패스_11672" d="M779.558 238.212l2.652 2.656h-12.58l-2.652-2.656z" class="cls-6" transform="translate(-766.978 -238.212)"/>
                            </g>
                            <g id="그룹_17577" transform="translate(0 34.382)">
                                <path id="패스_11673" d="M747.031 243.249h33.243l-.028 10.1h-45.871l.045-16.456h12.629z" class="cls-7" transform="translate(-734.375 -236.891)"/>
                            </g>
                            <g id="그룹_17578" transform="translate(45.872 40.74)">
                                <path id="패스_11674" d="M779.422 243.155l2.652 2.656-.028 10.1-2.652-2.656z" class="cls-5" transform="translate(-779.394 -243.155)"/>
                            </g>
                            <g id="그룹_17579" transform="translate(0 50.838)">
                                <path id="패스_11675" d="M780.4 253.1l2.672 2.656h-46.025l-2.672-2.656z" class="cls-6" transform="translate(-734.375 -253.104)"/>
                            </g>
                        </g>
                        <g id="그룹_17595" class="cls-4" transform="translate(54.288 2.007)">
                            <g id="그룹_17583" class="cls-4" transform="translate(12.515 10.035)">
                                <g id="그룹_17582" clip-path="url(#clip-path-19)">
                                    <g id="그룹_17581" class="cls-4">
                                        <path id="패스_11676" d="M749.8 214.178l2.652 2.656a2.5 2.5 0 0 0-1.842-.62 2.306 2.306 0 0 0-2.054.879l-2.653-2.656a2.309 2.309 0 0 1 2.055-.878 2.5 2.5 0 0 1 1.842.619" class="cls-9" transform="translate(-745.48 -213.559)"/>
                                        <path id="패스_11677" d="M745.907 214.424l2.653 2.656a2.017 2.017 0 0 0-.178.319l-2.652-2.656a2.02 2.02 0 0 1 .177-.319" class="cls-12" transform="translate(-745.482 -213.546)"/>
                                        <path id="패스_11678" d="M745.732 214.738l2.652 2.656a2.441 2.441 0 0 0-.126.355l-2.652-2.656a2.442 2.442 0 0 1 .126-.355" class="cls-13" transform="translate(-745.484 -213.541)"/>
                                        <path id="패스_11679" d="M745.607 215.088l2.652 2.656a3.265 3.265 0 0 0-.09.464l-2.652-2.656a3.136 3.136 0 0 1 .09-.464" class="cls-14" transform="translate(-745.485 -213.536)"/>
                                        <path id="패스_11680" d="M745.517 215.545l2.652 2.656a4.36 4.36 0 0 0-.03.529l-2.653-2.656a4.559 4.559 0 0 1 .031-.529" class="cls-15" transform="translate(-745.486 -213.529)"/>
                                    </g>
                                </g>
                            </g>
                            <g id="그룹_17584" transform="translate(12.499 12.58)">
                                <path id="패스_11682" d="M745.487 216.066l2.652 2.656-.016 5.884-2.652-2.656z" class="cls-5" transform="translate(-745.47 -216.066)"/>
                            </g>
                            <g id="그룹_17587" class="cls-4" transform="translate(12.499 18.463)">
                                <g id="그룹_17586" clip-path="url(#clip-path-20)">
                                    <g id="그룹_17585" class="cls-4">
                                        <path id="패스_11683" d="M745.471 221.863l2.652 2.656v.169l-2.652-2.655v-.171" class="cls-15" transform="translate(-745.471 -221.863)"/>
                                        <path id="패스_11684" d="M745.473 222.031l2.652 2.655a3.806 3.806 0 0 0 .082.7l-2.653-2.656a3.814 3.814 0 0 1-.081-.694" class="cls-16" transform="translate(-745.471 -221.86)"/>
                                        <path id="패스_11685" d="M745.553 222.715l2.653 2.656a2.1 2.1 0 0 0 .547 1.064l-2.653-2.656a2.116 2.116 0 0 1-.547-1.064" class="cls-17" transform="translate(-745.469 -221.85)"/>
                                    </g>
                                </g>
                            </g>
                            <g id="그룹_17590" class="cls-4" transform="translate(3.887 27.275)">
                                <g id="그룹_17589" clip-path="url(#clip-path-21)">
                                    <g id="그룹_17588" class="cls-4">
                                        <path id="패스_11687" d="M748.035 234.313l2.652 2.656q-7.277 0-11.049-3.769l-2.652-2.655q3.763 3.768 11.049 3.768" class="cls-9" transform="translate(-736.986 -230.545)"/>
                                    </g>
                                </g>
                            </g>
                            <g id="그룹_17591">
                                <path id="패스_11689" d="M748.092 234.715q-7.416 0-11.191-3.914t-3.745-11.6q.021-7.69 3.809-11.612t11.212-3.914q7.43 0 11.2 3.914t3.745 11.612q-.021 7.69-3.808 11.6t-11.222 3.914zm-2.422-18.463l-.015 5.884a2.477 2.477 0 1 0 4.953 0l.016-5.884a2.478 2.478 0 1 0-4.954 0" class="cls-7" transform="translate(-733.156 -203.672)"/>
                            </g>
                            <g id="그룹_17594" class="cls-4" transform="translate(14.936 3.781)">
                                <g id="그룹_17593" clip-path="url(#clip-path-22)">
                                    <g id="그룹_17592" class="cls-4">
                                        <path id="패스_11690" d="M758.863 207.4l2.653 2.656.13.133a13.087 13.087 0 0 1 3.237 6.413l-2.653-2.656a13.075 13.075 0 0 0-3.237-6.413l-.13-.133" class="cls-17" transform="translate(-747.707 -207.397)"/>
                                        <path id="패스_11691" d="M762.18 213.846l2.653 2.656a22.812 22.812 0 0 1 .493 4.18l-2.652-2.656a22.714 22.714 0 0 0-.494-4.18" class="cls-16" transform="translate(-747.658 -207.3)"/>
                                        <path id="패스_11692" d="M762.669 217.964l2.652 2.656q.015.5.014 1.02a26.632 26.632 0 0 1-.189 3.176l-2.652-2.655a26.662 26.662 0 0 0 .189-3.177c0-.345 0-.686-.014-1.02" class="cls-15" transform="translate(-747.653 -207.239)"/>
                                        <path id="패스_11693" d="M762.5 222.1l2.652 2.655a19.582 19.582 0 0 1-.544 2.806l-2.652-2.656a19.568 19.568 0 0 0 .544-2.805" class="cls-14" transform="translate(-747.661 -207.177)"/>
                                        <path id="패스_11694" d="M761.97 224.863l2.652 2.656a15.252 15.252 0 0 1-.769 2.167l-2.653-2.656a15.134 15.134 0 0 0 .77-2.167" class="cls-13" transform="translate(-747.672 -207.136)"/>
                                        <path id="패스_11695" d="M761.216 227l2.653 2.656a12.6 12.6 0 0 1-1.088 1.957l-2.652-2.655a12.649 12.649 0 0 0 1.087-1.958" class="cls-12" transform="translate(-747.688 -207.104)"/>
                                        <path id="패스_11696" d="M760.313 228.927l2.652 2.655a11.332 11.332 0 0 1-1.218 1.5q-3.8 3.914-11.223 3.914l-2.652-2.656q7.43 0 11.223-3.914a11.385 11.385 0 0 0 1.218-1.5" class="cls-9" transform="translate(-747.872 -207.075)"/>
                                    </g>
                                </g>
                            </g>
                        </g>
                    </g>
                </g>
                <text id="할인" fill="#fff" stroke="#2b2b2b" stroke-linecap="round" font-family="BlackHanSans-Regular, Black Han Sans" font-size="66px" letter-spacing="-0.02em" transform="translate(270.398 210.5)">
                    <tspan x="-54.054" y="0">할인</tspan>
                </text>
            </g>
        </g>
        <text id="초대받은_친구가_바로주유를_등록하면_친구도_나도_함께_혜택을_드립니다._" fill="#222" font-family="NotoSansCJKkr-Medium, Noto Sans CJK KR" font-size="15px" font-weight="500" transform="translate(189.5 244)">
            <tspan x="-117.15" y="0">초대받은 친구가 바로주유를 등록하면 </tspan><tspan font-family="NotoSansCJKkr-Bold, Noto Sans CJK KR" font-weight="700"><tspan x="-107.317" y="22">친구도 나도 함께 혜택</tspan><tspan y="22" font-family="NotoSansCJKkr-Medium, Noto Sans CJK KR" font-weight="500">을 드립니다.</tspan></tspan>
        </text>
        <path id="패스_10512" fill="#34c678" d="M15801.776 19303.477l-7.975 7.148-4.652 5.035h-8.189l3.159 1.93 11.2 6.711 92.316 2s4.766-26.672 3.579-25.836" transform="translate(-15556.5 -19028)"/>
        <text id="_2021.12.31" fill="#fff" font-family="Montserrat-Bold, Montserrat" font-size="14px" font-weight="700" transform="translate(283.5 291)">
            <tspan x="-39.333" y="0">~ 2021.12.31</tspan>
        </text>
        <text id="친구도_나도" fill="#0f1f2e" font-family="BlackHanSans-Regular, Black Han Sans" font-size="62px" letter-spacing="-0.02em" transform="translate(188.5 146)">
            <tspan x="-135.718" y="0">친구도 나도</tspan>
        </text>
        <g id="그룹_16164" transform="translate(36.354 388.96)">
            <path id="합치기_106" fill="#0f1f2e" d="M29.182 34H17a17 17 0 0 1 0-34h109.635a17 17 0 0 1 0 34H35.9l-1.2 5.861z" transform="translate(33.562 -337.778)"/>
            <text id="초대할_때마다" fill="#fff" font-family="BlackHanSans-Regular, Black Han Sans" font-size="20px" letter-spacing="-0.02em" transform="translate(98.146 -312.96)">
                <tspan x="-52.48" y="0">초대할 때마다</tspan>
            </text>
            <text id="_" fill="#fff" font-family="KOTRA_BOLD-Bold, KOTRA_BOLD" font-size="20px" font-weight="700" transform="rotate(14.98 1268.217 440.068)">
                <tspan x="-2.959" y="0">!</tspan>
            </text>
        </g>
    </g>
</svg>
