<svg xmlns="http://www.w3.org/2000/svg" xmlns:xlink="http://www.w3.org/1999/xlink" width="328" height="160" viewBox="0 0 328 160">
  <defs>
    <style>
      .cls-1, .cls-3 {
        fill: #0f1f2e;
      }

      .cls-1 {
        opacity: 0.133;
      }

      .cls-2 {
        clip-path: url(#clip-path);
      }

      .cls-12, .cls-14, .cls-4 {
        fill: #fff;
      }

      .cls-4, .cls-5 {
        font-size: 44px;
        font-family: BlackHanSans-Regular, Black Han Sans;
        letter-spacing: -0.02em;
      }

      .cls-5 {
        fill: #a6acb2;
      }

      .cls-6 {
        opacity: 0.677;
      }

      .cls-16, .cls-7 {
        fill: none;
      }

      .cls-7 {
        stroke: #3ddb87;
      }

      .cls-8 {
        fill: #3ddb87;
      }

      .cls-9 {
        opacity: 0.246;
      }

      .cls-10 {
        fill: #dadae0;
        fill-rule: evenodd;
      }

      .cls-11 {
        opacity: 0.136;
      }

      .cls-12, .cls-13 {
        stroke: #0f1f2e;
        stroke-width: 1.2px;
      }

      .cls-13 {
        fill: #f0f0f0;
      }

      .cls-15, .cls-17 {
        stroke: none;
      }

      .cls-17 {
        fill: #0f1f2e;
      }
    </style>
    <clipPath id="clip-path">
      <rect id="사각형_6404" data-name="사각형 6404" class="cls-1" width="328" height="160" rx="16" transform="translate(23 180)"/>
    </clipPath>
  </defs>
  <g id="배너1" class="cls-2" transform="translate(-23 -180)">
    <g id="그룹_15883" data-name="그룹 15883">
      <rect id="사각형_4591" data-name="사각형 4591" class="cls-3" width="328" height="160" rx="16" transform="translate(23 180)"/>
    </g>
    <g id="top_img" transform="translate(355.622 418.018)">
      <g id="Title" transform="translate(-309.622 -199.328)">
        <text id="스탬프" class="cls-4" transform="translate(52 35.311)"><tspan x="-54.604" y="0">스탬프</tspan></text>
        <text id="찍고" class="cls-5" transform="translate(147 35.311)"><tspan x="-36.08" y="0">찍고</tspan></text>
        <text id="할인" class="cls-4" transform="translate(33 83.31)"><tspan x="-36.036" y="0">할인</tspan></text>
        <text id="받고" class="cls-5" transform="translate(109 83.311)"><tspan x="-36.454" y="0">받고</tspan></text>
      </g>
      <g id="get4" class="cls-6" transform="translate(-337.473 -487.622)">
        <g id="그룹_18080" data-name="그룹 18080" transform="translate(209.851 321.076)">
          <g id="타원_1982" data-name="타원 1982" class="cls-7" transform="translate(0 -0.472)">
            <circle class="cls-15" cx="36.5" cy="36.5" r="36.5"/>
            <circle class="cls-16" cx="36.5" cy="36.5" r="36"/>
          </g>
          <g id="타원_1983" data-name="타원 1983" class="cls-7" transform="translate(9 9.528)">
            <circle class="cls-15" cx="27" cy="27" r="27"/>
            <circle class="cls-16" cx="27" cy="27" r="27.5"/>
          </g>
          <g id="그룹_18073" data-name="그룹 18073" transform="translate(2.522 6.307)">
            <path id="패스_12493" data-name="패스 12493" class="cls-8" d="M410.79,116.687l-.423.722-3.011-1.763,2.277-3.888,2.938,1.72-.422.722L410.1,113l-.494.844,1.8,1.057-.409.7-1.805-1.056-.527.9Z" transform="translate(-360.416 -111.758)"/>
            <path id="패스_12494" data-name="패스 12494" class="cls-8" d="M419.821,119.264l-3,3.362-.639-.571.147-3.538-1.823,2.041-.769-.687,3-3.361.643.574-.152,3.534,1.823-2.041Z" transform="translate(-362.232 -113.111)"/>
            <path id="패스_12495" data-name="패스 12495" class="cls-8" d="M422.777,128.512l-.67.5-2.094-2.792,3.607-2.7,2.044,2.725-.669.5-1.422-1.9-.783.588,1.255,1.674-.649.486-1.256-1.675-.834.626Z" transform="translate(-364.02 -115.106)"/>
            <path id="패스_12496" data-name="패스 12496" class="cls-8" d="M425.564,135.273l.75-1.33-.022-.046-.4-.817-1.13.547-.454-.939,4.056-1.963.85,1.756a1.685,1.685,0,0,1-.619,2.474,1.465,1.465,0,0,1-1.685-.215l-.864,1.541Zm2.865-2.474-.37-.765-1.415.685.371.765c.278.573.685.734,1.125.521S428.706,133.372,428.428,132.8Z" transform="translate(-365.244 -117.158)"/>
            <path id="패스_12497" data-name="패스 12497" class="cls-8" d="M430.729,142.908l.233.923-1.773.446a3.1,3.1,0,0,1-1-1.627,2.334,2.334,0,1,1,4.524-1.119,2.4,2.4,0,0,1-.295,2.02l-.763-.5a1.52,1.52,0,0,0,.209-1.254,1.442,1.442,0,1,0-2.8.691,1.661,1.661,0,0,0,.386.74Z" transform="translate(-366.322 -119.691)"/>
            <path id="패스_12498" data-name="패스 12498" class="cls-8" d="M431.045,150.871l-1.594.081-.054-1.041,1.607-.082,2.8-1.89.056,1.106-1.938,1.3,2.06,1.1.052,1.022Z" transform="translate(-366.692 -122.059)"/>
            <path id="패스_12499" data-name="패스 12499" class="cls-8" d="M430.657,165.351c-.976-.242-1.4-1.124-1.112-2.293l.219-.882-1.207-.3.251-1.013,4.378,1.084-.47,1.9C432.428,165.013,431.639,165.595,430.657,165.351Zm.255-1.025c.481.119.84-.124.994-.743l.2-.825-1.52-.377-.2.826C430.232,163.825,430.436,164.208,430.912,164.326Z" transform="translate(-366.452 -125.739)"/>
            <path id="패스_12500" data-name="패스 12500" class="cls-8" d="M430.2,170.508l-.433.95-3.329-1.519L425.5,172l-.774-.353,1.372-3.006Z" transform="translate(-365.361 -127.952)"/>
            <path id="패스_12501" data-name="패스 12501" class="cls-8" d="M424.543,176.228l2.054,1.463-.6.848L423.97,177.1c-.7-.5-1.2-.4-1.567.116s-.294,1.022.4,1.519l2.022,1.441-.6.838-2.054-1.464a2.039,2.039,0,1,1,2.366-3.321Z" transform="translate(-364.365 -129.979)"/>
            <path id="패스_12502" data-name="패스 12502" class="cls-8" d="M418.115,181.747l.283.813a2.654,2.654,0,0,0-1.4.682c-.448.426-.489.748-.3.949.581.612,2.083-1.612,3.235-.4.527.556.517,1.443-.412,2.325a3.017,3.017,0,0,1-1.41.787l-.312-.8a2.546,2.546,0,0,0,1.15-.6c.448-.426.461-.758.267-.963-.572-.6-2.078,1.617-3.217.416-.519-.546-.509-1.443.426-2.33A3.209,3.209,0,0,1,418.115,181.747Z" transform="translate(-362.779 -131.684)"/>
            <path id="패스_12503" data-name="패스 12503" class="cls-8" d="M375.772,193.251l.2-.812,3.384.84-1.085,4.37-3.3-.82.2-.812,2.3.571.235-.949-2.029-.5.2-.787,2.029.5.251-1.011Z" transform="translate(-351.196 -134.728)"/>
            <path id="패스_12504" data-name="패스 12504" class="cls-8" d="M365.92,193.152l1.941-4.072.774.368.852,3.44,1.179-2.472.93.443-1.94,4.072-.78-.371-.847-3.437-1.177,2.472Z" transform="translate(-348.619 -133.772)"/>
            <path id="패스_12505" data-name="패스 12505" class="cls-8" d="M360.652,185.223l.5-.67,2.792,2.094-2.7,3.607-2.725-2.044.5-.67,1.9,1.422.587-.783-1.674-1.255.486-.649,1.675,1.256.626-.835Z" transform="translate(-346.512 -132.483)"/>
            <path id="패스_12506" data-name="패스 12506" class="cls-8" d="M356.231,179.463l-.346,1.487.034.038.609.672.93-.843.7.773-3.339,3.025-1.31-1.445a1.685,1.685,0,0,1-.1-2.548,1.463,1.463,0,0,1,1.677-.268l.394-1.722Zm-2.052,3.18.571.629,1.164-1.054-.571-.629c-.427-.473-.863-.512-1.226-.184S353.752,182.171,354.179,182.643Z" transform="translate(-344.905 -130.798)"/>
            <path id="패스_12507" data-name="패스 12507" class="cls-8" d="M349.306,173.858l-.484-.821,1.575-.93a3.115,3.115,0,0,1,1.42,1.278,2.335,2.335,0,1,1-4.024,2.354,2.4,2.4,0,0,1-.288-2.021l.873.263a1.526,1.526,0,0,0,.155,1.262,1.443,1.443,0,1,0,2.491-1.456,1.651,1.651,0,0,0-.579-.6Z" transform="translate(-343.344 -128.94)"/>
            <path id="패스_12508" data-name="패스 12508" class="cls-8" d="M346.61,166.773l1.507-.527.345.985-1.52.531-2.159,2.605-.366-1.046,1.493-1.8-2.288-.475-.339-.966Z" transform="translate(-342.174 -127.224)"/>
            <path id="패스_12509" data-name="패스 12509" class="cls-8" d="M343.289,152.478c1-.041,1.658.686,1.707,1.888l.037.906,1.24-.051.043,1.041-4.5.183-.079-1.948C341.687,153.3,342.28,152.52,343.289,152.478Zm.044,1.054c-.5.02-.771.353-.745.99l.034.848,1.562-.064-.035-.848C344.123,153.822,343.82,153.513,343.332,153.533Z" transform="translate(-341.733 -123.351)"/>
            <path id="패스_12510" data-name="패스 12510" class="cls-8" d="M341.893,147.694l.147-1.033,3.62.514.318-2.237.841.119-.465,3.27Z" transform="translate(-341.779 -121.205)"/>
            <path id="패스_12511" data-name="패스 12511" class="cls-8" d="M345.718,140.139l-2.388-.826.342-.986,2.35.813c.81.28,1.267.042,1.474-.554s-.006-1.066-.816-1.346l-2.35-.813.336-.974,2.388.825a2.043,2.043,0,1,1-1.335,3.862Z" transform="translate(-342.188 -118.504)"/>
            <path id="패스_12512" data-name="패스 12512" class="cls-8" d="M350.487,133l-.5-.7a2.656,2.656,0,0,0,1.155-1.049c.312-.534.26-.855.02-.994-.729-.425-1.548,2.132-2.994,1.29-.663-.386-.9-1.241-.257-2.349a3.022,3.022,0,0,1,1.133-1.152l.522.677a2.544,2.544,0,0,0-.935.9c-.311.534-.231.857.014,1,.718.418,1.541-2.136,2.972-1.3.652.379.894,1.243.245,2.357A3.212,3.212,0,0,1,350.487,133Z" transform="translate(-343.384 -116.396)"/>
          </g>
        </g>
        <g id="그룹_17439" data-name="그룹 17439" transform="translate(216.312 329.804)">
          <g id="Shape" transform="matrix(0.891, -0.454, 0.454, 0.891, 8.971, 27.931)">
            <path id="패스_309" data-name="패스 309" class="cls-8" d="M15.391,9.953h-5.4v5.383a.375.375,0,0,1-.751,0V9.953h-5.4a.374.374,0,1,1,0-.748h5.4V3.822a.375.375,0,0,1,.751,0V9.2h5.4a.374.374,0,1,1,0,.748M9.614,0a9.579,9.579,0,1,0,9.614,9.579A9.6,9.6,0,0,0,9.614,0" transform="translate(16.813 0)"/>
            <path id="패스_310" data-name="패스 310" class="cls-8" d="M3.811,7.537a6.161,6.161,0,0,1,11.6,0,.238.238,0,0,1-.225.318H4.036a.238.238,0,0,1-.225-.318m10,6.772a.158.158,0,0,0-.24-.04,6.163,6.163,0,0,1-9.764-2.649.238.238,0,0,1,.225-.318H16.25a10.089,10.089,0,0,1,1.356-7.032,9.582,9.582,0,1,0-2.247,12.986.159.159,0,0,0,.042-.206Z" transform="translate(0 0)"/>
          </g>
        </g>
      </g>
      <g id="bgimg" class="cls-9" transform="matrix(0.914, -0.407, 0.407, 0.914, -159.04, -223.896)">
        <path id="bgimg-2" data-name="bgimg" class="cls-10" d="M12.711,10.587S24.6,22.142,21.6,30.92c-1.262,3.7-12.15,3.171-21.6,4.261,0,0,15.847,2.032,19.576,8.461,2.97,7.17-4.055,16.126-9.7,23.214,0,0,14.644-10.31,22.174-6.456,7.028,4.508,5.781,13.482,4.482,26.935,0,0,7.747-21.1,14.3-21.819,6.1-.667,10.3,7.271,16.461,14.551,0,0-4.778-29.054.089-30.024s-14.991-6.4-13.1-33.884c0,0-4.105,5.932-13.025-16.16C41.256,0,41.866,30.785,12.711,10.587Z" transform="translate(118.894 119.888) rotate(169)"/>
      </g>
      <g id="도장" transform="translate(-100.105 -197.967)">
        <circle id="타원_1939" data-name="타원 1939" class="cls-11" cx="23.5" cy="23.5" r="23.5" transform="translate(0.483 19.949)"/>
        <g id="타원_1927" data-name="타원 1927" class="cls-12" transform="translate(4.483 8.949)">
          <ellipse class="cls-15" cx="26" cy="25.5" rx="26" ry="25.5"/>
          <ellipse class="cls-16" cx="26" cy="25.5" rx="25.4" ry="24.9"/>
        </g>
        <g id="타원_1928" data-name="타원 1928" class="cls-13" transform="translate(14.483 10.949)">
          <ellipse class="cls-15" cx="19.5" cy="19" rx="19.5" ry="19"/>
          <ellipse class="cls-16" cx="19.5" cy="19" rx="18.9" ry="18.4"/>
        </g>
        <g id="합치기_147" data-name="합치기 147" class="cls-14" transform="translate(26.483 -4.051)">
          <path class="cls-15" d="M 7.48898983001709 44.40000152587891 C 3.690390110015869 44.40000152587891 0.6000000238418579 41.30466842651367 0.6000000238418579 37.5 C 0.6000000238418579 35.120361328125 1.800719976425171 32.93938064575195 3.81193995475769 31.66587066650391 L 3.890389919281006 31.61618995666504 L 3.950150012969971 31.54512977600098 C 4.903289794921875 30.41173934936523 6.303209781646729 28.43659019470215 7.559629917144775 25.46332931518555 C 8.20403003692627 23.94086074829102 8.739350318908691 21.96050071716309 9.150600433349609 19.57756996154785 L 9.159339904785156 19.52692031860352 L 9.159339904785156 19.47553062438965 L 9.159339904785156 18.75 C 9.159339904785156 17.11536979675293 9.377109527587891 15.49312973022461 9.80659008026123 13.92833995819092 L 9.822649955749512 13.86983966827393 L 9.824618339538574 13.84019565582275 L 9.962089538574219 13.39379024505615 C 10.52577972412109 11.56340980529785 11.37446975708008 9.839550018310547 12.48458957672119 8.270090103149414 C 13.58032035827637 6.720990180969238 14.90503025054932 5.357890129089355 16.42193031311035 4.218669891357422 C 19.57411956787109 1.851320028305054 23.32867050170898 0.6000000238418579 27.27967071533203 0.6000000238418579 C 29.72551918029785 0.6000000238418579 32.09814071655273 1.079900026321411 34.33163070678711 2.026360034942627 C 36.48918914794922 2.94064998626709 38.42715072631836 4.24960994720459 40.09167861938477 5.916860103607178 C 41.75622177124023 7.584139823913574 43.06306838989258 9.525309562683105 43.97589874267578 11.6864595413208 C 44.92086029052734 13.92368030548096 45.40000152587891 16.30018997192383 45.40000152587891 18.75 C 45.40000152587891 23.59906005859375 43.51482009887695 28.15740966796875 40.09172058105469 31.58535003662109 C 38.42736053466797 33.25207138061523 36.48942184448242 34.56055068969727 34.33172988891602 35.47444152832031 C 32.0984001159668 36.42036819458008 29.72574043273926 36.90000152587891 27.27967071533203 36.90000152587891 C 26.86850929260254 36.90000152587891 26.42499923706055 36.90462112426758 25.95544052124023 36.90951156616211 L 25.87309074401855 36.91036987304688 L 25.81600952148438 36.91096878051758 L 25.76008033752441 36.92230987548828 C 23.26276016235352 37.42871856689453 21.13188934326172 37.96316146850586 19.42667007446289 38.51076126098633 C 15.55153560638428 39.75691223144531 13.6287727355957 41.18891525268555 12.82425308227539 41.93553924560547 L 12.81171035766602 41.92248153686523 L 12.37880039215088 42.36006927490234 C 11.07736015319824 43.67554092407227 9.340789794921875 44.40000152587891 7.48898983001709 44.40000152587891 Z"/>
          <path class="cls-17" d="M 7.48898983001709 43.79999923706055 C 9.179309844970703 43.79999923706055 10.76438999176025 43.13875961303711 11.95226955413818 41.93807983398438 L 12.81809997558594 41.06291961669922 L 12.8605842590332 41.10715866088867 C 13.89636325836182 40.26633834838867 15.84557151794434 39.03209686279297 19.24320983886719 37.93949890136719 C 20.96944046020508 37.38515090942383 23.12191009521484 36.84506988525391 25.64082908630371 36.33427810668945 L 25.75271034240723 36.31158828735352 L 25.86684989929199 36.31039810180664 L 25.94919013977051 36.30955123901367 C 26.42034912109375 36.30464172363281 26.86537933349609 36.29999923706055 27.27967071533203 36.29999923706055 C 31.95886039733887 36.29999923706055 36.35815811157227 34.47507095336914 39.66716003417969 31.16139030456543 C 42.97711944580078 27.84674072265625 44.79999923706055 23.4389591217041 44.79999923706055 18.75 C 44.79999923706055 14.06324005126953 42.97708892822266 9.656229972839355 39.66706848144531 6.340779781341553 C 36.3574104309082 3.025700092315674 31.95813941955566 1.200000047683716 27.27967071533203 1.200000047683716 C 23.45965003967285 1.200000047683716 19.8297004699707 2.409739971160889 16.78224945068359 4.698440074920654 C 15.31525039672852 5.800179958343506 14.03411960601807 7.118430137634277 12.97443962097168 8.616570472717285 C 11.90104961395264 10.13409042358398 11.08047962188721 11.80080032348633 10.53551959991455 13.57038021087646 L 10.41865730285645 13.94985103607178 L 10.41730976104736 13.97014045715332 L 10.3851900100708 14.08714962005615 C 9.96990966796875 15.60019969940186 9.759340286254883 17.16901016235352 9.759340286254883 18.75 L 9.759340286254883 19.47553062438965 L 9.759340286254883 19.57831954956055 L 9.741860389709473 19.67960929870605 C 9.322810173034668 22.10775947570801 8.774459838867188 24.13246917724609 8.112310409545898 25.69688034057617 C 6.826769828796387 28.73904037475586 5.3890700340271 30.76631927490234 4.409359931945801 31.93129920959473 L 4.289830207824707 32.07344055175781 L 4.132919788360596 32.17279052734375 C 2.296420097351074 33.33567047119141 1.200000047683716 35.3271484375 1.200000047683716 37.5 C 1.200000047683716 40.97383117675781 4.021230220794678 43.79999923706055 7.48898983001709 43.79999923706055 M 7.48898983001709 45 C 3.35359001159668 45 -3.552713678800501e-15 41.64550018310547 -3.552713678800501e-15 37.5 C -3.552713678800501e-15 34.83139038085938 1.392580032348633 32.48765182495117 3.490950107574463 31.15895080566406 C 4.327189922332764 30.16456985473633 5.743090152740479 28.22064018249512 7.006949901580811 25.22978019714355 C 7.72396993637085 23.53573036193848 8.219840049743652 21.44272041320801 8.55933952331543 19.47553062438965 C 8.55933952331543 19.22908973693848 8.55933952331543 18.98781967163086 8.55933952331543 18.75 C 8.55933952331543 17.02578926086426 8.792590141296387 15.35587024688721 9.22799015045166 13.76953029632568 C 9.256500244140625 13.34041976928711 9.265999794006348 13.09570026397705 9.265999794006348 13.09570026397705 L 9.388669967651367 13.21720027923584 C 11.74534034729004 5.564680099487305 18.86286926269531 -3.552713678800501e-15 27.27967071533203 -3.552713678800501e-15 C 37.61687850952148 -3.552713678800501e-15 46 8.397859573364258 46 18.75 C 46 29.10816955566406 37.61687850952148 37.5 27.27967071533203 37.5 C 26.84773063659668 37.5 26.37692070007324 37.50516891479492 25.87932014465332 37.51034164428711 C 23.78871917724609 37.93428039550781 21.53399085998535 38.46421051025391 19.61012077331543 39.08203125 C 14.31538963317871 40.78469085693359 12.82520008087158 42.80273818969727 12.82520008087158 42.80273818969727 L 12.80533027648926 42.78205108642578 C 11.44902992248535 44.15296936035156 9.567500114440918 45 7.48898983001709 45 Z"/>
        </g>
        <path id="패스_11957" data-name="패스 11957" class="cls-3" d="M9291,12235.709a9.622,9.622,0,0,1-.749-.863c-.761-.525-1.2.295-.85.764a15.275,15.275,0,0,0,3.524,3.156c2.2,1.453,6.384,1.813,6.384,1.813l.105-1.123s-3.926-.33-5.633-1.42A12.315,12.315,0,0,1,9291,12235.709Z" transform="translate(-9246.869 -12207.207)"/>
      </g>
    </g>
  </g>
</svg>
