<svg xmlns="http://www.w3.org/2000/svg" xmlns:xlink="http://www.w3.org/1999/xlink" width="92" height="92" viewBox="0 0 92 92">
  <defs>
    <style>
      .cls-1 {
        fill: #f8f8f8;
      }

      .cls-1, .cls-2 {
        stroke: #6464ff;
      }

      .cls-1, .cls-2, .cls-5, .cls-6, .cls-9 {
        stroke-width: 1.5px;
      }

      .cls-2 {
        fill: #e0e0ff;
      }

      .cls-3 {
        fill: #6464ff;
      }

      .cls-4 {
        clip-path: url(#clip-path);
      }

      .cls-5 {
        fill: #9ea5b2;
      }

      .cls-5, .cls-6, .cls-9 {
        stroke: #0f1f2e;
      }

      .cls-5, .cls-6 {
        stroke-linecap: round;
        stroke-linejoin: round;
      }

      .cls-6 {
        fill: #fff;
      }

      .cls-7 {
        fill: #f5f5f5;
      }

      .cls-12, .cls-8 {
        fill: #0f1f2e;
      }

      .cls-9 {
        fill: #eefaff;
      }

      .cls-10, .cls-12 {
        stroke: none;
      }

      .cls-11 {
        fill: none;
      }
    </style>
    <clipPath id="clip-path">
      <circle id="타원_2010" data-name="타원 2010" class="cls-1" cx="34" cy="34" r="34" transform="translate(54.51 60.133)"/>
    </clipPath>
  </defs>
  <g id="get5" transform="translate(-58.851 -475)">
    <g id="그룹_18082" data-name="그룹 18082" transform="translate(58.851 475)">
      <g id="타원_1982" data-name="타원 1982" class="cls-2">
        <circle class="cls-10" cx="46" cy="46" r="46"/>
        <circle class="cls-11" cx="46" cy="46" r="45.25"/>
      </g>
      <g id="타원_1983" data-name="타원 1983" class="cls-1" transform="translate(12.001 12)">
        <circle class="cls-10" cx="34" cy="34" r="34"/>
        <circle class="cls-11" cx="34" cy="34" r="34.75"/>
      </g>
      <g id="그룹_18073" data-name="그룹 18073" transform="translate(3.199 8)">
        <path id="패스_12493" data-name="패스 12493" class="cls-3" d="M411.712,118.01l-.537.916-3.819-2.237,2.888-4.932,3.727,2.182-.535.916-2.594-1.518-.626,1.071,2.289,1.341-.519.887-2.29-1.34-.669,1.141Z" transform="translate(-347.814 -111.758)"/>
        <path id="패스_12494" data-name="패스 12494" class="cls-3" d="M421.455,120l-3.809,4.264-.81-.724.186-4.488-2.312,2.589-.975-.871,3.81-4.264.816.729-.192,4.483,2.313-2.59Z" transform="translate(-348.405 -112.198)"/>
        <path id="패스_12495" data-name="패스 12495" class="cls-3" d="M423.519,129.853l-.85.638-2.656-3.542,4.575-3.431,2.592,3.457-.849.637-1.8-2.405-.993.746,1.591,2.124-.823.617-1.593-2.124-1.058.794Z" transform="translate(-348.987 -112.848)"/>
        <path id="패스_12496" data-name="패스 12496" class="cls-3" d="M425.9,136.494l.952-1.687-.028-.059-.5-1.036-1.434.693-.576-1.19,5.146-2.491,1.079,2.227c.665,1.375.368,2.58-.786,3.138a1.859,1.859,0,0,1-2.137-.272l-1.1,1.954Zm3.634-3.138-.469-.971-1.795.868.47.971c.353.727.868.931,1.427.661S429.886,134.083,429.534,133.355Z" transform="translate(-349.385 -113.516)"/>
        <path id="패스_12497" data-name="패스 12497" class="cls-3" d="M431.434,143.79l.3,1.171-2.249.566a3.933,3.933,0,0,1-1.268-2.063,2.961,2.961,0,1,1,5.739-1.42,3.05,3.05,0,0,1-.374,2.562l-.968-.632a1.928,1.928,0,0,0,.265-1.591,1.83,1.83,0,1,0-3.552.876,2.107,2.107,0,0,0,.489.939Z" transform="translate(-349.736 -114.34)"/>
        <path id="패스_12498" data-name="패스 12498" class="cls-3" d="M431.488,151.658l-2.022.1-.068-1.321,2.039-.1,3.557-2.4.072,1.4L432.607,151l2.613,1.4.066,1.3Z" transform="translate(-349.857 -115.111)"/>
        <path id="패스_12499" data-name="패스 12499" class="cls-3" d="M431.221,166.556c-1.238-.307-1.777-1.425-1.41-2.909l.278-1.119-1.531-.379.318-1.285,5.553,1.376-.6,2.4C433.467,166.127,432.467,166.865,431.221,166.556Zm.323-1.3c.61.152,1.065-.157,1.26-.943l.259-1.047-1.928-.478-.259,1.048C430.681,164.62,430.941,165.106,431.544,165.255Z" transform="translate(-349.779 -116.309)"/>
        <path id="패스_12500" data-name="패스 12500" class="cls-3" d="M431.669,171.011l-.55,1.2-4.223-1.926-1.189,2.609-.982-.447,1.74-3.814Z" transform="translate(-349.424 -117.029)"/>
        <path id="패스_12501" data-name="패스 12501" class="cls-3" d="M425.434,176.354l2.6,1.855-.767,1.076-2.566-1.827c-.883-.63-1.523-.5-1.988.147s-.373,1.3.512,1.926l2.565,1.828-.758,1.063-2.6-1.856a2.586,2.586,0,1,1,3-4.213Z" transform="translate(-349.099 -117.689)"/>
        <path id="패스_12502" data-name="패스 12502" class="cls-3" d="M418.776,181.747l.359,1.032a3.367,3.367,0,0,0-1.779.866c-.569.54-.62.949-.378,1.2.737.776,2.642-2.045,4.1-.5.669.705.656,1.831-.523,2.95a3.827,3.827,0,0,1-1.788,1l-.4-1.009a3.23,3.23,0,0,0,1.459-.765c.569-.54.585-.961.339-1.221-.725-.765-2.636,2.051-4.081.527-.658-.693-.645-1.831.54-2.955A4.071,4.071,0,0,1,418.776,181.747Z" transform="translate(-348.583 -118.244)"/>
        <path id="패스_12503" data-name="패스 12503" class="cls-3" d="M375.987,193.469l.255-1.03,4.293,1.066-1.376,5.543-4.189-1.04.256-1.03,2.914.724.3-1.2-2.574-.639.249-1,2.573.639.318-1.283Z" transform="translate(-344.813 -119.235)"/>
        <path id="패스_12504" data-name="패스 12504" class="cls-3" d="M365.92,194.245l2.462-5.165.982.467,1.081,4.363,1.5-3.136,1.18.563-2.461,5.165-.989-.471-1.074-4.36-1.494,3.136Z" transform="translate(-343.974 -118.923)"/>
        <path id="패스_12505" data-name="패스 12505" class="cls-3" d="M361.225,185.4l.637-.849,3.542,2.656-3.431,4.575-3.457-2.592.637-.85,2.4,1.8.745-.994-2.123-1.592.617-.824,2.124,1.593.794-1.059Z" transform="translate(-343.288 -118.504)"/>
        <path id="패스_12506" data-name="패스 12506" class="cls-3" d="M357.132,179.685l-.439,1.886.044.048.773.853,1.18-1.069.889.981-4.235,3.837-1.661-1.833c-1.025-1.132-1.08-2.372-.13-3.232a1.856,1.856,0,0,1,2.127-.34l.5-2.184Zm-2.6,4.034.724.8,1.476-1.337-.724-.8c-.542-.6-1.1-.65-1.555-.233S353.987,183.121,354.529,183.719Z" transform="translate(-342.766 -117.955)"/>
        <path id="패스_12507" data-name="패스 12507" class="cls-3" d="M349.819,174.328l-.614-1.042,2-1.18a3.951,3.951,0,0,1,1.8,1.621,2.962,2.962,0,1,1-5.1,2.986,3.047,3.047,0,0,1-.366-2.564l1.107.333a1.936,1.936,0,0,0,.2,1.6A1.83,1.83,0,1,0,352,174.238a2.1,2.1,0,0,0-.735-.762Z" transform="translate(-342.258 -117.35)"/>
        <path id="패스_12508" data-name="패스 12508" class="cls-3" d="M347.5,166.958l1.912-.669.437,1.249-1.928.674-2.738,3.3-.465-1.327,1.894-2.281-2.9-.6-.43-1.226Z" transform="translate(-341.877 -116.792)"/>
        <path id="패스_12509" data-name="패스 12509" class="cls-3" d="M343.706,152.479c1.273-.052,2.1.87,2.165,2.4l.047,1.15,1.573-.064.054,1.321-5.709.232-.1-2.471C341.675,153.518,342.427,152.531,343.706,152.479Zm.055,1.337c-.629.025-.978.448-.945,1.256l.043,1.076,1.982-.081-.044-1.076C344.764,154.184,344.381,153.791,343.762,153.816Z" transform="translate(-341.733 -115.531)"/>
        <path id="패스_12510" data-name="패스 12510" class="cls-3" d="M341.893,148.434l.186-1.31,4.592.652.4-2.837,1.067.152-.59,4.147Z" transform="translate(-341.748 -114.833)"/>
        <path id="패스_12511" data-name="패스 12511" class="cls-3" d="M346.359,141.4l-3.029-1.048.434-1.251,2.981,1.032c1.028.356,1.607.054,1.869-.7s-.007-1.352-1.035-1.708l-2.982-1.032.426-1.236,3.029,1.047a2.592,2.592,0,1,1-1.694,4.9Z" transform="translate(-341.881 -113.954)"/>
        <path id="패스_12512" data-name="패스 12512" class="cls-3" d="M351.281,134.334l-.635-.89a3.369,3.369,0,0,0,1.465-1.331c.4-.678.329-1.084.025-1.261-.925-.539-1.964,2.7-3.8,1.636-.841-.49-1.145-1.574-.327-2.98a3.834,3.834,0,0,1,1.437-1.461l.662.859a3.228,3.228,0,0,0-1.186,1.143c-.395.678-.293,1.087.018,1.268.911.53,1.955-2.709,3.77-1.653.827.481,1.134,1.577.311,2.99A4.074,4.074,0,0,1,351.281,134.334Z" transform="translate(-342.27 -113.267)"/>
      </g>
    </g>
    <g id="그룹_18083" data-name="그룹 18083" transform="translate(53.785 469.814)">
      <g id="그룹_18050" data-name="그룹 18050" transform="translate(5.065 5.186)">
        <g id="그룹_18070" data-name="그룹 18070" transform="translate(-96.275 -235.405)">
          <path id="패스_12693" data-name="패스 12693" class="cls-3" d="M123.525,264.245l8.844,9.263a2.8,2.8,0,0,0,3.976,0l8.69-9.1a.928.928,0,0,1,.247-.179,3.193,3.193,0,0,0-1.2-.233H124.635a3.21,3.21,0,0,0-1.155.213C123.5,264.219,123.512,264.23,123.525,264.245Z" transform="translate(-0.864)"/>
          <path id="패스_12694" data-name="패스 12694" class="cls-3" d="M145.623,265.95a.859.859,0,0,1-.169.264l-8.595,9.1a4.7,4.7,0,0,1-6.731,0l-8.747-9.262c-.017-.019-.03-.04-.046-.06a2.622,2.622,0,0,0-.428,1.428V279.96a2.877,2.877,0,0,0,2.971,2.773h19.23a2.877,2.877,0,0,0,2.97-2.773V267.423A2.628,2.628,0,0,0,145.623,265.95Z" transform="translate(0 -0.658)"/>
        </g>
        <g id="마스크_그룹_311" data-name="마스크 그룹 311" class="cls-4" transform="translate(-42.509 -48.133)">
          <g id="그룹_18068" data-name="그룹 18068" transform="matrix(0.999, -0.052, 0.052, 0.999, 73.701, 81.458)">
            <g id="그룹_18066" data-name="그룹 18066" transform="translate(28.712 4.926)">
              <path id="패스_12688" data-name="패스 12688" class="cls-5" d="M-2.8,59l4,.479c.982.211,1.161.141,1.451-1.244L13.586,5.742c.324-1.411-2.028-5.993-2.64-7.142h0L9.656,2.919Z" transform="translate(0 0)"/>
            </g>
            <g id="그룹_18067" data-name="그룹 18067" transform="translate(0 0)">
              <path id="패스_12689" data-name="패스 12689" class="cls-6" d="M11.458,2.233.044,54.084a2.347,2.347,0,0,0,1.388,2.8L26.09,62.194c.982.211,2.018-.746,2.3-2.127L40.157,5.813c.319-1.408-.3-2.67-1.384-2.8l-24.891-3A2.47,2.47,0,0,0,11.458,2.233Z" transform="translate(0 0)"/>
              <g id="패스_12690" data-name="패스 12690" class="cls-7" transform="matrix(0.978, 0.208, -0.208, 0.978, 12.662, 3.677)">
                <path class="cls-10" d="M 1.152622938156128 48.08576583862305 C 0.9406155943870544 48.07755279541016 0.7589622139930725 47.87632751464844 0.7501506209373474 47.64038848876953 L 1.453478932380676 2.929677248001099 L 1.453668832778931 2.917227268218994 L 1.453458905220032 2.90477728843689 C 1.451448917388916 2.789997339248657 1.490068912506104 2.686367273330688 1.562198877334595 2.612967252731323 C 1.604818820953369 2.569587230682373 1.678528904914856 2.517887353897095 1.787628889083862 2.517887353897095 L 1.794218897819519 2.517947196960449 L 1.831828832626343 2.518647193908691 L 1.869328856468201 2.515587329864502 L 23.45643997192383 0.751431405544281 C 23.66026878356934 0.7711551189422607 23.83119010925293 0.9680739045143127 23.83885383605957 1.197305917739868 L 23.40923881530762 47.52010726928711 L 23.40914916992188 47.53014755249023 L 23.4093189239502 47.54016876220703 C 23.41132926940918 47.65493774414062 23.37270927429199 47.7585563659668 23.30058860778809 47.83195877075195 C 23.25795936584473 47.87533569335938 23.18423843383789 47.92705535888672 23.07511901855469 47.92705535888672 L 23.06855964660645 47.92699813842773 L 23.05882835388184 47.92681884765625 L 23.04909896850586 47.92688751220703 L 1.152622938156128 48.08576583862305 Z"/>
                <path class="cls-12" d="M 23.08569526672363 1.534233093261719 L 2.198654174804688 3.241176605224609 L 1.505067825317383 47.33319091796875 L 22.66236114501953 47.17967224121094 L 23.08569526672363 1.534233093261719 M 23.44336891174316 -3.814697265625e-06 C 24.06474876403809 0.01161575317382812 24.5776481628418 0.54522705078125 24.58893966674805 1.191867828369141 L 24.15920829772949 47.52706909179688 C 24.17037391662598 48.1665153503418 23.68680763244629 48.67705917358398 23.07515335083008 48.67705917358398 C 23.06828117370605 48.67705917358398 23.06144142150879 48.67699813842773 23.05453872680664 48.6768684387207 L 1.14556884765625 48.83583831787109 C 0.5241794586181641 48.8242073059082 0.01128959655761719 48.29059600830078 -1.9073486328125e-06 47.64395904541016 L 0.7035579681396484 2.917877197265625 C 0.6923942565917969 2.278430938720703 1.175970077514648 1.76788330078125 1.787626266479492 1.76788330078125 C 1.794496536254883 1.76788330078125 1.801336288452148 1.767948150634766 1.808238983154297 1.768077850341797 L 23.44336891174316 -3.814697265625e-06 Z"/>
              </g>
            </g>
            <path id="패스_12691" data-name="패스 12691" class="cls-8" d="M.026.91c-.11.621.141,1.049.537,1.111s.789-.268.9-.889S1.32.067.923.007.136.29.026.91Z" transform="translate(29.295 4.422)"/>
            <path id="패스_12692" data-name="패스 12692" class="cls-8" d="M.019.817c-.083.5.113.943.439.994l8.161.835c.325.051.661-.317.749-.82h0c.088-.5-.1-.952-.43-1L.76,0C.434-.045.1.319.019.817Z" transform="matrix(1, 0.017, -0.017, 1, 18.912, 3.123)"/>
            <g id="타원_2004" data-name="타원 2004" class="cls-9" transform="translate(23.52 16.905)">
              <circle class="cls-10" cx="3.5" cy="3.5" r="3.5"/>
              <circle class="cls-11" cx="3.5" cy="3.5" r="2.75"/>
            </g>
            <rect id="사각형_5919" data-name="사각형 5919" class="cls-8" width="2" height="7" transform="matrix(0.259, 0.966, -0.966, 0.259, 24.251, 19.869)"/>
            <g id="타원_2005" data-name="타원 2005" class="cls-9" transform="translate(11.809 20.062)">
              <circle class="cls-10" cx="3.5" cy="3.5" r="3.5"/>
              <circle class="cls-11" cx="3.5" cy="3.5" r="2.75"/>
            </g>
            <rect id="사각형_5920" data-name="사각형 5920" class="cls-8" width="2" height="7" transform="translate(22.772 29.229) rotate(135)"/>
            <g id="타원_2006" data-name="타원 2006" class="cls-9" transform="translate(19.995 27.864)">
              <circle class="cls-10" cx="3.5" cy="3.5" r="3.5"/>
              <circle class="cls-11" cx="3.5" cy="3.5" r="2.75"/>
            </g>
          </g>
        </g>
      </g>
    </g>
  </g>
</svg>
