<svg xmlns="http://www.w3.org/2000/svg" width="20.12" height="20.12" viewBox="0 0 20.12 20.12">
  <defs>
    <style>
      .cls-1 {
        fill: #fff;
      }
    </style>
  </defs>
  <path id="shape2" class="cls-1" d="M1733.173,844.575h-3.5a5.632,5.632,0,0,1-5.632-5.632v-3.5c-.541-.616-1.227-.24-1.227.3v3.2a5.632,5.632,0,0,1-5.632,5.632h-3.5c-.616.541-.241,1.227.295,1.227h3.2a5.632,5.632,0,0,1,5.632,5.632v3.5c.54.616,1.227.241,1.227-.3v-3.2a5.632,5.632,0,0,1,5.632-5.632h3.2c.535,0,.911-.686.295-1.227" transform="translate(-1713.372 -835.129)"/>
</svg>
