<svg xmlns="http://www.w3.org/2000/svg" xmlns:xlink="http://www.w3.org/1999/xlink" width="328" height="279" viewBox="0 0 328 279">
  <defs>
    <style>
      .cls-1, .cls-2 {
        fill: #fff;
      }

      .cls-1 {
        stroke: #707070;
      }

      .cls-3 {
        clip-path: url(#clip-path);
      }

      .cls-4 {
        fill: #d1d1d1;
        opacity: 0.38;
      }

      .cls-5, .cls-6, .cls-7 {
        fill: #222;
      }

      .cls-5 {
        font-size: 15px;
      }

      .cls-5, .cls-7 {
        font-family: NotoSansCJKkr-Medium, Noto Sans CJK KR;
        font-weight: 500;
      }

      .cls-6 {
        font-size: 25px;
        font-family: Montserrat-Bold, Montserrat;
        font-weight: 700;
      }

      .cls-7 {
        font-size: 14px;
      }

      .cls-8 {
        fill: none;
        stroke: #3cdb88;
        stroke-linecap: round;
        stroke-miterlimit: 10;
        stroke-width: 3px;
      }

      .cls-9 {
        fill: #3cdb88;
      }

      .cls-10 {
        filter: url(#빼기_99-2);
      }

      .cls-11 {
        filter: url(#빼기_99);
      }

      .cls-12 {
        filter: url(#사각형_5927);
      }
    </style>
    <clipPath id="clip-path">
      <rect id="사각형_5929" data-name="사각형 5929" class="cls-1" width="301" height="246" transform="translate(482 1222)"/>
    </clipPath>
    <filter id="사각형_5927" x="-20" y="-58" width="380" height="613" filterUnits="userSpaceOnUse">
      <feOffset dy="10" input="SourceAlpha"/>
      <feGaussianBlur stdDeviation="30" result="blur"/>
      <feFlood flood-opacity="0.122"/>
      <feComposite operator="in" in2="blur"/>
      <feComposite in="SourceGraphic"/>
    </filter>
    <filter id="빼기_99" x="46" y="45" width="244.001" height="158" filterUnits="userSpaceOnUse">
      <feOffset dy="10" input="SourceAlpha"/>
      <feGaussianBlur stdDeviation="15" result="blur-2"/>
      <feFlood flood-opacity="0.161"/>
      <feComposite operator="in" in2="blur-2"/>
      <feComposite in="SourceGraphic"/>
    </filter>
    <filter id="빼기_99-2" x="46" y="121" width="244.001" height="158" filterUnits="userSpaceOnUse">
      <feOffset dy="10" input="SourceAlpha"/>
      <feGaussianBlur stdDeviation="15" result="blur-3"/>
      <feFlood flood-opacity="0.161"/>
      <feComposite operator="in" in2="blur-3"/>
      <feComposite in="SourceGraphic"/>
    </filter>
  </defs>
  <g id="_2" data-name="2" transform="translate(-20 -1458)">
    <rect id="사각형_5944" data-name="사각형 5944" class="cls-2" width="328" height="246" rx="17" transform="translate(20 1458)"/>
    <g id="마스크_그룹_312" data-name="마스크 그룹 312" class="cls-3" transform="translate(-443 236)">
      <g id="그룹_18086" data-name="그룹 18086" transform="translate(532.425 1243.695)">
        <g class="cls-12" transform="matrix(1, 0, 0, 1, -69.42, -21.69)">
          <rect id="사각형_5927-2" data-name="사각형 5927" class="cls-2" width="200" height="433" rx="45" transform="translate(70 22)"/>
        </g>
        <circle id="타원_2013" data-name="타원 2013" class="cls-4" cx="2" cy="2" r="2" transform="translate(90.575 9.305)"/>
        <rect id="사각형_5928" data-name="사각형 5928" class="cls-4" width="14" height="4" rx="2" transform="translate(96.575 9.305)"/>
      </g>
    </g>
    <text id="쿠폰함" class="cls-5" transform="translate(188 1520)"><tspan x="-20.7" y="0">쿠폰함</tspan></text>
    <g id="그룹_15485" data-name="그룹 15485" transform="translate(111 1538)">
      <g id="그룹_15476" data-name="그룹 15476" transform="translate(0 0)">
        <g class="cls-11" transform="matrix(1, 0, 0, 1, -91, -80)">
          <path id="빼기_99-3" data-name="빼기 99" class="cls-2" d="M143,68H11A11,11,0,0,1,0,57V47.384a12.173,12.173,0,0,0,1.437.085,11.922,11.922,0,0,0,8.486-3.515,12,12,0,0,0,0-16.971,11.922,11.922,0,0,0-8.486-3.515A12.179,12.179,0,0,0,0,23.555V11A11,11,0,0,1,11,0H143a11,11,0,0,1,11,11v12.47a12,12,0,0,0,0,24V57a11,11,0,0,1-11,11Z" transform="translate(91 80)"/>
        </g>
        <text id="_44" data-name="$44" class="cls-6" transform="translate(38 43)"><tspan x="0" y="0">1,000</tspan></text>
        <text id="Popular" class="cls-7" transform="translate(107 40)"><tspan x="0" y="0">원</tspan></text>
      </g>
    </g>
    <g id="그룹_15574" data-name="그룹 15574" transform="translate(14 -1)">
      <g id="그룹_15573" data-name="그룹 15573" transform="translate(-4602.188 -10402.11)">
        <line id="선_9" data-name="선 9" class="cls-8" x1="2.757" transform="translate(4867.188 12019.882)"/>
        <line id="선_10" data-name="선 10" class="cls-8" x1="2.757" transform="translate(4888.067 12019.882)"/>
        <line id="선_11" data-name="선 11" class="cls-8" y2="2.757" transform="translate(4879.006 12028.944)"/>
        <line id="선_12" data-name="선 12" class="cls-8" y2="2.757" transform="translate(4879.006 12007.977)"/>
      </g>
      <path id="패스_9227" data-name="패스 9227" class="cls-9" d="M1737.544,846.661h-4.267a6.875,6.875,0,0,1-6.875-6.875v-4.268c-.661-.752-1.5-.293-1.5.361v3.907a6.875,6.875,0,0,1-6.875,6.875h-4.267c-.752.661-.294,1.5.36,1.5h3.907a6.875,6.875,0,0,1,6.875,6.875V859.3c.66.752,1.5.294,1.5-.36v-3.907a6.875,6.875,0,0,1,6.875-6.875h3.907c.654,0,1.112-.837.36-1.5" transform="translate(-1653.752 699.176)"/>
    </g>
    <g id="그룹_18087" data-name="그룹 18087" transform="translate(111 1614)">
      <g id="그룹_15476-2" data-name="그룹 15476" transform="translate(0 0)">
        <g class="cls-10" transform="matrix(1, 0, 0, 1, -91, -156)">
          <path id="빼기_99-4" data-name="빼기 99" class="cls-2" d="M143,68H11A11,11,0,0,1,0,57V47.384a12.173,12.173,0,0,0,1.437.085,11.922,11.922,0,0,0,8.486-3.515,12,12,0,0,0,0-16.971,11.922,11.922,0,0,0-8.486-3.515A12.179,12.179,0,0,0,0,23.555V11A11,11,0,0,1,11,0H143a11,11,0,0,1,11,11v12.47a12,12,0,0,0,0,24V57a11,11,0,0,1-11,11Z" transform="translate(91 156)"/>
        </g>
        <text id="_44-2" data-name="$44" class="cls-6" transform="translate(38 43)"><tspan x="0" y="0">1,000</tspan></text>
        <text id="Popular-2" data-name="Popular" class="cls-7" transform="translate(107 40)"><tspan x="0" y="0">원</tspan></text>
      </g>
    </g>
  </g>
</svg>
