<svg xmlns="http://www.w3.org/2000/svg" width="90.271" height="101.219" viewBox="0 0 90.271 101.219">
  <defs>
    <style>
      .cls-1 {
        fill: #dadae0;
        stroke: rgba(0,0,0,0);
        stroke-miterlimit: 10;
      }

      .cls-2 {
        opacity: 0.136;
      }

      .cls-3, .cls-5 {
        fill: #fff;
      }

      .cls-3, .cls-4 {
        stroke: #0f1f2e;
        stroke-width: 1.5px;
      }

      .cls-4 {
        fill: #f0f0f0;
      }

      .cls-6, .cls-9 {
        fill: #0f1f2e;
      }

      .cls-7, .cls-9 {
        stroke: none;
      }

      .cls-8 {
        fill: none;
      }
    </style>
  </defs>
  <g id="stamp" transform="translate(-202 -459.264)">
    <path id="빼기_154" data-name="빼기 154" class="cls-1" d="M-12317.847-12215.5c-2.441-7.519-4.844-13-7.141-16.284-1.127-1.614-2.836-3.538-4.583-3.538a2.175,2.175,0,0,0-1.372.475,45.243,45.243,0,0,0,3.289-9.409,45.715,45.715,0,0,0,1.154-10.226,45.207,45.207,0,0,0-3.6-17.774,45.362,45.362,0,0,0-9.821-14.494c.207-9.376-.816-20.409-.827-20.517,1.424,1.94,2.726,3.9,3.985,5.795l.006.008.009.015a60.854,60.854,0,0,0,6.153,8.28c2.31,2.392,4.49,3.506,6.862,3.506q.146,0,.293-.006c1.688-.066,3.672-1.335,5.9-3.77a52.094,52.094,0,0,0,5.75-8.007,121.142,121.142,0,0,0,6.089-11.548l0-.008q-.177,1.056-.351,2.08c-1.15,6.809-2.144,12.688-1.932,17.409a17.084,17.084,0,0,0,1.333,6.293,11.871,11.871,0,0,0,3.862,4.755,10.479,10.479,0,0,0,5.469,1.315c4.449,0,9.619-1.853,13.174-3.406a64.927,64.927,0,0,0,6.708-3.4l0,0c-3.221,3.508-7.23,7.87-9.966,12.339-3.067,5.011-3.96,9.235-2.728,12.916a12.989,12.989,0,0,0,4.875,4.885,38.341,38.341,0,0,0,7.141,3.436,68.239,68.239,0,0,0,9.26,2.7c-2.147.1-4.323.116-6.93.116h-1.5l-1.651,0a68.36,68.36,0,0,0-9.482.441c-2.814.432-4.442,1.259-4.976,2.527a12.563,12.563,0,0,0-.4,7.722,29.025,29.025,0,0,0,3.067,7.623,50.472,50.472,0,0,0,5.7,8.141c-7.477-5.993-13.885-9.032-19.048-9.032a10.808,10.808,0,0,0-7.567,2.916,17.16,17.16,0,0,0-4.132,6.414,33.254,33.254,0,0,0-2.071,9.325Z" transform="translate(12557 12775.485)"/>
    <g id="도장" transform="translate(167.288 470.25)">
      <circle id="타원_1939" data-name="타원 1939" class="cls-2" cx="26" cy="26" r="26" transform="translate(34.712 27.75)"/>
      <g id="타원_1927" data-name="타원 1927" class="cls-3" transform="translate(42.712 19.75)">
        <circle class="cls-7" cx="28.5" cy="28.5" r="28.5"/>
        <circle class="cls-8" cx="28.5" cy="28.5" r="27.75"/>
      </g>
      <g id="타원_1928" data-name="타원 1928" class="cls-4" transform="translate(52.712 21.75)">
        <ellipse class="cls-7" cx="22" cy="21.5" rx="22" ry="21.5"/>
        <ellipse class="cls-8" cx="22" cy="21.5" rx="21.25" ry="20.75"/>
      </g>
      <g id="합치기_147" data-name="합치기 147" class="cls-5" transform="translate(66.712 4.75)">
        <path class="cls-7" d="M 8.303019523620605 49.25 C 4.138269901275635 49.25 0.75 45.84812927246094 0.75 41.66667175292969 C 0.75 39.05104827880859 2.06673002243042 36.65391159057617 4.272250175476074 35.25431823730469 L 4.37028980255127 35.19210052490234 L 4.444920063018799 35.1031608581543 C 5.505360126495361 33.83943176269531 7.062670230865479 31.63756942749023 8.459650039672852 28.32448959350586 C 9.176509857177734 26.62711906433105 9.771809577941895 24.42065048217773 10.22883033752441 21.76675987243652 L 10.23970985412598 21.70359039306641 L 10.23970985412598 21.63948059082031 L 10.23970985412598 20.83333015441895 C 10.23970985412598 19.02438926696777 10.48015975952148 17.22917938232422 10.95438957214355 15.49759006500244 L 10.97437953948975 15.42459964752197 L 10.97647762298584 15.39297962188721 L 11.12609958648682 14.90608024597168 C 11.74847984313965 12.88068008422852 12.68554973602295 10.9731502532959 13.91127967834473 9.236479759216309 C 15.12108039855957 7.522379875183105 16.58367919921875 6.014110088348389 18.25847053527832 4.753580093383789 C 21.73835945129395 2.13440990447998 25.8831901550293 0.75 30.24485015869141 0.75 C 32.94493103027344 0.75 35.56412887573242 1.280920028686523 38.02970886230469 2.328010082244873 C 40.41164016723633 3.339580059051514 42.55118179321289 4.787849903106689 44.38890075683594 6.632589817047119 C 46.22676086425781 8.477479934692383 47.66967010498047 10.62545013427734 48.67755889892578 13.01685047149658 C 49.7209587097168 15.49248027801514 50.25 18.1223201751709 50.25 20.83333015441895 C 50.25 23.5459098815918 49.72095108032227 26.17671012878418 48.67755126953125 28.65267944335938 C 47.66973876953125 31.04417991638184 46.22684860229492 33.19202041625977 44.38895034790039 35.03652954101562 C 42.55141830444336 36.88066864013672 40.41189956665039 38.32841873168945 38.02983093261719 39.33955001831055 C 35.56441879272461 40.38605117797852 32.9451789855957 40.91667175292969 30.24485015869141 40.91667175292969 C 29.78853988647461 40.91667175292969 29.29659080505371 40.92179870605469 28.77576065063477 40.92723846435547 L 28.68449020385742 40.92818832397461 L 28.61298942565918 40.92892837524414 L 28.54291915893555 40.94316864013672 C 25.77102088928223 41.50650024414062 23.40542984008789 42.10113143920898 21.51189041137695 42.71054077148438 C 17.30306816101074 44.06695175170898 15.158860206604 45.62587738037109 14.22232532501221 46.47804641723633 L 14.2050895690918 46.4600715637207 L 13.66347026824951 47.00872039794922 C 12.23668956756592 48.45402908325195 10.33298015594482 49.25 8.303019523620605 49.25 Z"/>
        <path class="cls-9" d="M 8.303019523620605 48.5 C 10.13082027435303 48.5 11.84496974945068 47.78327178955078 13.12973022460938 46.48183059692383 L 14.21296977996826 45.384521484375 L 14.27449893951416 45.44869995117188 C 15.46868801116943 44.50493621826172 17.62913513183594 43.17388153076172 21.28211975097656 41.99660873413086 C 23.20195007324219 41.37873840332031 25.59457969665527 40.77703094482422 28.39355087280273 40.20819854736328 L 28.53368949890137 40.17972183227539 L 28.67667961120605 40.17823028564453 L 28.76792907714844 40.17728042602539 C 29.29077911376953 40.17182159423828 29.78462982177734 40.16667175292969 30.24485015869141 40.16667175292969 C 32.84392929077148 40.16667175292969 35.36457824707031 39.65610885620117 37.73677825927734 38.649169921875 C 40.02938079833984 37.67602157592773 42.08874893188477 36.28244018554688 43.85766983032227 34.50714874267578 C 45.62714004516602 32.73131942749023 47.01625061035156 30.66360092163086 47.98640823364258 28.36141967773438 C 48.99076080322266 25.97813987731934 49.5 23.4453296661377 49.5 20.83333015441895 C 49.5 18.22290992736816 48.99076080322266 15.69106960296631 47.9864387512207 13.30813026428223 C 47.01617813110352 11.00603008270264 45.62702941894531 8.938139915466309 43.85755920410156 7.161910057067871 C 42.08842086791992 5.386020183563232 40.02901840209961 3.991919994354248 37.73654174804688 3.018340110778809 C 35.36420059204102 2.010839939117432 32.84363174438477 1.5 30.24485015869141 1.5 C 26.04719924926758 1.5 22.05834007263184 2.832279920578003 18.7094898223877 5.352809906005859 C 17.09703063964844 6.56643009185791 15.68883991241455 8.018589973449707 14.52402973175049 9.668959617614746 C 13.34409999847412 11.34074974060059 12.44207000732422 13.17689037322998 11.84300994873047 15.12637996673584 L 11.7190523147583 15.52977180480957 L 11.71772956848145 15.54971981048584 L 11.67776012420654 15.6956901550293 C 11.22119998931885 17.36274909973145 10.98970985412598 19.09129905700684 10.98970985412598 20.83333015441895 L 10.98970985412598 21.63948059082031 L 10.98970985412598 21.76769065856934 L 10.96794986724854 21.89405059814453 C 10.50121021270752 24.60436058044434 9.889690399169922 26.86618041992188 9.150730133056641 28.61587905883789 C 7.717460155487061 32.01504135131836 6.113019943237305 34.28203964233398 5.019450187683105 35.58525848388672 L 4.870180130004883 35.76314926147461 L 4.674109935760498 35.88756942749023 C 2.686579942703247 37.14883041381836 1.5 39.30923843383789 1.5 41.66667175292969 C 1.5 45.4345817565918 4.551819801330566 48.5 8.303019523620605 48.5 M 8.303019523620605 50 C 3.718110084533691 50 -3.552713678800501e-15 46.27278900146484 -3.552713678800501e-15 41.66667175292969 C -3.552713678800501e-15 38.7015495300293 1.543949961662292 36.09738922119141 3.870399951934814 34.62105941772461 C 4.797530174255371 33.51618957519531 6.367340087890625 31.35626983642578 7.768569946289062 28.03309059143066 C 8.563529968261719 26.15081024169922 9.113300323486328 23.82525062561035 9.489709854125977 21.63948059082031 C 9.489709854125977 21.36565971374512 9.489709854125977 21.09757995605469 9.489709854125977 20.83333015441895 C 9.489709854125977 18.91754913330078 9.748310089111328 17.06208038330078 10.23103046417236 15.29948043823242 C 10.26263999938965 14.8226900100708 10.27317047119141 14.55078029632568 10.27317047119141 14.55078029632568 L 10.4091796875 14.6857795715332 C 13.02200984954834 6.182980060577393 20.91317939758301 -3.552713678800501e-15 30.24485015869141 -3.552713678800501e-15 C 41.70568084716797 -3.552713678800501e-15 51 9.330960273742676 51 20.83333015441895 C 51 32.34241104125977 41.70568084716797 41.66667175292969 30.24485015869141 41.66667175292969 C 29.76596069335938 41.66667175292969 29.24397087097168 41.67240905761719 28.69228935241699 41.67815017700195 C 26.37445068359375 42.14920043945312 23.8746395111084 42.73801040649414 21.74165916442871 43.42448043823242 C 15.87141036987305 45.31632995605469 14.21924018859863 47.55860137939453 14.21924018859863 47.55860137939453 L 14.19721031188965 47.53562164306641 C 12.69349002838135 49.05886840820312 10.60743999481201 50 8.303019523620605 50 Z"/>
      </g>
      <path id="패스_11957" data-name="패스 11957" class="cls-6" d="M9291.917,12236.261a15,15,0,0,1-1.149-1.327c-1.167-.8-1.835.454-1.3,1.174a18.31,18.31,0,0,0,5.341,4.708,19.206,19.206,0,0,0,7.423,2.4l.162-1.723a25.948,25.948,0,0,1-6.062-1.853A17.362,17.362,0,0,1,9291.917,12236.261Z" transform="translate(-9206.061 -12196.524)"/>
    </g>
  </g>
</svg>
