<svg xmlns="http://www.w3.org/2000/svg" xmlns:xlink="http://www.w3.org/1999/xlink" width="92" height="92" viewBox="0 0 92 92">
  <defs>
    <style>
      .cls-1, .cls-2 {
        fill: #6464ff;
      }

      .cls-1 {
        clip-rule: evenodd;
      }

      .cls-3 {
        fill: #f8f8f8;
      }

      .cls-3, .cls-4 {
        stroke: #6464ff;
        stroke-width: 1.5px;
      }

      .cls-4 {
        fill: #e0e0ff;
      }

      .cls-5 {
        clip-path: url(#clip-path);
      }

      .cls-6 {
        clip-path: url(#clip-path-2);
      }

      .cls-7 {
        clip-path: url(#clip-path-3);
      }

      .cls-8 {
        fill: #212121;
      }

      .cls-9 {
        fill: #313131;
      }

      .cls-10 {
        fill: #424242;
      }

      .cls-11 {
        fill: #4d2b61;
      }

      .cls-11, .cls-12, .cls-13, .cls-17, .cls-18 {
        stroke: #000;
        stroke-width: 1.3px;
      }

      .cls-12 {
        fill: #ededed;
      }

      .cls-13 {
        fill: #eefaff;
      }

      .cls-14 {
        fill: #121212;
      }

      .cls-15 {
        fill: #2b2b2b;
      }

      .cls-16 {
        fill: #f3f6e6;
      }

      .cls-17 {
        fill: #919191;
      }

      .cls-18 {
        fill: #fff;
      }

      .cls-19 {
        stroke: none;
      }

      .cls-20 {
        fill: none;
      }
    </style>
    <clipPath id="clip-path">
      <path id="패스_2833" data-name="패스 2833" class="cls-1" d="M4.369,0V20.816H0V0ZM8.738,0V20.816H6.117V0Zm4.806,0V20.816H10.486V0Zm3.5,0V20.816h-.874V0Zm3.5,0V20.816H18.35V0Zm3.5,0V20.816h-.874V0Zm6.554,0V20.816H27.525V0Zm3.5,0V20.816H32.331V0Z"/>
    </clipPath>
    <clipPath id="clip-path-2">
      <path id="패스_2832" data-name="패스 2832" class="cls-2" d="M0,442.541H169.288V0H0Z"/>
    </clipPath>
    <clipPath id="clip-path-3">
      <circle id="타원_2007" data-name="타원 2007" class="cls-3" cx="34" cy="34" r="34" transform="translate(0.13 0.129)"/>
    </clipPath>
  </defs>
  <g id="get2" transform="translate(-58.851 -475)">
    <g id="그룹_18076" data-name="그룹 18076" transform="translate(58.851 475)">
      <g id="타원_1982" data-name="타원 1982" class="cls-4">
        <circle class="cls-19" cx="46" cy="46" r="46"/>
        <circle class="cls-20" cx="46" cy="46" r="45.25"/>
      </g>
      <g id="타원_1983" data-name="타원 1983" class="cls-3" transform="translate(12.001 12)">
        <circle class="cls-19" cx="34" cy="34" r="34"/>
        <circle class="cls-20" cx="34" cy="34" r="34.75"/>
      </g>
      <g id="그룹_18073" data-name="그룹 18073" transform="translate(3.199 8)">
        <path id="패스_12493" data-name="패스 12493" class="cls-2" d="M411.712,118.01l-.537.916-3.819-2.237,2.888-4.932,3.727,2.182-.535.916-2.594-1.518-.626,1.071,2.289,1.341-.519.887-2.29-1.34-.669,1.141Z" transform="translate(-347.814 -111.758)"/>
        <path id="패스_12494" data-name="패스 12494" class="cls-2" d="M421.455,120l-3.809,4.264-.81-.724.186-4.488-2.312,2.589-.975-.871,3.81-4.264.816.729-.192,4.483,2.313-2.59Z" transform="translate(-348.405 -112.198)"/>
        <path id="패스_12495" data-name="패스 12495" class="cls-2" d="M423.519,129.853l-.85.638-2.656-3.542,4.575-3.431,2.592,3.457-.849.637-1.8-2.405-.993.746,1.591,2.124-.823.617-1.593-2.124-1.058.794Z" transform="translate(-348.987 -112.848)"/>
        <path id="패스_12496" data-name="패스 12496" class="cls-2" d="M425.9,136.494l.952-1.687-.028-.059-.5-1.036-1.434.693-.576-1.19,5.146-2.491,1.079,2.227c.665,1.375.368,2.58-.786,3.138a1.859,1.859,0,0,1-2.137-.272l-1.1,1.954Zm3.634-3.138-.469-.971-1.795.868.47.971c.353.727.868.931,1.427.661S429.886,134.083,429.534,133.355Z" transform="translate(-349.385 -113.516)"/>
        <path id="패스_12497" data-name="패스 12497" class="cls-2" d="M431.434,143.79l.3,1.171-2.249.566a3.933,3.933,0,0,1-1.268-2.063,2.961,2.961,0,1,1,5.739-1.42,3.05,3.05,0,0,1-.374,2.562l-.968-.632a1.928,1.928,0,0,0,.265-1.591,1.83,1.83,0,1,0-3.552.876,2.107,2.107,0,0,0,.489.939Z" transform="translate(-349.736 -114.34)"/>
        <path id="패스_12498" data-name="패스 12498" class="cls-2" d="M431.488,151.658l-2.022.1-.068-1.321,2.039-.1,3.557-2.4.072,1.4L432.607,151l2.613,1.4.066,1.3Z" transform="translate(-349.857 -115.111)"/>
        <path id="패스_12499" data-name="패스 12499" class="cls-2" d="M431.221,166.556c-1.238-.307-1.777-1.425-1.41-2.909l.278-1.119-1.531-.379.318-1.285,5.553,1.376-.6,2.4C433.467,166.127,432.467,166.865,431.221,166.556Zm.323-1.3c.61.152,1.065-.157,1.26-.943l.259-1.047-1.928-.478-.259,1.048C430.681,164.62,430.941,165.106,431.544,165.255Z" transform="translate(-349.779 -116.309)"/>
        <path id="패스_12500" data-name="패스 12500" class="cls-2" d="M431.669,171.011l-.55,1.2-4.223-1.926-1.189,2.609-.982-.447,1.74-3.814Z" transform="translate(-349.424 -117.029)"/>
        <path id="패스_12501" data-name="패스 12501" class="cls-2" d="M425.434,176.354l2.6,1.855-.767,1.076-2.566-1.827c-.883-.63-1.523-.5-1.988.147s-.373,1.3.512,1.926l2.565,1.828-.758,1.063-2.6-1.856a2.586,2.586,0,1,1,3-4.213Z" transform="translate(-349.099 -117.689)"/>
        <path id="패스_12502" data-name="패스 12502" class="cls-2" d="M418.776,181.747l.359,1.032a3.367,3.367,0,0,0-1.779.866c-.569.54-.62.949-.378,1.2.737.776,2.642-2.045,4.1-.5.669.705.656,1.831-.523,2.95a3.827,3.827,0,0,1-1.788,1l-.4-1.009a3.23,3.23,0,0,0,1.459-.765c.569-.54.585-.961.339-1.221-.725-.765-2.636,2.051-4.081.527-.658-.693-.645-1.831.54-2.955A4.071,4.071,0,0,1,418.776,181.747Z" transform="translate(-348.583 -118.244)"/>
        <path id="패스_12503" data-name="패스 12503" class="cls-2" d="M375.987,193.469l.255-1.03,4.293,1.066-1.376,5.543-4.189-1.04.256-1.03,2.914.724.3-1.2-2.574-.639.249-1,2.573.639.318-1.283Z" transform="translate(-344.813 -119.235)"/>
        <path id="패스_12504" data-name="패스 12504" class="cls-2" d="M365.92,194.245l2.462-5.165.982.467,1.081,4.363,1.5-3.136,1.18.563-2.461,5.165-.989-.471-1.074-4.36-1.494,3.136Z" transform="translate(-343.974 -118.923)"/>
        <path id="패스_12505" data-name="패스 12505" class="cls-2" d="M361.225,185.4l.637-.849,3.542,2.656-3.431,4.575-3.457-2.592.637-.85,2.4,1.8.745-.994-2.123-1.592.617-.824,2.124,1.593.794-1.059Z" transform="translate(-343.288 -118.504)"/>
        <path id="패스_12506" data-name="패스 12506" class="cls-2" d="M357.132,179.685l-.439,1.886.044.048.773.853,1.18-1.069.889.981-4.235,3.837-1.661-1.833c-1.025-1.132-1.08-2.372-.13-3.232a1.856,1.856,0,0,1,2.127-.34l.5-2.184Zm-2.6,4.034.724.8,1.476-1.337-.724-.8c-.542-.6-1.1-.65-1.555-.233S353.987,183.121,354.529,183.719Z" transform="translate(-342.766 -117.955)"/>
        <path id="패스_12507" data-name="패스 12507" class="cls-2" d="M349.819,174.328l-.614-1.042,2-1.18a3.951,3.951,0,0,1,1.8,1.621,2.962,2.962,0,1,1-5.1,2.986,3.047,3.047,0,0,1-.366-2.564l1.107.333a1.936,1.936,0,0,0,.2,1.6A1.83,1.83,0,1,0,352,174.238a2.1,2.1,0,0,0-.735-.762Z" transform="translate(-342.258 -117.35)"/>
        <path id="패스_12508" data-name="패스 12508" class="cls-2" d="M347.5,166.958l1.912-.669.437,1.249-1.928.674-2.738,3.3-.465-1.327,1.894-2.281-2.9-.6-.43-1.226Z" transform="translate(-341.877 -116.792)"/>
        <path id="패스_12509" data-name="패스 12509" class="cls-2" d="M343.706,152.479c1.273-.052,2.1.87,2.165,2.4l.047,1.15,1.573-.064.054,1.321-5.709.232-.1-2.471C341.675,153.518,342.427,152.531,343.706,152.479Zm.055,1.337c-.629.025-.978.448-.945,1.256l.043,1.076,1.982-.081-.044-1.076C344.764,154.184,344.381,153.791,343.762,153.816Z" transform="translate(-341.733 -115.531)"/>
        <path id="패스_12510" data-name="패스 12510" class="cls-2" d="M341.893,148.434l.186-1.31,4.592.652.4-2.837,1.067.152-.59,4.147Z" transform="translate(-341.748 -114.833)"/>
        <path id="패스_12511" data-name="패스 12511" class="cls-2" d="M346.359,141.4l-3.029-1.048.434-1.251,2.981,1.032c1.028.356,1.607.054,1.869-.7s-.007-1.352-1.035-1.708l-2.982-1.032.426-1.236,3.029,1.047a2.592,2.592,0,1,1-1.694,4.9Z" transform="translate(-341.881 -113.954)"/>
        <path id="패스_12512" data-name="패스 12512" class="cls-2" d="M351.281,134.334l-.635-.89a3.369,3.369,0,0,0,1.465-1.331c.4-.678.329-1.084.025-1.261-.925-.539-1.964,2.7-3.8,1.636-.841-.49-1.145-1.574-.327-2.98a3.834,3.834,0,0,1,1.437-1.461l.662.859a3.228,3.228,0,0,0-1.186,1.143c-.395.678-.293,1.087.018,1.268.911.53,1.955-2.709,3.77-1.653.827.481,1.134,1.577.311,2.99A4.074,4.074,0,0,1,351.281,134.334Z" transform="translate(-342.27 -113.267)"/>
      </g>
    </g>
    <g id="그룹_16565" data-name="그룹 16565" transform="translate(53.785 469.814)">
      <g id="그룹_15348" data-name="그룹 15348" transform="translate(2.065 6.186)">
        <g id="그룹_4528" data-name="그룹 4528" class="cls-5" transform="translate(28.122 27.183)">
          <g id="그룹_4527" data-name="그룹 4527" class="cls-6" transform="translate(-92.601 -89.857)">
            <path id="패스_2831" data-name="패스 2831" class="cls-2" d="M0,0H128.847V26.984H0Z" transform="translate(20.22 88.508)"/>
          </g>
        </g>
      </g>
      <g id="마스크_그룹_308" data-name="마스크 그룹 308" class="cls-7" transform="translate(16.937 17.057)">
        <g id="그룹_17397" data-name="그룹 17397" transform="translate(14.031 25.951)">
          <g id="그룹_13333" data-name="그룹 13333" transform="translate(41.24 20.123)">
            <path id="합치기_21" data-name="합치기 21" class="cls-8" d="M1.466,0,1.153,3A11.052,11.052,0,0,0,0,8.061a12.064,12.064,0,0,0,.33,2.832L0,14.062l1.466,2.06H5.2c2.874,0,5.2-3.609,5.2-8.061S8.079,0,5.2,0Z" transform="translate(10.409 16.122) rotate(180)"/>
            <ellipse id="타원_1236" data-name="타원 1236" class="cls-9" cx="5.204" cy="8.061" rx="5.204" ry="8.061" transform="translate(3.739 0)"/>
            <ellipse id="타원_1238" data-name="타원 1238" class="cls-10" cx="1.709" cy="2.648" rx="1.709" ry="2.648" transform="translate(6.377 5.413)"/>
          </g>
          <path id="사각형_4047" data-name="사각형 4047" class="cls-11" d="M0,0H57.909a0,0,0,0,1,0,0V3.88a6.474,6.474,0,0,1-6.474,6.474H0a0,0,0,0,1,0,0V0A0,0,0,0,1,0,0Z" transform="translate(17.156 18.543)"/>
          <path id="패스_7810" data-name="패스 7810" class="cls-12" d="M259.215,77.68l8.066-17.337h36.352c4.631,0,7.688,3.368,10.428,6.83s5.85,10.79,5.85,10.79Z" transform="translate(-244.966 -60.343)"/>
          <path id="합치기_24" data-name="합치기 24" class="cls-13" d="M12.046,13.593c-2.924-.206-4.125-.952-7.136-4.261S0,.356,0,.356L24.076,0h.836L21.147,13.593Z" transform="translate(69.724 16.497) rotate(180)"/>
          <path id="패스_7813" data-name="패스 7813" class="cls-13" d="M339.866,63.075H361.1l-4.736,14.943-23.51.918Z" transform="translate(-315.702 -60.328)"/>
          <g id="그룹_13327" data-name="그룹 13327" transform="translate(4.796 20.123)">
            <path id="합치기_21-2" data-name="합치기 21" class="cls-8" d="M1.466,0,1.153,3A11.052,11.052,0,0,0,0,8.061a12.064,12.064,0,0,0,.33,2.832L0,14.062l1.466,2.06H5.2c2.874,0,5.2-3.609,5.2-8.061S8.079,0,5.2,0Z" transform="translate(10.409 16.122) rotate(180)"/>
            <ellipse id="타원_1236-2" data-name="타원 1236" class="cls-9" cx="5.204" cy="8.061" rx="5.204" ry="8.061" transform="translate(3.739 0)"/>
            <ellipse id="타원_1238-2" data-name="타원 1238" class="cls-10" cx="1.709" cy="2.648" rx="1.709" ry="2.648" transform="translate(6.377 5.413)"/>
          </g>
          <g id="그룹_13328" data-name="그룹 13328" transform="translate(29.204 20.123)">
            <path id="합치기_23" data-name="합치기 23" class="cls-14" d="M1.464,0,1.152,3A11.056,11.056,0,0,0,0,8.061a12.058,12.058,0,0,0,.33,2.831L0,14.062,1.464,16.12H5.2c2.874,0,5.2-3.609,5.2-8.06S8.078,0,5.2,0Z" transform="translate(10.408 16.121) rotate(180)"/>
            <ellipse id="타원_1240" data-name="타원 1240" class="cls-15" cx="5.204" cy="8.061" rx="5.204" ry="8.061" transform="translate(3.74)"/>
            <ellipse id="타원_1241" data-name="타원 1241" class="cls-16" cx="1.91" cy="4.148" rx="1.91" ry="4.148" transform="translate(7.483 3.912)"/>
          </g>
          <g id="그룹_13329" data-name="그룹 13329" transform="translate(57.648 20.123)">
            <path id="합치기_22" data-name="합치기 22" class="cls-14" d="M1.465,0,1.152,3A11.053,11.053,0,0,0,0,8.061a12.057,12.057,0,0,0,.33,2.831L0,14.062l1.465,2.06H5.2c2.874,0,5.2-3.609,5.2-8.061S8.079,0,5.2,0Z" transform="translate(10.409 16.122) rotate(180)"/>
            <ellipse id="타원_1244" data-name="타원 1244" class="cls-15" cx="5.204" cy="8.061" rx="5.204" ry="8.061" transform="translate(3.74 0)"/>
            <ellipse id="타원_1245" data-name="타원 1245" class="cls-16" cx="1.91" cy="4.148" rx="1.91" ry="4.148" transform="translate(7.483 3.913)"/>
          </g>
          <path id="패스_7824" data-name="패스 7824" class="cls-12" d="M263.812,107.773c.7-7.679,6.75-13.537,13.982-13.537H332.84a4.073,4.073,0,0,1,3.936,4.2v4.015a7.982,7.982,0,0,1-4.011,7.026c.03-.386.046-.778.046-1.177,0-5.13-2.516-9.289-5.621-9.289s-5.621,4.159-5.621,9.289a15.2,15.2,0,0,0,.14,2.059H302.436a15.131,15.131,0,0,0,.14-2.059c0-5.13-2.516-9.289-5.621-9.289s-5.621,4.159-5.621,9.289a15.19,15.19,0,0,0,.14,2.059H266.234a2.507,2.507,0,0,1-2.422-2.584Z" transform="translate(-260.856 -79.401)"/>
          <rect id="사각형_4048" data-name="사각형 4048" class="cls-17" width="30.608" height="4.083" rx="2.041" transform="translate(0 28.184)"/>
          <ellipse id="타원_1248" data-name="타원 1248" class="cls-18" cx="1.664" cy="2.644" rx="1.664" ry="2.644" transform="matrix(-0.017, 1, -1, -0.017, 26.861, 23.022)"/>
          <path id="패스_7828" data-name="패스 7828" class="cls-18" d="M3,2.38C3,1.066,2.325,0,1.5,0S0,1.066,0,2.38.671,4.76,1.5,4.76,3,3.694,3,2.38Z" transform="translate(10.42 23.109) rotate(90)"/>
        </g>
      </g>
    </g>
  </g>
</svg>
