<svg xmlns="http://www.w3.org/2000/svg" width="254.412" height="138.584" viewBox="0 0 254.412 138.584">
  <defs>
    <style>
      .cls-1 {
        fill: #3fef91;
      }

      .cls-1, .cls-3 {
        opacity: 0.998;
      }

      .cls-2 {
        fill: #34c678;
      }

      .cls-3 {
        fill: #40ef91;
      }

      .cls-4 {
        fill: #4afe9f;
      }

      .cls-5 {
        fill: #219d5b;
      }

      .cls-6 {
        fill: #fff;
      }

      .cls-7 {
        fill: #147c45;
      }

      .cls-8 {
        fill: #eff;
      }

      .cls-9 {
        fill: #a7a7a7;
      }

      .cls-10 {
        fill: #0f1f2e;
        font-size: 11px;
        font-family: Whitney-Bold, Whitney;
        font-weight: 700;
      }
    </style>
  </defs>
  <g id="gs타워" transform="translate(14 -9.926)">
    <g id="건물" transform="translate(-62.427 -250.745)">
      <rect id="사각형_5921" data-name="사각형 5921" class="cls-1" width="32.027" height="84.997" transform="translate(133.904 260.671)"/>
      <rect id="사각형_5922" data-name="사각형 5922" class="cls-2" width="29.202" height="106.693" transform="translate(273.638 284.325)"/>
      <rect id="사각형_5923" data-name="사각형 5923" class="cls-2" width="23.988" height="58.565" transform="translate(168.434 268.239)"/>
      <rect id="사각형_5924" data-name="사각형 5924" class="cls-2" width="31.085" height="91.57" transform="translate(103.16 268.017)"/>
      <rect id="사각형_5940" data-name="사각형 5940" class="cls-3" width="32.027" height="73.997" transform="translate(245.904 271.671)"/>
    </g>
    <g id="그룹_15508" data-name="그룹 15508" transform="translate(-14 18)">
      <path id="패스_12364" data-name="패스 12364" class="cls-4" d="M0,0H28.2l12.03,18.73v97.645H0Z" transform="translate(17.564 13.634)"/>
      <rect id="사각형_5316" data-name="사각형 5316" class="cls-5" width="17.564" height="116.876" transform="translate(0 13.634)"/>
      <path id="패스_9224" data-name="패스 9224" class="cls-6" d="M0,0H28.382l5.256,7.645H0Z" transform="translate(17.564 21.435)"/>
      <rect id="사각형_5318" data-name="사각형 5318" class="cls-7" width="14.075" height="7.645" transform="translate(3.489 21.435)"/>
      <rect id="사각형_5319" data-name="사각형 5319" class="cls-6" width="36.753" height="7.645" transform="translate(17.564 34.903)"/>
      <rect id="사각형_5320" data-name="사각형 5320" class="cls-7" width="14.075" height="7.645" transform="translate(3.489 34.903)"/>
      <rect id="사각형_5321" data-name="사각형 5321" class="cls-6" width="36.753" height="7.645" transform="translate(17.564 48.371)"/>
      <rect id="사각형_5322" data-name="사각형 5322" class="cls-7" width="14.075" height="7.645" transform="translate(3.489 48.371)"/>
      <path id="패스_12338" data-name="패스 12338" class="cls-8" d="M0,7.03Z" transform="translate(17.564 20.281)"/>
      <path id="패스_12365" data-name="패스 12365" class="cls-8" d="M0,0H32.959V16.645H0Z" transform="translate(7.381 -3)"/>
      <rect id="사각형_5330" data-name="사각형 5330" class="cls-9" width="14.46" height="16.645" transform="translate(3.587 -3)"/>
      <text id="GS" class="cls-10" transform="translate(21.664 9.313)"><tspan x="0" y="0">GS</tspan></text>
      <rect id="사각형_5873" data-name="사각형 5873" class="cls-6" width="36.753" height="7.645" transform="translate(17.565 61.559)"/>
      <rect id="사각형_5874" data-name="사각형 5874" class="cls-7" width="14.075" height="7.645" transform="translate(3.489 61.559)"/>
    </g>
  </g>
</svg>
