<svg xmlns="http://www.w3.org/2000/svg" xmlns:xlink="http://www.w3.org/1999/xlink" width="418" height="785.001" viewBox="0 0 418 785.001">
  <defs>
    <style>
      .cls-1 {
        fill: #fff;
      }

      .cls-2 {
        fill: #f5f5f5;
      }

      .cls-3 {
        filter: url(#사각형_5827);
      }

      .cls-4 {
        filter: url(#빼기_80);
      }
    </style>
    <filter id="빼기_80" x="0" y="0" width="418" height="785.001" filterUnits="userSpaceOnUse">
      <feOffset dy="10" input="SourceAlpha"/>
      <feGaussianBlur stdDeviation="15" result="blur"/>
      <feFlood flood-color="#a8a8a8" flood-opacity="0.161"/>
      <feComposite operator="in" in2="blur"/>
      <feComposite in="SourceGraphic"/>
    </filter>
    <filter id="사각형_5827" x="36" y="645" width="346" height="97" filterUnits="userSpaceOnUse">
      <feOffset dy="3" input="SourceAlpha"/>
      <feGaussianBlur stdDeviation="3" result="blur-2"/>
      <feFlood flood-color="#a8a8a8" flood-opacity="0.161"/>
      <feComposite operator="in" in2="blur-2"/>
      <feComposite in="SourceGraphic"/>
    </filter>
  </defs>
  <g id="스템프bg" transform="translate(22 -211.369)">
    <g class="cls-4" transform="matrix(1, 0, 0, 1, -22, 211.37)">
      <path id="빼기_80-2" data-name="빼기 80" class="cls-1" d="M306,695H22A21.982,21.982,0,0,1,0,673V288.3a17.9,17.9,0,0,0,5.2-2.462,18.063,18.063,0,0,0,4.117-3.921A17.835,17.835,0,0,0,13,271a17.836,17.836,0,0,0-3.684-10.913A18.063,18.063,0,0,0,5.2,256.166,17.9,17.9,0,0,0,0,253.7V22A21.982,21.982,0,0,1,22,0H306a21.981,21.981,0,0,1,22,22V254.111a18.007,18.007,0,0,0,0,33.777V673a21.981,21.981,0,0,1-22,22Zm-7.5-427a3.5,3.5,0,1,0,3.5,3.5A3.5,3.5,0,0,0,298.5,268Zm-15,0a3.5,3.5,0,1,0,3.5,3.5A3.5,3.5,0,0,0,283.5,268Zm-15,0a3.5,3.5,0,1,0,3.5,3.5A3.5,3.5,0,0,0,268.5,268Zm-15,0a3.5,3.5,0,1,0,3.5,3.5A3.5,3.5,0,0,0,253.5,268Zm-15,0a3.5,3.5,0,1,0,3.5,3.5A3.5,3.5,0,0,0,238.5,268Zm-15,0a3.5,3.5,0,1,0,3.5,3.5A3.5,3.5,0,0,0,223.5,268Zm-15,0a3.5,3.5,0,1,0,3.5,3.5A3.5,3.5,0,0,0,208.5,268Zm-15,0a3.5,3.5,0,1,0,3.5,3.5A3.5,3.5,0,0,0,193.5,268Zm-15,0a3.5,3.5,0,1,0,3.5,3.5A3.5,3.5,0,0,0,178.5,268Zm-15,0a3.5,3.5,0,1,0,3.5,3.5A3.5,3.5,0,0,0,163.5,268Zm-15,0a3.5,3.5,0,1,0,3.5,3.5A3.5,3.5,0,0,0,148.5,268Zm-15,0a3.5,3.5,0,1,0,3.5,3.5A3.5,3.5,0,0,0,133.5,268Zm-15,0a3.5,3.5,0,1,0,3.5,3.5A3.5,3.5,0,0,0,118.5,268Zm-15,0a3.5,3.5,0,1,0,3.5,3.5A3.5,3.5,0,0,0,103.5,268Zm-15,0a3.5,3.5,0,1,0,3.5,3.5A3.5,3.5,0,0,0,88.5,268Zm-15,0a3.5,3.5,0,1,0,3.5,3.5A3.5,3.5,0,0,0,73.5,268Zm-15,0a3.5,3.5,0,1,0,3.5,3.5A3.5,3.5,0,0,0,58.5,268Zm-15,0a3.5,3.5,0,1,0,3.5,3.5A3.5,3.5,0,0,0,43.5,268Zm-15,0a3.5,3.5,0,1,0,3.5,3.5A3.5,3.5,0,0,0,28.5,268Z" transform="translate(45 35)"/>
    </g>
    <g class="cls-3" transform="matrix(1, 0, 0, 1, -22, 211.37)">
      <path id="사각형_5827-2" data-name="사각형 5827" class="cls-2" d="M0,0H328a0,0,0,0,1,0,0V57a22,22,0,0,1-22,22H22A22,22,0,0,1,0,57V0A0,0,0,0,1,0,0Z" transform="translate(45 651)"/>
    </g>
  </g>
</svg>
