<svg xmlns="http://www.w3.org/2000/svg" xmlns:xlink="http://www.w3.org/1999/xlink" width="418" height="326" viewBox="0 0 418 326">
  <defs>
    <style>
      .cls-1, .cls-6, .cls-8, .cls-9 {
        fill: #fff;
      }

      .cls-1, .cls-2, .cls-3, .cls-4, .cls-5 {
        stroke: #0f1f2e;
        stroke-linecap: round;
        stroke-width: 2px;
      }

      .cls-1, .cls-2, .cls-3, .cls-5 {
        stroke-linejoin: round;
      }

      .cls-2 {
        fill: #576877;
      }

      .cls-3 {
        fill: #7a7ea5;
      }

      .cls-11, .cls-4, .cls-5 {
        fill: none;
      }

      .cls-4 {
        stroke-miterlimit: 10;
      }

      .cls-6, .cls-7 {
        fill-rule: evenodd;
      }

      .cls-8 {
        stroke: #707070;
        opacity: 0;
      }

      .cls-10 {
        stroke: none;
      }

      .cls-12 {
        filter: url(#ë¹¼ê¸°_99);
      }
    </style>
    <filter id="ë¹¼ê¸°_99" x="0" y="106" width="418" height="220" filterUnits="userSpaceOnUse">
      <feOffset dy="10" input="SourceAlpha"/>
      <feGaussianBlur stdDeviation="15" result="blur"/>
      <feFlood flood-opacity="0.161"/>
      <feComposite operator="in" in2="blur"/>
      <feComposite in="SourceGraphic"/>
    </filter>
  </defs>
  <g id="topimg" transform="translate(31 -156)">
    <g id="ê·¸ë£¹_15953" data-name="ê·¸ë£¹ 15953" transform="translate(33.012 116.766)">
      <g id="ê·¸ë£¹_15917" data-name="ê·¸ë£¹ 15917" transform="translate(33.817 57.982)">
        <path id="íŒ¨ìŠ¤_9483" data-name="íŒ¨ìŠ¤ 9483" class="cls-1" d="M277.453,564.671V542.125l-25.366-11.991v26.753c-16.133,6.771-23.663,30.32-21.1,48.458V630.79l78.965-10.562-3.515-37.459C301.44,565.424,294.831,566.7,277.453,564.671Z" transform="translate(-202.364 -489.031)"/>
        <path id="íŒ¨ìŠ¤_9484" data-name="íŒ¨ìŠ¤ 9484" class="cls-2" d="M282.534,600s-4.268,6.123-10.787,6.123H258.924c-.193,1.59.973,21.178,0,28.117-1.145,8.166,16.511-19.7,11.477-54.224-2.213-15.174-9.194-31.77-17.284-41.017s-18.443-12.389-23.53-13.693-4.37-2.461-8.324-3l.1.242c-.306-.043-.61-.09-.918-.127a5.636,5.636,0,0,1-2.606,5.39c-4.57,1.761-8.647.628-12.479-.287s-9.654-6.185-9.732-6.151l-3.691,3.932a62.307,62.307,0,0,0-21.983,18.513c-9.607,12.837-12.641,29.9-14.135,36.2s-9.785,35.641-9.785,35.641-5.381-44.441,0-35.641a62.248,62.248,0,0,0,29.135,25.632l10.657,5.4s-.428,16.167,4.97,16.4l76.73,4.358s-1.341,1.066-2.392-4.358L261.1,615.654Z" transform="translate(-147.757 -454.878)"/>
        <path id="íŒ¨ìŠ¤_9496" data-name="íŒ¨ìŠ¤ 9496" class="cls-3" d="M239.755,762.317" transform="translate(-192.129 -624.558)"/>
        <path id="íŒ¨ìŠ¤_9506" data-name="íŒ¨ìŠ¤ 9506" class="cls-4" d="M276.729,569.286c8.493,7.464,29.614,12.672,35.39-5.1" transform="translate(-230.843 -493.881)"/>
        <path id="íŒ¨ìŠ¤_9512" data-name="íŒ¨ìŠ¤ 9512" class="cls-5" d="M204.008,703.836c10.552-1.287,18.531,6.949,23.164,15.7,3.089,6.435,1.03,9.266-5.4,5.4" transform="matrix(0.819, 0.574, -0.574, 0.819, 278.155, -577.293)"/>
      </g>
      <path id="Path" class="cls-6" d="M40.824,12.408c7.526,0,16.555,3.593,17.323,3.665h.021q.606,0,4.735,3.552l-2.981,5.727.241.227c1.155,1.09,2.14,2.084,2.918,2.867,6.353,6.4,9.054,30.981,7.557,39.737S63.793,87.858,50.884,87.858,24.627,78.391,22.415,76.01a6.323,6.323,0,0,0-4.97-2.281l-.225-.281-.271-.038a16.942,16.942,0,0,1-5.469-1.465c-2.152-1.2-4.518-7.5-4.518-8.891S3.43,51.679,3.36,50.621v-.029c0-.885-4.614-4.952-4.614-6.243S.181,44.155,1.111,39.6l.27-1.337c.99-4.846,2.712-13.76,10.1-17.246C19.6,17.189,33.222,12.408,40.824,12.408Z" transform="translate(58.347 37.656)"/>
      <path id="_-Ink" data-name="ðŸ–-Ink" class="cls-7" d="M7.725,20.332c4.038-4.22,26.96-10.748,38.557-9.365l.348.044a20.793,20.793,0,0,1,2.738.528,23.814,23.814,0,0,1,8.319,3.375c2.007,1.385,8.338,3.646,6.472,7.268a5.291,5.291,0,0,1,.483,4.157,4.926,4.926,0,0,1-.372,1.263,36.98,36.98,0,0,1,3.6,6.888,72.262,72.262,0,0,1,2.837,17.8c.5,11.272-.753,24.737-10.722,32.026a17.918,17.918,0,0,1-22.224-.953c-.384-.448.409-1.611.692-1.512,12.406,9.393,30.41,1.058,30.119-25.115l0-.512c-.085-8.369-.8-16.971-4.316-24.547A21.679,21.679,0,0,0,63.1,29.552q-.435-.773-.934-1.506a14.028,14.028,0,0,1-2.765-.5c-.312-.078-.62-.163-.929-.264-4.507.242-8.913.505-13.432.755l-1.412.087c-3.828.242-7.787.631-10.877,2.962-3.031,2.123-3.045,6.309-5.64,8.64-3.7,2.473-3.727,4.7-4.44,8.348.053,2.747,1.987,6.739-1.563,7.9.6.841-.236.437-.3.142l-.018,0c.534.977-.251.362-.32.048a.306.306,0,0,1-.126-.083c.538.856-.331.257-.28.1a4.287,4.287,0,0,0-4.684-1.4.081.081,0,0,1-.127.031C8.845,56.176,10.5,69.242,17.067,67.979c.281-.056.274.076.33.089-.152-.392.276-.233.271-.15h.026c.021,0,.012,0,.028,0-.147-.8.679.36.614.408a.214.214,0,0,1,.079-.026l-.028-.076c-.137-.359-.125-.21-.124-.416-.1-.254-.11-.143-.086-.309.362-.276.469.561.589.623-.207-.284-.042-.516.153-.362a26.976,26.976,0,0,0,5.859,8.211c.27.21.543.416.827.611,1.05.9,4.3,3.154,4.132,3.081-.146-.045.047.86,0,.839a18.279,18.279,0,0,1-1.985-.289c-.364-.261-.731-.517-1.1-.776a8.419,8.419,0,0,1-.993-.684,21.492,21.492,0,0,1-5.449-4.97c-2.463,2.1-7.387.094-10.432-1.55-2.694-1.469-3.753-4.186-4.027-7.116-.569-3.944-3.842-5.294-3.614-13.947a.053.053,0,0,1-.017,0,1.722,1.722,0,0,1-.344-.14,1.723,1.723,0,0,1-.317-.192l-.122-.167h0a1.04,1.04,0,0,1-.164-.107l-.023.029c-.072.085-.023-.043-.019-.068L.92,50.241c-.5-.678-1.057-1.438-1.508-2.047l-.014.025c-.01.019-.016.032-.011.038a12.981,12.981,0,0,1-2.361-5.123,8.875,8.875,0,0,1,.087-4.04C-1.649,34.661,2.4,24.631,7.725,20.332ZM46.23,13.195c-7.864-.666-15.6,1.04-23.1,3.106l-.518.147c-4.267,1.2-8.779,2.278-12.385,4.845-5.038,3.8-7.64,9.846-9.91,15.428A10.178,10.178,0,0,0,2.331,48.439,46.828,46.828,0,0,1,4,40c.173-.433.042-.575.415-.631C4.977,46.833,2.206,52.35,7.69,61.2c2.38,4.176-.375,7.231,6.345,9.429l.182.068a8.039,8.039,0,0,0,4.3.64l-.123-.2c-.125-.2-.163-.3.019-.388,0-.01-.012-.02-.018-.031q-.221-.411-.426-.832c-.055.018-.11.031-.168.046.037.068.042.135-.062.158a2.964,2.964,0,0,1-1.137.151l-.083-.006a3.894,3.894,0,0,1-.963-.178c-.082-.013-.164-.026-.245-.043a5.7,5.7,0,0,1-2.183-1.053c-6.213-3.475-5.571-15.3,2.087-16.423.157-7.448,3.754-20.014,9.725-27.112,5.4-6.528,20.129-9.358,30.379-8.36l.448.148a43.319,43.319,0,0,1,4.671,1.154A14.338,14.338,0,0,0,56.685,16.5a27.373,27.373,0,0,0-8.608-3.064A8.6,8.6,0,0,0,46.23,13.195ZM14.865,58.525c.412-.22.365-.008.459-.069,2.962-.238,6.155,2.316,7.811,4.445-.131.134-.485-.263-.547-.325a.076.076,0,0,1-.028.018l.046.064c.671.948-.659-.168-.784-.4a.1.1,0,0,1-.069.013c.105.1.428.368.483.556l.085.07c.805.679.738,1.19-.176.226a.142.142,0,0,1,.015.119l.031.021c.449.309.819,1.172-.12.286.1.647-.931-.6-.964-.594a13.908,13.908,0,0,0-6.634-2.894l-.077-.009c-.41-.052-.6-.172-.46-.435-.5-.118-.386-.363-.148-.355-.356-.23-.036-.451.171-.365-.142-.387.428-.129.479-.183C14.736,58.266,14.816,58.64,14.865,58.525Zm-6.208-24c1.423-.513,5.625,1.023,5.288,3.057a.992.992,0,0,1-1.323.471l-.605-.4c-1.053-.694-2-1.3-3.133-1.909C8.269,35.445,8,34.807,8.657,34.527ZM16.75,31.5l-.549-.352c-2.965-1.911-7.156-4.806.277-1.811.847.358,1.973.569,2.435,1.364C19.639,32.169,17.728,32.267,16.75,31.5Zm.333-8.574c-.238-.889,2.722.154,3.584.429l.131.049a4.594,4.594,0,0,1,2.3,1.305c.587.984-.6,1.188-1.338.744C20.251,24.485,18.6,23.752,17.084,22.929Zm7.528-4.142c-1.666-1.792,2.793-.075,3.461.4l.019.014a.77.77,0,0,1-.071,1.308C26.688,20.536,25.708,19.443,24.611,18.788Zm7.582-1.963c-2.649-1.875.84-.983,2.052-.248C35.072,17.294,34.221,18.5,32.194,16.824Z" transform="translate(59.594 38.315)"/>
      <g id="face_Smiling" data-name="face/Smiling" transform="translate(95.292 82.396)">
        <path id="_-Ink-2" data-name="ðŸ–-Ink" class="cls-7" d="M26.489,37.63a6.749,6.749,0,0,1-2.841-2.152,1.277,1.277,0,0,1-.266-1,1.446,1.446,0,0,1,.572-.907,1.385,1.385,0,0,1,1.026-.273,1.287,1.287,0,0,1,.867.565l.051.07a4.46,4.46,0,0,0,1.64,1.355,3.746,3.746,0,0,0,2.03.351,5.468,5.468,0,0,0,3.308-1.867c.124-.125.248-.253.373-.384a.585.585,0,0,1,.309-.235.686.686,0,0,1,.762.257.605.605,0,0,1,.106.406,4.18,4.18,0,0,1-1.407,2.654,6.106,6.106,0,0,1-6.531,1.165Zm4.023-13.791c1.254.751,3.165,2.5,1.816,4.362-1.588,1.641-3.874-.241-5-1.091-1.045-.659-2.218,1.037-1.249,1.807,8.141,5.936,11.445-4.881,5.069-5.96C30.445,22.837,30.184,23.606,30.513,23.839Zm-14.589-4.9c.139-1.694,2.758-2.078,3.018-.4a6.77,6.77,0,0,1-.728,4.232,1.284,1.284,0,0,1-2.43-.487A13.445,13.445,0,0,1,15.924,18.934Zm19.938-.75a1.407,1.407,0,0,1,1.524-.611c1.974.568,1.392,3.327.7,4.67a1.386,1.386,0,0,1-2.144.272c-.9-1.047-1.326-3.139-.186-4.17A1.42,1.42,0,0,1,35.862,18.184ZM17.628,10.375l.312-.054c.964-.164,2.164-.322,2.846.441a1.1,1.1,0,0,1,0,1.545c-.856.682-1.8.418-2.827.475a11.406,11.406,0,0,0-2.471.415,16.889,16.889,0,0,0-4.765,2.427c-.2.132-.4-.12-.309-.3a9.786,9.786,0,0,1,4.3-3.943A10.735,10.735,0,0,1,17.628,10.375Z" transform="translate(-10.389 -6.828)"/>
        <path id="_-Ink-3" data-name="ðŸ–-Ink" class="cls-7" d="M1.589.03,1.828.08C4.424.625,7.8,1.707,9.037,4.226c.048.356,0,.432-.041.481l-.013.017a.332.332,0,0,1-.215.149L8.636,4.84a7.568,7.568,0,0,1-1.442-.56l-.469-.229a13.09,13.09,0,0,0-1.673-.709A19.992,19.992,0,0,0,1.245,2.5a1.586,1.586,0,0,1-.764-.289,1.142,1.142,0,0,1-.429-.643A1.134,1.134,0,0,1,.18.6a1.217,1.217,0,0,1,.6-.51A1.428,1.428,0,0,1,1.589.03Z" transform="matrix(0.966, -0.259, 0.259, 0.966, 23.086, 2.344)"/>
      </g>
      <g id="ê·¸ë£¹_15930" data-name="ê·¸ë£¹ 15930" transform="translate(105.077 130.055)">
        <path id="íŒ¨ìŠ¤_9516" data-name="íŒ¨ìŠ¤ 9516" class="cls-1" d="M611.337,554.987l.763-14.617,20.073,1.049-.764,14.617a39.471,39.471,0,0,1,27.374,39.646l-1.907,36.484-78.8-4.119,1.907-36.485A39.471,39.471,0,0,1,611.337,554.987Z" transform="translate(-520.093 -540.37)"/>
        <path id="íŒ¨ìŠ¤_9517" data-name="íŒ¨ìŠ¤ 9517" class="cls-1" d="M521.605,672.862c-1.367-.862-2.748-1.7-4.037-2.657-2.711-2.005-5.443-4.017-8.039-6.172a32.957,32.957,0,0,1-4.491-4.518c-5.188-6.368-4.749,12.243,0,4.518,4.347-7.072,17.137-34.433,24.321-51.136s18.491-22.857,23.515-25.641c0,0,3.49,5.439,13.853,5.865s23.153-5.865,23.153-5.865c3.543.973,20.656,5.031,29.324,20.043,13.163,19.922,6.139,22.644,3.438,47.866,0,0-14.965,19.919-22.434,30.56s-13.735,9.949-19.719,10.5l-53.01-10.5c-.337-.065.338-7.764,0-8.166A24.331,24.331,0,0,0,521.605,672.862Z" transform="translate(-471.883 -570.142)"/>
        <path id="íŒ¨ìŠ¤_9529" data-name="íŒ¨ìŠ¤ 9529" class="cls-1" d="M664.621,570.849" transform="translate(-573.228 -559.082)"/>
        <path id="íŒ¨ìŠ¤_9535" data-name="íŒ¨ìŠ¤ 9535" class="cls-5" d="M743.928,664.9c-.772,3.6,2.059,8.56,0,12.677-2.316,4.633-5.147,10.038-5.92,15.186" transform="translate(-621.283 -614.358)"/>
        <path id="íŒ¨ìŠ¤_9537" data-name="íŒ¨ìŠ¤ 9537" class="cls-5" d="M703.507,821.918a30.309,30.309,0,0,1,4.826-2.7" transform="translate(-605.102 -714.562)"/>
        <path id="íŒ¨ìŠ¤_9538" data-name="íŒ¨ìŠ¤ 9538" class="cls-5" d="M724.507,827.838a17.45,17.45,0,0,0,5.212-2.123" transform="translate(-617.994 -718.553)"/>
        <path id="íŒ¨ìŠ¤_9539" data-name="íŒ¨ìŠ¤ 9539" class="cls-5" d="M740.507,845.646a21.018,21.018,0,0,1,4.826-1.93" transform="translate(-627.817 -729.603)"/>
        <path id="íŒ¨ìŠ¤_9540" data-name="íŒ¨ìŠ¤ 9540" class="cls-5" d="M705.507,814.437c4.054-2.7,14.478,1.93,17.566,6.177" transform="translate(-606.329 -711.135)"/>
        <path id="íŒ¨ìŠ¤_9541" data-name="íŒ¨ìŠ¤ 9541" class="cls-5" d="M747.507,773.687c1.93-2.123,14.284-8.687,13.9-1.351-.193,3.861-8.107,3.282-10.231,2.7" transform="translate(-632.115 -677.705)"/>
        <path id="íŒ¨ìŠ¤_9542" data-name="íŒ¨ìŠ¤ 9542" class="cls-5" d="M717.889,755.215c-5.212,4.44-4.44,11.775-10.81,15.443-3.089,1.737-6.756,3.282-9.073,5.984" transform="translate(-603.725 -674.27)"/>
        <path id="íŒ¨ìŠ¤_9543" data-name="íŒ¨ìŠ¤ 9543" class="cls-5" d="M687.1,817.215c-1.351.386-2.509.62-3.089,1.585" transform="translate(-593.13 -713.334)"/>
        <path id="íŒ¨ìŠ¤_9544" data-name="íŒ¨ìŠ¤ 9544" class="cls-5" d="M585.007,676.715a16.638,16.638,0,0,1,1.158,6.563" transform="translate(-524.35 -624.077)"/>
        <path id="íŒ¨ìŠ¤_9545" data-name="íŒ¨ìŠ¤ 9545" class="cls-5" d="M563.34,699.382c4.89,2.574,1.8,9.266,4.89,12.1,2.573,2.574,3.088-2.316,2.831-4.633" transform="translate(-511.048 -637.993)"/>
        <path id="íŒ¨ìŠ¤_9546" data-name="íŒ¨ìŠ¤ 9546" class="cls-5" d="M578.989,743.382c-1.544,8.751-.772,18.017-2.316,26.768" transform="translate(-519.234 -665.006)"/>
        <path id="íŒ¨ìŠ¤_9548" data-name="íŒ¨ìŠ¤ 9548" class="cls-5" d="M636.885,591.383a42.746,42.746,0,0,1-1.544,4.118" transform="translate(-555.252 -571.689)"/>
        <path id="íŒ¨ìŠ¤_9549" data-name="íŒ¨ìŠ¤ 9549" class="cls-5" d="M652.779,591.383c-.257,1.287-.515,2.831-.772,4.118" transform="translate(-565.484 -568.689)"/>
        <path id="íŒ¨ìŠ¤_9550" data-name="íŒ¨ìŠ¤ 9550" class="cls-5" d="M672.265,593.383a22.121,22.121,0,0,0-.258,4.118" transform="translate(-577.762 -568.917)"/>
        <path id="íŒ¨ìŠ¤_9551" data-name="íŒ¨ìŠ¤ 9551" class="cls-5" d="M690.007,590.728a26.5,26.5,0,0,1,.257,4.886" transform="translate(-587.813 -566.286)"/>
        <path id="íŒ¨ìŠ¤_9552" data-name="íŒ¨ìŠ¤ 9552" class="cls-5" d="M710.007,594.716v4.375" transform="translate(-600.092 -571.735)"/>
        <path id="íŒ¨ìŠ¤_9553" data-name="íŒ¨ìŠ¤ 9553" class="cls-5" d="M728.007,595.383V599.5" transform="translate(-612.143 -573.144)"/>
      </g>
      <g id="head_Medium-Bangs-2" data-name="head/Medium-Bangs-2" transform="translate(176.496 66.982)">
        <path id="_-Background" data-name="ðŸŽ¨-Background" class="cls-6" d="M-9.894,25.842c.353-.891.977-2.01,2.02-2.055.807-2.467,2.812-4.98,5.6-4.913C5.917,10.5,16.226,10.891,27,12.665c5.687,1.055,11.461,3.121,15.7,7.2,5.08,4.8,7.058,13.175,3.08,19.244,3.438,1.843,3.5,6.217,2.034,9.373,1.767,1.223,1.875,4.19-.115,5.123a1.809,1.809,0,0,1-.171,1.267,16.8,16.8,0,0,0,3.333,1.95,1.57,1.57,0,0,1,.852,1.032C55.206,60.139,63.9,65.73,63.795,70.18c.051,2.322-1.67,3.849-3.762,4.458,1.245,2.489,2.189,5.4,1,8.082a17.357,17.357,0,0,1-2.921,3.24c-.217.186-3.757-1.44-5.477-2.269a3.433,3.433,0,0,1-4.654,2.564c-1.9-.572-3.063-2.178-4.259-3.639-1.588,3.465-6.259,3.5-9.279,2.011a11.89,11.89,0,0,1-5.921-6.317A32.554,32.554,0,0,1,8.664,80.973a1.932,1.932,0,0,1-2.2.967c-3.523-1.059-7.417-1.119-10.4-3.546-6.224-4.469-4.365-13.52-3.931-20.543C-11.3,51.8-10.21,44.6-8.938,37.672a39.927,39.927,0,0,0-2.321-5.758C-12.182,29.9-12.162,26.918-9.894,25.842Z" transform="translate(12.479 -10.671)"/>
        <path id="_-Ink-4" data-name="ðŸ–-Ink" class="cls-7" d="M48.408,55.251a.329.329,0,0,0-.252.6c1.977,1.258,4.019,2.381,5.929,3.75a38.717,38.717,0,0,1,5.058,4.377l.173.178c1.414,1.456,2.981,3.307,3,5.455.012,1.669-1.274,3.491-3.069,3.271a1.105,1.105,0,0,0-1.062,1.394l.248.652c1,2.639,2.014,5.629,1.226,8.405l-.029.1c-.191.636-.392,1.2-1.129,1.185a6.879,6.879,0,0,1-2.038-.463,9.974,9.974,0,0,1-3.558-2.18,1.165,1.165,0,0,0-1.939,1.092l0,.035c.167,1.21-1.761,1.772-2.637,1.6-1.73-.342-2.964-2.076-3.946-3.4-.472-.635-1.619-.885-2.034,0a5.243,5.243,0,0,1-4.5,3.119,5.239,5.239,0,0,1-3.857-1.594l-.072-.076a4.47,4.47,0,0,0-1.282-1,.835.835,0,0,0-1.244.714,2.635,2.635,0,0,0,.823,1.991,7.615,7.615,0,0,0,1.633,1.291,7.494,7.494,0,0,0,4,1.056,7.625,7.625,0,0,0,5.632-2.861c1.383,1.654,3.1,3.174,5.327,3.133a4.63,4.63,0,0,0,3.969-2.246,12.268,12.268,0,0,0,3.441,1.663l.11.033c1.748.509,3.76.711,4.885-1.025a8.805,8.805,0,0,0,.893-5.75,21.483,21.483,0,0,0-1.316-4.8,5.359,5.359,0,0,0,3.418-3.767c.675-2.563-.634-5.048-2.253-6.952a31.419,31.419,0,0,0-6.2-5.349A23.512,23.512,0,0,0,48.408,55.251ZM-8.761,35.206c0-.071-.121-.1-.132-.018-.768,5.575-1.167,10.313-1.535,15.926-.187,2.844,1.237,6.177,1,9.017a74.459,74.459,0,0,0-.509,8.254A12.951,12.951,0,0,0-4.314,78.655a24.092,24.092,0,0,0,11.292,4.09,28.685,28.685,0,0,0,6.96.032,8.51,8.51,0,0,0,1.893-.283l.508-.127c.926-.237,1.959-.558,2.091-1.655a1.179,1.179,0,0,0-.674-1.19,2.441,2.441,0,0,0-1.887.015,6.627,6.627,0,0,1-1.447.323,27.379,27.379,0,0,1-6.868.125A20.52,20.52,0,0,1-2.6,76.323c-.121-.088-.4-.31-.667-.544a10.128,10.128,0,0,1-2.985-4.087,18.3,18.3,0,0,1-.617-6.51c.059-5.051-1.628-10.6-1.558-15.647C-8.352,44.468-8.46,40.266-8.761,35.206ZM29.737,11.6A36.592,36.592,0,0,0,17,10.287c-4.333.327-6.007.09-10.018,1.731A22.018,22.018,0,0,0,.653,15.653c-1.864,1.3-2.171,1.806-1.13,1.575,1.3-.287,9.351-3.638,10.969-3.95a44.172,44.172,0,0,1,6.88-.841c7.8-.257,16.487,1.512,22.779,6.379a16.425,16.425,0,0,1,6.1,9A15.717,15.717,0,0,1,44.826,39a1.125,1.125,0,0,0,.4,1.519,4.923,4.923,0,0,1,2.855,4.417,4.71,4.71,0,0,1-.833,2.545c-.535.8-1.35,1.357-1.948,2.1a.825.825,0,0,0-.058.969c-.35.153-.727.236-1.072.417a.458.458,0,0,0,0,.785,1.746,1.746,0,0,0,2.093-.64,2.967,2.967,0,0,0,.243-.342,3.645,3.645,0,0,0,1.644-.86,1.739,1.739,0,0,1,.254,2.7,3.588,3.588,0,0,1-1.548.981l-.069.025a2.881,2.881,0,0,0-1.439.759,9.441,9.441,0,0,0-.824-1.4C43.4,51.41,41.684,50.021,39.645,50.2a3.681,3.681,0,0,0-3.309,2.861c-.024.117.152.208.2.086.766-1.788,3.192-1.854,4.637-.922a7.726,7.726,0,0,1,3,5.085c.367,1.895.155,4.2-1.263,5.64a3.82,3.82,0,0,1-2.193,1.1,3.357,3.357,0,0,1-1.143-.077l-.255-.053a1.828,1.828,0,0,0-.539-.05l-.277.037h0l-.157.074q-.2.092.037-.05a.672.672,0,0,0-.739.69.167.167,0,0,0-.041.035c-1.783,2.183-3.107,4.693-5,6.8l-.554.619a15.454,15.454,0,0,1-4.985,4.125l-.23.1c-.563.238-1.128.563-1.2,1.242a1.177,1.177,0,0,0,.967,1.207c1.258.323,2.692-.8,3.613-1.529a23.9,23.9,0,0,0,5.021-5.7l.136-.211A15.91,15.91,0,0,0,37.9,65.432l.06.1.01.015a1.446,1.446,0,0,0,.228.243,2.01,2.01,0,0,0,.807.4,4.819,4.819,0,0,0,1.719.12,6.045,6.045,0,0,0,3.13-1.267c2.765-2.169,3.091-6.205,1.973-9.48a3.61,3.61,0,0,0,2.679-.928,4.01,4.01,0,0,0,1.661-2.516,2.778,2.778,0,0,0-1.459-2.774,7.654,7.654,0,0,0,1.649-4.287,6.891,6.891,0,0,0-3.1-5.936A17.987,17.987,0,0,0,48.2,26.492C45.758,18.238,37.579,13.622,29.737,11.6ZM36.7,74.313l-.023-.072c-.195-.638-.446-1.908-1.4-1.425-.911.462-.329,1.828-.011,2.493a2.758,2.758,0,0,0,1.923,1.605,2.152,2.152,0,0,0,2.011-.6,1.888,1.888,0,0,0,.316-.536.761.761,0,0,0,.055-.163.355.355,0,0,0,.092.158,8.108,8.108,0,0,1,1.072,1.468c.069.123.286.037.231-.1-.339-.83-.282-2.113-1.038-2.713-.666-.529-1.293-.113-1.645.5l-.018.032C37.75,75.908,36.929,75.019,36.7,74.313Zm7.249-3-.07-.1c-.713-.974-1.914-2.146-3.117-1.24a.622.622,0,0,0,0,1.055l.15.107A5.722,5.722,0,0,1,42.345,72.4,8.018,8.018,0,0,0,43.7,74.05a2.479,2.479,0,0,0,3.473-.122l.085-.108a3.37,3.37,0,0,0,.223-.317l.053.073.014.021.012.018a4.543,4.543,0,0,0,1.364,1.406,3.955,3.955,0,0,0,3.464.428.1.1,0,0,0-.028-.2,4.314,4.314,0,0,1-3.393-2.45l-.065-.146a1.969,1.969,0,0,0-1.077-1.216,1.442,1.442,0,0,0-1.543.438c-.323.357-.407,1.066-.99.91C44.656,72.608,44.3,71.808,43.947,71.315Zm4.082-8.665a.614.614,0,0,0-.9.365c-.394,1.574,1.242,3.429,2.814,3.478A2.318,2.318,0,0,0,51.1,66.22c.278-.145.607-.517.912-.578.394-.079.743.446,1.021.715a10.408,10.408,0,0,0,1.071.93.225.225,0,0,0,.328-.252l-.13-.348c-.472-1.238-1.286-3.046-2.808-2.532-.746.252-1.307,1.1-2.093.428C48.769,64.046,48.71,63.168,48.029,62.65Zm-6.716-6.338c-1.419-1.63-4.755-.769-5.388,1.214a1.334,1.334,0,0,0,.348,1.317,1.378,1.378,0,0,0,1.64.212c.471-.275.664-.726,1.01-1.113a4.156,4.156,0,0,1,1.908-1.106,2.043,2.043,0,0,1,.492.364c.076.076.219-.028.152-.117a2.047,2.047,0,0,0-.331-.341l.061-.018h0A.249.249,0,0,0,41.312,56.312ZM32.089,38.32a.654.654,0,0,0-.648.648l.012.1a1.492,1.492,0,0,0,.969,1.349,5.343,5.343,0,0,0,1.774.463,4.44,4.44,0,0,0,.732,0l.053.3a13.114,13.114,0,0,1,.22,1.841,6.98,6.98,0,0,1-.857,3.13,6.67,6.67,0,0,0-.021,5.921.968.968,0,0,0,.862.494,1.017,1.017,0,0,0,.862-.494.984.984,0,0,0,.016-.975l-.016-.032a4.368,4.368,0,0,1-.39-3.037c.233-.972.76-1.845,1-2.814a6.015,6.015,0,0,0-.824-4.5,2.966,2.966,0,0,0,1.533-.955h0c.142-.152.064-.469-.185-.45l-.282.023a6.448,6.448,0,0,1-2.364-.087,4.046,4.046,0,0,1-1.138-.541l-.077-.051A1.8,1.8,0,0,0,32.089,38.32Zm-1.93-11.664a4.9,4.9,0,0,0-4.586,3,7.424,7.424,0,0,0,.275,6.039l.229.531a5.4,5.4,0,0,0,1.744,2.508c.92.555,1.716-.089,1.444-1.111a5.214,5.214,0,0,0-.953-1.581,13.979,13.979,0,0,1-.909-1.462,6.936,6.936,0,0,1-.921-3.239c.007-2.078,1.38-4.459,3.677-4.428A.127.127,0,0,0,30.159,26.656ZM19.936,23.3c.126-.1.013-.308-.128-.219a10.256,10.256,0,0,0-4.447,7.045,8.449,8.449,0,0,0,.6,4.568,3.071,3.071,0,0,0,1.907,1.8A1.616,1.616,0,0,0,19.8,35.43a.733.733,0,0,0-.329-.808,4.878,4.878,0,0,1-1.9-2.184A7.925,7.925,0,0,1,17,29.381,7.308,7.308,0,0,1,19.936,23.3ZM-8.7,24.369a.142.142,0,0,0-.172-.222,6.106,6.106,0,0,0-3.08,4.47c-.3,1.831.1,4.324,1.521,5.648.8.748,2.232-.247,1.567-1.21A8.136,8.136,0,0,1-10.1,31.015a6.448,6.448,0,0,1-.311-2.19A6.809,6.809,0,0,1-8.7,24.369Zm20.718-2.293c-2.9-.138-4.65,3.168-5.052,5.633a6.25,6.25,0,0,0,.779,4.412l.05.077c.693,1.055,1.954,2.27,3.312,1.77a.787.787,0,0,0,.342-1.295c-.591-.715-1.5-1.007-2.06-1.771A4.732,4.732,0,0,1,8.6,27.93l0-.115c.1-1.917,1.01-5.595,3.416-5.53C12.156,22.289,12.155,22.083,12.021,22.076Zm-9.056-.549c-2.8-.358-4.506,2.938-5.032,5.208a8.8,8.8,0,0,0,.02,4.411l.031.1C-1.673,32.3-.664,34.1.653,33.562c.361-.147.729-.548.556-.98-.221-.553-.539-.7-.964-1.05a2.812,2.812,0,0,1-.723-1.048,7.426,7.426,0,0,1-.486-3.33l.008-.131c.158-2.159,1.329-5.377,3.92-5.318C3.084,21.708,3.075,21.541,2.965,21.527Zm-5.127-3.1c-1.559-.594-2.835.9-3.731,1.961a14.249,14.249,0,0,0-2.716,4.429,7.515,7.515,0,0,0-.141,4.628,6.144,6.144,0,0,0,1.071,2.045l.062.077a1.626,1.626,0,0,0,1.823.775.617.617,0,0,0,.421-.742c-.125-.681-.476-.858-.93-1.334a4.276,4.276,0,0,1-.9-1.479A6.018,6.018,0,0,1-7.358,25.3a12.13,12.13,0,0,1,1.625-3.6l.152-.239c.747-1.182,1.813-3,3.39-2.81C-2.056,18.665-2.055,18.469-2.162,18.429Z" transform="translate(12.042 -10.356)"/>
      </g>
      <g id="face_Smile-Big" data-name="face/Smile-Big" transform="translate(181.734 101.389)">
        <path id="_-Ink-5" data-name="ðŸ–-Ink" class="cls-7" d="M25.706,27.669c-1.883-1.076-6.607-2.176-6.906,1.206A3.575,3.575,0,0,0,21.175,32.3l.051.021c1.27.521,3.52,1.109,4.619-.02.914-.94-.3-2.626-1.435-1.856-.584.4-1.813.1-2.465-.084l-.041-.012c-.7-.206-1.641-.866-1.35-1.73.257-.764,1.352-.9,2.038-.929a27.123,27.123,0,0,1,3.034.278A.159.159,0,0,0,25.706,27.669Zm-7.8-5.438c-2.555-.119-4.145,2.665-3.558,4.947a1.007,1.007,0,0,0,.969.736l.107-.01a.95.95,0,0,0,.16-.026,1.012,1.012,0,0,0,.738-.967l-.008-.127c-.06-1.078.057-2.32,1.341-2.581,1.089-.221,1.7.824,1.709,1.787a.232.232,0,0,0,.346.2,1.8,1.8,0,0,0,.623-2.247A2.644,2.644,0,0,0,17.907,22.232Zm18.964.6A4.094,4.094,0,0,0,32.1,24.84a.7.7,0,0,0-.587.706,1.972,1.972,0,0,0,.531,1.279,1.161,1.161,0,0,0,1.913-.471l.01-.035a1.909,1.909,0,0,1,2.4-1.323c1.186.413,1.152,1.663,1.984,2.391a.288.288,0,0,0,.332.043c.884-.426.725-1.709.41-2.443A3.862,3.862,0,0,0,36.871,22.829ZM39.4,17.193c-1.507-1.535-5.437-3.019-6.467-.186a1.127,1.127,0,0,0,.785,1.379c.922.183,1.74-.216,2.656-.145a4.006,4.006,0,0,1,2.108.764c1.642,1.27,2,3.417,3.147,5.033a.094.094,0,0,0,.174-.047A8.936,8.936,0,0,0,39.4,17.193ZM19.75,15.682a5.059,5.059,0,0,0-3.138-.01,6.1,6.1,0,0,0-2.658,1.7,6.753,6.753,0,0,0-.867,1.164c-.128.221-.263.677-.408.949A1.409,1.409,0,0,0,12.26,21.7l.032.032.094.093a1.52,1.52,0,0,0,1.468.387c1.158-.334,1.3-1.245,1.7-2.211a3.956,3.956,0,0,1,1.269-1.618,6.11,6.11,0,0,1,5-.83c.083.025.181-.081.122-.158a4.741,4.741,0,0,0-.865-1.007A4.622,4.622,0,0,0,19.75,15.682Z" transform="translate(-11.875 -15.406)"/>
      </g>
      <path id="_-Ink-6" data-name="ðŸ–-Ink" class="cls-7" d="M39.373,51.075a7.847,7.847,0,0,0,3.3-2.537,1.523,1.523,0,0,0,.308-1.184,1.708,1.708,0,0,0-.664-1.069,1.589,1.589,0,0,0-1.191-.322,1.492,1.492,0,0,0-1.006.666l-.06.082a5.2,5.2,0,0,1-1.9,1.6,4.287,4.287,0,0,1-2.355.414,6.322,6.322,0,0,1-3.838-2.2c-.144-.147-.288-.3-.433-.453a.68.68,0,0,0-.359-.277.772.772,0,0,0-.5.007.786.786,0,0,0-.39.3.722.722,0,0,0-.123.478A4.952,4.952,0,0,0,31.794,49.7a7,7,0,0,0,7.579,1.373Z" transform="translate(159.801 76.308)"/>
      <g id="ì‚¬ê°í˜•_5811" data-name="ì‚¬ê°í˜• 5811" class="cls-8" transform="translate(-19.012 39.234)">
        <rect class="cls-10" width="328" height="141"/>
        <rect class="cls-11" x="0.5" y="0.5" width="327" height="140"/>
      </g>
    </g>
    <g class="cls-12" transform="matrix(1, 0, 0, 1, -31, 156)">
      <path id="ë¹¼ê¸°_99-2" data-name="ë¹¼ê¸° 99" class="cls-9" d="M8-6H320a8,8,0,0,1,8,8V116a8,8,0,0,1-8,8H8a8,8,0,0,1-8-8V2A8,8,0,0,1,8-6Z" transform="translate(45 147)"/>
    </g>
    <g id="ê·¸ë£¹_16204" data-name="ê·¸ë£¹ 16204" transform="translate(239.261 285.748)">
      <path id="íŒ¨ìŠ¤_9531" data-name="íŒ¨ìŠ¤ 9531" class="cls-1" d="M661.468,821c-4.218.191-7.067.929-9.683,2.656a13.345,13.345,0,0,0-5.774,8.549c-.615,4.2,1.872,4.444,5.3,4.619,0,1.817,2.606,3.1,4.147,3.27,1.208.133,4.533-.789,4.72-2.37-.58,4.889,6.974,2.042,8.571.038,1.038,1.535,1.569,2.034,3.553,1.754,1.175-.166,3.1-.809,3.716-1.934,3.821,1.138,7.626,1.18,8.054-3.73a8.4,8.4,0,0,0-2.407-5.89,10.472,10.472,0,0,0-4.757-2.96C672.128,823.135,668.857,819.689,661.468,821Z" transform="translate(-645.918 -819.321)"/>
      <path id="íŒ¨ìŠ¤_9532" data-name="íŒ¨ìŠ¤ 9532" class="cls-5" d="M657.38,843.968c.153-4.136,2.144-8.732,6.434-9.957" transform="translate(-652.112 -828.179)"/>
      <path id="íŒ¨ìŠ¤_9533" data-name="íŒ¨ìŠ¤ 9533" class="cls-5" d="M677,848.715c0-2.6,1.4-7.66,4.313-9.038" transform="translate(-662.713 -831.241)"/>
      <path id="íŒ¨ìŠ¤_9534" data-name="íŒ¨ìŠ¤ 9534" class="cls-5" d="M695.608,849.487a7.933,7.933,0,0,1,3.878-6.477" transform="translate(-672.772 -833.042)"/>
    </g>
    <g id="ê·¸ë£¹_17344" data-name="ê·¸ë£¹ 17344" transform="matrix(-0.999, -0.052, 0.052, -0.999, 121.896, 302.844)">
      <path id="íŒ¨ìŠ¤_9531-2" data-name="íŒ¨ìŠ¤ 9531" class="cls-1" d="M15.55,19.428c-4.218-.191-7.067-.929-9.683-2.656A13.345,13.345,0,0,1,.094,8.223C-.521,4.025,1.966,3.779,5.4,3.6,5.4,1.787,8,.5,9.544.334c1.208-.133,4.533.789,4.72,2.37-.58-4.889,6.974-2.042,8.571-.038C23.874,1.131,24.4.631,26.389.911c1.175.166,3.1.809,3.716,1.934,3.821-1.138,7.626-1.18,8.054,3.73a8.4,8.4,0,0,1-2.407,5.89,10.472,10.472,0,0,1-4.757,2.96C26.211,17.3,22.94,20.742,15.55,19.428Z"/>
      <path id="íŒ¨ìŠ¤_9532-2" data-name="íŒ¨ìŠ¤ 9532" class="cls-5" d="M0,0C.153,4.136,2.144,8.732,6.434,9.957" transform="translate(5.268 5.321)"/>
      <path id="íŒ¨ìŠ¤_9533-2" data-name="íŒ¨ìŠ¤ 9533" class="cls-5" d="M0,0C0,2.6,1.4,7.66,4.313,9.038" transform="translate(14.283 3.636)"/>
      <path id="íŒ¨ìŠ¤_9534-2" data-name="íŒ¨ìŠ¤ 9534" class="cls-5" d="M0,0A7.933,7.933,0,0,0,3.878,6.477" transform="translate(22.836 4.666)"/>
    </g>
  </g>
</svg>
