<svg xmlns="http://www.w3.org/2000/svg" width="74.998" height="44" viewBox="0 0 74.998 44">
  <defs>
    <style>
      .cls-1 {
        fill: #3ddb87;
        stroke: #3ddb87;
        stroke-linecap: round;
        stroke-width: 2px;
      }

      .cls-2, .cls-3 {
        fill: #fff;
      }

      .cls-2 {
        font-size: 16px;
        font-family: Montserrat-Bold, Montserrat;
        font-weight: 700;
        letter-spacing: -0.02em;
      }

      .cls-4 {
        fill: #34c678;
        font-size: 10px;
        font-family: Montserrat-ExtraBold, Montserrat;
        font-weight: 800;
      }

      .cls-5 {
        font-family: AppleSDGothicNeo-ExtraBold, Apple SD Gothic Neo;
      }

      .cls-6, .cls-8 {
        stroke: none;
      }

      .cls-7 {
        fill: none;
      }

      .cls-8 {
        fill: #3ddb87;
      }
    </style>
  </defs>
  <g id="_1" data-name="1" transform="translate(1.673 43.137) rotate(-90)">
    <g id="타원_1467" data-name="타원 1467" class="cls-1" transform="translate(-0.863 -1.673)">
      <circle class="cls-6" cx="22" cy="22" r="22"/>
      <circle class="cls-7" cx="22" cy="22" r="21"/>
    </g>
    <text id="_1-2" data-name="1" class="cls-2" transform="translate(15.137 17.327) rotate(90)"><tspan x="0" y="0">1</tspan></text>
    <g id="빼기_153" data-name="빼기 153" class="cls-3" transform="translate(32.137 29.387) rotate(90)">
      <path class="cls-6" d="M 29.54899215698242 22.25020599365234 L 2.939420461654663 22.2495002746582 C 1.698910593986511 22.2495002746582 0.6897005438804626 21.23988914489746 0.6897005438804626 19.99889945983887 L 0.6897005438804626 2.999699592590332 C 0.6897005438804626 1.759209632873535 1.698910593986511 0.7499997019767761 2.939400434494019 0.7499997019767761 L 29.61262893676758 0.7499997019767761 C 30.2509880065918 2.019732713699341 31.52870941162109 2.840699672698975 32.93910217285156 2.840699672698975 C 34.34964370727539 2.840699672698975 35.62767028808594 2.019668102264404 36.26627731323242 0.7499997019767761 L 40.93920135498047 0.7499997019767761 C 42.17969131469727 0.7499997019767761 43.18889999389648 1.759209632873535 43.18889999389648 2.999699592590332 L 43.18889999389648 19.99889945983887 C 43.18889999389648 21.23988914489746 42.17969131469727 22.2495002746582 40.93920135498047 22.2495002746582 L 36.32961273193359 22.2495002746582 C 35.71768569946289 20.9016227722168 34.41605377197266 20.03009986877441 32.93910217285156 20.03009986877441 C 31.46212005615234 20.03009986877441 30.16057205200195 20.90195083618164 29.54899215698242 22.25020599365234 Z"/>
      <path class="cls-8" d="M 29.09369087219238 21.50019454956055 C 29.89340209960938 20.1378059387207 31.32888221740723 19.28009986877441 32.93910217285156 19.28009986877441 C 34.5491943359375 19.28009986877441 35.98474502563477 20.1375617980957 36.78476333618164 21.4995002746582 L 40.93920135498047 21.4995002746582 C 41.76613998413086 21.4995002746582 42.43889999389648 20.82633018493652 42.43889999389648 19.99889945983887 L 42.43889999389648 2.999699592590332 C 42.43889999389648 2.172759771347046 41.76613998413086 1.499999642372131 40.93920135498047 1.499999642372131 L 36.70154571533203 1.499999642372131 C 35.88251113891602 2.783037185668945 34.47701644897461 3.590699672698975 32.93910217285156 3.590699672698975 C 31.40127182006836 3.590699672698975 29.99608421325684 2.783140420913696 29.17728996276855 1.499999642372131 L 2.939400434494019 1.499999642372131 C 2.112460613250732 1.499999642372131 1.439700484275818 2.172759771347046 1.439700484275818 2.999699592590332 L 1.439700484275818 19.99889945983887 C 1.439700484275818 20.82633018493652 2.112460613250732 21.4995002746582 2.939440488815308 21.4995002746582 L 29.09369087219238 21.50019454956055 M 30.0692195892334 23.00021934509277 L 30.0684700012207 23.00021934509277 L 2.939400434494019 22.9995002746582 C 1.28536057472229 22.9995002746582 -0.06029946357011795 21.65344047546387 -0.06029946357011795 19.99889945983887 L -0.06029946357011795 2.999699592590332 C -0.06029946357011795 1.345659613609314 1.28536057472229 -3.274536197750422e-07 2.939400434494019 -3.274536197750422e-07 L 30.11015129089355 -3.274536197750422e-07 C 30.53297996520996 1.250789642333984 31.66946983337402 2.090699672698975 32.93910217285156 2.090699672698975 C 34.20867156982422 2.090699672698975 35.34585952758789 1.25050961971283 35.76884078979492 -3.274536197750422e-07 L 40.93920135498047 -3.274536197750422e-07 C 42.59323883056641 -3.274536197750422e-07 43.93889999389648 1.345659613609314 43.93889999389648 2.999699592590332 L 43.93889999389648 19.99889945983887 C 43.93889999389648 21.65344047546387 42.59323883056641 22.9995002746582 40.93920135498047 22.9995002746582 L 35.8095817565918 22.9995002746582 C 35.42206192016602 21.67172050476074 34.26889038085938 20.78009986877441 32.93910217285156 20.78009986877441 C 31.60987091064453 20.78009986877441 30.45664024353027 21.67201042175293 30.06943130493164 22.9995002746582 L 30.0692195892334 23.00021934509277 Z"/>
    </g>
    <text id="_1_000원" data-name="1,000원" class="cls-4" transform="translate(17.137 69.326) rotate(90)"><tspan x="-35.94" y="0">1,000</tspan><tspan class="cls-5" y="0">원</tspan></text>
  </g>
</svg>
