<svg xmlns="http://www.w3.org/2000/svg" xmlns:xlink="http://www.w3.org/1999/xlink" width="92" height="92" viewBox="0 0 92 92">
  <defs>
    <style>
      .cls-1, .cls-6 {
        fill: #f8f8f8;
      }

      .cls-1, .cls-2 {
        stroke: #3ddb87;
      }

      .cls-1, .cls-10, .cls-11, .cls-2, .cls-6, .cls-7, .cls-8, .cls-9 {
        stroke-width: 1.5px;
      }

      .cls-2 {
        fill: #cdf8e1;
      }

      .cls-3 {
        fill: #3ddb87;
      }

      .cls-4 {
        clip-path: url(#clip-path);
      }

      .cls-10, .cls-5 {
        fill: #0f1f2e;
      }

      .cls-10, .cls-11, .cls-6, .cls-7, .cls-8, .cls-9 {
        stroke: #0f1f2e;
      }

      .cls-7 {
        fill: #9ea5b2;
      }

      .cls-8 {
        fill: #eefaff;
      }

      .cls-9 {
        fill: #295559;
      }

      .cls-11 {
        fill: #fff;
      }

      .cls-12 {
        stroke: none;
      }

      .cls-13 {
        fill: none;
      }
    </style>
    <clipPath id="clip-path">
      <circle id="타원_2009" data-name="타원 2009" class="cls-1" cx="34" cy="34" r="34" transform="translate(0.491 0.566)"/>
    </clipPath>
  </defs>
  <g id="get4" transform="translate(-209.851 -321.076)">
    <g id="그룹_18080" data-name="그룹 18080" transform="translate(209.851 321.076)">
      <g id="타원_1982" data-name="타원 1982" class="cls-2">
        <circle class="cls-12" cx="46" cy="46" r="46"/>
        <circle class="cls-13" cx="46" cy="46" r="45.25"/>
      </g>
      <g id="타원_1983" data-name="타원 1983" class="cls-1" transform="translate(12.001 12)">
        <circle class="cls-12" cx="34" cy="34" r="34"/>
        <circle class="cls-13" cx="34" cy="34" r="34.75"/>
      </g>
      <g id="그룹_18073" data-name="그룹 18073" transform="translate(3.199 8)">
        <path id="패스_12493" data-name="패스 12493" class="cls-3" d="M411.712,118.01l-.537.916-3.819-2.237,2.888-4.932,3.727,2.182-.535.916-2.594-1.518-.626,1.071,2.289,1.341-.519.887-2.29-1.34-.669,1.141Z" transform="translate(-347.814 -111.758)"/>
        <path id="패스_12494" data-name="패스 12494" class="cls-3" d="M421.455,120l-3.809,4.264-.81-.724.186-4.488-2.312,2.589-.975-.871,3.81-4.264.816.729-.192,4.483,2.313-2.59Z" transform="translate(-348.405 -112.198)"/>
        <path id="패스_12495" data-name="패스 12495" class="cls-3" d="M423.519,129.853l-.85.638-2.656-3.542,4.575-3.431,2.592,3.457-.849.637-1.8-2.405-.993.746,1.591,2.124-.823.617-1.593-2.124-1.058.794Z" transform="translate(-348.987 -112.848)"/>
        <path id="패스_12496" data-name="패스 12496" class="cls-3" d="M425.9,136.494l.952-1.687-.028-.059-.5-1.036-1.434.693-.576-1.19,5.146-2.491,1.079,2.227c.665,1.375.368,2.58-.786,3.138a1.859,1.859,0,0,1-2.137-.272l-1.1,1.954Zm3.634-3.138-.469-.971-1.795.868.47.971c.353.727.868.931,1.427.661S429.886,134.083,429.534,133.355Z" transform="translate(-349.385 -113.516)"/>
        <path id="패스_12497" data-name="패스 12497" class="cls-3" d="M431.434,143.79l.3,1.171-2.249.566a3.933,3.933,0,0,1-1.268-2.063,2.961,2.961,0,1,1,5.739-1.42,3.05,3.05,0,0,1-.374,2.562l-.968-.632a1.928,1.928,0,0,0,.265-1.591,1.83,1.83,0,1,0-3.552.876,2.107,2.107,0,0,0,.489.939Z" transform="translate(-349.736 -114.34)"/>
        <path id="패스_12498" data-name="패스 12498" class="cls-3" d="M431.488,151.658l-2.022.1-.068-1.321,2.039-.1,3.557-2.4.072,1.4L432.607,151l2.613,1.4.066,1.3Z" transform="translate(-349.857 -115.111)"/>
        <path id="패스_12499" data-name="패스 12499" class="cls-3" d="M431.221,166.556c-1.238-.307-1.777-1.425-1.41-2.909l.278-1.119-1.531-.379.318-1.285,5.553,1.376-.6,2.4C433.467,166.127,432.467,166.865,431.221,166.556Zm.323-1.3c.61.152,1.065-.157,1.26-.943l.259-1.047-1.928-.478-.259,1.048C430.681,164.62,430.941,165.106,431.544,165.255Z" transform="translate(-349.779 -116.309)"/>
        <path id="패스_12500" data-name="패스 12500" class="cls-3" d="M431.669,171.011l-.55,1.2-4.223-1.926-1.189,2.609-.982-.447,1.74-3.814Z" transform="translate(-349.424 -117.029)"/>
        <path id="패스_12501" data-name="패스 12501" class="cls-3" d="M425.434,176.354l2.6,1.855-.767,1.076-2.566-1.827c-.883-.63-1.523-.5-1.988.147s-.373,1.3.512,1.926l2.565,1.828-.758,1.063-2.6-1.856a2.586,2.586,0,1,1,3-4.213Z" transform="translate(-349.099 -117.689)"/>
        <path id="패스_12502" data-name="패스 12502" class="cls-3" d="M418.776,181.747l.359,1.032a3.367,3.367,0,0,0-1.779.866c-.569.54-.62.949-.378,1.2.737.776,2.642-2.045,4.1-.5.669.705.656,1.831-.523,2.95a3.827,3.827,0,0,1-1.788,1l-.4-1.009a3.23,3.23,0,0,0,1.459-.765c.569-.54.585-.961.339-1.221-.725-.765-2.636,2.051-4.081.527-.658-.693-.645-1.831.54-2.955A4.071,4.071,0,0,1,418.776,181.747Z" transform="translate(-348.583 -118.244)"/>
        <path id="패스_12503" data-name="패스 12503" class="cls-3" d="M375.987,193.469l.255-1.03,4.293,1.066-1.376,5.543-4.189-1.04.256-1.03,2.914.724.3-1.2-2.574-.639.249-1,2.573.639.318-1.283Z" transform="translate(-344.813 -119.235)"/>
        <path id="패스_12504" data-name="패스 12504" class="cls-3" d="M365.92,194.245l2.462-5.165.982.467,1.081,4.363,1.5-3.136,1.18.563-2.461,5.165-.989-.471-1.074-4.36-1.494,3.136Z" transform="translate(-343.974 -118.923)"/>
        <path id="패스_12505" data-name="패스 12505" class="cls-3" d="M361.225,185.4l.637-.849,3.542,2.656-3.431,4.575-3.457-2.592.637-.85,2.4,1.8.745-.994-2.123-1.592.617-.824,2.124,1.593.794-1.059Z" transform="translate(-343.288 -118.504)"/>
        <path id="패스_12506" data-name="패스 12506" class="cls-3" d="M357.132,179.685l-.439,1.886.044.048.773.853,1.18-1.069.889.981-4.235,3.837-1.661-1.833c-1.025-1.132-1.08-2.372-.13-3.232a1.856,1.856,0,0,1,2.127-.34l.5-2.184Zm-2.6,4.034.724.8,1.476-1.337-.724-.8c-.542-.6-1.1-.65-1.555-.233S353.987,183.121,354.529,183.719Z" transform="translate(-342.766 -117.955)"/>
        <path id="패스_12507" data-name="패스 12507" class="cls-3" d="M349.819,174.328l-.614-1.042,2-1.18a3.951,3.951,0,0,1,1.8,1.621,2.962,2.962,0,1,1-5.1,2.986,3.047,3.047,0,0,1-.366-2.564l1.107.333a1.936,1.936,0,0,0,.2,1.6A1.83,1.83,0,1,0,352,174.238a2.1,2.1,0,0,0-.735-.762Z" transform="translate(-342.258 -117.35)"/>
        <path id="패스_12508" data-name="패스 12508" class="cls-3" d="M347.5,166.958l1.912-.669.437,1.249-1.928.674-2.738,3.3-.465-1.327,1.894-2.281-2.9-.6-.43-1.226Z" transform="translate(-341.877 -116.792)"/>
        <path id="패스_12509" data-name="패스 12509" class="cls-3" d="M343.706,152.479c1.273-.052,2.1.87,2.165,2.4l.047,1.15,1.573-.064.054,1.321-5.709.232-.1-2.471C341.675,153.518,342.427,152.531,343.706,152.479Zm.055,1.337c-.629.025-.978.448-.945,1.256l.043,1.076,1.982-.081-.044-1.076C344.764,154.184,344.381,153.791,343.762,153.816Z" transform="translate(-341.733 -115.531)"/>
        <path id="패스_12510" data-name="패스 12510" class="cls-3" d="M341.893,148.434l.186-1.31,4.592.652.4-2.837,1.067.152-.59,4.147Z" transform="translate(-341.748 -114.833)"/>
        <path id="패스_12511" data-name="패스 12511" class="cls-3" d="M346.359,141.4l-3.029-1.048.434-1.251,2.981,1.032c1.028.356,1.607.054,1.869-.7s-.007-1.352-1.035-1.708l-2.982-1.032.426-1.236,3.029,1.047a2.592,2.592,0,1,1-1.694,4.9Z" transform="translate(-341.881 -113.954)"/>
        <path id="패스_12512" data-name="패스 12512" class="cls-3" d="M351.281,134.334l-.635-.89a3.369,3.369,0,0,0,1.465-1.331c.4-.678.329-1.084.025-1.261-.925-.539-1.964,2.7-3.8,1.636-.841-.49-1.145-1.574-.327-2.98a3.834,3.834,0,0,1,1.437-1.461l.662.859a3.228,3.228,0,0,0-1.186,1.143c-.395.678-.293,1.087.018,1.268.911.53,1.955-2.709,3.77-1.653.827.481,1.134,1.577.311,2.99A4.074,4.074,0,0,1,351.281,134.334Z" transform="translate(-342.27 -113.267)"/>
      </g>
    </g>
    <g id="그룹_17439" data-name="그룹 17439" transform="translate(198.42 310.668)">
      <path id="Fill" class="cls-3" d="M21.687.387a7.794,7.794,0,0,0-5.662,2.456L14.848,4.071,13.671,2.843a7.76,7.76,0,0,0-11.324,0,8.671,8.671,0,0,0,0,11.863l12.5,12.207,12.5-12.207a8.671,8.671,0,0,0,0-11.863A7.814,7.814,0,0,0,21.687.387Z" transform="translate(32.911 35.485)"/>
      <g id="마스크_그룹_310" data-name="마스크 그룹 310" class="cls-4" transform="translate(22.94 21.842)">
        <g id="그룹_15549" data-name="그룹 15549" transform="translate(30.151 20.224)">
          <g id="그룹_15541" data-name="그룹 15541" transform="translate(0)">
            <rect id="사각형_5272" data-name="사각형 5272" class="cls-5" width="1.466" height="9.028" transform="translate(9.577 6.867)"/>
            <rect id="사각형_5273" data-name="사각형 5273" class="cls-5" width="1.466" height="9.028" transform="translate(12.722 6.867)"/>
            <rect id="사각형_5274" data-name="사각형 5274" class="cls-5" width="1.466" height="9.028" transform="translate(15.868 6.867)"/>
            <rect id="사각형_5308" data-name="사각형 5308" class="cls-6" width="22.376" height="7.193"/>
            <rect id="사각형_5309" data-name="사각형 5309" class="cls-6" width="22.376" height="37.866" transform="translate(0 12.22)"/>
            <rect id="사각형_5310" data-name="사각형 5310" class="cls-7" width="8.189" height="7.193" transform="translate(22.376)"/>
            <rect id="사각형_5311" data-name="사각형 5311" class="cls-7" width="8.189" height="37.866" transform="translate(22.376 12.22)"/>
            <rect id="사각형_5312" data-name="사각형 5312" class="cls-8" width="15.824" height="12.231" transform="translate(3.276 19.177)"/>
            <rect id="사각형_5314" data-name="사각형 5314" class="cls-9" width="1.65" height="5.027" transform="translate(27.064 7.193)"/>
          </g>
          <g id="그룹_15544" data-name="그룹 15544" transform="translate(25.667 4.531)">
            <g id="그룹_15543" data-name="그룹 15543" transform="translate(2.065 0)">
              <g id="그룹_15542" data-name="그룹 15542" transform="translate(0)">
                <path id="패스_9219" data-name="패스 9219" class="cls-10" d="M659.966,379.015h1.3c0-4.654-2.969-8.441-6.618-8.441v1.3C657.58,371.874,659.966,375.077,659.966,379.015Z" transform="translate(-654.648 -370.574)"/>
              </g>
              <rect id="사각형_5339" data-name="사각형 5339" class="cls-11" width="6.662" height="2.239" transform="translate(2.6 7.574)"/>
              <path id="패스_9220" data-name="패스 9220" class="cls-11" d="M656.41,387.2l-1.255.354Z" transform="translate(-649.988 -380.801)"/>
              <path id="패스_9221" data-name="패스 9221" class="cls-11" d="M658.918,379.859l-1.117.645Z" transform="translate(-653.514 -376.284)"/>
              <path id="패스_9222" data-name="패스 9222" class="cls-11" d="M663.951,373.517l-.709,1.08Z" transform="translate(-660.642 -372.384)"/>
            </g>
            <path id="패스_9223" data-name="패스 9223" class="cls-5" d="M654.912,402.481a.991.991,0,0,1,1.067.893c0,.011,0,.02,0,.032h0v13.985a2.358,2.358,0,0,0,4.644,0l-.019-15.359V396.06h2.154v5.972c.006.159-.005,15.359-.005,15.359,0,2.059-1.993,3.728-4.452,3.728s-4.452-1.669-4.452-3.728V403.343A1,1,0,0,1,654.912,402.481Z" transform="translate(-653.849 -386.247)"/>
          </g>
        </g>
      </g>
    </g>
  </g>
</svg>
