<svg xmlns="http://www.w3.org/2000/svg" xmlns:xlink="http://www.w3.org/1999/xlink" width="328" height="160" viewBox="0 0 328 160">
  <defs>
    <style>
      .cls-1 {
        fill: #3ddb87;
      }

      .cls-10, .cls-13, .cls-15, .cls-2, .cls-7, .cls-8 {
        fill: #fff;
      }

      .cls-2 {
        stroke: #707070;
      }

      .cls-3 {
        clip-path: url(#clip-path);
      }

      .cls-4 {
        clip-path: url(#clip-path-2);
      }

      .cls-5 {
        opacity: 0.518;
        fill: url(#linear-gradient);
      }

      .cls-11, .cls-21, .cls-6 {
        fill: none;
      }

      .cls-11, .cls-6 {
        stroke: #fff;
      }

      .cls-6 {
        stroke-width: 2px;
        font-size: 42px;
      }

      .cls-13, .cls-16, .cls-6 {
        font-family: Montserrat-ExtraBold, Montserrat;
        font-weight: 800;
      }

      .cls-6, .cls-8 {
        letter-spacing: -0.02em;
      }

      .cls-7, .cls-8 {
        font-size: 43px;
        font-family: BlackHanSans-Regular, Black Han Sans;
      }

      .cls-9 {
        clip-path: url(#clip-path-3);
      }

      .cls-11 {
        stroke-linecap: round;
        stroke-miterlimit: 10;
        stroke-width: 3px;
      }

      .cls-12 {
        fill: #6464ff;
      }

      .cls-13, .cls-16 {
        font-size: 10px;
      }

      .cls-14 {
        font-family: AppleSDGothicNeo-ExtraBold, Apple SD Gothic Neo;
      }

      .cls-16, .cls-17 {
        fill: #34c678;
      }

      .cls-17 {
        stroke: #0f1f2e;
      }

      .cls-18 {
        fill: #08140d;
        opacity: 0.199;
      }

      .cls-19, .cls-20 {
        stroke: none;
      }

      .cls-20 {
        fill: #0f1f2e;
      }
    </style>
    <clipPath id="clip-path">
      <path id="패스_13361" data-name="패스 13361" class="cls-1" d="M16,0H312a16,16,0,0,1,16,16V144a16,16,0,0,1-16,16H16A16,16,0,0,1,0,144V16A16,16,0,0,1,16,0Z" transform="translate(24 680)"/>
    </clipPath>
    <clipPath id="clip-path-2">
      <path id="패스_13355" data-name="패스 13355" class="cls-1" d="M16,0H312a16,16,0,0,1,16,16V144a16,16,0,0,1-16,16H16A16,16,0,0,1,0,144V16A16,16,0,0,1,16,0Z" transform="translate(24 178)"/>
    </clipPath>
    <linearGradient id="linear-gradient" x1="0.19" y1="0.075" x2="0.603" y2="0.66" gradientUnits="objectBoundingBox">
      <stop offset="0" stop-color="#afffd4"/>
      <stop offset="1" stop-color="#3ddb87"/>
    </linearGradient>
    <clipPath id="clip-path-3">
      <rect id="사각형_6377" data-name="사각형 6377" class="cls-2" width="113" height="142" rx="16" transform="translate(239 196)"/>
    </clipPath>
  </defs>
  <g id="배너3" class="cls-3" transform="translate(-24 -680)">
    <path id="패스_13354" data-name="패스 13354" class="cls-1" d="M16,0H312a16,16,0,0,1,16,16V144a16,16,0,0,1-16,16H16A16,16,0,0,1,0,144V16A16,16,0,0,1,16,0Z" transform="translate(24 680)"/>
    <g id="마스크_그룹_344" data-name="마스크 그룹 344" class="cls-4" transform="translate(0 502)">
      <circle id="타원_2156" data-name="타원 2156" class="cls-5" cx="66" cy="66" r="66" transform="translate(239 241)"/>
    </g>
    <text id="Contra_wireframe_kit" data-name="Contra wireframe kit" class="cls-6" transform="translate(124.5 802.5)"><tspan x="0" y="0">PLUS</tspan></text>
    <text id="혜택" class="cls-7" transform="translate(44 804)"><tspan x="0" y="0">혜택</tspan></text>
    <text id="주유한만큼_" data-name="주유한만큼 " class="cls-8" transform="translate(44.642 753.969)"><tspan x="0" y="0">주유한만큼 </tspan></text>
    <g id="반짣" transform="translate(-37.478 596.672)">
      <path id="shape2" class="cls-10" d="M1725.573,840.95h-2.154a3.47,3.47,0,0,1-3.47-3.47v-2.154c-.333-.379-.756-.148-.756.182v1.972a3.47,3.47,0,0,1-3.471,3.47h-2.154c-.38.333-.148.756.182.756h1.972a3.47,3.47,0,0,1,3.471,3.47v2.154c.333.379.756.149.756-.182v-1.972a3.47,3.47,0,0,1,3.47-3.47h1.972c.33,0,.561-.423.182-.756" transform="translate(-1423.226 -726.466)"/>
      <g id="shape" transform="translate(275.12 126.57)">
        <line id="선_9" data-name="선 9" class="cls-11" x1="1.753" transform="translate(0 7.569)"/>
        <line id="선_10" data-name="선 10" class="cls-11" x1="1.753" transform="translate(13.275 7.569)"/>
        <line id="선_11" data-name="선 11" class="cls-11" y2="1.753" transform="translate(7.514 13.331)"/>
        <line id="선_12" data-name="선 12" class="cls-11" y2="1.753" transform="translate(7.514)"/>
      </g>
    </g>
    <g id="빼기_153" data-name="빼기 153" class="cls-12" transform="translate(308.606 721.966) rotate(90)">
      <path class="cls-19" d="M 29.71388244628906 22.50020980834961 L 2.939410448074341 22.4995002746582 C 1.561060547828674 22.4995002746582 0.4397005438804626 21.37773895263672 0.4397005438804626 19.99889945983887 L 0.4397005438804626 2.999699592590332 C 0.4397005438804626 1.621359705924988 1.561060547828674 0.4999996721744537 2.939400434494019 0.4999996721744537 L 29.77030181884766 0.4999996721744537 C 30.34153366088867 1.764160513877869 31.5739917755127 2.590699672698975 32.93910217285156 2.590699672698975 C 34.30438232421875 2.590699672698975 35.53714370727539 1.76410973072052 36.10862731933594 0.4999996721744537 L 40.93920135498047 0.4999996721744537 C 42.31753921508789 0.4999996721744537 43.43889999389648 1.621359705924988 43.43889999389648 2.999699592590332 L 43.43889999389648 19.99889945983887 C 43.43889999389648 21.37773895263672 42.31753921508789 22.4995002746582 40.93920135498047 22.4995002746582 L 36.1647834777832 22.4995002746582 C 35.62277603149414 21.15752983093262 34.36871337890625 20.28009986877441 32.93910217285156 20.28009986877441 C 31.5095100402832 20.28009986877441 30.25553703308105 21.15790367126465 29.71388244628906 22.50020980834961 Z"/>
      <path class="cls-20" d="M 29.39118576049805 22.00020217895508 C 30.06878471374512 20.64681243896484 31.41638565063477 19.78009986877441 32.93910217285156 19.78009986877441 C 34.46175003051758 19.78009986877441 35.8094367980957 20.64651107788086 36.48736572265625 21.9995002746582 L 40.93920135498047 21.9995002746582 C 42.04183959960938 21.9995002746582 42.93889999389648 21.10202980041504 42.93889999389648 19.99889945983887 L 42.93889999389648 2.999699592590332 C 42.93889999389648 1.897059679031372 42.04183959960938 0.9999997019767761 40.93920135498047 0.9999997019767761 L 36.41714859008789 0.9999997019767761 C 35.71523284912109 2.274600505828857 34.39340972900391 3.090699672698975 32.93910217285156 3.090699672698975 C 31.48492050170898 3.090699672698975 30.16340255737305 2.274671792984009 29.46173477172852 0.9999997019767761 L 2.939400434494019 0.9999997019767761 C 1.836760520935059 0.9999997019767761 0.9397005438804626 1.897059679031372 0.9397005438804626 2.999699592590332 L 0.9397005438804626 19.99889945983887 C 0.9397005438804626 21.10202980041504 1.836760520935059 21.9995002746582 2.939430475234985 21.9995002746582 L 29.39118576049805 22.00020217895508 M 30.0692195892334 23.00021934509277 L 30.0684700012207 23.00021934509277 L 2.939400434494019 22.9995002746582 C 1.28536057472229 22.9995002746582 -0.06029946357011795 21.65344047546387 -0.06029946357011795 19.99889945983887 L -0.06029946357011795 2.999699592590332 C -0.06029946357011795 1.345659613609314 1.28536057472229 -3.274536197750422e-07 2.939400434494019 -3.274536197750422e-07 L 30.11015129089355 -3.274536197750422e-07 C 30.53297996520996 1.250789642333984 31.66946983337402 2.090699672698975 32.93910217285156 2.090699672698975 C 34.20867156982422 2.090699672698975 35.34585952758789 1.25050961971283 35.76884078979492 -3.274536197750422e-07 L 40.93920135498047 -3.274536197750422e-07 C 42.59323883056641 -3.274536197750422e-07 43.93889999389648 1.345659613609314 43.93889999389648 2.999699592590332 L 43.93889999389648 19.99889945983887 C 43.93889999389648 21.65344047546387 42.59323883056641 22.9995002746582 40.93920135498047 22.9995002746582 L 35.8095817565918 22.9995002746582 C 35.42206192016602 21.67172050476074 34.26889038085938 20.78009986877441 32.93910217285156 20.78009986877441 C 31.60987091064453 20.78009986877441 30.45664024353027 21.67201042175293 30.06943130493164 22.9995002746582 L 30.0692195892334 23.00021934509277 Z"/>
    </g>
    <text id="_1_000원" data-name="1,000원" class="cls-13" transform="translate(293.606 765.904) rotate(90)"><tspan x="-35.94" y="0">1,000</tspan><tspan class="cls-14" y="0">원</tspan></text>
    <g id="빼기_166" data-name="빼기 166" class="cls-15" transform="translate(294.31 767.416) rotate(-69)">
      <path class="cls-19" d="M 29.71388244628906 22.50020980834961 L 2.939410448074341 22.4995002746582 C 1.561060547828674 22.4995002746582 0.4397005438804626 21.37773895263672 0.4397005438804626 19.99889945983887 L 0.4397005438804626 2.999699592590332 C 0.4397005438804626 1.621359705924988 1.561060547828674 0.4999996721744537 2.939400434494019 0.4999996721744537 L 29.77030181884766 0.4999996721744537 C 30.34153366088867 1.764160513877869 31.5739917755127 2.590699672698975 32.93910217285156 2.590699672698975 C 34.30438232421875 2.590699672698975 35.53714370727539 1.76410973072052 36.10862731933594 0.4999996721744537 L 40.93920135498047 0.4999996721744537 C 42.31753921508789 0.4999996721744537 43.43889999389648 1.621359705924988 43.43889999389648 2.999699592590332 L 43.43889999389648 19.99889945983887 C 43.43889999389648 21.37773895263672 42.31753921508789 22.4995002746582 40.93920135498047 22.4995002746582 L 36.1647834777832 22.4995002746582 C 35.62277603149414 21.15752983093262 34.36871337890625 20.28009986877441 32.93910217285156 20.28009986877441 C 31.5095100402832 20.28009986877441 30.25553703308105 21.15790367126465 29.71388244628906 22.50020980834961 Z"/>
      <path class="cls-20" d="M 29.39118576049805 22.00020217895508 C 30.06878471374512 20.64681243896484 31.41638565063477 19.78009986877441 32.93910217285156 19.78009986877441 C 34.46175003051758 19.78009986877441 35.8094367980957 20.64651107788086 36.48736572265625 21.9995002746582 L 40.93920135498047 21.9995002746582 C 42.04183959960938 21.9995002746582 42.93889999389648 21.10202980041504 42.93889999389648 19.99889945983887 L 42.93889999389648 2.999699592590332 C 42.93889999389648 1.897059679031372 42.04183959960938 0.9999997019767761 40.93920135498047 0.9999997019767761 L 36.41714859008789 0.9999997019767761 C 35.71523284912109 2.274600505828857 34.39340972900391 3.090699672698975 32.93910217285156 3.090699672698975 C 31.48492050170898 3.090699672698975 30.16340255737305 2.274671792984009 29.46173477172852 0.9999997019767761 L 2.939400434494019 0.9999997019767761 C 1.836760520935059 0.9999997019767761 0.9397005438804626 1.897059679031372 0.9397005438804626 2.999699592590332 L 0.9397005438804626 19.99889945983887 C 0.9397005438804626 21.10202980041504 1.836760520935059 21.9995002746582 2.939430475234985 21.9995002746582 L 29.39118576049805 22.00020217895508 M 30.0692195892334 23.00021934509277 L 30.0684700012207 23.00021934509277 L 2.939400434494019 22.9995002746582 C 1.28536057472229 22.9995002746582 -0.06029946357011795 21.65344047546387 -0.06029946357011795 19.99889945983887 L -0.06029946357011795 2.999699592590332 C -0.06029946357011795 1.345659613609314 1.28536057472229 -3.274536197750422e-07 2.939400434494019 -3.274536197750422e-07 L 30.11015129089355 -3.274536197750422e-07 C 30.53297996520996 1.250789642333984 31.66946983337402 2.090699672698975 32.93910217285156 2.090699672698975 C 34.20867156982422 2.090699672698975 35.34585952758789 1.25050961971283 35.76884078979492 -3.274536197750422e-07 L 40.93920135498047 -3.274536197750422e-07 C 42.59323883056641 -3.274536197750422e-07 43.93889999389648 1.345659613609314 43.93889999389648 2.999699592590332 L 43.93889999389648 19.99889945983887 C 43.93889999389648 21.65344047546387 42.59323883056641 22.9995002746582 40.93920135498047 22.9995002746582 L 35.8095817565918 22.9995002746582 C 35.42206192016602 21.67172050476074 34.26889038085938 20.78009986877441 32.93910217285156 20.78009986877441 C 31.60987091064453 20.78009986877441 30.45664024353027 21.67201042175293 30.06943130493164 22.9995002746582 L 30.0692195892334 23.00021934509277 Z"/>
    </g>
    <text id="_1_000원-2" data-name="1,000원" class="cls-16" transform="translate(303.19 768.319) rotate(111)"><tspan x="-35.94" y="0">1,000</tspan><tspan class="cls-14" y="0">원</tspan></text>
    <g id="빼기_167" data-name="빼기 167" class="cls-15" transform="translate(278.969 775.663) rotate(-120)">
      <path class="cls-19" d="M 29.71388244628906 22.50020980834961 L 2.939410448074341 22.4995002746582 C 1.561060547828674 22.4995002746582 0.4397005438804626 21.37773895263672 0.4397005438804626 19.99889945983887 L 0.4397005438804626 2.999699592590332 C 0.4397005438804626 1.621359705924988 1.561060547828674 0.4999996721744537 2.939400434494019 0.4999996721744537 L 29.77030181884766 0.4999996721744537 C 30.34153366088867 1.764160513877869 31.5739917755127 2.590699672698975 32.93910217285156 2.590699672698975 C 34.30438232421875 2.590699672698975 35.53714370727539 1.76410973072052 36.10862731933594 0.4999996721744537 L 40.93920135498047 0.4999996721744537 C 42.31753921508789 0.4999996721744537 43.43889999389648 1.621359705924988 43.43889999389648 2.999699592590332 L 43.43889999389648 19.99889945983887 C 43.43889999389648 21.37773895263672 42.31753921508789 22.4995002746582 40.93920135498047 22.4995002746582 L 36.1647834777832 22.4995002746582 C 35.62277603149414 21.15752983093262 34.36871337890625 20.28009986877441 32.93910217285156 20.28009986877441 C 31.5095100402832 20.28009986877441 30.25553703308105 21.15790367126465 29.71388244628906 22.50020980834961 Z"/>
      <path class="cls-20" d="M 29.39118576049805 22.00020217895508 C 30.06878471374512 20.64681243896484 31.41638565063477 19.78009986877441 32.93910217285156 19.78009986877441 C 34.46175003051758 19.78009986877441 35.8094367980957 20.64651107788086 36.48736572265625 21.9995002746582 L 40.93920135498047 21.9995002746582 C 42.04183959960938 21.9995002746582 42.93889999389648 21.10202980041504 42.93889999389648 19.99889945983887 L 42.93889999389648 2.999699592590332 C 42.93889999389648 1.897059679031372 42.04183959960938 0.9999997019767761 40.93920135498047 0.9999997019767761 L 36.41714859008789 0.9999997019767761 C 35.71523284912109 2.274600505828857 34.39340972900391 3.090699672698975 32.93910217285156 3.090699672698975 C 31.48492050170898 3.090699672698975 30.16340255737305 2.274671792984009 29.46173477172852 0.9999997019767761 L 2.939400434494019 0.9999997019767761 C 1.836760520935059 0.9999997019767761 0.9397005438804626 1.897059679031372 0.9397005438804626 2.999699592590332 L 0.9397005438804626 19.99889945983887 C 0.9397005438804626 21.10202980041504 1.836760520935059 21.9995002746582 2.939430475234985 21.9995002746582 L 29.39118576049805 22.00020217895508 M 30.0692195892334 23.00021934509277 L 30.0684700012207 23.00021934509277 L 2.939400434494019 22.9995002746582 C 1.28536057472229 22.9995002746582 -0.06029946357011795 21.65344047546387 -0.06029946357011795 19.99889945983887 L -0.06029946357011795 2.999699592590332 C -0.06029946357011795 1.345659613609314 1.28536057472229 -3.274536197750422e-07 2.939400434494019 -3.274536197750422e-07 L 30.11015129089355 -3.274536197750422e-07 C 30.53297996520996 1.250789642333984 31.66946983337402 2.090699672698975 32.93910217285156 2.090699672698975 C 34.20867156982422 2.090699672698975 35.34585952758789 1.25050961971283 35.76884078979492 -3.274536197750422e-07 L 40.93920135498047 -3.274536197750422e-07 C 42.59323883056641 -3.274536197750422e-07 43.93889999389648 1.345659613609314 43.93889999389648 2.999699592590332 L 43.93889999389648 19.99889945983887 C 43.93889999389648 21.65344047546387 42.59323883056641 22.9995002746582 40.93920135498047 22.9995002746582 L 35.8095817565918 22.9995002746582 C 35.42206192016602 21.67172050476074 34.26889038085938 20.78009986877441 32.93910217285156 20.78009986877441 C 31.60987091064453 20.78009986877441 30.45664024353027 21.67201042175293 30.06943130493164 22.9995002746582 L 30.0692195892334 23.00021934509277 Z"/>
    </g>
    <text id="_1_000원-3" data-name="1,000원" class="cls-16" transform="translate(283.928 770.403) rotate(60)"><tspan x="-35.94" y="0">1,000</tspan><tspan class="cls-14" y="0">원</tspan></text>
    <g id="사각형_6383" data-name="사각형 6383" class="cls-17" transform="translate(259 776)">
      <rect class="cls-19" width="71" height="37"/>
      <rect class="cls-21" x="0.5" y="0.5" width="70" height="36"/>
    </g>
    <g id="사각형_6384" data-name="사각형 6384" class="cls-17" transform="translate(257 763)">
      <rect class="cls-19" width="76" height="14" rx="1"/>
      <rect class="cls-21" x="0.5" y="0.5" width="75" height="13" rx="0.5"/>
    </g>
    <rect id="사각형_6385" data-name="사각형 6385" class="cls-18" width="71" height="4" transform="translate(259 776)"/>
    <g id="사각형_6386" data-name="사각형 6386" class="cls-17" transform="translate(304.606 793)">
      <rect class="cls-19" width="38" height="20"/>
      <rect class="cls-21" x="0.5" y="0.5" width="37" height="19"/>
    </g>
    <g id="사각형_6387" data-name="사각형 6387" class="cls-17" transform="translate(303.606 786)">
      <rect class="cls-19" width="41" height="7.974" rx="1"/>
      <rect class="cls-21" x="0.5" y="0.5" width="40" height="6.974" rx="0.5"/>
    </g>
    <g id="패스_13356" data-name="패스 13356" class="cls-15" transform="translate(319.291 785.08)">
      <path class="cls-19" d="M 8.113668441772461 17.22807502746582 C 7.720697402954102 16.89095687866211 6.805909633636475 15.75552272796631 6.084384918212891 14.7548770904541 C 6.026692867279053 14.64842700958252 5.831681251525879 14.29691791534424 5.584389686584473 13.94088077545166 C 5.100229740142822 13.24381065368652 4.702099800109863 12.93187046051025 4.293479919433594 12.92943096160889 C 3.878389596939087 12.92942047119141 3.479869604110718 13.24133110046387 2.996759653091431 13.94077110290527 C 2.745821475982666 14.30408000946045 2.549175262451172 14.66299915313721 2.496038198471069 14.76210498809814 C 1.8299640417099 15.74422359466553 0.9506468772888184 16.87108421325684 0.629105269908905 17.08626937866211 C 0.5952111482620239 17.08522605895996 0.5558232665061951 17.08398818969727 0.5209196209907532 17.08211898803711 C 0.5106357336044312 17.01876258850098 0.4999997019767761 16.90854454040527 0.4999997019767761 16.72368049621582 L 0.4999997019767761 1.618420958518982 C 0.4999997019767761 1.001720905303955 1.00171971321106 0.5000009536743164 1.618419647216797 0.5000009536743164 L 7.01315975189209 0.5000009536743164 C 7.629859924316406 0.5000009536743164 8.131579399108887 1.001720905303955 8.131579399108887 1.618420958518982 L 8.131579399108887 16.72368049621582 C 8.131579399108887 16.97465705871582 8.123933792114258 17.13112449645996 8.113668441772461 17.22807502746582 Z"/>
      <path class="cls-20" d="M 1.618419647216797 1 C 1.277419567108154 1 0.9999995231628418 1.277420043945312 0.9999995231628418 1.61842155456543 L 0.9999995231628418 15.95252799987793 C 1.326704025268555 15.54559898376465 1.715088844299316 15.02142906188965 2.068193912506104 14.50212287902832 C 2.140209197998047 14.36932468414307 2.338227272033691 14.01440525054932 2.585359573364258 13.6566104888916 C 2.979999542236328 13.08525085449219 3.530279636383057 12.42942047119141 4.290499687194824 12.42942047119141 L 4.293479919433594 12.42942047119141 L 4.296459674835205 12.42944145202637 C 5.050230026245117 12.43393135070801 5.600159645080566 13.08711051940918 5.995049476623535 13.6556510925293 C 6.236126899719238 14.00273323059082 6.430849075317383 14.34683418273926 6.508082866668701 14.48754596710205 C 6.861937046051025 14.97699642181396 7.270790100097656 15.51025009155273 7.631579875946045 15.95215225219727 L 7.631579875946045 1.61842155456543 C 7.631579875946045 1.277420043945312 7.354159832000732 1 7.01315975189209 1 L 1.618419647216797 1 M 1.618419647216797 0 L 7.01315975189209 0 C 7.906989574432373 0 8.631579399108887 0.7245903015136719 8.631579399108887 1.61842155456543 L 8.631579399108887 16.72368049621582 C 8.631579399108887 17.61751174926758 8.551499366760254 17.76575088500977 8.109230041503906 17.78841018676758 C 8.107447624206543 17.78850173950195 8.105622291564941 17.78854751586914 8.103790283203125 17.78854751586914 C 7.650790214538574 17.78854751586914 5.659469604492188 15.02044105529785 5.659469604492188 15.02044105529785 C 5.659469604492188 15.02044105529785 4.820489883422852 13.43258094787598 4.290499687194824 13.42942047119141 C 4.289982318878174 13.42941761016846 4.289442539215088 13.42941665649414 4.288924694061279 13.42941665649414 C 3.758856773376465 13.42941665649414 2.924959659576416 15.02044105529785 2.924959659576416 15.02044105529785 C 2.924959659576416 15.02044105529785 1.187987327575684 17.58883285522461 0.7012205123901367 17.58883285522461 C 0.6995210647583008 17.58883285522461 0.697878360748291 17.58880233764648 0.6962099075317383 17.58874130249023 C 0.2165298461914062 17.57083129882812 0 17.61751174926758 0 16.72368049621582 L 0 1.61842155456543 C 0 0.7245903015136719 0.7245898246765137 0 1.618419647216797 0 Z"/>
    </g>
    <g id="합치기_183" data-name="합치기 183" class="cls-15" transform="translate(6522.504 12953.002)">
      <path class="cls-19" d="M -6191.271484375 -12166.42578125 L -6198.6669921875 -12166.42578125 C -6198.71875 -12166.42578125 -6198.76806640625 -12166.4296875 -6198.8134765625 -12166.4375 L -6198.89697265625 -12166.451171875 L -6198.98046875 -12166.4375 C -6199.02587890625 -12166.4296875 -6199.0751953125 -12166.42578125 -6199.12744140625 -12166.42578125 L -6206.5205078125 -12166.42578125 C -6207.060546875 -12166.42578125 -6207.5 -12166.9072265625 -6207.5 -12167.4990234375 L -6207.5 -12171.427734375 C -6207.5 -12171.9833984375 -6207.1123046875 -12172.4423828125 -6206.61767578125 -12172.49609375 L -6199.33544921875 -12169.1669921875 L -6199.236328125 -12169.1220703125 L -6199.12744140625 -12169.1220703125 C -6199.0791015625 -12169.1220703125 -6199.02783203125 -12169.1181640625 -6198.97412109375 -12169.109375 L -6198.89697265625 -12169.09765625 L -6198.81982421875 -12169.109375 C -6198.765625 -12169.1181640625 -6198.71533203125 -12169.1220703125 -6198.6669921875 -12169.1220703125 L -6198.55810546875 -12169.1220703125 L -6198.458984375 -12169.1669921875 L -6191.17431640625 -12172.49609375 C -6190.68115234375 -12172.4423828125 -6190.294921875 -12171.9833984375 -6190.294921875 -12171.427734375 L -6190.294921875 -12167.4990234375 C -6190.294921875 -12166.9072265625 -6190.73291015625 -12166.42578125 -6191.271484375 -12166.42578125 Z"/>
      <path class="cls-20" d="M -6191.271484375 -12166.92578125 C -6191.01318359375 -12166.92578125 -6190.794921875 -12167.1884765625 -6190.794921875 -12167.4990234375 L -6190.794921875 -12171.427734375 C -6190.794921875 -12171.67578125 -6190.93359375 -12171.892578125 -6191.12060546875 -12171.970703125 L -6198.25146484375 -12168.712890625 L -6198.44921875 -12168.6220703125 L -6198.6669921875 -12168.6220703125 C -6198.68896484375 -12168.6220703125 -6198.71484375 -12168.6201171875 -6198.7431640625 -12168.615234375 L -6198.89697265625 -12168.591796875 L -6199.05078125 -12168.615234375 C -6199.0791015625 -12168.6201171875 -6199.10498046875 -12168.6220703125 -6199.12744140625 -12168.6220703125 L -6199.34521484375 -12168.6220703125 L -6199.54296875 -12168.712890625 L -6206.671875 -12171.970703125 C -6206.8603515625 -12171.892578125 -6207 -12171.67578125 -6207 -12171.427734375 L -6207 -12167.4990234375 C -6207 -12167.1826171875 -6206.78466796875 -12166.92578125 -6206.5205078125 -12166.92578125 L -6199.12744140625 -12166.92578125 C -6199.103515625 -12166.92578125 -6199.08154296875 -12166.927734375 -6199.0634765625 -12166.9306640625 L -6198.89697265625 -12166.958984375 L -6198.73046875 -12166.9306640625 C -6198.71240234375 -12166.927734375 -6198.69091796875 -12166.92578125 -6198.6669921875 -12166.92578125 L -6191.271484375 -12166.92578125 M -6191.271484375 -12165.92578125 L -6198.6669921875 -12165.92578125 C -6198.7451171875 -12165.92578125 -6198.82177734375 -12165.931640625 -6198.89697265625 -12165.9443359375 C -6198.97216796875 -12165.931640625 -6199.04931640625 -12165.92578125 -6199.12744140625 -12165.92578125 L -6206.5205078125 -12165.92578125 C -6207.33837890625 -12165.92578125 -6208 -12166.630859375 -6208 -12167.4990234375 L -6208 -12171.427734375 C -6208 -12172.294921875 -6207.33837890625 -12173.0009765625 -6206.5205078125 -12173.0009765625 L -6199.12744140625 -12169.6220703125 C -6199.04931640625 -12169.6220703125 -6198.97216796875 -12169.615234375 -6198.89697265625 -12169.603515625 C -6198.82177734375 -12169.615234375 -6198.7451171875 -12169.6220703125 -6198.6669921875 -12169.6220703125 L -6191.271484375 -12173.0009765625 C -6190.45654296875 -12173.0009765625 -6189.794921875 -12172.294921875 -6189.794921875 -12171.427734375 L -6189.794921875 -12167.4990234375 C -6189.794921875 -12166.630859375 -6190.45654296875 -12165.92578125 -6191.271484375 -12165.92578125 Z"/>
    </g>
  </g>
</svg>
