<svg xmlns="http://www.w3.org/2000/svg" width="92" height="92" viewBox="0 0 92 92">
  <defs>
    <style>
      .cls-1 {
        fill: #f4f4f4;
        stroke: #e0e0e0;
        stroke-width: 1.5px;
      }

      .cls-2 {
        fill: #fff;
      }

      .cls-3 {
        opacity: 0.1;
      }

      .cls-4 {
        stroke: none;
      }

      .cls-5 {
        fill: none;
      }
    </style>
  </defs>
  <g id="_1" data-name="1" transform="translate(-0.311)">
    <g id="타원_1861" data-name="타원 1861" class="cls-1" transform="translate(0.311)">
      <circle class="cls-4" cx="46" cy="46" r="46"/>
      <circle class="cls-5" cx="46" cy="46" r="45.25"/>
    </g>
    <g id="비밀" transform="translate(4.345 9.05)">
      <circle id="타원_1879" data-name="타원 1879" class="cls-2" cx="33" cy="33" r="33" transform="translate(8.966 4.95)"/>
      <g id="Shape" class="cls-3" transform="translate(21.389 27.16)">
        <path id="패스_309" data-name="패스 309" d="M17.653,11.416h-6.2V17.59a.43.43,0,0,1-.861,0V11.416H4.4a.429.429,0,1,1,0-.858h6.2V4.384a.43.43,0,0,1,.861,0v6.174h6.2a.429.429,0,1,1,0,.858M11.026,0A10.987,10.987,0,1,0,22.053,10.987,11.007,11.007,0,0,0,11.026,0" transform="translate(19.284 0)"/>
        <path id="패스_310" data-name="패스 310" d="M4.372,8.645a7.066,7.066,0,0,1,13.31,0,.273.273,0,0,1-.258.364H4.629a.273.273,0,0,1-.258-.364m11.474,7.768a.182.182,0,0,0-.275-.046,7.069,7.069,0,0,1-11.2-3.038.274.274,0,0,1,.258-.365H18.638A11.571,11.571,0,0,1,20.193,4.9a10.99,10.99,0,1,0-2.577,14.895.182.182,0,0,0,.048-.237Z"/>
      </g>
      <g id="그룹_17414" data-name="그룹 17414">
        <path id="패스_9872" data-name="패스 9872" class="cls-2" d="M411.665,117.942l-.531.906-3.777-2.212,2.857-4.879,3.687,2.158-.529.906-2.566-1.5-.619,1.059,2.264,1.326-.513.878-2.265-1.326-.661,1.129Z" transform="translate(-348.462 -111.758)"/>
        <path id="패스_9873" data-name="패스 9873" class="cls-2" d="M421.372,119.965l-3.768,4.218-.8-.716.184-4.439-2.287,2.56-.965-.862,3.768-4.217.807.721-.19,4.434,2.288-2.561Z" transform="translate(-349.116 -112.245)"/>
        <path id="패스_9874" data-name="패스 9874" class="cls-2" d="M423.481,129.784l-.841.631-2.627-3.5,4.525-3.393,2.564,3.419-.84.63-1.784-2.379-.982.738,1.574,2.1-.814.61-1.576-2.1-1.046.785Z" transform="translate(-349.76 -112.964)"/>
        <path id="패스_9875" data-name="패스 9875" class="cls-2" d="M425.883,136.431l.941-1.668-.028-.058-.5-1.025-1.418.686-.57-1.177,5.09-2.464,1.067,2.2c.658,1.36.364,2.551-.777,3.1a1.838,1.838,0,0,1-2.114-.269l-1.084,1.933Zm3.594-3.1-.464-.96-1.775.859.465.96c.349.719.859.921,1.412.653S429.825,134.046,429.477,133.327Z" transform="translate(-350.2 -113.703)"/>
        <path id="패스_9876" data-name="패스 9876" class="cls-2" d="M431.4,143.745l.293,1.159-2.225.56a3.89,3.89,0,0,1-1.255-2.041,2.929,2.929,0,1,1,5.677-1.4,3.017,3.017,0,0,1-.37,2.534l-.958-.626a1.907,1.907,0,0,0,.262-1.573,1.81,1.81,0,1,0-3.514.867,2.083,2.083,0,0,0,.484.929Z" transform="translate(-350.589 -114.615)"/>
        <path id="패스_9877" data-name="패스 9877" class="cls-2" d="M431.465,151.618l-2,.1-.067-1.307,2.017-.1,3.518-2.371.071,1.387-2.431,1.636,2.585,1.38.065,1.282Z" transform="translate(-350.722 -115.468)"/>
        <path id="패스_9878" data-name="패스 9878" class="cls-2" d="M431.192,166.494c-1.224-.3-1.758-1.41-1.395-2.877l.275-1.107-1.514-.375.315-1.271,5.492,1.361-.59,2.378C433.413,166.07,432.424,166.8,431.192,166.494Zm.32-1.286c.6.15,1.054-.155,1.247-.932l.257-1.036-1.907-.473-.257,1.037C430.658,164.579,430.915,165.06,431.512,165.208Z" transform="translate(-350.636 -116.793)"/>
        <path id="패스_9879" data-name="패스 9879" class="cls-2" d="M431.593,170.985l-.544,1.192-4.177-1.905-1.177,2.58-.971-.442,1.721-3.772Z" transform="translate(-350.243 -117.59)"/>
        <path id="패스_9880" data-name="패스 9880" class="cls-2" d="M425.388,176.348l2.577,1.835-.758,1.064-2.538-1.807c-.873-.623-1.507-.5-1.966.145s-.369,1.282.506,1.905l2.537,1.808L425,182.351l-2.577-1.836a2.558,2.558,0,1,1,2.969-4.167Z" transform="translate(-349.884 -118.32)"/>
        <path id="패스_9881" data-name="패스 9881" class="cls-2" d="M418.742,181.747l.355,1.02a3.331,3.331,0,0,0-1.76.856c-.563.534-.613.939-.374,1.191.729.767,2.613-2.023,4.059-.5.661.7.649,1.811-.517,2.918a3.785,3.785,0,0,1-1.769.987l-.391-1a3.2,3.2,0,0,0,1.443-.757c.563-.534.579-.95.335-1.208-.717-.757-2.607,2.028-4.037.521-.651-.686-.638-1.811.534-2.923A4.027,4.027,0,0,1,418.742,181.747Z" transform="translate(-349.313 -118.934)"/>
        <path id="패스_9882" data-name="패스 9882" class="cls-2" d="M375.976,193.458l.252-1.019,4.246,1.055-1.361,5.483-4.144-1.029.253-1.019,2.883.716.3-1.191-2.546-.632.246-.987,2.545.632.315-1.269Z" transform="translate(-345.141 -120.031)"/>
        <path id="패스_9883" data-name="패스 9883" class="cls-2" d="M365.92,194.189l2.435-5.109.971.462,1.069,4.316,1.479-3.1,1.167.556-2.434,5.109-.978-.466-1.063-4.312-1.477,3.1Z" transform="translate(-344.213 -119.686)"/>
        <path id="패스_9884" data-name="패스 9884" class="cls-2" d="M361.2,185.393l.63-.84,3.5,2.627-3.393,4.525-3.419-2.564.63-.841,2.378,1.784.737-.983-2.1-1.575.61-.815,2.1,1.576.785-1.047Z" transform="translate(-343.454 -119.222)"/>
        <path id="패스_9885" data-name="패스 9885" class="cls-2" d="M357.086,179.674l-.434,1.866.043.048.765.844,1.167-1.057.88.97-4.189,3.8-1.643-1.813c-1.014-1.12-1.068-2.346-.128-3.2a1.836,1.836,0,0,1,2.1-.337l.495-2.16Zm-2.575,3.99.716.79,1.46-1.323-.716-.79c-.536-.593-1.083-.643-1.538-.231S353.975,183.072,354.511,183.664Z" transform="translate(-342.875 -118.615)"/>
        <path id="패스_9886" data-name="패스 9886" class="cls-2" d="M349.793,174.3l-.608-1.03,1.976-1.167a3.908,3.908,0,0,1,1.781,1.6,2.93,2.93,0,1,1-5.049,2.954,3.014,3.014,0,0,1-.362-2.536l1.095.329a1.915,1.915,0,0,0,.194,1.584,1.81,1.81,0,1,0,3.125-1.826,2.072,2.072,0,0,0-.727-.754Z" transform="translate(-342.313 -117.946)"/>
        <path id="패스_9887" data-name="패스 9887" class="cls-2" d="M347.458,166.949l1.891-.661.433,1.236-1.907.667-2.709,3.269-.46-1.312,1.873-2.256-2.871-.6-.425-1.212Z" transform="translate(-341.892 -117.328)"/>
        <path id="패스_9888" data-name="패스 9888" class="cls-2" d="M343.685,152.479c1.259-.051,2.08.861,2.141,2.369l.047,1.137,1.556-.064.054,1.307-5.647.23-.1-2.444C341.676,153.506,342.42,152.531,343.685,152.479Zm.055,1.323c-.622.025-.967.443-.935,1.242l.043,1.064,1.96-.08-.044-1.064C344.731,154.165,344.352,153.777,343.74,153.8Z" transform="translate(-341.733 -115.933)"/>
        <path id="패스_9889" data-name="패스 9889" class="cls-2" d="M341.893,148.4l.184-1.3,4.542.645.4-2.806,1.055.15-.583,4.1Z" transform="translate(-341.75 -115.16)"/>
        <path id="패스_9890" data-name="패스 9890" class="cls-2" d="M346.326,141.333l-3-1.037.429-1.238,2.949,1.02c1.017.352,1.589.053,1.849-.7s-.007-1.337-1.024-1.689l-2.949-1.02.422-1.222,3,1.036a2.564,2.564,0,1,1-1.676,4.845Z" transform="translate(-341.897 -114.187)"/>
        <path id="패스_9891" data-name="패스 9891" class="cls-2" d="M351.24,134.266l-.628-.88a3.332,3.332,0,0,0,1.449-1.317c.391-.67.326-1.072.025-1.247-.915-.533-1.942,2.675-3.757,1.618-.832-.485-1.133-1.557-.323-2.947a3.793,3.793,0,0,1,1.422-1.445l.655.85a3.193,3.193,0,0,0-1.173,1.131c-.39.67-.29,1.075.018,1.255.9.524,1.934-2.68,3.729-1.635.818.476,1.122,1.56.308,2.957A4.03,4.03,0,0,1,351.24,134.266Z" transform="translate(-342.328 -113.428)"/>
      </g>
    </g>
  </g>
</svg>
