<svg xmlns="http://www.w3.org/2000/svg" width="83.064" height="59.231" viewBox="0 0 83.064 59.231">
  <g id="그룹_19063" data-name="그룹 19063" transform="translate(-9 -613.436)">
    <g id="주유기" transform="translate(9 613.436)">
      <g id="그룹_15541" data-name="그룹 15541" transform="translate(5.574)">
        <rect id="사각형_5272" data-name="사각형 5272" width="1.668" height="10.272" transform="translate(22.155 7.813)" fill="#64a281"/>
        <rect id="사각형_5273" data-name="사각형 5273" width="1.668" height="10.272" transform="translate(18.576 7.813)" fill="#64a281"/>
        <rect id="사각형_5274" data-name="사각형 5274" width="1.668" height="10.272" transform="translate(14.997 7.813)" fill="#64a281"/>
        <rect id="사각형_5308" data-name="사각형 5308" width="25.46" height="8.185" transform="translate(9.318)" fill="#29fe94"/>
        <rect id="사각형_5309" data-name="사각형 5309" width="25.46" height="43.085" transform="translate(9.318 13.905)" fill="#29fe94"/>
        <rect id="사각형_5310" data-name="사각형 5310" width="9.318" height="8.185" transform="translate(0)" fill="#219d5b"/>
        <rect id="사각형_5311" data-name="사각형 5311" width="9.318" height="43.085" transform="translate(0 13.905)" fill="#219d5b"/>
        <rect id="사각형_5312" data-name="사각형 5312" width="18.006" height="13.917" transform="translate(13.046 21.821)" fill="#eefaff"/>
        <rect id="사각형_5313" data-name="사각형 5313" width="1.877" height="5.72" transform="translate(31.051 8.185)" fill="#64a281"/>
        <rect id="사각형_5314" data-name="사각형 5314" width="1.877" height="5.72" transform="translate(2.107 8.185)" fill="#64a281"/>
      </g>
      <g id="그룹_15544" data-name="그룹 15544" transform="translate(0 14.434)">
        <g id="그룹_15543" data-name="그룹 15543" transform="translate(0 0)">
          <g id="그룹_15542" data-name="그룹 15542" transform="translate(3.008)">
            <path id="패스_9219" data-name="패스 9219" d="M656.128,380.178h-1.48c0-5.3,3.378-9.6,7.53-9.6v1.479C658.842,372.053,656.128,375.7,656.128,380.178Z" transform="translate(-654.648 -370.574)" fill="#fff"/>
          </g>
          <rect id="사각형_5339" data-name="사각형 5339" width="7.58" height="2.547" transform="translate(0 8.619)" fill="#fff"/>
          <path id="패스_9220" data-name="패스 9220" d="M655.156,387.205l1.427.4Z" transform="translate(-651.926 -379.919)" fill="#fff"/>
          <path id="패스_9221" data-name="패스 9221" d="M657.8,379.859l1.271.734Z" transform="translate(-653.412 -375.791)" fill="#fff"/>
          <path id="패스_9222" data-name="패스 9222" d="M663.242,373.517l.807,1.229Z" transform="translate(-656.469 -372.228)" fill="#fff"/>
        </g>
        <path id="패스_9223" data-name="패스 9223" d="M661.325,403.367a1.016,1.016,0,0,0-1.017,1.016c0,.012,0,.023,0,.036h0v15.912a2.212,2.212,0,1,1-4.424,0l.018-17.477V396.06H653.85v6.795c-.005.181,0,17.477,0,17.477a4.242,4.242,0,1,0,8.483,0V404.347A1.015,1.015,0,0,0,661.325,403.367Z" transform="translate(-651.191 -384.894)" fill="#1a3c5c"/>
      </g>
      <path id="다각형_61" data-name="다각형 61" d="M6.229,0l6.229,9.788H0Z" transform="translate(27.49 49.443)" fill="#3ddb87"/>
      <path id="다각형_62" data-name="다각형 62" d="M4.894,0,9.788,9.788H0Z" transform="translate(21.261 49.443)" fill="#3ddb87"/>
    </g>
    <g id="주유기-2" data-name="주유기" transform="translate(51.712 613.436)">
      <g id="그룹_15541-2" data-name="그룹 15541" transform="translate(5.574)">
        <rect id="사각형_5272-2" data-name="사각형 5272" width="1.668" height="10.272" transform="translate(22.155 7.813)" fill="#64a281"/>
        <rect id="사각형_5273-2" data-name="사각형 5273" width="1.668" height="10.272" transform="translate(18.576 7.813)" fill="#64a281"/>
        <rect id="사각형_5274-2" data-name="사각형 5274" width="1.668" height="10.272" transform="translate(14.997 7.813)" fill="#64a281"/>
        <rect id="사각형_5308-2" data-name="사각형 5308" width="25.46" height="8.185" transform="translate(9.318)" fill="#29fe94"/>
        <rect id="사각형_5309-2" data-name="사각형 5309" width="25.46" height="43.085" transform="translate(9.318 13.905)" fill="#29fe94"/>
        <rect id="사각형_5310-2" data-name="사각형 5310" width="9.318" height="8.185" transform="translate(0)" fill="#219d5b"/>
        <rect id="사각형_5311-2" data-name="사각형 5311" width="9.318" height="43.085" transform="translate(0 13.905)" fill="#219d5b"/>
        <rect id="사각형_5312-2" data-name="사각형 5312" width="18.006" height="13.917" transform="translate(13.046 21.821)" fill="#eefaff"/>
        <rect id="사각형_5313-2" data-name="사각형 5313" width="1.877" height="5.72" transform="translate(31.051 8.185)" fill="#64a281"/>
        <rect id="사각형_5314-2" data-name="사각형 5314" width="1.877" height="5.72" transform="translate(2.107 8.185)" fill="#64a281"/>
      </g>
      <g id="그룹_15544-2" data-name="그룹 15544" transform="translate(0 14.434)">
        <g id="그룹_15543-2" data-name="그룹 15543" transform="translate(0 0)">
          <g id="그룹_15542-2" data-name="그룹 15542" transform="translate(3.008)">
            <path id="패스_9219-2" data-name="패스 9219" d="M656.128,380.178h-1.48c0-5.3,3.378-9.6,7.53-9.6v1.479C658.842,372.053,656.128,375.7,656.128,380.178Z" transform="translate(-654.648 -370.574)" fill="#fff"/>
          </g>
          <rect id="사각형_5339-2" data-name="사각형 5339" width="7.58" height="2.547" transform="translate(0 8.619)" fill="#fff"/>
          <path id="패스_9220-2" data-name="패스 9220" d="M655.156,387.205l1.427.4Z" transform="translate(-651.926 -379.919)" fill="#fff"/>
          <path id="패스_9221-2" data-name="패스 9221" d="M657.8,379.859l1.271.734Z" transform="translate(-653.412 -375.791)" fill="#fff"/>
          <path id="패스_9222-2" data-name="패스 9222" d="M663.242,373.517l.807,1.229Z" transform="translate(-656.469 -372.228)" fill="#fff"/>
        </g>
        <path id="패스_9223-2" data-name="패스 9223" d="M661.325,403.367a1.016,1.016,0,0,0-1.017,1.016c0,.012,0,.023,0,.036h0v15.912a2.212,2.212,0,1,1-4.424,0l.018-17.477V396.06H653.85v6.795c-.005.181,0,17.477,0,17.477a4.242,4.242,0,1,0,8.483,0V404.347A1.015,1.015,0,0,0,661.325,403.367Z" transform="translate(-651.191 -384.894)" fill="#1a3c5c"/>
      </g>
      <path id="다각형_61-2" data-name="다각형 61" d="M6.229,0l6.229,9.788H0Z" transform="translate(27.49 49.443)" fill="#3ddb87"/>
      <path id="다각형_62-2" data-name="다각형 62" d="M4.894,0,9.788,9.788H0Z" transform="translate(21.261 49.443)" fill="#3ddb87"/>
    </g>
  </g>
</svg>
