<svg xmlns="http://www.w3.org/2000/svg" width="328" height="282" viewBox="0 0 328 282">
    <defs>
        <clipPath id="clip-path"/>
        <filter id="합치기_107" width="73.999" height="62.069" x="119.738" y="-.878" filterUnits="userSpaceOnUse">
            <feOffset dy="3"/>
            <feGaussianBlur result="blur" stdDeviation="3"/>
            <feFlood flood-opacity=".161"/>
            <feComposite in2="blur" operator="in"/>
            <feComposite in="SourceGraphic"/>
        </filter>
        <style>
            .cls-3{fill:#0f1f2e}
        </style>
    </defs>
    <g id="top_img" transform="translate(-23 -58)">
        <g id="마스크_그룹_293" clip-path="url(#clip-path)">
            <g id="그룹_17445">
                <path id="합치기_106" d="M-11101.954-12076.026A18 18 0 0 1-11119-12094a18 18 0 0 1 18-18h75a18 18 0 0 1 18 18 18 18 0 0 1-18 18h-68.1l-3.911 4z" class="cls-3" transform="translate(11170 12179)"/>
                <text id="도장깨기" fill="#fff" font-family="DXBangtango-KSCpc-EUC-H, DX방탄고딕" font-size="21px" transform="translate(105 91)">
                    <tspan x="-41.685" y="0">도장깨기</tspan>
                </text>
                <g id="그룹_16602" transform="translate(-205.038 -221.714)">
                    <g id="그룹_16589" transform="rotate(23 692.922 223.748)">
                        <g id="그룹_16584" transform="rotate(-23 779.956 85.534)">
                            <path id="무ᄌ_-3" d="M598 322.859a111.745 111.745 0 0 0 15.831 5.908 44.7 44.7 0 0 0 8.269 1.557 25.728 25.728 0 0 0 8.322-.3 12.24 12.24 0 0 0 9.012-7.553 21.054 21.054 0 0 0 1.132-3.953 24.328 24.328 0 0 0 .362-4.1 30.754 30.754 0 0 0-.221-4.139c-.053-.69-.2-1.353-.3-2.025s-.292-1.38-.433-2.069l-.884-4.139-.593-2.75 2.087 1.946c4.174 3.891 8.119 7.96 12.62 11.276a60.2 60.2 0 0 0 14.593 8.039 49.6 49.6 0 0 0 7.96 2.255c1.362.2 2.733.469 4.1.619l2.061.168c.345 0 .681.062 1.026.08h3.113c.69 0 1.371-.071 2.061-.106a19.642 19.642 0 0 0 2.052-.159l2.025-.292 1.017-.15.99-.221a18.911 18.911 0 0 0 1.946-.5l4.033-1.327 2.229-.734-.15 2.344c-.1 1.565-.248 3.175-.31 4.7a39.96 39.96 0 0 0 0 4.484 23.6 23.6 0 0 0 .752 4.342 18.184 18.184 0 0 0 4.113 7.6 21.332 21.332 0 0 0 3.3 2.919 26.53 26.53 0 0 0 3.8 2.326 42.871 42.871 0 0 0 4.192 1.822 62.661 62.661 0 0 0 18.1 3.4c1.548 0 3.1.115 4.643.088s3.078-.044 4.661-.168l9.41-.593 3.847-.239-3.334 1.884-8.446 4.767c-1.406.8-2.812 1.557-4.139 2.414l-1.928 1.4c-.318.239-.654.451-.964.708l-.884.787c-.575.531-1.212 1.026-1.769 1.6l-1.565 1.769a19.787 19.787 0 0 0-2.653 3.9 21.385 21.385 0 0 0-2.414 9.047c-.336 6.368 1.769 12.647 4.617 18.316.716 1.433 1.583 2.777 2.4 4.157.389.7.884 1.318 1.335 1.981s.884 1.309 1.4 1.946l5.943 7.659 2.512 3.246-3.317-2.3-6.828-4.705c-2.273-1.583-4.608-3.007-6.907-4.51-1.159-.734-2.37-1.38-3.538-2.061a32 32 0 0 0-3.661-1.813 35.234 35.234 0 0 0-3.768-1.512c-.637-.212-1.274-.442-1.919-.646a16.668 16.668 0 0 0-1.937-.469 12.152 12.152 0 0 0-7.517.478 7.216 7.216 0 0 0-1.521.982 9.732 9.732 0 0 0-1.247 1.353 10.774 10.774 0 0 0-1.769 3.308 24.12 24.12 0 0 0-1.1 7.827v2.008c0 .672.124 1.335.177 2 .106 1.3.327 2.653.548 4.042l.557 3.476-2.724-2.291c-1.167-.982-2.308-2-3.44-2.91s-2.344-1.769-3.538-2.582a54.054 54.054 0 0 0-7.836-3.626 29.813 29.813 0 0 0-8.417-1.81c-4.1-.136-8.435.116-12.331 3.2a24.127 24.127 0 0 0-3.2 2.759 27.557 27.557 0 0 0-2.746 3.306q-1.3 1.769-2.423 3.661c-.769 1.247-1.433 2.582-2.1 3.891s-1.238 2.653-1.822 4.015c-1.132 2.75-2.184 5.634-3.281 8.446l-3.449 8.844.053-9.525c0-7.854.61-15.663-1-23.039a29.327 29.327 0 0 0-3.785-10.348 16.8 16.8 0 0 0-3.423-4 14.793 14.793 0 0 0-2.114-1.521 17.583 17.583 0 0 0-2.388-1.176 18.522 18.522 0 0 0-5.183-1.256 30.27 30.27 0 0 0-5.519-.08 45.111 45.111 0 0 0-5.554.831 44.021 44.021 0 0 0-5.474 1.5l-2.653.929c-.884.318-1.769.725-2.653 1.088-1.725.69-3.538 1.636-5.253 2.485l-10.6 5.183-10.772 5.306 8.782-8.137 12.293-11.391a31.669 31.669 0 0 0 5.121-6.049 17.3 17.3 0 0 0 .884-1.707 10.323 10.323 0 0 0 .6-1.769 9.145 9.145 0 0 0 .186-3.591 9.923 9.923 0 0 0-1.221-3.458 18.981 18.981 0 0 0-2.317-3.148 33.42 33.42 0 0 0-6.191-5.121c-1.141-.743-2.326-1.442-3.538-2.1s-2.459-1.22-3.7-1.831c-2.512-1.079-5.165-2.034-7.818-3l-2.016-.752 1.981-.787c4.652-1.875 9.357-3.538 13.611-6.067 1.044-.654 2.061-1.353 3.069-2.052a21.254 21.254 0 0 0 2.786-2.406 19.745 19.745 0 0 0 2.344-2.821 14.1 14.1 0 0 0 1.6-3.281 14.363 14.363 0 0 0 .424-7.243 22.792 22.792 0 0 0-2.653-6.916 39.484 39.484 0 0 0-4.281-6.111 47.307 47.307 0 0 0-5.253-5.306l-.884-.8 1.1.5zm-.141.327l-1.53-.663.195-.31a48.125 48.125 0 0 1 5.306 5.306 39.024 39.024 0 0 1 4.36 6.147 24.109 24.109 0 0 1 2.795 7.031 15.035 15.035 0 0 1-.31 7.588 16.929 16.929 0 0 1-3.962 6.518c-.884.929-1.875 1.725-2.821 2.591a24.759 24.759 0 0 1-3.1 2.22c-4.289 2.742-9.03 4.59-13.593 6.589v-1.539c2.653.884 5.306 1.769 7.96 2.8 1.3.584 2.653 1.114 3.891 1.769s2.521 1.318 3.75 2.061a35.375 35.375 0 0 1 6.881 5.306 21.784 21.784 0 0 1 2.777 3.538 12.832 12.832 0 0 1 1.7 4.351 11.871 11.871 0 0 1-.106 4.74 13.04 13.04 0 0 1-.716 2.246 19.681 19.681 0 0 1-.982 2.043c-.371.69-.822 1.238-1.238 1.866a16.507 16.507 0 0 1-1.318 1.769l-1.433 1.689c-.5.522-1 1.061-1.512 1.539l-12.134 11.621-1.99-2.857 10.507-5.262c1.769-.884 3.449-1.769 5.359-2.582.938-.4 1.857-.84 2.8-1.194l2.848-1a46.877 46.877 0 0 1 5.846-1.645 47.921 47.921 0 0 1 6.049-.955 33.183 33.183 0 0 1 6.191.1 22.4 22.4 0 0 1 6.191 1.512 21.232 21.232 0 0 1 2.883 1.415 18.751 18.751 0 0 1 2.653 1.91 20.555 20.555 0 0 1 4.183 4.9 32.263 32.263 0 0 1 4.228 11.595l.309 1.495c.088.5.124 1.008.195 1.512l.345 3.007c.08 1.008.106 2.008.159 3.007s.106 2.008.08 3c0 4.015-.15 7.88-.221 11.807l-3.4-.663c1.123-2.83 2.176-5.634 3.37-8.481.637-1.424 1.22-2.883 1.981-4.245s1.406-2.768 2.246-4.095 1.689-2.653 2.653-3.891a31.912 31.912 0 0 1 3.069-3.661 26.907 26.907 0 0 1 3.715-3.122 22.478 22.478 0 0 1 7.056-2.888 22.236 22.236 0 0 1 7.159-.637 32.48 32.48 0 0 1 9.733 2.064 30.388 30.388 0 0 1 8.058 4.042 46.337 46.337 0 0 1 3.75 2.795c1.221 1.008 2.326 2.034 3.458 3.025l-2.172 1.19c-.186-1.371-.38-2.733-.469-4.183-.044-.716-.141-1.424-.141-2.14v-2.137a26.579 26.579 0 0 1 1.4-8.493 12.869 12.869 0 0 1 2.187-3.951 11.739 11.739 0 0 1 1.61-1.645 9.3 9.3 0 0 1 1.981-1.212 11.312 11.312 0 0 1 4.422-.929 18.045 18.045 0 0 1 4.334.478c.7.15 1.4.336 2.078.548s1.336.478 2 .716a35.783 35.783 0 0 1 3.883 1.654c1.282.575 2.485 1.291 3.732 1.937a35.291 35.291 0 0 1 3.538 2.167c4.661 3.078 9.127 6.315 13.664 9.481l-.884.884-5.881-7.7c-.5-.628-.937-1.335-1.415-2a19.435 19.435 0 0 1-1.353-2.043c-.823-1.415-1.689-2.795-2.414-4.263a48.639 48.639 0 0 1-3.538-9.127 31.48 31.48 0 0 1-1.185-9.728 22.88 22.88 0 0 1 2.476-9.543 21.72 21.72 0 0 1 1.247-2.158 14.605 14.605 0 0 1 1.468-1.99l1.618-1.884c.557-.61 1.2-1.123 1.769-1.689l.884-.84c.31-.265.654-.5.973-.743l1.981-1.477c1.362-.884 2.786-1.769 4.166-2.574l8.313-4.979.513 1.645-9.392.822c-1.557.168-3.175.212-4.767.3s-3.184 0-4.776 0a65.446 65.446 0 0 1-18.926-3.087 45.251 45.251 0 0 1-4.5-1.831 28.031 28.031 0 0 1-4.299-2.486 25.06 25.06 0 0 1-3.794-3.281 21.138 21.138 0 0 1-2.972-4.095 21.587 21.587 0 0 1-1.928-4.67 24.425 24.425 0 0 1-.884-4.935 43.7 43.7 0 0 1 0-4.935c.062-1.618.2-3.14.3-4.723l2.078 1.618-4.086 1.353a22.115 22.115 0 0 1-2.184.566l-1.106.23-1.1.15-2.2.3c-.734.106-1.477.1-2.211.15s-1.468.106-2.2.1l-2.2-.044h-1.1c-.371 0-.734-.062-1.1-.088l-2.2-.2c-1.459-.177-2.892-.451-4.334-.708a51.633 51.633 0 0 1-8.375-2.556 58.885 58.885 0 0 1-15.035-8.8 77.453 77.453 0 0 1-6.456-5.793l-6.023-6.094 1.495-.8.752 4.166c.124.7.265 1.38.371 2.1s.221 1.45.256 2.167a32.094 32.094 0 0 1 .088 4.325 25.65 25.65 0 0 1-.513 4.316 22.8 22.8 0 0 1-1.327 4.139 14.354 14.354 0 0 1-2.37 3.688 11.86 11.86 0 0 1-3.467 2.653 16 16 0 0 1-4.068 1.468 25.914 25.914 0 0 1-8.543.159 45.853 45.853 0 0 1-8.322-1.7 111.975 111.975 0 0 1-15.689-6.032z" class="cls-3" transform="translate(-263.021 22.318)"/>
                        </g>
                    </g>
                    <g id="그룹_16603" transform="rotate(82 169.424 620.646)">
                        <path id="패스_10773" fill="#fff" d="M-6.214 345.952l17.628 15.005c9.013 7.673 28.191.418 42.835-16.208s19.207-36.321 10.194-43.994l-17.629-15z" transform="translate(-8.977 -7.359)"/>
                        <path id="패스_11537" d="M14.422.2L5.228 15.8 2.97 19.609A11.86 11.86 0 0 0 1.438 23.5a17.367 17.367 0 0 0 .608 8.367 33.037 33.037 0 0 0 3.739 7.851 39.872 39.872 0 0 0 2.554 3.576c.909 1.149 1.849 2.283 2.85 3.361a62.5 62.5 0 0 0 6.405 6.063 75.768 75.768 0 0 0 7.1 5.251 69.53 69.53 0 0 0 15.8 7.662 48.29 48.29 0 0 0 8.459 2.043 33.6 33.6 0 0 0 4.28.358 25.73 25.73 0 0 0 4.219-.23 15.677 15.677 0 0 0 7.447-2.84 9.662 9.662 0 0 0 1.394-1.308 6.873 6.873 0 0 0 .6-.741l.276-.388c.092-.123.2-.312.3-.46L69.9 58.26c3.244-5.072 6.482-10.155 9.766-15.2l.511 2.339L72 39.913c-2.723-1.829-5.44-3.662-8.173-5.537l-16.3-11.191-8.2-5.619-8.239-5.772zm-.046-.2l66.807 43.867.143.092-.092.148-9.67 15.257-2.416 3.811a12.7 12.7 0 0 1-3.034 3.425 17.3 17.3 0 0 1-8.414 3.261 28.092 28.092 0 0 1-4.536.23 36.141 36.141 0 0 1-4.524-.391 50.9 50.9 0 0 1-8.8-2.14A72.21 72.21 0 0 1 10 47.7c-1.022-1.124-1.946-2.309-2.866-3.509a42.846 42.846 0 0 1-2.554-3.749 34.309 34.309 0 0 1-3.735-8.231 18.114 18.114 0 0 1-.475-8.985 12.857 12.857 0 0 1 1.808-4.158l2.437-3.826z" class="cls-3" transform="rotate(-82 194.643 186.096)"/>
                        <path id="패스_10774" fill="#8b8bff" d="M-19.538 339.209l21.989 18.717c9.812 8.351 30.687.452 46.627-17.643s20.907-39.536 11.1-47.887l-21.993-18.718z" transform="translate(-7.783 -6.278)"/>
                        <path id="패스_11538" d="M17.711.2L7.1 18.052l-2.6 4.371-1.3 2.17a14.2 14.2 0 0 0-1.088 2.16 15.994 15.994 0 0 0-.4 9.557 32.623 32.623 0 0 0 3.832 9.162 52.907 52.907 0 0 0 5.971 8.08 71.706 71.706 0 0 0 7.259 7.054 80.462 80.462 0 0 0 8.1 6.074 77.5 77.5 0 0 0 8.793 5 66.307 66.307 0 0 0 9.352 3.735 48.861 48.861 0 0 0 4.837 1.285 44.736 44.736 0 0 0 4.909.805 31.146 31.146 0 0 0 9.706-.333 18.73 18.73 0 0 0 4.422-1.5 12.181 12.181 0 0 0 3.591-2.678 9.317 9.317 0 0 0 .7-.857c.215-.308.426-.58.662-.97l1.4-2.175 2.791-4.345 11.163-17.4.51 2.253c-5.971-3.986-11.953-7.921-17.878-12.014L53.96 25.25l-8.977-6.156-9.019-6.264zM17.67 0l73 47.965.144.092-.092.144-11.056 17.442-2.766 4.365-1.38 2.18a15.445 15.445 0 0 1-1.539 2.1 14.078 14.078 0 0 1-4.15 3.15 19.293 19.293 0 0 1-4.925 1.688 28.718 28.718 0 0 1-5.186.59 36.356 36.356 0 0 1-5.181-.251 46.689 46.689 0 0 1-5.13-.872c-1.688-.369-3.355-.831-5-1.359a68.545 68.545 0 0 1-9.593-3.894 80.592 80.592 0 0 1-8.967-5.166 76.268 76.268 0 0 1-15.535-13.596 54 54 0 0 1-6-8.429 33.919 33.919 0 0 1-3.827-9.6 20.287 20.287 0 0 1-.474-5.169 14.708 14.708 0 0 1 1.108-5.063 15.425 15.425 0 0 1 1.236-2.293l1.39-2.185 2.78-4.371z" class="cls-3" transform="rotate(-82 186.875 192.352)"/>
                        <path id="패스_10775" fill="#5a5acb" d="M37.69 273.35c9.811 8.352 4.843 29.791-11.1 47.887s-36.815 25.995-46.627 17.643-4.844-29.792 11.1-47.889S27.879 265 37.69 273.35z" transform="translate(-7.288 -5.95)"/>
                        <path id="패스_11539" d="M76.448 55.806a13.8 13.8 0 0 1-2.148 2.552 14.382 14.382 0 0 1-2.734 1.942 19.788 19.788 0 0 1-6.346 2.13 38.368 38.368 0 0 1-13.392-.317 72.545 72.545 0 0 1-24.885-9.943 79.4 79.4 0 0 1-10.831-8.055 65.73 65.73 0 0 1-4.852-4.732 54.066 54.066 0 0 1-4.331-5.256 46.715 46.715 0 0 1-3.6-5.835 31.607 31.607 0 0 1-2.553-6.479A21.305 21.305 0 0 1 .047 14.7 14.52 14.52 0 0 1 7.852 2.622 21.3 21.3 0 0 1 14.744.367 31.531 31.531 0 0 1 21.785.08a47.081 47.081 0 0 1 6.862.961 63.871 63.871 0 0 1 12.906 4.436q3.061 1.445 6.015 3.123c1.959 1.123 3.857 2.331 5.714 3.6a72.19 72.19 0 0 1 18.977 18.726 38.425 38.425 0 0 1 5.647 12.017 19.8 19.8 0 0 1 .617 6.59 13.535 13.535 0 0 1-2.075 6.273zm0-1.086c1.167-1.867 1.313-3.76 1.459-5.95a22.6 22.6 0 0 0-1.026-6.947 34.918 34.918 0 0 0-5.587-10.9 57.114 57.114 0 0 0-8.146-9.631 78.882 78.882 0 0 0-10.474-8.156C45.257 8.311 39.239 5.087 30.521 3.31a50.21 50.21 0 0 0-12.057-1.139c-4.509.115-6.23.989-8.178 2.027A21.244 21.244 0 0 0 6.929 6.43C4.48 8.663 2.25 11.555 2.082 14.841c-.153 2.18.67 3.844 1.245 5.954A41.722 41.722 0 0 0 9.2 33.331a56.7 56.7 0 0 0 7.935 9.717 78.857 78.857 0 0 0 10.455 8.171c7.407 4.843 19.06 8.938 25.084 10a40.181 40.181 0 0 0 13.311.25 21.531 21.531 0 0 0 5.58-1.975 14.651 14.651 0 0 0 2.735-2.03 15.494 15.494 0 0 0 2.148-2.745z" class="cls-3" transform="rotate(-82 174.806 187.761)"/>
                        <path id="패스_10776" fill="#77f" d="M-23.681 240.859a38 38 0 0 0-13.145-24.1 39.459 39.459 0 0 0-55 3.885 37.879 37.879 0 0 0 3.952 54.067 39.24 39.24 0 0 0 26.147 9.343h.072c.124 0 .248 0 .372-.006A60.919 60.919 0 0 1-23.2 298.786l9.153 7.79c3.375 2.875 10.557.157 16.039-6.068s7.192-13.6 3.817-16.474l-9.152-7.79c-16.776-14.281-19.872-31.929-20.287-34.935-.016-.134-.034-.269-.052-.4z" transform="translate(-.457 -.342)"/>
                        <path id="패스_11540" d="M64.316 75.973a36.307 36.307 0 0 0 16.746-9.783c4.637-4.87 7.3-10 9.522-16.788a43.917 43.917 0 0 0 1.089-5.326 39.323 39.323 0 0 0-1.089-14.116c-1.8-6.371-4.934-12.714-9.615-17.393-.559-.6-1.191-1.124-1.786-1.688a17.54 17.54 0 0 0-1.9-1.54L76.3 8.6c-.334-.241-.677-.457-1.026-.693-.667-.472-1.375-.878-2.053-1.3a36.718 36.718 0 0 0-44.56 6.066 38.208 38.208 0 0 0-10.731 26.01 36.689 36.689 0 0 0 .257 4.8l.159 1.206.087.657.056.652c.067.867.18 1.745.205 2.607a61.961 61.961 0 0 1-2.3 20.517 59.494 59.494 0 0 1-3.715 9.632c-.759 1.54-1.565 3.079-2.443 4.542s-1.827 2.92-2.74 4.311l-5.542 8.424a4.073 4.073 0 0 0-.616 1.837A6.426 6.426 0 0 0 1.585 100a13.287 13.287 0 0 0 2.089 4.152 25.3 25.3 0 0 0 7.185 6.461 25.711 25.711 0 0 0 4.4 2.114 11.125 11.125 0 0 0 3.769 1.026 10.34 10.34 0 0 0 2.361-.113 5.98 5.98 0 0 0 2.114-.821 2.315 2.315 0 0 0 .436-.339l.21-.18a1.789 1.789 0 0 0 .18-.21c.113-.149.231-.272.349-.441l.344-.513 2.821-4.367 5.419-7.632a51.179 51.179 0 0 1 12.746-13.581 61.882 61.882 0 0 1 18.308-9.583V76zm.339.916h-.026a58.759 58.759 0 0 0-31.366 23.945c-1.827 2.817-3.592 5.671-5.419 8.5l-1.35 2.13a5.879 5.879 0 0 1-1.678 1.919 6.67 6.67 0 0 1-2.366.975 11.118 11.118 0 0 1-2.566.169 17.843 17.843 0 0 1-4.967-1 26.622 26.622 0 0 1-4.619-2.114 26.312 26.312 0 0 1-7.605-6.615 14.185 14.185 0 0 1-2.35-4.49A7.7 7.7 0 0 1 0 97.781a5.366 5.366 0 0 1 .775-2.458l5.4-8.514c.9-1.421 1.8-2.838 2.628-4.29s1.6-2.951 2.309-4.465a60.454 60.454 0 0 0 5.563-29.323c-.108-1.678-.272-3.325-.513-5a38.6 38.6 0 0 1-.287-5.055 39.349 39.349 0 0 1 11.343-27.397A37.976 37.976 0 0 1 73.892 5.49c.713.452 1.442.883 2.119 1.386.344.246.693.477 1.026.734l1 .78c.677.513 1.288 1.088 1.935 1.632a19.625 19.625 0 0 1 1.812 1.765 39.515 39.515 0 0 1 .1 54.91A38.2 38.2 0 0 1 64.67 76.889z" class="cls-3" transform="rotate(-82 114.181 209.592)"/>
                    </g>
                </g>
                <g filter="url(#합치기_107)" transform="translate(23 58)">
                    <path id="합치기_107-2" fill="#3ddb87" d="M-11116.562-12082.031c-7.5-3.426-12.437-9.256-12.437-15.873 0-10.546 12.538-19.1 28-19.1s28 8.551 28 19.1c0 9.071-9.279 16.665-21.719 18.609a11.477 11.477 0 0 1-10.519 6.363c-5.823 0-10.625-3.968-11.325-9.099z" transform="translate(11257.74 12122.12)"/>
                </g>
                <text id="_2021_5.4_" fill="#fff" font-family="DXBangtango-KSCpc-EUC-H, DX방탄고딕" font-size="11px" letter-spacing="0.005em" transform="translate(180 82)">
                    <tspan x="-18.909" y="0">~2021</tspan><tspan x="-10.83" y="11">5.4</tspan>
                </text>
                <g id="Title" font-family="DXBangtango-KSCpc-EUC-H, DX방탄고딕" font-size="64px" transform="translate(-22.206 134.313)">
                    <text id="스탬프_" fill="#0f1f2e" stroke="#fff" stroke-width="0.5px" letter-spacing="-0.03em" transform="translate(175.206 30.688)">
                        <tspan x="-99.52" y="0">스탬프</tspan>
                    </text>
                    <text id="찍고" fill="#6464ff" letter-spacing="-0.03em" transform="translate(142.206 106.688)">
                        <tspan x="-62.08" y="0">찍고</tspan>
                    </text>
                    <text id="할인_" fill="none" stroke="#0f1f2e" stroke-width="1.5px" transform="translate(152.706 183.187)">
                        <tspan x="-72.32" y="0">할인</tspan>
                    </text>
                    <text id="받고" fill="#6464ff" letter-spacing="-0.015em" transform="translate(281.206 183.688)">
                        <tspan x="-62.56" y="0">받고</tspan>
                    </text>
                </g>
            </g>
        </g>
    </g>
</svg>
