<svg xmlns="http://www.w3.org/2000/svg" xmlns:xlink="http://www.w3.org/1999/xlink" width="92" height="92" viewBox="0 0 92 92">
  <defs>
    <style>
      .cls-1, .cls-3 {
        fill: #f8f8f8;
      }

      .cls-1 {
        stroke: #3ddb87;
      }

      .cls-1, .cls-13 {
        stroke-width: 1.5px;
      }

      .cls-2 {
        fill: #cee7ff;
      }

      .cls-15, .cls-4, .cls-5 {
        fill: #3d9efc;
      }

      .cls-5 {
        opacity: 0;
      }

      .cls-6 {
        clip-path: url(#clip-path);
      }

      .cls-7 {
        fill: #e8c9a0;
      }

      .cls-8 {
        fill: #ffe2c0;
      }

      .cls-13, .cls-9 {
        fill: #fff;
      }

      .cls-10 {
        fill: #d9d8d8;
      }

      .cls-11 {
        fill: #919191;
      }

      .cls-11, .cls-12, .cls-13 {
        stroke: #0f1f2e;
      }

      .cls-12 {
        fill: #edf5f7;
      }

      .cls-14, .cls-15, .cls-16 {
        stroke: none;
      }

      .cls-16 {
        fill: #0f1f2e;
      }
    </style>
    <clipPath id="clip-path">
      <circle id="타원_2008" data-name="타원 2008" class="cls-1" cx="34" cy="34" r="34" transform="translate(0.491 0.566)"/>
    </clipPath>
  </defs>
  <g id="get3" transform="translate(-209.851 -321.076)">
    <g id="그룹_18078" data-name="그룹 18078" transform="translate(209.851 321.076)">
      <g id="패스_12695" data-name="패스 12695" class="cls-2">
        <path class="cls-14" d="M 46 91.25 C 39.89096069335938 91.25 33.96504974365234 90.05370330810547 28.38688659667969 87.6943359375 C 22.99863815307617 85.41529846191406 18.15933799743652 82.15249633789062 14.0034122467041 77.99658966064453 C 9.847499847412109 73.84066009521484 6.584700107574463 69.00136566162109 4.305662631988525 63.61311340332031 C 1.946300029754639 58.03495025634766 0.75 52.10903930664062 0.75 46 C 0.75 39.89096069335938 1.946300029754639 33.96504974365234 4.305662631988525 28.38688659667969 C 6.584700107574463 22.99863815307617 9.847499847412109 18.15933799743652 14.0034122467041 14.0034122467041 C 18.15933799743652 9.847499847412109 22.99863815307617 6.584700107574463 28.38688659667969 4.305662631988525 C 33.96504974365234 1.946300029754639 39.89096069335938 0.75 46 0.75 C 52.10903930664062 0.75 58.03495025634766 1.946300029754639 63.61311340332031 4.305662631988525 C 69.00136566162109 6.584700107574463 73.84066009521484 9.847499847412109 77.99658966064453 14.0034122467041 C 82.15249633789062 18.15933799743652 85.41529846191406 22.99863815307617 87.6943359375 28.38688659667969 C 90.05370330810547 33.96504974365234 91.25 39.89096069335938 91.25 46 C 91.25 52.10903930664062 90.05370330810547 58.03495025634766 87.6943359375 63.61311340332031 C 85.41529846191406 69.00136566162109 82.15249633789062 73.84066009521484 77.99658966064453 77.99658966064453 C 73.84066009521484 82.15249633789062 69.00136566162109 85.41529846191406 63.61311340332031 87.6943359375 C 58.03495025634766 90.05370330810547 52.10903930664062 91.25 46 91.25 Z"/>
        <path class="cls-15" d="M 46 1.5 C 39.99187850952148 1.5 34.16426849365234 2.676361083984375 28.67905426025391 4.996414184570312 C 23.38020324707031 7.237640380859375 18.62104034423828 10.44646453857422 14.53374481201172 14.53374481201172 C 10.44646453857422 18.62104034423828 7.237640380859375 23.38020324707031 4.996414184570312 28.67905426025391 C 2.676361083984375 34.16426849365234 1.5 39.99187850952148 1.5 46 C 1.5 52.00812149047852 2.676361083984375 57.83573150634766 4.996414184570312 63.32094573974609 C 7.237640380859375 68.61979675292969 10.44646453857422 73.37895965576172 14.53374481201172 77.46625518798828 C 18.62104034423828 81.55353546142578 23.38020324707031 84.76235961914062 28.67905426025391 87.00358581542969 C 34.16426849365234 89.32363891601562 39.99187850952148 90.5 46 90.5 C 52.00812149047852 90.5 57.83573150634766 89.32363891601562 63.32094573974609 87.00358581542969 C 68.61979675292969 84.76235961914062 73.37895965576172 81.55353546142578 77.46625518798828 77.46625518798828 C 81.55353546142578 73.37895965576172 84.76235961914062 68.61979675292969 87.00358581542969 63.32094573974609 C 89.32363891601562 57.83573150634766 90.5 52.00812149047852 90.5 46 C 90.5 39.99187850952148 89.32363891601562 34.16426849365234 87.00358581542969 28.67905426025391 C 84.76235961914062 23.38020324707031 81.55353546142578 18.62104034423828 77.46625518798828 14.53374481201172 C 73.37895965576172 10.44646453857422 68.61979675292969 7.237640380859375 63.32094573974609 4.996414184570312 C 57.83573150634766 2.676361083984375 52.00812149047852 1.5 46 1.5 M 46 0 C 71.40509033203125 0 92 20.59490966796875 92 46 C 92 71.40509033203125 71.40509033203125 92 46 92 C 20.59490966796875 92 0 71.40509033203125 0 46 C 0 20.59490966796875 20.59490966796875 0 46 0 Z"/>
      </g>
      <g id="패스_12696" data-name="패스 12696" class="cls-3" transform="translate(12.001 12)">
        <path class="cls-14" d="M 34 68.75 C 29.30911064147949 68.75 24.75814056396484 67.83110809326172 20.4734992980957 66.01885986328125 C 16.33540916442871 64.26860046386719 12.61917972564697 61.76309967041016 9.42803955078125 58.57196044921875 C 6.236899852752686 55.38082122802734 3.731400012969971 51.66458892822266 1.98114001750946 47.5265007019043 C 0.1688899993896484 43.24185943603516 -0.75 38.69089126586914 -0.75 34 C -0.75 29.30911064147949 0.1688899993896484 24.75814056396484 1.98114001750946 20.4734992980957 C 3.731400012969971 16.33540916442871 6.236899852752686 12.61917972564697 9.42803955078125 9.42803955078125 C 12.61917972564697 6.236899852752686 16.33540916442871 3.731400012969971 20.4734992980957 1.98114001750946 C 24.75814056396484 0.1688899993896484 29.30911064147949 -0.75 34 -0.75 C 38.69089126586914 -0.75 43.24185943603516 0.1688899993896484 47.5265007019043 1.98114001750946 C 51.66458892822266 3.731400012969971 55.38082122802734 6.236899852752686 58.57196044921875 9.42803955078125 C 61.76309967041016 12.61917972564697 64.26860046386719 16.33540916442871 66.01885986328125 20.4734992980957 C 67.83110809326172 24.75814056396484 68.75 29.30911064147949 68.75 34 C 68.75 38.69089126586914 67.83110809326172 43.24185943603516 66.01885986328125 47.5265007019043 C 64.26860046386719 51.66458892822266 61.76309967041016 55.38082122802734 58.57196044921875 58.57196044921875 C 55.38082122802734 61.76309967041016 51.66458892822266 64.26860046386719 47.5265007019043 66.01885986328125 C 43.24185943603516 67.83110809326172 38.69089126586914 68.75 34 68.75 Z"/>
        <path class="cls-15" d="M 34 0 C 15.22232055664062 0 0 15.22232055664062 0 34 C 0 52.77767944335938 15.22232055664062 68 34 68 C 52.77767944335938 68 68 52.77767944335938 68 34 C 68 15.22232055664062 52.77767944335938 0 34 0 M 34 -1.5 C 38.79180908203125 -1.5 43.44107818603516 -0.5611801147460938 47.81866073608398 1.290382385253906 C 52.04615783691406 3.078460693359375 55.84252166748047 5.637939453125 59.10229110717773 8.897708892822266 C 62.362060546875 12.15747833251953 64.92153930664062 15.95383834838867 66.70961761474609 20.18133926391602 C 68.56118011474609 24.55892181396484 69.5 29.20819091796875 69.5 34 C 69.5 38.79180908203125 68.56118011474609 43.44107818603516 66.70961761474609 47.81866073608398 C 64.92153930664062 52.04615783691406 62.362060546875 55.84252166748047 59.10229110717773 59.10229110717773 C 55.84252166748047 62.362060546875 52.04615783691406 64.92153930664062 47.81866073608398 66.70961761474609 C 43.44107818603516 68.56118011474609 38.79180908203125 69.5 34 69.5 C 29.20819091796875 69.5 24.55892181396484 68.56118011474609 20.18133926391602 66.70961761474609 C 15.95383834838867 64.92153930664062 12.15747833251953 62.362060546875 8.897708892822266 59.10229110717773 C 5.637939453125 55.84252166748047 3.078460693359375 52.04615783691406 1.290382385253906 47.81866073608398 C -0.5611801147460938 43.44107818603516 -1.5 38.79180908203125 -1.5 34 C -1.5 29.20819091796875 -0.5611801147460938 24.55892181396484 1.290382385253906 20.18133926391602 C 3.078460693359375 15.95383834838867 5.637939453125 12.15747833251953 8.897708892822266 8.897708892822266 C 12.15747833251953 5.637939453125 15.95383834838867 3.078460693359375 20.18133926391602 1.290382385253906 C 24.55892181396484 -0.5611801147460938 29.20819091796875 -1.5 34 -1.5 Z"/>
      </g>
      <g id="그룹_18073" data-name="그룹 18073" transform="translate(3.199 8)">
        <path id="패스_12493" data-name="패스 12493" class="cls-4" d="M411.712,118.01l-.537.916-3.819-2.237,2.888-4.932,3.727,2.182-.535.916-2.594-1.518-.626,1.071,2.289,1.341-.519.887-2.29-1.34-.669,1.141Z" transform="translate(-347.814 -111.758)"/>
        <path id="패스_12494" data-name="패스 12494" class="cls-4" d="M421.455,120l-3.809,4.264-.81-.724.186-4.488-2.312,2.589-.975-.871,3.81-4.264.816.729-.192,4.483,2.313-2.59Z" transform="translate(-348.405 -112.198)"/>
        <path id="패스_12495" data-name="패스 12495" class="cls-4" d="M423.519,129.853l-.85.638-2.656-3.542,4.575-3.431,2.592,3.457-.849.637-1.8-2.405-.993.746,1.591,2.124-.823.617-1.593-2.124-1.058.794Z" transform="translate(-348.987 -112.848)"/>
        <path id="패스_12496" data-name="패스 12496" class="cls-4" d="M425.9,136.494l.952-1.687-.028-.059-.5-1.036-1.434.693-.576-1.19,5.146-2.491,1.079,2.227c.665,1.375.368,2.58-.786,3.138a1.859,1.859,0,0,1-2.137-.272l-1.1,1.954Zm3.634-3.138-.469-.971-1.795.868.47.971c.353.727.868.931,1.427.661S429.886,134.083,429.534,133.355Z" transform="translate(-349.385 -113.516)"/>
        <path id="패스_12497" data-name="패스 12497" class="cls-4" d="M431.434,143.79l.3,1.171-2.249.566a3.933,3.933,0,0,1-1.268-2.063,2.961,2.961,0,1,1,5.739-1.42,3.05,3.05,0,0,1-.374,2.562l-.968-.632a1.928,1.928,0,0,0,.265-1.591,1.83,1.83,0,1,0-3.552.876,2.107,2.107,0,0,0,.489.939Z" transform="translate(-349.736 -114.34)"/>
        <path id="패스_12498" data-name="패스 12498" class="cls-4" d="M431.488,151.658l-2.022.1-.068-1.321,2.039-.1,3.557-2.4.072,1.4L432.607,151l2.613,1.4.066,1.3Z" transform="translate(-349.857 -115.111)"/>
        <path id="패스_12499" data-name="패스 12499" class="cls-4" d="M431.221,166.556c-1.238-.307-1.777-1.425-1.41-2.909l.278-1.119-1.531-.379.318-1.285,5.553,1.376-.6,2.4C433.467,166.127,432.467,166.865,431.221,166.556Zm.323-1.3c.61.152,1.065-.157,1.26-.943l.259-1.047-1.928-.478-.259,1.048C430.681,164.62,430.941,165.106,431.544,165.255Z" transform="translate(-349.779 -116.309)"/>
        <path id="패스_12500" data-name="패스 12500" class="cls-4" d="M431.669,171.011l-.55,1.2-4.223-1.926-1.189,2.609-.982-.447,1.74-3.814Z" transform="translate(-349.424 -117.029)"/>
        <path id="패스_12501" data-name="패스 12501" class="cls-4" d="M425.434,176.354l2.6,1.855-.767,1.076-2.566-1.827c-.883-.63-1.523-.5-1.988.147s-.373,1.3.512,1.926l2.565,1.828-.758,1.063-2.6-1.856a2.586,2.586,0,1,1,3-4.213Z" transform="translate(-349.099 -117.689)"/>
        <path id="패스_12502" data-name="패스 12502" class="cls-4" d="M418.776,181.747l.359,1.032a3.367,3.367,0,0,0-1.779.866c-.569.54-.62.949-.378,1.2.737.776,2.642-2.045,4.1-.5.669.705.656,1.831-.523,2.95a3.827,3.827,0,0,1-1.788,1l-.4-1.009a3.23,3.23,0,0,0,1.459-.765c.569-.54.585-.961.339-1.221-.725-.765-2.636,2.051-4.081.527-.658-.693-.645-1.831.54-2.955A4.071,4.071,0,0,1,418.776,181.747Z" transform="translate(-348.583 -118.244)"/>
        <path id="패스_12503" data-name="패스 12503" class="cls-4" d="M375.987,193.469l.255-1.03,4.293,1.066-1.376,5.543-4.189-1.04.256-1.03,2.914.724.3-1.2-2.574-.639.249-1,2.573.639.318-1.283Z" transform="translate(-344.813 -119.235)"/>
        <path id="패스_12504" data-name="패스 12504" class="cls-4" d="M365.92,194.245l2.462-5.165.982.467,1.081,4.363,1.5-3.136,1.18.563-2.461,5.165-.989-.471-1.074-4.36-1.494,3.136Z" transform="translate(-343.974 -118.923)"/>
        <path id="패스_12505" data-name="패스 12505" class="cls-4" d="M361.225,185.4l.637-.849,3.542,2.656-3.431,4.575-3.457-2.592.637-.85,2.4,1.8.745-.994-2.123-1.592.617-.824,2.124,1.593.794-1.059Z" transform="translate(-343.288 -118.504)"/>
        <path id="패스_12506" data-name="패스 12506" class="cls-4" d="M357.132,179.685l-.439,1.886.044.048.773.853,1.18-1.069.889.981-4.235,3.837-1.661-1.833c-1.025-1.132-1.08-2.372-.13-3.232a1.856,1.856,0,0,1,2.127-.34l.5-2.184Zm-2.6,4.034.724.8,1.476-1.337-.724-.8c-.542-.6-1.1-.65-1.555-.233S353.987,183.121,354.529,183.719Z" transform="translate(-342.766 -117.955)"/>
        <path id="패스_12507" data-name="패스 12507" class="cls-4" d="M349.819,174.328l-.614-1.042,2-1.18a3.951,3.951,0,0,1,1.8,1.621,2.962,2.962,0,1,1-5.1,2.986,3.047,3.047,0,0,1-.366-2.564l1.107.333a1.936,1.936,0,0,0,.2,1.6A1.83,1.83,0,1,0,352,174.238a2.1,2.1,0,0,0-.735-.762Z" transform="translate(-342.258 -117.35)"/>
        <path id="패스_12508" data-name="패스 12508" class="cls-4" d="M347.5,166.958l1.912-.669.437,1.249-1.928.674-2.738,3.3-.465-1.327,1.894-2.281-2.9-.6-.43-1.226Z" transform="translate(-341.877 -116.792)"/>
        <path id="패스_12509" data-name="패스 12509" class="cls-4" d="M343.706,152.479c1.273-.052,2.1.87,2.165,2.4l.047,1.15,1.573-.064.054,1.321-5.709.232-.1-2.471C341.675,153.518,342.427,152.531,343.706,152.479Zm.055,1.337c-.629.025-.978.448-.945,1.256l.043,1.076,1.982-.081-.044-1.076C344.764,154.184,344.381,153.791,343.762,153.816Z" transform="translate(-341.733 -115.531)"/>
        <path id="패스_12510" data-name="패스 12510" class="cls-4" d="M341.893,148.434l.186-1.31,4.592.652.4-2.837,1.067.152-.59,4.147Z" transform="translate(-341.748 -114.833)"/>
        <path id="패스_12511" data-name="패스 12511" class="cls-4" d="M346.359,141.4l-3.029-1.048.434-1.251,2.981,1.032c1.028.356,1.607.054,1.869-.7s-.007-1.352-1.035-1.708l-2.982-1.032.426-1.236,3.029,1.047a2.592,2.592,0,1,1-1.694,4.9Z" transform="translate(-341.881 -113.954)"/>
        <path id="패스_12512" data-name="패스 12512" class="cls-4" d="M351.281,134.334l-.635-.89a3.369,3.369,0,0,0,1.465-1.331c.4-.678.329-1.084.025-1.261-.925-.539-1.964,2.7-3.8,1.636-.841-.49-1.145-1.574-.327-2.98a3.834,3.834,0,0,1,1.437-1.461l.662.859a3.228,3.228,0,0,0-1.186,1.143c-.395.678-.293,1.087.018,1.268.911.53,1.955-2.709,3.77-1.653.827.481,1.134,1.577.311,2.99A4.074,4.074,0,0,1,351.281,134.334Z" transform="translate(-342.27 -113.267)"/>
      </g>
    </g>
    <g id="그룹_18047" data-name="그룹 18047" transform="translate(198.42 310.668)">
      <g id="Icon-star-full" transform="translate(30.476 33.109)">
        <rect id="사각형_4824" data-name="사각형 4824" class="cls-5" width="32" height="32" transform="translate(-0.045 0.299)"/>
        <path id="Icon_metro-star-full" data-name="Icon metro-star-full" class="cls-4" d="M32.191,11.4,21.069,9.825,16.1,0,11.122,9.825,0,11.4l8.048,7.648-1.9,10.8,9.947-5.1,9.947,5.1-1.9-10.8L32.191,11.4Z" transform="translate(0.112 0.99)"/>
      </g>
      <g id="마스크_그룹_309" data-name="마스크 그룹 309" class="cls-6" transform="translate(22.94 21.842)">
        <g id="그룹_18061" data-name="그룹 18061" transform="translate(22.002 16.492)">
          <path id="패스_12678" data-name="패스 12678" class="cls-7" d="M440.872,422.653v17.375h-2.208l-2.629,1.656H414.271s-2.944-1.577-3-3.1a2.439,2.439,0,0,1,1-2.366c.5-.447.132-.815-.21-.894s-2.524-1.209-2.524-2.918a2.376,2.376,0,0,1,1.1-2.261.507.507,0,0,0-.158-.789c-.263-.079-2.576-1.183-2.576-2.918a2.864,2.864,0,0,1,1.157-2.445.624.624,0,0,0-.342-.736c-.5-.289-2.339-1-2.339-3.023a2.4,2.4,0,0,1,1.892-2.392h16.665s-1.262-5.888-1.577-8.753,2.55-8.569,2.55-8.569,2.234-1.6,3.943.237V408.2a114.649,114.649,0,0,0,6.151,10.094C438.191,421.128,438.559,421.365,440.872,422.653Z" transform="translate(-404.792 -398.28)"/>
          <g id="패스_12679" data-name="패스 12679" class="cls-3" transform="translate(-404.792 -398.28)">
            <path class="cls-14" d="M 436.2516784667969 442.4333801269531 L 436.0351257324219 442.4333801269531 L 414.2706298828125 442.4333801269531 L 414.0823974609375 442.4333801269531 L 413.9164428710938 442.344482421875 C 413.884033203125 442.3271179199219 413.1133728027344 441.9119567871094 412.3280639648438 441.29345703125 C 411.1611633300781 440.3743896484375 410.5543518066406 439.4707641601562 410.5245056152344 438.6076965332031 C 410.47021484375 437.0323486328125 411.0122680664062 436.3565979003906 411.4964294433594 435.9048461914062 C 411.1150817871094 435.7264099121094 410.6175231933594 435.4164123535156 410.1836547851562 435.0431518554688 C 409.2713928222656 434.2583312988281 408.7891845703125 433.345947265625 408.7891845703125 432.4046020507812 C 408.7891845703125 430.9092407226562 409.3751220703125 430.2276000976562 409.7958374023438 429.8694152832031 C 408.8840942382812 429.4071350097656 407.1595764160156 428.2232971191406 407.1595764160156 426.4377746582031 C 407.1595764160156 425.2074584960938 407.6576538085938 424.3240661621094 408.1461486816406 423.7987976074219 C 407.4320678710938 423.4276733398438 405.6350402832031 422.4658508300781 405.6350402832031 420.2344360351562 C 405.6350402832031 418.1445007324219 407.2698669433594 417.2742919921875 408.1343078613281 417.1061401367188 L 408.2052307128906 417.0923461914062 L 408.2774963378906 417.0923461914062 L 424.0188293457031 417.0923461914062 C 423.6515197753906 415.318603515625 422.8645935058594 411.3924560546875 422.6200256347656 409.17138671875 C 422.2841796875 406.1207275390625 425.1240234375 400.4244384765625 425.2450866699219 400.1834716796875 L 425.3280029296875 400.0184326171875 L 425.4780578613281 399.9107360839844 C 425.5904541015625 399.8301086425781 426.6137390136719 399.1227722167969 427.9134521484375 399.1227722167969 C 428.8625793457031 399.1227722167969 429.7250671386719 399.5112915039062 430.4075927734375 400.246337890625 L 430.6080017089844 400.462158203125 L 430.6080017089844 400.7566833496094 L 430.6080017089844 408.0028381347656 C 431.2146301269531 409.1022644042969 434.6639404296875 415.308349609375 436.603515625 417.8322448730469 C 438.7332458496094 420.6033630371094 439.0182800292969 420.7620544433594 441.2366638183594 421.9972534179688 L 441.6217956542969 422.2117004394531 L 441.6217956542969 422.6525268554688 L 441.6217956542969 440.0274658203125 L 441.6217956542969 440.7774658203125 L 440.8717956542969 440.7774658203125 L 438.8802795410156 440.7774658203125 L 436.4348754882812 442.3179626464844 L 436.2516784667969 442.4333801269531 Z"/>
            <path class="cls-16" d="M 436.0351257324219 441.6833801269531 L 438.6637268066406 440.0274658203125 L 440.8717956542969 440.0274658203125 L 440.8717956542969 422.6525268554688 C 438.5586853027344 421.3645935058594 438.1905822753906 421.1280517578125 436.0088500976562 418.2892456054688 C 433.8271179199219 415.4502868652344 429.8580017089844 408.195556640625 429.8580017089844 408.195556640625 L 429.8580017089844 400.7566833496094 C 429.2350463867188 400.0858154296875 428.5424194335938 399.8727722167969 427.9134521484375 399.8727722167969 C 426.8174743652344 399.8727722167969 425.915283203125 400.5201110839844 425.915283203125 400.5201110839844 C 425.915283203125 400.5201110839844 423.0500793457031 406.2240905761719 423.3655090332031 409.0892944335938 C 423.6809997558594 411.954345703125 424.9426574707031 417.8423461914062 424.9426574707031 417.8423461914062 L 408.2774963378906 417.8423461914062 C 408.2774963378906 417.8423461914062 406.3850402832031 418.21044921875 406.3850402832031 420.2344360351562 C 406.3850402832031 422.2583618164062 408.2249755859375 422.9680786132812 408.7243957519531 423.2572021484375 C 409.2238464355469 423.5463256835938 409.0662231445312 423.9931945800781 409.0662231445312 423.9931945800781 C 409.0662231445312 423.9931945800781 407.9095764160156 424.7029418945312 407.9095764160156 426.4377746582031 C 407.9095764160156 428.1726684570312 410.22265625 429.2765808105469 410.4855346679688 429.3555297851562 C 410.7483520507812 429.434326171875 410.8798522949219 429.8811950683594 410.643310546875 430.1440734863281 C 410.4067077636719 430.4069213867188 409.5391845703125 430.6960144042969 409.5391845703125 432.4046020507812 C 409.5391845703125 434.1132202148438 411.720947265625 435.243408203125 412.062744140625 435.3223571777344 C 412.4044189453125 435.401123046875 412.7723388671875 435.7690734863281 412.2728881835938 436.2159423828125 C 411.7735290527344 436.6628723144531 411.2215270996094 437.0571899414062 411.2740478515625 438.5817565917969 C 411.3267822265625 440.1062622070312 414.2706298828125 441.6833801269531 414.2706298828125 441.6833801269531 L 436.0351257324219 441.6833801269531 M 436.4682006835938 443.1833801269531 L 436.0351257324219 443.1833801269531 L 414.2706298828125 443.1833801269531 L 413.8941345214844 443.1833801269531 L 413.5622863769531 443.0055847167969 C 413.5274658203125 442.9869384765625 412.7005004882812 442.5414733886719 411.8639831542969 441.8826599121094 C 410.4966430664062 440.8056945800781 409.8133239746094 439.7429504394531 409.7749328613281 438.6336059570312 C 409.7344055175781 437.4570922851562 409.9880981445312 436.6805114746094 410.352294921875 436.1099243164062 C 409.2757568359375 435.3916015625 408.0391845703125 434.1304931640625 408.0391845703125 432.4046020507812 C 408.0391845703125 431.3119506835938 408.3149108886719 430.5655517578125 408.6451416015625 430.0505676269531 C 407.6047668457031 429.3366088867188 406.4095764160156 428.1250915527344 406.4095764160156 426.4377746582031 C 406.4095764160156 425.4060363769531 406.6952819824219 424.6122131347656 407.0445556640625 424.0271606445312 C 406.1163330078125 423.4140930175781 404.8850402832031 422.2594909667969 404.8850402832031 420.2344360351562 C 404.8850402832031 417.655517578125 406.9167785644531 416.5789184570312 407.9910888671875 416.3699340820312 L 408.1329650878906 416.3423461914062 L 408.2774963378906 416.3423461914062 L 423.0998229980469 416.3423461914062 C 422.6963500976562 414.3475646972656 422.0863952636719 411.1775512695312 421.87451171875 409.2534790039062 C 421.7152709960938 407.8070373535156 422.12255859375 405.8263549804688 423.1196594238281 403.1981811523438 C 423.81591796875 401.3629150390625 424.5442199707031 399.9078369140625 424.5748901367188 399.8468017578125 L 424.7406921386719 399.5167236328125 L 425.0408020019531 399.3013916015625 C 425.1732788085938 399.2063293457031 426.3792724609375 398.3727722167969 427.9134521484375 398.3727722167969 C 429.0765380859375 398.3727722167969 430.1290588378906 398.8441467285156 430.9571838378906 399.7359924316406 L 431.3580017089844 400.1676635742188 L 431.3580017089844 400.7566833496094 L 431.3580017089844 407.809326171875 C 432.1582641601562 409.2545471191406 435.3728332519531 414.9999694824219 437.1982116699219 417.375244140625 C 439.2334899902344 420.0234680175781 439.4575805664062 420.1482543945312 441.6015014648438 421.3419799804688 L 442.3717956542969 421.7708740234375 L 442.3717956542969 422.6525268554688 L 442.3717956542969 440.0274658203125 L 442.3717956542969 441.5274658203125 L 440.8717956542969 441.5274658203125 L 439.0968017578125 441.5274658203125 L 436.8346557617188 442.9525451660156 L 436.4682006835938 443.1833801269531 Z"/>
          </g>
          <g id="그룹_18061-2" data-name="그룹 18061" transform="translate(1.645 1.592)">
            <path id="패스_12680" data-name="패스 12680" class="cls-8" d="M607.351,600.41a.528.528,0,0,1-.072.57,3.4,3.4,0,0,0-.744.738A2.009,2.009,0,0,1,607.351,600.41Z" transform="translate(-603.36 -569.959)"/>
            <path id="패스_12681" data-name="패스 12681" class="cls-8" d="M595.836,639.879c.114.165.112.393-.173.648a3.315,3.315,0,0,0-.652.69A2.163,2.163,0,0,1,595.836,639.879Z" transform="translate(-590.114 -603.435)"/>
            <path id="패스_12682" data-name="패스 12682" class="cls-8" d="M618.357,561.094a2.516,2.516,0,0,0-.775.881,2.881,2.881,0,0,1,.721-1.34A.6.6,0,0,1,618.357,561.094Z" transform="translate(-616.015 -536.224)"/>
            <path id="패스_12683" data-name="패스 12683" class="cls-9" d="M422.549,423.4c-2.313-1.288-2.681-1.525-4.863-4.363s-6.513-10.557-6.513-10.557v-7.439a3.288,3.288,0,0,0-3.581.227S407,402.448,406.385,404c.7-1.909,1.495-3.482,1.495-3.482s2.234-1.6,3.943.237V408.2a114.652,114.652,0,0,0,6.151,10.094c2.182,2.839,2.55,3.075,4.863,4.363v17.375h-.287Z" transform="translate(-388.402 -399.873)"/>
            <path id="패스_12684" data-name="패스 12684" class="cls-9" d="M509.092,518.962H488.433a2.562,2.562,0,0,0-1.553,1.091,2.43,2.43,0,0,1,1.84-1.841h20.214C509.032,518.682,509.092,518.962,509.092,518.962Z" transform="translate(-486.88 -500.243)"/>
          </g>
          <g id="그룹_18065" data-name="그룹 18065" transform="translate(1.593 1.593)">
            <g id="그룹_18064" data-name="그룹 18064" transform="translate(0)">
              <g id="그룹_18062" data-name="그룹 18062" transform="translate(16.956)">
                <path id="패스_12685" data-name="패스 12685" class="cls-10" d="M489.709,408.065c.315,2.865,2.919,9.778,2.919,9.778H489s-1.262-5.888-1.577-8.753,2.55-8.569,2.55-8.569a3.792,3.792,0,0,1,2.1-.645C491.446,401.2,489.442,405.644,489.709,408.065Z" transform="translate(-487.399 -399.873)"/>
              </g>
              <g id="그룹_18063" data-name="그룹 18063" transform="translate(0 17.97)">
                <path id="패스_12686" data-name="패스 12686" class="cls-10" d="M560.019,523.628c-.5-.289-2.339-1-2.339-3.023a2.4,2.4,0,0,1,1.892-2.392H563.2a2.4,2.4,0,0,0-1.893,2.392c0,2.024,1.84,2.734,2.339,3.023a.624.624,0,0,1,.342.736,2.865,2.865,0,0,0-1.156,2.445c0,1.735,2.313,2.839,2.576,2.918a.507.507,0,0,1,.158.788,2.376,2.376,0,0,0-1.1,2.261c0,1.709,2.182,2.839,2.523,2.918s.71.447.21.894a2.439,2.439,0,0,0-1,2.366c.053,1.525,3,3.1,3,3.1h-3.627s-2.944-1.577-3-3.1a2.438,2.438,0,0,1,1-2.366c.5-.447.131-.815-.21-.894s-2.523-1.209-2.523-2.918a2.376,2.376,0,0,1,1.1-2.261.507.507,0,0,0-.158-.788c-.263-.079-2.576-1.183-2.576-2.918a2.865,2.865,0,0,1,1.157-2.445A.624.624,0,0,0,560.019,523.628Z" transform="translate(-557.68 -518.213)"/>
              </g>
            </g>
          </g>
          <path id="패스_12687" data-name="패스 12687" class="cls-11" d="M309.241,541.755H297.564a1.536,1.536,0,0,0-1.513,1.558V562.6a1.536,1.536,0,0,0,1.513,1.558h10.228a1.532,1.532,0,0,0,1.509-1.438l1.448-19.287A1.54,1.54,0,0,0,309.241,541.755Z" transform="translate(-257.921 -519.256)"/>
          <ellipse id="타원_2002" data-name="타원 2002" class="cls-12" cx="1.733" cy="1.733" rx="1.733" ry="1.733" transform="matrix(-0.383, -0.924, 0.924, -0.383, 41.304, 30.429)"/>
          <path id="사각형_5918" data-name="사각형 5918" class="cls-13" d="M0,0H2.7a0,0,0,0,1,0,0V20.664a0,0,0,0,1,0,0h0A2.7,2.7,0,0,1,0,17.96V0A0,0,0,0,1,0,0Z" transform="translate(35.426 23.026)"/>
        </g>
      </g>
    </g>
  </g>
</svg>
