<svg xmlns="http://www.w3.org/2000/svg" xmlns:xlink="http://www.w3.org/1999/xlink" width="98" height="65" viewBox="0 0 98 65">
  <defs>
    <style>
      .cls-1 {
        fill: #3ddb87;
        stroke: #fff;
        stroke-width: 2px;
      }

      .cls-2, .cls-4, .cls-5, .cls-6 {
        fill: #fff;
      }

      .cls-2 {
        font-size: 16px;
        font-family: Montserrat-Bold, Montserrat;
        letter-spacing: -0.02em;
      }

      .cls-2, .cls-4 {
        font-weight: 700;
      }

      .cls-3 {
        fill: #6464ff;
      }

      .cls-4 {
        font-size: 12px;
        font-family: NotoSansCJKkr-Bold, Noto Sans CJK KR;
      }

      .cls-5 {
        font-size: 13px;
        font-family: AppleColorEmoji, Apple Color Emoji;
      }

      .cls-6 {
        font-size: 10px;
        font-family: Montserrat-ExtraBold, Montserrat;
        font-weight: 800;
      }

      .cls-7 {
        font-family: AppleSDGothicNeo-ExtraBold, Apple SD Gothic Neo;
      }

      .cls-10, .cls-8 {
        stroke: none;
      }

      .cls-9 {
        fill: none;
      }

      .cls-10 {
        fill: #0f1f2e;
      }

      .cls-11 {
        filter: url(#타원_1468);
      }
    </style>
    <filter id="타원_1468" x="0" y="3" width="62" height="62" filterUnits="userSpaceOnUse">
      <feOffset dy="3" input="SourceAlpha"/>
      <feGaussianBlur stdDeviation="3" result="blur"/>
      <feFlood flood-color="#696969" flood-opacity="0.494"/>
      <feComposite operator="in" in2="blur"/>
      <feComposite in="SourceGraphic"/>
    </filter>
  </defs>
  <g id="_2" data-name="2" transform="translate(10.91 10.293)">
    <g class="cls-11" transform="matrix(1, 0, 0, 1, -10.91, -10.29)">
      <g id="타원_1468-2" data-name="타원 1468" class="cls-1" transform="translate(9 9)">
        <circle class="cls-8" cx="22" cy="22" r="22"/>
        <circle class="cls-9" cx="22" cy="22" r="21"/>
      </g>
    </g>
    <text id="_2-2" data-name="2" class="cls-2" transform="translate(15.09 26.707)"><tspan x="0" y="0">2</tspan></text>
    <g id="빼기_151" data-name="빼기 151" class="cls-3" transform="translate(27.089 -10.293)">
      <path class="cls-8" d="M 43.42014694213867 37.50065612792969 L 6.000310897827148 37.49980545043945 C 2.96742057800293 37.49980545043945 0.5000006556510925 35.03278350830078 0.5000006556510925 32.00040435791016 L 0.5000006556510925 6.000303745269775 C 0.5000006556510925 2.967423677444458 2.96742057800293 0.5000038146972656 6.000300884246826 0.5000038146972656 L 43.47030639648438 0.5000038146972656 C 43.93243026733398 1.922728061676025 45.27198791503906 2.917403697967529 46.79909896850586 2.917403697967529 C 48.32622146606445 2.917403697967529 49.665771484375 1.922728061676025 50.12789535522461 0.5000038146972656 L 54 0.5000038146972656 C 57.03287887573242 0.5000038146972656 59.50030136108398 2.967423677444458 59.50030136108398 6.000303745269775 L 59.50030136108398 32.00040435791016 C 59.50030136108398 35.03278350830078 57.03287887573242 37.49980545043945 54 37.49980545043945 L 50.17697906494141 37.49980545043945 C 49.76926803588867 36.0009651184082 48.38735198974609 34.91770553588867 46.79909896850586 34.91770553588867 C 45.21020889282227 34.91770553588867 43.82771682739258 36.00136947631836 43.42014694213867 37.50065612792969 Z"/>
      <path class="cls-10" d="M 43.05777359008789 37.00064468383789 C 43.63657760620117 35.48114395141602 45.11659622192383 34.41770553588867 46.79909896850586 34.41770553588867 C 48.48096466064453 34.41770553588867 49.96041870117188 35.48078918457031 50.53929138183594 36.99980545043945 L 54 36.99980545043945 C 56.75717163085938 36.99980545043945 59.00030136108398 34.75708389282227 59.00030136108398 32.00040435791016 L 59.00030136108398 6.000303745269775 C 59.00030136108398 3.243133783340454 56.75717163085938 1.000003814697266 54 1.000003814697266 L 50.47309875488281 1.000003814697266 C 49.8521728515625 2.439295768737793 48.41780471801758 3.417403697967529 46.79909896850586 3.417403697967529 C 45.18040466308594 3.417403697967529 43.74603271484375 2.439289569854736 43.12510299682617 1.000003814697266 L 6.000300884246826 1.000003814697266 C 3.243130683898926 1.000003814697266 1.000000715255737 3.243133783340454 1.000000715255737 6.000303745269775 L 1.000000715255737 32.00040435791016 C 1.000000715255737 34.75708389282227 3.243130683898926 36.99980545043945 6.000320911407471 36.99980545043945 L 43.05777359008789 37.00064468383789 M 43.82723236083984 38.00066375732422 L 43.82635879516602 38.00066375732422 L 6.000300884246826 37.99980545043945 C 2.691720724105835 37.99980545043945 6.805419729971618e-07 35.3084831237793 6.805419729971618e-07 32.00040435791016 L 6.805419729971618e-07 6.000303745269775 C 6.805419729971618e-07 2.691723823547363 2.691720724105835 3.786010665862705e-06 6.000300884246826 3.786010665862705e-06 L 43.8560905456543 3.786010665862705e-06 C 44.13199996948242 1.401083827018738 45.36930084228516 2.417403697967529 46.79909896850586 2.417403697967529 C 48.22856140136719 2.417403697967529 49.46627044677734 1.400743842124939 49.74211120605469 3.786010665862705e-06 L 54 3.786010665862705e-06 C 57.3085823059082 3.786010665862705e-06 60.00030136108398 2.691723823547363 60.00030136108398 6.000303745269775 L 60.00030136108398 32.00040435791016 C 60.00030136108398 35.3084831237793 57.3085823059082 37.99980545043945 54 37.99980545043945 L 49.76996231079102 37.99980545043945 C 49.56500244140625 36.52739334106445 48.28823089599609 35.41770553588867 46.79909896850586 35.41770553588867 C 45.30997085571289 35.41770553588867 44.03239059448242 36.52776336669922 43.82735061645508 37.99980545043945 L 43.82723236083984 38.00066375732422 Z"/>
    </g>
    <text id="받기_" data-name="받기!" class="cls-4" transform="translate(78.089 6.963)"><tspan x="-26.52" y="0">받기!</tspan></text>
    <text id="_" data-name="😆" class="cls-5" transform="translate(53.089 7.707)"><tspan x="-17" y="0">😆</tspan></text>
    <text id="_1_000원" data-name="1,000원" class="cls-6" transform="translate(75.09 19.707)"><tspan x="-35.94" y="0">1,000</tspan><tspan class="cls-7" y="0">원</tspan></text>
  </g>
</svg>
