<svg xmlns="http://www.w3.org/2000/svg" width="337.774" height="137.859" viewBox="0 0 337.774 137.859">
    <defs>
        <style>
            .cls-1,.cls-2{fill:#f5f5f5;stroke-linecap:round}.cls-2{fill:#fff}.cls-3{fill:#e5e5e5}.cls-4{fill:#aeaeae;font-family:Montserrat-Bold,Montserrat;font-weight:700;font-size:15px}.cls-7,.cls-8{stroke:none}.cls-8{fill:#0f1f2e}
        </style>
    </defs>
    <g id="coin" transform="translate(-29.88 -1043.247)">
        <g id="그룹_17440" transform="rotate(15 -2276.932 813.629)">
            <g id="패스_10744" class="cls-1">
                <path d="M32.515 21.316c-.23 0-.463-.001-.692-.004-4.275-.047-8.433-.523-12.36-1.416-3.711-.844-7.062-2.022-9.96-3.5C3.834 13.504.561 9.76.521 6.128.485 2.692.51 1.178.54.512l63.523 1.122-.08 5.2-.001.006v.006c.02 1.892-.891 3.783-2.71 5.62-1.227 1.24-2.831 2.411-4.769 3.48-1.954 1.077-4.2 2.024-6.678 2.814-5.239 1.672-11.224 2.556-17.309 2.556z" class="cls-7" transform="rotate(23 -1237.699 365.968)"/>
                <path d="M1.022 1.02c-.02.812-.03 2.315 0 5.102.018 1.686.776 3.396 2.253 5.085C4.774 12.92 7.006 14.56 9.73 15.95c2.86 1.459 6.172 2.622 9.843 3.457 3.892.885 8.015 1.358 12.255 1.404.228.003.458.004.686.004 6.033 0 11.966-.876 17.157-2.532 4.845-1.547 8.839-3.738 11.245-6.17 1.72-1.739 2.583-3.51 2.564-5.262v-.027l.073-4.7L1.022 1.02M.117-.154c.027 0 .048.16.048.16L64.57 1.143 64.48 6.84c.083 7.742-14.475 14.975-31.966 14.975-.232 0-.465-.001-.697-.004C14.018 21.617.106 13.978.022 6.133-.038.677.055-.154.117-.154z" class="cls-8" transform="rotate(23 -1237.699 365.968)"/>
            </g>
            <g id="패스_10745" class="cls-2">
                <path d="M33.353 28.268c-.27 0-.542-.002-.812-.005-8.542-.094-16.58-1.644-22.635-4.367-2.916-1.31-5.204-2.818-6.8-4.48C1.497 17.74.672 15.985.653 14.198c-.02-1.833.81-3.611 2.466-5.285C5.455 6.553 9.29 4.546 14.205 3.11 19.275 1.631 25.225.85 31.412.85c.269 0 .542.002.812.005 8.542.094 16.58 1.644 22.635 4.367 2.915 1.31 5.203 2.818 6.8 4.48 1.609 1.676 2.434 3.43 2.453 5.217.02 1.833-.81 3.611-2.466 5.285-2.336 2.361-6.17 4.368-11.087 5.803-5.07 1.48-11.02 2.262-17.206 2.262z" class="cls-7" transform="rotate(23 -1204.307 372.672)"/>
                <path d="M31.412 1.35c-6.14 0-12.04.775-17.066 2.241C9.51 5.003 5.75 6.965 3.475 9.265c-1.56 1.576-2.34 3.234-2.322 4.929.017 1.655.796 3.295 2.313 4.875 1.553 1.616 3.788 3.087 6.645 4.371 2.904 1.306 6.29 2.345 10.06 3.088 3.922.773 8.085 1.188 12.375 1.235.268.003.54.005.807.005 6.14 0 12.04-.776 17.066-2.242 4.836-1.412 8.595-3.374 10.871-5.674 1.56-1.576 2.34-3.234 2.322-4.929-.018-1.655-.796-3.295-2.313-4.875-1.553-1.616-3.788-3.087-6.645-4.371-2.904-1.306-6.29-2.345-10.06-3.088-3.922-.772-8.085-1.188-12.375-1.235-.268-.003-.54-.005-.807-.005m0-1c.272 0 .544.002.818.005 17.8.195 32.298 6.713 32.382 14.558.083 7.725-13.84 13.856-31.259 13.856-.272 0-.544-.002-.818-.005C14.735 28.568.237 22.05.153 14.205.07 6.48 13.993.349 31.412.349z" class="cls-8" transform="rotate(23 -1204.307 372.672)"/>
            </g>
            <path id="빼기_125" d="M47.185 26.689c.1-2.769-1.844-6.2-5.483-9.664A51.7 51.7 0 0 0 27.1 7.7C20.614 4.864 14.089 3.3 8.731 3.3c-4.063 0-7.089.906-8.751 2.62a5.046 5.046 0 0 1 .37-1.737C1.461 1.486 4.936 0 10.135 0c5.358 0 11.883 1.563 18.371 4.4a49.342 49.342 0 0 1 15.688 10.409 18.068 18.068 0 0 1 3.788 5.5 6.278 6.278 0 0 1 .238 4.813 4.954 4.954 0 0 1-1.033 1.562z" class="cls-3" transform="translate(50.107 512.185)"/>
            <text id="P" class="cls-4" transform="rotate(22 -1337.193 454.032)">
                <tspan x="-5.49" y="0">P</tspan>
            </text>
        </g>
        <g id="그룹_17441" transform="rotate(22 -1343.966 819.41)">
            <g id="패스_10744-2" class="cls-1">
                <path d="M15.506 10.597c-4.06 0-7.9-.811-10.814-2.283C2.028 6.968.5 5.244.5 3.586.5 1.798.518.927.535.505l30.749.2-.044 2.873v.008c0 .794-.393 1.61-1.167 2.425-.786.828-1.954 1.622-3.378 2.297-3.067 1.455-7.146 2.289-11.19 2.289z" class="cls-7" transform="rotate(23 -1223.92 351.837)"/>
                <path d="M1.02 1.008C1.01 1.509 1 2.31 1 3.586c0 1.442 1.464 3.042 3.917 4.281 2.846 1.438 6.606 2.23 10.589 2.23 3.972 0 7.972-.817 10.975-2.24 2.666-1.265 4.258-2.862 4.258-4.271V3.57l.037-2.368L1.02 1.008M.08 0L.08.002l31.71.207-.052 3.377c0 3.782-7.469 7.51-16.233 7.51C6.74 11.097 0 7.369 0 3.587 0 .162.067 0 .08 0z" class="cls-8" transform="rotate(23 -1223.92 351.837)"/>
            </g>
            <g id="타원_1830" fill="#fff" stroke="#0f1f2e" stroke-linecap="round" stroke-linejoin="round" transform="rotate(23 -1207.853 355.245)">
                <ellipse cx="15.87" cy="6.849" class="cls-7" rx="15.87" ry="6.849"/>
                <ellipse cx="15.87" cy="6.849" fill="none" rx="15.37" ry="6.349"/>
            </g>
            <path id="빼기_125-2" d="M23.694 12.368c.125-1.331-.8-3-2.612-4.695a25.492 25.492 0 0 0-7.313-4.558 28.958 28.958 0 0 0-4.837-1.584A19.273 19.273 0 0 0 4.68 1a8.868 8.868 0 0 0-2.927.424A3.242 3.242 0 0 0 0 2.7a2.325 2.325 0 0 1 .174-.693A2.914 2.914 0 0 1 1.882.5 8.485 8.485 0 0 1 5.014 0a19.278 19.278 0 0 1 4.252.529A28.974 28.974 0 0 1 14.1 2.113a24.47 24.47 0 0 1 7.76 5 8.668 8.668 0 0 1 1.874 2.641 2.931 2.931 0 0 1 .117 2.31 2.283 2.283 0 0 1-.157.304z" class="cls-3" transform="translate(41.979 506.501)"/>
            <text id="P-2" fill="#aeaeae" font-family="Montserrat-Bold, Montserrat" font-size="8px" font-weight="700" transform="rotate(32 -875.095 350.9)">
                <tspan x="-2.928" y="0">P</tspan>
            </text>
        </g>
        <g id="그룹_17442" transform="rotate(-57 709.812 567.3)">
            <g id="패스_10744-3" class="cls-1">
                <path d="M32.515 21.316c-.23 0-.463-.001-.692-.004-4.275-.047-8.433-.523-12.36-1.416-3.711-.844-7.062-2.022-9.96-3.5C3.834 13.504.561 9.76.521 6.128.485 2.692.51 1.178.54.512l63.523 1.122-.08 5.2-.001.006v.006c.02 1.892-.891 3.783-2.71 5.62-1.227 1.24-2.831 2.411-4.769 3.48-1.954 1.077-4.2 2.024-6.678 2.814-5.239 1.672-11.224 2.556-17.309 2.556z" class="cls-7" transform="rotate(23 -1237.699 365.968)"/>
                <path d="M1.022 1.02c-.02.812-.03 2.315 0 5.102.018 1.686.776 3.396 2.253 5.085C4.774 12.92 7.006 14.56 9.73 15.95c2.86 1.459 6.172 2.622 9.843 3.457 3.892.885 8.015 1.358 12.255 1.404.228.003.458.004.686.004 6.033 0 11.966-.876 17.157-2.532 4.845-1.547 8.839-3.738 11.245-6.17 1.72-1.739 2.583-3.51 2.564-5.262v-.027l.073-4.7L1.022 1.02M.117-.154c.027 0 .048.16.048.16L64.57 1.143 64.48 6.84c.083 7.742-14.475 14.975-31.966 14.975-.232 0-.465-.001-.697-.004C14.018 21.617.106 13.978.022 6.133-.038.677.055-.154.117-.154z" class="cls-8" transform="rotate(23 -1237.699 365.968)"/>
            </g>
            <g id="패스_10745-2" class="cls-2">
                <path d="M33.353 28.268c-.27 0-.542-.002-.812-.005-8.542-.094-16.58-1.644-22.635-4.367-2.916-1.31-5.204-2.818-6.8-4.48C1.497 17.74.672 15.985.653 14.198c-.02-1.833.81-3.611 2.466-5.285C5.455 6.553 9.29 4.546 14.205 3.11 19.275 1.631 25.225.85 31.412.85c.269 0 .542.002.812.005 8.542.094 16.58 1.644 22.635 4.367 2.915 1.31 5.203 2.818 6.8 4.48 1.609 1.676 2.434 3.43 2.453 5.217.02 1.833-.81 3.611-2.466 5.285-2.336 2.361-6.17 4.368-11.087 5.803-5.07 1.48-11.02 2.262-17.206 2.262z" class="cls-7" transform="rotate(23 -1204.307 372.672)"/>
                <path d="M31.412 1.35c-6.14 0-12.04.775-17.066 2.241C9.51 5.003 5.75 6.965 3.475 9.265c-1.56 1.576-2.34 3.234-2.322 4.929.017 1.655.796 3.295 2.313 4.875 1.553 1.616 3.788 3.087 6.645 4.371 2.904 1.306 6.29 2.345 10.06 3.088 3.922.773 8.085 1.188 12.375 1.235.268.003.54.005.807.005 6.14 0 12.04-.776 17.066-2.242 4.836-1.412 8.595-3.374 10.871-5.674 1.56-1.576 2.34-3.234 2.322-4.929-.018-1.655-.796-3.295-2.313-4.875-1.553-1.616-3.788-3.087-6.645-4.371-2.904-1.306-6.29-2.345-10.06-3.088-3.922-.772-8.085-1.188-12.375-1.235-.268-.003-.54-.005-.807-.005m0-1c.272 0 .544.002.818.005 17.8.195 32.298 6.713 32.382 14.558.083 7.725-13.84 13.856-31.259 13.856-.272 0-.544-.002-.818-.005C14.735 28.568.237 22.05.153 14.205.07 6.48 13.993.349 31.412.349z" class="cls-8" transform="rotate(23 -1204.307 372.672)"/>
            </g>
            <path id="빼기_125-3" d="M47.185 26.689c.1-2.769-1.844-6.2-5.483-9.664A51.7 51.7 0 0 0 27.1 7.7C20.614 4.864 14.089 3.3 8.731 3.3c-4.063 0-7.089.906-8.751 2.62a5.046 5.046 0 0 1 .37-1.737C1.461 1.486 4.936 0 10.135 0c5.358 0 11.883 1.563 18.371 4.4a49.342 49.342 0 0 1 15.688 10.409 18.068 18.068 0 0 1 3.788 5.5 6.278 6.278 0 0 1 .238 4.813 4.954 4.954 0 0 1-1.033 1.562z" class="cls-3" transform="translate(50.107 512.185)"/>
            <text id="P-3" class="cls-4" transform="rotate(22 -1337.193 454.032)">
                <tspan x="-5.49" y="0">P</tspan>
            </text>
        </g>
    </g>
</svg>
