<svg xmlns="http://www.w3.org/2000/svg" xmlns:xlink="http://www.w3.org/1999/xlink" width="92" height="92" viewBox="0 0 92 92">
  <defs>
    <style>
      .cls-1 {
        fill: #f8f8f8;
      }

      .cls-1, .cls-15, .cls-2 {
        stroke: #3ddb87;
      }

      .cls-1, .cls-2, .cls-5, .cls-9 {
        stroke-width: 1.5px;
      }

      .cls-2 {
        fill: #cdf8e1;
      }

      .cls-3, .cls-5 {
        fill: #3ddb87;
      }

      .cls-4 {
        clip-path: url(#clip-path);
      }

      .cls-5, .cls-9 {
        stroke: #0f1f2e;
      }

      .cls-10, .cls-6 {
        font-size: 5px;
      }

      .cls-10, .cls-13, .cls-6, .cls-8 {
        font-family: NotoSansCJKkr-Medium, Noto Sans CJK KR;
        font-weight: 500;
      }

      .cls-11, .cls-7 {
        font-size: 6px;
        font-family: Montserrat-Bold, Montserrat;
        font-weight: 700;
      }

      .cls-13, .cls-8 {
        font-size: 3px;
      }

      .cls-14, .cls-9 {
        fill: #fff;
      }

      .cls-10, .cls-11, .cls-13 {
        fill: #0f1f2e;
      }

      .cls-12 {
        fill: #f5f5f5;
      }

      .cls-14 {
        opacity: 0;
      }

      .cls-15, .cls-17 {
        fill: none;
      }

      .cls-15 {
        stroke-linecap: round;
        stroke-miterlimit: 10;
        stroke-width: 2px;
      }

      .cls-16 {
        stroke: none;
      }
    </style>
    <clipPath id="clip-path">
      <circle id="타원_2054" data-name="타원 2054" class="cls-1" cx="34" cy="34" r="34" transform="translate(11.9 11.688)"/>
    </clipPath>
  </defs>
  <g id="get1" transform="translate(0.101 0.313)">
    <g id="그룹_18029" data-name="그룹 18029" transform="translate(-0.101 -0.313)">
      <g id="타원_1982" data-name="타원 1982" class="cls-2">
        <circle class="cls-16" cx="46" cy="46" r="46"/>
        <circle class="cls-17" cx="46" cy="46" r="45.25"/>
      </g>
      <g id="타원_1983" data-name="타원 1983" class="cls-1" transform="translate(12.001 12)">
        <circle class="cls-16" cx="34" cy="34" r="34"/>
        <circle class="cls-17" cx="34" cy="34" r="34.75"/>
      </g>
      <g id="그룹_18073" data-name="그룹 18073" transform="translate(3.199 8)">
        <path id="패스_12493" data-name="패스 12493" class="cls-3" d="M411.712,118.01l-.537.916-3.819-2.237,2.888-4.932,3.727,2.182-.535.916-2.594-1.518-.626,1.071,2.289,1.341-.519.887-2.29-1.34-.669,1.141Z" transform="translate(-347.814 -111.758)"/>
        <path id="패스_12494" data-name="패스 12494" class="cls-3" d="M421.455,120l-3.809,4.264-.81-.724.186-4.488-2.312,2.589-.975-.871,3.81-4.264.816.729-.192,4.483,2.313-2.59Z" transform="translate(-348.405 -112.198)"/>
        <path id="패스_12495" data-name="패스 12495" class="cls-3" d="M423.519,129.853l-.85.638-2.656-3.542,4.575-3.431,2.592,3.457-.849.637-1.8-2.405-.993.746,1.591,2.124-.823.617-1.593-2.124-1.058.794Z" transform="translate(-348.987 -112.848)"/>
        <path id="패스_12496" data-name="패스 12496" class="cls-3" d="M425.9,136.494l.952-1.687-.028-.059-.5-1.036-1.434.693-.576-1.19,5.146-2.491,1.079,2.227c.665,1.375.368,2.58-.786,3.138a1.859,1.859,0,0,1-2.137-.272l-1.1,1.954Zm3.634-3.138-.469-.971-1.795.868.47.971c.353.727.868.931,1.427.661S429.886,134.083,429.534,133.355Z" transform="translate(-349.385 -113.516)"/>
        <path id="패스_12497" data-name="패스 12497" class="cls-3" d="M431.434,143.79l.3,1.171-2.249.566a3.933,3.933,0,0,1-1.268-2.063,2.961,2.961,0,1,1,5.739-1.42,3.05,3.05,0,0,1-.374,2.562l-.968-.632a1.928,1.928,0,0,0,.265-1.591,1.83,1.83,0,1,0-3.552.876,2.107,2.107,0,0,0,.489.939Z" transform="translate(-349.736 -114.34)"/>
        <path id="패스_12498" data-name="패스 12498" class="cls-3" d="M431.488,151.658l-2.022.1-.068-1.321,2.039-.1,3.557-2.4.072,1.4L432.607,151l2.613,1.4.066,1.3Z" transform="translate(-349.857 -115.111)"/>
        <path id="패스_12499" data-name="패스 12499" class="cls-3" d="M431.221,166.556c-1.238-.307-1.777-1.425-1.41-2.909l.278-1.119-1.531-.379.318-1.285,5.553,1.376-.6,2.4C433.467,166.127,432.467,166.865,431.221,166.556Zm.323-1.3c.61.152,1.065-.157,1.26-.943l.259-1.047-1.928-.478-.259,1.048C430.681,164.62,430.941,165.106,431.544,165.255Z" transform="translate(-349.779 -116.309)"/>
        <path id="패스_12500" data-name="패스 12500" class="cls-3" d="M431.669,171.011l-.55,1.2-4.223-1.926-1.189,2.609-.982-.447,1.74-3.814Z" transform="translate(-349.424 -117.029)"/>
        <path id="패스_12501" data-name="패스 12501" class="cls-3" d="M425.434,176.354l2.6,1.855-.767,1.076-2.566-1.827c-.883-.63-1.523-.5-1.988.147s-.373,1.3.512,1.926l2.565,1.828-.758,1.063-2.6-1.856a2.586,2.586,0,1,1,3-4.213Z" transform="translate(-349.099 -117.689)"/>
        <path id="패스_12502" data-name="패스 12502" class="cls-3" d="M418.776,181.747l.359,1.032a3.367,3.367,0,0,0-1.779.866c-.569.54-.62.949-.378,1.2.737.776,2.642-2.045,4.1-.5.669.705.656,1.831-.523,2.95a3.827,3.827,0,0,1-1.788,1l-.4-1.009a3.23,3.23,0,0,0,1.459-.765c.569-.54.585-.961.339-1.221-.725-.765-2.636,2.051-4.081.527-.658-.693-.645-1.831.54-2.955A4.071,4.071,0,0,1,418.776,181.747Z" transform="translate(-348.583 -118.244)"/>
        <path id="패스_12503" data-name="패스 12503" class="cls-3" d="M375.987,193.469l.255-1.03,4.293,1.066-1.376,5.543-4.189-1.04.256-1.03,2.914.724.3-1.2-2.574-.639.249-1,2.573.639.318-1.283Z" transform="translate(-344.813 -119.235)"/>
        <path id="패스_12504" data-name="패스 12504" class="cls-3" d="M365.92,194.245l2.462-5.165.982.467,1.081,4.363,1.5-3.136,1.18.563-2.461,5.165-.989-.471-1.074-4.36-1.494,3.136Z" transform="translate(-343.974 -118.923)"/>
        <path id="패스_12505" data-name="패스 12505" class="cls-3" d="M361.225,185.4l.637-.849,3.542,2.656-3.431,4.575-3.457-2.592.637-.85,2.4,1.8.745-.994-2.123-1.592.617-.824,2.124,1.593.794-1.059Z" transform="translate(-343.288 -118.504)"/>
        <path id="패스_12506" data-name="패스 12506" class="cls-3" d="M357.132,179.685l-.439,1.886.044.048.773.853,1.18-1.069.889.981-4.235,3.837-1.661-1.833c-1.025-1.132-1.08-2.372-.13-3.232a1.856,1.856,0,0,1,2.127-.34l.5-2.184Zm-2.6,4.034.724.8,1.476-1.337-.724-.8c-.542-.6-1.1-.65-1.555-.233S353.987,183.121,354.529,183.719Z" transform="translate(-342.766 -117.955)"/>
        <path id="패스_12507" data-name="패스 12507" class="cls-3" d="M349.819,174.328l-.614-1.042,2-1.18a3.951,3.951,0,0,1,1.8,1.621,2.962,2.962,0,1,1-5.1,2.986,3.047,3.047,0,0,1-.366-2.564l1.107.333a1.936,1.936,0,0,0,.2,1.6A1.83,1.83,0,1,0,352,174.238a2.1,2.1,0,0,0-.735-.762Z" transform="translate(-342.258 -117.35)"/>
        <path id="패스_12508" data-name="패스 12508" class="cls-3" d="M347.5,166.958l1.912-.669.437,1.249-1.928.674-2.738,3.3-.465-1.327,1.894-2.281-2.9-.6-.43-1.226Z" transform="translate(-341.877 -116.792)"/>
        <path id="패스_12509" data-name="패스 12509" class="cls-3" d="M343.706,152.479c1.273-.052,2.1.87,2.165,2.4l.047,1.15,1.573-.064.054,1.321-5.709.232-.1-2.471C341.675,153.518,342.427,152.531,343.706,152.479Zm.055,1.337c-.629.025-.978.448-.945,1.256l.043,1.076,1.982-.081-.044-1.076C344.764,154.184,344.381,153.791,343.762,153.816Z" transform="translate(-341.733 -115.531)"/>
        <path id="패스_12510" data-name="패스 12510" class="cls-3" d="M341.893,148.434l.186-1.31,4.592.652.4-2.837,1.067.152-.59,4.147Z" transform="translate(-341.748 -114.833)"/>
        <path id="패스_12511" data-name="패스 12511" class="cls-3" d="M346.359,141.4l-3.029-1.048.434-1.251,2.981,1.032c1.028.356,1.607.054,1.869-.7s-.007-1.352-1.035-1.708l-2.982-1.032.426-1.236,3.029,1.047a2.592,2.592,0,1,1-1.694,4.9Z" transform="translate(-341.881 -113.954)"/>
        <path id="패스_12512" data-name="패스 12512" class="cls-3" d="M351.281,134.334l-.635-.89a3.369,3.369,0,0,0,1.465-1.331c.4-.678.329-1.084.025-1.261-.925-.539-1.964,2.7-3.8,1.636-.841-.49-1.145-1.574-.327-2.98a3.834,3.834,0,0,1,1.437-1.461l.662.859a3.228,3.228,0,0,0-1.186,1.143c-.395.678-.293,1.087.018,1.268.911.53,1.955-2.709,3.77-1.653.827.481,1.134,1.577.311,2.99A4.074,4.074,0,0,1,351.281,134.334Z" transform="translate(-342.27 -113.267)"/>
      </g>
    </g>
    <g id="마스크_그룹_322" data-name="마스크 그룹 322" class="cls-4">
      <g id="마스크_그룹_304" data-name="마스크 그룹 304" transform="translate(11.899 11.688)">
        <g id="그룹_18157" data-name="그룹 18157" transform="matrix(0.883, 0, -0.041, 0.996, 59.854, 20.933)">
          <rect id="사각형_5899" data-name="사각형 5899" class="cls-5" width="28.971" height="36.122" rx="4" transform="translate(0 0)"/>
          <g id="text" transform="translate(2.33 6.865)">
            <text id="경유" class="cls-6" transform="translate(0.441 13.109)"><tspan x="0" y="0">경유</tspan></text>
            <text id="_44" data-name="$44" class="cls-7" transform="translate(0.106 5.999)"><tspan x="0" y="0">50,000</tspan></text>
            <text id="롯데카드_1234" data-name="롯데카드 1234" class="cls-8" transform="translate(0.75 20.559)"><tspan x="0" y="0">롯데카드 1234</tspan></text>
          </g>
        </g>
        <g id="그룹_18153" data-name="그룹 18153" transform="matrix(0.883, 0, -0.041, 0.996, 28.926, 20.945)">
          <rect id="사각형_5899-2" data-name="사각형 5899" class="cls-9" width="31.14" height="38.292" rx="4" transform="translate(0 0)"/>
          <g id="text-2" data-name="text" transform="translate(2.615 6.865)">
            <text id="휘발유" class="cls-10" transform="translate(0.341 13.186)"><tspan x="0" y="0">휘발유</tspan></text>
            <text id="_44-2" data-name="$44" class="cls-11" transform="translate(0 6)"><tspan x="0" y="0">30,000</tspan></text>
            <rect id="사각형_5989" data-name="사각형 5989" class="cls-12" width="18.439" height="5.423" rx="2.712" transform="translate(0.207 20.214)"/>
            <text id="바로주유" class="cls-13" transform="translate(3.504 23.755)"><tspan x="0" y="0">바로주유</tspan></text>
          </g>
        </g>
        <g id="그룹_18158" data-name="그룹 18158" transform="translate(-267 -210)">
          <g id="_2" data-name="2" transform="translate(270 216.766)">
            <rect id="사각형_5492" data-name="사각형 5492" class="cls-14" width="38" height="38" transform="translate(0 0.233)"/>
            <path id="패스_289" data-name="패스 289" class="cls-3" d="M1741.074,848.345h-4.89a7.879,7.879,0,0,1-7.879-7.879v-4.891c-.757-.861-1.717-.336-1.717.413v4.478a7.879,7.879,0,0,1-7.88,7.879h-4.89c-.862.757-.337,1.717.413,1.717h4.478a7.879,7.879,0,0,1,7.88,7.879v4.891c.757.862,1.717.337,1.717-.413v-4.478a7.879,7.879,0,0,1,7.879-7.879h4.478c.749,0,1.274-.96.412-1.717" transform="translate(-1710.472 -828.044)"/>
          </g>
          <g id="_1" data-name="1" transform="translate(293.766 216.593)">
            <rect id="사각형_5491" data-name="사각형 5491" class="cls-14" width="12" height="12" transform="translate(0.233 0.407)"/>
            <line id="선_9" data-name="선 9" class="cls-15" x1="1.121" transform="translate(1.699 6.33)"/>
            <line id="선_10" data-name="선 10" class="cls-15" x1="1.121" transform="translate(10.185 6.33)"/>
            <line id="선_11" data-name="선 11" class="cls-15" y2="1.121" transform="translate(6.502 10.012)"/>
            <line id="선_12" data-name="선 12" class="cls-15" y2="1.12" transform="translate(6.502 1.49)"/>
          </g>
        </g>
      </g>
    </g>
  </g>
</svg>
