<svg xmlns="http://www.w3.org/2000/svg" width="555.216" height="376.132" viewBox="0 0 555.216 376.132">
    <defs>
        <linearGradient id="v1glnoh2ta" x1=".123" y1=".861" x2="1.261" y2="-.305" gradientUnits="objectBoundingBox">
            <stop offset="0" stop-color="#3ddb87"/>
            <stop offset="1" stop-color="#d0ffe6" stop-opacity="0"/>
        </linearGradient>
    </defs>
    <path d="M330.042 7.216c-48.85 21.354-104.377 22.049-152.687 1.91a126.013 126.013 0 0 0-51.17-9.585C56.906.946.675 56.117-1.178 124.528c-1.9 69.975 54.5 126.281 125.122 125.4a129.69 129.69 0 0 0 49.989-10.677c49.271-21.327 104.805-22.022 153.534-1.921a125.93 125.93 0 0 0 49.728 9.429c70.626-.884 128.506-58.62 128.432-128.57C505.555 49.8 450.741-3.983 381.478-3.653c-.337 0-.678 0-1.013.009a129.716 129.716 0 0 0-50.423 10.86" transform="rotate(-14.98 511.174 58.884)" style="opacity:.76;fill:url(#v1glnoh2ta)"/>
</svg>
