<svg xmlns="http://www.w3.org/2000/svg" xmlns:xlink="http://www.w3.org/1999/xlink" width="156" height="104" viewBox="0 0 156 104">
  <defs>
    <style>
      .cls-1, .cls-6 {
        fill: #fff;
      }

      .cls-1 {
        stroke: #707070;
        opacity: 0.394;
      }

      .cls-2 {
        opacity: 0.55;
        clip-path: url(#clip-path);
      }

      .cls-3 {
        mix-blend-mode: darken;
        isolation: isolate;
      }

      .cls-10, .cls-4 {
        fill: none;
      }

      .cls-4 {
        stroke: #a6acb2;
        stroke-width: 2px;
        opacity: 0.528;
      }

      .cls-5, .cls-8 {
        fill: #a6acb2;
      }

      .cls-5 {
        opacity: 0.364;
      }

      .cls-7 {
        opacity: 0.698;
      }

      .cls-9 {
        stroke: none;
      }
    </style>
    <clipPath id="clip-path">
      <rect id="사각형_6032" data-name="사각형 6032" class="cls-1" width="156" height="104" transform="translate(219 484)"/>
    </clipPath>
  </defs>
  <g id="bg" class="cls-2" transform="translate(-219 -484)">
    <g id="그룹_18166" data-name="그룹 18166" class="cls-3" transform="translate(405.188 700.693)">
      <g id="타원_1861" data-name="타원 1861" class="cls-4" transform="matrix(0.899, -0.438, 0.438, 0.899, -197.15, -181.332)">
        <circle class="cls-9" cx="37" cy="37" r="37"/>
        <circle class="cls-10" cx="37" cy="37" r="36"/>
      </g>
      <circle id="타원_1879" data-name="타원 1879" class="cls-5" cx="26" cy="26" r="26" transform="matrix(0.899, -0.438, 0.438, 0.899, -182.003, -175.369)"/>
      <g id="Shape" transform="matrix(0.899, -0.438, 0.438, 0.899, -166.358, -164.064)">
        <path id="패스_309" data-name="패스 309" class="cls-6" d="M14.429,9.331H9.364v5.047a.352.352,0,0,1-.7,0V9.331H3.6a.351.351,0,1,1,0-.7H8.661V3.583a.352.352,0,0,1,.7,0V8.629h5.065a.351.351,0,1,1,0,.7M9.013,0a8.98,8.98,0,1,0,9.013,8.98A9,9,0,0,0,9.013,0" transform="translate(15.762 0)"/>
        <path id="패스_310" data-name="패스 310" class="cls-6" d="M3.573,7.066a5.776,5.776,0,0,1,10.879,0,.223.223,0,0,1-.211.3H3.784a.223.223,0,0,1-.211-.3m9.378,6.349a.149.149,0,0,0-.225-.038,5.778,5.778,0,0,1-9.153-2.483.224.224,0,0,1,.211-.3h11.45A9.458,9.458,0,0,1,16.505,4,8.983,8.983,0,1,0,14.4,16.179a.149.149,0,0,0,.039-.193Z" transform="translate(0)"/>
      </g>
      <g id="그룹_17414" data-name="그룹 17414" class="cls-7" transform="translate(-127.549 -203.217) rotate(75)">
        <path id="패스_9872" data-name="패스 9872" class="cls-8" d="M410.677,116.524l-.409.7-2.911-1.7,2.2-3.76,2.841,1.663-.408.7-1.977-1.157-.477.816,1.745,1.022-.4.676-1.746-1.022-.51.87Z" transform="translate(-361.967 -111.758)"/>
        <path id="패스_9873" data-name="패스 9873" class="cls-8" d="M419.62,119.173l-2.9,3.251-.618-.552.142-3.421-1.762,1.973-.743-.664,2.9-3.25.622.555-.147,3.417,1.763-1.974Z" transform="translate(-363.934 -113.223)"/>
        <path id="패스_9874" data-name="패스 9874" class="cls-8" d="M422.686,128.347l-.648.486-2.024-2.7,3.487-2.615,1.976,2.635-.647.486-1.375-1.834-.757.569,1.213,1.619-.627.47-1.215-1.619-.806.605Z" transform="translate(-365.87 -115.384)"/>
        <path id="패스_9875" data-name="패스 9875" class="cls-8" d="M425.522,135.122l.726-1.286-.021-.045-.382-.79-1.093.528-.439-.907,3.922-1.9.822,1.7a1.63,1.63,0,0,1-.6,2.392,1.417,1.417,0,0,1-1.629-.208l-.836,1.49Zm2.77-2.392-.358-.74-1.368.662.358.74c.269.554.662.71,1.088.5S428.561,133.285,428.293,132.73Z" transform="translate(-367.195 -117.606)"/>
        <path id="패스_9876" data-name="패스 9876" class="cls-8" d="M430.642,142.8l.226.893-1.715.432a3,3,0,0,1-.967-1.573,2.257,2.257,0,1,1,4.375-1.082,2.325,2.325,0,0,1-.285,1.953l-.738-.482a1.47,1.47,0,0,0,.2-1.213,1.395,1.395,0,1,0-2.708.668,1.606,1.606,0,0,0,.373.716Z" transform="translate(-368.363 -120.349)"/>
        <path id="패스_9877" data-name="패스 9877" class="cls-8" d="M430.991,150.774l-1.541.078-.052-1.007,1.554-.079,2.711-1.827.055,1.069-1.874,1.261,1.992,1.064.05.988Z" transform="translate(-368.764 -122.914)"/>
        <path id="패스_9878" data-name="패스 9878" class="cls-8" d="M430.588,165.2c-.943-.234-1.355-1.087-1.075-2.217l.212-.853-1.167-.289.243-.979,4.233,1.049-.454,1.833C432.3,164.876,431.538,165.439,430.588,165.2Zm.246-.991c.465.115.812-.12.961-.719l.2-.8-1.47-.365-.2.8C430.176,163.727,430.374,164.1,430.834,164.212Z" transform="translate(-368.505 -126.899)"/>
        <path id="패스_9879" data-name="패스 9879" class="cls-8" d="M430.018,170.446l-.419.919L426.38,169.9l-.907,1.989-.748-.341,1.327-2.907Z" transform="translate(-367.323 -129.296)"/>
        <path id="패스_9880" data-name="패스 9880" class="cls-8" d="M424.434,176.213l1.986,1.414-.584.82-1.956-1.393c-.673-.48-1.161-.385-1.515.112s-.284.988.39,1.468l1.955,1.394-.577.811-1.986-1.415a1.972,1.972,0,1,1,2.288-3.211Z" transform="translate(-366.244 -131.492)"/>
        <path id="패스_9881" data-name="패스 9881" class="cls-8" d="M418.034,181.747l.274.786a2.568,2.568,0,0,0-1.356.66c-.434.412-.472.723-.288.918.562.591,2.014-1.559,3.128-.385.51.537.5,1.4-.4,2.249a2.917,2.917,0,0,1-1.363.761l-.3-.769a2.462,2.462,0,0,0,1.112-.583c.434-.412.446-.732.258-.931-.553-.583-2.009,1.563-3.111.4-.5-.528-.492-1.4.412-2.253A3.1,3.1,0,0,1,418.034,181.747Z" transform="translate(-364.526 -133.338)"/>
        <path id="패스_9882" data-name="패스 9882" class="cls-8" d="M375.745,193.224l.194-.785,3.272.813-1.049,4.225-3.193-.793.2-.785,2.222.552.228-.918-1.962-.487.19-.761,1.962.487.243-.978Z" transform="translate(-351.981 -136.635)"/>
        <path id="패스_9883" data-name="패스 9883" class="cls-8" d="M365.92,193.018l1.876-3.938.748.356.824,3.326,1.14-2.39.9.429-1.876,3.938-.754-.359-.819-3.323-1.139,2.39Z" transform="translate(-349.191 -135.599)"/>
        <path id="패스_9884" data-name="패스 9884" class="cls-8" d="M360.582,185.2l.486-.647,2.7,2.024-2.615,3.487-2.635-1.976.486-.648,1.833,1.375.568-.757-1.618-1.214.47-.628,1.619,1.215.605-.807Z" transform="translate(-346.908 -134.204)"/>
        <path id="패스_9885" data-name="패스 9885" class="cls-8" d="M356.12,179.435l-.335,1.438.033.037.589.65.9-.815.678.748-3.229,2.925-1.266-1.4a1.629,1.629,0,0,1-.1-2.464,1.415,1.415,0,0,1,1.621-.259l.381-1.665Zm-1.984,3.075.552.609,1.125-1.02-.552-.609c-.413-.457-.835-.5-1.186-.178S353.723,182.054,354.136,182.51Z" transform="translate(-345.168 -132.378)"/>
        <path id="패스_9886" data-name="패스 9886" class="cls-8" d="M349.242,173.8l-.468-.794,1.523-.9a3.012,3.012,0,0,1,1.373,1.236,2.258,2.258,0,1,1-3.891,2.276,2.322,2.322,0,0,1-.279-1.955l.844.254a1.476,1.476,0,0,0,.149,1.221,1.395,1.395,0,1,0,2.408-1.408,1.6,1.6,0,0,0-.56-.581Z" transform="translate(-343.478 -130.366)"/>
        <path id="패스_9887" data-name="패스 9887" class="cls-8" d="M346.5,166.75l1.457-.51.333.952-1.47.514-2.087,2.519-.354-1.011,1.444-1.739-2.213-.459-.328-.934Z" transform="translate(-342.211 -128.508)"/>
        <path id="패스_9888" data-name="패스 9888" class="cls-8" d="M343.237,152.478c.97-.039,1.6.663,1.65,1.826l.036.876,1.2-.049.042,1.007-4.352.177-.077-1.883C341.689,153.27,342.262,152.518,343.237,152.478Zm.042,1.02c-.479.019-.746.342-.721.957l.033.82,1.511-.062-.034-.82C344.044,153.778,343.751,153.478,343.28,153.5Z" transform="translate(-341.733 -124.313)"/>
        <path id="패스_9889" data-name="패스 9889" class="cls-8" d="M341.893,147.6l.142-1,3.5.5.308-2.163.813.116-.45,3.162Z" transform="translate(-341.782 -121.989)"/>
        <path id="패스_9890" data-name="패스 9890" class="cls-8" d="M345.639,139.984l-2.309-.8.331-.954,2.273.786c.784.271,1.225.041,1.425-.536s-.006-1.031-.789-1.3l-2.273-.786.325-.942,2.309.8a1.976,1.976,0,1,1-1.291,3.734Z" transform="translate(-342.225 -119.064)"/>
        <path id="패스_9891" data-name="패스 9891" class="cls-8" d="M350.39,132.84l-.484-.679a2.567,2.567,0,0,0,1.117-1.015c.3-.517.251-.827.019-.961-.7-.411-1.5,2.062-2.9,1.247-.641-.374-.873-1.2-.249-2.271a2.923,2.923,0,0,1,1.1-1.114l.5.655a2.46,2.46,0,0,0-.9.871c-.3.517-.223.829.014.967.694.4,1.49-2.065,2.874-1.26.63.367.865,1.2.237,2.279A3.106,3.106,0,0,1,350.39,132.84Z" transform="translate(-343.521 -116.781)"/>
      </g>
    </g>
  </g>
</svg>
