<svg xmlns="http://www.w3.org/2000/svg" width="72" height="15" viewBox="0 0 72 15">
  <defs>
    <style>
      .cls-1 {
        fill: #fff;
        stroke: #707070;
        opacity: 0;
      }

      .cls-2 {
        fill: #222;
      }

      .cls-3 {
        stroke: none;
      }

      .cls-4 {
        fill: none;
      }
    </style>
  </defs>
  <g id="gsnpoint" transform="translate(-3146.804 -367.095)">
    <g id="사각형_6084" data-name="사각형 6084" class="cls-1" transform="translate(3146.804 367.095)">
      <rect class="cls-3" width="72" height="15"/>
      <rect class="cls-4" x="0.5" y="0.5" width="71" height="14"/>
    </g>
    <g id="그룹_18194" data-name="그룹 18194" transform="translate(3179.051 368.665)">
      <path id="패스_12797" data-name="패스 12797" class="cls-2" d="M3276.216,370.084a3.75,3.75,0,0,0-2.613-.851h-2.94V380.1h1.738v-4.436h.852c2.531,0,3.928-1.172,3.928-3.294A2.956,2.956,0,0,0,3276.216,370.084Zm-3.815.511h.7c1.546,0,2.27.6,2.27,1.9,0,1.235-.732,1.811-2.307,1.811h-.666Z" transform="translate(-3270.663 -369.126)"/>
      <path id="패스_12798" data-name="패스 12798" class="cls-2" d="M3304.062,368.815c-2.911,0-4.514,2-4.514,5.648,0,3.352,1.68,5.437,4.379,5.437,2.908,0,4.512-2.008,4.512-5.648C3308.439,370.9,3306.763,368.815,3304.062,368.815Zm-.135,9.721c-2.387,0-2.571-3.117-2.571-4.073,0-2.765.961-4.285,2.706-4.285,2.389,0,2.572,3.117,2.572,4.074C3306.634,377.015,3305.673,378.536,3303.927,378.536Z" transform="translate(-3292.165 -368.815)"/>
      <path id="패스_12799" data-name="패스 12799" class="cls-2" d="M3342.409,369.232H3340.8V380.1h1.738V369.232Z" transform="translate(-3322.875 -369.126)"/>
      <path id="패스_12800" data-name="패스 12800" class="cls-2" d="M3363.757,369.233h-1.537v8.382c-.4-.8-4.211-8.382-4.211-8.382h-2.037V380.1h1.672v-8.326c.4.79,4.211,8.326,4.211,8.326h2.039V369.233Z" transform="translate(-3334.166 -369.126)"/>
      <path id="패스_12801" data-name="패스 12801" class="cls-2" d="M3398.411,369.233h-6.951v1.422h2.675V380.1h1.741v-9.449h2.672v-1.422Z" transform="translate(-3360.583 -369.126)"/>
    </g>
    <g id="그룹_18196" data-name="그룹 18196" transform="translate(3147.593 368.614)">
      <g id="그룹_18195" data-name="그룹 18195" transform="translate(0 0)">
        <path id="패스_12802" data-name="패스 12802" class="cls-2" d="M3152.913,379.813c-3.427,0-5.32-2.254-5.32-5.58,0-3.35,2.049-5.616,5.379-5.616a6.647,6.647,0,0,1,3.3.8l-.36,2.328a5.331,5.331,0,0,0-2.876-.92c-1.856,0-2.767,1.374-2.767,3.393s.943,3.454,2.8,3.454a2.869,2.869,0,0,0,1.453-.344V375.4h-1.876l-.317-1.987h4.524v5.252a7.09,7.09,0,0,1-3.941,1.143" transform="translate(-3147.593 -368.617)"/>
        <path id="패스_12803" data-name="패스 12803" class="cls-2" d="M3192.915,379.956a8.881,8.881,0,0,1-3.767-.812l.385-2.283a7.682,7.682,0,0,0,3.429,1c.767,0,1.293-.328,1.293-.968,0-.607-.312-.894-1.828-1.47-2.155-.83-3.093-1.531-3.093-3.318,0-2.081,1.625-3.188,3.687-3.188a6.914,6.914,0,0,1,3.261.721l-.415,2.25a5.889,5.889,0,0,0-2.813-.875c-.813,0-1.2.345-1.2.846,0,.546.3.814,1.642,1.331,2.346.856,3.287,1.672,3.287,3.392,0,2.345-1.723,3.376-3.868,3.376" transform="translate(-3178.526 -368.84)"/>
      </g>
    </g>
    <path id="패스_12804" data-name="패스 12804" class="cls-2" d="M3228.849,376.706c0-1.074.7-1.588,1.525-2.148l2.615,3.066a2.688,2.688,0,0,1-2.008,1.042A2.012,2.012,0,0,1,3228.849,376.706Zm5.681-2.911a5.2,5.2,0,0,1-.67,2.63l-2.211-2.522c1.152-.513,2.382-1.448,2.382-2.833a2.413,2.413,0,0,0-2.693-2.459c-1.557,0-2.833.809-2.833,2.552a3.818,3.818,0,0,0,1.121,2.475,3.289,3.289,0,0,0-2.428,3.175c0,1.82,1.354,3.035,3.5,3.035a3.762,3.762,0,0,0,3.113-1.246l.887,1.058h1.945l-1.9-2.147a7.22,7.22,0,0,0,1.245-3.72Zm-4.561-2.6a1.268,1.268,0,0,1,1.308-1.4,1.165,1.165,0,0,1,1.292,1.339c0,.918-.981,1.587-1.634,1.9A2.886,2.886,0,0,1,3229.969,371.2Z" transform="translate(-59.258 0)"/>
  </g>
</svg>
