<svg id="Ic_car_wash" xmlns="http://www.w3.org/2000/svg" width="32" height="32" viewBox="0 0 32 32">
  <g id="Box">
    <rect id="사각형_4080" data-name="사각형 4080" width="32" height="32" fill="none"/>
  </g>
  <g id="Shape">
    <g id="사각형_4047" data-name="사각형 4047" transform="translate(7 26)" fill="none" stroke="#0f1f2e" stroke-width="1">
      <path d="M0,0H6A0,0,0,0,1,6,0V1A3,3,0,0,1,3,4H3A3,3,0,0,1,0,1V0A0,0,0,0,1,0,0Z" stroke="none"/>
      <path d="M.667.5H5.333A.167.167,0,0,1,5.5.667V1A2.5,2.5,0,0,1,3,3.5H3A2.5,2.5,0,0,1,.5,1V.667A.167.167,0,0,1,.667.5Z" fill="none"/>
    </g>
    <g id="사각형_4048" data-name="사각형 4048" transform="translate(19 26)" fill="none" stroke="#0f1f2e" stroke-width="1">
      <path d="M0,0H6A0,0,0,0,1,6,0V1A3,3,0,0,1,3,4H3A3,3,0,0,1,0,1V0A0,0,0,0,1,0,0Z" stroke="none"/>
      <path d="M.667.5H5.333A.167.167,0,0,1,5.5.667V1A2.5,2.5,0,0,1,3,3.5H3A2.5,2.5,0,0,1,.5,1V.667A.167.167,0,0,1,.667.5Z" fill="none"/>
    </g>
    <g id="사각형_4044" data-name="사각형 4044" transform="translate(7 12)" fill="none" stroke="#0f1f2e" stroke-width="1">
      <path d="M6,0h6a6,6,0,0,1,6,6V8a0,0,0,0,1,0,0H0A0,0,0,0,1,0,8V6A6,6,0,0,1,6,0Z" stroke="none"/>
      <path d="M6,.5h6A5.5,5.5,0,0,1,17.5,6V7a.5.5,0,0,1-.5.5H1A.5.5,0,0,1,.5,7V6A5.5,5.5,0,0,1,6,.5Z" fill="none"/>
    </g>
    <g id="사각형_4050" data-name="사각형 4050" transform="translate(4 19)" fill="none" stroke="#0f1f2e" stroke-width="1">
      <rect width="24" height="8" rx="4" stroke="none"/>
      <rect x="0.5" y="0.5" width="23" height="7" rx="3.5" fill="none"/>
    </g>
    <rect id="사각형_4052" data-name="사각형 4052" width="12" height="1" rx="0.5" transform="translate(10 2)" fill="#0f1f2e"/>
    <rect id="사각형_4053" data-name="사각형 4053" width="1" height="2" rx="0.5" transform="translate(11.804 6.818)" fill="#0f1f2e"/>
    <rect id="사각형_4054" data-name="사각형 4054" width="1" height="2" rx="0.5" transform="translate(15.5 5.455)" fill="#0f1f2e"/>
    <rect id="사각형_4055" data-name="사각형 4055" width="1" height="2" rx="0.5" transform="translate(19.196 6.818)" fill="#0f1f2e"/>
    <g id="타원_1168" data-name="타원 1168" transform="translate(9 21)" fill="#3cdc87" stroke="#0f1f2e" stroke-width="1">
      <circle cx="2" cy="2" r="2" stroke="none"/>
      <circle cx="2" cy="2" r="1.5" fill="none"/>
    </g>
    <g id="타원_1169" data-name="타원 1169" transform="translate(19 21)" fill="#3cdc87" stroke="#0f1f2e" stroke-width="1">
      <circle cx="2" cy="2" r="2" stroke="none"/>
      <circle cx="2" cy="2" r="1.5" fill="none"/>
    </g>
  </g>
</svg>
