<svg id="Ic_Ev" xmlns="http://www.w3.org/2000/svg" xmlns:xlink="http://www.w3.org/1999/xlink" width="32" height="32" viewBox="0 0 32 32">
  <defs>
    <style>
      .cls-1 {
        fill: #fff;
        stroke: #707070;
      }

      .cls-2, .cls-3, .cls-6 {
        fill: none;
      }

      .cls-3 {
        stroke: #000;
      }

      .cls-4 {
        fill: #3ddb87;
      }

      .cls-5 {
        clip-path: url(#clip-path);
      }

      .cls-6 {
        stroke: #1a1311;
        stroke-miterlimit: 10;
      }

      .cls-7, .cls-8 {
        stroke: none;
      }

      .cls-8 {
        fill: #000;
      }
    </style>
    <clipPath id="clip-path">
      <path id="다각형_17" data-name="다각형 17" class="cls-1" d="M6,0l6,10H0Z"/>
    </clipPath>
  </defs>
  <g id="Box">
    <rect id="사각형_4080" data-name="사각형 4080" class="cls-2" width="32" height="32"/>
  </g>
  <path id="패스_8776" data-name="패스 8776" class="cls-3" d="M21.855,25.948a1.042,1.042,0,0,1-.354-.064,1,1,0,0,1-.632-1.1l.949-8.79H17a1,1,0,0,1-.812-1.582l9-12a1,1,0,0,1,1.794.778L26.217,10H31a1,1,0,0,1,.848,1.53L22.7,25.478a1,1,0,0,1-.848.47Z" transform="translate(-10 0.999)"/>
  <g id="합치기_190" data-name="합치기 190" class="cls-4" transform="translate(8797.5 8288)">
    <path class="cls-7" d="M -8773 -8260.5009765625 C -8773 -8260.5009765625 -8773.0009765625 -8260.5009765625 -8773.0009765625 -8260.5009765625 L -8773 -8262.0009765625 L -8773 -8262.5009765625 L -8773.5 -8262.5009765625 L -8774.5009765625 -8262.5009765625 L -8775.0009765625 -8262.5009765625 L -8775.5009765625 -8262.5009765625 L -8776.0009765625 -8262.5009765625 C -8776.2763671875 -8262.5009765625 -8776.5009765625 -8262.7255859375 -8776.5009765625 -8263.0009765625 L -8776.5009765625 -8267.0009765625 C -8776.5009765625 -8267.2763671875 -8776.2763671875 -8267.5009765625 -8776.0009765625 -8267.5009765625 L -8772 -8267.5009765625 C -8771.724609375 -8267.5009765625 -8771.5 -8267.2763671875 -8771.5 -8267.0009765625 L -8771.5 -8263.0009765625 C -8771.5 -8262.7255859375 -8771.724609375 -8262.5009765625 -8772 -8262.5009765625 L -8772.5 -8262.5009765625 L -8773 -8262.5009765625 L -8773 -8262.0009765625 L -8773 -8260.5009765625 Z"/>
    <path class="cls-8" d="M -8772 -8263.0009765625 L -8772 -8267.0009765625 L -8776.0009765625 -8267.0009765625 L -8776.0009765625 -8263.0009765625 L -8775.5009765625 -8263.0009765625 L -8774.5009765625 -8263.0009765625 L -8773.5 -8263.0009765625 L -8772.5 -8263.0009765625 L -8772 -8263.0009765625 M -8773 -8260.0009765625 C -8773.275390625 -8260.0009765625 -8773.5 -8260.2236328125 -8773.5 -8260.5009765625 L -8773.5 -8262.0009765625 L -8774.5009765625 -8262.0009765625 L -8774.5009765625 -8260.5009765625 C -8774.5009765625 -8260.2236328125 -8774.72265625 -8260.0009765625 -8775.0009765625 -8260.0009765625 C -8775.2763671875 -8260.0009765625 -8775.5009765625 -8260.2236328125 -8775.5009765625 -8260.5009765625 L -8775.5009765625 -8262.0009765625 L -8776.0009765625 -8262.0009765625 C -8776.5537109375 -8262.0009765625 -8777.0009765625 -8262.4482421875 -8777.0009765625 -8263.0009765625 L -8777.0009765625 -8267.0009765625 C -8777.0009765625 -8267.5517578125 -8776.5537109375 -8268.0009765625 -8776.0009765625 -8268.0009765625 L -8772 -8268.0009765625 C -8771.447265625 -8268.0009765625 -8771 -8267.5517578125 -8771 -8267.0009765625 L -8771 -8263.0009765625 C -8771 -8262.4482421875 -8771.447265625 -8262.0009765625 -8772 -8262.0009765625 L -8772.5 -8262.0009765625 L -8772.5 -8260.5009765625 C -8772.5 -8260.2236328125 -8772.72265625 -8260.0009765625 -8773 -8260.0009765625 Z"/>
  </g>
  <g id="마스크_그룹_104" data-name="마스크 그룹 104" class="cls-5" transform="translate(17 11)">
    <path id="패스_8780" data-name="패스 8780" class="cls-6" d="M24.609,27.959v-4.5c0-2.737-2.583-4.5-5-4.5-2.524,0-5,1.764-5,4.5V25.8" transform="translate(-18.108 -13.907)"/>
  </g>
</svg>
