<svg xmlns="http://www.w3.org/2000/svg" width="32" height="32" viewBox="0 0 32 32">
  <defs>
    <style>
      .cls-1, .cls-2 {
        fill: none;
      }

      .cls-3 {
        fill: #3ddb87;
      }

      .cls-4 {
        fill: #0f1f2e;
      }

      .cls-5, .cls-6 {
        stroke: none;
      }

      .cls-6 {
        fill: #0f1f2e;
      }
    </style>
  </defs>
  <g id="gas" transform="translate(-73 -293)">
    <g id="Box" transform="translate(73 293)">
      <rect id="사각형_4080" data-name="사각형 4080" class="cls-1" width="32" height="32"/>
    </g>
    <g id="합치기_45" data-name="합치기 45" class="cls-2" transform="translate(9042.395 -1931.003)">
      <path class="cls-5" d="M-8957.163,2249.927l-5.658-5.657a2,2,0,0,1,0-2.828l5.369-5.368-.127-.127a2,2,0,0,1,0-2.828l.706-.707a2,2,0,0,1,2.827,0l.966.965.589-.592a2.09,2.09,0,0,1,2.947.119l1.532,1.532a2.089,2.089,0,0,1,.119,2.947l-.59.587,1.817,1.818c.644.643.666,1.746.7,3.109s.148,1.438-.376,2.058c0,.018-.636.7-.87.949a1.7,1.7,0,0,1-1.186.522,1.191,1.191,0,0,1-.853-.337l-.625-.625-4.464,4.463a1.991,1.991,0,0,1-1.414.585A1.99,1.99,0,0,1-8957.163,2249.927Z"/>
      <path class="cls-6" d="M -8955.75 2249.5126953125 C -8955.482421875 2249.5126953125 -8955.2314453125 2249.408935546875 -8955.04296875 2249.219970703125 L -8950.5791015625 2244.7568359375 L -8949.8720703125 2244.0498046875 L -8949.1650390625 2244.75732421875 L -8948.5400390625 2245.3828125 C -8948.51171875 2245.410888671875 -8948.458984375 2245.427001953125 -8948.39453125 2245.427001953125 C -8948.2412109375 2245.427001953125 -8948.0673828125 2245.345947265625 -8947.927734375 2245.209716796875 C -8947.8828125 2245.16162109375 -8947.826171875 2245.100830078125 -8947.7626953125 2245.032958984375 C -8947.6181640625 2244.878173828125 -8947.349609375 2244.591064453125 -8947.208984375 2244.436279296875 L -8947.1025390625 2244.310546875 C -8946.98046875 2244.165771484375 -8946.9443359375 2244.1083984375 -8946.93359375 2244.08935546875 C -8946.919921875 2244.01220703125 -8946.9306640625 2243.760986328125 -8946.94140625 2243.517822265625 C -8946.9482421875 2243.3486328125 -8946.9560546875 2243.156982421875 -8946.962890625 2242.924072265625 L -8946.9638671875 2242.880615234375 C -8946.9921875 2241.791259765625 -8947.017578125 2240.850341796875 -8947.3720703125 2240.49560546875 L -8949.189453125 2238.677978515625 L -8949.8984375 2237.96923828125 L -8949.1875 2237.26220703125 L -8948.6005859375 2236.677978515625 C -8948.2109375 2236.286376953125 -8948.263671875 2235.598388671875 -8948.71875 2235.14404296875 L -8950.2509765625 2233.61181640625 C -8950.4912109375 2233.37158203125 -8950.810546875 2233.233642578125 -8951.1259765625 2233.233642578125 C -8951.3076171875 2233.233642578125 -8951.5693359375 2233.27880859375 -8951.7822265625 2233.4912109375 L -8952.37109375 2234.082763671875 L -8953.078125 2234.792724609375 L -8953.787109375 2234.08447265625 L -8954.75390625 2233.1181640625 C -8954.9423828125 2232.92919921875 -8955.193359375 2232.8251953125 -8955.458984375 2232.8251953125 C -8955.7255859375 2232.8251953125 -8955.9765625 2232.92919921875 -8956.166015625 2233.118896484375 L -8956.8740234375 2233.827880859375 C -8957.0625 2234.01513671875 -8957.166015625 2234.2646484375 -8957.1669921875 2234.531005859375 C -8957.1669921875 2234.798095703125 -8957.0625 2235.04931640625 -8956.87109375 2235.239990234375 L -8956.744140625 2235.3671875 L -8956.0390625 2236.07421875 L -8956.7451171875 2236.780517578125 L -8962.1142578125 2242.148681640625 C -8962.50390625 2242.53857421875 -8962.50390625 2243.173095703125 -8962.1142578125 2243.562744140625 L -8956.455078125 2249.220703125 C -8956.267578125 2249.408935546875 -8956.0166015625 2249.5126953125 -8955.75 2249.5126953125 M -8955.75 2250.5126953125 C -8956.26171875 2250.5126953125 -8956.7734375 2250.317626953125 -8957.1630859375 2249.92724609375 L -8962.8212890625 2244.269775390625 C -8963.6015625 2243.489013671875 -8963.6015625 2242.22265625 -8962.8212890625 2241.44189453125 L -8957.4521484375 2236.073486328125 L -8957.5791015625 2235.9462890625 C -8958.3623046875 2235.165771484375 -8958.3623046875 2233.89697265625 -8957.5791015625 2233.11865234375 L -8956.873046875 2232.412109375 C -8956.4833984375 2232.020751953125 -8955.9716796875 2231.824951171875 -8955.4599609375 2231.824951171875 C -8954.947265625 2231.824951171875 -8954.435546875 2232.020751953125 -8954.0458984375 2232.412109375 L -8953.080078125 2233.377197265625 L -8952.4912109375 2232.78564453125 C -8952.1201171875 2232.416259765625 -8951.6298828125 2232.233642578125 -8951.1259765625 2232.233642578125 C -8950.5654296875 2232.233642578125 -8949.9892578125 2232.45947265625 -8949.5439453125 2232.90478515625 L -8948.01171875 2234.436767578125 C -8947.1640625 2235.28271484375 -8947.1123046875 2236.600830078125 -8947.892578125 2237.3837890625 L -8948.482421875 2237.970947265625 L -8946.6650390625 2239.78857421875 C -8946.021484375 2240.431884765625 -8945.9990234375 2241.5341796875 -8945.962890625 2242.8974609375 C -8945.9267578125 2244.258544921875 -8945.814453125 2244.3349609375 -8946.3388671875 2244.955810546875 C -8946.333984375 2244.973876953125 -8946.974609375 2245.653076171875 -8947.208984375 2245.905029296875 C -8947.55078125 2246.249267578125 -8947.9873046875 2246.427001953125 -8948.39453125 2246.427001953125 C -8948.7158203125 2246.427001953125 -8949.0224609375 2246.314453125 -8949.2470703125 2246.089599609375 L -8949.8720703125 2245.464111328125 L -8954.3359375 2249.92724609375 C -8954.7255859375 2250.317626953125 -8955.2373046875 2250.5126953125 -8955.75 2250.5126953125 Z"/>
    </g>
    <g id="합치기_44" data-name="합치기 44" class="cls-2" transform="translate(9086.871 -1933.57)">
      <path class="cls-5" d="M-8994.932,2235.967l3.89-3.889a.993.993,0,0,1,.518-.275,1,1,0,0,1,.252-.032h5a1,1,0,0,1,1,1v1a1,1,0,0,1-1,1h-4.219l-3.318,3.318Z"/>
      <path class="cls-6" d="M -8992.8095703125 2236.67431640625 L -8990.1982421875 2234.063232421875 L -8989.9052734375 2233.770263671875 L -8989.4912109375 2233.770263671875 L -8985.2724609375 2233.770263671875 L -8985.2724609375 2232.77001953125 L -8990.2705078125 2232.76953125 L -8990.3017578125 2232.778076171875 L -8990.3349609375 2232.7841796875 L -8993.517578125 2235.966552734375 L -8992.8095703125 2236.67431640625 M -8992.8095703125 2238.088623046875 L -8994.931640625 2235.966552734375 L -8991.0419921875 2232.0771484375 C -8990.8955078125 2231.93017578125 -8990.7138671875 2231.838623046875 -8990.5244140625 2231.80224609375 C -8990.4443359375 2231.78125 -8990.359375 2231.77001953125 -8990.2724609375 2231.77001953125 L -8985.2724609375 2231.77001953125 C -8984.71875 2231.77001953125 -8984.2724609375 2232.21923828125 -8984.2724609375 2232.77001953125 L -8984.2724609375 2233.770263671875 C -8984.2724609375 2234.3232421875 -8984.71875 2234.770263671875 -8985.2724609375 2234.770263671875 L -8989.4912109375 2234.770263671875 L -8992.8095703125 2238.088623046875 Z"/>
    </g>
    <g id="패스_8380" data-name="패스 8380" class="cls-3" transform="translate(86.266 310.507) rotate(45)">
      <path class="cls-5" d="M 4.568358898162842 4.499999046325684 L 0.9093806743621826 4.499999046325684 C 1.448321461677551 3.987209558486938 3.740319728851318 1.804197192192078 4.502968788146973 1.041539192199707 C 4.718588829040527 0.8259292244911194 4.836488723754883 0.8149992227554321 4.857938766479492 0.8149992227554321 C 4.941299438476562 0.8149992227554321 5.038896083831787 0.9950934648513794 5.045648574829102 1.07759416103363 L 5.045648574829102 4.038678646087646 C 5.044669628143311 4.080427646636963 5.029500484466553 4.208137989044189 4.97075891494751 4.312889099121094 C 4.918878555297852 4.405409336090088 4.830498695373535 4.499999046325684 4.568358898162842 4.499999046325684 Z"/>
      <path class="cls-6" d="M 4.545648574829102 1.702131271362305 C 3.926719903945923 2.308272361755371 2.91791844367981 3.274874210357666 2.158554792404175 3.999999284744263 L 4.545648574829102 3.999999284744263 L 4.545648574829102 1.702131271362305 M 4.857936382293701 0.31500244140625 C 5.28660249710083 0.31500244140625 5.535820007324219 0.7865629196166992 5.545648574829102 1.065189123153687 L 5.545648574829102 4.039549350738525 C 5.545648574829102 4.039549350738525 5.554768562316895 4.999999046325684 4.568358421325684 4.999999046325684 L 0.8830986022949219 4.999999046325684 C 0.4944486618041992 4.999999046325684 0.2543888092041016 4.576019287109375 0.4543485641479492 4.242749214172363 C 0.4543485641479492 4.242749214172363 3.295968770980835 1.541439294815063 4.149418830871582 0.6879892349243164 C 4.420341014862061 0.4170665740966797 4.658571720123291 0.31500244140625 4.857936382293701 0.31500244140625 Z"/>
    </g>
    <rect id="사각형_4133" data-name="사각형 4133" width="5.5" height="1" rx="0.5" transform="translate(85.2 303.893) rotate(45)"/>
    <rect id="사각형_4134" data-name="사각형 4134" width="5.5" height="1" rx="0.5" transform="translate(89.357 309.893) rotate(45)"/>
    <rect id="사각형_6495" data-name="사각형 6495" class="cls-4" width="1" height="6" rx="0.5" transform="translate(81.193 314.079) rotate(45)"/>
    <rect id="사각형_6496" data-name="사각형 6496" class="cls-4" width="1" height="6" rx="0.5" transform="translate(79.792 312.679) rotate(45)"/>
  </g>
</svg>
