<svg xmlns="http://www.w3.org/2000/svg" width="32" height="32" viewBox="0 0 32 32">
    <defs>
        <style>
            .cls-1,.cls-2{fill:none}.cls-3,.cls-5,.cls-7{fill:#aeaeae}.cls-3{stroke:#aeaeae}.cls-6,.cls-7{stroke:none}
        </style>
    </defs>
    <g id="Ic_Oil_Disabled" transform="translate(-73 -293)">
        <g id="Box" transform="translate(73 293)">
            <path id="사각형_4080" d="M0 0H32V32H0z" class="cls-1"/>
        </g>
        <g id="그룹_14046" transform="translate(-424 -66)">
            <g id="그룹_14044" transform="translate(513.234 440.63)">
                <g id="합치기_45" class="cls-2">
                    <path d="M-8957.163 2249.927l-5.658-5.657a2 2 0 0 1 0-2.828l5.369-5.368-.127-.127a2 2 0 0 1 0-2.828l.706-.707a2 2 0 0 1 2.827 0l.966.965.589-.592a2.09 2.09 0 0 1 2.947.119l1.532 1.532a2.089 2.089 0 0 1 .119 2.947l-.59.587 1.817 1.818c.644.643.666 1.746.7 3.109s.148 1.438-.376 2.058c0 .018-.636.7-.87.949a1.7 1.7 0 0 1-1.186.522 1.191 1.191 0 0 1-.853-.337l-.625-.625-4.464 4.463a1.991 1.991 0 0 1-1.414.585 1.99 1.99 0 0 1-1.409-.585z" class="cls-6" transform="translate(8953.161 -2305.633)"/>
                    <path d="M-8955.75 2249.513c.268 0 .519-.104.707-.293l4.464-4.463.707-.707.707.707.625.626c.028.028.081.044.145.044.154 0 .328-.081.467-.217l.165-.177c.145-.155.413-.442.554-.597l.106-.125c.123-.145.159-.203.17-.222.013-.077.002-.328-.008-.571-.007-.17-.015-.361-.022-.594v-.043c-.03-1.09-.055-2.03-.41-2.385l-1.816-1.818-.71-.709.711-.707.587-.584c.39-.392.337-1.08-.118-1.534l-1.532-1.532c-.24-.24-.56-.378-.875-.378-.182 0-.443.045-.656.257l-.59.592-.706.71-.71-.709-.966-.966c-.188-.189-.44-.293-.705-.293-.267 0-.518.104-.707.294l-.708.709c-.189.187-.292.437-.293.703 0 .267.104.518.296.709l.127.127.705.707-.706.707-5.37 5.368c-.389.39-.389 1.024 0 1.414l5.66 5.658c.187.188.438.292.705.292m0 1c-.512 0-1.023-.195-1.413-.586l-5.658-5.657c-.78-.781-.78-2.047 0-2.828l5.369-5.369-.127-.127c-.783-.78-.783-2.049 0-2.827l.706-.707c.39-.391.901-.587 1.413-.587.513 0 1.024.196 1.414.587l.966.965.589-.591c.37-.37.861-.552 1.365-.552.56 0 1.137.225 1.582.67l1.532 1.533c.848.846.9 2.164.12 2.947l-.59.587 1.817 1.818c.644.643.666 1.745.702 3.108.036 1.362.149 1.438-.376 2.059.005.018-.636.697-.87.949-.342.344-.778.522-1.186.522-.32 0-.627-.113-.852-.337l-.625-.626-4.464 4.463c-.39.39-.901.586-1.414.586z" class="cls-7" transform="translate(8953.161 -2305.633)"/>
                </g>
                <g id="합치기_44" class="cls-2">
                    <path d="M-8994.932 2235.967l3.89-3.889a.993.993 0 0 1 .518-.275 1 1 0 0 1 .252-.032h5a1 1 0 0 1 1 1v1a1 1 0 0 1-1 1h-4.219l-3.318 3.318z" class="cls-6" transform="translate(8997.638 -2308.2)"/>
                    <path d="M-8992.81 2236.674l2.612-2.61.293-.294h4.633v-1h-4.999l-.03.008-.034.006-3.183 3.183.708.707m0 1.415l-2.122-2.122 3.89-3.89c.146-.147.328-.238.518-.275.08-.02.165-.032.252-.032h5c.553 0 1 .45 1 1v1c0 .553-.447 1-1 1h-4.22l-3.318 3.319z" class="cls-7" transform="translate(8997.638 -2308.2)"/>
                </g>
                <g id="그룹_14047">
                    <g id="사각형_4128" class="cls-3" transform="rotate(135 8.317 -32.43)">
                        <rect width="6" height="1" class="cls-6" rx=".5"/>
                        <rect width="5" x=".5" y=".5" class="cls-1"/>
                    </g>
                    <g id="사각형_4132" class="cls-3" transform="rotate(135 8.727 -31.44)">
                        <rect width="6" height="1" class="cls-6" rx=".5"/>
                        <rect width="5" x=".5" y=".5" class="cls-1"/>
                    </g>
                </g>
                <g id="패스_8380" fill="#3ddb87">
                    <path d="M4.568 4.5H.91c.54-.513 2.831-2.696 3.594-3.458.216-.216.333-.227.355-.227.083 0 .18.18.188.263v2.96c-.001.042-.016.17-.075.275-.052.092-.14.187-.403.187z" class="cls-6" transform="rotate(45 75.919 -35.645)"/>
                    <path d="M4.546 1.702C3.926 2.308 2.918 3.275 2.159 4h2.387V1.702M4.858.315c.429 0 .678.472.688.75V4.04s.009.96-.978.96H.883c-.389 0-.629-.424-.429-.757 0 0 2.842-2.702 3.695-3.555.271-.27.51-.373.709-.373z" class="cls-7" transform="rotate(45 75.919 -35.645)"/>
                </g>
            </g>
            <rect id="사각형_4133" width="5.5" height="1" class="cls-5" rx=".5" transform="rotate(45 -191.9 799.605)"/>
            <rect id="사각형_4134" width="5.5" height="1" class="cls-5" rx=".5" transform="rotate(45 -197.064 807.623)"/>
        </g>
    </g>
</svg>
