<svg xmlns="http://www.w3.org/2000/svg" width="32" height="32" viewBox="0 0 32 32">
    <defs>
        <style>
            .cls-2{fill:none;stroke:#0f1f2e;stroke-miterlimit:10}
        </style>
    </defs>
    <g id="Ic_Tool" transform="translate(-151 -553)">
        <g id="Box" transform="translate(151 553)">
            <path id="사각형_4080" fill="none" d="M0 0H32V32H0z"/>
        </g>
        <g id="Shape" transform="translate(162.938 581.36)">
            <path id="패스_6095" d="M10.478-8.78a3.979 3.979 0 0 1 4.862 2.893 4.105 4.105 0 0 1-.13 2.455l-2.06-1.7-1.85 1.878 1.684 2.085A3.967 3.967 0 0 1 7.831-3.5 4.1 4.1 0 0 1 7.7-5.966l-4.269-4.321-1.809-1.833-3.9-3.952a3.98 3.98 0 0 1-4.861-2.893 4.1 4.1 0 0 1 .135-2.465l2.059 1.707 1.858-1.886-1.687-2.086a3.966 3.966 0 0 1 5.142 2.337A4.1 4.1 0 0 1 .5-18.894z" class="cls-2" transform="translate(.005)"/>
            <path id="패스_6096" d="M4.716-13.038l4.409-4.468a1.155 1.155 0 0 1 .849-.34l.7.012a1.149 1.149 0 0 0 .843-.336l1.323-1.322.8-2.536-1.725-1.732-2.536.8-1.322 1.325a1.154 1.154 0 0 0-.335.843l.011.7a1.151 1.151 0 0 1-.336.843l-4.2 4.178" class="cls-2" transform="translate(1.689 .002)"/>
            <path id="패스_6096-2" d="M1.609-13.644l-4.015 3.99a1.2 1.2 0 0 0-1.7-.031L-7.063-6.7A1.2 1.2 0 0 0-7.029-5L-5.3-3.268a1.2 1.2 0 0 0 1.7.031l2.959-2.988a1.2 1.2 0 0 0-.031-1.7L3.5-12.137" class="cls-2" transform="translate(0 2.02)"/>
        </g>
    </g>
</svg>
