<svg xmlns="http://www.w3.org/2000/svg" width="24.122" height="24" viewBox="0 0 24.122 24">
  <defs>
    <style>
      .cls-1 {
        fill: #454545;
        opacity: 0;
      }

      .cls-2 {
        fill: none;
      }

      .cls-3, .cls-5 {
        fill: #0f1f2e;
      }

      .cls-4, .cls-5 {
        stroke: none;
      }
    </style>
  </defs>
  <g id="icon-gas2" transform="translate(-132 -744)">
    <rect id="사각형_4670" data-name="사각형 4670" class="cls-1" width="24" height="24" transform="translate(132 744)"/>
    <g id="합치기_61" data-name="합치기 61" class="cls-2" transform="translate(9081 3053)">
      <path class="cls-4" d="M-8946-2287a3,3,0,0,1-3-3v-15a3,3,0,0,1,3-3h10a3,3,0,0,1,3,3v15a3,3,0,0,1-3,3Zm-1-18v15a1,1,0,0,0,1,1h10a1,1,0,0,0,1-1v-15a1,1,0,0,0-1-1h-10A1,1,0,0,0-8947-2305Zm2,3a1,1,0,0,1-1-1,1,1,0,0,1,1-1h8a1,1,0,0,1,1,1,1,1,0,0,1-1,1Z"/>
      <path class="cls-5" d="M -8936.0009765625 -2287.000732421875 L -8946 -2287.000732421875 C -8947.6552734375 -2287.000732421875 -8949 -2288.345947265625 -8949 -2289.9990234375 L -8949 -2304.999267578125 C -8949 -2306.654541015625 -8947.6552734375 -2308 -8946 -2308 L -8936.0009765625 -2308 C -8934.345703125 -2308 -8933 -2306.654541015625 -8933 -2304.999267578125 L -8933 -2289.9990234375 C -8933 -2288.345947265625 -8934.345703125 -2287.000732421875 -8936.0009765625 -2287.000732421875 Z M -8946 -2306.0009765625 C -8946.5498046875 -2306.0009765625 -8946.9990234375 -2305.5517578125 -8946.9990234375 -2304.999267578125 L -8946.9990234375 -2289.9990234375 C -8946.9990234375 -2289.44873046875 -8946.5498046875 -2288.99951171875 -8946 -2288.99951171875 L -8936.0009765625 -2288.99951171875 C -8935.4482421875 -2288.99951171875 -8934.9990234375 -2289.44873046875 -8934.9990234375 -2289.9990234375 L -8934.9990234375 -2304.999267578125 C -8934.9990234375 -2305.5517578125 -8935.4482421875 -2306.0009765625 -8936.0009765625 -2306.0009765625 L -8946 -2306.0009765625 Z M -8937 -2302.0009765625 L -8945 -2302.0009765625 C -8945.552734375 -2302.0009765625 -8946 -2302.447998046875 -8946 -2303.00048828125 C -8946 -2303.552978515625 -8945.552734375 -2304 -8945 -2304 L -8937 -2304 C -8936.4482421875 -2304 -8936.0009765625 -2303.552978515625 -8936.0009765625 -2303.00048828125 C -8936.0009765625 -2302.447998046875 -8936.4482421875 -2302.0009765625 -8937 -2302.0009765625 Z"/>
    </g>
    <path id="교차_4" data-name="교차 4" class="cls-3" d="M-8580-2311v-3h2v3a1,1,0,0,0,1,1,1,1,0,0,0,1-1v-3h2v3a3,3,0,0,1-3,3A3.006,3.006,0,0,1-8580-2311Z" transform="translate(8730 3072)"/>
    <path id="교차_5" data-name="교차 5" class="cls-3" d="M-8580-2311v-3h2v3a1,1,0,0,0,1,1,1,1,0,0,0,1-1v-3h2v3a3,3,0,0,1-3,3A3.006,3.006,0,0,1-8580-2311Z" transform="translate(-8428.001 -1553.999) rotate(180)"/>
    <rect id="사각형_4610" data-name="사각형 4610" class="cls-3" width="2" height="7" rx="1" transform="translate(154 752)"/>
    <rect id="사각형_4611" data-name="사각형 4611" class="cls-3" width="2" height="5" rx="1" transform="translate(151.172 750.586) rotate(-45)"/>
  </g>
</svg>
