<svg xmlns="http://www.w3.org/2000/svg" width="20" height="20" viewBox="0 0 20 20">
    <defs>
        <style>
            .cls-1,.cls-3{fill:none}.cls-2{fill:#0f1f2e}.cls-3{stroke:#0f1f2e}.cls-4{stroke:none}
        </style>
    </defs>
    <g id="icon-close" transform="translate(-258 -713)">
        <path id="Box" d="M0 0H20V20H0z" class="cls-1" transform="translate(258 713)"/>
        <g id="Trash_icon" transform="translate(-131.095 -325)">
            <rect id="사각형_5208" width="1" height="6" class="cls-2" rx=".5" transform="translate(396.095 1047)"/>
            <rect id="사각형_5209" width="1" height="6" class="cls-2" rx=".5" transform="translate(398.595 1047)"/>
            <rect id="사각형_5210" width="1" height="6" class="cls-2" rx=".5" transform="translate(401.095 1047)"/>
            <g id="사각형_5211" class="cls-3">
                <path d="M0 0h12v11a2 2 0 0 1-2 2H2a2 2 0 0 1-2-2V0z" class="cls-4" transform="translate(393.095 1043)"/>
                <path d="M1 .5h10a.5.5 0 0 1 .5.5v10a1.5 1.5 0 0 1-1.5 1.5H2A1.5 1.5 0 0 1 .5 11V1A.5.5 0 0 1 1 .5z" class="cls-1" transform="translate(393.095 1043)"/>
            </g>
            <rect id="사각형_5212" width="14" height="1" class="cls-2" rx=".5" transform="translate(392.095 1043)"/>
            <g id="사각형_5213" class="cls-3" transform="translate(396.095 1040)">
                <path d="M1 0h4a1 1 0 0 1 1 1v3H0V1a1 1 0 0 1 1-1z" class="cls-4"/>
                <rect width="5" height="3" x=".5" y=".5" class="cls-1" rx=".5"/>
            </g>
        </g>
    </g>
</svg>
