<svg xmlns="http://www.w3.org/2000/svg" width="32" height="32" viewBox="0 0 32 32">
    <defs>
        <style>
            .cls-1{fill:#fff}.cls-6{fill:#222}.cls-5,.cls-6{stroke:none}
        </style>
    </defs>
    <g id="icon-point" transform="translate(-345 -401)">
        <g id="그룹_14061" transform="translate(-1)">
            <g id="합치기_47" class="cls-1">
                <path d="M16.858 17.5c-1.275 0-2.502-.268-3.648-.793l-.208-.096-.209.096c-1.146.525-2.374.792-3.649.792C4.378 17.5.501 13.686.501 9 .5 4.312 4.378.5 9.144.5c1.275 0 2.502.267 3.648.792l.209.096.208-.096C14.355.766 15.583.5 16.858.5 21.624.5 25.5 4.312 25.5 9c0 4.687-3.877 8.5-8.643 8.5z" class="cls-5" transform="translate(349 408)"/>
                <path d="M16.858 17C21.348 17 25 13.41 25 9c0-4.412-3.653-8-8.143-8-1.203 0-2.36.25-3.44.746L13 1.937l-.417-.191c-1.08-.496-2.238-.747-3.44-.747-4.49 0-8.143 3.589-8.143 8s3.653 8 8.143 8c1.203 0 2.36-.251 3.44-.747l.418-.191.417.191c1.08.496 2.237.747 3.439.747m0 1c-1.378 0-2.685-.3-3.856-.838-1.173.538-2.48.838-3.858.838-5.05 0-9.143-4.03-9.143-9s4.093-9 9.143-9c1.378 0 2.685.3 3.857.838 1.172-.538 2.479-.838 3.857-.838C21.908 0 26 4.03 26 9s-4.093 9-9.143 9z" class="cls-6" transform="translate(349 408)"/>
            </g>
            <g id="구성_요소_10_21" transform="translate(354 410)">
                <text id="P" fill="#222" font-family="Montserrat-Medium, Montserrat" font-size="11px" font-weight="500" transform="translate(4 11)">
                    <tspan x="-3.971" y="0">P</tspan>
                </text>
            </g>
            <g id="패스_8379" class="cls-1">
                <path d="M9 17.5C4.313 17.5.5 13.687.5 9 .5 4.313 4.313.5 9 .5c4.687 0 8.5 3.813 8.5 8.5 0 4.687-3.813 8.5-8.5 8.5z" class="cls-5" transform="translate(349 408)"/>
                <path d="M9 1C4.589 1 1 4.589 1 9s3.589 8 8 8 8-3.589 8-8-3.589-8-8-8m0-1c4.97 0 9 4.03 9 9s-4.03 9-9 9-9-4.03-9-9 4.03-9 9-9z" class="cls-6" transform="translate(349 408)"/>
            </g>
        </g>
        <g id="Box" transform="translate(345 401)">
            <path id="사각형_4080" fill="none" d="M0 0H32V32H0z"/>
        </g>
        <text id="P-2" fill="#222" font-family="Montserrat-Bold, Montserrat" font-size="11px" font-weight="700" transform="translate(357 421)">
            <tspan x="-4.026" y="0">P</tspan>
        </text>
    </g>
</svg>
