<svg xmlns="http://www.w3.org/2000/svg" width="32" height="32" viewBox="0 0 32 32">
  <defs>
    <style>
      .cls-1, .cls-3 {
        fill: none;
      }

      .cls-2 {
        fill: #fff;
      }

      .cls-4 {
        fill: #0f1f2e;
      }

      .cls-5, .cls-6 {
        stroke: none;
      }

      .cls-6 {
        fill: #0f1f2e;
      }
    </style>
  </defs>
  <g id="Ic_Notice_24" transform="translate(-253 -102.999)">
    <g id="Box" transform="translate(253 102.999)">
      <rect id="사각형_4080" data-name="사각형 4080" class="cls-1" width="32" height="32"/>
    </g>
    <g id="Shape" transform="translate(10 -649)">
      <g id="빼기_86" data-name="빼기 86" class="cls-2" transform="translate(10193 -2352)">
        <path class="cls-5" d="M-9932.016,3109.25h0a7.816,7.816,0,0,0-.983-.187c0-.021,0-.043,0-.064a1,1,0,0,0-1-1,1,1,0,0,0-1,1c0,.022,0,.043,0,.064a7.926,7.926,0,0,0-.986.186A1.65,1.65,0,0,1-9936,3109a2,2,0,0,1,2-2,2,2,0,0,1,2,2,1.972,1.972,0,0,1-.016.248Z"/>
        <path class="cls-6" d="M -9932.015625 3109.25 L -9932.0166015625 3109.249755859375 C -9932.337890625 3109.1669921875 -9932.66796875 3109.10400390625 -9933 3109.062744140625 C -9932.9990234375 3109.04150390625 -9932.998046875 3109.02001953125 -9932.998046875 3108.998291015625 C -9932.998046875 3108.446533203125 -9933.447265625 3107.997802734375 -9933.9990234375 3107.997802734375 C -9934.55078125 3107.997802734375 -9934.9990234375 3108.446533203125 -9934.9990234375 3108.998291015625 C -9934.9990234375 3109.02001953125 -9934.9990234375 3109.041259765625 -9934.9970703125 3109.062744140625 C -9935.3291015625 3109.10400390625 -9935.66015625 3109.166259765625 -9935.9833984375 3109.2490234375 C -9935.9951171875 3109.172607421875 -9936 3109.08935546875 -9936 3109.0009765625 C -9936 3107.8974609375 -9935.1025390625 3106.999755859375 -9933.9990234375 3106.999755859375 C -9932.896484375 3106.999755859375 -9932 3107.8974609375 -9932 3109.0009765625 C -9932 3109.08203125 -9932.0048828125 3109.1630859375 -9932.015625 3109.248779296875 L -9932.015625 3109.25 Z"/>
      </g>
      <g id="패스_12930" data-name="패스 12930" class="cls-3" transform="translate(256 775)">
        <path class="cls-5" d="M0,0H6V1A3,3,0,0,1,0,1Z"/>
        <path class="cls-6" d="M 1 1 C 1 2.102799892425537 1.897200107574463 3 3 3 C 4.102799892425537 3 5 2.102799892425537 5 1 L 1 1 M 0 0 L 6 0 L 6 1 C 6 2.65684986114502 4.65684986114502 4 3 4 C 1.34315013885498 4 0 2.65684986114502 0 1 L 0 0 Z"/>
      </g>
      <g id="합치기_54" data-name="합치기 54" class="cls-3" transform="translate(10158 -2369.001)">
        <path class="cls-5" d="M-9907,3145a2,2,0,0,1-2-2,2,2,0,0,1,2-2v-7a8,8,0,0,1,7.59-7.988c.135-.008.273-.012.41-.012s.276,0,.413.012A8,8,0,0,1-9891,3134v7h0a2,2,0,0,1,2,2,2,2,0,0,1-2,2Z"/>
        <path class="cls-6" d="M -9890.9990234375 3144.001220703125 C -9890.447265625 3144.001220703125 -9889.9990234375 3143.552734375 -9889.9990234375 3143.001708984375 C -9889.9990234375 3142.44921875 -9890.447265625 3141.999755859375 -9891.0009765625 3141.999755859375 L -9892.0009765625 3141.999755859375 L -9892.0009765625 3140.999755859375 L -9892.0009765625 3135.998779296875 L -9892.0009765625 3133.99951171875 C -9892.0009765625 3130.268798828125 -9894.9169921875 3127.19873046875 -9898.64453125 3127.01025390625 C -9898.77734375 3127.0029296875 -9898.89453125 3126.999267578125 -9899.001953125 3126.999267578125 C -9899.1083984375 3126.999267578125 -9899.2275390625 3127.0029296875 -9899.3564453125 3127.01025390625 L -9899.3583984375 3127.01025390625 L -9899.361328125 3127.010498046875 C -9903.0849609375 3127.198974609375 -9906.001953125 3130.268798828125 -9906.001953125 3133.99951171875 L -9906.001953125 3136.001220703125 L -9906.001953125 3141 L -9906.001953125 3141.998779296875 L -9907.0009765625 3142 C -9907.552734375 3142.000732421875 -9908.0009765625 3142.449951171875 -9908.0009765625 3143.001708984375 C -9908.0009765625 3143.552734375 -9907.5517578125 3144.001220703125 -9906.9990234375 3144.001220703125 L -9890.9990234375 3144.001220703125 M -9890.9990234375 3145.001220703125 L -9906.9990234375 3145.001220703125 C -9908.103515625 3145.001220703125 -9909.0009765625 3144.10595703125 -9909.0009765625 3143.001708984375 C -9909.0009765625 3141.89599609375 -9908.1044921875 3141.001220703125 -9907.001953125 3141 L -9907.001953125 3136.001220703125 L -9907.001953125 3133.99951171875 C -9907.001953125 3129.719482421875 -9903.63671875 3126.2255859375 -9899.412109375 3126.01171875 C -9899.27734375 3126.004150390625 -9899.138671875 3125.999267578125 -9899.001953125 3125.999267578125 C -9898.8623046875 3125.999267578125 -9898.7255859375 3126.004150390625 -9898.5888671875 3126.01171875 C -9894.361328125 3126.2255859375 -9891.0009765625 3129.719482421875 -9891.0009765625 3133.99951171875 L -9891.0009765625 3135.998779296875 L -9891.0009765625 3140.999755859375 L -9890.9990234375 3140.999755859375 C -9889.89453125 3140.999755859375 -9888.9990234375 3141.89501953125 -9888.9990234375 3143.001708984375 C -9888.9990234375 3144.10595703125 -9889.89453125 3145.001220703125 -9890.9990234375 3145.001220703125 Z"/>
      </g>
      <rect id="사각형_4551" data-name="사각형 4551" class="cls-4" width="14" height="1" transform="translate(252 772)"/>
      <rect id="사각형_4552" data-name="사각형 4552" class="cls-4" width="6" height="1" transform="translate(256 775)"/>
    </g>
  </g>
</svg>
