<svg xmlns="http://www.w3.org/2000/svg" width="24" height="24" viewBox="0 0 24 24">
    <g>
        <path fill="#fff" d="M0 0H24V24H0z" transform="translate(-256 -711) translate(256 711)"/>
        <path d="M-7104.294-839.846a1.04 1.04 0 0 1 .055-1.467l7.25-7.263-7.3-7.3a1 1 0 0 1 0-1.414 1 1 0 0 1 1.414 0l7.3 7.3 7.229-7.242a1.041 1.041 0 0 1 1.469-.055 1.042 1.042 0 0 1-.055 1.469l-7.229 7.242 7.284 7.283a1 1 0 0 1 0 1.414 1 1 0 0 1-1.414 0l-7.283-7.281-7.25 7.264a1.11 1.11 0 0 1-.783.332.964.964 0 0 1-.687-.282z" transform="translate(-256 -711) translate(7363.587 1571.586)"/>
    </g>
</svg>
