<svg xmlns="http://www.w3.org/2000/svg" width="24" height="24" viewBox="0 0 24 24">
    <defs>
        <style>
            .cls-1{fill:none}
        </style>
    </defs>
    <g id="Ic_Setting_24" transform="translate(-303 -106)">
        <g id="Box" transform="translate(299 102)">
            <path id="사각형_4080" d="M0 0H24V24H0z" class="cls-1" transform="translate(4 4)"/>
        </g>
        <g id="Shape" transform="translate(20 18)">
            <path id="패스_8387" fill="#0f1f2e" d="M13.12 24h-2.24a1.5 1.5 0 0 1-1.486-1.32l-.239-1.88a9.45 9.45 0 0 1-1.374-.569L6.287 21.4a1.492 1.492 0 0 1-1.987-.13l-1.573-1.575a1.488 1.488 0 0 1-.127-1.979l1.161-1.5a9.232 9.232 0 0 1-.561-1.369l-1.88-.239A1.5 1.5 0 0 1 0 13.12v-2.24a1.5 1.5 0 0 1 1.32-1.486l1.88-.239a9.45 9.45 0 0 1 .569-1.374L2.6 6.287A1.491 1.491 0 0 1 2.732 4.3l1.575-1.574A1.489 1.489 0 0 1 6.286 2.6L7.78 3.766A9.416 9.416 0 0 1 9.155 3.2l.239-1.88A1.5 1.5 0 0 1 10.88 0h2.24a1.5 1.5 0 0 1 1.486 1.32l.239 1.88a9.416 9.416 0 0 1 1.375.569L17.714 2.6a1.491 1.491 0 0 1 1.985.127l1.575 1.575a1.488 1.488 0 0 1 .126 1.983L20.235 7.78a9.232 9.232 0 0 1 .565 1.374l1.88.239A1.5 1.5 0 0 1 24 10.88v2.24a1.5 1.5 0 0 1-1.32 1.486l-1.876.239a9.45 9.45 0 0 1-.569 1.374l1.165 1.494a1.49 1.49 0 0 1-.127 1.985l-1.575 1.575a1.487 1.487 0 0 1-1.979.122l-1.5-1.161a9.232 9.232 0 0 1-1.374.569l-.239 1.88A1.5 1.5 0 0 1 13.12 24zm-5.39-4.86a.507.507 0 0 1 .244.063 8.393 8.393 0 0 0 1.774.736.5.5 0 0 1 .358.417l.28 2.2a.505.505 0 0 0 .494.444h2.24a.5.5 0 0 0 .493-.439l.281-2.2a.5.5 0 0 1 .358-.417 8.393 8.393 0 0 0 1.774-.736.5.5 0 0 1 .55.042l1.75 1.36a.492.492 0 0 0 .655-.034l1.585-1.585a.5.5 0 0 0 .039-.66l-1.36-1.75a.5.5 0 0 1-.042-.55 8.393 8.393 0 0 0 .736-1.774.5.5 0 0 1 .417-.358l2.2-.28A.507.507 0 0 0 23 13.12v-2.24a.5.5 0 0 0-.439-.493l-2.2-.281a.5.5 0 0 1-.417-.358 8.393 8.393 0 0 0-.744-1.774.5.5 0 0 1 .042-.55l1.36-1.75a.49.49 0 0 0-.033-.654l-1.581-1.585a.492.492 0 0 0-.66-.039l-1.75 1.36a.5.5 0 0 1-.551.042 8.359 8.359 0 0 0-1.774-.736.5.5 0 0 1-.358-.417l-.28-2.2A.507.507 0 0 0 13.12 1h-2.24a.5.5 0 0 0-.493.439l-.281 2.2a.5.5 0 0 1-.358.418 8.356 8.356 0 0 0-1.774.743.5.5 0 0 1-.551-.041L5.673 3.4a.49.49 0 0 0-.654.033L3.434 5.014a.5.5 0 0 0-.039.66l1.36 1.75a.5.5 0 0 1 .042.55 8.341 8.341 0 0 0-.736 1.774.5.5 0 0 1-.417.358l-2.2.28A.505.505 0 0 0 1 10.88v2.24a.5.5 0 0 0 .439.493l2.2.281a.5.5 0 0 1 .417.358 8.393 8.393 0 0 0 .744 1.774.5.5 0 0 1-.042.55l-1.36 1.75a.49.49 0 0 0 .033.654l1.585 1.585a.494.494 0 0 0 .66.039l1.75-1.36a.515.515 0 0 1 .308-.1z" transform="translate(283 88)"/>
            <g id="타원_1367" fill="none" stroke="#0f1f2e" transform="translate(290 95)">
                <circle cx="5" cy="5" r="5" stroke="none"/>
                <circle cx="5" cy="5" r="4.5" class="cls-1"/>
            </g>
        </g>
    </g>
</svg>
