<svg xmlns="http://www.w3.org/2000/svg" width="32" height="32" viewBox="0 0 32 32">
    <defs>
        <style>
            .cls-1{fill:none}.cls-5{stroke:none}
        </style>
    </defs>
    <g id="icon-location" transform="translate(-133 -664)">
        <path id="Box" d="M0 0H32V32H0z" class="cls-1" transform="translate(133 664)"/>
        <g id="Shape">
            <path id="패스_9014" fill="none" stroke="#0f1f2e" stroke-linecap="round" d="M17 1s3 .621 3 2.357S15.523 6.5 10 6.5 0 5.093 0 3.357 3 1 3 1" transform="translate(139 687)"/>
            <g id="패스_9004" fill="none">
                <path d="M16.18 27c-3.35-3.6-10-9-10-14a10 10 0 0 1 20 0c0 5-6.65 10.4-10 14z" class="cls-5" transform="translate(132.82 663)"/>
                <path fill="#0f1f2e" d="M16.18 25.553c.476-.487.992-.998 1.526-1.528 1.692-1.676 3.609-3.575 5.079-5.522 1.611-2.135 2.395-3.936 2.395-5.506 0-4.961-4.037-8.997-9-8.997s-9 4.036-9 8.997c0 1.57.784 3.371 2.395 5.506 1.47 1.947 3.387 3.846 5.079 5.522.534.53 1.05 1.04 1.526 1.528m0 1.447c-3.35-3.604-10-9-10-14.003C6.18 7.476 10.657 3 16.18 3s10 4.476 10 9.997c0 5.003-6.65 10.4-10 14.003z" transform="translate(132.82 663)"/>
            </g>
            <g id="타원_1453" fill="#3ddb87" stroke="#0f1f2e" transform="translate(145 672)">
                <circle cx="4" cy="4" r="4" class="cls-5"/>
                <circle cx="4" cy="4" r="3.5" class="cls-1"/>
            </g>
        </g>
    </g>
</svg>
