<svg xmlns="http://www.w3.org/2000/svg" width="24" height="24" viewBox="0 0 24 24">
  <defs>
    <style>
      .cls-1, .cls-3 {
        fill: none;
      }

      .cls-2, .cls-5 {
        fill: #fff;
      }

      .cls-2, .cls-3, .cls-4 {
        stroke: #a6acb2;
      }

      .cls-3 {
        stroke-miterlimit: 10;
      }

      .cls-4 {
        fill: #0f1f2e;
      }

      .cls-6, .cls-7 {
        stroke: none;
      }

      .cls-7 {
        fill: #a6acb2;
      }
    </style>
  </defs>
  <g id="icon-like" transform="translate(-168 -229)">
    <g id="Box" transform="translate(173.994 235)">
      <rect id="사각형_4080" data-name="사각형 4080" class="cls-1" width="24" height="24" transform="translate(-5.994 -6)"/>
    </g>
    <g id="Shape" transform="translate(53 -257)">
      <g id="사각형_4087" data-name="사각형 4087" class="cls-2" transform="translate(122 486)">
        <rect class="cls-6" width="13" height="21" rx="2"/>
        <rect class="cls-1" x="0.5" y="0.5" width="12" height="20" rx="1.5"/>
      </g>
      <g id="사각형_4092" data-name="사각형 4092" class="cls-2" transform="translate(124 489)">
        <rect class="cls-6" width="9" height="5" rx="1"/>
        <rect class="cls-1" x="0.5" y="0.5" width="8" height="4" rx="0.5"/>
      </g>
      <path id="패스_6079" data-name="패스 6079" class="cls-3" d="M14.609,23.908V12.758a1.445,1.445,0,0,1,1.5-1.35,1.425,1.425,0,0,1,1.5,1.35v.7" transform="translate(152.109 514.908) rotate(180)"/>
      <g id="사각형_4088" data-name="사각형 4088" class="cls-2" transform="translate(136 491)">
        <rect class="cls-6" width="3" height="4" rx="1"/>
        <rect class="cls-1" x="0.5" y="0.5" width="2" height="3" rx="0.5"/>
      </g>
      <g id="사각형_5194" data-name="사각형 5194" class="cls-4" transform="translate(136 489.5) rotate(-30)">
        <rect class="cls-6" width="1" height="3" rx="0.5"/>
        <rect class="cls-1" x="0.5" y="0.5" height="2"/>
      </g>
    </g>
    <g id="Fill" class="cls-5" transform="translate(168 241)">
      <path class="cls-6" d="M 6.5 11.30116653442383 L 1.383328557014465 6.304977893829346 C 0.2097063362598419 5.062428951263428 0.2118384093046188 3.046573162078857 1.38962996006012 1.806771516799927 C 1.944800019264221 1.22309148311615 2.716239929199219 0.8882015347480774 3.505939960479736 0.8882015347480774 C 4.295629978179932 0.8882015347480774 5.067070007324219 1.22309148311615 5.62244987487793 1.806991577148438 L 6.139029979705811 2.345971584320068 L 6.5 2.722601413726807 L 6.860970020294189 2.345971584320068 L 7.376229763031006 1.808371543884277 C 7.932050228118896 1.222251534461975 8.70221996307373 0.8872015476226807 9.491120338439941 0.8872015476226807 C 10.2837495803833 0.8874215483665466 11.05519008636475 1.222621560096741 11.61044025421143 1.806851506233215 C 12.788161277771 3.046573400497437 12.79029369354248 5.062428951263428 11.61667156219482 6.304977893829346 L 6.5 11.30116653442383 Z"/>
      <path class="cls-7" d="M 9.491049766540527 1.387201309204102 C 8.838779449462891 1.387201309204102 8.200870513916016 1.665411949157715 7.740890026092529 2.150491714477539 L 7.739049911499023 2.152421951293945 L 7.737209796905518 2.154351234436035 L 7.221950054168701 2.691951751708984 L 6.5 3.445201873779297 L 5.778049945831299 2.691951751708984 L 5.260159969329834 2.151591300964355 C 4.798709869384766 1.666441917419434 4.159330368041992 1.388201713562012 3.505940437316895 1.388201713562012 C 2.85254955291748 1.388201713562012 2.213159561157227 1.666441917419434 1.752129554748535 2.151151657104492 C 0.7566051483154297 3.199077606201172 0.752685546875 4.901610851287842 1.740311622619629 5.95473051071167 L 6.5 10.60234260559082 L 11.25968837738037 5.95473051071167 C 12.247314453125 4.901610851287842 12.24339485168457 3.199078559875488 11.24802017211914 2.151301383972168 C 10.78668022155762 1.665891647338867 10.14727973937988 1.387381553649902 9.494070053100586 1.387201309204102 L 9.491049766540527 1.387201309204102 M 9.491116523742676 0.3872003555297852 C 9.492084503173828 0.3872003555297852 9.49310302734375 0.3872003555297852 9.494070053100586 0.3872013092041016 C 10.42632007598877 0.3874616622924805 11.31941986083984 0.7748517990112305 11.97286987304688 1.462401390075684 C 13.34237957000732 2.904001235961914 13.34237957000732 5.214401721954346 11.97286987304688 6.656001567840576 L 6.5 12.00000190734863 L 1.027130126953125 6.656001567840576 C -0.3423795700073242 5.214401721954346 -0.3423795700073242 2.904001235961914 1.027130126953125 1.462401390075684 C 1.680740356445312 0.7752218246459961 2.573820114135742 0.3882017135620117 3.505940437316895 0.3882017135620117 C 4.438050270080566 0.3882017135620117 5.331130027770996 0.7752218246459961 5.984739780426025 1.462401390075684 L 6.5 2.000001907348633 L 7.015260219573975 1.462401390075684 C 7.66743278503418 0.7746562957763672 8.559695243835449 0.3871860504150391 9.491116523742676 0.3872003555297852 Z"/>
    </g>
  </g>
</svg>
