<svg xmlns="http://www.w3.org/2000/svg" xmlns:xlink="http://www.w3.org/1999/xlink" width="20" height="20" viewBox="0 0 20 20">
  <defs>
    <clipPath id="clip-icon-copy">
      <rect width="20" height="20"/>
    </clipPath>
  </defs>
  <g id="icon-copy" clip-path="url(#clip-icon-copy)">
    <g id="icon-copy-2" data-name="icon-copy" transform="translate(-194 -362)">
      <rect id="Box" width="20" height="20" transform="translate(194 362)" fill="none"/>
      <g id="Shape" transform="translate(-167.5 576) rotate(-90)">
        <g id="사각형_4738" data-name="사각형 4738" transform="translate(199 364)" fill="none" stroke="#0f1f2e" stroke-width="1">
          <rect width="13" height="13" rx="2" stroke="none"/>
          <rect x="0.5" y="0.5" width="12" height="12" rx="1.5" fill="none"/>
        </g>
        <g id="합치기_96" data-name="합치기 96" transform="translate(21370 9573.5)" fill="none">
          <path d="M-21165-9200.5v-2h-2a.5.5,0,0,1-.5-.5.5.5,0,0,1,.5-.5h2v-2a.5.5,0,0,1,.5-.5.5.5,0,0,1,.5.5v2h2a.5.5,0,0,1,.5.5.5.5,0,0,1-.5.5h-2v2a.5.5,0,0,1-.5.5A.5.5,0,0,1-21165-9200.5Z" stroke="none"/>
          <path d="M -21164.498046875 -9199.9990234375 C -21164.775390625 -9199.9990234375 -21164.998046875 -9200.2216796875 -21164.998046875 -9200.498046875 L -21164.998046875 -9202.5009765625 L -21167 -9202.5009765625 C -21167.27734375 -9202.5009765625 -21167.5 -9202.724609375 -21167.5 -9203 C -21167.5 -9203.2763671875 -21167.27734375 -9203.5 -21167 -9203.5 L -21164.998046875 -9203.5 L -21164.998046875 -9205.5029296875 C -21164.998046875 -9205.7783203125 -21164.775390625 -9206.001953125 -21164.498046875 -9206.001953125 C -21164.22265625 -9206.001953125 -21163.998046875 -9205.7783203125 -21163.998046875 -9205.5029296875 L -21163.998046875 -9203.5 L -21162.001953125 -9203.5 C -21161.724609375 -9203.5 -21161.501953125 -9203.2763671875 -21161.501953125 -9203 C -21161.501953125 -9202.724609375 -21161.724609375 -9202.5009765625 -21162.001953125 -9202.5009765625 L -21163.998046875 -9202.5009765625 L -21163.998046875 -9200.498046875 C -21163.998046875 -9200.2216796875 -21164.22265625 -9199.9990234375 -21164.498046875 -9199.9990234375 Z" stroke="none" fill="#0f1f2e"/>
        </g>
        <path id="패스_8985" data-name="패스 8985" d="M12,14H2a2,2,0,0,1-2-2V2" transform="translate(196.5 365.5)" fill="none" stroke="#0f1f2e" stroke-linecap="round" stroke-width="1"/>
      </g>
    </g>
  </g>
</svg>
