<svg xmlns="http://www.w3.org/2000/svg" width="20" height="20" viewBox="0 0 20 20">
    <g>
        <path fill="#fff" d="M0 0H20V20H0z" transform="translate(-54 -738) translate(54 738)"/>
        <g fill-rule="evenodd">
            <path fill="#3e82f1" d="M701.811 709.84a11.486 11.486 0 0 0-.182-2.045h-9.418v3.868h5.382a4.6 4.6 0 0 1-2 3.018v2.509h3.232a9.753 9.753 0 0 0 2.982-7.35z" transform="translate(-54 -738) translate(-532.062 117.055) translate(-96.149 -78.668)"/>
            <path fill="#32a753" d="M606.289 755.362a9.547 9.547 0 0 0 6.618-2.423l-3.232-2.509a6.033 6.033 0 0 1-8.982-3.168h-3.341v2.591a10 10 0 0 0 8.936 5.509z" transform="translate(-54 -738) translate(-532.062 117.055) translate(-10.227 -114.417)"/>
            <path fill="#f9bb00" d="M590.467 685.815a5.913 5.913 0 0 1 0-3.8v-2.591h-3.341a10.012 10.012 0 0 0 0 8.982l3.341-2.591z" transform="translate(-54 -738) translate(-532.062 117.055) translate(0 -52.97)"/>
            <path fill="#e74133" d="M606.289 624.922a5.4 5.4 0 0 1 3.823 1.5l2.868-2.868a9.61 9.61 0 0 0-6.691-2.6 10 10 0 0 0-8.936 5.509l3.341 2.591a5.96 5.96 0 0 1 5.6-4.123z" transform="translate(-54 -738) translate(-532.062 117.055) translate(-10.227)"/>
        </g>
    </g>
</svg>
