<svg xmlns="http://www.w3.org/2000/svg" width="20" height="20" viewBox="0 0 20 20">
    <defs>
        <style>
            .cls-1{fill:none}.cls-5{stroke:none}
        </style>
    </defs>
    <g id="Icon_fix" transform="translate(-218 -556)">
        <g id="Box" transform="translate(217.994 556)">
            <path id="사각형_4080" d="M0 0H20V20H0z" class="cls-1" transform="translate(.006)"/>
        </g>
        <g id="Shape" transform="translate(219.473 560.607)">
            <g id="사각형_4052" fill="#0f1f2e" stroke="#0f1f2e" transform="translate(.527 13.393)">
                <rect width="16" height="1" class="cls-5" rx=".5"/>
                <rect width="15" x=".5" y=".5" class="cls-1"/>
            </g>
            <g id="패스_8389" fill="none">
                <path d="M0 0h6v2.884l-3 3-3-3z" class="cls-5" transform="rotate(45 -2.872 7.934)"/>
                <path fill="#0f1f2e" d="M1 1v1.47l2 2 2-2V1H1M0 0h6v2.884l-3 3-3-3V0z" transform="rotate(45 -2.872 7.934)"/>
            </g>
            <g id="사각형_4581" fill="#fff" stroke="#0f1f2e">
                <path d="M3 0a3 3 0 0 1 3 3v10H0V3a3 3 0 0 1 3-3z" class="cls-5" transform="rotate(45 10.196 13.348)"/>
                <path d="M3 .5A2.5 2.5 0 0 1 5.5 3v9.436a.064.064 0 0 1-.064.064H.564a.064.064 0 0 1-.064-.064V3A2.5 2.5 0 0 1 3 .5z" class="cls-1" transform="rotate(45 10.196 13.348)"/>
            </g>
        </g>
    </g>
</svg>
