<svg xmlns="http://www.w3.org/2000/svg" width="24.021" height="24.193" viewBox="0 0 24.021 24.193">
    <g>
        <path fill="none" stroke="#9ea4aa" stroke-width="2px" d="M11.2 21.609v-5.833h4.667v5.833a1.17 1.17 0 0 0 1.167 1.167h3.5a1.17 1.17 0 0 0 1.166-1.167v-8.166h1.983a.579.579 0 0 0 .385-1.015l-9.753-8.785a1.176 1.176 0 0 0-1.563 0L3 12.428a.581.581 0 0 0 .385 1.015h1.981v8.167a1.17 1.17 0 0 0 1.167 1.167h3.5a1.17 1.17 0 0 0 1.167-1.168z" transform="translate(-2.979 2.729) translate(1.198 -4.979)"/>
    </g>
</svg>
