<svg xmlns="http://www.w3.org/2000/svg" width="30" height="30" viewBox="0 0 30 30">
  <defs>
    <style>
      .cls-1 {
        mix-blend-mode: darken;
        isolation: isolate;
      }

      .cls-2, .cls-3 {
        fill: #a6acb2;
      }

      .cls-2 {
        opacity: 0.329;
      }

      .cls-3 {
        opacity: 0.36;
      }

      .cls-4 {
        fill: #fff;
      }

      .cls-5 {
        opacity: 0.78;
      }

      .cls-6 {
        fill: #dbdee0;
      }
    </style>
  </defs>
  <g id="small" class="cls-1" transform="translate(196.151 212.771)">
    <path id="빼기_178" data-name="빼기 178" class="cls-2" d="M-4904.151-3185.772a14.9,14.9,0,0,1-10.606-4.393,14.9,14.9,0,0,1-4.394-10.606,14.9,14.9,0,0,1,4.394-10.607,14.9,14.9,0,0,1,10.606-4.394,14.9,14.9,0,0,1,10.607,4.394,14.9,14.9,0,0,1,4.393,10.607,14.9,14.9,0,0,1-4.393,10.606A14.9,14.9,0,0,1-4904.151-3185.772Zm0-28.528a13.441,13.441,0,0,0-9.567,3.962,13.438,13.438,0,0,0-3.962,9.566,13.439,13.439,0,0,0,3.962,9.566,13.441,13.441,0,0,0,9.567,3.962,13.443,13.443,0,0,0,9.566-3.962,13.441,13.441,0,0,0,3.962-9.566,13.44,13.44,0,0,0-3.962-9.566A13.442,13.442,0,0,0-4904.156-3214.3Z" transform="translate(4722.999 3003.001)"/>
    <circle id="타원_1879" data-name="타원 1879" class="cls-3" cx="10" cy="10" r="10" transform="translate(-191.151 -207.772)"/>
    <g id="Shape" transform="matrix(0.899, -0.438, 0.438, 0.899, -188.021, -197.977)">
      <path id="패스_309" data-name="패스 309" class="cls-4" d="M5.185,3.353H3.365V5.166a.126.126,0,0,1-.253,0V3.353H1.292a.126.126,0,1,1,0-.252h1.82V1.288a.126.126,0,0,1,.253,0V3.1h1.82a.126.126,0,1,1,0,.252M3.239,0A3.227,3.227,0,1,0,6.477,3.227,3.233,3.233,0,0,0,3.239,0" transform="translate(5.664 0)"/>
      <path id="패스_310" data-name="패스 310" class="cls-4" d="M1.284,2.539a2.075,2.075,0,0,1,3.909,0,.08.08,0,0,1-.076.107H1.36a.08.08,0,0,1-.076-.107m3.37,2.281a.053.053,0,0,0-.081-.014,2.076,2.076,0,0,1-3.289-.892.08.08,0,0,1,.076-.107H5.474a3.4,3.4,0,0,1,.457-2.369,3.228,3.228,0,1,0-.757,4.375.053.053,0,0,0,.014-.07Z" transform="translate(0 0)"/>
    </g>
    <g id="그룹_18994" data-name="그룹 18994" class="cls-5" transform="matrix(0.995, 0.105, -0.105, 0.995, -21.535, 17.882)">
      <path id="패스_9872" data-name="패스 9872" class="cls-6" d="M1.308,1.878l-.161.275L0,1.481.867,0,1.987.655,1.826.931,1.047.475.859.8l.687.4-.156.266L.7,1.063l-.2.343Z" transform="translate(-168.921 -196.346) rotate(72)"/>
      <path id="패스_9873" data-name="패스 9873" class="cls-6" d="M2.319,1.049,1.175,2.33.931,2.112.987.765l-.694.777L0,1.28,1.144,0l.245.219L1.331,1.565,2.026.787Z" transform="translate(-169.615 -194.293) rotate(72)"/>
      <path id="패스_9874" data-name="패스 9874" class="cls-6" d="M1.053,1.9.8,2.094,0,1.03,1.374,0l.778,1.038L1.9,1.229,1.356.507l-.3.224.478.638-.247.185L.81.916l-.318.238Z" transform="translate(-170.902 -192.076) rotate(72)"/>
      <path id="패스_9875" data-name="패스 9875" class="cls-6" d="M.477,1.733l.286-.507L.754,1.208.6.9l-.431.208L0,.748,1.545,0l.324.669a.642.642,0,0,1-.236.943A.558.558,0,0,1,.992,1.53l-.329.587ZM1.568.79,1.427.5.888.759l.141.292c.106.218.261.28.429.2S1.674,1.009,1.568.79Z" transform="translate(-172.408 -190.355) rotate(72)"/>
      <path id="패스_9876" data-name="패스 9876" class="cls-6" d="M1,1.252,1.09,1.6l-.675.17a1.181,1.181,0,0,1-.381-.62A.883.883,0,0,1,.666.029a.885.885,0,0,1,1.091.7.916.916,0,0,1-.112.769l-.291-.19A.579.579,0,0,0,1.434.83.529.529,0,0,0,.764.419a.53.53,0,0,0-.4.674.632.632,0,0,0,.147.282Z" transform="translate(-174.395 -188.624) rotate(72)"/>
      <path id="패스_9877" data-name="패스 9877" class="cls-6" d="M.628,1.117.02,1.148,0,.751.612.72,1.68,0,1.7.421l-.738.5.785.419.02.389Z" transform="translate(-176.441 -187.587) rotate(72)"/>
      <path id="패스_9878" data-name="패스 9878" class="cls-6" d="M.8,1.709C.428,1.617.266,1.281.376.836L.46.5,0,.386.1,0,1.763.413l-.179.722C1.474,1.581,1.174,1.8.8,1.709Zm.1-.39c.183.045.32-.047.378-.283L1.353.721.774.578.7.892C.638,1.128.716,1.274.9,1.319Z" transform="translate(-179.861 -186.717) rotate(72)"/>
      <path id="패스_9879" data-name="패스 9879" class="cls-6" d="M2.085.713l-.165.362L.652.5.295,1.28,0,1.145.523,0Z" transform="translate(-182.198 -187.056) rotate(72)"/>
      <path id="패스_9880" data-name="패스 9880" class="cls-6" d="M1.264.179l.782.557-.23.323L1.046.51C.78.321.588.359.449.554S.337.944.6,1.133l.77.549L1.145,2,.363,1.444A.71.71,0,0,1,.175.356.71.71,0,0,1,1.264.179Z" transform="translate(-184.339 -187.363) rotate(72)"/>
      <path id="패스_9881" data-name="패스 9881" class="cls-6" d="M.937,0l.108.31A1.012,1.012,0,0,0,.511.57C.34.732.325.855.4.931.619,1.164,1.191.317,1.63.78c.2.212.2.55-.157.886a1.149,1.149,0,0,1-.537.3l-.119-.3a.97.97,0,0,0,.438-.23c.171-.162.176-.289.1-.367-.218-.23-.792.616-1.226.158-.2-.208-.194-.55.162-.887A1.222,1.222,0,0,1,.937,0Z" transform="translate(-186.359 -188.302) rotate(72)"/>
      <path id="패스_9882" data-name="패스 9882" class="cls-6" d="M.306.309.382,0,1.671.32,1.258,1.985,0,1.672l.077-.309.875.217.09-.362L.269,1.027l.075-.3.773.192.1-.385Z" transform="translate(-192.556 -197.945) rotate(72)"/>
      <path id="패스_9883" data-name="패스 9883" class="cls-6" d="M0,1.551.739,0l.295.14.325,1.31L1.808.509l.354.169L1.423,2.229l-.3-.141L.8.778.355,1.72Z" transform="translate(-192.447 -200.573) rotate(72)"/>
      <path id="패스_9884" data-name="패스 9884" class="cls-6" d="M.813.255,1,0,2.068.8,1.038,2.171,0,1.393l.191-.255.722.542.224-.3L.5.9.685.655l.638.478L1.561.816Z" transform="translate(-191.897 -202.873) rotate(72)"/>
      <path id="패스_9885" data-name="패스 9885" class="cls-6" d="M1.279.316,1.147.883,1.16.9l.232.256L1.746.832l.267.295L.741,2.279l-.5-.55A.642.642,0,0,1,.2.758a.557.557,0,0,1,.639-.1L.992,0ZM.5,1.528l.217.24.443-.4L.94,1.126C.778.946.611.931.473,1.056S.334,1.348.5,1.528Z" transform="translate(-190.838 -204.834) rotate(72)"/>
      <path id="패스_9886" data-name="패스 9886" class="cls-6" d="M.729.667.544.354,1.144,0a1.187,1.187,0,0,1,.541.487A.884.884,0,0,1,1.4,1.745.886.886,0,0,1,.152,1.384a.915.915,0,0,1-.11-.77l.332.1a.581.581,0,0,0,.059.481.529.529,0,0,0,.759.2A.53.53,0,0,0,1.382.64.629.629,0,0,0,1.162.411Z" transform="translate(-189.609 -206.803) rotate(72)"/>
      <path id="패스_9887" data-name="패스 9887" class="cls-6" d="M1.268.263l.574-.2.131.375-.579.2-.822.992-.14-.4L1,.549.129.368,0,0Z" transform="translate(-188.393 -208.376) rotate(72)"/>
      <path id="패스_9888" data-name="패스 9888" class="cls-6" d="M.593,0c.382-.016.632.261.65.719l.014.345.472-.019.016.4-1.714.07L0,.77C-.017.313.208.016.593,0ZM.609.4C.42.41.316.537.325.779L.338,1.1l.6-.024L.92.755C.91.513.8.395.609.4Z" transform="translate(-184.998 -209.923) rotate(72)"/>
      <path id="패스_9889" data-name="패스 9889" class="cls-6" d="M0,1.05.056.656l1.379.2L1.556,0l.32.046L1.7,1.291Z" transform="translate(-183.031 -210.517) rotate(72)"/>
      <path id="패스_9890" data-name="패스 9890" class="cls-6" d="M.91,1.786,0,1.471.13,1.1l.9.31c.309.107.483.016.561-.211s0-.406-.311-.513l-.9-.31L.509,0l.91.314a.712.712,0,0,1,.488.992A.712.712,0,0,1,.91,1.786Z" transform="translate(-180.452 -210.943) rotate(72)"/>
      <path id="패스_9891" data-name="패스 9891" class="cls-6" d="M1.126,1.888.935,1.621a1.011,1.011,0,0,0,.44-.4c.119-.2.1-.326.008-.379C1.105.68.793,1.655.243,1.334-.01,1.186-.1.861.144.439A1.152,1.152,0,0,1,.576,0l.2.258A.969.969,0,0,0,.419.6C.3.8.331.928.424.982c.274.159.587-.814,1.132-.5.248.144.341.474.093.9A1.224,1.224,0,0,1,1.126,1.888Z" transform="translate(-178.179 -210.478) rotate(72)"/>
    </g>
  </g>
</svg>
