<svg xmlns="http://www.w3.org/2000/svg" xmlns:xlink="http://www.w3.org/1999/xlink" width="20" height="20" viewBox="0 0 20 20">
  <defs>
    <clipPath id="clip-icon-navi">
      <rect width="20" height="20"/>
    </clipPath>
  </defs>
  <g id="icon-navi" clip-path="url(#clip-icon-navi)">
    <rect id="사각형_4080" data-name="사각형 4080" width="20" height="20" fill="none"/>
    <g id="타원_1438" data-name="타원 1438" transform="translate(8 8)" fill="none" stroke="#0f1f2e" stroke-width="1">
      <circle cx="2" cy="2" r="2" stroke="none"/>
      <circle cx="2" cy="2" r="1.5" fill="none"/>
    </g>
    <g id="합치기_106" data-name="합치기 106" transform="translate(10814 6734)" fill="none">
      <path d="M-10804.5-6715.5v-1.516a7,7,0,0,1-6.481-6.484h-1.519a.5.5,0,0,1-.5-.5.5.5,0,0,1,.5-.5h1.519a7,7,0,0,1,6.481-6.481v-1.519a.5.5,0,0,1,.5-.5.5.5,0,0,1,.5.5v1.519a7,7,0,0,1,6.482,6.481h1.518a.5.5,0,0,1,.5.5.5.5,0,0,1-.5.5h-1.518a7,7,0,0,1-6.482,6.484v1.516a.5.5,0,0,1-.5.5A.5.5,0,0,1-10804.5-6715.5Z" stroke="none"/>
      <path d="M -10804.0009765625 -6717.98388671875 L -10803.5703125 -6718.01416015625 C -10802.1337890625 -6718.11572265625 -10800.7802734375 -6718.734375 -10799.7578125 -6719.75634765625 C -10798.7353515625 -6720.779296875 -10798.1162109375 -6722.1337890625 -10798.0146484375 -6723.5712890625 L -10797.984375 -6724.00048828125 L -10798.0146484375 -6724.42919921875 C -10798.1162109375 -6725.8662109375 -10798.7353515625 -6727.22021484375 -10799.7578125 -6728.2421875 C -10800.779296875 -6729.263671875 -10802.1337890625 -6729.88232421875 -10803.5703125 -6729.9833984375 L -10804.001953125 -6730.013671875 L -10804.4306640625 -6729.9833984375 C -10805.8671875 -6729.8818359375 -10807.2216796875 -6729.26318359375 -10808.2431640625 -6728.2412109375 C -10809.265625 -6727.2197265625 -10809.8837890625 -6725.86572265625 -10809.9853515625 -6724.42919921875 L -10810.0146484375 -6724.00048828125 L -10809.9853515625 -6723.5712890625 C -10809.8837890625 -6722.13427734375 -10809.265625 -6720.77978515625 -10808.2431640625 -6719.75732421875 C -10807.2216796875 -6718.73486328125 -10805.8671875 -6718.11572265625 -10804.4306640625 -6718.01416015625 L -10804.0009765625 -6717.98388671875 M -10803.9990234375 -6714.99853515625 C -10804.275390625 -6714.99853515625 -10804.5009765625 -6715.22412109375 -10804.5009765625 -6715.5009765625 L -10804.5009765625 -6717.0166015625 C -10807.96875 -6717.26220703125 -10810.73828125 -6720.03271484375 -10810.982421875 -6723.5009765625 L -10812.5009765625 -6723.5009765625 C -10812.775390625 -6723.5009765625 -10813 -6723.72314453125 -10813 -6724 C -10813 -6724.27685546875 -10812.775390625 -6724.49951171875 -10812.5009765625 -6724.49951171875 L -10810.982421875 -6724.49951171875 C -10810.73828125 -6727.96728515625 -10807.96875 -6730.7353515625 -10804.5009765625 -6730.98095703125 L -10804.5009765625 -6732.49951171875 C -10804.5009765625 -6732.7763671875 -10804.275390625 -6732.99853515625 -10803.9990234375 -6732.99853515625 C -10803.724609375 -6732.99853515625 -10803.5 -6732.7763671875 -10803.5 -6732.49951171875 L -10803.5 -6730.98095703125 C -10800.033203125 -6730.73681640625 -10797.2626953125 -6727.96826171875 -10797.017578125 -6724.49951171875 L -10795.5 -6724.49951171875 C -10795.22265625 -6724.49951171875 -10795 -6724.27685546875 -10795 -6724 C -10795 -6723.72314453125 -10795.22265625 -6723.5009765625 -10795.5 -6723.5009765625 L -10797.017578125 -6723.5009765625 C -10797.2626953125 -6720.03173828125 -10800.033203125 -6717.26123046875 -10803.5 -6717.0166015625 L -10803.5 -6715.5009765625 C -10803.5 -6715.22412109375 -10803.724609375 -6714.99853515625 -10803.9990234375 -6714.99853515625 Z" stroke="none" fill="#0f1f2e"/>
    </g>
    <g id="합치기_107" data-name="합치기 107" transform="translate(3 3)" fill="#fff">
      <path d="M 7.000200271606445 2.500600337982178 C 6.999760150909424 2.500600337982178 6.999560356140137 2.500570297241211 6.999550342559814 2.500570297241211 L 6.99970006942749 1.010488271713257 L 6.99970006942749 2.500200271606445 L 7.000200271606445 2.500600337982178 Z" stroke="none"/>
      <path d="M 7.000200271606445 14.00040054321289 C 6.831900119781494 14.00040054321289 6.665400505065918 13.99410057067871 6.499800205230713 13.98239994049072 L 6.499800205230713 11.50020027160645 C 6.499800205230713 11.22389984130859 6.723900318145752 10.99980068206787 7.000200271606445 10.99980068206787 C 7.276500225067139 10.99980068206787 7.49970006942749 11.22389984130859 7.49970006942749 11.50020027160645 L 7.49970006942749 13.98239994049072 C 7.335000038146973 13.99410057067871 7.168500423431396 14.00040054321289 7.000200271606445 14.00040054321289 Z M 13.98239994049072 7.49970006942749 L 11.50020027160645 7.49970006942749 C 11.22389984130859 7.49970006942749 10.99980068206787 7.276500225067139 10.99980068206787 7.000200271606445 C 10.99980068206787 6.723900318145752 11.22389984130859 6.499800205230713 11.50020027160645 6.499800205230713 L 13.98239994049072 6.499800205230713 C 13.99410057067871 6.665400505065918 14.00040054321289 6.831900119781494 14.00040054321289 7.000200271606445 C 14.00040054321289 7.168500423431396 13.99410057067871 7.335000038146973 13.98239994049072 7.49970006942749 Z M 2.500200271606445 7.49970006942749 L 0.01710027083754539 7.49970006942749 C 0.005400271620601416 7.335000038146973 2.716064386731887e-07 7.168500423431396 2.716064386731887e-07 7.000200271606445 C 2.716064386731887e-07 6.831900119781494 0.005400271620601416 6.665400505065918 0.01710027083754539 6.499800205230713 L 2.500200271606445 6.499800205230713 C 2.776500225067139 6.499800205230713 3.000600337982178 6.723900318145752 3.000600337982178 7.000200271606445 C 3.000600337982178 7.276500225067139 2.776500225067139 7.49970006942749 2.500200271606445 7.49970006942749 Z M 7.000200271606445 3.000600337982178 C 6.723900318145752 3.000600337982178 6.499800205230713 2.776500225067139 6.499800205230713 2.500200271606445 L 6.499800205230713 0.01710027083754539 C 6.665400505065918 0.005400271620601416 6.831900119781494 2.716064386731887e-07 7.000200271606445 2.716064386731887e-07 C 7.168500423431396 2.716064386731887e-07 7.335000038146973 0.005400271620601416 7.49970006942749 0.01710027083754539 L 7.49970006942749 2.500200271606445 C 7.49970006942749 2.776500225067139 7.276500225067139 3.000600337982178 7.000200271606445 3.000600337982178 Z" stroke="none" fill="#0f1f2e"/>
    </g>
  </g>
</svg>
