<svg xmlns="http://www.w3.org/2000/svg" xmlns:xlink="http://www.w3.org/1999/xlink" width="32" height="32" viewBox="0 0 32 32">
  <defs>
    <style>
      .cls-1, .cls-4 {
        fill: #fff;
      }

      .cls-1 {
        stroke: #3ddb87;
      }

      .cls-2 {
        fill: #f5f5f5;
      }

      .cls-3 {
        clip-path: url(#clip-path);
      }

      .cls-4, .cls-5 {
        fill-rule: evenodd;
      }
    </style>
    <clipPath id="clip-path">
      <rect id="ì‚¬ê°í˜•_5946" data-name="ì‚¬ê°í˜• 5946" class="cls-1" width="32" height="32" rx="16" transform="translate(2 -1.419)"/>
    </clipPath>
  </defs>
  <g id="me" transform="translate(-44 -588)">
    <circle id="íƒ€ì›_2051" data-name="íƒ€ì› 2051" class="cls-2" cx="16" cy="16" r="16" transform="translate(44 588)"/>
    <g id="ë§ˆìŠ¤í¬_ê·¸ë£¹_314" data-name="ë§ˆìŠ¤í¬ ê·¸ë£¹ 314" class="cls-3" transform="translate(42 589.419)">
      <g id="ê·¸ë£¹_18098" data-name="ê·¸ë£¹ 18098" transform="translate(3.242 0.255)">
        <g id="head_hat-beanie" data-name="head/hat-beanie" transform="translate(5.39)">
          <path id="Path" class="cls-4" d="M8.326,12.408a15.532,15.532,0,0,1,4.082.864h0a4.715,4.715,0,0,1,1.116.837l-.7,1.35.057.053c.272.257.5.491.688.676,1.5,1.507,1.766,7.425,1.413,9.488s-1.006,4.083-4.049,4.083A12.97,12.97,0,0,1,3.987,27.4a1.49,1.49,0,0,0-1.171-.538l-.053-.066L2.7,26.784a3.993,3.993,0,0,1-1.289-.345,3.973,3.973,0,0,1-1.065-2.1c0-.324-.832-2.681-.849-2.93v-.007c0-.208-1.087-1.167-1.087-1.471a2.36,2.36,0,0,1,0-1.358l.064-.315c.233-1.142.69-3.033,2.431-3.855A23.571,23.571,0,0,1,8.326,12.408Z" transform="translate(1.966 -12.107)"/>
          <path id="_-Ink" data-name="ðŸ–-Ink" class="cls-5" d="M-.6,13.036c.954-1,6.37-2.54,9.11-2.213l.082.01a4.913,4.913,0,0,1,.647.125,5.627,5.627,0,0,1,1.966.8c.474.327,1.97.861,1.529,1.717a1.25,1.25,0,0,1,.114.982,1.164,1.164,0,0,1-.088.3,8.737,8.737,0,0,1,.85,1.628,17.074,17.074,0,0,1,.67,4.206c.119,2.663-.178,5.845-2.533,7.567A4.234,4.234,0,0,1,6.5,27.929c-.091-.106-.518-.391-.375-.441q.064.066.13.129a.025.025,0,0,1,0-.014l-.042-.037c-.079-.072-.18-.175-.064-.155l.016.017a.571.571,0,0,1,.058.038l.007.006,0,0c-.067-.07-.107-.142-.007-.1l.013.006c.044.046.09.09.135.133a.025.025,0,0,1,0-.016l-.043-.041c-.042-.04-.035-.041-.015-.073-.089-.123.077-.05.089,0,.1-.024.195.168.262.191,2.931,2.219,7.185.25,7.117-5.934v-.121a14.072,14.072,0,0,0-1.02-5.8,5.122,5.122,0,0,0-.271-.5q-.1-.183-.221-.356a3.315,3.315,0,0,1-.653-.119c-.074-.018-.147-.039-.219-.062-1.065.057-2.106.119-3.174.178l-.334.02a4.626,4.626,0,0,0-2.57.7c-.716.5-.719,1.491-1.333,2.041-.874.584-.881,1.111-1.049,1.972.012.649.47,1.592-.369,1.866.142.2-.056.1-.071.034h0c.126.231-.059.085-.076.011a.072.072,0,0,1-.03-.02c.127.2-.078.061-.066.024a1.013,1.013,0,0,0-1.107-.331.019.019,0,0,1-.03.007c-1.514.323-1.124,3.41.428,3.112.066-.013.065.018.078.021-.036-.093.065-.055.064-.035h.006s0,0,.007,0c-.035-.19.16.085.145.1a.051.051,0,0,1,.019-.006l-.007-.018c-.032-.085-.03-.05-.029-.1-.024-.06-.026-.034-.02-.073.085-.065.111.133.139.147-.049-.067-.01-.122.036-.085a6.374,6.374,0,0,0,1.384,1.94c.064.05.128.1.2.144.248.213.629.35.861.538a.023.023,0,0,1,0,.011l.005,0h0l.005.005.081.038a.427.427,0,0,1,.064.067.439.439,0,0,1,.053.075c.008.033-.009.046-.041.032l-.042-.015,0,0c0,.007.035.077,0,.066l0,0-.058-.022c.023.028.043.058.061.083a.131.131,0,0,1,.036.07c0,.015-.009.021-.024.019l-.068-.023.006.012c.016.031.039.083,0,.066s-.068-.023-.1-.036c0,.005-.008.007-.019,0a2.055,2.055,0,0,1-.306-.136L3.877,27a1.989,1.989,0,0,1-.235-.162,5.078,5.078,0,0,1-1.287-1.174c-.582.5-1.745.022-2.465-.366a1.989,1.989,0,0,1-.951-1.681c-.134-.932-.908-1.251-.854-3.3h0A.407.407,0,0,1-2,20.289a.407.407,0,0,1-.075-.045L-2.1,20.2h0a.246.246,0,0,1-.039-.025l-.005.007c-.017.02-.006-.01,0-.016L-2.2,20.1c-.119-.16-.25-.34-.356-.484l0,.006s0,.008,0,.009a3.067,3.067,0,0,1-.558-1.211,2.1,2.1,0,0,1,.021-.955A10.224,10.224,0,0,1-.6,13.036ZM6.28,27.519l-.016-.014.014.017a.117.117,0,0,0,.027.025.021.021,0,0,1,0-.009ZM8.5,11.35a15.66,15.66,0,0,0-5.459.734l-.122.035A9.266,9.266,0,0,0,0,13.263a8.191,8.191,0,0,0-2.342,3.645,2.4,2.4,0,0,0,.477,2.769,11.064,11.064,0,0,1,.394-1.995c.041-.1.01-.136.1-.149C-1.244,19.3-1.9,20.6-.6,22.692c.562.987-.089,1.709,1.5,2.228l.043.016a1.9,1.9,0,0,0,1.016.151l-.029-.046c-.03-.048-.039-.071,0-.092l0-.007q-.052-.1-.1-.2l-.04.011c.009.016.01.032-.015.037a.7.7,0,0,1-.269.036h-.02a.92.92,0,0,1-.227-.042l-.058-.01a1.348,1.348,0,0,1-.516-.249c-1.468-.821-1.316-3.616.493-3.88a11.915,11.915,0,0,1,2.3-6.406c1.275-1.543,4.756-2.211,7.178-1.975l.106.035a10.236,10.236,0,0,1,1.1.273,3.388,3.388,0,0,0-.887-.442,6.468,6.468,0,0,0-2.034-.724A2.031,2.031,0,0,0,8.5,11.35ZM1.092,22.06c.1-.052.086,0,.109-.016a2.473,2.473,0,0,1,1.846,1.05c-.031.032-.114-.062-.129-.077l-.007,0,.011.015c.159.224-.156-.04-.185-.094a.024.024,0,0,1-.016,0c.025.024.1.087.114.131l.02.017c.19.16.174.281-.042.053a.034.034,0,0,1,0,.028l.007,0c.106.073.194.277-.028.068.023.153-.22-.143-.228-.14A3.286,3.286,0,0,0,1,22.423l-.018,0c-.1-.012-.143-.041-.109-.1-.119-.028-.091-.086-.035-.084-.084-.054-.008-.107.04-.086-.034-.091.1-.031.113-.043C1.062,22,1.081,22.087,1.092,22.06ZM-.375,16.39c.336-.121,1.329.242,1.25.722a.234.234,0,0,1-.313.111l-.143-.095c-.249-.164-.473-.308-.74-.451C-.467,16.607-.529,16.456-.375,16.39Zm1.912-.714-.13-.083c-.7-.451-1.691-1.136.065-.428.2.085.466.135.575.322C2.22,15.833,1.769,15.856,1.538,15.676Zm.079-2.026c-.056-.21.643.036.847.1l.031.012a1.085,1.085,0,0,1,.544.308c.139.233-.142.281-.316.176C2.365,14.017,1.974,13.844,1.616,13.65Zm1.779-.979c-.394-.423.66-.018.818.095l0,0a.182.182,0,0,1-.017.309C3.886,13.084,3.654,12.826,3.395,12.671Zm1.792-.464c-.626-.443.2-.232.485-.059C5.867,12.318,5.666,12.6,5.187,12.207Z" transform="translate(3.169 -10.779)"/>
        </g>
        <g id="variations" transform="translate(0 2.196)">
          <g id="images" transform="translate(0 0)">
            <g id="a-person_bust" data-name="a-person/bust">
              <g id="body_Device" data-name="body/Device" transform="translate(0 13.148)">
                <path id="_-Background" data-name="ðŸŽ¨-Background" class="cls-4" d="M37.866,5.332a1.5,1.5,0,0,1,.152-.96,19.421,19.421,0,0,1,1.253-3.185.456.456,0,0,0-.514-.659,10.176,10.176,0,0,1-2-.022c-.241-.614-.884-.869-1.391-1.223-.575-.353-1.133-.759-1.731-1.068a.35.35,0,0,0-.614-.156,10.446,10.446,0,0,0-1.979-.545,5.944,5.944,0,0,1-.66-2.366c-.057-.33,0-.648-.225-.942-.769-1.065-3.807-1.527-4.927-.9-.6-.37-.617.3-.713.714a1.3,1.3,0,0,0-.146.689c-.648,1.332-2.129,1.934-3.456,2.422a.42.42,0,0,0-.563-.007,8.821,8.821,0,0,0-3.23,1.355A4.369,4.369,0,0,0,14.7.617a.4.4,0,0,0-.058.293A15.8,15.8,0,0,0,12,9.34c-1.1.652.524,6.505.9,7.72h0c.246.428.525,1.65,1.139,1.556.422.47,1.094.377,1.666.413a2.032,2.032,0,0,0,.064,1.1.451.451,0,0,0,.866-.023c5.7,1.09,11.546.22,17.309.384,1.666.012,3.332.062,4.995.179a.454.454,0,0,0,.455-.449c-.357-3.744-.693-8.67-1.093-12.377A12.4,12.4,0,0,0,37.866,5.332Z" transform="translate(-11.62 6.975)"/>
                <path id="_-Ink-2" data-name="ðŸ–-Ink" class="cls-5" d="M23.4-4.2a.043.043,0,0,1,.084.011,3.881,3.881,0,0,1-1.1,3.05,5.014,5.014,0,0,1-1.553.724l-.06.022-.942.346c-.25.092-.519.233-.74.1.179.436.328.884.546,1.3a6.542,6.542,0,0,0,1,1.437,6.653,6.653,0,0,0,6.353,1.746,5.665,5.665,0,0,0,3.082-1.653A4.434,4.434,0,0,0,31.105.386a.2.2,0,0,1-.074,0,2.919,2.919,0,0,1-.824-.359L30.182.011a2.332,2.332,0,0,1-.666-.53,2.877,2.877,0,0,1-.353-.941,6.906,6.906,0,0,1-.087-1.084c0-.026.117-.041.129-.014.108.232.142.743.225.985l.017.048a2.225,2.225,0,0,0,.348.764,3.467,3.467,0,0,0,1.33.738.365.365,0,0,1,.727.029c0,.025,0,.049,0,.073.055.03.109.064.159.1l.049.033a6.6,6.6,0,0,0,.565.345c.379.2.781.363,1.169.547a5.973,5.973,0,0,1,1.1.673,5.655,5.655,0,0,1,.463.4l.04.039a1.741,1.741,0,0,1,.4.47c.018.04.105.132.153.135.738.048,1.475.115,2.209.216.19.026.265.123.195.278-.241.536-1.186,2.676-1.437,3.25.029.422-.01.919.016,1.341q.058.924.15,1.846c.217,2.2.547,4.383.844,6.57.149,1.095.285,2.191.419,3.287q.1.831.169,1.665.028.348.05.7l.013.206a1.019,1.019,0,0,1-.105.729.221.221,0,0,1-.339.043.655.655,0,0,1-.179-.441c-.009-.145-.011-.29-.018-.435q-.022-.471-.054-.943-.064-.942-.147-1.882c-.2-2.2-.572-4.378-.822-6.57q-.189-1.658-.262-3.323-.035-.832-.027-1.665c0-.207.012-.414.027-.62q-.561,1.254-1.178,2.481l-.1.194a16.724,16.724,0,0,1-.841,1.522l-.054.083c-.127.2-.3.51-.531.572a1.962,1.962,0,0,1-.523.01c-.164,0-.328,0-.492-.01a2.436,2.436,0,0,1-.536-.078.614.614,0,0,1-.083-.027,1.7,1.7,0,0,1-.793.635,5.509,5.509,0,0,1-.771.238l-.092.023c-.28.069-.6.1-.758.368l-.037.062a1.567,1.567,0,0,1-.424.51,2.334,2.334,0,0,1-.7.321c-.253.076-.511.134-.768.2l-.07.017c-.169.042-.34.08-.509.126-.072.019-.145.039-.215.063a.751.751,0,0,0-.208.119.5.5,0,0,1-.514.3.651.651,0,0,1-.293-.1c-.154.129-.323.245-.48.364q-.33.251-.662.5-.686.509-1.384,1-1.24.874-2.529,1.674c-.358.223-2.195,1.3-2.564,1.492l-.092.047c-.914.461-1.8.965-2.727,1.412a5.192,5.192,0,0,1-.84.329,3.955,3.955,0,0,1,.082.964c0,.306-.492.3-.482,0l.005-.147a3.681,3.681,0,0,1,.083-.745,3.676,3.676,0,0,1-1.968-.269,2.107,2.107,0,0,1-.493-.433,4.471,4.471,0,0,1-.69-1.146A13.764,13.764,0,0,1,10.544,17a18.589,18.589,0,0,1,.794-10.374,19.584,19.584,0,0,1,1.079-2.4l.051-.1a11.2,11.2,0,0,1,1.453-2.177A7.237,7.237,0,0,1,16.09.347a11.7,11.7,0,0,1,1.225-.526c.067-.025.135-.047.2-.068A2.852,2.852,0,0,1,19.01-.772a.128.128,0,0,1,.087.034.719.719,0,0,1,.077.017.145.145,0,0,1,.108.139l0,.021a.168.168,0,0,1-.007.03.32.32,0,0,1,.056.013c.506-.141,1-.356,1.5-.53l.112-.039a3.624,3.624,0,0,0,1.177-.565A2.97,2.97,0,0,0,22.89-2.69C23.116-3.175,23.217-3.7,23.4-4.2ZM34.569,13.138a.042.042,0,0,1,.079,0,6.674,6.674,0,0,1,.106,1.085l0,.04c.029.4.054.792.072,1.189q.052,1.169.122,2.338c.023.386.136,2.037.159,2.335.03.395.157,2.114.125,2.368a.128.128,0,0,1-.249.033,5.476,5.476,0,0,1-.2-1.142c-.043-.358-.07-.718-.1-1.077L34.68,20.2q-.1-1.185-.152-2.372t-.069-2.375c0-.36,0-.721.016-1.081l0-.108A6.279,6.279,0,0,1,34.569,13.138ZM18.916-.483c-.107.024-.214.044-.32.064-.406.214-.8.437-1.219.628-.445.2-.888.412-1.31.657a6.975,6.975,0,0,0-2.139,1.928,16.486,16.486,0,0,0-2.286,4.53,39.089,39.089,0,0,0-.938,4.91,37.759,37.759,0,0,0,.463,4.985l.031.126a13.426,13.426,0,0,0,.694,2.178,3.806,3.806,0,0,0,.589.951,2.731,2.731,0,0,0,.4.374,1.863,1.863,0,0,0,1.015.3,2.094,2.094,0,0,0,.861-.128,10.559,10.559,0,0,0,1.4-.659l.047-.024c.2-.1,3.8-2.1,5.089-2.9q1.241-.775,2.453-1.6.6-.411,1.2-.837.311-.223.619-.45c.086-.063.169-.129.255-.193l-.061-.077a3.418,3.418,0,0,1-.631-1.413,5.525,5.525,0,0,1-.1-.937l0-.136a3.227,3.227,0,0,1,.035-.69c-.058.032-.118.062-.177.1l-.639.355c-.427.236-.856.469-1.29.693-.775.4-1.558.781-2.363,1.122l-.391.166a20.784,20.784,0,0,1-2.07.784c-.4.121-2.1.5-2.285.539l-.354.066a5.074,5.074,0,0,0-1.446.529c-.157.085-.2-.08-.034-.194a5.281,5.281,0,0,1,1.638-.683l.029-.008c.215-.058.606-.351.608-.447.006-.213.025-.428.037-.641q.036-.672.091-1.341.021-.258.047-.517a2.013,2.013,0,0,0-.341-.18l-.022-.006c-.137-.036-.091-.21.031-.225a1,1,0,0,1,.328.016l.048.012c.02-.16.652.48.644.938s-.025.944-.047,1.416a4.383,4.383,0,0,1-.041.569,27.1,27.1,0,0,0,3.5-1.385q1.192-.575,2.362-1.195c.39-.207.783-.411,1.173-.619l.41-.219.2-.11a1.26,1.26,0,0,1,.574-.213.219.219,0,0,1,.168.075.7.7,0,0,1,.4-.134c.219-.3.441-.593.672-.882l.171-.214a5.649,5.649,0,0,1,.985-1.024,25.788,25.788,0,0,1,2.869-.979q.207-.048.416-.089a23.183,23.183,0,0,1,.882-2.31,15.694,15.694,0,0,1,.9-1.735.82.82,0,0,1,.654-.416,8.179,8.179,0,0,1,.923.018q.528.019,1.056.045c-.09-.093-.173-.2-.263-.286a5.42,5.42,0,0,0-.476-.418,5.96,5.96,0,0,0-1.071-.65A10.792,10.792,0,0,1,32.441.86a3.216,3.216,0,0,1-.608-.516,5.13,5.13,0,0,1-1.616,3.213,6.637,6.637,0,0,1-3.494,1.581,7.794,7.794,0,0,1-3.871-.308,14.965,14.965,0,0,1-2.861-1.982,3.984,3.984,0,0,1-1.11-3.074.046.046,0,0,1,.04-.034.353.353,0,0,1,.111-.2A1,1,0,0,0,18.916-.483ZM33.353,3.052c-.308.059-.433.433-.563.677-.306.576-.587,1.162-.87,1.749-.087.181-.632,1.326-.843,1.679.193-.036.387-.066.581-.09a1.574,1.574,0,0,1,.178-.574l.005-.013c.077-.195.159-.5.358-.6a.1.1,0,0,1,.142.08c.015.214-.2.46-.3.641q-.094.165-.184.332c-.022.042-.041.083-.064.12.1-.011.2-.02.3-.027l.066,0a2.036,2.036,0,0,1,1.108.15.632.632,0,0,1,.3.854c-.214.407-.686.461-1.1.494-.518.041-1.038.116-1.553.188-.532.075-1.034.268-1.558.368a.044.044,0,0,1-.034-.08A6.107,6.107,0,0,1,30.7,8.471l.037-.011a6.026,6.026,0,0,1,.756-.206q.378-.063.76-.1l.025,0c.28-.023.994-.015.963-.423-.02-.27-.466-.317-.669-.32a9.4,9.4,0,0,0-2.758.49l-.2.058c-.363.108-.726.218-1.083.344a2.56,2.56,0,0,0-1.015.67c-.326.338-.642.684-.98,1.01q-.32.309-.647.609a.658.658,0,0,0-.116.219,1.038,1.038,0,0,0-.018.442c.044.388.054.779.108,1.166a3.893,3.893,0,0,0,.273,1.061,1.955,1.955,0,0,0,.226.376l.071.092c.031.04.066.083.1.124a.249.249,0,0,1,.222-.1,1.446,1.446,0,0,0,.531-.027c.146-.034.29-.073.436-.109.285-.072.573-.137.855-.219l.049-.014a1.846,1.846,0,0,0,.6-.277c.2-.155.266-.379.416-.573.322-.414,1.016-.405,1.487-.518a2.137,2.137,0,0,0,1.061-.534l.016-.017a.121.121,0,0,1,.056-.135l.01-.006a.116.116,0,0,1,.059-.014,1.357,1.357,0,0,0,.073-.116c.019-.034.065-.009.059.024s-.009.039-.013.059a3.432,3.432,0,0,1,.835-.055h.353a1.519,1.519,0,0,0,.16-.007l.008,0c.022-.009-.009.006.006-.014l.05-.067c.059-.081.114-.164.168-.248a15.515,15.515,0,0,1-1.808.318,15.625,15.625,0,0,1-1.958.141.137.137,0,0,1,0-.274c.692-.026,1.381-.062,2.068-.149q.533-.068,1.062-.168.2-.038.407-.081l.1-.022a1.091,1.091,0,0,0,.331-.092l.052-.087c-.008-.1-.272-.089-.334-.089l-.527,0c-.351,0-.7,0-1.053,0-.7-.006-1.405-.03-2.106,0-.17.007-.259-.262-.091-.332a8.744,8.744,0,0,1,2.359-.476,10.072,10.072,0,0,0,1.241-.211l.1-.025a2.255,2.255,0,0,0,.754-.3,3.451,3.451,0,0,0-1.062-.133h-.026q-.705-.043-1.412-.044c-.964,0-1.928.032-2.891.077a.021.021,0,0,1-.006-.041,15.438,15.438,0,0,1,3.008-.331q.707-.011,1.415.02l.173.008a2.165,2.165,0,0,1,1.184.261A.181.181,0,0,1,35.1,9.2c.451-.885.867-1.789,1.285-2.686.325-.7.638-1.4.975-2.094l.109-.224c.146-.3.3-.6.462-.886-.621-.082-1.246-.139-1.871-.182C35.486,3.087,33.628,3,33.353,3.052ZM34.993,9.4a2.14,2.14,0,0,1-.961.473,8.484,8.484,0,0,1-1.214.242c-.4.055-.788.1-1.177.168.294,0,.589.006.882.011q.508.009,1.015.023a2.388,2.388,0,0,1,.77.064.441.441,0,0,1,.116.066Q34.72,9.929,34.993,9.4Zm-.9-5.494a2.521,2.521,0,0,1-.471,1.1.273.273,0,0,1-.46,0,.683.683,0,0,1,.064-.75l.038-.068a1.762,1.762,0,0,1,.249-.353l0-.011A.293.293,0,1,1,34.092,3.9ZM18.518,2.034Zm13.445-.282H32C32.273,1.758,31.814,1.752,31.964,1.752Z" transform="translate(-9.866 5.07)"/>
              </g>
              <g id="head_Short-3" data-name="head/Short-3" transform="translate(8.157)">
                <path id="_-Background-2" data-name="ðŸŽ¨-Background" class="cls-4" d="M25.3,34.4c-.239-1.7-.786-3.346-.864-5.07l-.14-2.212a.458.458,0,0,0-.857-.208c-.528-.576-1.472-.491-2.193-.474a10.977,10.977,0,0,0-9.73,6.911.373.373,0,0,0,.015.283c-.679,2.229,1.722,3.665,3.359,4.658a7.449,7.449,0,0,0,2.326,1.659,8.267,8.267,0,0,0,3.263.757.408.408,0,0,0,.411-.393c.357-.082.969.013,1.158-.348A5.428,5.428,0,0,0,25.3,34.4Z" transform="translate(-10.488 -24.211)"/>
                <path id="_-Ink-3" data-name="ðŸ–-Ink" class="cls-5" d="M22.39,15.734c-.006-.055.075-.057.091-.012.137.367.278.731.386,1.106s.179.733.256,1.1c.126.612.531,3.894.48,3.924-.013.289.058,1.905,0,2.191a4.922,4.922,0,0,1-1.836,2.8,5.955,5.955,0,0,1-3,1.222,5.548,5.548,0,0,1-1.6-.048l-.066-.012a2.589,2.589,0,0,1-1.423-.6c-.178-.192-.074-.613.241-.574a1.9,1.9,0,0,1,.47.108c.123.047.246.093.372.132a4.466,4.466,0,0,0,.741.164,5.028,5.028,0,0,0,1.58-.051,5.441,5.441,0,0,0,2.561-1.235,4,4,0,0,0,1.384-2.786,22.971,22.971,0,0,0-.183-3.692q-.093-.949-.235-1.894C22.513,16.965,22.458,16.352,22.39,15.734Zm-6.278-3.875h0a10.9,10.9,0,0,1,2.657-.213c1.3,0,1.291-.174,1.556,0,.189-.019.553.6.74.6.235,0,.672.488.7.722a.821.821,0,0,1,.554.267.513.513,0,0,1,.1.209,1.76,1.76,0,0,1,.395.144A.4.4,0,0,1,23,14.04q-.019.054-.043.106l-.012.026.007.01a.414.414,0,0,1-.15.563,1.447,1.447,0,0,1-.459.189c.013.064.026.128.035.193,0,.026-.03.045-.046.019a3.845,3.845,0,0,0,.145.373c.034.077-.075.145-.117.068-.111-.207-.18-.42-.281-.633a.8.8,0,0,1-.276-.067.3.3,0,0,1-.135-.123l0,.008a2.5,2.5,0,0,1-1.343.635,10.623,10.623,0,0,1-1.488.268c-.875.1-1.757.122-2.636.161l-.174.008a2.441,2.441,0,0,1-1.289.558,2.38,2.38,0,0,1-.79-.038.8.8,0,0,1-.353.207,1.578,1.578,0,0,1-.723,1.228l.007.029A1.063,1.063,0,0,1,12.607,19a.915.915,0,0,1-.165.1l.013.029a1.126,1.126,0,0,1-.109,1.308.34.34,0,0,1-.517-.058l-.005-.009-.019-.03a.092.092,0,0,1-.047.046c-.138.059-.194.015-.32-.045a1.985,1.985,0,0,0-.365-.131,2.141,2.141,0,0,0-.308-.056,1.617,1.617,0,0,0-.97,1.7,1.152,1.152,0,0,0,.641.922,1.034,1.034,0,0,0,.531.075c.239-.032.423-.18.67-.1a.229.229,0,0,1,.164.212.45.45,0,0,1-.148.374,5.679,5.679,0,0,1,.464.5c.188.2.379.4.583.578a5.167,5.167,0,0,0,.613.476l.023.015c.271.174.613.328.626.692a.308.308,0,0,1-.155.266c-.342.209-.714-.065-.982-.266q-.162-.121-.314-.251a.452.452,0,0,1-.218-.039,1.566,1.566,0,0,1-.144-.072.517.517,0,0,1-.418-.075c-.172.042-1.025-.713-1.18-.746a2.817,2.817,0,0,1-.656-.774l-.4-.869c-.471-.762-.9-.606-.9-2.436S10.72,18,10.765,17.58a5.492,5.492,0,0,1,.7-2.231c.34-.573.494-1.329,1.027-1.73A7.406,7.406,0,0,1,16.112,11.859Zm-5.967,9.652c-.138-.327.513-.33.685-.315h.005c.387.038.993.221,1.151.606.066.159-.129.332-.284.28a1.215,1.215,0,0,1-.359-.258c-.032-.025-.065-.049-.1-.072a.354.354,0,0,0,.086.147l.009.009c.187.166-.148.426-.272.207A.575.575,0,0,1,11,21.738a.417.417,0,0,1,.032-.109l-.037-.019-.022-.01c-.149-.067-.786-.328-.781-.094C10.188,21.532,10.154,21.532,10.146,21.511Z" transform="translate(-8.59 -11.57)"/>
              </g>
              <g id="face_Smiling" data-name="face/Smiling" transform="translate(14.97 5.552)">
                <path id="_-Ink-4" data-name="ðŸ–-Ink" class="cls-5" d="M14.084,17.4a1.549,1.549,0,0,1-.652-.494.293.293,0,0,1-.061-.23.332.332,0,0,1,.131-.208.318.318,0,0,1,.235-.063.3.3,0,0,1,.2.13l.012.016a1.023,1.023,0,0,0,.376.311.859.859,0,0,0,.466.081,1.255,1.255,0,0,0,.759-.428l.086-.088a.134.134,0,0,1,.071-.054.157.157,0,0,1,.175.059.139.139,0,0,1,.024.093.959.959,0,0,1-.323.609,1.4,1.4,0,0,1-1.5.267Zm.923-3.624c.288.172.726.574.417,1-.364.377-.889-.055-1.148-.25-.24-.151-.509.238-.287.415,1.868,1.362,2.626-1.12,1.163-1.368C14.992,13.547,14.932,13.724,15.007,13.777Zm-3.348-1.584c.032-.389.633-.477.693-.092a1.553,1.553,0,0,1-.167.971.3.3,0,0,1-.558-.112A3.085,3.085,0,0,1,11.659,12.193Zm4.575-.172a.323.323,0,0,1,.35-.14c.453.13.319.764.16,1.072a.318.318,0,0,1-.492.062.743.743,0,0,1-.043-.957A.325.325,0,0,1,16.235,12.021ZM12.05,10.229l.072-.012c.221-.038.5-.074.653.1a.252.252,0,0,1,0,.355c-.2.156-.413.1-.649.109a2.617,2.617,0,0,0-.567.1,3.876,3.876,0,0,0-1.094.557c-.046.03-.093-.028-.071-.07a2.246,2.246,0,0,1,.986-.9A2.463,2.463,0,0,1,12.05,10.229Z" transform="translate(-10.389 -9.415)"/>
                <path id="_-Ink-5" data-name="ðŸ–-Ink" class="cls-5" d="M.365.007.419.018A2.318,2.318,0,0,1,2.074.97c.011.082,0,.1-.009.11l0,0a.076.076,0,0,1-.049.034l-.03-.008A1.737,1.737,0,0,1,1.651.982L1.543.93A3,3,0,0,0,1.16.767,4.588,4.588,0,0,0,.286.573.364.364,0,0,1,.11.507a.262.262,0,0,1-.1-.148A.26.26,0,0,1,.041.139.279.279,0,0,1,.179.022.328.328,0,0,1,.365.007Z" transform="matrix(0.966, -0.259, 0.259, 0.966, 5.298, 0.538)"/>
              </g>
            </g>
          </g>
        </g>
      </g>
    </g>
  </g>
</svg>
