<svg xmlns="http://www.w3.org/2000/svg" width="20" height="20" viewBox="0 0 20 20">
    <g>
        <path fill="none" d="M0 0H20V20H0z" transform="translate(-209 -738) translate(209 738)"/>
        <g>
            <path d="M337.16 256.957a4.517 4.517 0 0 1 2.159-3.8 4.681 4.681 0 0 0-3.654-1.987c-1.559-.157-3.043.919-3.83.919s-2.01-.893-3.3-.868a4.9 4.9 0 0 0-4.139 2.5c-1.763 3.061-.453 7.6 1.269 10.078.839 1.215 1.839 2.579 3.153 2.531 1.269-.049 1.748-.819 3.279-.819s1.962.819 3.3.8c1.362-.028 2.227-1.243 3.058-2.458a11.088 11.088 0 0 0 1.386-2.847 4.412 4.412 0 0 1-2.681-4.049z" transform="translate(-209 -738) translate(-112.557 527.065) translate(0 -35.398)"/>
            <path d="M394.081 214.127a4.386 4.386 0 0 0 1.041-3.192 4.478 4.478 0 0 0-2.944 1.514 4.19 4.19 0 0 0-1.063 3.1 3.711 3.711 0 0 0 2.966-1.422z" transform="translate(-209 -738) translate(-112.557 527.065) translate(-59.441)"/>
        </g>
    </g>
</svg>
