<svg xmlns="http://www.w3.org/2000/svg" width="24" height="23.998" viewBox="0 0 24 23.998">
    <defs>
        <style>
            .cls-1{fill:none}.cls-2{stroke:none}
        </style>
    </defs>
    <g id="Ic_Phone_32" transform="translate(-4 -4)">
        <g id="Shape" transform="translate(4 4)">
            <g id="패스_8399" class="cls-1">
                <path d="M26.623 26.031a2.28 2.28 0 0 0 0-3.375l-2.723-2.72a2.277 2.277 0 0 0-1.677-.759 2.365 2.365 0 0 0-1.677.759l-1.572 1.57c-.131-.078-.262-.131-.393-.209-.183-.078-.341-.183-.5-.262a16.655 16.655 0 0 1-4.061-3.688 8.99 8.99 0 0 1-1.336-2.119c.393-.366.786-.759 1.153-1.125l.419-.419a2.448 2.448 0 0 0 .786-1.7 2.388 2.388 0 0 0-.786-1.7l-1.336-1.36c-.157-.157-.314-.314-.445-.471-.288-.314-.6-.628-.917-.916a2.337 2.337 0 0 0-1.65-.737 2.443 2.443 0 0 0-1.677.732l-1.7 1.7a3.58 3.58 0 0 0-1.074 2.276 9.109 9.109 0 0 0 .629 3.662 21.165 21.165 0 0 0 3.773 6.3 23.327 23.327 0 0 0 7.729 6.043 11.677 11.677 0 0 0 4.345 1.287h.314a3.692 3.692 0 0 0 2.83-1.229l.026-.026a9.2 9.2 0 0 1 .865-.889 4.918 4.918 0 0 0 .655-.625z" class="cls-2" transform="translate(-5.437 -4.806)"/>
                <path fill="#0f1f2e" d="M22.247 27.804c.845 0 1.548-.303 2.088-.9l.017-.02.014-.013c.258-.306.554-.609.926-.95l.03-.027.032-.025c.165-.128.326-.283.522-.503l.015-.017.016-.017c.612-.627.615-1.363.01-1.968l-2.726-2.72-.01-.01-.009-.01c-.28-.297-.6-.447-.95-.447-.335 0-.661.157-.971.466l-1.572 1.57-.552.55-.668-.4c-.033-.02-.078-.042-.13-.068-.058-.029-.128-.064-.204-.107-.136-.062-.253-.128-.35-.182-.052-.03-.101-.058-.14-.077l-.042-.021-.04-.025c-1.54-.961-2.95-2.239-4.307-3.905l-.003-.004-.003-.003c-.703-.877-1.158-1.603-1.476-2.354l-.273-.644.512-.478c.38-.354.76-.734 1.128-1.1l.284-.284.135-.135c.318-.317.493-.67.493-.993 0-.337-.161-.661-.493-.992l-.003-.004-.004-.003-1.332-1.357c-.164-.163-.333-.332-.487-.515-.264-.286-.554-.576-.841-.838l-.016-.015-.015-.015c-.201-.2-.528-.44-.944-.44-.412 0-.76.243-.981.45l-1.692 1.69c-.47.469-.726 1.008-.784 1.649-.085 1.194.26 2.36.572 3.243.748 2.038 1.892 3.945 3.6 6.002 2.06 2.454 4.55 4.4 7.4 5.785.939.458 2.367 1.077 3.942 1.18h.282m0 1h-.314c-1.703-.104-3.222-.732-4.35-1.281-2.96-1.439-5.553-3.453-7.728-6.043-1.781-2.145-2.986-4.16-3.772-6.304-.315-.89-.734-2.224-.63-3.663.08-.889.446-1.648 1.075-2.275l1.703-1.7c.498-.472 1.074-.733 1.677-.733.602 0 1.179.261 1.65.732.315.288.629.602.917.916.131.157.288.314.446.47l1.336 1.361c.524.523.786 1.099.786 1.7 0 .602-.289 1.204-.786 1.7l-.42.42c-.366.365-.76.758-1.152 1.124.288.68.707 1.334 1.336 2.119 1.257 1.543 2.594 2.773 4.06 3.688.158.079.315.184.499.262.13.079.262.13.392.21l1.572-1.57c.498-.497 1.075-.759 1.677-.759.629 0 1.205.262 1.677.759l2.725 2.72c.995.994.995 2.355 0 3.375-.21.235-.42.445-.655.628-.315.287-.603.575-.865.89l-.026.025c-.734.811-1.703 1.23-2.83 1.23z" transform="translate(-5.437 -4.806)"/>
            </g>
            <g id="패스_8400" class="cls-1">
                <path d="M18.4 9.974a.664.664 0 0 1 .81-.559 7.878 7.878 0 0 1 4.383 2.291 8.46 8.46 0 0 1 2.289 4.386.7.7 0 0 1-.558.81h-.112a.717.717 0 0 1-.7-.587 6.569 6.569 0 0 0-1.9-3.631 6.843 6.843 0 0 0-3.629-1.9.665.665 0 0 1-.583-.81zm10.15 6.688a12.122 12.122 0 0 0-3.35-6.481 11.921 11.921 0 0 0-6.477-3.352.664.664 0 0 1-.558-.81.676.676 0 0 1 .81-.559 13.371 13.371 0 0 1 10.943 10.95.7.7 0 0 1-.558.81h-.112a.668.668 0 0 1-.698-.558z" class="cls-2" transform="translate(-5.925 -5.444)"/>
                <path fill="#3ddb87" d="M18.825 5.444c.049 0 .099.006.15.016 2.707.447 5.22 1.732 7.202 3.716 1.982 1.983 3.294 4.497 3.74 7.235.056.39-.195.754-.558.81h-.111l-.051.002c-.315 0-.594-.243-.647-.56-.42-2.459-1.592-4.694-3.35-6.482-1.787-1.787-4.02-2.933-6.477-3.352-.39-.056-.642-.419-.558-.81.073-.34.336-.575.66-.575zm.23 3.955c.05 0 .1.006.151.016 1.675.28 3.182 1.062 4.383 2.291 1.2 1.23 1.982 2.738 2.289 4.386.056.39-.195.754-.558.81h-.112c-.335 0-.642-.252-.698-.587-.223-1.369-.893-2.654-1.898-3.631-1.005-1.006-2.261-1.648-3.63-1.9-.418-.056-.67-.419-.586-.81.049-.34.33-.575.66-.575z" transform="translate(-5.925 -5.444)"/>
            </g>
        </g>
    </g>
</svg>
