<svg xmlns="http://www.w3.org/2000/svg" width="17" height="17" viewBox="0 0 17 17">
    <defs>
        <clipPath id="1szy84hq2a">
            <path data-name="사각형 7198" style="fill:none" d="M0 0h17v17H0z"/>
        </clipPath>
    </defs>
    <g data-name="그룹 20386" style="clip-path:url(#1szy84hq2a)">
        <path data-name="패스 19604" d="M8.5 17A8.5 8.5 0 1 0 0 8.5 8.5 8.5 0 0 0 8.5 17" transform="translate(0 -.001)" style="fill:#3cdc87"/>
        <path data-name="패스 19605" d="M3.539 1.592 1.4 3.728a.112.112 0 0 0 .078.193H8.32a.116.116 0 0 1 .114.114v6.839a.112.112 0 0 0 .193.078l2.136-2.136a.2.2 0 0 0 .06-.146V1.644a.111.111 0 0 0-.112-.112H3.685a.2.2 0 0 0-.146.06" transform="translate(2.193 2.454)" style="fill:#fff"/>
        <path data-name="패스 19606" d="m5.185 5.728-1.5-2.68a.118.118 0 0 0-.208 0l-1.508 2.68a1.885 1.885 0 0 0 1.608 2.831 1.885 1.885 0 0 0 1.608-2.831" transform="translate(2.746 4.782)" style="fill:#fff"/>
    </g>
</svg>
