<svg xmlns="http://www.w3.org/2000/svg" width="24" height="24" viewBox="0 0 24 24">
    <g>
        <path fill="none" d="M0 0H24V24H0z" transform="translate(-7 -66) rotate(180 15.5 45)"/>
        <path fill="#fff" d="M-5149.352 20.342l-7.778-7.778-7.778 7.778a1 1 0 0 1-1.413 0 1 1 0 0 1 0-1.415l7.777-7.777-7.779-7.779a1 1 0 0 1 0-1.415 1 1 0 0 1 1.415 0l7.779 7.779 7.779-7.779a1 1 0 0 1 1.414 0 1 1 0 0 1 0 1.415l-7.778 7.778 7.778 7.778a1 1 0 0 1 0 1.415 1 1 0 0 1-.708.293 1 1 0 0 1-.708-.293z" transform="translate(-7 -66) translate(5176.131 66.836)"/>
    </g>
</svg>
