<svg xmlns="http://www.w3.org/2000/svg" xmlns:xlink="http://www.w3.org/1999/xlink" width="32" height="32" viewBox="0 0 32 32">
  <defs>
    <style>
      .cls-1 {
        fill: #f5f5f5;
      }

      .cls-2 {
        clip-path: url(#clip-path);
      }

      .cls-3 {
        fill: #fff;
      }

      .cls-3, .cls-4 {
        fill-rule: evenodd;
      }
    </style>
    <clipPath id="clip-path">
      <path id="íŒ¨ìŠ¤_12780" data-name="íŒ¨ìŠ¤ 12780" class="cls-1" d="M16,0A16,16,0,1,1,0,16,16,16,0,0,1,16,0Z" transform="translate(96.779 581.427)"/>
    </clipPath>
  </defs>
  <g id="friend" transform="translate(-96 -588)">
    <circle id="íƒ€ì›_2052" data-name="íƒ€ì› 2052" class="cls-1" cx="16" cy="16" r="16" transform="translate(96 588)"/>
    <g id="ë§ˆìŠ¤í¬_ê·¸ë£¹_320" data-name="ë§ˆìŠ¤í¬ ê·¸ë£¹ 320" class="cls-2" transform="translate(-0.779 6.573)">
      <g id="ê·¸ë£¹_18134" data-name="ê·¸ë£¹ 18134" transform="translate(4.269 -1)">
        <g id="variations" transform="translate(92.779 597.728)">
          <g id="images">
            <g id="a-person_bust" data-name="a-person/bust">
              <g id="body_Device" data-name="body/Device">
                <path id="_-Background" data-name="ðŸŽ¨-Background" class="cls-3" d="M37.866,5.332a1.5,1.5,0,0,1,.152-.96,19.421,19.421,0,0,1,1.253-3.185.456.456,0,0,0-.514-.659,10.176,10.176,0,0,1-2-.022c-.241-.614-.884-.869-1.391-1.223-.575-.353-1.133-.759-1.731-1.068a.35.35,0,0,0-.614-.156,10.446,10.446,0,0,0-1.979-.545,5.944,5.944,0,0,1-.66-2.366c-.057-.33,0-.648-.225-.942-.769-1.065-3.807-1.527-4.927-.9-.6-.37-.617.3-.713.714a1.3,1.3,0,0,0-.146.689c-.648,1.332-2.129,1.934-3.456,2.422a.42.42,0,0,0-.563-.007,8.821,8.821,0,0,0-3.23,1.355A4.369,4.369,0,0,0,14.7.617a.4.4,0,0,0-.058.293A15.8,15.8,0,0,0,12,9.34c-1.1.652.524,6.505.9,7.72h0c.246.428.525,1.65,1.139,1.556.422.47,1.094.377,1.666.413a2.032,2.032,0,0,0,.064,1.1.451.451,0,0,0,.866-.023c5.7,1.09,11.546.22,17.309.384,1.666.012,3.332.062,4.995.179a.454.454,0,0,0,.455-.449c-.357-3.744-.693-8.67-1.093-12.377A12.4,12.4,0,0,0,37.866,5.332Z" transform="translate(-11.62 6.975)"/>
                <path id="_-Ink" data-name="ðŸ–-Ink" class="cls-4" d="M23.4-4.2a.043.043,0,0,1,.084.011,3.881,3.881,0,0,1-1.1,3.05,5.014,5.014,0,0,1-1.553.724l-.06.022-.942.346c-.25.092-.519.233-.74.1.179.436.328.884.546,1.3a6.542,6.542,0,0,0,1,1.437,6.653,6.653,0,0,0,6.353,1.746,5.665,5.665,0,0,0,3.082-1.653A4.434,4.434,0,0,0,31.105.386a.2.2,0,0,1-.074,0,2.919,2.919,0,0,1-.824-.359L30.182.011a2.332,2.332,0,0,1-.666-.53,2.877,2.877,0,0,1-.353-.941,6.906,6.906,0,0,1-.087-1.084c0-.026.117-.041.129-.014.108.232.142.743.225.985l.017.048a2.225,2.225,0,0,0,.348.764,3.467,3.467,0,0,0,1.33.738.365.365,0,0,1,.727.029c0,.025,0,.049,0,.073.055.03.109.064.159.1l.049.033a6.6,6.6,0,0,0,.565.345c.379.2.781.363,1.169.547a5.973,5.973,0,0,1,1.1.673,5.655,5.655,0,0,1,.463.4l.04.039a1.741,1.741,0,0,1,.4.47c.018.04.105.132.153.135.738.048,1.475.115,2.209.216.19.026.265.123.195.278-.241.536-1.186,2.676-1.437,3.25.029.422-.01.919.016,1.341q.058.924.15,1.846c.217,2.2.547,4.383.844,6.57.149,1.095.285,2.191.419,3.287q.1.831.169,1.665.028.348.05.7l.013.206a1.019,1.019,0,0,1-.105.729.221.221,0,0,1-.339.043.655.655,0,0,1-.179-.441c-.009-.145-.011-.29-.018-.435q-.022-.471-.054-.943-.064-.942-.147-1.882c-.2-2.2-.572-4.378-.822-6.57q-.189-1.658-.262-3.323-.035-.832-.027-1.665c0-.207.012-.414.027-.62q-.561,1.254-1.178,2.481l-.1.194a16.724,16.724,0,0,1-.841,1.522l-.054.083c-.127.2-.3.51-.531.572a1.962,1.962,0,0,1-.523.01c-.164,0-.328,0-.492-.01a2.436,2.436,0,0,1-.536-.078.614.614,0,0,1-.083-.027,1.7,1.7,0,0,1-.793.635,5.509,5.509,0,0,1-.771.238l-.092.023c-.28.069-.6.1-.758.368l-.037.062a1.567,1.567,0,0,1-.424.51,2.334,2.334,0,0,1-.7.321c-.253.076-.511.134-.768.2l-.07.017c-.169.042-.34.08-.509.126-.072.019-.145.039-.215.063a.751.751,0,0,0-.208.119.5.5,0,0,1-.514.3.651.651,0,0,1-.293-.1c-.154.129-.323.245-.48.364q-.33.251-.662.5-.686.509-1.384,1-1.24.874-2.529,1.674c-.358.223-2.195,1.3-2.564,1.492l-.092.047c-.914.461-1.8.965-2.727,1.412a5.192,5.192,0,0,1-.84.329,3.955,3.955,0,0,1,.082.964c0,.306-.492.3-.482,0l.005-.147a3.681,3.681,0,0,1,.083-.745,3.676,3.676,0,0,1-1.968-.269,2.107,2.107,0,0,1-.493-.433,4.471,4.471,0,0,1-.69-1.146A13.764,13.764,0,0,1,10.544,17a18.589,18.589,0,0,1,.794-10.374,19.584,19.584,0,0,1,1.079-2.4l.051-.1a11.2,11.2,0,0,1,1.453-2.177A7.237,7.237,0,0,1,16.09.347a11.7,11.7,0,0,1,1.225-.526c.067-.025.135-.047.2-.068A2.852,2.852,0,0,1,19.01-.772a.128.128,0,0,1,.087.034.719.719,0,0,1,.077.017.145.145,0,0,1,.108.139l0,.021a.168.168,0,0,1-.007.03.32.32,0,0,1,.056.013c.506-.141,1-.356,1.5-.53l.112-.039a3.624,3.624,0,0,0,1.177-.565A2.97,2.97,0,0,0,22.89-2.69C23.116-3.175,23.217-3.7,23.4-4.2ZM34.569,13.138a.042.042,0,0,1,.079,0,6.674,6.674,0,0,1,.106,1.085l0,.04c.029.4.054.792.072,1.189q.052,1.169.122,2.338c.023.386.136,2.037.159,2.335.03.395.157,2.114.125,2.368a.128.128,0,0,1-.249.033,5.476,5.476,0,0,1-.2-1.142c-.043-.358-.07-.718-.1-1.077L34.68,20.2q-.1-1.185-.152-2.372t-.069-2.375c0-.36,0-.721.016-1.081l0-.108A6.279,6.279,0,0,1,34.569,13.138ZM18.916-.483c-.107.024-.214.044-.32.064-.406.214-.8.437-1.219.628-.445.2-.888.412-1.31.657a6.975,6.975,0,0,0-2.139,1.928,16.486,16.486,0,0,0-2.286,4.53,39.089,39.089,0,0,0-.938,4.91,37.759,37.759,0,0,0,.463,4.985l.031.126a13.426,13.426,0,0,0,.694,2.178,3.806,3.806,0,0,0,.589.951,2.731,2.731,0,0,0,.4.374,1.863,1.863,0,0,0,1.015.3,2.094,2.094,0,0,0,.861-.128,10.559,10.559,0,0,0,1.4-.659l.047-.024c.2-.1,3.8-2.1,5.089-2.9q1.241-.775,2.453-1.6.6-.411,1.2-.837.311-.223.619-.45c.086-.063.169-.129.255-.193l-.061-.077a3.418,3.418,0,0,1-.631-1.413,5.525,5.525,0,0,1-.1-.937l0-.136a3.227,3.227,0,0,1,.035-.69c-.058.032-.118.062-.177.1l-.639.355c-.427.236-.856.469-1.29.693-.775.4-1.558.781-2.363,1.122l-.391.166a20.784,20.784,0,0,1-2.07.784c-.4.121-2.1.5-2.285.539l-.354.066a5.074,5.074,0,0,0-1.446.529c-.157.085-.2-.08-.034-.194a5.281,5.281,0,0,1,1.638-.683l.029-.008c.215-.058.606-.351.608-.447.006-.213.025-.428.037-.641q.036-.672.091-1.341.021-.258.047-.517a2.013,2.013,0,0,0-.341-.18l-.022-.006c-.137-.036-.091-.21.031-.225a1,1,0,0,1,.328.016l.048.012c.02-.16.652.48.644.938s-.025.944-.047,1.416a4.383,4.383,0,0,1-.041.569,27.1,27.1,0,0,0,3.5-1.385q1.192-.575,2.362-1.195c.39-.207.783-.411,1.173-.619l.41-.219.2-.11a1.26,1.26,0,0,1,.574-.213.219.219,0,0,1,.168.075.7.7,0,0,1,.4-.134c.219-.3.441-.593.672-.882l.171-.214a5.649,5.649,0,0,1,.985-1.024,25.788,25.788,0,0,1,2.869-.979q.207-.048.416-.089a23.183,23.183,0,0,1,.882-2.31,15.694,15.694,0,0,1,.9-1.735.82.82,0,0,1,.654-.416,8.179,8.179,0,0,1,.923.018q.528.019,1.056.045c-.09-.093-.173-.2-.263-.286a5.42,5.42,0,0,0-.476-.418,5.96,5.96,0,0,0-1.071-.65A10.792,10.792,0,0,1,32.441.86a3.216,3.216,0,0,1-.608-.516,5.13,5.13,0,0,1-1.616,3.213,6.637,6.637,0,0,1-3.494,1.581,7.794,7.794,0,0,1-3.871-.308,14.965,14.965,0,0,1-2.861-1.982,3.984,3.984,0,0,1-1.11-3.074.046.046,0,0,1,.04-.034.353.353,0,0,1,.111-.2A1,1,0,0,0,18.916-.483ZM33.353,3.052c-.308.059-.433.433-.563.677-.306.576-.587,1.162-.87,1.749-.087.181-.632,1.326-.843,1.679.193-.036.387-.066.581-.09a1.574,1.574,0,0,1,.178-.574l.005-.013c.077-.195.159-.5.358-.6a.1.1,0,0,1,.142.08c.015.214-.2.46-.3.641q-.094.165-.184.332c-.022.042-.041.083-.064.12.1-.011.2-.02.3-.027l.066,0a2.036,2.036,0,0,1,1.108.15.632.632,0,0,1,.3.854c-.214.407-.686.461-1.1.494-.518.041-1.038.116-1.553.188-.532.075-1.034.268-1.558.368a.044.044,0,0,1-.034-.08A6.107,6.107,0,0,1,30.7,8.471l.037-.011a6.026,6.026,0,0,1,.756-.206q.378-.063.76-.1l.025,0c.28-.023.994-.015.963-.423-.02-.27-.466-.317-.669-.32a9.4,9.4,0,0,0-2.758.49l-.2.058c-.363.108-.726.218-1.083.344a2.56,2.56,0,0,0-1.015.67c-.326.338-.642.684-.98,1.01q-.32.309-.647.609a.658.658,0,0,0-.116.219,1.038,1.038,0,0,0-.018.442c.044.388.054.779.108,1.166a3.893,3.893,0,0,0,.273,1.061,1.955,1.955,0,0,0,.226.376l.071.092c.031.04.066.083.1.124a.249.249,0,0,1,.222-.1,1.446,1.446,0,0,0,.531-.027c.146-.034.29-.073.436-.109.285-.072.573-.137.855-.219l.049-.014a1.846,1.846,0,0,0,.6-.277c.2-.155.266-.379.416-.573.322-.414,1.016-.405,1.487-.518a2.137,2.137,0,0,0,1.061-.534l.016-.017a.121.121,0,0,1,.056-.135l.01-.006a.116.116,0,0,1,.059-.014,1.357,1.357,0,0,0,.073-.116c.019-.034.065-.009.059.024s-.009.039-.013.059a3.432,3.432,0,0,1,.835-.055h.353a1.519,1.519,0,0,0,.16-.007l.008,0c.022-.009-.009.006.006-.014l.05-.067c.059-.081.114-.164.168-.248a15.515,15.515,0,0,1-1.808.318,15.625,15.625,0,0,1-1.958.141.137.137,0,0,1,0-.274c.692-.026,1.381-.062,2.068-.149q.533-.068,1.062-.168.2-.038.407-.081l.1-.022a1.091,1.091,0,0,0,.331-.092l.052-.087c-.008-.1-.272-.089-.334-.089l-.527,0c-.351,0-.7,0-1.053,0-.7-.006-1.405-.03-2.106,0-.17.007-.259-.262-.091-.332a8.744,8.744,0,0,1,2.359-.476,10.072,10.072,0,0,0,1.241-.211l.1-.025a2.255,2.255,0,0,0,.754-.3,3.451,3.451,0,0,0-1.062-.133h-.026q-.705-.043-1.412-.044c-.964,0-1.928.032-2.891.077a.021.021,0,0,1-.006-.041,15.438,15.438,0,0,1,3.008-.331q.707-.011,1.415.02l.173.008a2.165,2.165,0,0,1,1.184.261A.181.181,0,0,1,35.1,9.2c.451-.885.867-1.789,1.285-2.686.325-.7.638-1.4.975-2.094l.109-.224c.146-.3.3-.6.462-.886-.621-.082-1.246-.139-1.871-.182C35.486,3.087,33.628,3,33.353,3.052ZM34.993,9.4a2.14,2.14,0,0,1-.961.473,8.484,8.484,0,0,1-1.214.242c-.4.055-.788.1-1.177.168.294,0,.589.006.882.011q.508.009,1.015.023a2.388,2.388,0,0,1,.77.064.441.441,0,0,1,.116.066Q34.72,9.929,34.993,9.4Zm-.9-5.494a2.521,2.521,0,0,1-.471,1.1.273.273,0,0,1-.46,0,.683.683,0,0,1,.064-.75l.038-.068a1.762,1.762,0,0,1,.249-.353l0-.011A.293.293,0,1,1,34.092,3.9ZM18.518,2.034Zm13.445-.282H32C32.273,1.758,31.814,1.752,31.964,1.752Z" transform="translate(-9.866 5.07)"/>
              </g>
            </g>
          </g>
        </g>
        <g id="head_Medium-Bangs-2" data-name="head/Medium-Bangs-2" transform="translate(96.636 584.091)">
          <path id="_-Background-2" data-name="ðŸŽ¨-Background" class="cls-3" d="M6.66,15.192c-.089-.224-.245-.5-.507-.516a1.6,1.6,0,0,0-1.406-1.233c-2.055-2.1-4.642-2-7.346-1.558a7.608,7.608,0,0,0-3.94,1.806,3.9,3.9,0,0,0-.773,4.829,1.754,1.754,0,0,0-.51,2.352.76.76,0,0,0,.029,1.285.454.454,0,0,0,.043.318,4.216,4.216,0,0,1-.836.489.394.394,0,0,0-.214.259c-.875.574-3.056,1.977-3.03,3.094a1.167,1.167,0,0,0,.944,1.119,2.386,2.386,0,0,0-.25,2.028,4.355,4.355,0,0,0,.733.813,7.71,7.71,0,0,0,1.374-.569.861.861,0,0,0,1.168.643,2.374,2.374,0,0,0,1.069-.913,1.706,1.706,0,0,0,2.328.5,2.984,2.984,0,0,0,1.486-1.585A8.168,8.168,0,0,0,2,29.026a.485.485,0,0,0,.553.243,6.952,6.952,0,0,0,2.61-.89c1.562-1.121,1.1-3.392.986-5.155.859-1.518.586-3.325.267-5.063A10.019,10.019,0,0,1,7,16.715,1.132,1.132,0,0,0,6.66,15.192Z" transform="translate(11.871 -11.341)"/>
          <path id="_-Ink-2" data-name="ðŸ–-Ink" class="cls-4" d="M-8.032,21.489a.083.083,0,0,1,.063.15c-.5.316-1.008.6-1.488.941a9.715,9.715,0,0,0-1.269,1.1l-.044.045a2.152,2.152,0,0,0-.752,1.369c0,.419.32.876.77.821a.277.277,0,0,1,.266.35l-.062.164a3.458,3.458,0,0,0-.308,2.109l.007.025c.048.16.1.3.283.3a1.726,1.726,0,0,0,.511-.116,2.5,2.5,0,0,0,.893-.547.292.292,0,0,1,.487.274v.009c-.042.3.442.445.662.4.434-.086.744-.521.99-.853.119-.159.406-.222.51,0a1.316,1.316,0,0,0,1.129.783,1.3,1.3,0,0,0,.725-.2,1.3,1.3,0,0,0,.243-.2l.018-.019a1.122,1.122,0,0,1,.322-.251.21.21,0,0,1,.312.179.661.661,0,0,1-.206.5,1.911,1.911,0,0,1-.41.324,1.88,1.88,0,0,1-1,.265A1.913,1.913,0,0,1-6.8,28.687a1.779,1.779,0,0,1-1.337.786,1.162,1.162,0,0,1-1-.564,3.078,3.078,0,0,1-.863.417l-.028.008c-.439.128-.943.178-1.226-.257a2.209,2.209,0,0,1-.224-1.443,5.391,5.391,0,0,1,.33-1.205A1.345,1.345,0,0,1-12,25.485a1.985,1.985,0,0,1,.565-1.745A7.884,7.884,0,0,1-9.876,22.4,5.9,5.9,0,0,1-8.032,21.489Zm14.345-5.03c0-.018.03-.024.033,0,.193,1.4.293,2.588.385,4,.047.714-.31,1.55-.252,2.263a18.684,18.684,0,0,1,.128,2.071A3.25,3.25,0,0,1,5.2,27.361a6.045,6.045,0,0,1-2.833,1.026A7.2,7.2,0,0,1,.618,28.4a2.136,2.136,0,0,1-.475-.071l-.128-.032c-.232-.059-.492-.14-.525-.415a.3.3,0,0,1,.169-.3.612.612,0,0,1,.474,0,1.663,1.663,0,0,0,.363.081,6.87,6.87,0,0,0,1.723.031,5.149,5.149,0,0,0,2.547-.919c.03-.022.1-.078.167-.136a2.541,2.541,0,0,0,.749-1.025,4.592,4.592,0,0,0,.155-1.634c-.015-1.268.409-2.659.391-3.926S6.238,17.729,6.313,16.459Zm-9.66-5.924a9.182,9.182,0,0,1,3.2-.329,6.469,6.469,0,0,1,2.514.434,5.525,5.525,0,0,1,1.587.912c.468.327.545.453.284.4-.326-.072-2.346-.913-2.752-.991a11.084,11.084,0,0,0-1.726-.211,9.013,9.013,0,0,0-5.716,1.6,4.121,4.121,0,0,0-1.53,2.259,3.944,3.944,0,0,0,.357,2.806.282.282,0,0,1-.1.381A1.235,1.235,0,0,0-7.949,18.9a1.182,1.182,0,0,0,.209.639c.134.2.339.341.489.528a.207.207,0,0,1,.015.243c.088.038.183.059.269.1a.115.115,0,0,1,0,.2.438.438,0,0,1-.525-.161.745.745,0,0,1-.061-.086.915.915,0,0,1-.413-.216.436.436,0,0,0-.064.678.9.9,0,0,0,.388.246l.017.006a.723.723,0,0,1,.361.191,2.369,2.369,0,0,1,.207-.352,1.43,1.43,0,0,1,1.224-.7.924.924,0,0,1,.83.718c.006.029-.038.052-.051.022a.8.8,0,0,0-1.163-.231A1.939,1.939,0,0,0-6.97,22a1.6,1.6,0,0,0,.317,1.415.959.959,0,0,0,.55.277.842.842,0,0,0,.287-.019l.064-.013a.459.459,0,0,1,.135-.012l.069.009h0l.039.018q.051.023-.009-.013a.169.169,0,0,1,.185.173.042.042,0,0,1,.01.009c.447.548.78,1.178,1.255,1.707l.139.155a3.878,3.878,0,0,0,1.251,1.035l.058.024c.141.06.283.141.3.312a.3.3,0,0,1-.243.3c-.316.081-.675-.2-.907-.384a6,6,0,0,1-1.26-1.431l-.034-.053a3.992,3.992,0,0,1-.633-1.474l-.015.024,0,0a.363.363,0,0,1-.057.061.5.5,0,0,1-.2.1,1.209,1.209,0,0,1-.431.03,1.517,1.517,0,0,1-.786-.318,2.136,2.136,0,0,1-.5-2.379.906.906,0,0,1-.672-.233,1.006,1.006,0,0,1-.417-.631.7.7,0,0,1,.366-.7,1.921,1.921,0,0,1-.414-1.076,1.729,1.729,0,0,1,.779-1.49,4.513,4.513,0,0,1-.238-3.167C-7.367,12.2-5.314,11.043-3.347,10.535ZM-5.093,26.272l.006-.018c.049-.16.112-.479.351-.357s.083.459,0,.626a.692.692,0,0,1-.483.4.54.54,0,0,1-.5-.149.474.474,0,0,1-.079-.134.191.191,0,0,1-.014-.041.089.089,0,0,1-.023.04,2.035,2.035,0,0,0-.269.368c-.017.031-.072.009-.058-.024.085-.208.071-.53.26-.681.167-.133.324-.028.413.126l0,.008C-5.357,26.672-5.151,26.449-5.093,26.272Zm-1.819-.752.017-.024c.179-.244.48-.538.782-.311a.156.156,0,0,1,0,.265l-.038.027a1.436,1.436,0,0,0-.36.316,2.012,2.012,0,0,1-.341.414.622.622,0,0,1-.871-.031l-.021-.027a.846.846,0,0,1-.056-.08l-.013.018,0,.005,0,0a1.14,1.14,0,0,1-.342.353.992.992,0,0,1-.869.107.026.026,0,0,1,.007-.051,1.082,1.082,0,0,0,.851-.615l.016-.037a.494.494,0,0,1,.27-.305.362.362,0,0,1,.387.11c.081.09.1.267.248.228S-7,25.643-6.912,25.52Zm-1.024-2.174a.154.154,0,0,1,.225.092.79.79,0,0,1-.706.873.582.582,0,0,1-.289-.068c-.07-.036-.152-.13-.229-.145-.1-.02-.187.112-.256.179a2.611,2.611,0,0,1-.269.233.057.057,0,0,1-.082-.063l.033-.087c.119-.311.323-.764.7-.635.187.063.328.276.525.108C-8.122,23.7-8.108,23.475-7.936,23.345Zm1.685-1.59a.864.864,0,0,1,1.352.3.335.335,0,0,1-.087.33.346.346,0,0,1-.411.053c-.118-.069-.167-.182-.253-.279a1.043,1.043,0,0,0-.479-.278.513.513,0,0,0-.123.091c-.019.019-.055-.007-.038-.029a.514.514,0,0,1,.083-.086l-.015,0h0A.062.062,0,0,1-6.251,21.755Zm2.314-4.515a.164.164,0,0,1,.163.163l0,.024a.374.374,0,0,1-.243.338,1.341,1.341,0,0,1-.445.116,1.114,1.114,0,0,1-.184,0l-.013.076a3.291,3.291,0,0,0-.055.462,1.751,1.751,0,0,0,.215.785A1.674,1.674,0,0,1-4.5,20.692a.243.243,0,0,1-.216.124.255.255,0,0,1-.216-.124.247.247,0,0,1,0-.245l0-.008a1.1,1.1,0,0,0,.1-.762c-.058-.244-.191-.463-.25-.706a1.509,1.509,0,0,1,.207-1.128.744.744,0,0,1-.385-.24h0c-.036-.038-.016-.118.046-.113l.071.006a1.618,1.618,0,0,0,.593-.022,1.015,1.015,0,0,0,.285-.136l.019-.013A.452.452,0,0,1-3.937,17.24Zm.484-2.927a1.23,1.23,0,0,1,1.151.752,1.863,1.863,0,0,1-.069,1.515l-.057.133a1.355,1.355,0,0,1-.438.629c-.231.139-.43-.022-.362-.279a1.308,1.308,0,0,1,.239-.4,3.508,3.508,0,0,0,.228-.367,1.741,1.741,0,0,0,.231-.813,1.037,1.037,0,0,0-.923-1.111A.032.032,0,0,1-3.453,14.314Zm2.565-.841c-.032-.024,0-.077.032-.055A2.574,2.574,0,0,1,.26,15.185a2.12,2.12,0,0,1-.152,1.146.771.771,0,0,1-.479.452.406.406,0,0,1-.483-.268.184.184,0,0,1,.082-.2,1.224,1.224,0,0,0,.476-.548A1.989,1.989,0,0,0-.15,15,1.834,1.834,0,0,0-.887,13.472ZM6.3,13.74a.036.036,0,0,1,.043-.056,1.532,1.532,0,0,1,.773,1.122,1.682,1.682,0,0,1-.382,1.417c-.2.188-.56-.062-.393-.3a2.042,2.042,0,0,0,.312-.512,1.618,1.618,0,0,0,.078-.55A1.708,1.708,0,0,0,6.3,13.74Zm-5.2-.575c.726-.035,1.167.8,1.268,1.413a1.568,1.568,0,0,1-.2,1.107l-.012.019c-.174.265-.49.57-.831.444a.2.2,0,0,1-.086-.325c.148-.18.377-.253.517-.444a1.187,1.187,0,0,0,.2-.746V14.6c-.024-.481-.254-1.4-.857-1.388C1.065,13.218,1.065,13.166,1.1,13.164Zm2.272-.138c.7-.09,1.131.737,1.263,1.307a2.209,2.209,0,0,1,0,1.107l-.008.025c-.086.264-.339.716-.67.581-.091-.037-.183-.138-.14-.246.055-.139.135-.175.242-.263a.705.705,0,0,0,.181-.263,1.863,1.863,0,0,0,.122-.836l0-.033c-.04-.542-.333-1.349-.984-1.334C3.341,13.072,3.343,13.03,3.371,13.027Zm1.286-.777c.391-.149.711.225.936.492a3.576,3.576,0,0,1,.682,1.111,1.886,1.886,0,0,1,.035,1.161,1.542,1.542,0,0,1-.269.513l-.016.019a.408.408,0,0,1-.457.195.155.155,0,0,1-.106-.186c.031-.171.119-.215.233-.335a1.073,1.073,0,0,0,.225-.371,1.51,1.51,0,0,0,.039-.875,3.044,3.044,0,0,0-.408-.9l-.038-.06c-.188-.3-.455-.753-.851-.705C4.631,12.308,4.631,12.259,4.657,12.249Z" transform="translate(12.042 -10.179)"/>
        </g>
        <g id="face_Smile-Big" data-name="face/Smile-Big" transform="translate(106.225 593.533)">
          <path id="_-Ink-3" data-name="ðŸ–-Ink" class="cls-4" d="M15.823,18.406c.461-.263,1.616-.532,1.689.295a.875.875,0,0,1-.581.837l-.012.005c-.311.127-.861.271-1.13,0-.224-.23.073-.642.351-.454.143.1.444.025.6-.021l.01,0c.172-.05.4-.212.33-.423-.063-.187-.331-.221-.5-.227a6.635,6.635,0,0,0-.742.068A.039.039,0,0,1,15.823,18.406Zm1.908-1.33a.947.947,0,0,1,.87,1.21.246.246,0,0,1-.237.18l-.026,0a.232.232,0,0,1-.039-.006.248.248,0,0,1-.18-.237l0-.031c.015-.264-.014-.568-.328-.631-.266-.054-.415.2-.418.437a.057.057,0,0,1-.085.049.442.442,0,0,1-.152-.55A.647.647,0,0,1,17.731,17.076Zm-4.639.146a1,1,0,0,1,1.166.492.172.172,0,0,1,.144.173.483.483,0,0,1-.13.313.284.284,0,0,1-.468-.115l0-.009a.467.467,0,0,0-.588-.324c-.29.1-.282.407-.485.585a.07.07,0,0,1-.081.01c-.216-.1-.177-.418-.1-.6A.945.945,0,0,1,13.092,17.222Zm-.62-1.379c.369-.375,1.33-.739,1.582-.045a.276.276,0,0,1-.192.338,5.174,5.174,0,0,1-.65-.035.98.98,0,0,0-.516.187c-.4.311-.49.836-.77,1.232a.023.023,0,0,1-.043-.012A2.187,2.187,0,0,1,12.472,15.843Zm4.808-.37a1.237,1.237,0,0,1,.768,0,1.492,1.492,0,0,1,.65.415,1.652,1.652,0,0,1,.212.285c.031.054.064.166.1.232a.345.345,0,0,1,.1.544l-.008.008-.023.023a.372.372,0,0,1-.359.095c-.283-.082-.318-.3-.416-.541a.968.968,0,0,0-.31-.4,1.494,1.494,0,0,0-1.222-.2c-.02.006-.044-.02-.03-.039a1.16,1.16,0,0,1,.212-.246A1.13,1.13,0,0,1,17.28,15.473Z" transform="translate(-11.875 -15.406)"/>
        </g>
        <path id="_-Ink-4" data-name="ðŸ–-Ink" class="cls-4" d="M31.045,47.057a1.919,1.919,0,0,1-.806-.621.373.373,0,0,1-.075-.29.418.418,0,0,1,.162-.262.389.389,0,0,1,.291-.079.365.365,0,0,1,.246.163l.015.02a1.271,1.271,0,0,0,.466.391,1.049,1.049,0,0,0,.576.1,1.546,1.546,0,0,0,.939-.539l.106-.111a.166.166,0,0,1,.088-.068.189.189,0,0,1,.121,0,.192.192,0,0,1,.1.072.177.177,0,0,1,.03.117,1.212,1.212,0,0,1-.4.766,1.713,1.713,0,0,1-1.854.336Z" transform="translate(78.163 552.647)"/>
      </g>
    </g>
  </g>
</svg>
