<svg xmlns="http://www.w3.org/2000/svg" width="32" height="32" viewBox="0 0 32 32">
    <defs>
        <style>
            .cls-1{fill:none}.cls-2{fill:#fff;stroke:#0f1f2e}.cls-7{stroke:none}
        </style>
    </defs>
    <g id="icon-like" transform="translate(-168 -225)">
        <g id="Box" transform="translate(173.994 231)">
            <path id="사각형_4080" d="M0 0H32V32H0z" class="cls-1" transform="translate(-5.994 -6)"/>
        </g>
        <g id="Shape" transform="translate(57 -257)">
            <g id="사각형_4087" class="cls-2" transform="translate(122 486)">
                <rect width="13" height="21" class="cls-7" rx="2"/>
                <rect width="12" height="20" x=".5" y=".5" class="cls-1" rx="1.5"/>
            </g>
            <g id="사각형_4092" class="cls-2" transform="translate(124 489)">
                <rect width="9" height="5" class="cls-7" rx="1"/>
                <rect width="8" height="4" x=".5" y=".5" class="cls-1" rx=".5"/>
            </g>
            <path id="패스_6079" fill="none" stroke="#0f1f2e" stroke-miterlimit="10" d="M14.609 23.908v-11.15a1.445 1.445 0 0 1 1.5-1.35 1.425 1.425 0 0 1 1.5 1.35v.7" transform="rotate(180 76.054 257.454)"/>
            <g id="사각형_4088" fill="#3ddb87" stroke="#0f1f2e" transform="translate(136 491)">
                <rect width="3" height="4" class="cls-7" rx="1"/>
                <rect width="2" height="3" x=".5" y=".5" class="cls-1" rx=".5"/>
            </g>
            <g id="사각형_5194" fill="#0f1f2e" stroke="#0f1f2e" transform="rotate(-30 981.42 -9.03)">
                <rect width="1" height="3" class="cls-7" rx=".5"/>
                <rect height="2" x=".5" y=".5" class="cls-1"/>
            </g>
        </g>
        <g id="Fill" fill="#fff">
            <path d="M6.5 11.301L1.383 6.305C.21 5.062.212 3.047 1.39 1.807c.555-.584 1.326-.919 2.116-.919s1.561.335 2.116.919l.517.539.361.377.361-.377.515-.538c.556-.586 1.326-.92 2.115-.92.793 0 1.564.335 2.12.919 1.177 1.24 1.18 3.255.006 4.498L6.5 11.301z" class="cls-7" transform="translate(172 241)"/>
            <path fill="#0f1f2e" d="M9.491 1.387c-.652 0-1.29.278-1.75.763l-.002.002-.002.002-.515.538-.722.753-.722-.753-.518-.54c-.461-.486-1.1-.764-1.754-.764-.653 0-1.293.278-1.754.763-.995 1.048-1 2.75-.012 3.804l4.76 4.647 4.76-4.647c.987-1.053.983-2.756-.012-3.804-.461-.485-1.1-.764-1.754-.764h-.003m0-1h.003c.932 0 1.825.388 2.479 1.075 1.37 1.442 1.37 3.752 0 5.194L6.5 12 1.027 6.656c-1.37-1.442-1.37-3.752 0-5.194C1.681.775 2.574.388 3.506.388c.932 0 1.825.387 2.479 1.074L6.5 2l.515-.538C7.667.775 8.56.387 9.491.387z" transform="translate(172 241)"/>
        </g>
    </g>
</svg>
