<svg xmlns="http://www.w3.org/2000/svg" width="153" height="54" viewBox="0 0 153 54">
    <defs>
        <clipPath id="clip-path">
            <path id="패스_8882" d="M20 0l104.45-10.091h14.273C149.769-10.091 153 8.954 153 20a20 20 0 0 1-20 20H20a20 20 0 0 1 0-40z" class="cls-1" transform="translate(-76 14.264)"/>
        </clipPath>
        <style>
            .cls-1{fill:#3ddb87}.cls-5{fill:#fff}.cls-5,.cls-6{fill-rule:evenodd}
        </style>
    </defs>
    <g id="친구초대_배너" transform="translate(-199 -401)">
        <rect id="사각형_4587" width="153" height="40" class="cls-1" rx="20" transform="translate(199 415)"/>
        <text id="친구_초대하기" fill="#222" font-family="NotoSansCJKkr-Medium, Noto Sans CJK KR" font-size="15px" font-weight="500" transform="translate(215 441)">
            <tspan x="0" y="0">친구 초대하기</tspan>
        </text>
        <g id="마스크_그룹_119" clip-path="url(#clip-path)" transform="translate(275 400.736)">
            <g id="Introduction" transform="translate(37.754 3.433)">
                <g id="head_hat-beanie" transform="translate(8.06)">
                    <path id="Path" d="M7.653 12.408a21.347 21.347 0 0 0-5.611 1.187h-.006A6.48 6.48 0 0 0 .5 14.745l.968 1.855-.078.073c-.374.353-.693.675-.945.929-2.058 2.071-2.427 10.2-1.942 13.04s1.383 5.611 5.564 5.611 8.833-2.476 9.549-3.247a2.048 2.048 0 0 1 1.61-.739l.073-.091.088-.012a5.488 5.488 0 0 0 1.771-.475 5.46 5.46 0 0 0 1.463-2.88c0-.445 1.144-3.684 1.167-4.027v-.009c0-.287 1.495-1.6 1.495-2.022a3.244 3.244 0 0 0 0-1.867l-.088-.433c-.321-1.569-.948-4.168-3.34-5.3-2.63-1.237-7.74-2.743-10.202-2.743z" class="cls-5" transform="translate(2.221 -11.994)"/>
                    <path id="_-Ink" d="M17.312 13.881C16 12.511 8.557 10.391 4.791 10.84l-.113.014a6.752 6.752 0 0 0-.889.172 7.733 7.733 0 0 0-2.7 1.1c-.652.45-2.708 1.184-2.1 2.36a1.718 1.718 0 0 0-.157 1.35 1.6 1.6 0 0 0 .121.41 12.008 12.008 0 0 0-1.168 2.237 23.465 23.465 0 0 0-.921 5.78c-.163 3.66.245 8.033 3.482 10.4a5.819 5.819 0 0 0 7.214-.313c.125-.145.711-.538.516-.606q-.087.091-.179.177a.034.034 0 0 0 0-.02l.057-.051c.108-.1.248-.241.089-.213l-.022.023a.785.785 0 0 0-.079.052l-.01.008c.092-.1.147-.195.01-.132l-.018.009c-.061.063-.123.124-.186.183a.034.034 0 0 0 0-.021L7.8 33.7c.057-.055.049-.056.021-.1.122-.169-.106-.068-.122 0-.143-.033-.268.231-.36.263-4.033 3.046-9.879.337-9.785-8.163v-.166a19.34 19.34 0 0 1 1.4-7.971 7.04 7.04 0 0 1 .372-.691q.141-.251.3-.489a4.556 4.556 0 0 0 .9-.164c.1-.025.2-.053.3-.086 1.463.079 2.894.164 4.362.245l.458.028a6.358 6.358 0 0 1 3.532.962c.984.689.989 2.049 1.831 2.806 1.2.8 1.21 1.527 1.442 2.711-.017.892-.645 2.188.507 2.564-.194.273.077.142.1.046h.006c-.173.317.081.117.1.016a.1.1 0 0 0 .041-.027c-.175.278.108.083.091.033a1.392 1.392 0 0 1 1.521-.455.026.026 0 0 0 .041.01c2.081.444 1.544 4.687-.589 4.277-.091-.018-.089.025-.107.029.049-.127-.09-.076-.088-.049h-.017c.048-.261-.22.117-.2.132a.069.069 0 0 0-.026-.009l.009-.025c.044-.117.041-.068.04-.135.033-.083.036-.046.028-.1-.117-.09-.152.182-.191.2.067-.092.014-.168-.05-.117a8.76 8.76 0 0 1-1.9 2.666c-.088.068-.176.135-.268.2-.341.293-.864.481-1.184.74a.031.031 0 0 0 .005.015l-.007.007-.007.007-.111.053a.587.587 0 0 0-.088.092.6.6 0 0 0-.073.1c-.01.045.013.064.056.044l.057-.021c-.006.009-.049.106 0 .09h.006l.079-.031c-.031.038-.059.079-.084.114a.18.18 0 0 0-.05.1c0 .02.013.029.033.026l.094-.032-.009.017c-.022.043-.053.114 0 .09s.093-.031.139-.049c0 .008.011.01.027 0a2.824 2.824 0 0 0 .42-.187c.118-.085.237-.168.356-.252a2.734 2.734 0 0 0 .322-.222 6.979 6.979 0 0 0 1.769-1.614c.8.682 2.4.03 3.388-.5a2.733 2.733 0 0 0 1.308-2.311c.185-1.281 1.248-1.719 1.174-4.529h.006a.775.775 0 0 0 .215-.108l.04-.054a.338.338 0 0 0 .053-.035l.007.009c.023.028.008-.014.006-.022l.069-.092c.164-.22.343-.467.49-.665v.008c0 .006.005.01 0 .012a4.215 4.215 0 0 0 .767-1.664 2.882 2.882 0 0 0-.028-1.312c-.388-1.431-1.704-4.688-3.432-6.084zm-9.449 19.9l.022-.019-.019.024a.161.161 0 0 1-.037.034.029.029 0 0 0 0-.012zM4.808 11.563a21.522 21.522 0 0 1 7.5 1.008l.168.048a12.735 12.735 0 0 1 4.024 1.574c1.636 1.234 2.481 3.2 3.218 5.01a3.3 3.3 0 0 1-.656 3.806 15.206 15.206 0 0 0-.542-2.741c-.056-.141-.014-.187-.135-.2-.183 2.425.717 4.216-1.064 7.09-.773 1.356.122 2.348-2.06 3.062l-.059.022a2.611 2.611 0 0 1-1.4.208l.04-.064c.041-.066.053-.1-.006-.126l.006-.01q.072-.134.138-.27l.054.015c-.012.022-.014.044.02.051a.962.962 0 0 0 .369.049h.027a1.264 1.264 0 0 0 .313-.058l.079-.014a1.853 1.853 0 0 0 .709-.342c2.018-1.128 1.809-4.97-.678-5.333a16.376 16.376 0 0 0-3.158-8.8c-1.752-2.12-6.537-3.039-9.865-2.715l-.146.048a14.067 14.067 0 0 0-1.517.375 4.656 4.656 0 0 1 1.219-.608 8.889 8.889 0 0 1 2.8-.995 2.792 2.792 0 0 1 .602-.09zm10.185 14.72c-.134-.072-.118 0-.149-.023a3.4 3.4 0 0 0-2.537 1.44c.042.043.157-.085.177-.106a.025.025 0 0 0 .009.006l-.015.021c-.218.308.214-.054.255-.129a.033.033 0 0 0 .022 0c-.034.033-.139.119-.157.181l-.028.023c-.261.22-.24.386.057.073a.046.046 0 0 0 0 .039l-.01.007c-.146.1-.266.38.039.093-.032.21.3-.2.313-.193a4.516 4.516 0 0 1 2.154-.94h.025c.133-.017.2-.056.149-.141.164-.038.125-.118.048-.115.116-.075.012-.146-.056-.118.046-.126-.139-.042-.156-.06-.098-.141-.124-.02-.14-.058zm2.016-7.793c-.462-.167-1.826.332-1.717.993a.322.322 0 0 0 .43.153l.2-.13c.342-.226.65-.423 1.017-.62.196-.097.282-.305.07-.396zm-2.628-.982l.178-.114c.963-.621 2.324-1.561-.09-.588-.275.116-.641.185-.791.443-.235.476.385.508.703.26zm-.108-2.784c.077-.289-.884.05-1.164.139l-.043.016a1.492 1.492 0 0 0-.747.424c-.191.32.2.386.435.241.49-.314 1.028-.553 1.519-.82zm-2.445-1.344c.541-.582-.907-.024-1.124.13h-.006a.25.25 0 0 0 .023.425c.433.012.751-.343 1.107-.555zm-2.462-.638c.86-.609-.273-.319-.667-.081-.268.233.008.627.667.081z" class="cls-6" transform="translate(3.169 -10.779)"/>
                </g>
                <g id="variations" transform="translate(0 3.018)">
                    <g id="images">
                        <g id="a-person_bust">
                            <g id="body_Device" transform="translate(0 18.07)">
                                <path id="_-Background" d="M13.723 9.939a2.061 2.061 0 0 0-.209-1.319 26.691 26.691 0 0 0-1.722-4.377.627.627 0 0 1 .707-.906 13.985 13.985 0 0 0 2.742-.03c.331-.844 1.215-1.194 1.911-1.68.79-.485 1.558-1.043 2.379-1.468a.481.481 0 0 1 .843-.214c.833-.51 1.826-.415 2.721-.745A8.169 8.169 0 0 0 24-4.055c.078-.453 0-.891.31-1.295 1.057-1.463 5.232-2.1 6.771-1.231.829-.509.849.413.98.982a1.782 1.782 0 0 1 .2.946c.89 1.831 2.926 2.658 4.75 3.329a.578.578 0 0 1 .773-.01A12.122 12.122 0 0 1 42.227.528a6 6 0 0 1 3.33 2.931.551.551 0 0 1 .08.4 21.71 21.71 0 0 1 3.639 11.586c1.515.9-.72 8.94-1.241 10.611-.338.589-.721 2.268-1.566 2.138-.58.645-1.5.518-2.29.568a2.792 2.792 0 0 1-.087 1.516.62.62 0 0 1-1.191-.032c-7.832 1.5-15.868.3-23.789.528-2.29.016-4.58.086-6.864.246a.624.624 0 0 1-.626-.617c.491-5.146.952-11.915 1.5-17.011a17.038 17.038 0 0 1 .601-3.453z" class="cls-5" transform="translate(-10.308 6.975)"/>
                                <path id="_-Ink-2" d="M31.023-4.186a.059.059 0 0 0-.116.015A5.334 5.334 0 0 0 32.413.021a6.891 6.891 0 0 0 2.134 1l.083.03 1.295.475c.343.126.714.32 1.017.142-.245.6-.451 1.215-.75 1.793a8.991 8.991 0 0 1-1.372 1.975 9.144 9.144 0 0 1-8.731 2.4 7.785 7.785 0 0 1-4.236-2.272 6.094 6.094 0 0 1-1.414-3.445.277.277 0 0 0 .1 0 4.012 4.012 0 0 0 1.133-.494l.033-.02a3.2 3.2 0 0 0 .916-.728 3.954 3.954 0 0 0 .485-1.294 9.491 9.491 0 0 0 .12-1.49c0-.035-.161-.056-.178-.02-.148.319-.2 1.021-.31 1.353l-.023.066a3.058 3.058 0 0 1-.479 1.05A4.765 4.765 0 0 1 20.41 1.55a.5.5 0 0 0-1 .039v.1c-.076.041-.149.088-.218.134l-.067.045a9.069 9.069 0 0 1-.777.474c-.521.278-1.073.5-1.607.751a8.209 8.209 0 0 0-1.518.924 7.77 7.77 0 0 0-.636.547l-.055.053a2.393 2.393 0 0 0-.551.646c-.024.055-.145.181-.21.186-1.015.066-2.027.158-3.036.3-.261.036-.364.168-.268.383.332.736 1.63 3.677 1.975 4.467-.04.58.014 1.262-.022 1.842q-.08 1.27-.206 2.536c-.3 3.019-.751 6.024-1.16 9.03-.2 1.5-.391 3.011-.575 4.518q-.14 1.142-.233 2.289-.038.478-.069.957l-.017.283a1.4 1.4 0 0 0 .144 1 .3.3 0 0 0 .467.059.9.9 0 0 0 .246-.606c.012-.2.015-.4.024-.6q.03-.648.074-1.3.088-1.294.2-2.586c.271-3.02.786-6.017 1.129-9.03q.259-2.278.361-4.567.049-1.144.037-2.288c0-.285-.017-.569-.036-.852q.771 1.724 1.618 3.41l.134.266a22.984 22.984 0 0 0 1.155 2.091l.074.114c.174.272.412.7.73.786a2.7 2.7 0 0 0 .719.013c.225 0 .451-.005.676-.014a3.348 3.348 0 0 0 .737-.107.844.844 0 0 0 .114-.037 2.334 2.334 0 0 0 1.09.873 7.571 7.571 0 0 0 1.059.327l.127.031c.385.094.825.139 1.042.505l.05.085a2.153 2.153 0 0 0 .583.7 3.208 3.208 0 0 0 .967.442c.347.1.7.184 1.056.27l.1.024c.233.057.468.11.7.173.1.027.2.054.3.087a1.031 1.031 0 0 1 .285.163.688.688 0 0 0 .707.408.894.894 0 0 0 .4-.132c.212.177.444.336.66.5q.453.345.91.685.943.7 1.9 1.378 1.7 1.2 3.476 2.3c.492.307 3.016 1.791 3.523 2.05l.127.064c1.257.633 2.48 1.326 3.748 1.941a7.136 7.136 0 0 0 1.154.452 5.436 5.436 0 0 0-.113 1.325c0 .421.677.419.662 0l-.007-.2a5.059 5.059 0 0 0-.115-1.024 5.052 5.052 0 0 0 2.705-.369 2.9 2.9 0 0 0 .677-.595 6.145 6.145 0 0 0 .954-1.569 18.917 18.917 0 0 0 1.21-3.749 25.548 25.548 0 0 0-1.091-14.258A26.916 26.916 0 0 0 46.122 7.4l-.071-.131a15.4 15.4 0 0 0-2-2.992 9.946 9.946 0 0 0-2.981-2.218 16.077 16.077 0 0 0-1.683-.723c-.092-.034-.185-.064-.278-.093A3.92 3.92 0 0 0 37.06.522a.176.176 0 0 0-.119.047.989.989 0 0 0-.105.023.2.2 0 0 0-.148.192v.029a.231.231 0 0 0 .012.04.44.44 0 0 0-.076.018c-.7-.193-1.38-.489-2.058-.728L34.411.09a4.98 4.98 0 0 1-1.618-.777 4.082 4.082 0 0 1-1.065-1.427c-.311-.667-.45-1.386-.705-2.072zM15.677 19.639a.057.057 0 0 0-.109 0 9.171 9.171 0 0 0-.146 1.492v.055c-.04.544-.074 1.089-.1 1.633q-.071 1.607-.168 3.214c-.032.531-.187 2.8-.219 3.21-.042.543-.216 2.906-.172 3.254a.176.176 0 0 0 .342.046 7.525 7.525 0 0 0 .274-1.57c.06-.491.1-.986.135-1.48l.012-.148q.132-1.629.209-3.26t.094-3.265c.006-.494 0-.991-.022-1.485l-.006-.148a8.631 8.631 0 0 0-.124-1.548zM37.189.919c.147.032.294.061.44.089.558.295 1.1.6 1.676.863.611.278 1.22.566 1.8.9a9.586 9.586 0 0 1 2.939 2.65 22.657 22.657 0 0 1 3.142 6.226 53.722 53.722 0 0 1 1.29 6.748 51.9 51.9 0 0 1-.637 6.852l-.042.174a18.452 18.452 0 0 1-.953 2.993 5.231 5.231 0 0 1-.81 1.307 3.754 3.754 0 0 1-.546.514 2.56 2.56 0 0 1-1.4.413 2.878 2.878 0 0 1-1.184-.176 14.512 14.512 0 0 1-1.921-.906l-.065-.033c-.276-.141-5.229-2.887-6.994-3.99q-1.706-1.065-3.371-2.194-.831-.564-1.647-1.15-.427-.307-.851-.619c-.118-.087-.233-.178-.351-.265l.084-.105a4.7 4.7 0 0 0 .868-1.941 7.593 7.593 0 0 0 .14-1.287l.006-.187a4.435 4.435 0 0 0-.048-.948c.08.043.162.086.243.131l.879.488c.587.324 1.177.645 1.773.953 1.066.55 2.142 1.073 3.247 1.542l.538.228a28.564 28.564 0 0 0 2.845 1.077c.547.166 2.883.692 3.14.741l.486.091a6.973 6.973 0 0 1 1.987.727c.216.116.276-.11.047-.267a7.257 7.257 0 0 0-2.252-.939l-.04-.011c-.3-.08-.832-.483-.836-.615-.008-.293-.035-.588-.05-.881q-.05-.923-.125-1.843-.029-.355-.065-.711a2.767 2.767 0 0 1 .469-.248l.03-.009c.188-.05.124-.288-.042-.309a1.368 1.368 0 0 0-.451.022l-.066.017c-.027-.22-.9.659-.885 1.289.012.649.035 1.3.064 1.946a6.023 6.023 0 0 0 .057.782 37.25 37.25 0 0 1-4.81-1.9q-1.639-.79-3.247-1.642c-.537-.285-1.076-.565-1.611-.85l-.563-.3-.281-.151a1.732 1.732 0 0 0-.79-.292.3.3 0 0 0-.232.1.958.958 0 0 0-.555-.184c-.3-.409-.606-.815-.924-1.212l-.235-.294a7.764 7.764 0 0 0-1.354-1.408 35.441 35.441 0 0 0-3.943-1.345q-.285-.066-.572-.122a31.863 31.863 0 0 0-1.212-3.174 21.568 21.568 0 0 0-1.225-2.384 1.128 1.128 0 0 0-.9-.572 11.242 11.242 0 0 0-1.268.024q-.726.026-1.452.062c.124-.128.237-.27.362-.393a7.448 7.448 0 0 1 .655-.575 8.191 8.191 0 0 1 1.472-.894 14.834 14.834 0 0 0 1.54-.778 4.42 4.42 0 0 0 .835-.709 7.05 7.05 0 0 0 2.221 4.416 9.122 9.122 0 0 0 4.8 2.173 10.711 10.711 0 0 0 5.321-.423A20.568 20.568 0 0 0 35.713 5.5c.923-1.133 1.834-2.72 1.525-4.225a.063.063 0 0 0-.054-.046.485.485 0 0 0-.154-.279 1.367 1.367 0 0 1 .159-.031zM17.348 5.777c.423.081.6.6.774.93.421.791.807 1.6 1.2 2.4.12.248.869 1.823 1.159 2.307-.265-.049-.532-.091-.8-.123a2.164 2.164 0 0 0-.244-.789l-.007-.018c-.106-.268-.218-.689-.492-.828a.132.132 0 0 0-.2.111c-.021.295.272.632.415.881q.13.227.253.457c.031.057.057.114.088.165-.138-.015-.276-.028-.415-.037l-.09-.006a2.8 2.8 0 0 0-1.522.206.868.868 0 0 0-.414 1.174c.295.56.943.634 1.514.68.712.057 1.426.159 2.134.258.732.1 1.421.369 2.141.505a.061.061 0 0 0 .047-.111 8.394 8.394 0 0 0-1.9-.719l-.051-.015a8.281 8.281 0 0 0-1.038-.283q-.519-.086-1.044-.139h-.034c-.385-.032-1.365-.021-1.324-.582.027-.371.64-.435.919-.44a12.926 12.926 0 0 1 3.791.674l.272.08c.5.148 1 .3 1.488.473a3.518 3.518 0 0 1 1.4.921c.448.465.882.94 1.346 1.388q.439.425.889.837a.9.9 0 0 1 .159.3 1.426 1.426 0 0 1 .025.607c-.06.533-.074 1.071-.149 1.6a5.35 5.35 0 0 1-.375 1.458 2.688 2.688 0 0 1-.311.517l-.1.126c-.043.055-.091.114-.141.171a.342.342 0 0 0-.3-.132 1.987 1.987 0 0 1-.73-.036c-.2-.046-.4-.1-.6-.15-.392-.1-.787-.188-1.175-.3l-.067-.02a2.537 2.537 0 0 1-.818-.38c-.279-.213-.365-.521-.572-.788-.442-.569-1.4-.557-2.044-.712a2.937 2.937 0 0 1-1.459-.734l-.022-.023a.167.167 0 0 0-.077-.185l-.014-.008a.159.159 0 0 0-.081-.019 1.864 1.864 0 0 1-.1-.16c-.025-.046-.089-.012-.081.033 0 .027.012.054.018.081a4.717 4.717 0 0 0-1.147-.075h-.485a2.087 2.087 0 0 1-.22-.01h-.011c-.03-.013.013.008-.008-.019l-.069-.092c-.08-.111-.157-.225-.231-.34a21.323 21.323 0 0 0 2.485.437 21.474 21.474 0 0 0 2.691.193.189.189 0 0 0 0-.377c-.951-.036-1.9-.085-2.842-.205q-.733-.093-1.459-.231-.28-.053-.559-.112l-.139-.03a1.5 1.5 0 0 1-.455-.126l-.071-.12c.012-.141.374-.122.459-.122h.724c.482 0 .965 0 1.447-.007.964-.008 1.931-.041 2.895 0 .234.01.357-.359.126-.457a12.017 12.017 0 0 0-3.242-.654 13.843 13.843 0 0 1-1.706-.29l-.138-.035a3.1 3.1 0 0 1-1.036-.409 4.743 4.743 0 0 1 1.46-.182h.035q.969-.059 1.941-.06c1.325 0 2.65.044 3.973.106a.029.029 0 0 0 .008-.057 21.218 21.218 0 0 0-4.134-.455q-.972-.015-1.944.027l-.238.011a2.976 2.976 0 0 0-1.627.358.249.249 0 0 0-.113.182c-.62-1.216-1.192-2.458-1.767-3.692-.447-.959-.877-1.926-1.34-2.878l-.15-.308c-.2-.411-.406-.822-.635-1.218.854-.112 1.712-.19 2.571-.25.779-.058 3.333-.183 3.71-.106zM15.094 14.5a2.941 2.941 0 0 0 1.321.651 11.66 11.66 0 0 0 1.669.333c.543.076 1.082.143 1.617.23-.4 0-.809.008-1.212.015q-.7.012-1.4.032a3.282 3.282 0 0 0-1.058.088.607.607 0 0 0-.16.091q-.402-.712-.777-1.44zm1.239-7.551a3.464 3.464 0 0 0 .648 1.518.375.375 0 0 0 .632 0 .939.939 0 0 0-.087-1.031l-.053-.093a2.421 2.421 0 0 0-.342-.485v-.014a.4.4 0 1 0-.798.104zm21.4-2.57zM19.258 3.99h-.049c-.377.01.255 0 .049 0z" class="cls-6" transform="translate(-10.141 5.386)"/>
                            </g>
                            <g id="head_Short-3" transform="translate(7.612)">
                                <path id="_-Background-2" d="M11.467 37.384c.328-2.333 1.08-4.6 1.187-6.968l.192-3.041a.629.629 0 0 1 1.178-.286c.725-.792 2.023-.675 3.014-.651a15.086 15.086 0 0 1 13.373 9.5.512.512 0 0 1-.021.389c.933 3.064-2.366 5.036-4.617 6.4a10.238 10.238 0 0 1-3.2 2.28 11.361 11.361 0 0 1-4.485 1.04.56.56 0 0 1-.565-.54c-.491-.113-1.332.017-1.592-.478a7.46 7.46 0 0 1-4.468-7.646z" class="cls-5" transform="translate(-11.154 -23.385)"/>
                                <path id="_-Ink-3" d="M10.289 17.294c.008-.076-.1-.078-.125-.017-.188.5-.382 1-.531 1.521-.143.5-.247 1.007-.351 1.514-.173.841-.729 5.351-.659 5.393.018.4-.08 2.619 0 3.012a6.765 6.765 0 0 0 2.523 3.844 8.184 8.184 0 0 0 4.12 1.68 7.626 7.626 0 0 0 2.2-.065l.091-.016a3.558 3.558 0 0 0 1.956-.821c.245-.263.1-.843-.332-.788a2.617 2.617 0 0 0-.646.149c-.169.065-.337.128-.511.181a6.138 6.138 0 0 1-1.019.225 6.911 6.911 0 0 1-2.171-.071 7.477 7.477 0 0 1-3.52-1.7 5.5 5.5 0 0 1-1.9-3.829 31.571 31.571 0 0 1 .251-5.074q.128-1.3.323-2.6c.131-.847.207-1.69.301-2.538zm8.627-5.326a14.982 14.982 0 0 0-3.652-.292c-1.793 0-1.775-.239-2.138 0-.26-.027-.76.825-1.018.821-.324 0-.924.671-.964.993a1.128 1.128 0 0 0-.761.367.7.7 0 0 0-.14.288 2.419 2.419 0 0 0-.543.2.553.553 0 0 0-.258.624q.026.075.059.146l.017.035-.01.013a.57.57 0 0 0 .206.774 1.988 1.988 0 0 0 .631.26c-.018.088-.035.176-.049.265-.005.036.042.062.063.026a5.284 5.284 0 0 1-.2.513c-.047.106.1.2.161.093.153-.285.248-.577.387-.87a1.093 1.093 0 0 0 .379-.092.418.418 0 0 0 .186-.17l.007.01a3.433 3.433 0 0 0 1.845.873 14.6 14.6 0 0 0 2.045.369c1.2.141 2.415.167 3.623.222l.24.011a3.355 3.355 0 0 0 1.771.768 3.271 3.271 0 0 0 1.086-.052 1.1 1.1 0 0 0 .486.284 2.169 2.169 0 0 0 .994 1.688l-.01.04a1.461 1.461 0 0 0 .373 1.608 1.257 1.257 0 0 0 .226.139l-.018.04a1.548 1.548 0 0 0 .149 1.8.467.467 0 0 0 .711-.079l.007-.012.026-.041a.127.127 0 0 0 .065.063c.19.081.266.021.439-.062a2.728 2.728 0 0 1 .5-.18 2.942 2.942 0 0 1 .423-.077A2.222 2.222 0 0 1 27.6 25.7a1.583 1.583 0 0 1-.88 1.268 1.422 1.422 0 0 1-.73.1c-.328-.044-.581-.248-.921-.131a.314.314 0 0 0-.225.291.618.618 0 0 0 .2.514 7.806 7.806 0 0 0-.637.686c-.259.272-.521.544-.8.794a7.1 7.1 0 0 1-.842.655l-.031.02c-.373.239-.842.451-.86.951a.424.424 0 0 0 .213.366c.47.287.981-.09 1.349-.366q.222-.166.431-.345a.622.622 0 0 0 .3-.054 2.152 2.152 0 0 0 .2-.1.711.711 0 0 0 .574-.1c.236.057 1.409-.979 1.622-1.025a3.871 3.871 0 0 0 .9-1.064l.555-1.194c.647-1.047 1.24-.832 1.238-3.348s-2.927-3.214-2.989-3.794a7.548 7.548 0 0 0-.957-3.066c-.467-.787-.679-1.827-1.412-2.378a10.178 10.178 0 0 0-4.982-2.412zm8.2 13.265c.19-.45-.7-.454-.941-.433h-.007c-.532.052-1.364.3-1.582.833-.09.219.177.456.39.384a1.669 1.669 0 0 0 .494-.354c.044-.035.09-.067.137-.1a.487.487 0 0 1-.119.2l-.013.012c-.258.228.2.586.374.284a.79.79 0 0 0 .1-.519.572.572 0 0 0-.044-.15l.051-.025.031-.014c.205-.092 1.08-.451 1.073-.13-.002.04.04.04.057.012z" class="cls-6" transform="translate(-8.59 -11.57)"/>
                            </g>
                            <g id="face_Smiling" transform="translate(8.473 7.641)">
                                <path id="_-Ink-4" d="M14.252 20.1a2.129 2.129 0 0 0 .9-.679.4.4 0 0 0 .084-.317.456.456 0 0 0-.18-.286.437.437 0 0 0-.324-.086.406.406 0 0 0-.274.178l-.016.022a1.407 1.407 0 0 1-.517.427 1.181 1.181 0 0 1-.64.111 1.724 1.724 0 0 1-1.043-.589l-.118-.121a.185.185 0 0 0-.1-.074.216.216 0 0 0-.24.081.191.191 0 0 0-.033.128 1.318 1.318 0 0 0 .444.837 1.926 1.926 0 0 0 2.06.367zm-1.269-4.98c-.4.237-1 .789-.573 1.376.5.517 1.222-.076 1.577-.344.329-.208.7.327.394.57-2.568 1.872-3.61-1.539-1.6-1.88.219-.036.306.207.202.28zm4.6-2.178c-.044-.534-.87-.655-.952-.127a2.135 2.135 0 0 0 .23 1.335.405.405 0 0 0 .767-.15 4.24 4.24 0 0 0-.044-1.056zm-6.283-.234a.444.444 0 0 0-.481-.193c-.622.179-.439 1.049-.22 1.473a.437.437 0 0 0 .676.086 1.021 1.021 0 0 0 .059-1.315.447.447 0 0 0-.034-.051zm5.751-2.463l-.1-.017c-.3-.052-.682-.1-.9.139a.346.346 0 0 0 0 .487c.27.215.568.132.892.15a3.6 3.6 0 0 1 .779.131 5.326 5.326 0 0 1 1.5.766c.063.042.128-.038.1-.1a3.086 3.086 0 0 0-1.355-1.244 3.386 3.386 0 0 0-.92-.312z" class="cls-6" transform="translate(-8.891 -9.137)"/>
                                <path id="_-Ink-5" d="M.5 1.516L.572 1.5A3.185 3.185 0 0 0 2.846.193c.015-.112 0-.136-.013-.152V.036a.1.1 0 0 0-.068-.047L2.719 0a2.387 2.387 0 0 0-.455.177l-.147.072a4.128 4.128 0 0 1-.528.224 6.305 6.305 0 0 1-1.2.266.5.5 0 0 0-.242.09.36.36 0 0 0-.135.2.358.358 0 0 0 .04.3.384.384 0 0 0 .189.171.45.45 0 0 0 .259.016z" class="cls-6" transform="rotate(-165.02 1.524 .919)"/>
                            </g>
                        </g>
                    </g>
                </g>
            </g>
        </g>
    </g>
</svg>
