<svg xmlns="http://www.w3.org/2000/svg" width="32" height="32" viewBox="0 0 32 32">
  <g id="icon-cupon" transform="translate(-209 -401)">
    <g id="Box" transform="translate(209 401)">
      <rect id="사각형_4080" data-name="사각형 4080" width="32" height="32" fill="none"/>
    </g>
    <g id="그룹_14056" data-name="그룹 14056">
      <g id="빼기_63" data-name="빼기 63" transform="translate(8664 -2266.5)" fill="#fff">
        <path d="M -8448.451171875 2693 L -8451 2692.999267578125 C -8451.828125 2692.999267578125 -8452.5009765625 2692.326171875 -8452.5009765625 2691.498779296875 L -8452.5009765625 2675.4990234375 C -8452.5009765625 2674.671630859375 -8451.828125 2673.99853515625 -8451 2673.99853515625 L -8448.4501953125 2673.99853515625 C -8448.353515625 2674.475341796875 -8448.119140625 2674.913818359375 -8447.767578125 2675.265869140625 C -8447.2939453125 2675.73876953125 -8446.666015625 2675.9990234375 -8446 2675.9990234375 C -8444.79296875 2675.9990234375 -8443.7822265625 2675.138671875 -8443.5498046875 2673.99853515625 L -8427.0009765625 2673.99853515625 C -8426.173828125 2673.99853515625 -8425.5 2674.671630859375 -8425.5 2675.4990234375 L -8425.5 2691.498779296875 C -8425.5 2692.326171875 -8426.173828125 2692.999267578125 -8427.0009765625 2692.999267578125 L -8443.5498046875 2692.999267578125 C -8443.6474609375 2692.521484375 -8443.8818359375 2692.082763671875 -8444.2333984375 2691.731201171875 C -8444.7060546875 2691.259033203125 -8445.3330078125 2690.998779296875 -8446 2690.998779296875 C -8447.2080078125 2690.998779296875 -8448.21875 2691.859619140625 -8448.451171875 2693 Z" stroke="none"/>
        <path d="M -8448.830078125 2692.5 C -8448.4169921875 2691.335205078125 -8447.3046875 2690.498779296875 -8446 2690.498779296875 C -8445.19921875 2690.498779296875 -8444.4462890625 2690.81103515625 -8443.880859375 2691.37744140625 C -8443.55859375 2691.698974609375 -8443.318359375 2692.08154296875 -8443.1708984375 2692.499267578125 L -8427.0009765625 2692.499267578125 C -8426.44921875 2692.499267578125 -8426 2692.050537109375 -8426 2691.498779296875 L -8426 2675.4990234375 C -8426 2674.947265625 -8426.44921875 2674.49853515625 -8427.0009765625 2674.49853515625 L -8443.1708984375 2674.49853515625 C -8443.583984375 2675.662841796875 -8444.6962890625 2676.4990234375 -8446 2676.4990234375 C -8446.7998046875 2676.4990234375 -8447.552734375 2676.18701171875 -8448.1220703125 2675.619140625 C -8448.443359375 2675.29736328125 -8448.6826171875 2674.915283203125 -8448.830078125 2674.49853515625 L -8451 2674.49853515625 C -8451.5517578125 2674.49853515625 -8452.0009765625 2674.947265625 -8452.0009765625 2675.4990234375 L -8452.0009765625 2691.498779296875 C -8452.0009765625 2692.050537109375 -8451.5517578125 2692.499267578125 -8451 2692.499267578125 L -8448.830078125 2692.5 M -8448.0009765625 2693.500244140625 L -8448.001953125 2693.500244140625 L -8451 2693.499267578125 C -8452.103515625 2693.499267578125 -8453.0009765625 2692.601806640625 -8453.0009765625 2691.498779296875 L -8453.0009765625 2675.4990234375 C -8453.0009765625 2674.39599609375 -8452.103515625 2673.49853515625 -8451 2673.49853515625 L -8448.0009765625 2673.49853515625 C -8448 2674.032470703125 -8447.7919921875 2674.5341796875 -8447.4140625 2674.91259765625 C -8447.03515625 2675.290771484375 -8446.533203125 2675.4990234375 -8446 2675.4990234375 C -8444.8974609375 2675.4990234375 -8444 2674.6015625 -8444 2673.49853515625 L -8427.0009765625 2673.49853515625 C -8425.8974609375 2673.49853515625 -8425 2674.39599609375 -8425 2675.4990234375 L -8425 2691.498779296875 C -8425 2692.601806640625 -8425.8974609375 2693.499267578125 -8427.0009765625 2693.499267578125 L -8444 2693.499267578125 C -8444.0009765625 2692.96533203125 -8444.2080078125 2692.46337890625 -8444.5869140625 2692.085205078125 C -8444.96484375 2691.70703125 -8445.466796875 2691.498779296875 -8446 2691.498779296875 C -8447.103515625 2691.498779296875 -8448.0009765625 2692.396240234375 -8448.0009765625 2693.499267578125 L -8448.0009765625 2693.500244140625 Z" stroke="none" fill="#0f1f2e"/>
      </g>
      <g id="타원_1310" data-name="타원 1310" transform="translate(226.025 411.697) rotate(45)" fill="#3ddb87" stroke="#0f1f2e" stroke-width="1">
        <circle cx="2" cy="2" r="2" stroke="none"/>
        <circle cx="2" cy="2" r="1.5" fill="none"/>
      </g>
      <rect id="사각형_4147" data-name="사각형 4147" width="1" height="10" rx="0.5" transform="translate(231.682 413.111) rotate(45)" fill="#0f1f2e"/>
      <g id="타원_1312" data-name="타원 1312" transform="translate(230.976 416.646) rotate(45)" fill="#3ddb87" stroke="#0f1f2e" stroke-width="1">
        <circle cx="2" cy="2" r="2" stroke="none"/>
        <circle cx="2" cy="2" r="1.5" fill="none"/>
      </g>
      <g id="합치기_108" data-name="합치기 108" transform="translate(10008.5 2300)" fill="#fff">
        <path d="M -9790.5 -1876.499389648438 C -9790.5009765625 -1876.499389648438 -9790.5009765625 -1876.49951171875 -9790.5009765625 -1876.49951171875 L -9790.5009765625 -1877.500732421875 L -9790.5009765625 -1876.500610351562 L -9790.5 -1876.499389648438 Z M -9790.5 -1879.499633789062 C -9790.5009765625 -1879.499633789062 -9790.5009765625 -1879.499755859375 -9790.5009765625 -1879.499755859375 L -9790.5009765625 -1880.5009765625 L -9790.5009765625 -1879.5009765625 L -9790.5 -1879.499633789062 Z M -9790.5 -1882.499877929688 C -9790.5009765625 -1882.499877929688 -9790.5009765625 -1882.5 -9790.5009765625 -1882.5 L -9790.5009765625 -1883.498779296875 L -9790.5009765625 -1882.501220703125 L -9790.5 -1882.499877929688 Z" stroke="none"/>
        <path d="M -9790.5 -1875.999389648438 C -9790.77734375 -1875.999389648438 -9791.0009765625 -1876.223022460938 -9791.0009765625 -1876.500610351562 L -9791.0009765625 -1877.500732421875 C -9791.0009765625 -1877.776000976562 -9790.77734375 -1877.99951171875 -9790.5 -1877.99951171875 C -9790.224609375 -1877.99951171875 -9790.0009765625 -1877.776000976562 -9790.0009765625 -1877.500732421875 L -9790.0009765625 -1876.500610351562 C -9790.0009765625 -1876.223022460938 -9790.224609375 -1875.999389648438 -9790.5 -1875.999389648438 Z M -9790.5 -1878.999633789062 C -9790.77734375 -1878.999633789062 -9791.0009765625 -1879.223266601562 -9791.0009765625 -1879.5009765625 L -9791.0009765625 -1880.5009765625 C -9791.0009765625 -1880.776245117188 -9790.77734375 -1880.999877929688 -9790.5 -1880.999877929688 C -9790.224609375 -1880.999877929688 -9790.0009765625 -1880.776245117188 -9790.0009765625 -1880.5009765625 L -9790.0009765625 -1879.5009765625 C -9790.0009765625 -1879.223266601562 -9790.224609375 -1878.999633789062 -9790.5 -1878.999633789062 Z M -9790.5 -1881.999877929688 C -9790.77734375 -1881.999877929688 -9791.0009765625 -1882.223510742188 -9791.0009765625 -1882.501220703125 L -9791.0009765625 -1883.498779296875 C -9791.0009765625 -1883.776489257812 -9790.77734375 -1884.000122070312 -9790.5 -1884.000122070312 C -9790.224609375 -1884.000122070312 -9790.0009765625 -1883.776489257812 -9790.0009765625 -1883.498779296875 L -9790.0009765625 -1882.501220703125 C -9790.0009765625 -1882.223510742188 -9790.224609375 -1881.999877929688 -9790.5 -1881.999877929688 Z M -9790.5 -1885.000244140625 C -9790.77734375 -1885.000244140625 -9791.0009765625 -1885.223754882812 -9791.0009765625 -1885.4990234375 L -9791.0009765625 -1886.499145507812 C -9791.0009765625 -1886.776733398438 -9790.77734375 -1887.000366210938 -9790.5 -1887.000366210938 C -9790.224609375 -1887.000366210938 -9790.0009765625 -1886.776733398438 -9790.0009765625 -1886.499145507812 L -9790.0009765625 -1885.4990234375 C -9790.0009765625 -1885.223754882812 -9790.224609375 -1885.000244140625 -9790.5 -1885.000244140625 Z M -9790.5 -1888.00048828125 C -9790.77734375 -1888.00048828125 -9791.0009765625 -1888.223999023438 -9791.0009765625 -1888.499267578125 L -9791.0009765625 -1889.499389648438 C -9791.0009765625 -1889.776977539062 -9790.77734375 -1890.000610351562 -9790.5 -1890.000610351562 C -9790.224609375 -1890.000610351562 -9790.0009765625 -1889.776977539062 -9790.0009765625 -1889.499389648438 L -9790.0009765625 -1888.499267578125 C -9790.0009765625 -1888.223999023438 -9790.224609375 -1888.00048828125 -9790.5 -1888.00048828125 Z" stroke="none" fill="#0f1f2e"/>
      </g>
    </g>
  </g>
</svg>
