<svg xmlns="http://www.w3.org/2000/svg" width="36" height="18" viewBox="0 0 36 18">
  <defs>
    <style>
      .cls-1 {
        fill: #a6acb2;
      }

      .cls-2 {
        fill: #fff;
        font-size: 8px;
        font-family: Montserrat-Bold, Montserrat;
        font-weight: 700;
      }
    </style>
  </defs>
  <g id="쿠폰1" transform="translate(-223 -595)">
    <path id="빼기_163" data-name="빼기 163" class="cls-1" d="M-6214.742-11326h-2.4a3.02,3.02,0,0,0-2.6-1.5,3.012,3.012,0,0,0-2.6,1.5h-24.4a2,2,0,0,1-2-2v-14a2,2,0,0,1,2-2h24.4a3.014,3.014,0,0,0,2.6,1.5,3.021,3.021,0,0,0,2.6-1.5h2.4a2,2,0,0,1,2,2v14A2,2,0,0,1-6214.742-11326Zm-5-4.8a1,1,0,0,0-1,1,1,1,0,0,0,1,1,1,1,0,0,0,1-1A1,1,0,0,0-6219.743-11330.8Zm0-5a1,1,0,0,0-1,1,1,1,0,0,0,1,1,1,1,0,0,0,1-1A1,1,0,0,0-6219.743-11335.8Zm0-5a1,1,0,0,0-1,1,1,1,0,0,0,1,1,1,1,0,0,0,1-1A1,1,0,0,0-6219.743-11340.8Z" transform="translate(6471.742 11939)"/>
    <text id="_1_000" data-name="1,000" class="cls-2" transform="translate(227 607)"><tspan x="0" y="0">1,000</tspan></text>
  </g>
</svg>
