<svg xmlns="http://www.w3.org/2000/svg" width="24" height="24" viewBox="0 0 24 24">
    <g>
        <g>
            <g>
                <g>
                    <path fill="#9ea4aa" fill-rule="evenodd" d="M333.058 2009.869a6.886 6.886 0 0 1 7.051 5.435h-14.1a6.886 6.886 0 0 1 7.051-5.435m-3.623-5.435a3.623 3.623 0 1 1 3.623 3.623 3.627 3.627 0 0 1-3.623-3.623m7.027 4.233a5.435 5.435 0 1 0-6.808 0 8.714 8.714 0 0 0-5.654 8.448h18.116a8.714 8.714 0 0 0-5.654-8.448" transform="translate(-315 -758.065) translate(318 761.065) translate(-324 -1998.995)"/>
                </g>
            </g>
        </g>
    </g>
</svg>
