<svg xmlns="http://www.w3.org/2000/svg" width="20" height="20" viewBox="0 0 20 20">
  <defs>
    <style>
      .cls-1 {
        fill: none;
      }

      .cls-2 {
        fill: #fff;
      }

      .cls-2, .cls-3 {
        stroke: #0f1f2e;
      }

      .cls-3 {
        fill: #0f1f2e;
      }

      .cls-4 {
        stroke: none;
      }
    </style>
  </defs>
  <g id="Icon_detail" transform="translate(-218 -556)">
    <g id="Box" transform="translate(217.994 556)">
      <rect id="사각형_4080" data-name="사각형 4080" class="cls-1" width="20" height="20" transform="translate(0.006)"/>
    </g>
    <g id="Shape" transform="translate(219.473 560.607)">
      <rect id="사각형_6249" data-name="사각형 6249" class="cls-2" width="12" height="14" rx="2" transform="translate(2.527 -1.607)"/>
      <g id="그룹_18370" data-name="그룹 18370" transform="translate(0.514 0.44)">
        <g id="사각형_5050" data-name="사각형 5050" class="cls-3" transform="translate(4.027 1.864) rotate(-90)">
          <rect class="cls-4" width="1" height="2" rx="0.5"/>
          <rect class="cls-1" x="0.5" y="0.5" height="1"/>
        </g>
        <g id="사각형_5055" data-name="사각형 5055" class="cls-3" transform="translate(7 1.864) rotate(-90)">
          <rect class="cls-4" width="1" height="5" rx="0.5"/>
          <rect class="cls-1" x="0.5" y="0.5" height="4"/>
        </g>
      </g>
      <g id="그룹_18371" data-name="그룹 18371" transform="translate(0.514 3.44)">
        <g id="사각형_5050-2" data-name="사각형 5050" class="cls-3" transform="translate(4.027 1.864) rotate(-90)">
          <rect class="cls-4" width="1" height="2" rx="0.5"/>
          <rect class="cls-1" x="0.5" y="0.5" height="1"/>
        </g>
        <g id="사각형_5055-2" data-name="사각형 5055" class="cls-3" transform="translate(7 1.864) rotate(-90)">
          <rect class="cls-4" width="1" height="5" rx="0.5"/>
          <rect class="cls-1" x="0.5" y="0.5" height="4"/>
        </g>
      </g>
      <g id="그룹_18372" data-name="그룹 18372" transform="translate(0.514 6.44)">
        <g id="사각형_5050-3" data-name="사각형 5050" class="cls-3" transform="translate(4.027 1.864) rotate(-90)">
          <rect class="cls-4" width="1" height="2" rx="0.5"/>
          <rect class="cls-1" x="0.5" y="0.5" height="1"/>
        </g>
        <g id="사각형_5055-3" data-name="사각형 5055" class="cls-3" transform="translate(7 1.864) rotate(-90)">
          <rect class="cls-4" width="1" height="5" rx="0.5"/>
          <rect class="cls-1" x="0.5" y="0.5" height="4"/>
        </g>
      </g>
    </g>
  </g>
</svg>
