<svg xmlns="http://www.w3.org/2000/svg" width="367.452" height="56.843" viewBox="0 0 367.452 56.843">
    <g data-name="2_3">
        <g data-name="합치기 170" style="fill:#c9cdd0">
            <path d="M28.422 56.343a27.83 27.83 0 0 1-19.744-8.178A27.83 27.83 0 0 1 .5 28.422 27.83 27.83 0 0 1 8.678 8.678 27.83 27.83 0 0 1 28.422.5a27.83 27.83 0 0 1 19.744 8.178 27.829 27.829 0 0 1 8.177 19.744 27.829 27.829 0 0 1-8.178 19.744 27.83 27.83 0 0 1-19.743 8.177z" style="stroke:none" transform="translate(310.609)"/>
            <path d="M28.422 1a27.332 27.332 0 0 0-19.39 8.032A27.331 27.331 0 0 0 1 28.422a27.331 27.331 0 0 0 8.032 19.39 27.331 27.331 0 0 0 19.39 8.031 27.331 27.331 0 0 0 19.39-8.032 27.332 27.332 0 0 0 8.031-19.39 27.332 27.332 0 0 0-8.032-19.39A27.332 27.332 0 0 0 28.422 1m0-1c15.697 0 28.422 12.725 28.422 28.422 0 15.696-12.725 28.421-28.421 28.421C12.725 56.843 0 44.118 0 28.422 0 12.725 12.725 0 28.422 0z" style="fill:#fff;stroke:none" transform="translate(310.609)"/>
        </g>
        <g data-name="패스 12924" style="fill:#c9cdd0">
            <path d="M28.422 55.343a26.834 26.834 0 0 1-19.036-7.885A26.834 26.834 0 0 1 1.5 28.422 26.834 26.834 0 0 1 9.385 9.386 26.834 26.834 0 0 1 28.422 1.5a26.834 26.834 0 0 1 19.036 7.885 26.834 26.834 0 0 1 7.885 19.037 26.834 26.834 0 0 1-7.885 19.036 26.834 26.834 0 0 1-19.036 7.885z" style="stroke:none" transform="translate(281)"/>
            <path d="M28.422 3a25.34 25.34 0 0 0-17.976 7.446A25.34 25.34 0 0 0 3 28.422a25.34 25.34 0 0 0 7.446 17.976 25.34 25.34 0 0 0 17.976 7.445 25.34 25.34 0 0 0 17.976-7.446 25.34 25.34 0 0 0 7.445-17.975 25.34 25.34 0 0 0-7.446-17.976A25.34 25.34 0 0 0 28.422 3m0-3c15.696 0 28.421 12.725 28.421 28.422 0 15.696-12.725 28.421-28.421 28.421C12.725 56.843 0 44.118 0 28.422 0 12.725 12.725 0 28.422 0z" style="fill:#fff;stroke:none" transform="translate(281)"/>
        </g>
        <text transform="translate(309.443 39.796)" style="font-size:30px;font-family:Montserrat-Bold,Montserrat;font-weight:700;fill:#fff"><tspan x="-10.98" y="0">P</tspan></text>
    </g>
    <g data-name="plus" transform="translate(106 13)">
        <rect data-name="사각형 5979" width="29.917" height="5.983" rx="2.992" transform="translate(0 11.967)" style="fill:#a6acb2"/>
        <rect data-name="사각형 5980" width="29.917" height="5.983" rx="2.992" transform="rotate(90 8.975 8.975)" style="fill:#a6acb2"/>
    </g>
    <g data-name="plus" transform="translate(230 13)">
        <rect data-name="사각형 5979" width="29.917" height="5.983" rx="2.992" transform="translate(0 11.967)" style="fill:#a6acb2"/>
        <rect data-name="사각형 5980" width="29.917" height="5.983" rx="2.992" transform="rotate(90 8.975 8.975)" style="fill:#a6acb2"/>
    </g>
    <g data-name="2_1" transform="translate(0 3)">
        <path data-name="빼기 163" d="M50.4 50.12H9a9.01 9.01 0 0 1-9-9V9a9.01 9.01 0 0 1 9-9h42.086a8 8 0 0 0 7.029 4.177h.707A8 8 0 0 0 65.85 0h5.9a9.01 9.01 0 0 1 9 9v32.119a9.01 9.01 0 0 1-9 9h-5.211a6 6 0 0 0-5.718-4.177h-4.706a6 6 0 0 0-5.715 4.177zm7.793-12.14a2.5 2.5 0 1 0 2.5 2.5 2.5 2.5 0 0 0-2.504-2.5zm0-8a2.5 2.5 0 1 0 2.5 2.5 2.5 2.5 0 0 0-2.504-2.499zm0-8a2.5 2.5 0 1 0 2.5 2.5 2.5 2.5 0 0 0-2.504-2.499zm0-8a2.5 2.5 0 1 0 2.5 2.5 2.5 2.5 0 0 0-2.504-2.499zm0-8a2.5 2.5 0 1 0 2.5 2.5 2.5 2.5 0 0 0-2.504-2.499z" style="fill:#c9cdd0"/>
        <circle data-name="타원 2150" cx="4.177" cy="4.177" r="4.177" transform="rotate(45 -5.19 24.467)" style="fill:#fff"/>
        <rect data-name="사각형 6378" width="4.177" height="25.06" rx="2.088" transform="rotate(45 -2.031 45.364)" style="fill:#fff"/>
        <g data-name="타원 2151" transform="rotate(45 -16.954 52.866)" style="stroke:#fff;fill:#fff">
            <circle cx="4.177" cy="4.177" r="4.177" style="stroke:none"/>
            <circle cx="4.177" cy="4.177" r="3.677" style="fill:none"/>
        </g>
    </g>
    <path data-name="패스 19312" d="M7.4 35.9v12.921a2.467 2.467 0 0 0 2.467 2.44h15.065V35.9zm21.929 15.361H44.4a2.467 2.467 0 0 0 2.467-2.44V35.9H29.329zm19.519-37.295h-4.934a7.561 7.561 0 0 0 .778-3.3A7.7 7.7 0 0 0 37 3a11.288 11.288 0 0 0-9.87 6.891A11.288 11.288 0 0 0 17.264 3a7.7 7.7 0 0 0-7.695 7.668 7.561 7.561 0 0 0 .778 3.3H5.413C4.072 13.966 3 15.548 3 17.478v10.537c0 1.93 1.072 3.512 2.413 3.512h19.519V13.966h4.4v17.561h19.516c1.341 0 2.413-1.582 2.413-3.512V17.478c0-1.93-1.073-3.512-2.413-3.512zm-31.584 0a3.3 3.3 0 1 1 0-6.569c3.754 0 5.872 3.861 6.917 6.569zm19.733 0H30.08C31.125 11.285 33.243 7.4 37 7.4a3.3 3.3 0 1 1 0 6.569z" transform="translate(158 1)" style="fill:#c9cdd0"/>
</svg>
