<svg xmlns="http://www.w3.org/2000/svg" width="180" height="180" viewBox="0 0 180 180">
    <defs>
        <style>
            .cls-3{fill-rule:evenodd}
        </style>
    </defs>
    <g id="img_noresult" transform="translate(7 19)">
        <path id="사각형_4544" fill="#fff" d="M0 0H180V180H0z" transform="translate(-7 -19)"/>
        <g id="Head" transform="translate(60.29)">
            <g id="head_Bun">
                <path id="_-Background" fill="#fff" fill-rule="evenodd" d="M45.7 4.167C37.316 3.71 29.888 1.359 23.987 6.62q-9.546-7.115-11.139-4.4c-1.067 1.816.413 4.253.016 6.494-2.588 4.4-2.442 11.855-2.588 13.6-.369 4.4-2.692 20.966-2.692 24.9 0 2.008 1.659 7.266 2.692 10.192 2.3 6.513 6.688 9.833 13.885 9.833s18.945-6 22.713-11.334c.33-.467 2.465.9 4.7-1.468 2.42-2.561 3.762-7.446 3.762-10.358 0-3.7 2.393-6.258 2.115-10.987C56.828 22.524 54.67 4.655 45.7 4.167z" transform="translate(-6.423 8.117)"/>
                <path id="_-Ink" d="M33.088-15.64a2.1 2.1 0 0 0-.33.009 2.4 2.4 0 0 0-.363.041 2.934 2.934 0 0 0-1.591.9c-.012.012-.021.025-.032.037a4.123 4.123 0 0 0-.551.5c-.029-.028-.057-.056-.088-.084q-.132-.116-.275-.219a3.62 3.62 0 0 0-1.377-.734l-.069-.019-.04-.009a3.511 3.511 0 0 0-1.118-.179 3.237 3.237 0 0 0-1.337.235 3.78 3.78 0 0 0-1.312.933 6.894 6.894 0 0 0-.677.651 4.979 4.979 0 0 0-1.056 1.7c-.032.089-.06.18-.085.272-.563-.065-1.128-.111-1.694-.134-.635-.038-1.269-.052-1.905-.03a17.627 17.627 0 0 0-5.125.929 6.016 6.016 0 0 0-.967.377 7.01 7.01 0 0 0-1.385.74l-.371.219c-.186.11-.372.222-.553.337a10.822 10.822 0 0 0-1.223.915 13.264 13.264 0 0 0-1.156 1.065c-.1.1-.2.2-.29.307a9.925 9.925 0 0 0-2.291 1.73 17.1 17.1 0 0 0-1.72-.863 17.119 17.119 0 0 0-2.026-.716 13.139 13.139 0 0 0-1.719-.351c-.262-.045-.525-.081-.79-.112h.011c-.186-.02-.371-.037-.559-.053h.005l-.241-.019-.194-.016c-.059-.005-.144.131-.149.179l-.007.049c-.044.049-.084.1-.112.137l-.1-.007c-.1-.009-.223.175-.285.246l-.055.065a.519.519 0 0 0-.136.258q-.1.827-.19 1.656a5.624 5.624 0 0 0 .069 1.243q.078.6.158 1.194.128.418.253.836c.033.106.071.211.106.316A17.066 17.066 0 0 0-1.1.936a9.33 9.33 0 0 0-.6.744c-.045.046-.09.092-.133.14a.132.132 0 0 0-.048-.045c-.064-.028-.11.005-.15.06a3.551 3.551 0 0 0-.913 1.4l-.118.278-.058.139a9.775 9.775 0 0 0-.362 1.237 7.429 7.429 0 0 0-.187 1c-.287.963-.515 1.948-.729 2.92a.66.66 0 0 0 .031.406l-.125.122-.214.213a6.815 6.815 0 0 0-.994 1.16 14.086 14.086 0 0 0-.706 1.384l-.049.1-.1.2a4.907 4.907 0 0 0-.255.6 5.234 5.234 0 0 0-.29 1.348 4.013 4.013 0 0 0 .247 2.048.04.04 0 0 0 .007.013 2.551 2.551 0 0 0 .98 1.536 1.964 1.964 0 0 0 .351.267 1.116 1.116 0 0 0 .9.11l.041-.011.114-.028c-.053.044-.08.1 0 .133a.676.676 0 0 0 .212.066c-.028.036-.031.074.028.106a.506.506 0 0 0 .338.07l-.022.185c-.175 1.4-.331 1.673-.467 3.173q-.136 2.3-.432 4.594l-.068.554c-.219 1.757-.465 3.527-.842 5.255q-.278 1.136-.487 2.287a9.178 9.178 0 0 0-.408 1.787 17.633 17.633 0 0 0-.23 1.872 3.337 3.337 0 0 0-.223 1.228A11.741 11.741 0 0 0-7 41.261a10.754 10.754 0 0 0 .239 1.721 9.74 9.74 0 0 0 .615 2.263 21.856 21.856 0 0 0 .857 2.4 23.415 23.415 0 0 0 1.835 3.444 24.551 24.551 0 0 0 2.174 2.967 20.387 20.387 0 0 0 3.544 3.234 17.228 17.228 0 0 0 2.353 1.466 17.347 17.347 0 0 0 3.117 1.3 15.751 15.751 0 0 0 2.071.436 13.308 13.308 0 0 0 4.18-.065 12.8 12.8 0 0 0 2.6-.623 19.629 19.629 0 0 0 1.98-.84 7.649 7.649 0 0 0 .965-.555 10.648 10.648 0 0 0 1.457-1.135c.148-.126.291-.255.432-.39a.1.1 0 0 0-.048-.17h-.024c.031-.028.063-.056.093-.085a.109.109 0 0 0 .017-.019c.015-.013.031-.026.044-.04.052-.045 0-.146-.045-.17a.115.115 0 0 0-.065-.008l.015-.013a.029.029 0 0 0 .005-.025l.02-.016a.1.1 0 0 0-.047-.17.388.388 0 0 0-.17.009l-.025.006.045-.042c.08-.069.055-.146-.044-.17a1.214 1.214 0 0 0-.22.029l-.054.015-.078.023.134-.122c.044-.041 0-.149-.043-.171s-.161.012-.21.048a.778.778 0 0 0-.339.117c-.161.154-.327.3-.5.445a.772.772 0 0 0-.274.138c-.192.183-.391.356-.595.523l-.155.106-.078.052-.877.513-3.2 1.082-.141.042-1.036.127a9.31 9.31 0 0 1-2.045-.011 7 7 0 0 1-1.517-.147 14.125 14.125 0 0 1-2.488-.649 18.815 18.815 0 0 1-2.685-1.265q-.467-.261-.918-.554-.146-.1-.291-.211-.96-.719-1.841-1.531-.415-.38-.8-.791C.9 53.735.868 53.7.832 53.656c-.246-.268-.484-.546-.712-.832l-.22-.244a27.72 27.72 0 0 1-2.35-3.462 21.711 21.711 0 0 1-1.722-3.749q-.22-.7-.38-1.409a7.732 7.732 0 0 1-.386-1.754c-.02-.117-.036-.234-.052-.351l-.01-.183v-.092c-.027-.186-.049-.372-.067-.558s-.017-.374-.019-.562l.015-1.148c0-.036.008-.073.011-.11l.029-.253c.064-.523.113-1.048.177-1.571a.033.033 0 0 1 0-.011c.024-.2.049-.392.078-.588.015-.117.033-.234.051-.351l.033-.2c.062-.355.137-.708.227-1.057l.04-.15.231-1.162.261-1.143q.253-1.149.422-2.315.3-1.86.526-3.728l.023-.181q.229-1.734.335-3.481.146-1.72.168-3.448a.138.138 0 0 0-.074-.118v-.221c0-.2.008.039.01-.184v-.614-.089A13.728 13.728 0 0 0-.644 18.3l.116-.006a15.825 15.825 0 0 0 1.876-.2.066.066 0 0 0 .06.061h.185l-.023.086a.076.076 0 0 0 .061.084l.177.008a4.025 4.025 0 0 0 .71-.017 4.317 4.317 0 0 0 .623-.135 3.625 3.625 0 0 0 .387-.088c.338-.1.673-.227 1.012-.33a2.378 2.378 0 0 1 1.064-.009 2.258 2.258 0 0 0 1.124.157 1.707 1.707 0 0 0 .238-.082l.073-.005h.038a6.666 6.666 0 0 0 1.207-.473.659.659 0 0 1 .418.031l.034.015.134.1q.081.1.161.192l.079.1a2 2 0 0 0 .487.457 1.215 1.215 0 0 0 .816.339 1.635 1.635 0 0 0 .539-.089 3.491 3.491 0 0 0 2.033.046 2.946 2.946 0 0 0 .765-.221 3.145 3.145 0 0 0 .343-.181c.467.2.909.458 1.36.684l.1.051a3.026 3.026 0 0 0 1.492.419 18.638 18.638 0 0 0 1.946-.24h.017l.089-.015.322-.056.26-.048.133.051a5.584 5.584 0 0 0 3.306.435 2.928 2.928 0 0 0 1.3-.481l.04-.029a1.225 1.225 0 0 0 .173-.106l.011-.009.01-.009h.005a1.454 1.454 0 0 0 .861-1.479 1.677 1.677 0 0 0-.005-.615q.285.336.581.666c.72.865 1.426 1.748 2.079 2.667l.15.213q.539.759 1 1.568t.965 1.58q.646.713 1.248 1.46l.171.214.577.758A7.091 7.091 0 0 1 33.3 27.4q.329.612.6 1.249c.059.129.114.259.169.389a12.9 12.9 0 0 1 .47 1.561 8.239 8.239 0 0 1 .213 1.178l.013.133c.016.157.028.313.035.47a.533.533 0 0 0-.094.068l-.1.035-.079.023c-.122.038-.334.116-.283.213l.257.489a.072.072 0 0 0-.021.089q.257.492.518.984a.071.071 0 0 0 .024.028 4.628 4.628 0 0 0-.428.223 2.507 2.507 0 0 0-.647.559 4.1 4.1 0 0 0-.543.382 4.044 4.044 0 0 0-.549.724 4.179 4.179 0 0 0-.351.774 1.569 1.569 0 0 0-.057.439c.161 1.134 1.461.357 1.486.258a3.445 3.445 0 0 1 .843-1.628l.012-.008c.266-.117.529-.232.8-.323.041.008.084.013.126.02-.048.068-.024.134.073.146a4.558 4.558 0 0 0 1.268.069l.647-.091a4.091 4.091 0 0 1 .766.391l.08.053.015.011A5.148 5.148 0 0 1 40.01 38.2q.044.1.084.2l.039.1v.005a7.381 7.381 0 0 1-.741 5.08q-.645 1.03-1.346 2.019l-.455.594q-.4.378-.789.777c-.04.04-.082.08-.125.118a3.4 3.4 0 0 1-.415.234c-.055.018-.11.036-.166.05a2.087 2.087 0 0 1-.855.207 3.1 3.1 0 0 1-1.15-.138l-.074-.024-.055-.02a3.015 3.015 0 0 1-.568-.478.207.207 0 0 0-.2-.019c-.047-.048-.093-.1-.137-.153a.088.088 0 0 0-.116-.009c-.126-.014-.468.179-.379.281.015.024.033.045.049.068a1.661 1.661 0 0 0-.173.1c-.279.077-.692.356-.659.439v.007a.947.947 0 0 0 .252.306l.035.026.078.054c-.11.069-.2.149-.157.2a.853.853 0 0 0 .071.117q-.339.418-.674.842a6.753 6.753 0 0 1-.83 1.353 5.8 5.8 0 0 1-.994 1.225c-.032.032-.065.063-.1.093-.285.21-.584.407-.894.6l-.134.081c-.071.042-.189.1-.133.2a.1.1 0 0 0 .024.032c-.2.128-.4.248-.607.36l-.02.012c-.079.05-.186.142-.073.216.1.064.35-.109.47-.189a.282.282 0 0 0 .076-.014c-.04.021-.079.044-.119.067l-.06.033c-.047.028-.275.179-.116.243a.327.327 0 0 0 .217-.059c.078-.039.156-.08.231-.122-.027.041-.027.082.04.109a.4.4 0 0 0 .068 0c-.157.1-.318.192-.484.28l-.027.017c-.07.045-.182.132-.1.206s.345-.093.41-.133l.194-.116a.144.144 0 0 0 .048.011c-.059.036-.113.074-.173.109l-.081.044c-.1.056-.246.149-.194.241s.207.016.308-.043l.108-.067.014-.008v.024c.05.087.175.03.262-.02l.069-.042.351-.212.173-.107A10.989 10.989 0 0 0 31 52.416a10.215 10.215 0 0 0 .881-.88 10.917 10.917 0 0 0 1.369-2.071c.007-.012 0-.043-.019-.076.044-.09.086-.182.129-.276a3.942 3.942 0 0 0 1.289.12 3.446 3.446 0 0 0 .672-.114 4.966 4.966 0 0 0 1.984-.807c.037-.024.071-.05.105-.074a4.677 4.677 0 0 0 .694-.478 11.553 11.553 0 0 0 1.213-1.16q.4-.478.761-.992t.732-1.016a8.765 8.765 0 0 0 1.284-3.534 7.094 7.094 0 0 0 .116-1.391 6 6 0 0 0-.109-1.014l.116-.113c.021.037.043.064.056.05l.3-.3a4.9 4.9 0 0 0 .61-.73 7.07 7.07 0 0 0 .911-1.829 6.358 6.358 0 0 0 .3-1.5c.013-.085.027-.171.037-.259a7.312 7.312 0 0 0-.1-2.037.108.108 0 0 0-.06-.088l-.026-.165a4.668 4.668 0 0 0 1.464-3.408 3.5 3.5 0 0 0-.272-1.241l-.02-.044a2.717 2.717 0 0 0 1.757-1.268l.113-.092A6.259 6.259 0 0 0 49 23.009a6.1 6.1 0 0 0 .518-1.843l.013-.137a11.8 11.8 0 0 0 .144-3.056 15.214 15.214 0 0 0 .433-1.916c.048-.311.081-.621.106-.932V15.052l.011-.139v-.069a18.423 18.423 0 0 0-1.466-8.277q-.138-.355-.284-.708l-.1-.245a32.086 32.086 0 0 0-3.991-4.533c-.464-.5.287-1.255.752-.751.894.966 1.853 1.891 2.718 2.884a3.752 3.752 0 0 0 .459.008 3.652 3.652 0 0 0 .774-.124 3.891 3.891 0 0 0 1.713-.71A2.155 2.155 0 0 0 52.139.671a1.555 1.555 0 0 0 0-.236 2.079 2.079 0 0 0-.156-1.165 2.012 2.012 0 0 0-.109-.3 1.957 1.957 0 0 0-.613-.773l-.017-.011c-.028-.029-.055-.058-.085-.085a1.5 1.5 0 0 0-.144-.116 7.269 7.269 0 0 0 .48-.92 3.766 3.766 0 0 0 .27-1.082c.017-.149.024-.3.027-.443.008-.068.013-.137.019-.206a3.614 3.614 0 0 0-.225-1.563c-.015-.037-.033-.074-.051-.113a3.179 3.179 0 0 0-.129-.332 3.125 3.125 0 0 0-.821-1.063 3.4 3.4 0 0 0-.623-.494 2.6 2.6 0 0 0-.448-.219 2.446 2.446 0 0 0-.955-.3h-.1a6.414 6.414 0 0 0-.428-2.282 2.754 2.754 0 0 0-.835-1.265 2.229 2.229 0 0 0-.867-.561l-.063-.022-.024-.007a2.276 2.276 0 0 0-1.014-.214 2.309 2.309 0 0 0-1.188.244 2.3 2.3 0 0 0-.23.142 3.924 3.924 0 0 0-.194-.345 5.16 5.16 0 0 0-.926-1.093c-.043-.039-.089-.073-.134-.11A5.4 5.4 0 0 0 42-14.7a4.609 4.609 0 0 0-1.344-.639 4.5 4.5 0 0 0-1.71-.277l-.12.005-.078.005a5.648 5.648 0 0 0-1.687.39 5.13 5.13 0 0 0-1.482.943 2.433 2.433 0 0 0-.367-.406c-.041-.036-.085-.068-.126-.1s-.065-.062-.1-.093a3.247 3.247 0 0 0-.51-.368 2.3 2.3 0 0 0-.659-.256 2.823 2.823 0 0 0-.729-.144zm2.734 54.734c-.024 0-1.256.46-1.87.758l-.03.015a10.757 10.757 0 0 0-1.684 1.053.18.18 0 0 0-.086.122c0 .656.16 1.457.712 1.1q.12-.077.241-.151l.122-.074A16.734 16.734 0 0 1 37.04 40.2c.092-.033-.588-1.058-.776-1 .109-.041-.424-.1-.442-.106zM23.185 10.139q1.2.128 2.4.252.764.088 1.531.154a10.911 10.911 0 0 0 2.3-.039 7.65 7.65 0 0 0 .8-.155c.18.131.366.255.556.373l2.113 1.613a38.628 38.628 0 0 1 4.051 3.589 23.465 23.465 0 0 1 5.071 7.87.437.437 0 0 1 .206.323c.2 1.206.774 2.306.982 3.508a3.73 3.73 0 0 1-.812 3.127.528.528 0 0 1-.684.054c-.046.091-.248.087-.318-.315a4 4 0 0 1-.806-1.2.443.443 0 0 1 .384-.626q-.18-.645-.407-1.278a17.63 17.63 0 0 0-1.741-3.574 20.167 20.167 0 0 0-2.154-2.711.063.063 0 0 0-.043-.018l-.164-.181c-.023-.025-.069-.023-.121-.009-.049-.052-.1-.1-.148-.157a.08.08 0 0 0-.134.005c-.084-.019-.237.072-.283.1-.08.053-.105.113-.037.188l.036.039a1.345 1.345 0 0 0-.253.141c-.246.054-.592.283-.532.351.126.131.249.266.37.4-.106.074-.176.147-.148.179a16.313 16.313 0 0 1 1.437 1.735 12.791 12.791 0 0 1 .906 1.427 17.961 17.961 0 0 1 1.044 2.163q.064.169.124.339a16.614 16.614 0 0 1 .911 3.817l.006.088c.026.47.036 1.727.085 2.027a6.607 6.607 0 0 1-.918.369c-.06.017-.121.033-.182.048a1.01 1.01 0 0 0-.106-.037 3.745 3.745 0 0 0-.911-.244 3.942 3.942 0 0 0-.63-.031h-.09c-.093 0-.185.009-.278.019l.012-.158a.092.092 0 0 0 .048-.073 8.772 8.772 0 0 0 0-1.792c-.04-.312-.086-.623-.137-.933-.052-.255-.112-.506-.177-.757a14.179 14.179 0 0 0-.682-2.062 31.7 31.7 0 0 0-3.082-5.361c-.837-1.255-1.628-2.537-2.494-3.771-.737-1.05-1.511-2.084-2.337-3.067a31.223 31.223 0 0 0-2.637-2.8c-.152-.14-.3-.275-.46-.409a21.757 21.757 0 0 0-2.868-2.094c-.039-.025-.108 0-.165.05l-.163-.1-.082-.049c-.025-.016-.053.011-.068.033l-.208-.1c-.05-.041-.1-.079-.153-.119q1.122-.052 2.24-.161zm-9.378-8.851a5.275 5.275 0 0 1 1.82-.048c.255.037.509.082.761.136a4.948 4.948 0 0 0-1.331 1.868c-.323.793.965 1.134 1.283.353a3.25 3.25 0 0 1 1.59-1.677 4.435 4.435 0 0 1 .439.278 4.833 4.833 0 0 1 .519.486 5.009 5.009 0 0 1 .891 1.4 5.482 5.482 0 0 1 .182.852l.023.2a6.594 6.594 0 0 1-.94 3.894h-.027a12.59 12.59 0 0 0-1.889-.827 17.652 17.652 0 0 0-1.62-.968 17.04 17.04 0 0 0-3.726-1.434l-.149-.037q-.456-.116-.918-.205l-.185-.035.02-.2a5.78 5.78 0 0 1 .8-2.164 5.683 5.683 0 0 1 1.236-1.43 4.5 4.5 0 0 1 .7-.32l.091-.032zM30.024.108a21.5 21.5 0 0 1 3.768 0q1.231.122 2.448.337a12.627 12.627 0 0 1 1.618.392l-.3.611a32.578 32.578 0 0 1-1.635 2.991 14.381 14.381 0 0 1-1.03 1.419 7.1 7.1 0 0 1-.831.9c-.08.1-.165.189-.251.277a4.88 4.88 0 0 1-.9.615 6.152 6.152 0 0 1-.819.5l-.112.05-1 .382-.161.044-.081.021-.152.032-.114-.062-.058-.03c-.032-.017-.055.016-.061.04a.055.055 0 0 0 .008.036l-.145-.078a4.166 4.166 0 0 1-.8.236c-.129.024-.258.042-.387.058l-.017.012L29 8.9h-.141a11.057 11.057 0 0 1-3-.209c-1.405-.141-2.81-.3-4.214-.442-.027 0-.037.009-.037.028l-.086-.008c-.125-.013-.271.2-.177.271a1.285 1.285 0 0 0-.2.161h-.032a5.767 5.767 0 0 0 .448-1.182l.136-.688a6.269 6.269 0 0 0 .063-.8c.009-.123.016-.239.016-.34s0-.191-.005-.287a8.326 8.326 0 0 1 .808-.286l2.333-.285c.467.017.934.05 1.4.1q.792.07 1.58.178c.049.005.137-.061.19-.138L28.31 5c.117.015.239-.219.085-.267l-.168-.063-.084-.03.048.005a.148.148 0 0 0 .059-.01l.37.046c.155.019.12-.185.011-.233l-.052-.019c.092-.057.173-.214.059-.265l-.015-.006c-.053-.021-.105-.039-.158-.058a.082.082 0 0 0 0-.048l.22.028c.02 0-.075-.137-.121-.165h-.008l-.105-.032a.41.41 0 0 0-.13-.154c-.386-.121-.745-.23-1.12-.313a.122.122 0 0 0-.064-.045c-.234-.056-.471-.1-.708-.137-.016-.024-.032-.041-.051-.043a9.112 9.112 0 0 0-1.765-.052c-.113.01-.226.023-.339.037-.217.024-.434.055-.649.1a8.887 8.887 0 0 0-1.581.423l-.118.045c-.129.048-.257.1-.383.153a5.337 5.337 0 0 0-.238-.669c-.015-.043-.031-.084-.048-.125l.129-.077c.028.053.085.094.122.072a15.751 15.751 0 0 1 2.933-1.556 15.021 15.021 0 0 1 1.771-.657c.3-.1.607-.184.913-.268.153-.032.306-.064.462-.09a13.312 13.312 0 0 1 2.437-.419zM-.443 2.216c.112.194.229.385.353.574a13.477 13.477 0 0 0 2.14 2.532c-.213 0-.426.008-.636.027a7.465 7.465 0 0 0-1.063.178c-.028-.022-.06-.033-.085-.015l-.09.062a7 7 0 0 0-2.07.935l.011-.083c0-.014 0-.028.007-.042-.011-.163-.013-.327-.008-.489a10.88 10.88 0 0 1 .829-2.731.081.081 0 0 0-.009-.064 8.737 8.737 0 0 1 .621-.884zM-.614-5.31a7.877 7.877 0 0 1 .827.2 6.693 6.693 0 0 1 1.5.4c.664.235 1.308.509 1.949.8a16.057 16.057 0 0 1 3.472 2.131c.068.052.133.1.2.158.238.206.47.421.689.648l.692.75c.282.295.607.562.862.88a1.658 1.658 0 0 1 .138.209l-.15.052c-.126.042-.105.279.02.244a1.242 1.242 0 0 0 .122-.042.148.148 0 0 0-.032.065c-.008.064.041.151.12.129a.887.887 0 0 0 .105-.038.5.5 0 0 1 .019.122.108.108 0 0 1-.021.007.555.555 0 0 0-.277.26.1.1 0 0 0 .121.127 1.041 1.041 0 0 0 .172-.066.2.2 0 0 0-.069.108c-.005.061.048.147.121.127A.924.924 0 0 0 10.3 1.8c.024.032.059.057.086.049l.052-.016-.04.041-.019.02a6.487 6.487 0 0 0-.945 1.305.345.345 0 0 0-.045-.04c-.12-.1-.243-.2-.367-.295l-.037-.033-.037-.031.278.092-.006-.012c-.02-.025-.081-.109-.109-.137L9.1 2.737a6.187 6.187 0 0 0-1.244-.867 5.575 5.575 0 0 0-.918-.479A18.861 18.861 0 0 0 4.593.517c-.12-.038-.24-.08-.36-.117C4.2.388 4.192.4 4.2.427L4.135.408c-.112-.036-.3.161-.226.252-.046.037-.091.079-.13.117L3.75.806 3.719.8c-.1-.029-.255.119-.357.223l-.076.077c-.057.061-.169.187-.032.236l.172.058c-.005.035.009.064.063.084l.177.063c-.035.031-.07.063-.1.1l-.051.049c-.06.061-.2.2-.077.256l.016.007.164.058c-.021.048-.016.093.056.119a26.2 26.2 0 0 1 2.8 1.135A8.7 8.7 0 0 0 8.63 4.1c.063.02.2-.074.254-.168L9 3.969l.057.016h.019A5.84 5.84 0 0 0 8.77 5.17c-.007.036-.012.073-.016.109-.149-.012-.3-.023-.446-.031a18.289 18.289 0 0 0-3.108.1A12.369 12.369 0 0 1 4 4.533c-.117-.09-.233-.183-.347-.278a13.322 13.322 0 0 1-1.865-1.978A13.156 13.156 0 0 1 .463.141a13.64 13.64 0 0 1-.809-2.195 10.33 10.33 0 0 1-.3-2.08c-.016-.117-.027-.234-.036-.351V-4.559c.014-.251.04-.502.068-.751zm9.747 8.891l.094.031c-.019.041-.036.081-.053.122l-.126-.1a.442.442 0 0 0 .085-.053zM-.428-7.193a.746.746 0 0 0-.543-.05c.181.013.362.03.543.05z" class="cls-3" transform="translate(7.125 15.643)"/>
            </g>
        </g>
        <g id="Introduction" transform="translate(0 37.861)">
            <g id="variations">
                <g id="images">
                    <g id="a-person_bust">
                        <g id="body_Whatever" transform="translate(0 30.789)">
                            <path id="_-Ink-2" d="M136.733 35.531a9.225 9.225 0 0 0 1.276-.3q.963-.254 1.892-.592a23.2 23.2 0 0 0 3.683-1.675 15.789 15.789 0 0 0 4.791-4.131l.086-.116c.715-.981 2.034-3.16.555-3.905a4.247 4.247 0 0 0 1.8-3c-.072-1.407-1.986-1.388-2.976-.791a7.4 7.4 0 0 0-1.621 1.476c-.539.6-1.115 1.168-1.714 1.716q-.238.218-.482.427l-.164.139a1.756 1.756 0 0 0 .068-.168 2.054 2.054 0 0 0-1.093-2.559 2.585 2.585 0 0 0-1.894.12l-.094.034a24.315 24.315 0 0 1-2.509.8c-3.487.887-7.126 1.034-10.7 1.477a40.6 40.6 0 0 0-4.148.706c-.522-2-5.271-5.832-8.942-8.472S103.664 9.793 98.714 8.7c-.915-.146-1.305.258-1.837 0A10.5 10.5 0 0 1 94.2 6.772a46.165 46.165 0 0 1-4.225-5.278c-.685-.883-2.26-.093-1.625.855l.311.463A23.446 23.446 0 0 0 93.2 8.135a10.006 10.006 0 0 0 3.3 1.783 6.351 6.351 0 0 0 3.284.254l.123-.162-.123.162a53.755 53.755 0 0 1-9.594 9.264 136.637 136.637 0 0 1-11.326 7.82l-.324.206a50.277 50.277 0 0 1-15.426-15.783 6.986 6.986 0 0 0 2.236-.879 7.378 7.378 0 0 0 2.163-1.549c1.292-1.418.923-1.122 1.156-2.843.014-.107-.143-.134-.215-.08-.7.524-.746-.742-1.038 0a4.447 4.447 0 0 1-1.424 2.061 10.674 10.674 0 0 1-2.341 1.277c-.42.18-2.505.641-2.743 1.023-3.6-.762-7.5 3-10.166 5.225-.268.223-.529.453-.9.8A32.034 32.034 0 0 0 44.6 23.6c-1.783 2.939-2.86 3.553-4.119 6.7a46.136 46.136 0 0 0-2.792 9.825c-.454 2.836-.732 5.716-.913 8.584l-.022.358q-4-5.654-8.185-11.2c.634-1.525-.068-3.082-1.255-4.26A14.134 14.134 0 0 0 22.436 31l-.229-.093a11.905 11.905 0 0 1-2.4-1.241c-.7-.5-1.21-1.186-1.944-1.645-1.067-.669-3-.527-3.054.935a5.534 5.534 0 0 0 .707 2.4 9.125 9.125 0 0 0 1.568 2.244.437.437 0 0 0 .094.076l.025.014a24.919 24.919 0 0 1-2.665.274 23.542 23.542 0 0 1-5.438-.397 21.051 21.051 0 0 1-5.232-1.73 14.141 14.141 0 0 0-4.296-1.778c-.147-.02-.3-.033-.447-.041-.254-.013-.508.257-.408.483.055.125.113.248.176.373a8.709 8.709 0 0 0 2.448 2.957l.081.061c-.371-.116-.737-.245-1.1-.392-2.116-.859-4.036-2.156-6.3-2.678-.107-.025-.216-.048-.325-.07a.626.626 0 0 0-.659 1.022l.2.226A24.532 24.532 0 0 0-3.4 35.128c.422.323.857.636 1.3.935q.28.19.564.373l.093.06q-.332-.212-.658-.432c-1.389-.379-2.759-.828-4.1-1.326a.79.79 0 0 0-1 .688c-.189 1.338 1.46 2.307 2.533 2.95A16.847 16.847 0 0 0-1.2 39.908a39.051 39.051 0 0 0 7.23 1.413l1.188.149c4.7.592 9.61 1.3 12.983 4.6a24.267 24.267 0 0 1 4.34 6.4c1.169 2.256 2.2 4.571 3.169 6.9 1.009 2.409 1.889 4.863 2.823 7.3.858 2.235 1.884 4.441 2.9 6.624l.16.345a48.735 48.735 0 0 0 8.319 12.887c.592.64 1.547-.268 1-.9a54.378 54.378 0 0 1-8.521-14.64c-.981-2.336-1.8-4.727-2.746-7.076l-.561-1.4c-.749-1.86-1.505-3.717-2.293-5.562a70.6 70.6 0 0 0-3.35-6.872l-.133-.235a20.427 20.427 0 0 0-4.7-5.9C16.993 41 12.181 40.3 7.528 39.738l-1.464-.174a48.1 48.1 0 0 1-5.853-.97 16.84 16.84 0 0 1-3.2-1.1q-.606-.286-1.179-.63 1.631.431 3.312.707c.549.09 1.093.158 1.635.2a30.793 30.793 0 0 0 4.211.052c.121-.006.161-.178.031-.2-1-.16-1.993-.359-2.986-.576l-.3-.066a.727.727 0 0 0-.206-.457 8.967 8.967 0 0 0-2.084-1.2 22.969 22.969 0 0 1-1.972-1.3q-.864-.635-1.662-1.339l-.16-.141.16.141c1.437.6 2.8 1.365 4.3 1.838a16.146 16.146 0 0 0 3.706.722l.078.006h.078a30.172 30.172 0 0 1 3.94.308.1.1 0 1 0 .061-.2 18.446 18.446 0 0 0-3.5-.787.335.335 0 0 0-.2-.207l-.3-.131a9.679 9.679 0 0 1-2.509-1.427 7.305 7.305 0 0 1-1.642-1.938c1.667.33 3.131 1.468 4.647 2.108a22.351 22.351 0 0 0 5.2 1.485l.2.032c3.356.5 7.391.44 10.4-1.132.1-.051.027-.167-.072-.153-.853.126-1.7.275-2.541.407a.377.377 0 0 0 .048-.576 8.066 8.066 0 0 1-1.741-2.657l-.073-.192c-.177-.454-.475-1.16-.17-1.569.291-.391.975-.337 1.385-.172.851.346 1.417 1.21 2.135 1.731a12.431 12.431 0 0 0 2.582 1.37l.192.079a14.568 14.568 0 0 1 4.5 2.3 4.46 4.46 0 0 1 1.431 2.211 2.3 2.3 0 0 1-.028 1.175c-.092.3-.284.487-.174.794a6.452 6.452 0 0 0 .916 1.221q.457.611.912 1.224.908 1.225 1.811 2.454 1.808 2.458 3.582 4.936.577.807 1.151 1.615l.573.809.3.426.516.731a.325.325 0 0 0 .007.2.954.954 0 0 0 .458.492l.037.019c3.013 4.291 5.977 8.61 8.972 12.911.16 1.313.309 2.627.439 3.941.3 2.974.5 5.956.562 8.942.031 1.445-.1 2.9-.167 4.343q-.051 1.034-.141 2.066l-.045.488a4.047 4.047 0 0 0 .174 1.974.849.849 0 0 0 1.388.26q8.371-.3 16.75-.452c10-.173 20-.146 30 .028q7.532.132 15.065.364c2.473.074-1.49.211.984.242 1.333.016 3.432-.421 3.539-1.773v-.041a5.069 5.069 0 0 0 .515.1.651.651 0 0 0 .224-.007l.035-.008c1.988.546 4.5-.233 6.39-.687l.156-.037a7.826 7.826 0 0 0 4.433-2.375c2.068-2.357 2.774-5.522 3.141-8.439a30.077 30.077 0 0 0-.055-8.282 28.963 28.963 0 0 0-.275-6.757c-.138-1.1-.3-2.194-.5-3.286-.109-.609-.251-1.212-.4-1.814-.058-.24-.106-.5-.18-.75l-.033-.107a1.274 1.274 0 0 0 .712-.136 1.466 1.466 0 0 0 .743-1.394 37 37 0 0 0-.378-4.96c-.193-1.628-.459-3.263-.806-4.871l-.09-.415a16.889 16.889 0 0 0-1.095-3.575 47.759 47.759 0 0 0 5.911-1.182 19.122 19.122 0 0 0 2.758-1.017zM39.2 52.577c.031.006.061.014.09.022.8.2 1.6.371 2.4.555a23.684 23.684 0 0 1 4.031 1.211c.27 3.071.67 6.132 1.051 9.195l.076.613c-.584-.977-1.183-1.947-1.808-2.9q-2.851-4.385-5.84-8.696zm89.29.337a8 8 0 0 0 .126 1.1c.073.57.133 1.143.208 1.712.152 1.145.282 2.291.377 3.441.061.734.1 1.471.136 2.207-.8-2.7-1.861-5.333-2.869-7.974a3.8 3.8 0 0 0 .518-.1l.3-.073c.178-.04.75-.167 1.207-.313zm-91.808-2.543l-.006.121a.683.683 0 0 0 .61.733l-.604-.854zm85.155-20.286a9.605 9.605 0 0 0-2.456.509l-.076.027c-.583.2-1.435.457-1.625 1.018-.054.159.09.29.256.3.632.046 1.378-.565 1.964-.771a10.105 10.105 0 0 1 6.665-.029c.086.031.14-.093.062-.13a9.186 9.186 0 0 0-4.79-.924zm17.86 3.638c.1-.078.195-.159.291-.24a9.178 9.178 0 0 0 1.923-2.226l.131-.224c.4-.705.9-1.71-.049-2.218a2.506 2.506 0 0 0-1.883-.043l-.123.037c-.282.089-.555.2-.8.3a25.91 25.91 0 0 0-2.959 1.631 10.168 10.168 0 0 1-3.316 1.222l-.115.021a5.436 5.436 0 0 0-3.181 1.182.312.312 0 0 0 .329.509c2.205-.67 4.539-.818 6.563-1.918.839-.455 1.632-.978 2.489-1.41a7.689 7.689 0 0 1 1.424-.567l.273-.073a.972.972 0 0 1 .48-.042c.245.076.167.194.091.4l-.008.021a8.614 8.614 0 0 1-3.858 3.96c-.36.211-.728.4-1.1.584a40.943 40.943 0 0 1-8.179 2.464q-1.615.406-2.15.559a3.553 3.553 0 0 0-1.724.371 3.024 3.024 0 0 0-1.053.863.851.851 0 0 0-.3.49 3.012 3.012 0 0 0-.27.884.482.482 0 0 0 .121.421c-.289 3.994.908 7.965 2.258 11.76l.134.374.086.237c1.455 4.024 3.126 8.019 3.871 12.214a28.159 28.159 0 0 1 .117 8.518l-.026.194c-.36 2.662-1.053 5.648-2.932 7.79A6.289 6.289 0 0 1 122.7 83.7l-.079.019a31 31 0 0 1-4.022.887 7.811 7.811 0 0 1-3.44-.692c-2.382-1.9-3.463-4.665-4.262-7.456-2.071-7.223-1.814-14.721-.64-22.05.613-3.829 1.446-7.625 2.276-11.42.415-1.9.863-3.79 1.234-5.693l.221-1.12c.122-.622.239-1.245.34-1.871a23.864 23.864 0 0 0 .223-2.514 12.779 12.779 0 0 1 4.715-4.113 18.678 18.678 0 0 1 4.328-1.584c4.29-1.042 8.967-.968 13.284-1.77a28.578 28.578 0 0 0 4.2-1.147l.188-.066c.631-.221 1.275-.345 1.588.326a1.26 1.26 0 0 1-.244 1.374c-.82.982-2.469 1.438-3.71 1.791a20.029 20.029 0 0 1-2.28.509 14.584 14.584 0 0 0-2.284.4.293.293 0 0 0 0 .575 7.381 7.381 0 0 0 2.812-.136 21.312 21.312 0 0 0 3.011-.767c.181-.06.368-.123.558-.191l.143-.051c-.148.1-.3.192-.446.288a.043.043 0 0 0 .037.076 15.545 15.545 0 0 0 6.024-3.825l.081-.083c.572-.59 1.875-2.377 2.973-1.879 1.031.467-.727 2.265-1.395 3l-.078.086a4.825 4.825 0 0 0-2.111.787 33.669 33.669 0 0 1-3.323 1.591c-2.262.958-4.663 1.634-6.9 2.64-.03.014-.007.048.021.045a30.084 30.084 0 0 0 4.21-.938l.061-.017.061-.018c.86-.254 1.708-.542 2.543-.849a27.812 27.812 0 0 0 2.713-1.158 8.779 8.779 0 0 1 2.6-1.2 1.32 1.32 0 0 1 .263-.006c1.06.08.184 1.663-.113 2.136a11.54 11.54 0 0 1-1.739 2.15 16.914 16.914 0 0 1-4.79 3.206c-.6.278-1.223.528-1.852.752z" class="cls-3" transform="translate(7.216 -1.11)"/>
                        </g>
                        <g id="face_Tired" transform="translate(64.09)">
                            <path id="_-Ink-3" d="M27.841 19.85zm.144-6.487a1.331 1.331 0 0 0-1.5.609 1.372 1.372 0 0 0 .207 1.606 7.853 7.853 0 0 0 2.556 1.515l.067.032c.855.413 1.734.792 2.624 1.122a23.693 23.693 0 0 0 2.694.8 13.05 13.05 0 0 0 1.457.271 7.707 7.707 0 0 0 1.053-.059.053.053 0 0 0 .027-.1c-.345-.217-.6-.5-.978-.7q-.588-.314-1.181-.619c-.8-.412-1.568-.87-2.338-1.331-.812-.486-1.606-1-2.377-1.546a11.4 11.4 0 0 0-2.311-1.601zm-9.638-.441a1.287 1.287 0 0 0-1.547.878c-.192.66.009.8-.5 1.273a15.827 15.827 0 0 1-1.29 1.043l-.653.485a19.151 19.151 0 0 1-3.734 2.294c-.115.05-.048.221.06.223a13.035 13.035 0 0 0 6.185-1.218 5.329 5.329 0 0 0 2.355-1.926c.611-1.048.593-2.768-.876-3.053z" class="cls-3" transform="translate(-10.563 -12.892)"/>
                        </g>
                        <g id="face_Calm" transform="translate(66.185 7.872)">
                            <path id="_-Ink-4" d="M23.4 40.937a4.864 4.864 0 0 0 5.122-1.486 3.359 3.359 0 0 0 .889-2.232.364.364 0 0 0-.087-.234.408.408 0 0 0-.217-.13.4.4 0 0 0-.254.022.336.336 0 0 0-.168.164c-.095.124-.189.247-.284.366a4.657 4.657 0 0 1-2.647 1.893 3.232 3.232 0 0 1-1.814-.132 3.885 3.885 0 0 1-1.594-1.118.852.852 0 0 0-.652-.321 1 1 0 0 0-.7.306 1.076 1.076 0 0 0-.324.7.936.936 0 0 0 .268.692 5.454 5.454 0 0 0 2.462 1.51zm.028-11.77c-.93.564-2.346 1.879-1.346 3.277 1.177 1.233 2.872-.181 3.708-.82.775-.5 1.645.779.926 1.357-6.036 4.46-8.486-3.667-3.758-4.478.521-.088.715.489.471.664zm8.7-2.482a1.039 1.039 0 0 1 1.04-.079 3.384 3.384 0 0 1 1.21 1.2 2.385 2.385 0 0 1 .4 1.406.318.318 0 0 0 .1.268.4.4 0 0 0 .225.1.585.585 0 0 0 .237-.021.352.352 0 0 0 .234-.2 2.924 2.924 0 0 0-.144-2.153 4.391 4.391 0 0 0-1.576-1.975 2.641 2.641 0 0 0-2.549-.012 4.692 4.692 0 0 0-1.535 1.6c-.09.131-.18.262-.273.39a.785.785 0 0 0-.132.73.944.944 0 0 0 .537.553.969.969 0 0 0 .748.011.95.95 0 0 0 .509-.536 2.841 2.841 0 0 1 .97-1.284zM16.95 27.747a.707.707 0 0 0 .592.071.842.842 0 0 0 .347-.207.689.689 0 0 0 .193-.348 1.425 1.425 0 0 1 .5-.833 1.008 1.008 0 0 1 .8-.21 1.535 1.535 0 0 1 .861.515 1.941 1.941 0 0 1 .186.272 1.924 1.924 0 0 0 .358.468.349.349 0 0 0 .221.083.334.334 0 0 0 .1-.015 1.03 1.03 0 0 0 .381-.826 1.507 1.507 0 0 0-.279-.768 3.044 3.044 0 0 0-1.626-1.149 2.423 2.423 0 0 0-1.9.41 2.691 2.691 0 0 0-1.1 1.683.9.9 0 0 0 .045.5.7.7 0 0 0 .321.354z" class="cls-3" transform="translate(-16.563 -24.744)"/>
                        </g>
                    </g>
                </g>
            </g>
        </g>
    </g>
</svg>
