<svg xmlns="http://www.w3.org/2000/svg" xmlns:xlink="http://www.w3.org/1999/xlink" width="166" height="200" viewBox="0 0 166 200">
  <defs>
    <style>
      .cls-1 {
        fill: none;
      }

      .cls-2 {
        clip-path: url(#clip-path);
      }

      .cls-3 {
        fill: #fff;
      }

      .cls-4 {
        fill-rule: evenodd;
      }
    </style>
    <clipPath id="clip-path">
      <rect id="ì‚¬ê°í˜•_5106" data-name="ì‚¬ê°í˜• 5106" class="cls-1" width="166" height="200" transform="translate(209 112)"/>
    </clipPath>
  </defs>
  <g id="img-point" class="cls-2" transform="translate(-209 -112)">
    <g id="ê·¸ë£¹_15300" data-name="ê·¸ë£¹ 15300" transform="translate(249.638 136.112)">
      <path id="íŒ¨ìŠ¤_9076" data-name="íŒ¨ìŠ¤ 9076" class="cls-3" d="M6.8,177.393c-1.6,15.1-2.949,35.16-4.382,50.409a1.834,1.834,0,0,0,1.826,1.826c6.666-.476,13.349-.683,20.031-.731,23.113-.666,46.565,2.877,69.42-1.563a1.8,1.8,0,0,0,3.475.1,8.4,8.4,0,0,0,.255-4.492c2.3-.147,4.99.229,6.682-1.683,2.465.385,3.584-4.593,4.569-6.337l0,0c1.519-4.949,8.042-28.788,3.621-31.442-.462-12.187-3.743-24.253-10.62-34.333a1.65,1.65,0,0,0-.232-1.193c-2.236-3.829-5.328-7.4-9.719-8.685a35.1,35.1,0,0,0-12.954-5.517,1.667,1.667,0,0,0-2.257.03c-5.322-1.987-11.264-4.439-13.861-9.865a5.348,5.348,0,0,0-.587-2.8c-.384-1.686-.442-4.417-2.86-2.908-4.492-2.57-16.676-.69-19.759,3.647-.918,1.2-.676,2.493-.9,3.837-.523,3.081-.671,6.441-2.647,9.635-2.6.989-5.51.709-7.937,2.218a1.4,1.4,0,0,0-2.46.634c-2.4,1.261-4.638,2.914-6.942,4.352-2.031,1.44-4.611,2.478-5.578,4.979a40.216,40.216,0,0,1-8,.088,1.85,1.85,0,0,0-2.063,2.683,79.824,79.824,0,0,1,5.025,12.972c.389,1.276,1.089,2.59.61,3.909A51.2,51.2,0,0,0,6.8,177.393" transform="translate(-0.788 -36.643)"/>
      <path id="íŒ¨ìŠ¤_9077" data-name="íŒ¨ìŠ¤ 9077" d="M.967,216.979c.49-4.067,1.063-8.791,1.679-13.388.262-1.962.534-3.941.8-5.857.938-6.84,1.908-13.914,2.588-20.9.249-2.559.452-5.088.6-7.517.052-.84.04-1.769.029-2.668-.012-.942-.024-1.914.036-2.792-.989-2.3-4.8-11.065-5.764-13.235a.784.784,0,0,1-.033-.714,1.032,1.032,0,0,1,.815-.42c2.711-.378,5.608-.666,8.859-.879.192-.014.542-.386.613-.551a5.708,5.708,0,0,1,1.326-1.638c.1-.095.192-.185.282-.275l.159-.157a23,23,0,0,1,1.855-1.621,23.478,23.478,0,0,1,2.14-1.491,25,25,0,0,1,2.289-1.248c.56-.269,1.135-.53,1.691-.782,1-.451,2.024-.916,3-1.445A25.811,25.811,0,0,0,26.2,138l.2-.133c.186-.126.407-.271.636-.4l0-.049v-.025c0-.073-.006-.148-.008-.225a1.339,1.339,0,0,1,.365-.988,1.507,1.507,0,0,1,1.077-.422,1.571,1.571,0,0,1,.976.324,1.329,1.329,0,0,1,.5.971c.282-.119.575-.237.858-.351h0a11.344,11.344,0,0,0,4.471-2.653,4.445,4.445,0,0,0,.723-1.194c.19-.439.341-.9.486-1.351v0c.063-.2.124-.383.187-.565l.067-.2a12.768,12.768,0,0,0,.367-1.742,10.645,10.645,0,0,1,.535-2.268c.017-.036.083-.058.182-.058.155,0,.336.051.338.115A28.516,28.516,0,0,1,37.8,131.2c0,.008-.186.75-.449,1.58a7.891,7.891,0,0,1-.966,2.254,9.392,9.392,0,0,1-2.673,2.157l-.1.058a11.7,11.7,0,0,1-3.305,1.464.82.82,0,0,1-.169.018.829.829,0,0,1-.13-.01,19.8,19.8,0,0,0,.444,2.759,19.158,19.158,0,0,0,.838,2.684,17.52,17.52,0,0,0,1.229,2.515,15.513,15.513,0,0,0,1.617,2.252,17.517,17.517,0,0,0,2.616,2.448,20.531,20.531,0,0,0,3.009,1.894,25.366,25.366,0,0,0,3.285,1.406,32.151,32.151,0,0,0,3.449.984,29.943,29.943,0,0,0,6.629.746,28.708,28.708,0,0,0,5.234-.477,26.489,26.489,0,0,0,5.016-1.449,24.092,24.092,0,0,0,4.6-2.451,22.547,22.547,0,0,0,4-3.479,25.641,25.641,0,0,0,2.2-2.792,28.112,28.112,0,0,0,1.807-3.061,37.48,37.48,0,0,0,1.569-3.714c.2-.525.407-1.068.622-1.6a1.543,1.543,0,0,1-.809.213,4.984,4.984,0,0,1-1.728-.466h0c-.141-.056-.286-.114-.429-.167l-3.778-1.407-.241-.089c-.309-.113-.624-.225-.931-.333a16.58,16.58,0,0,1-5.3-2.616,10.2,10.2,0,0,1-2.149-2.56,14.2,14.2,0,0,1-1.374-3.13,21.5,21.5,0,0,1-.871-6.734v-.009a.162.162,0,0,1,.167-.157.178.178,0,0,1,.17.121c.3.819.55,1.668.792,2.491a26.5,26.5,0,0,0,1.265,3.649,12.015,12.015,0,0,0,3.108,4.229,13.922,13.922,0,0,0,4.539,2.238l.064.022.119.042.451.159c.675.241,1.364.507,2.03.763,1.3.5,2.638,1.016,3.976,1.394a1.314,1.314,0,0,1,.223-.054.78.78,0,0,1-.026-.12l-.011-.084a.591.591,0,0,1,.433-.568,2.869,2.869,0,0,1,.306-.069A.513.513,0,0,1,78.52,134h.122a7.12,7.12,0,0,1,1.554.181,9.959,9.959,0,0,1,1.518.479,17.046,17.046,0,0,1,2.8,1.48c.317.1.576.188.813.276a46.189,46.189,0,0,1,4.911,2.142,32.662,32.662,0,0,1,4.663,2.877,26.462,26.462,0,0,1,4.036,3.7,34.719,34.719,0,0,1,3.17,4.259c.844,1.318,1.688,2.781,2.658,4.607l.206.389a80.539,80.539,0,0,1,4.328,9.757,78.78,78.78,0,0,1,4.564,20.909,76.29,76.29,0,0,1,.087,10.736,71.722,71.722,0,0,1-1.466,10.6c-.43,1.986-.926,3.884-1.474,5.644a49.713,49.713,0,0,1-2.047,5.461,27.2,27.2,0,0,1-1.211,2.439c-.444.793-20.222,1.3-22.239.211h0c-1.548-.833-3.149-1.7-4.742-2.511l-.37-.19c-1.352-.7-2.783-1.5-4.376-2.436a1.466,1.466,0,0,1-.208.333c-.121.141-.256.276-.386.406-.095.095-.193.192-.284.293a4.484,4.484,0,0,1-.767.689,1.692,1.692,0,0,1-.956.319,1.461,1.461,0,0,1-.181-.011,1.091,1.091,0,0,1-.768-.4,1.049,1.049,0,0,1-.164-.822,1.61,1.61,0,0,1,.622-1,3.8,3.8,0,0,1,1.064-.565l.309-.117.156-.058c-1.545-.939-3.062-1.894-4.341-2.7-3.566-2.259-6.979-4.553-10.144-6.82-1.769-1.267-3.584-2.6-5.549-4.084-.846-.639-1.715-1.3-2.655-2.029-.218-.169-.446-.339-.668-.5h0c-.42-.313-.855-.636-1.258-.98a2.562,2.562,0,0,1-1.175.392c-.047,0-.1.005-.144.005a2.389,2.389,0,0,1-1.175-.317,1.546,1.546,0,0,1-.745-.9,2.991,2.991,0,0,0-.833-.484c-.274-.095-.554-.172-.865-.258-.453-.124-.919-.238-1.368-.346l-.006,0c-.218-.053-.444-.107-.666-.163l-.281-.07-.58-.142-.013,0c-.821-.2-1.668-.405-2.487-.656a12.664,12.664,0,0,1-1.468-.535,7.219,7.219,0,0,1-1.355-.773,6.354,6.354,0,0,1-1.7-2.076l-.147-.252A3.53,3.53,0,0,0,32.277,189c-.161-.037-.328-.075-.489-.115l-.37-.093a22.049,22.049,0,0,1-3.091-.967,7.7,7.7,0,0,1-1.789-1.05,5.888,5.888,0,0,1-1.392-1.538,2.448,2.448,0,0,1-.332.11,9.649,9.649,0,0,1-2.151.319c-.466.019-.939.025-1.4.032l-.574.01c-.174,0-.352.014-.54.025h0c-.234.013-.475.029-.712.029a3.128,3.128,0,0,1-.841-.095,2.318,2.318,0,0,1-1.109-.818,10.55,10.55,0,0,1-.855-1.243v0c-.058-.093-.112-.181-.166-.265L16.248,183a68.753,68.753,0,0,1-3.371-6.2l-.39-.789c-1.638-3.309-3.228-6.708-4.723-10.105.065.925.1,1.751.107,2.524.023,2.275-.013,4.556-.107,6.782-.184,4.393-.538,8.947-1.052,13.535-.414,3.693-.923,7.441-1.414,11.064-.7,5.136-1.418,10.447-1.881,15.694m107.124-15.3a3.421,3.421,0,0,1-.5-.037c-.488-.071-.983-.17-1.511-.3a.956.956,0,0,1-.618-.44,1.1,1.1,0,0,1-.131-.69,1.245,1.245,0,0,1,.308-.689.9.9,0,0,1,.675-.306,1.091,1.091,0,0,1,.336.056c.485.159.937.286,1.381.389a5.494,5.494,0,0,1,1.008.37,72.109,72.109,0,0,0,.352-11.591,75.721,75.721,0,0,0-1.934-13.515.465.465,0,0,1-.228.059.588.588,0,0,1-.179-.03l-.559-.186-.012,0a19.588,19.588,0,0,0-2.64-.749,1.072,1.072,0,0,1-.776-1.02.91.91,0,0,1,.144-.533,1.136,1.136,0,0,1,.923-.533.777.777,0,0,1,.271.047,7.848,7.848,0,0,1,2.708,1.527c-.437-1.706-.935-3.408-1.48-5.059a76.2,76.2,0,0,0-3.878-9.58,60.233,60.233,0,0,0-5.291-8.871c-.583-.8-1.2-1.578-1.842-2.3a28.48,28.48,0,0,0-2.037-2.076,27.667,27.667,0,0,0-2.241-1.852,28.087,28.087,0,0,0-2.456-1.626A58.909,58.909,0,0,0,85.074,138c-1.274-.589-2.512-1.264-3.711-1.916-.385-.21-.784-.427-1.18-.64-.353-.067-.819-.157-1.285-.262a3.939,3.939,0,0,0-.464.093,1.447,1.447,0,0,1,.447.819.185.185,0,0,1,.159.137,11.489,11.489,0,0,1-.877,6.674,21.139,21.139,0,0,1-1.614,3.1,28.773,28.773,0,0,1-1.959,2.746,24.125,24.125,0,0,1-2.852,2.976,3.8,3.8,0,0,1,.539.153l.132.045c.17.058.351.12.525.193a1.884,1.884,0,0,1,.671.453,1.705,1.705,0,0,1,.385.718,1.466,1.466,0,0,1-.254,1.286,1.523,1.523,0,0,1-.51.432,1.44,1.44,0,0,1-.671.166h-.009a1.627,1.627,0,0,1-1.292-.563c-.141-.169-.27-.352-.378-.511l-.191-.278a2.838,2.838,0,0,1-.275-.493,1.868,1.868,0,0,1-.11-.422,27.137,27.137,0,0,1-3.454,2.233,27.582,27.582,0,0,1-3.731,1.681,28.107,28.107,0,0,1-4.948,1.295,30.866,30.866,0,0,1-5.094.417,33.508,33.508,0,0,1-5.485-.458,31.581,31.581,0,0,1-7.5-2.182,22.172,22.172,0,0,1-6.511-4.257,22.52,22.52,0,0,1-2.472-2.811,21.728,21.728,0,0,1-1.947-3.168A20.591,20.591,0,0,1,27.8,142.2a19.541,19.541,0,0,1-.7-3.658,12.855,12.855,0,0,1-2.436,2.1,28.517,28.517,0,0,1-3.319,1.745c-.386.181-.785.369-1.175.561a23.647,23.647,0,0,0-4.3,2.649,21.911,21.911,0,0,0-1.911,1.7c-.2.2-.392.42-.578.633-.154.177-.313.359-.477.531,1.33-.07,2.715-.131,4.236-.185.325-.011.659-.029.982-.046.569-.03,1.158-.061,1.735-.061.358,0,.68.012.983.036a3.109,3.109,0,0,1,1.524.514,3.831,3.831,0,0,1,1.1,1.181,57.212,57.212,0,0,1,3.272,6.349l.01.021c.106.229.216.465.324.7l.428.914c.381.818.689,1.5.969,2.142a6.177,6.177,0,0,1,.755-.447l.179-.091a3.79,3.79,0,0,1,1.6-.342l.152-.006h.025a.5.5,0,0,1,.468.294.655.655,0,0,1-.089.685c-.1.123-.2.251-.3.374a5.375,5.375,0,0,1-.677.773c-.126.111-.243.228-.356.341a3.439,3.439,0,0,1-.839.676,28.051,28.051,0,0,1,1.223,4.095c.551.109,1.113.231,1.669.362,2.171.51,4.324,1.162,6.171,1.733.2.062.405.124.589.18h0c.45.136.914.278,1.368.428a1.185,1.185,0,0,1-.227-.648,3.88,3.88,0,0,1,.581-1.844h0a8.815,8.815,0,0,0,.374-.811l.088-.227c.2-.5.423-.995.64-1.472h0c.109-.239.222-.488.331-.735a.4.4,0,0,1,.389-.225.443.443,0,0,1,.462.337,11.643,11.643,0,0,1,.146,1.432,7.6,7.6,0,0,1-.087,1.435c-.017.108-.033.218-.05.336v.006a9.82,9.82,0,0,1-.274,1.4,2.558,2.558,0,0,1-.666,1.176,1.166,1.166,0,0,1-.519.282,9.6,9.6,0,0,1,2.19,1.21,22.938,22.938,0,0,1,3.952,4.172l.685.871c.806,1.024,1.662,2.164,2.7,3.592h.021a2.775,2.775,0,0,1,1.6.545.874.874,0,0,1,.65-.306h.026a3.094,3.094,0,0,1,1.072.234,8.641,8.641,0,0,1,.973.489l.26.144.821.447c.606.33,1.143.622,1.643.893.859.465,1.734.931,2.58,1.384l.005,0,.006,0c.692.369,1.408.751,2.111,1.13,3.091,1.666,6.279,3.3,9.474,4.866,2.212,1.083,4.538,2.113,6.913,3.064,2.294.918,4.69,1.785,7.123,2.576a13.039,13.039,0,0,1-.146-1.814c-.006-.165-.012-.335-.019-.5-.093-2.07-.155-3.956-.188-5.766-.04-2.19-.015-3.974.079-5.613l.012-.2c.008-.14.014-.285.021-.424v0a23.535,23.535,0,0,1,.2-2.417,7.2,7.2,0,0,1,.7-2.281.138.138,0,0,1,.126-.077.177.177,0,0,1,.163.114,23.729,23.729,0,0,1,.862,4.16v0c.047.321.1.655.146.978.1.611.183,1.247.269,1.945.06-.02.124-.034.192-.05a4.07,4.07,0,0,1,.851-.091,3.616,3.616,0,0,1,.464.029.529.529,0,0,1,.457.481.408.408,0,0,1-.334.434l-.087.025a4.049,4.049,0,0,0-.923.468c-.144.09-.293.183-.446.265.067.67.13,1.36.189,2.107.152,1.914.272,3.7.365,5.462.017.319.038.643.059.957.036.542.073,1.1.088,1.653a3.617,3.617,0,0,1-.137,1.085c.87.258,1.737.507,2.578.737l.115.032a31.771,31.771,0,0,1,3.435,1.122,15.52,15.52,0,0,1,3.136,1.66c.36.252.465.552.411.725a.231.231,0,0,1-.24.161.658.658,0,0,1-.309-.094,20.088,20.088,0,0,0-5.8-2.155l-1.418-.27c-.768-.148-1.523-.3-2.245-.452a1.882,1.882,0,0,1-.274.652l-.678,1.043a1.193,1.193,0,0,1-.993.56,1.115,1.115,0,0,1-.685-.239,1.084,1.084,0,0,1-.433-.757,1.275,1.275,0,0,1,.317-.949l.655-.768c-1.755-.405-3.334-.827-4.826-1.285a83.262,83.262,0,0,1-8.3-3.193l-1.57-.677c-2.9-1.249-5.91-2.7-9.475-4.568-1.864-.977-3.662-1.976-5.175-2.824-.779-.438-1.618-.911-2.564-1.447-.153-.087-.308-.17-.459-.251l-.252-.137a13.468,13.468,0,0,1,.139,2.809l-.016.553a22.867,22.867,0,0,1-.408,3.814,15.12,15.12,0,0,1-.94,3.022,13.073,13.073,0,0,1-1.592,2.731c-.078.1-.159.205-.245.312.168.126.337.257.5.383s.348.269.523.4c.813.608,1.648,1.225,2.483,1.834,1.552,1.131,3.169,2.277,4.807,3.407,3.169,2.184,6.478,4.371,9.836,6.5,5.55,3.52,10.7,6.572,15.734,9.33a4.4,4.4,0,0,0,.083-.57l0-.032a.957.957,0,0,1,.33-.628.98.98,0,0,1,.627-.24.811.811,0,0,1,.725.442,4.124,4.124,0,0,1,.448,1.1,3.274,3.274,0,0,1,.054,1.151c.86.458,1.647.872,2.406,1.265l.188.1c.343.179.693.365,1.032.546,1.473.785,13.213.475,13.691-.084a15.492,15.492,0,0,0,2.364-3.874,42.306,42.306,0,0,0,1.576-4.373c.4-1.315.783-2.745,1.206-4.5l.122-.514c.55-2.324.992-4.725,1.313-7.137a4.7,4.7,0,0,1-.754.069m-86.408-32.9a5.842,5.842,0,0,0-1.618.245c-.672.224-1.03.58-1.065,1.059a1.091,1.091,0,0,0,.264.828,2.548,2.548,0,0,0,1.447.677,12.518,12.518,0,0,0,1.723.19c.156.01.3.019.428.029l.1.009c1.015.1,2.04.243,3.046.413a17.652,17.652,0,0,1,2.4.642l.625.2.15.046.536.162a21.61,21.61,0,0,1,5,1.969.167.167,0,0,1,.081.194.19.19,0,0,1-.181.137.177.177,0,0,1-.038,0c-.929-.179-1.855-.436-2.751-.685a27.869,27.869,0,0,0-3.5-.812l-.22-.031c-1.967-.282-4-.572-6.007-.734a10.031,10.031,0,0,1-2.511-.436,3.23,3.23,0,0,1-1.906-1.578,2.459,2.459,0,0,1-.279-1.009,2.411,2.411,0,0,1,.152-.973,2.881,2.881,0,0,1,1.334-1.5,5.1,5.1,0,0,1,1.519-.528,8.674,8.674,0,0,1,1.61-.135c.476,0,.952.027,1.313.052l.263.018c.355.024.74.06,1.21.11-.06-.1-.113-.2-.169-.315-.028-.056-.057-.114-.088-.172-.23-.437-.478-.892-.738-1.354-.1-.18-.229-.375-.363-.58h0a3.773,3.773,0,0,1-.847-2.031.412.412,0,0,1,.122-.272.37.37,0,0,1,.258-.1.407.407,0,0,1,.19.047,3.581,3.581,0,0,1,1.282,2.039c.053.147.1.286.152.414l.021.053c.046.113.1.238.157.372a5,5,0,0,1,.556,1.965c.75.093,1.535.216,2.332.365-.8-1.361-1.488-2.763-2.271-4.449a1.134,1.134,0,0,1-.079-.171l-.234-.5-.007-.015c-.257-.556-.523-1.131-.791-1.7l-.1-.206h0c-1.081-2.281-2.2-4.638-3.391-6.915-.087-.166-.172-.346-.263-.534a8.065,8.065,0,0,0-.78-1.387A2.011,2.011,0,0,0,21,149.572a10.529,10.529,0,0,0-1.515-.066c-2.628,0-7.537.246-9.321.372-2.793.2-5.247.44-7.5.741.63,1.11,1.2,2.245,1.852,3.608l.437.912c.9,1.87,1.765,3.794,2.6,5.653h0c.426.942.866,1.918,1.3,2.874q.2.443.407.887l.067.146c1.5,3.266,3.044,6.642,4.682,9.907a.74.74,0,0,1,.331-.538,5.166,5.166,0,0,1,2.137-.845,16.975,16.975,0,0,1,2.337-.2h.028l.245-.011.694-.032c1.385-.061,2.79-.091,4.176-.091.5,0,1,0,1.5.012,2.066.032,4.108.158,6.068.373a57.978,57.978,0,0,1,6,.97.087.087,0,0,1-.018.17h0c-4.589-.218-8.1-.315-11.375-.315H25.9c-1.881,0-3.788.063-5.664.178l-.1.007c-.26.014-.527.023-.808.033h0c-.578.02-1.176.04-1.763.109a6.5,6.5,0,0,0-1.686.4,8.9,8.9,0,0,0,3.024,1.212l.4.1a40.041,40.041,0,0,0,4.978.859c.352.043.713.086,1.062.127h0a30.288,30.288,0,0,1,8.394,1.811.612.612,0,0,1,.344.722.746.746,0,0,1-.683.631h-.027c-.923-.038-1.93-.058-3.077-.058-1.068,0-2.155.017-3.2.032h0c-.709.011-1.441.021-2.161.027l-.235,0h-.01c-1.116.009-2.27.019-3.4.019H20.7l-.749,0c-.373,0-.758,0-1.137,0h-.471a3.253,3.253,0,0,0-.688.058c-.259.059-.4.161-.408.306.058.1.119.2.172.3l.035.06a3.308,3.308,0,0,0,1.118.335c.08.014.156.027.209.039l.407.089c.545.117,1.093.229,1.631.332,1.445.276,2.877.506,4.257.685,2.827.364,5.657.508,8.3.609a.538.538,0,0,1,.408.192.6.6,0,0,1,.131.392.567.567,0,0,1-.138.369.516.516,0,0,1-.4.166h0c-1.254,0-2.541-.054-3.935-.161-1.225-.093-2.507-.228-3.917-.411a61.693,61.693,0,0,1-7.251-1.294c.262.413.471.723.675,1.009.071.1.137.189.2.273.015.019.02.033.017.04a.013.013,0,0,1-.012.006h-.01l.03.012.034.016a5.9,5.9,0,0,0,.643.03l1.416,0,.448,0,.485,0a9.783,9.783,0,0,1,2.415.229l-.009-.036h0c-.016-.066-.032-.134-.045-.2a.134.134,0,0,1,.03-.113.14.14,0,0,1,.1-.052.112.112,0,0,1,.1.065q.135.244.293.474h.01a.453.453,0,0,1,.225.058l.042.023a.494.494,0,0,1,.224.55l.065.069a6.567,6.567,0,0,0,1.943,1.377,11.723,11.723,0,0,0,2.313.8c.465.114.979.2,1.524.284a15.425,15.425,0,0,1,2.473.538,3.967,3.967,0,0,1,1.967,1.29,7.813,7.813,0,0,1,.57.9,4.4,4.4,0,0,0,1.1,1.43,5.539,5.539,0,0,0,1.142.671,10.818,10.818,0,0,0,1.247.456l.2.058c.817.242,1.658.451,2.473.653.313.078.635.157.955.239l.588.153h0c.379.1.771.2,1.158.293a5.655,5.655,0,0,0,1.315.16,6.9,6.9,0,0,0,.816-.052.992.992,0,0,1,.111-.007,1.012,1.012,0,0,1,.78.4c.151-.171.293-.352.411-.506l.287-.373a8.037,8.037,0,0,0,.907-1.532,16.084,16.084,0,0,0,1.095-4.322c.126-.9.194-1.815.259-2.7.049-.67.1-1.364.177-2.043a4.3,4.3,0,0,0-.073-1.8,2.7,2.7,0,0,0-.464-.893c-.973-.911-1.82-1.721-2.593-2.479-.948-.929-1.867-1.914-2.755-2.865-.383-.409-.779-.834-1.174-1.25a10.252,10.252,0,0,0-4.072-2.73c-1.353-.486-2.715-.912-4.342-1.4l-.793-.238c-1.564-.468-3.417-1-5.3-1.387a26.858,26.858,0,0,0-5.438-.612h-.321m-5.056,11.845c.142,0,.282,0,.418,0H19.5l.409,0c.128,0,.24,0,.341,0,1.219-.036,2.513-.065,4.073-.093.795-.014,1.6-.023,2.386-.032l1.152-.014c-1.135-.187-2.3-.347-3.425-.5l-1.294-.18a33.691,33.691,0,0,1-4.87-.987,16.651,16.651,0,0,1-2.059-.721,5.508,5.508,0,0,1-1.8-1.208c.778,1.526,1.523,2.921,2.28,4.266a1.749,1.749,0,0,1,.465-.269,5.318,5.318,0,0,1,1.912-.262m-5.3,42.072c.06-.694.122-1.412.175-2.12.084-1.108.17-2.3.262-3.647-.473.047-.95.137-1.412.223-.274.052-.558.106-.835.149a1.616,1.616,0,0,1-.251.019,1.248,1.248,0,0,1-.769-.241,1.07,1.07,0,0,1-.4-.725,1.25,1.25,0,0,1-.01-.144,1.139,1.139,0,0,1,1.129-1.147H11.8a3.825,3.825,0,0,1,1.474.233,9.211,9.211,0,0,1,1.021.488c.105-1.569.2-3.157.3-4.719.2-3.357.357-6.472.49-9.523.067-1.525.161-3.108.287-4.841l.012-.161c.023-.35.041-.71.058-1.059v0a18.958,18.958,0,0,1,.367-3.36.158.158,0,0,1,.159-.117.156.156,0,0,1,.159.117,18.191,18.191,0,0,1,.322,3.535c.009.344.019.7.034,1.048l.019.44c.059,1.507.08,2.988.065,4.4-.036,3.265-.128,6.519-.275,9.674-.148,3.17-.352,6.42-.61,9.662l-.035.439-.037.48C15.5,221.61,13.7,222.114,13.774,221.227Zm24.127-.2h0c.212-.064.412-.124.6-.189l.08-.027.217-.076.012,0a6.709,6.709,0,0,1,2.245-.515,3.686,3.686,0,0,1,.5.035.418.418,0,0,1,.315.254.535.535,0,0,1-.012.491C41.607,221.379,36.977,221.3,37.9,221.023Zm17.857-2.718a1.478,1.478,0,0,1-.444-.068,3.334,3.334,0,0,1-1.374-.892,11.559,11.559,0,0,1-1.066-1.319l-.007-.009-.126-.172-.124-.168a18.087,18.087,0,0,0-1.7-1.9l-.647-.647a.5.5,0,0,1-.115-.563.559.559,0,0,1,.5-.351.537.537,0,0,1,.262.07l.354.2.005,0a20.807,20.807,0,0,0,2.743,1.364l.371.14h0a11.455,11.455,0,0,1,1.574.677,3.4,3.4,0,0,1,1.245,1.1,1.449,1.449,0,0,1,.24.811,1.674,1.674,0,0,1-.209.788,1.747,1.747,0,0,1-1.489.942Zm41.367-4.863a4.578,4.578,0,0,1-1.457-1.867,16.184,16.184,0,0,1-.809-2.346c-.153-.53-.3-1.03-.47-1.5a.419.419,0,0,1,.031-.4.524.524,0,0,1,.431-.2.559.559,0,0,1,.454.212,7.851,7.851,0,0,0,1.261,1.238c.249.21.508.428.756.669l.057.054c.177.166.37.328.576.5a4.719,4.719,0,0,1,1.342,1.464,1.929,1.929,0,0,1,.188,1,1.5,1.5,0,0,1-.437.918,1.714,1.714,0,0,1-1.176.47,1.275,1.275,0,0,1-.747-.222m-73.091.089a1.387,1.387,0,0,1-.364-.052,6,6,0,0,1-2.021-1.17c-.144-.111-.293-.225-.441-.334l-.08-.06a7.148,7.148,0,0,1-1.744-1.86.616.616,0,0,1,0-.626.331.331,0,0,1,.052-.067.881.881,0,0,1,.729-.26,5.057,5.057,0,0,1,1.721.416l.228.1c.143.063.293.127.438.188l.008,0a7.134,7.134,0,0,1,2.423,1.418,1.32,1.32,0,0,1,.36.723,1.384,1.384,0,0,1-.1.747,1.418,1.418,0,0,1-.469.593,1.252,1.252,0,0,1-.738.24Zm45.994-11.4a1.749,1.749,0,0,1-.523-.471,1.044,1.044,0,0,1-.174-.577L69.324,201a1.155,1.155,0,0,1,.271-.793,1.431,1.431,0,0,1,.7-.475,16,16,0,0,0,3.822-1.626.435.435,0,0,1,.231-.068.469.469,0,0,1,.4.24.455.455,0,0,1,.01.465,8.6,8.6,0,0,1-1.456,1.97,7.708,7.708,0,0,1-1.989,1.424,1.449,1.449,0,0,1-.653.166,1.26,1.26,0,0,1-.624-.168m-33.7-.444a1.213,1.213,0,0,1-.531-.363.8.8,0,0,1-.205-.6,1.784,1.784,0,0,1,.246-.782,1.909,1.909,0,0,1,.6-.553c.215-.141.43-.29.638-.434.229-.159.466-.323.7-.476a10.764,10.764,0,0,1,1.315-.738,6.061,6.061,0,0,1,1.418-.468.256.256,0,0,1,.052,0,.214.214,0,0,1,.166.073.239.239,0,0,1,.047.2,4.146,4.146,0,0,1-.545,1.434,6.615,6.615,0,0,1-.963,1.221l-.032.032a8.539,8.539,0,0,1-1.138,1,2.493,2.493,0,0,1-1.374.532,1.291,1.291,0,0,1-.4-.061m-29-1.023a1.256,1.256,0,0,1-.812-.291,1.006,1.006,0,0,1-.4-.811,2.1,2.1,0,0,1,.449-1.152,4.579,4.579,0,0,1,.84-.9l.2-.155c.139-.113.278-.23.411-.343.248-.21.5-.428.771-.619a8.4,8.4,0,0,1,.918-.544c.172-.093.35-.188.521-.288a.642.642,0,0,1,.332-.088.812.812,0,0,1,.648.336.6.6,0,0,1,.073.561c-.04.106-.08.218-.118.325h0a9.1,9.1,0,0,1-.508,1.227,6.569,6.569,0,0,1-.9,1.169c-.08.09-.156.175-.231.262l-.045.052a4.991,4.991,0,0,1-.954.833,2.22,2.22,0,0,1-1.19.42M22.023,192.7a5.957,5.957,0,0,1-.679-1.945c-.017-.092-.04-.184-.063-.282v0a3.1,3.1,0,0,1-.111-.7,2.8,2.8,0,0,1,.093-.6c.016-.071.033-.144.047-.214a.512.512,0,0,1,.521-.387.558.558,0,0,1,.268.066,4.647,4.647,0,0,1,1.447,1.3,6.759,6.759,0,0,1,.921,1.73,1.35,1.35,0,0,1-.344,1.3,1.208,1.208,0,0,1-.946.392h-.027a1.341,1.341,0,0,1-1.129-.661m56.238-3.767a1.883,1.883,0,0,1-1.049-.8,1.812,1.812,0,0,1-.236-1.151,1.879,1.879,0,0,1,.53-1.1,1.925,1.925,0,0,1,1.242-.547c.063,0,.126-.008.191-.008a3.787,3.787,0,0,1,1.972.638,4.782,4.782,0,0,1,.837.672,3.858,3.858,0,0,1,.616.8.619.619,0,0,1-.218.833,5.657,5.657,0,0,1-2.829.819,3.352,3.352,0,0,1-1.056-.156m18.35-2.146a1.312,1.312,0,0,1-.178-.593l-.01-.1a1.254,1.254,0,0,1,.177-.688,1.156,1.156,0,0,1,.5-.5,13.277,13.277,0,0,1,1.844-.6c.433-.116.881-.238,1.309-.388.218-.076.437-.169.648-.259a8.465,8.465,0,0,1,.833-.319,7.391,7.391,0,0,1,.938-.2c.194-.032.395-.067.587-.109a.276.276,0,0,1,.058-.006.332.332,0,0,1,.282.17.24.24,0,0,1-.016.257l-.157.23a7.875,7.875,0,0,1-.762,1.007,6.361,6.361,0,0,1-1.122.862l-.069.045-.175.117-.186.126-.013.009a10.546,10.546,0,0,1-2.941,1.566,1.369,1.369,0,0,1-.35.045,1.42,1.42,0,0,1-1.2-.678m-34.55-4.157a.88.88,0,0,1-.133-1.043,3.281,3.281,0,0,1,.672-.94l.043-.043c.381-.37.782-.725,1.17-1.07.28-.247.568-.5.847-.763a.461.461,0,0,1,.319-.126.5.5,0,0,1,.39.191.438.438,0,0,1,.069.389,7.677,7.677,0,0,1-1.1,2.428,4.263,4.263,0,0,1-.714.793,1.583,1.583,0,0,1-.973.447.823.823,0,0,1-.593-.261m15.786-12.925a1.471,1.471,0,0,1-.723-.2,26.862,26.862,0,0,1-2.872-1.847l-.073-.054c-.117-.086-.236-.172-.351-.254l0,0a5.781,5.781,0,0,1-1.837-1.783.368.368,0,0,1-.014-.361.449.449,0,0,1,.354-.231,3.482,3.482,0,0,1,.359-.018,6.758,6.758,0,0,1,2.191.486c.179.06.363.123.549.182a27.486,27.486,0,0,1,3.207,1.3,1.258,1.258,0,0,1,.653.637,1.334,1.334,0,0,1,.065.826,1.783,1.783,0,0,1-.53.914,1.439,1.439,0,0,1-.973.4m-25.829-3.816a1.16,1.16,0,0,1-1.044-1.228,1.178,1.178,0,0,1,.256-.787,1.154,1.154,0,0,1,.87-.383c1.5-.06,3.109-.132,4.739-.238h.036a.4.4,0,0,1,.4.35.5.5,0,0,1-.317.565c-1.561.539-3.108,1.11-4.549,1.647a1.152,1.152,0,0,1-.4.076Zm41.862-3.781a1.488,1.488,0,0,1-1.056-.453,2.021,2.021,0,0,1-.55-1.028,1.638,1.638,0,0,1,.078-.973,1.334,1.334,0,0,1,.726-.707,8.55,8.55,0,0,1,2.6-.566l.436-.042c.121-.012.244-.029.363-.045a5.489,5.489,0,0,1,.7-.061c.057,0,.112,0,.165,0,.262.019.529.059.787.1.2.031.409.063.613.083a.484.484,0,0,1,.377.269.315.315,0,0,1-.037.324,10.052,10.052,0,0,1-.886,1.09,5.1,5.1,0,0,1-1.1.871,6.623,6.623,0,0,1-3.169,1.134h-.053Zm-73.02-4.053a1.172,1.172,0,0,1-.934-.512,10.512,10.512,0,0,1-1.215-2.137,10.265,10.265,0,0,1-.676-2.361,1.233,1.233,0,0,1,.249-1.039,1.169,1.169,0,0,1,.9-.4,1.145,1.145,0,0,1,.751.274,1.319,1.319,0,0,1,.423.853l.007.043a7.213,7.213,0,0,1,1,1.438l.153.277A4.757,4.757,0,0,1,22.095,156a2.251,2.251,0,0,1,0,.782,1.953,1.953,0,0,1-.324.76,1.252,1.252,0,0,1-.42.385,1.016,1.016,0,0,1-.491.127ZM81.646,147.91l-.047-.046a3.49,3.49,0,0,1-.843-1.076,3.946,3.946,0,0,1-.225-1.056c-.011-.1-.024-.2-.038-.3a7.218,7.218,0,0,1,.17-2.54.647.647,0,0,1,.262-.4.763.763,0,0,1,.438-.133.821.821,0,0,1,.546.2,8.867,8.867,0,0,1,.866.894,6.145,6.145,0,0,1,.7,1.021l.041.073.082.148h0a4.536,4.536,0,0,1,.438.949,3.187,3.187,0,0,1-.052,1.417c-.008.036-.014.073-.021.109l-.023.129a1.11,1.11,0,0,1-.47.738,1.469,1.469,0,0,1-.833.248,1.415,1.415,0,0,1-.993-.379m-57.5-1.223a1.328,1.328,0,0,1-.285-.034.7.7,0,0,1-.4-.27.763.763,0,0,1-.156-.455c.005-.6.392-1.041,1.151-1.324a6.383,6.383,0,0,1,1.967-.323h.144a.448.448,0,0,1,.472.367.553.553,0,0,1-.339.618,4.788,4.788,0,0,0-1.293.761l-.06.049A1.924,1.924,0,0,1,24.146,146.687Z" transform="translate(0 -37.549)"/>
      <path id="íŒ¨ìŠ¤_9078" data-name="íŒ¨ìŠ¤ 9078" class="cls-3" d="M34.709,69a34.915,34.915,0,0,0,.743,16.787c1.293,4.88,3.561,10.288,8.639,12.548,12.511,5.523,27.111.328,34.855-10.554a1.643,1.643,0,0,0,.026-1.7c6.7-4.856,10.742-8.117,8.972-17.042-1.355-9.561-1.553-14.37,2.652-23.263a9.449,9.449,0,0,0-2.274-9.834,1.569,1.569,0,0,0,.3-1.354l.019,0A6.3,6.3,0,0,0,86.6,31.76c-5.793-4.636-7.535-1.735-14.825.7-3.222,1.076-12.479,1.189-15.229,2-6.868,2.821-15.725,5.291-18.884,12.7-1.811,4.466-1.249,9.391-1.612,14.09A69.329,69.329,0,0,1,34.709,69" transform="translate(-10.68 -9.174)"/>
      <path id="íŒ¨ìŠ¤_9079" data-name="íŒ¨ìŠ¤ 9079" d="M49.714,92.385a18.73,18.73,0,0,1-6.3-1.484,19.165,19.165,0,0,1-5.323-3.415,19.8,19.8,0,0,1-3.967-4.968,20.077,20.077,0,0,1-2.239-6.135,28.782,28.782,0,0,1-.416-3.2c-.078-1.011-.115-2.07-.112-3.236,0-2.165.144-4.367.28-6.5.054-.844.109-1.717.155-2.57l.023-.438,0-.069v-.005c.023-.451.047-.917.068-1.376a3.735,3.735,0,0,1-1.449,1.166,4.15,4.15,0,0,1-1.749.409,2.763,2.763,0,0,1-1.259-.28,2.321,2.321,0,0,1-.971-.927.661.661,0,0,1,.019-.657.606.606,0,0,1,.516-.325.578.578,0,0,1,.193.035,6,6,0,0,0,1.988.431,2.931,2.931,0,0,0,.761-.1A3.956,3.956,0,0,0,31.968,57.4c.072-1.377.175-3.188.337-4.988.107-1.181.216-2.337.368-3.5a1,1,0,0,1-.558-.18.768.768,0,0,1-.308-.514c-.056-.36-.093-.728-.13-1.084-.033-.326-.067-.661-.115-.99-.02-.133-.044-.26-.067-.383h0a3.1,3.1,0,0,1-.067-1.164c.068-.407.177-.822.272-1.189a22.412,22.412,0,0,1,1.754-4.494A27.184,27.184,0,0,1,35.3,35.846a12.572,12.572,0,0,1,1.429-2.353l.128-.181L37,33.1l-.063-.339-.009-.052a1.9,1.9,0,0,1,.849-2.011c.662-.425,1.332-.859,1.98-1.277l.007,0c1.175-.76,2.392-1.545,3.593-2.311a5.472,5.472,0,0,1,2.685-.914,4.92,4.92,0,0,1,1.585-1.358,6.476,6.476,0,0,1,2.1-.705c.479-.078.969-.127,1.443-.175a16.088,16.088,0,0,0,2.157-.318c.414-.1.831-.217,1.234-.33h0a21.238,21.238,0,0,1,2.14-.519,12.686,12.686,0,0,1,2.132-.193,7.424,7.424,0,0,1,3.289.683,27.869,27.869,0,0,1,4.06.3,9.23,9.23,0,0,1,1.547-1.6c-.069-.1-.143-.2-.208-.286a1.528,1.528,0,0,1-.378.047,1.654,1.654,0,0,1-.887-.267,5.431,5.431,0,0,1-.978-.78,4.663,4.663,0,0,1-.733-.957,4.21,4.21,0,0,1-.443-1.112,4.324,4.324,0,0,1-.109-1.243,1.608,1.608,0,0,1,.942-1.456,10.25,10.25,0,0,0-.69-1.683,10.987,10.987,0,0,1-.688-1.159,1.783,1.783,0,0,1,.019-1.8,1.94,1.94,0,0,1,1.62-.91,1.8,1.8,0,0,1,1.516.865c.216.324.424.67.618,1.027a8.437,8.437,0,0,0,.927,1.117l-.107-1.626,0-.046a1.579,1.579,0,0,1,.24-.855,2,2,0,0,1,.634-.647l-.263-1.166c-.043-.192-.089-.388-.135-.578A13.15,13.15,0,0,1,68.195,6a4.661,4.661,0,0,1,.1-1.216,3.576,3.576,0,0,1,.478-1.158,4.259,4.259,0,0,1,.831-.955,4.609,4.609,0,0,1,1.041-.665,5.834,5.834,0,0,1,2.447-.515,6.735,6.735,0,0,1,1.487.168,6.318,6.318,0,0,1,1.39.488c.137-.283.256-.552.36-.819l.017-.045a2.26,2.26,0,0,1,.668-.92A1.643,1.643,0,0,1,78.054,0a1.88,1.88,0,0,1,.278.021,1.929,1.929,0,0,1,1.128.6,1.7,1.7,0,0,1,.456,1.195l0,.145c0,.281.008.569.03.855h.127a14.591,14.591,0,0,1,3.107.348q.67.149,1.321.365a5.139,5.139,0,0,1,1.594.384,5.065,5.065,0,0,1,1.265.769L88.05,5c.393.18.8.365,1.2.543l1.507.076.066,0a1.989,1.989,0,0,1,.7.177,10.989,10.989,0,0,1,1.449-.987,1.74,1.74,0,0,1,1.776,0,2.36,2.36,0,0,1,.724.655A5.6,5.6,0,0,1,96.3,7.127a1.66,1.66,0,0,1,.821.594,1.919,1.919,0,0,1,.374.947,6.476,6.476,0,0,1,1.319.3,5.81,5.81,0,0,1,1.214.575,5.265,5.265,0,0,1,1.875,2.015c.025.049.047.1.07.148v0a7.348,7.348,0,0,1,1.5,1.863,6.314,6.314,0,0,1,2.587,1.375,4.643,4.643,0,0,1,1.3,2.116,4.54,4.54,0,0,1,.187,1.247,3.719,3.719,0,0,1-.421,1.779,11.731,11.731,0,0,1,1.241,1.712,12.3,12.3,0,0,1,.928,1.92,1.592,1.592,0,0,1-.185,1.4,4.984,4.984,0,0,1,.369,2.483,3.858,3.858,0,0,1-1.033,2.25c.119.242.231.5.335.755l.024.043h0c.033.058.067.119.1.18a6.783,6.783,0,0,1,.2,5.973,1.538,1.538,0,0,1-.6.636,1.694,1.694,0,0,1-.855.277.943.943,0,0,1-.124-.008,19.124,19.124,0,0,1-3.038-.657,9.193,9.193,0,0,1,1.628,2.088,1.814,1.814,0,0,1,.229.954,1.981,1.981,0,0,1-.267.922,1.814,1.814,0,0,1-.6.627,1.617,1.617,0,0,1-.869.246h-.072a16.327,16.327,0,0,1-2.907-.381,15.49,15.49,0,0,1-2.772-.9,2.542,2.542,0,0,1-.929.462,1.927,1.927,0,0,1-.628,1.2,1.8,1.8,0,0,1-1.192.466,1.718,1.718,0,0,1-1.207-.51l0,0c-.439-.424-.892-.862-1.339-1.3a2.117,2.117,0,0,1-.627.588,1.484,1.484,0,0,1-.765.237,1.142,1.142,0,0,1-.137-.008,7.374,7.374,0,0,0-.912-.061,5.185,5.185,0,0,1,.584.728.67.67,0,0,1,.03.705.84.84,0,0,1-.717.439.717.717,0,0,1-.176-.022,10.474,10.474,0,0,1-2.388-.919.6.6,0,0,1-.187.106,3.079,3.079,0,0,1,.279.949l0,.027a2.019,2.019,0,0,1,.4-.047h.023a2,2,0,0,1,.828.182,2.255,2.255,0,0,1,.688.485,2.334,2.334,0,0,1,.673,1.521,2.068,2.068,0,0,1-.116.762,9.958,9.958,0,0,1,.3,2.358,6.384,6.384,0,0,1-.375,2.235.765.765,0,0,1,.007.534,2.3,2.3,0,0,1,.588,1.348,2.727,2.727,0,0,1-.945,2.2c-.03.082-.062.163-.1.242.005.043.01.089.012.137a2.215,2.215,0,0,1,.515,1.282,2.184,2.184,0,0,1-.416,1.41c-.028.039-.059.077-.086.109a2.692,2.692,0,0,1-.185.809c.017.047.036.093.054.139a2.092,2.092,0,0,1,.095.28,3.343,3.343,0,0,1,.052,1.231,3.536,3.536,0,0,1-.537,1.449L90,62.5a1.487,1.487,0,0,1,.021.76l.126.067a3.683,3.683,0,0,1,1.378-.265,3.2,3.2,0,0,1,2.447,1.049,1.759,1.759,0,0,1,.414.9,1.678,1.678,0,0,1-.124.911,1.563,1.563,0,0,1-.537.656,1.617,1.617,0,0,1-.889.28c-.047,0-.093,0-.14,0a5.8,5.8,0,0,1-1.733-.275l-.19.136a2.951,2.951,0,0,1-1.655.545H89.08c-.019.225-.042.479-.07.726a6.1,6.1,0,0,1-.641,2.419c.219.278.439.566.652.845a23.2,23.2,0,0,0,1.889,2.268,1.048,1.048,0,0,1,.206,1.174,1.261,1.261,0,0,1-.39.51.962.962,0,0,1-.587.208.987.987,0,0,1-.552-.178l-.116-.077a14.852,14.852,0,0,0-1.479-.795,9.888,9.888,0,0,1-2.12-1.269c-.377.258-.766.525-1.151.787.066.1.12.19.17.272l.076.122A10.281,10.281,0,0,0,86.1,75.766a10.587,10.587,0,0,0,1.643,1.368,14.358,14.358,0,0,1,1.218.949.376.376,0,0,1,.113.431.512.512,0,0,1-.463.319.426.426,0,0,1-.083-.008,4.157,4.157,0,0,1-1.786-.876,8.922,8.922,0,0,1-1.412-1.459l-.092-.116a8.137,8.137,0,0,1-1.048-1.759c-.05-.049-.105-.1-.158-.142l0,0L84,74.442c-.238.2-.451.392-.65.581-.258.42-.55.828-.833,1.223-.133.185-.271.379-.4.567a1.126,1.126,0,0,1-.736.449,16.006,16.006,0,0,0-1.324,2.17.887.887,0,0,1-.362.387.99.99,0,0,1-.482.12,1.262,1.262,0,0,1-.556-.134,1.137,1.137,0,0,1-.429-.363.854.854,0,0,1-.093-.82l.142-.382a1.846,1.846,0,0,1-.194-.26c-.165.3-.338.593-.517.859a13.875,13.875,0,0,1-2.346,2.772,6.242,6.242,0,0,1-1.5.972,4.444,4.444,0,0,1-1.744.392h-.014a1.011,1.011,0,0,1-.54-.159,1.129,1.129,0,0,1-.375-.4,1.02,1.02,0,0,1,.008-1.047,7.861,7.861,0,0,1,1.968-2.037l.334-.263a19.573,19.573,0,0,0,2.231-2.05,26.88,26.88,0,0,0,1.87-2.289c.038-.052.1-.147.17-.269a8.132,8.132,0,0,1,.6-.9,2.5,2.5,0,0,1-.914-1.142.621.621,0,0,1-.081-.326.63.63,0,0,1,.646-.614.733.733,0,0,1,.308.068,2.251,2.251,0,0,0,.436.128,2.58,2.58,0,0,1,.41.115l.1.041a4.813,4.813,0,0,0,.466.174,3.2,3.2,0,0,0,.9.127,3.359,3.359,0,0,0,.525-.041A4.42,4.42,0,0,0,83.6,70.487a7.763,7.763,0,0,0,.948-1.418,8.625,8.625,0,0,0,.651-1.625,7.545,7.545,0,0,0,.214-3.423,5.565,5.565,0,0,0-.494-1.477,5.5,5.5,0,0,0-.873-1.275,4.831,4.831,0,0,0-2.658-1.509,3.292,3.292,0,0,0-.625-.058,3.936,3.936,0,0,0-1.329.239,4.489,4.489,0,0,0-1.208.656,3.759,3.759,0,0,0-1.46,2.2.106.106,0,0,1-.11.091.145.145,0,0,1-.144-.126,4.264,4.264,0,0,1,.187-1.6,5.659,5.659,0,0,1-2.292.867.7.7,0,0,1-.084.008,3.755,3.755,0,0,1-1.371.273l-.127,0a.4.4,0,0,1-.391-.392,37.622,37.622,0,0,1,.624-6.009,51.533,51.533,0,0,1,1.452-5.883l-.456.395c-.117.1-.231.2-.352.314l0,0a5.74,5.74,0,0,1-2.07,1.4,2.408,2.408,0,0,1-.692.108,1.835,1.835,0,0,1-1.383-.613,2.873,2.873,0,0,1-.659-2.166,11.016,11.016,0,0,1,.51-2.217v0c.025-.082.05-.165.075-.246l.072-.243.071-.24.006-.022c.3-1.033.621-2.1.929-3.152,0-.033,0-.067,0-.1a6.477,6.477,0,0,1-1.11.479,3.86,3.86,0,0,1-1.155.2,2.248,2.248,0,0,1-1.609-.622,3.733,3.733,0,0,1-.912-2.447l-.017-.188c-.039-.45-.065-.916-.078-1.426a10.971,10.971,0,0,1-1.368,1.256,7.527,7.527,0,0,1-1.59.943,5.372,5.372,0,0,1-2.132.447,5.1,5.1,0,0,1-1.921-.373,5.335,5.335,0,0,1-1.693-1.1.428.428,0,0,1-.035-.036l-.021-.023c-.411.1-.851.19-1.429.282a34.788,34.788,0,0,1-5.365.549h-.25a11.421,11.421,0,0,1-2.509-.288,6.668,6.668,0,0,1-2.3-1.006,5.887,5.887,0,0,1-2.09-2.583l-.034.012.014.037a1.066,1.066,0,0,1,.046.579,1.345,1.345,0,0,1-.856.958,1.949,1.949,0,0,1-.675.115h-.036a1.908,1.908,0,0,1-.4.469,4.763,4.763,0,0,1-1.247.808,4.665,4.665,0,0,1-1.938.407,6.129,6.129,0,0,1-1.1-.1.877.877,0,0,1-.382-.174,18.416,18.416,0,0,0-1.255,3.2c-.082.282-.146.575-.208.858-.028.124-.056.253-.085.379-.08,1.07-.129,2.123-.175,3.2l-.039.91c-.071,1.6-.089,3.224-.109,4.8-.012,1.053-.025,2.142-.054,3.213-.039,1.468-.157,2.961-.272,4.406-.1,1.242-.2,2.526-.252,3.79a56.808,56.808,0,0,0,.086,6.552A34.94,34.94,0,0,0,34.8,77a22.236,22.236,0,0,0,1.409,4.183,15.725,15.725,0,0,0,1.947,3.2,13.456,13.456,0,0,0,2.4,2.353,14.432,14.432,0,0,0,2.776,1.638,22.326,22.326,0,0,0,6.346,1.677,15.182,15.182,0,0,0,1.943.12,23.092,23.092,0,0,0,4.692-.532,33.391,33.391,0,0,0,3.713-1.012,1.447,1.447,0,0,1,.458-.079.814.814,0,0,1,.859.613.879.879,0,0,1-.2.7,2.243,2.243,0,0,1-.958.657,28.578,28.578,0,0,1-3.748,1.217,23.128,23.128,0,0,1-5.517.691c-.4,0-.812-.012-1.212-.036M79.387,74a3.153,3.153,0,0,1-.053.612c.119-.059.244-.126.37-.2.043-.111.088-.22.13-.325l.006-.014c-.146-.018-.3-.043-.453-.077m8-2.055-.005-.01-.043-.081-.1-.188a3.431,3.431,0,0,1-.414.237.6.6,0,0,1-.069.027l-.012,0v.023a3.479,3.479,0,0,1,.387-.023c.085,0,.172,0,.258.01m1.787-27.58c.06.095.106.1.122.1h0a.037.037,0,0,0,.034-.041c0-.048-.054-.121-.209-.126a.426.426,0,0,1,.049.063M69.7,24.392a21.938,21.938,0,0,1,3.423,1.442,22.981,22.981,0,0,1,3.141,1.993,30.254,30.254,0,0,1,3.625,3.244,41.915,41.915,0,0,1,3.147,3.715,35.1,35.1,0,0,1,2,2.93l.006.027a6.7,6.7,0,0,0,.764,1.7.645.645,0,0,1,.318-.185,2.17,2.17,0,0,0,1.039-.574,3.364,3.364,0,0,0-.283-.737l-.049-.214c-.056-.249-.109-.5-.159-.747v0c-.09-.44-.183-.894-.3-1.337a31.667,31.667,0,0,0-1.017-3.1A34.142,34.142,0,0,0,82.9,29.607a26.822,26.822,0,0,0-2.8-2.6,20.926,20.926,0,0,0-3.939-2.519,11.242,11.242,0,0,0-4.518-1.206A7.2,7.2,0,0,0,69.7,24.392m6.964,43.183a1.031,1.031,0,0,1-.229-.549,1.678,1.678,0,0,1,.21-.991,3.07,3.07,0,0,1,.691-.825,8.666,8.666,0,0,1,1.831-1.149l.106-.052a8.273,8.273,0,0,1,1.818-.631A11.83,11.83,0,0,1,83,63.132h.018a.171.171,0,0,1,.153.142.168.168,0,0,1-.082.192,14.722,14.722,0,0,0-2.991,2.192c-.223.208-.433.443-.655.692a3.479,3.479,0,0,1-2.207,1.48h-.049a.681.681,0,0,1-.525-.256" transform="translate(-8.293 0)"/>
      <g id="face_Tired" data-name="face/Tired" transform="translate(27.452 52.882)">
        <path id="_-Ink" data-name="ðŸ–-Ink" class="cls-4" d="M29.939,20.695Zm.162-7.275a1.493,1.493,0,0,0-1.678.683,1.539,1.539,0,0,0,.232,1.8,8.807,8.807,0,0,0,2.866,1.7l.075.036c.959.463,1.944.888,2.943,1.258a26.571,26.571,0,0,0,3.022.895,14.635,14.635,0,0,0,1.634.3,8.643,8.643,0,0,0,1.181-.066.06.06,0,0,0,.03-.111c-.387-.243-.675-.564-1.1-.79q-.66-.352-1.324-.694c-.9-.462-1.758-.976-2.622-1.493-.911-.545-1.8-1.12-2.666-1.734A12.789,12.789,0,0,0,30.1,13.419Zm-10.809-.495a1.444,1.444,0,0,0-1.732.984c-.215.74.01.9-.563,1.428a17.75,17.75,0,0,1-1.447,1.169l-.732.544a21.476,21.476,0,0,1-4.187,2.573c-.129.056-.054.247.068.25a14.618,14.618,0,0,0,6.935-1.367,5.976,5.976,0,0,0,2.641-2.16C20.96,15.173,20.94,13.244,19.292,12.925Z" transform="translate(-10.563 -12.892)"/>
      </g>
      <g id="face_Calm" data-name="face/Calm" transform="translate(29.802 61.709)">
        <path id="_-Ink-2" data-name="ðŸ–-Ink" class="cls-4" d="M24.232,42.9a5.455,5.455,0,0,0,5.744-1.667,3.767,3.767,0,0,0,1-2.5.408.408,0,0,0-.1-.262.458.458,0,0,0-.244-.146.448.448,0,0,0-.285.025.377.377,0,0,0-.188.184c-.106.139-.212.277-.319.41A5.223,5.223,0,0,1,26.87,41.07a3.624,3.624,0,0,1-2.034-.149,4.357,4.357,0,0,1-1.788-1.254.956.956,0,0,0-.731-.36,1.122,1.122,0,0,0-.783.343,1.207,1.207,0,0,0-.363.79,1.05,1.05,0,0,0,.3.776A6.116,6.116,0,0,0,24.232,42.9Zm.031-13.2c-1.043.632-2.631,2.107-1.51,3.675,1.32,1.383,3.221-.2,4.158-.92.869-.556,1.845.873,1.039,1.522-6.769,5-9.516-4.113-4.214-5.022C24.319,28.86,24.536,29.508,24.263,29.7Zm9.754-2.783a1.165,1.165,0,0,1,1.166-.089,3.8,3.8,0,0,1,1.357,1.351,2.675,2.675,0,0,1,.445,1.577.356.356,0,0,0,.116.3.452.452,0,0,0,.252.112.656.656,0,0,0,.265-.024.394.394,0,0,0,.262-.226,3.279,3.279,0,0,0-.161-2.415,4.924,4.924,0,0,0-1.768-2.215,2.961,2.961,0,0,0-2.858-.013,5.262,5.262,0,0,0-1.721,1.794c-.1.147-.2.294-.306.437a.88.88,0,0,0-.148.818,1.058,1.058,0,0,0,.6.62,1.087,1.087,0,0,0,.839.013,1.066,1.066,0,0,0,.57-.6,3.186,3.186,0,0,1,1.088-1.44ZM17,28.112a.793.793,0,0,0,.664.079.944.944,0,0,0,.389-.232.773.773,0,0,0,.216-.39,1.6,1.6,0,0,1,.562-.934,1.13,1.13,0,0,1,.9-.236,1.722,1.722,0,0,1,.966.578,2.176,2.176,0,0,1,.209.305,2.158,2.158,0,0,0,.4.525.391.391,0,0,0,.248.093.375.375,0,0,0,.111-.017,1.156,1.156,0,0,0,.427-.927,1.69,1.69,0,0,0-.313-.861A3.414,3.414,0,0,0,19.95,24.8a2.717,2.717,0,0,0-2.134.459,3.018,3.018,0,0,0-1.236,1.888,1,1,0,0,0,.051.557A.779.779,0,0,0,17,28.112Z" transform="translate(-16.563 -24.744)"/>
      </g>
    </g>
  </g>
</svg>
