<svg xmlns="http://www.w3.org/2000/svg" width="80" height="48" viewBox="0 0 80 48">
  <defs>
    <style>
      .cls-1, .cls-4 {
        fill: #fff;
      }

      .cls-1 {
        stroke: #707070;
        opacity: 0;
      }

      .cls-2 {
        fill: #3ddb87;
      }

      .cls-3 {
        fill: #0f1f2e;
      }

      .cls-5 {
        stroke: none;
      }

      .cls-6 {
        fill: none;
      }
    </style>
  </defs>
  <g id="logo1" transform="translate(-40 -57)">
    <g id="사각형_6527" data-name="사각형 6527" class="cls-1" transform="translate(40 57)">
      <rect class="cls-5" width="80" height="48"/>
      <rect class="cls-6" x="0.5" y="0.5" width="79" height="47"/>
    </g>
    <path id="패스_13414" data-name="패스 13414" class="cls-2" d="M754.39,352.3a20.662,20.662,0,1,0,20.661,20.661A20.661,20.661,0,0,0,754.39,352.3" transform="translate(-656.488 -292.296)"/>
    <path id="패스_13415" data-name="패스 13415" class="cls-3" d="M681.271,368.554a13.224,13.224,0,0,1,24.939,0,.514.514,0,0,1-.483.685H681.754a.514.514,0,0,1-.483-.685m21.5,14.608a.34.34,0,0,0-.516-.087,13.222,13.222,0,0,1-20.984-5.714.514.514,0,0,1,.483-.685h27.478a20.8,20.8,0,0,1-.34-3.718,20.559,20.559,0,0,1,2.755-10.3,20.665,20.665,0,1,0-5.559,26.865.343.343,0,0,0,.09-.445Z" transform="translate(-631.651 -292.296)"/>
    <path id="패스_13416" data-name="패스 13416" class="cls-4" d="M771.966,378.923H760.355v11.611a.807.807,0,1,1-1.613,0V378.923H747.131a.807.807,0,1,1,0-1.613h11.611V365.7a.807.807,0,0,1,1.613,0v11.611h11.611a.807.807,0,0,1,0,1.613" transform="translate(-661.645 -297.454)"/>
  </g>
</svg>
