<svg xmlns="http://www.w3.org/2000/svg" width="103" height="20" viewBox="0 0 103 20">
  <defs>
    <style>
      .cls-1 {
        fill: #fff;
      }

      .cls-2 {
        fill: #0f1f2e;
      }
    </style>
  </defs>
  <g id="logo" transform="translate(-41.733 -625)">
    <rect id="사각형_6526" data-name="사각형 6526" class="cls-1" width="103" height="20" transform="translate(41.733 625)"/>
    <path id="패스_13404" data-name="패스 13404" class="cls-2" d="M832.435,369.994h-6.019a.129.129,0,0,1-.121-.172,3.32,3.32,0,0,1,6.262,0,.129.129,0,0,1-.121.172m-3.009-4.254a5.188,5.188,0,1,0,3.1,9.346.086.086,0,0,0,.023-.112l-.856-1.485a.086.086,0,0,0-.13-.022,3.32,3.32,0,0,1-5.268-1.435.129.129,0,0,1,.121-.172h7.892a.257.257,0,0,0,.255-.221,5.167,5.167,0,0,0,.049-.681c0-.011,0-.021,0-.032a5.188,5.188,0,0,0-5.188-5.187" transform="translate(-781.505 264.072)"/>
    <path id="패스_13405" data-name="패스 13405" class="cls-2" d="M924.706,369.994h-6.019a.129.129,0,0,1-.121-.172,3.32,3.32,0,0,1,6.261,0,.129.129,0,0,1-.121.172m-3.01-4.254a5.188,5.188,0,1,0,3.1,9.346.086.086,0,0,0,.023-.112l-.856-1.485a.085.085,0,0,0-.13-.022,3.32,3.32,0,0,1-5.268-1.435.129.129,0,0,1,.121-.172h7.893a.257.257,0,0,0,.255-.221,5.177,5.177,0,0,0,.049-.681c0-.011,0-.021,0-.032a5.188,5.188,0,0,0-5.188-5.187" transform="translate(-851.561 264.072)"/>
    <path id="패스_13406" data-name="패스 13406" class="cls-2" d="M972.087,365.985a3.871,3.871,0,0,0-4.115.912.128.128,0,0,1-.219-.09v-.619a.085.085,0,0,0-.086-.086h-1.991a.086.086,0,0,0-.085.086v9.481a.085.085,0,0,0,.085.085h1.991a.085.085,0,0,0,.086-.085v-5.615a2.332,2.332,0,0,1,2.259-2.349,2.294,2.294,0,0,1,.748.112.094.094,0,0,0,.112-.044,6.75,6.75,0,0,1,1.244-1.63.1.1,0,0,0-.03-.157" transform="translate(-888.825 264.072)"/>
    <path id="패스_13407" data-name="패스 13407" class="cls-2" d="M1051.479,367.235h-2.073l-.079.053-2.819,6.964a.129.129,0,0,1-.238,0l-2.818-6.964-.079-.053H1041.3a.085.085,0,0,0-.079.117l4,9.881a.257.257,0,0,1,0,.2l-.083.2a1.517,1.517,0,0,1-.571.783,1.652,1.652,0,0,1-.947.248h-2.19a.085.085,0,0,0-.07.127l.923,1.618a.168.168,0,0,0,.146.085h1.734a4.152,4.152,0,0,0,1.014-.113,2.338,2.338,0,0,0,.774-.349,2.311,2.311,0,0,0,.36-.316,2.84,2.84,0,0,0,.261-.324,5.226,5.226,0,0,0,.536-1.025l.411-1.025,4.041-9.983a.085.085,0,0,0-.079-.117" transform="translate(-946.241 262.937)"/>
    <path id="패스_13408" data-name="패스 13408" class="cls-2" d="M995.8,374.182a3.254,3.254,0,1,1,3.254-3.254,3.254,3.254,0,0,1-3.254,3.254m5.4-8.082H999.2a.086.086,0,0,0-.085.085l-.015.555a.128.128,0,0,1-.207.1,5.163,5.163,0,0,0-3.207-1.1,5.243,5.243,0,0,0-5.171,5.03,5.186,5.186,0,0,0,8.378,4.245.128.128,0,0,1,.207.1v.857h0a1.549,1.549,0,0,1-1.549,1.549H994.94a.085.085,0,0,0-.074.128l.923,1.618a.167.167,0,0,0,.146.085h2.193a3.137,3.137,0,0,0,3.137-3.137h0l.015-10.029a.085.085,0,0,0-.085-.085" transform="translate(-907.749 264.072)"/>
    <path id="패스_13409" data-name="패스 13409" class="cls-2" d="M873.486,375.752h1.991a.085.085,0,0,0,.086-.085v-5.62a2.329,2.329,0,0,1,2.266-2.345,2.3,2.3,0,0,1,2.321,2.1v5.868a.086.086,0,0,0,.086.085h1.991a.086.086,0,0,0,.086-.085v-6.044h0c0-.006,0-.012,0-.018a3.868,3.868,0,0,0-3.868-3.868,3.641,3.641,0,0,0-2.663,1.156.128.128,0,0,1-.219-.09v-.619a.085.085,0,0,0-.086-.086h-1.991a.086.086,0,0,0-.086.086v9.482a.086.086,0,0,0,.086.085" transform="translate(-818.831 264.075)"/>
    <path id="패스_13410" data-name="패스 13410" class="cls-2" d="M1154.306,352.3h-1.991a.086.086,0,0,0-.086.085v13.079a.086.086,0,0,0,.086.085h1.991a.086.086,0,0,0,.086-.085V352.381a.086.086,0,0,0-.086-.085" transform="translate(-1030.527 274.279)"/>
    <path id="패스_13411" data-name="패스 13411" class="cls-2" d="M1177.977,367.235h-1.991a.085.085,0,0,0-.085.085v5.62a2.329,2.329,0,0,1-2.266,2.346,2.3,2.3,0,0,1-2.321-2.1V367.32a.086.086,0,0,0-.086-.085h-1.991a.086.086,0,0,0-.086.085v6.044h0c0,.006,0,.012,0,.018a3.868,3.868,0,0,0,3.868,3.868,3.639,3.639,0,0,0,2.663-1.156.128.128,0,0,1,.219.09v.619a.085.085,0,0,0,.085.086h1.991a.085.085,0,0,0,.085-.086V367.32a.085.085,0,0,0-.085-.085" transform="translate(-1043.375 262.937)"/>
    <path id="패스_13412" data-name="패스 13412" class="cls-2" d="M1106.484,374.181a3.254,3.254,0,1,1,3.254-3.254,3.254,3.254,0,0,1-3.254,3.254m.279-8.438a5.163,5.163,0,0,0-3.377,1.1.128.128,0,0,1-.207-.1v-.555a.086.086,0,0,0-.086-.086H1101.1a.086.086,0,0,0-.086.086v13.081a.086.086,0,0,0,.086.086h1.991a.086.086,0,0,0,.086-.086v-4.151a.128.128,0,0,1,.207-.1,5.187,5.187,0,1,0,3.377-9.271" transform="translate(-991.645 264.073)"/>
    <path id="패스_13413" data-name="패스 13413" class="cls-2" d="M1217.366,370.151l-1.748-.342c-.783-.152-1.2-.542-1.2-1.127,0-.613.654-1.247,1.749-1.247a1.976,1.976,0,0,1,2.192,1.53.085.085,0,0,0,.11.064l1.778-.6a.085.085,0,0,0,.056-.1c-.111-.437-.826-2.591-4.136-2.591-2.1,0-3.876,1.421-3.876,3.1,0,1.4,1.019,2.433,2.724,2.76l1.837.362c.861.174,1.355.614,1.355,1.207,0,.734-.737,1.247-1.794,1.247-2.056,0-2.405-1.347-2.463-1.728a.084.084,0,0,0-.109-.067l-1.818.577a.085.085,0,0,0-.057.1c.106.458.826,2.814,4.426,2.814,2.59,0,3.988-1.568,3.988-3.043s-1.1-2.545-3.016-2.921" transform="translate(-1075.882 264.072)"/>
  </g>
</svg>
