<svg xmlns="http://www.w3.org/2000/svg" xmlns:xlink="http://www.w3.org/1999/xlink" width="112" height="104" viewBox="0 0 112 104">
  <defs>
    <style>
      .cls-1, .cls-6, .cls-8 {
        fill: #fff;
      }

      .cls-1 {
        stroke: #707070;
        opacity: 0.394;
      }

      .cls-2 {
        clip-path: url(#clip-path);
      }

      .cls-3 {
        opacity: 0.641;
      }

      .cls-4 {
        fill-rule: evenodd;
        fill: url(#linear-gradient);
      }

      .cls-5 {
        opacity: 0.07;
      }

      .cls-6, .cls-7 {
        stroke: #0f1f2e;
        stroke-width: 0.75px;
      }

      .cls-7 {
        fill: #f0f0f0;
      }

      .cls-9 {
        fill: #efefef;
      }

      .cls-10, .cls-12 {
        stroke: none;
      }

      .cls-11 {
        fill: none;
      }

      .cls-12 {
        fill: #0f1f2e;
      }
    </style>
    <clipPath id="clip-path">
      <rect id="사각형_5999" data-name="사각형 5999" class="cls-1" width="112" height="104" transform="translate(263 484)"/>
    </clipPath>
    <linearGradient id="linear-gradient" x1="0.5" x2="0.5" y2="1" gradientUnits="objectBoundingBox">
      <stop offset="0" stop-color="#3ddb87"/>
      <stop offset="1" stop-color="#aaffd2"/>
    </linearGradient>
  </defs>
  <g id="도장" class="cls-2" transform="translate(-263 -484)">
    <g id="bgimg" class="cls-3" transform="translate(361.161 745.393) rotate(16)">
      <path id="bgimg-2" data-name="bgimg" class="cls-4" d="M17.485,9.577s10.143,10.8,4.628,19.015S0,37.731,0,37.731s21.231,4.421,24.253,14.506S18.266,70.318,12.087,78.071c0,0,16.271-9.16,23.4-6.313S48.667,93.97,48.667,93.97s.085-17.66,9.847-23.05,16.595-5.258,23.336,2.7a92.382,92.382,0,0,1-3.384-9.352c-1.416-4.771-2.3-10.125.456-10.674,2.315-.461-5.7-1.8-12.155-9.289C58.784,35.057,52.878,17.613,69.5,0c0,0-15.242,20.14-25.158,1.515C44.339,1.515,42.834,21.442,17.485,9.577Z" transform="translate(-54.18 -151.572) rotate(179)"/>
    </g>
    <g id="도장-2" data-name="도장" transform="matrix(0.998, -0.07, 0.07, 0.998, 222.948, 498.841)">
      <ellipse id="타원_1939" data-name="타원 1939" class="cls-5" cx="25.5" cy="25" rx="25.5" ry="25" transform="translate(37.712 23.927)"/>
      <g id="타원_1927" data-name="타원 1927" class="cls-6" transform="translate(41.712 17.927)">
        <circle class="cls-10" cx="27" cy="27" r="27"/>
        <circle class="cls-11" cx="27" cy="27" r="26.625"/>
      </g>
      <g id="타원_1928" data-name="타원 1928" class="cls-7" transform="translate(50.712 20.927)">
        <ellipse class="cls-10" cx="21" cy="20.5" rx="21" ry="20.5"/>
        <ellipse class="cls-11" cx="21" cy="20.5" rx="20.625" ry="20.125"/>
      </g>
      <g id="합치기_147" data-name="합치기 147" class="cls-8" transform="translate(67.42 2.527) rotate(3)">
        <path class="cls-10" d="M 7.326000213623047 44.62680053710938 C 3.49370002746582 44.62680053710938 0.3759001195430756 41.43067169189453 0.3759001195430756 37.50210189819336 C 0.3759001195430756 35.57450866699219 1.114750146865845 33.76911926269531 2.456330060958862 32.41849136352539 L 2.478280067443848 32.39640045166016 L 2.49629020690918 32.37097930908203 C 2.946730136871338 31.7350902557373 3.446020126342773 31.08213043212891 3.92887020111084 30.45067024230957 C 5.184910297393799 28.80805969238281 6.483710289001465 27.10951995849609 7.201780319213867 25.37494087219238 C 7.826070308685303 23.86660003662109 8.344320297241211 21.89616012573242 8.74213981628418 19.51832008361816 L 8.747250556945801 19.48776054382324 L 8.747280120849609 19.45679092407227 C 8.747500419616699 19.21858024597168 8.747699737548828 18.98324966430664 8.747699737548828 18.75240135192871 C 8.747699737548828 16.27052116394043 9.222330093383789 13.86313056945801 10.15842056274414 11.59711074829102 C 11.06241989135742 9.408760070800781 12.35651016235352 7.443470478057861 14.00475025177002 5.755840301513672 C 15.65240001678467 4.068820476531982 17.57077026367188 2.744430541992188 19.7065601348877 1.819470524787903 C 21.91699981689453 0.8621805310249329 24.26519012451172 0.376800537109375 26.68589973449707 0.376800537109375 C 29.10683059692383 0.376800537109375 31.4552001953125 0.8621805310249329 33.665771484375 1.819470524787903 C 35.80168151855469 2.744430541992188 37.72013092041016 4.068820476531982 39.36783981323242 5.755850315093994 C 41.01612091064453 7.443460464477539 42.31024932861328 9.408750534057617 43.21427154541016 11.59711074829102 C 44.15036010742188 13.86312007904053 44.625 16.27050971984863 44.625 18.75240135192871 C 44.625 21.23408126831055 44.15036010742188 23.64129066467285 43.21427154541016 25.90715980529785 C 42.31024932861328 28.09541130065918 41.01612091064453 30.06060981750488 39.36783981323242 31.74816131591797 C 37.72011947631836 33.43515014648438 35.80167007446289 34.75950241088867 33.665771484375 35.68444061279297 C 31.45519065856934 36.64171981811523 29.10682106018066 37.12710189819336 26.68589973449707 37.12710189819336 C 26.31398963928223 37.12710189819336 25.89040946960449 37.1302490234375 25.31246948242188 37.13732147216797 L 25.2763500213623 37.13776016235352 L 25.24098968505859 37.14508056640625 C 22.80470085144043 37.64973068237305 20.72758102416992 38.18231964111328 19.06730079650879 38.72805023193359 C 16.79605102539062 39.47409057617188 15.096360206604 40.70407867431641 13.59675979614258 41.78927230834961 C 12.85564041137695 42.32559204101562 12.15562057495117 42.83216094970703 11.434889793396 43.25241088867188 L 11.41689968109131 43.26290130615234 L 11.40019035339355 43.27531051635742 C 10.20973968505859 44.15946197509766 8.800909996032715 44.62680053710938 7.326000213623047 44.62680053710938 Z"/>
        <path class="cls-12" d="M 7.326000213623047 44.25180053710938 C 8.719770431518555 44.25180053710938 10.05128002166748 43.81003189086914 11.17660045623779 42.97426223754883 L 11.21002006530762 42.94943237304688 L 11.24598979949951 42.92845916748047 C 11.95075988769531 42.51752090454102 12.64350032806396 42.01620864868164 13.37691020965576 41.48546981811523 C 14.89869976043701 40.38423156738281 16.6235294342041 39.13605117797852 18.9502010345459 38.37179946899414 C 20.6238899230957 37.82165908813477 22.71482086181641 37.2853889465332 25.16493034362793 36.77788162231445 L 25.23565101623535 36.76322937011719 L 25.30788040161133 36.76235198974609 C 25.88740921020508 36.7552604675293 26.31241035461426 36.75210189819336 26.68589973449707 36.75210189819336 C 31.37421035766602 36.75210189819336 35.78281021118164 34.88195037841797 39.09957885742188 31.48614120483398 C 42.42087936401367 28.08569145202637 44.25 23.56343078613281 44.25 18.75240135192871 C 44.25 13.94098091125488 42.42087173461914 9.418430328369141 39.09957122802734 6.017870426177979 C 35.78284072875977 2.621990442276001 31.3742504119873 0.751800537109375 26.68589973449707 0.751800537109375 C 21.99794960021973 0.751800537109375 17.58963966369629 2.621990442276001 14.27303028106689 6.017860412597656 C 10.95178985595703 9.41847038269043 9.122699737548828 13.94102096557617 9.122699737548828 18.75240135192871 C 9.122699737548828 18.98336982727051 9.122500419616699 19.21881103515625 9.122280120849609 19.45713043212891 L 9.122220039367676 19.51909065246582 L 9.112000465393066 19.5802001953125 C 8.70950984954834 21.98597145080566 8.18340015411377 23.98384094238281 7.548270225524902 25.51836967468262 C 6.81141996383667 27.29831123352051 5.49746036529541 29.01667022705078 4.226759910583496 30.6784610748291 C 3.745950222015381 31.30724143981934 3.248780250549316 31.95744132995605 2.802290201187134 32.58774185180664 L 2.766280174255371 32.63856887817383 L 2.722390174865723 32.68276977539062 C 1.451050162315369 33.96266174316406 0.7509001493453979 35.67420196533203 0.7509001493453979 37.50210189819336 C 0.7509001493453979 41.22389984130859 3.700480222702026 44.25180053710938 7.326000213623047 44.25180053710938 M 7.326000213623047 45.00180053710938 C 3.280500173568726 45.00180053710938 0.0009001342696137726 41.64390182495117 0.0009001342696137726 37.50210189819336 C 0.0009001342696137726 35.40798950195312 0.8389301300048828 33.51467132568359 2.190280199050903 32.15422058105469 C 3.799230098724365 29.88285064697266 5.880780220031738 27.5855598449707 6.855299949645996 25.23150062561035 C 7.553530216217041 23.54452133178711 8.036749839782715 21.46197128295898 8.372280120849609 19.45643997192383 C 8.372500419616699 19.21835136413574 8.372699737548828 18.98314094543457 8.372699737548828 18.75240135192871 C 8.372699737548828 8.397000312805176 16.57170104980469 0.001800537109375 26.68589973449707 0.001800537109375 C 36.80099868774414 0.001800537109375 45 8.397000312805176 45 18.75240135192871 C 45 29.10690116882324 36.80099868774414 37.50210189819336 26.68589973449707 37.50210189819336 C 26.26273918151855 37.50210189819336 25.80367088317871 37.50634002685547 25.31705093383789 37.51229095458984 C 23.27209091186523 37.93587875366211 21.06697082519531 38.46549987792969 19.18440055847168 39.08430099487305 C 15.88094043731689 40.16939163208008 13.8613805770874 42.27164077758789 11.62378025054932 43.57635879516602 C 10.41664981842041 44.472900390625 8.931570053100586 45.00180053710938 7.326000213623047 45.00180053710938 Z"/>
      </g>
    </g>
    <path id="합치기_194" data-name="합치기 194" class="cls-9" d="M-4673.522-2394.51s5.242-3.186,7.8-5.926a7.5,7.5,0,0,0,2.406-5.123,14.637,14.637,0,0,0-.148-2.138c-.473-1.269.212-1.849,2.646-.589,3.432,1.853,7.33,2.374,12.175,2.321s7.06-1.066,9.077-2.252,3-2.355,3.574-2.115-.347,1.576-.771,2.045a17.055,17.055,0,0,1-4.936,4.646,14.742,14.742,0,0,1-8.931,2.9l.2.074s-6.927-.335-11.006,1.861-6.3,4.724-8.946,4.933c-.288.023-.551.033-.79.033C-4673.133-2393.835-4673.522-2394.51-4673.522-2394.51Z" transform="matrix(0.998, -0.07, 0.07, 0.998, 5125.556, 2602.394)"/>
  </g>
</svg>
