<svg xmlns="http://www.w3.org/2000/svg" xmlns:xlink="http://www.w3.org/1999/xlink" width="111.344" height="94.482" viewBox="0 0 111.344 94.482">
  <defs>
    <style>
      .cls-1 {
        fill: #3ddb87;
        stroke: #707070;
        opacity: 0.76;
      }

      .cls-1, .cls-11, .cls-3, .cls-4, .cls-8, .cls-9 {
        stroke-width: 0.75px;
      }

      .cls-2 {
        clip-path: url(#clip-path);
      }

      .cls-3 {
        fill: #d8d8d8;
      }

      .cls-11, .cls-3, .cls-4, .cls-8 {
        stroke: #0f1f2e;
      }

      .cls-11, .cls-3, .cls-4, .cls-9 {
        stroke-linecap: round;
      }

      .cls-3, .cls-4 {
        stroke-linejoin: round;
      }

      .cls-4, .cls-6, .cls-8 {
        fill: #fff;
      }

      .cls-5 {
        fill: #a6acb2;
      }

      .cls-10, .cls-7 {
        fill: #0f1f2e;
      }

      .cls-7 {
        opacity: 0.132;
      }

      .cls-9 {
        fill: #dfeefd;
        stroke: #fff;
      }

      .cls-10 {
        font-size: 12px;
        font-family: NotoSansCJKkr-Bold, Noto Sans CJK KR;
        font-weight: 700;
      }

      .cls-11, .cls-14 {
        fill: none;
      }

      .cls-12, .cls-13 {
        stroke: none;
      }

      .cls-13 {
        fill: #0f1f2e;
      }
    </style>
    <clipPath id="clip-path">
      <path id="img-floting" class="cls-1" d="M74.27-23.248c-4.529-1.958-57.177-.041-62.435,0-12.8.1-23.364,30.86-23.364,30.86s-2.707,17.741-2.807,24.91c-.14,10.009,3.144,15.234,7.761,20.423,5.882,7.262,7.922,9.379,16.328,13.427a50.1,50.1,0,0,0,13.228,3.489c5.437.633,24.043.475,24.043.475l29.146-.475" transform="translate(14.424 20.252)"/>
    </clipPath>
  </defs>
  <g id="phone" transform="translate(-222.168 -486.226)">
    <g id="phone-2" data-name="phone" class="cls-2" transform="translate(242.917 490.102)">
      <g id="그룹_18168" data-name="그룹 18168" transform="translate(8.139 2.999) rotate(1)">
        <g id="그룹_18167" data-name="그룹 18167" transform="translate(41.331 4.828)">
          <path id="패스_12791" data-name="패스 12791" class="cls-3" d="M0,91.256l1.845.4c1.513.326,3.116-1.153,3.563-3.287L23.452,6.252c.5-2.175.288-3.585-1.252-4.617L18.749-.353a4.656,4.656,0,0,1,.716,2.47,15,15,0,0,1-.62,3.011Z" transform="translate(3.017 0.947)"/>
          <path id="패스_12792" data-name="패스 12792" class="cls-4" d="M17.657,3.441.067,83.345c-.337,2.049.626,3.991,2.139,4.317l38,8.18c1.513.325,3.11-1.149,3.55-3.278L61.883,8.957c.492-2.169-.467-4.114-2.132-4.322L21.394.019C19.729-.189,18.047,1.351,17.657,3.441Z" transform="translate(-39.328 -4.667)"/>
        </g>
        <path id="패스_12793" data-name="패스 12793" class="cls-5" d="M.026.92c-.109.627.139,1.06.53,1.122s.78-.27.89-.9S1.3.068.912.007.135.293.026.92Z" transform="translate(45.887 6.353)"/>
        <path id="패스_12794" data-name="패스 12794" class="cls-5" d="M.022.943c-.1.575.131,1.089.507,1.147l7.309.661c.376.058.763-.366.864-.946h0c.1-.581-.121-1.1-.5-1.156L.877.005C.5-.052.118.368.022.943Z" transform="matrix(0.999, 0.035, -0.035, 0.999, 35.38, 4.932)"/>
        <g id="패스_12795" data-name="패스 12795" class="cls-6" transform="matrix(0.978, 0.208, -0.208, 0.978, 20.845, 5.186)">
          <path class="cls-12" d="M 1.831018090248108 79.8541259765625 C 1.04408860206604 79.83625030517578 0.3924795985221863 79.12742614746094 0.3750512301921844 78.27051544189453 L 1.497876763343811 4.79932975769043 L 1.497965693473816 4.793285369873047 L 1.497865676879883 4.787240982055664 C 1.490565657615662 4.35653018951416 1.642276763916016 3.96091890335083 1.925065636634827 3.673296689987183 C 2.174832344055176 3.419241189956665 2.504443407058716 3.279340982437134 2.853165626525879 3.279340982437134 L 2.878832340240479 3.279585599899292 L 2.898187875747681 3.27995228767395 L 2.917476654052734 3.278330087661743 L 37.427734375 0.3754015564918518 C 38.20891571044922 0.4009935259819031 38.85331726074219 1.107122898101807 38.87018966674805 1.959576606750488 L 38.18436431884766 78.07569885253906 L 38.18432235717773 78.08056640625 L 38.18441009521484 78.08542633056641 C 38.19171142578125 78.51610565185547 38.04000854492188 78.91169738769531 37.75725555419922 79.19931030273438 C 37.50747680664062 79.45337677001953 37.17785263061523 79.59330749511719 36.82909774780273 79.59331512451172 L 36.8034553527832 79.59307098388672 L 36.79845428466797 79.59298706054688 L 36.79344177246094 79.593017578125 L 1.831018090248108 79.8541259765625 Z"/>
          <path class="cls-13" d="M 37.4355583190918 0.751068115234375 L 2.948909759521484 3.652008056640625 L 2.910354614257812 3.655250549316406 L 2.871677398681641 3.654518127441406 L 2.853164672851562 3.654342651367188 C 2.605808258056641 3.654342651367188 2.371166229248047 3.754440307617188 2.192466735839844 3.936210632324219 C 1.980743408203125 4.151542663574219 1.867221832275391 4.451515197753906 1.872810363769531 4.780876159667969 L 1.873020172119141 4.792961120605469 L 1.872833251953125 4.8050537109375 L 0.7501144409179688 78.26918029785156 C 0.7663726806640625 78.92302703857422 1.250003814697266 79.46278381347656 1.834423065185547 79.47908782958984 L 36.79064178466797 79.218017578125 L 36.80062103271484 79.21794128417969 L 36.81061172485352 79.21813201904297 L 36.82914352416992 79.21831512451172 C 37.07648849487305 79.21831512451172 37.31112289428711 79.11821746826172 37.48981094360352 78.93646240234375 C 37.70153045654297 78.72113037109375 37.81505584716797 78.42115020751953 37.80946731567383 78.091796875 L 37.80929946899414 78.08205413818359 L 37.80938720703125 78.07231903076172 L 38.49515533447266 1.962089538574219 C 38.48007965087891 1.316558837890625 38.00945663452148 0.7816619873046875 37.4355583190918 0.751068115234375 M 37.41683197021484 0 C 38.40859985351562 0.019073486328125 39.22719955444336 0.895721435546875 39.24522018432617 1.958038330078125 L 38.55935287475586 78.07907104492188 C 38.57717514038086 79.12957763671875 37.80537033081055 79.96831512451172 36.82914352416992 79.96831512451172 C 36.81817626953125 79.96831512451172 36.80725860595703 79.96820831298828 36.79624176025391 79.96799468994141 L 1.828388214111328 80.22914886474609 C 0.8366203308105469 80.21006011962891 0.0180206298828125 79.33340454101562 0 78.27109527587891 L 1.122920989990234 4.793594360351562 C 1.105098724365234 3.743072509765625 1.876934051513672 2.904335021972656 2.853164672851562 2.904335021972656 C 2.864128112792969 2.904335021972656 2.875026702880859 2.904441833496094 2.886043548583984 2.904655456542969 L 37.41683197021484 0 Z"/>
        </g>
      </g>
    </g>
    <g id="btn" transform="translate(45.413 -42.593) rotate(8)">
      <rect id="사각형_5983" data-name="사각형 5983" class="cls-7" width="78.329" height="20.726" rx="10.363" transform="translate(265.78 550.605)"/>
      <g id="사각형_3585" data-name="사각형 3585" class="cls-8" transform="translate(258.34 542.418)">
        <rect class="cls-12" width="85.363" height="25.726" rx="12.863"/>
        <rect class="cls-14" x="0.375" y="0.375" width="84.613" height="24.976" rx="12.488"/>
      </g>
      <path id="패스_9403" data-name="패스 9403" class="cls-5" d="M1.768,0,9.56,9.192,3.972,8.175,0,11.753Z" transform="translate(279.331 553.337) rotate(105)"/>
      <path id="패스_9600" data-name="패스 9600" class="cls-9" d="M6.175-1.753-.342,9.06" transform="translate(276.896 550.695) rotate(60)"/>
      <text id="초대하기" class="cls-10" transform="translate(304.71 559.763)"><tspan x="-22.08" y="0">초대하기</tspan></text>
    </g>
    <g id="mail" transform="matrix(0.982, 0.191, -0.191, 0.982, 274.955, 513.027)">
      <g id="패스_12783" data-name="패스 12783" class="cls-6" transform="translate(0.972 -0.137)">
        <path class="cls-12" d="M 1.935131907463074 15.22979736328125 C 0.8964271545410156 15.22453689575195 0.05246752500534058 14.38035202026367 0.0475158765912056 13.34156608581543 L 0.621783971786499 2.197722911834717 L 0.6222839951515198 2.188082933425903 L 0.6222839951515198 2.178422927856445 C 0.6222839951515198 1.139423012733459 1.332754015922546 0.4413429498672485 2.390203952789307 0.4413429498672485 L 2.399754047393799 0.4413429498672485 L 2.40929388999939 0.4408529698848724 L 21.13362693786621 -0.5133610963821411 C 22.19454383850098 -0.5097102522850037 22.85412979125977 0.1265503764152527 22.85727119445801 1.14964234828949 L 22.40721321105957 12.30168342590332 L 22.40691375732422 12.30924320220947 L 22.40691375732422 12.31680297851562 C 22.40691375732422 13.36305332183838 21.55573463439941 14.2142333984375 20.50948333740234 14.2142333984375 L 20.49923324584961 14.2142333984375 L 20.48900413513184 14.21479320526123 L 1.935131907463074 15.22979736328125 Z"/>
        <path class="cls-13" d="M 21.14227294921875 -0.1383094787597656 L 2.428373336791992 0.815373420715332 L 2.409303665161133 0.8163433074951172 L 2.390203475952148 0.8163433074951172 C 1.544033050537109 0.8163433074951172 0.997283935546875 1.350993156433105 0.997283935546875 2.178422927856445 L 0.997283935546875 2.197732925415039 L 0.9962940216064453 2.217022895812988 L 0.4225826263427734 13.34986209869385 C 0.4319267272949219 14.1751708984375 1.101251602172852 14.84487819671631 1.926443099975586 14.85471248626709 L 20.46851348876953 13.84035301208496 L 20.48898315429688 13.8392333984375 L 20.50948333740234 13.8392333984375 C 21.34895324707031 13.8392333984375 22.03191375732422 13.15627288818359 22.03191375732422 12.31680297851562 L 22.03191375732422 12.30167293548584 L 22.03252410888672 12.2865629196167 L 22.48222541809082 1.143093109130859 C 22.47668266296387 0.3341341018676758 21.98931503295898 -0.1318836212158203 21.14227294921875 -0.1383094787597656 M 21.12446403503418 -0.8883771896362305 C 22.37949371337891 -0.8883771896362305 23.23227310180664 -0.09799671173095703 23.23227310180664 1.15703296661377 L 22.78191375732422 12.31680297851562 C 22.78191375732422 13.57183265686035 21.76450347900391 14.5892333984375 20.50948333740234 14.5892333984375 L 1.944913864135742 15.60482311248779 C 0.6898937225341797 15.60482311248779 -0.3275165557861328 14.58742332458496 -0.3275165557861328 13.33239269256592 L 0.247283935546875 2.178422927856445 C 0.247283935546875 0.9233932495117188 1.135173797607422 0.06634330749511719 2.390203475952148 0.06634330749511719 L 21.12446403503418 -0.8883771896362305 Z"/>
      </g>
      <g id="패스_12784" data-name="패스 12784" class="cls-6" transform="translate(23.543 10.46) rotate(180)">
        <path class="cls-12" d="M 1.129923939704895 11.13052940368652 C 0.8215697407722473 11.12743473052979 0.5643358826637268 10.95713329315186 0.4407082200050354 10.67363262176514 C 0.3188701272010803 10.39422607421875 0.3658987581729889 10.09454441070557 0.5659515857696533 9.867633819580078 L 11.6431884765625 0.6513426899909973 L 11.66172790527344 0.6359126567840576 L 11.67814826965332 0.6182426810264587 C 11.82379817962646 0.461382657289505 12.02189826965332 0.3750026524066925 12.23595809936523 0.3750026524066925 C 12.45001792907715 0.3750026524066925 12.648118019104 0.461382657289505 12.79376792907715 0.6182426810264587 L 12.79873847961426 0.623582661151886 L 12.80389785766602 0.6287326812744141 L 21.08409309387207 8.877799034118652 C 21.29277038574219 9.106015205383301 21.34346199035645 9.411070823669434 21.21956825256348 9.695192337036133 C 21.09479904174805 9.98131275177002 20.83395767211914 10.15213298797607 20.52180862426758 10.15213298797607 L 20.51234817504883 10.15213298797607 L 20.50289726257324 10.15261268615723 L 1.129923939704895 11.13052940368652 Z"/>
        <path class="cls-13" d="M 12.23595809936523 0.7499923706054688 C 12.17305850982666 0.7499923706054688 12.05265808105469 0.7660226821899414 11.95294857025146 0.8734130859375 L 11.92011833190918 0.9087629318237305 L 11.88303852081299 0.9396123886108398 L 0.8314170837402344 10.1345911026001 C 0.7060527801513672 10.29354667663574 0.7557411193847656 10.4579029083252 0.7844486236572266 10.52373313903809 C 0.8141841888427734 10.59194087982178 0.9061126708984375 10.74862957000732 1.1239013671875 10.75534915924072 L 20.4839973449707 9.778082847595215 L 20.50288772583008 9.777132987976074 L 20.52180862426758 9.777132987976074 C 20.75008773803711 9.777132987976074 20.84543800354004 9.615002632141113 20.87582778930664 9.545292854309082 C 20.90572357177734 9.476749420166016 20.95837211608887 9.301353454589844 20.81239128112793 9.136463165283203 L 12.53923797607422 0.8944025039672852 L 12.52889823913574 0.8841028213500977 L 12.51896858215332 0.8734130859375 C 12.41925811767578 0.7660226821899414 12.29885864257812 0.7499923706054688 12.23595809936523 0.7499923706054688 M 12.23595809936523 -1.9073486328125e-06 C 12.53988361358643 -1.9073486328125e-06 12.8438081741333 0.1210222244262695 13.06856822967529 0.363072395324707 L 21.35441780090332 8.617782592773438 C 22.02949905395508 9.344782829284668 21.51391792297363 10.52713298797607 20.52180862426758 10.52713298797607 L 1.138467788696289 11.50557231903076 C 0.1463584899902344 11.50557231903076 -0.3692226409912109 10.32322311401367 0.3058490753173828 9.596222877502441 L 11.40334796905518 0.363072395324707 C 11.62810802459717 0.1210222244262695 11.93203353881836 -1.9073486328125e-06 12.23595809936523 -1.9073486328125e-06 Z"/>
      </g>
      <path id="패스_12781" data-name="패스 12781" class="cls-11" d="M0,7.354,5.245,0" transform="matrix(0.985, 0.174, -0.174, 0.985, 3.368, 7.108)"/>
      <line id="선_279" data-name="선 279" class="cls-11" x1="6.4" y1="6.314" transform="translate(15.47 7.3)"/>
    </g>
  </g>
</svg>
