<svg xmlns="http://www.w3.org/2000/svg" xmlns:xlink="http://www.w3.org/1999/xlink" width="99.335" height="86.604" viewBox="0 0 99.335 86.604">
  <defs>
    <style>
      .cls-1 {
        fill: url(#linear-gradient);
      }

      .cls-2, .cls-4 {
        fill: #fff;
      }

      .cls-2, .cls-3 {
        stroke: #0f1f2e;
        stroke-width: 0.75px;
      }

      .cls-3, .cls-6 {
        fill: none;
      }

      .cls-5, .cls-7 {
        stroke: none;
      }

      .cls-7 {
        fill: #0f1f2e;
      }
    </style>
    <linearGradient id="linear-gradient" x1="0.799" y1="0.639" x2="0.404" y2="0.887" gradientUnits="objectBoundingBox">
      <stop offset="0" stop-color="#3ddb87" stop-opacity="0.114"/>
      <stop offset="1" stop-color="#34c678"/>
    </linearGradient>
  </defs>
  <g id="img-bn" transform="translate(-220.626 -496.691)">
    <g id="illust" transform="translate(222.182 533.381)">
      <g id="그룹_12947" data-name="그룹 12947" transform="translate(-1.182 -2)">
        <path id="합치기_9" data-name="합치기 9" class="cls-1" d="M40.057,43.968c-1.457,1.219-4.149,1.085-7.835.812-1.327-.1-4.68-.584-8.7-1.222a10.646,10.646,0,0,1-6.348,2.137,11.234,11.234,0,0,1-8.954-4.738c-3.48-.633-6.052-1.142-6.523-1.32C.127,39.044.06,37.681,0,36.041S.689,34.6,1.364,33.335s-1.238-3.6-1.238-3.6a38.038,38.038,0,0,0,1.238-5.685c.054-.736,1.622-2.483,3.444-4a69.5,69.5,0,0,1,15.83-9.282l1.594-.711A98.317,98.317,0,0,1,42.488,2.429,89.253,89.253,0,0,1,60.066.121a70.85,70.85,0,0,1,9.106.053c1.14.065,2.118.149,2.9.243.109.008.127.022.066.042A37.938,37.938,0,0,1,84.844,3.909,12.4,12.4,0,0,1,91,10.767a11.6,11.6,0,0,1,.873,3.669,7.009,7.009,0,0,1,2.8,2.422,13.976,13.976,0,0,1,1.4,4.153c.01.075-1.117-1.694-2.32-2.094,2.265,1.543,3.835,4.9,3.835,8.783,0,5.351-2.974,9.689-6.643,9.689-2.105,0-3.982-1.428-5.2-3.657L75.5,35.774S63.56,40.121,60.428,40.295c-1.718,5.183-6.037,8.86-11.094,8.86A11.333,11.333,0,0,1,40.057,43.968Z" transform="translate(1.38 2.76)"/>
        <g id="그룹_12945" data-name="그룹 12945">
          <g id="그룹_12944" data-name="그룹 12944" transform="translate(5.212 18.116)">
            <ellipse id="타원_1192" data-name="타원 1192" cx="11.726" cy="13.795" rx="11.726" ry="13.795" transform="translate(0)"/>
            <g id="타원_1191" data-name="타원 1191" class="cls-2" transform="translate(8.277 4.139)">
              <ellipse class="cls-5" cx="6.898" cy="10.002" rx="6.898" ry="10.002"/>
              <ellipse class="cls-6" cx="6.898" cy="10.002" rx="6.523" ry="9.627"/>
            </g>
            <g id="타원_1193" data-name="타원 1193" class="cls-2" transform="translate(12.416 10.346)">
              <ellipse class="cls-5" cx="2.759" cy="3.794" rx="2.759" ry="3.794"/>
              <ellipse class="cls-6" cx="2.759" cy="3.794" rx="2.384" ry="3.419"/>
            </g>
            <ellipse id="타원_1187" data-name="타원 1187" cx="11.726" cy="13.795" rx="11.726" ry="13.795" transform="translate(32.349 3.449)"/>
            <ellipse id="타원_1190" data-name="타원 1190" cx="6.553" cy="9.657" rx="6.553" ry="9.657" transform="translate(79.265)"/>
            <g id="타원_1185" data-name="타원 1185" class="cls-2" transform="translate(40.691 9.12)">
              <ellipse class="cls-5" cx="6.132" cy="8.469" rx="6.132" ry="8.469"/>
              <ellipse class="cls-6" cx="6.132" cy="8.469" rx="5.757" ry="8.094"/>
            </g>
            <g id="타원_1189" data-name="타원 1189" class="cls-2" transform="translate(84.935 2.759)">
              <ellipse class="cls-5" cx="3.372" cy="5.71" rx="3.372" ry="5.71"/>
              <ellipse class="cls-6" cx="3.372" cy="5.71" rx="2.997" ry="5.335"/>
            </g>
          </g>
          <path id="패스_5875" data-name="패스 5875" class="cls-2" d="M5057.534,14297.992h0a14.074,14.074,0,0,0-1.4-4.149,7.034,7.034,0,0,0-2.8-2.424,11.516,11.516,0,0,0-.873-3.668,12.394,12.394,0,0,0-6.155-6.863c-4.406-2.369-15.447-5.256-30.8-3.215s-22.089,5.016-33.421,10.078a69.23,69.23,0,0,0-15.831,9.289c-1.824,1.513-3.392,3.261-3.445,3.994a38.092,38.092,0,0,1-1.238,5.687s1.912,2.334,1.238,3.6-1.418,1.063-1.36,2.707.122,3,1.689,3.6,26.312,4.833,30.535,5.146,7.145.442,8.4-1.437,2.224-9.685,2.714-11.987,2.577-7.3,6.5-8.456a7.032,7.032,0,0,1,8.62,4.589c1.071,3.275,1.728,10.783,1.248,12.5s15.813-4.215,15.813-4.215l11.636-2.326s1.113-7.907,2.272-10.9,2.883-3.951,4.153-3.69,2.517,2.225,2.508,2.143" transform="translate(-4961.446 -14276.979)"/>
          <path id="패스_5880" data-name="패스 5880" class="cls-2" d="M4965.935,14312.405l-.388.3-1.167,1.43c.007.535,2.041,7.082,2.137,7.162.8.657,15.5,2.84,16.342,2.248s4.624-6.589,4.484-6.955a28.529,28.529,0,0,0-3.624-2.455S4966.59,14312.244,4965.935,14312.405Z" transform="translate(-4962.355 -14287.865)"/>
          <path id="패스_5876" data-name="패스 5876" class="cls-2" d="M4967.127,14305.728v2.067l18.11,1.468s18.871-4.182,19.506-3.971-2.7,7.468-4.126,8.03-8.606,1.761-9.846,2.776-3.611,3.426-3.26,5.927,6.648,4.229,6.648,4.229,7.469,2.913,8.455-1.528c.228-1.015.832-5.529,1.343-7.507,1.476-5.735,4.227-11.361,10.1-11.928,7.616-.731,8.173,4.306,8.77,5.848a42.019,42.019,0,0,1,1.354,10.057c.041,1.684,3.1-.4,9.283-2.626a80.774,80.774,0,0,1,12.837-3.185c0-.088,3.039.8,3.25.427s-.124-7.106,2.928-11.054,5.916-1.887,5.916-1.887" transform="translate(-4963.21 -14284.686)"/>
          <path id="패스_5884" data-name="패스 5884" class="cls-2" d="M5065.355,14281.523a24.153,24.153,0,0,1,3,11.18c.5.133,6.69-1.438,6.69-1.438s4.32-4.4,4.582-4.929-3.2-3.151-7.2-4.388C5068.627,14280.777,5064.475,14280.552,5065.355,14281.523Z" transform="translate(-4992.324 -14278.201)"/>
          <path id="패스_5883" data-name="패스 5883" class="cls-2" d="M5040.933,14277.407c1.077.084-6.836.667-12.254,3.283a34.742,34.742,0,0,0-9.62,7.43l-18.889,4.469c-5.607-.262-11.261-.532-11.63-1.251s2.377-3.867,2.377-3.867a95.2,95.2,0,0,1,20.836-8.054A93.77,93.77,0,0,1,5040.933,14277.407Z" transform="translate(-4969.276 -14276.996)"/>
          <path id="패스_5877" data-name="패스 5877" class="cls-3" d="M5021.158,14305.2s16.806-10.411,24.209,6.881" transform="translate(-4979.215 -14284.693)"/>
          <path id="패스_5879" data-name="패스 5879" class="cls-2" d="M5048.668,14317.068l5.23-6.38,14.833-2.468s2.625-9.843,10.532-10.271" transform="translate(-4987.185 -14283.402)"/>
        </g>
        <path id="패스_6019" data-name="패스 6019" class="cls-2" d="M.042,8.239c-.5-.476,3.473-3.812,7.911-6.082S16.732-.308,18.1.288c.99,1.052,3.5,6.918,2.326,10.059-.576.873-6.149,1.426-8,1.542S.536,8.716.042,8.239Z" transform="matrix(0.996, -0.087, 0.087, 0.996, 50.489, 6.109)"/>
      </g>
    </g>
    <g id="패스_8797" data-name="패스 8797" class="cls-4" transform="translate(299.829 519.542) rotate(135)">
      <path class="cls-5" d="M -0.9077892303466797 9.625656127929688 C -0.07625682651996613 8.205989837646484 0.9883866906166077 6.09406042098999 1.138857245445251 4.373181343078613 C 1.291345834732056 2.629169464111328 0.8917250633239746 1.188388824462891 0.5489366054534912 0.3169428408145905 C 1.390538454055786 0.6195831298828125 2.7056725025177 0.9977713227272034 4.022367000579834 0.9977713227272034 C 4.375977039337158 0.9977713227272034 4.714547157287598 0.9698513150215149 5.028687000274658 0.9147912859916687 C 6.536314487457275 0.6505408883094788 8.286684989929199 -0.1066723242402077 9.391168594360352 -0.6394996047019958 C 8.759491920471191 0.5718261003494263 7.825974941253662 2.547515392303467 7.653347015380859 3.9396812915802 C 7.475385665893555 5.374858379364014 8.034458160400391 7.171985149383545 8.43419075012207 8.2259521484375 C 7.634054183959961 7.921292781829834 6.358921051025391 7.551821231842041 4.880657196044922 7.551821231842041 C 4.585137367248535 7.551821231842041 4.289707183837891 7.566981315612793 4.002577304840088 7.596901416778564 C 2.302884340286255 7.773981094360352 0.3923257887363434 8.79942512512207 -0.9077892303466797 9.625656127929688 Z"/>
      <path class="cls-7" d="M 8.58056640625 0.1449499130249023 C 7.533829212188721 0.601348876953125 6.246983528137207 1.081974029541016 5.093427181243896 1.284161567687988 C 4.757946968078613 1.342961311340332 4.397587299346924 1.372771263122559 4.022367000579834 1.372771263122559 C 2.991866588592529 1.372771263122559 1.964218139648438 1.150718688964844 1.147346496582031 0.9073219299316406 C 1.417125225067139 1.807518482208252 1.63395357131958 3.016064167022705 1.512437343597412 4.405851364135742 C 1.395330429077148 5.745165824890137 0.7515988349914551 7.301582336425781 0.07854557037353516 8.608953475952148 C 1.262475490570068 7.962481021881104 2.667803287506104 7.35893440246582 3.963716983795166 7.223921298980713 C 4.263687133789062 7.192671298980713 4.572187423706055 7.176821231842041 4.880657196044922 7.176821231842041 C 6.014073371887207 7.176821231842041 7.034040451049805 7.386834144592285 7.825799942016602 7.624675273895264 C 7.472241878509521 6.539876937866211 7.131363868713379 5.101895809173584 7.281197071075439 3.89354133605957 C 7.41928768157959 2.779874801635742 8.018321990966797 1.321270942687988 8.58056640625 0.1449499130249023 M 10.30421733856201 -1.527218818664551 C 10.30421733856201 -1.527218818664551 8.278797149658203 1.943041324615479 8.025497436523438 3.985831260681152 C 7.772197246551514 6.028611183166504 9.140256881713867 8.948971748352051 9.140256881713867 8.948971748352051 C 9.140256881713867 8.948971748352051 7.274829864501953 7.92681884765625 4.88065767288208 7.92681884765625 C 4.607112407684326 7.92681884765625 4.326797485351562 7.940152168273926 4.041437149047852 7.969881057739258 C 1.25849723815918 8.259820938110352 -2.223362922668457 11.00036144256592 -2.223362922668457 11.00036144256592 C -2.223362922668457 11.00036144256592 0.5249772071838379 7.088850975036621 0.7652873992919922 4.340521335601807 C 1.005587100982666 1.592201232910156 -0.1992225646972656 -0.3904991149902344 -0.1992225646972656 -0.3904991149902344 C -0.1992225646972656 -0.3904991149902344 1.933953285217285 0.6227693557739258 4.022366523742676 0.6227693557739258 C 4.339842796325684 0.6227693557739258 4.656185150146484 0.5993642807006836 4.963947296142578 0.5454216003417969 C 7.29622745513916 0.1366310119628906 10.30421733856201 -1.527218818664551 10.30421733856201 -1.527218818664551 Z"/>
    </g>
    <g id="패스_8798" data-name="패스 8798" class="cls-4" transform="translate(302.02 509.675) rotate(-133)">
      <path class="cls-5" d="M 7.800371170043945 8.148459434509277 C 6.654529094696045 7.467903137207031 5.066785335540771 6.638810157775879 3.981147766113281 6.534438610076904 C 3.842517614364624 6.521118640899658 3.696207761764526 6.514358997344971 3.546257734298706 6.514358997344971 C 2.425347566604614 6.514358997344971 1.217560887336731 6.884872436523438 0.4726387560367584 7.161214351654053 C 0.692568838596344 6.267636299133301 0.9890288710594177 4.7492356300354 0.8170977234840393 3.589748859405518 C 0.6562151312828064 2.504760503768921 -0.02049067988991737 0.9059822559356689 -0.5015344023704529 -0.1330368965864182 C 0.5647514462471008 0.3989989757537842 2.232919216156006 1.15494441986084 3.327497720718384 1.279928803443909 C 3.521087646484375 1.302028775215149 3.730247735977173 1.313238859176636 3.949147701263428 1.313238859176636 C 4.894155025482178 1.313238859176636 5.884563446044922 1.109025478363037 6.532022476196289 0.9435367584228516 C 6.293973922729492 1.698133707046509 5.997440338134766 2.949712753295898 6.133957862854004 4.20150899887085 C 6.259570598602295 5.353259563446045 7.109944820404053 6.984174251556396 7.800371170043945 8.148459434509277 Z"/>
      <path class="cls-7" d="M 0.2537007331848145 0.6456942558288574 C 0.6563758850097656 1.595890998840332 1.064959526062012 2.704676628112793 1.188047885894775 3.534739017486572 C 1.330574512481689 4.495941162109375 1.169997215270996 5.680205345153809 0.9845561981201172 6.590678691864014 C 1.722666263580322 6.359414100646973 2.658298492431641 6.139358520507812 3.546257495880127 6.139358520507812 C 3.708107709884644 6.139358520507812 3.866497755050659 6.146688461303711 4.017027854919434 6.161158561706543 C 4.82684850692749 6.239011764526367 5.867593288421631 6.676029682159424 6.822873592376709 7.170970916748047 C 6.312799453735352 6.187914371490479 5.855154037475586 5.103929042816162 5.761167526245117 4.24216890335083 C 5.650899887084961 3.23105525970459 5.808628082275391 2.222442626953125 6.00054407119751 1.451230525970459 C 5.395071983337402 1.577376842498779 4.660608291625977 1.688238620758057 3.949147701263428 1.688238620758057 C 3.716047763824463 1.688238620758057 3.49257755279541 1.67621898651123 3.284957885742188 1.652508735656738 C 2.417850017547607 1.553496837615967 1.246264934539795 1.097743988037109 0.2537007331848145 0.6456942558288574 M -1.333971977233887 -0.9915809631347656 C -1.333971977233887 -0.9915809631347656 1.743887901306152 0.7216687202453613 3.37003755569458 0.9073486328125 C 3.55752420425415 0.9287567138671875 3.752111911773682 0.9382414817810059 3.949143648147583 0.9382414817810059 C 5.46104097366333 0.9382414817810059 7.134097576141357 0.3810386657714844 7.134097576141357 0.3810386657714844 C 7.134097576141357 0.3810386657714844 6.303047657012939 2.293008804321289 6.506747722625732 4.160858631134033 C 6.710457801818848 6.028708457946777 9.018097877502441 9.366909027099609 9.018097877502441 9.366909027099609 C 9.018097877502441 9.366909027099609 5.706197738647461 7.077008724212646 3.945257663726807 6.907718658447266 C 3.814778566360474 6.895175933837891 3.681224346160889 6.889357566833496 3.54625415802002 6.889357566833496 C 1.859682083129883 6.889357566833496 -0.08880233764648438 7.795348644256592 -0.08880233764648438 7.795348644256592 C -0.08880233764648438 7.795348644256592 0.6906275749206543 5.293468475341797 0.4461579322814941 3.644748687744141 C 0.2016777992248535 1.996038913726807 -1.333971977233887 -0.9915809631347656 -1.333971977233887 -0.9915809631347656 Z"/>
    </g>
  </g>
</svg>
