<svg xmlns="http://www.w3.org/2000/svg" xmlns:xlink="http://www.w3.org/1999/xlink" width="316.09" height="237.688" viewBox="0 0 316.09 237.688">
  <defs>
    <style>
      .cls-1, .cls-19, .cls-23, .cls-3 {
        fill: #fff;
      }

      .cls-1 {
        stroke: #707070;
      }

      .cls-2 {
        fill: #fafafa;
      }

      .cls-4 {
        fill: #f4f4f4;
      }

      .cls-5 {
        fill: #f7f7f7;
      }

      .cls-6 {
        fill: #e7e7e7;
      }

      .cls-7 {
        fill: #dedede;
        font-size: 14px;
        font-family: Whitney-Bold, Whitney;
        font-weight: 700;
      }

      .cls-8 {
        fill: #f0f0f0;
      }

      .cls-9 {
        fill: #f5f5f5;
      }

      .cls-10, .cls-12 {
        fill: #e0e0e0;
      }

      .cls-10 {
        opacity: 0.5;
      }

      .cls-11 {
        fill: #e6e6e6;
      }

      .cls-13 {
        fill: #ebebeb;
      }

      .cls-14, .cls-17 {
        fill: #e4e4e4;
      }

      .cls-15 {
        fill: #d5d5d5;
        opacity: 0.551;
      }

      .cls-16 {
        fill: #dbdbdb;
      }

      .cls-17 {
        stroke: #fff;
      }

      .cls-18 {
        fill: #c1c1c1;
      }

      .cls-19, .cls-21, .cls-22 {
        fill-rule: evenodd;
      }

      .cls-20, .cls-22 {
        fill: #0f1f2e;
      }

      .cls-21 {
        fill: #727272;
        stroke-linecap: round;
      }

      .cls-21, .cls-23 {
        stroke: #0f1f2e;
        stroke-width: 1.5px;
      }

      .cls-24 {
        clip-path: url(#clip-path);
      }
    </style>
    <clipPath id="clip-path">
      <rect id="ì‚¬ê°í˜•_6380" data-name="ì‚¬ê°í˜• 6380" class="cls-1" width="146" height="173.723"/>
    </clipPath>
  </defs>
  <g id="img2" transform="translate(-96.757 -184.812)">
    <g id="Background_Complete" data-name="Background Complete" transform="translate(219.744 -38.377)">
      <g id="ê·¸ë£¹_18335" data-name="ê·¸ë£¹ 18335" transform="translate(-71.944 223.189)">
        <g id="ê·¸ë£¹_18327" data-name="ê·¸ë£¹ 18327" transform="translate(-44 72.712)">
          <rect id="ì‚¬ê°í˜•_6186" data-name="ì‚¬ê°í˜• 6186" class="cls-2" width="15.385" height="53.244" transform="translate(0 84.044)"/>
          <rect id="ì‚¬ê°í˜•_6187" data-name="ì‚¬ê°í˜• 6187" class="cls-2" width="15.385" height="41.565" transform="translate(13.473 95.723)"/>
          <rect id="ì‚¬ê°í˜•_6188" data-name="ì‚¬ê°í˜• 6188" class="cls-2" width="15.385" height="75.818" transform="translate(23.31 61.471)"/>
          <rect id="ì‚¬ê°í˜•_6189" data-name="ì‚¬ê°í˜• 6189" class="cls-3" width="15.385" height="126.602" transform="translate(33.534 10.686)"/>
          <rect id="ì‚¬ê°í˜•_6190" data-name="ì‚¬ê°í˜• 6190" class="cls-4" width="41.284" height="126.602" transform="translate(45.688 10.686)"/>
        </g>
        <g id="ê·¸ë£¹_18328" data-name="ê·¸ë£¹ 18328" transform="translate(209.156 116.037)">
          <rect id="ì‚¬ê°í˜•_6191" data-name="ì‚¬ê°í˜• 6191" class="cls-2" width="17.578" height="36.441" transform="translate(55.892 93.963) rotate(180)"/>
          <rect id="ì‚¬ê°í˜•_6192" data-name="ì‚¬ê°í˜• 6192" class="cls-2" width="17.578" height="28.448" transform="translate(40.499 93.963) rotate(180)"/>
          <rect id="ì‚¬ê°í˜•_6193" data-name="ì‚¬ê°í˜• 6193" class="cls-2" width="17.578" height="51.891" transform="translate(29.259 93.963) rotate(180)"/>
          <rect id="ì‚¬ê°í˜•_6194" data-name="ì‚¬ê°í˜• 6194" class="cls-2" width="17.578" height="93.963" transform="translate(17.578 93.963) rotate(180)"/>
        </g>
        <g id="ê·¸ë£¹_18334" data-name="ê·¸ë£¹ 18334" transform="translate(37.957)">
          <path id="íŒ¨ìŠ¤_12365" data-name="íŒ¨ìŠ¤ 12365" class="cls-5" d="M0,0H44.833V22.641H0Z" transform="translate(123.874 72.573)"/>
          <rect id="ì‚¬ê°í˜•_5330" data-name="ì‚¬ê°í˜• 5330" class="cls-6" width="19.669" height="22.641" transform="translate(118.713 72.573)"/>
          <text id="GS" class="cls-7" transform="translate(143.301 89.439)"><tspan x="0" y="0">GS</tspan></text>
          <g id="ê·¸ë£¹_18330" data-name="ê·¸ë£¹ 18330" transform="translate(126.713 95.214)">
            <rect id="ì‚¬ê°í˜•_6195" data-name="ì‚¬ê°í˜• 6195" class="cls-8" width="53.939" height="114.786"/>
            <g id="ê·¸ë£¹_18329" data-name="ê·¸ë£¹ 18329" transform="translate(18.863 6.72)">
              <rect id="ì‚¬ê°í˜•_6196" data-name="ì‚¬ê°í˜• 6196" class="cls-9" width="2.569" height="13.969" transform="translate(36.404)"/>
              <rect id="ì‚¬ê°í˜•_6197" data-name="ì‚¬ê°í˜• 6197" class="cls-9" width="2.569" height="13.969" transform="translate(36.404 21.844)"/>
              <rect id="ì‚¬ê°í˜•_6198" data-name="ì‚¬ê°í˜• 6198" class="cls-9" width="2.569" height="13.969" transform="translate(36.404 43.688)"/>
              <rect id="ì‚¬ê°í˜•_6199" data-name="ì‚¬ê°í˜• 6199" class="cls-9" width="2.569" height="13.969" transform="translate(36.404 65.533)"/>
              <rect id="ì‚¬ê°í˜•_6200" data-name="ì‚¬ê°í˜• 6200" class="cls-9" width="2.569" height="13.969" transform="translate(36.404 87.377)"/>
              <rect id="ì‚¬ê°í˜•_6201" data-name="ì‚¬ê°í˜• 6201" class="cls-9" width="2.568" height="13.969" transform="translate(27.303)"/>
              <rect id="ì‚¬ê°í˜•_6202" data-name="ì‚¬ê°í˜• 6202" class="cls-9" width="2.568" height="13.969" transform="translate(27.303 21.844)"/>
              <rect id="ì‚¬ê°í˜•_6203" data-name="ì‚¬ê°í˜• 6203" class="cls-9" width="2.568" height="13.969" transform="translate(27.303 43.688)"/>
              <rect id="ì‚¬ê°í˜•_6204" data-name="ì‚¬ê°í˜• 6204" class="cls-9" width="2.568" height="13.969" transform="translate(27.303 65.533)"/>
              <rect id="ì‚¬ê°í˜•_6205" data-name="ì‚¬ê°í˜• 6205" class="cls-9" width="2.568" height="13.969" transform="translate(27.303 87.377)"/>
              <rect id="ì‚¬ê°í˜•_6206" data-name="ì‚¬ê°í˜• 6206" class="cls-9" width="2.568" height="13.969" transform="translate(18.202)"/>
              <rect id="ì‚¬ê°í˜•_6207" data-name="ì‚¬ê°í˜• 6207" class="cls-9" width="2.568" height="13.969" transform="translate(18.202 21.844)"/>
              <rect id="ì‚¬ê°í˜•_6208" data-name="ì‚¬ê°í˜• 6208" class="cls-9" width="2.568" height="13.969" transform="translate(18.202 43.688)"/>
              <rect id="ì‚¬ê°í˜•_6209" data-name="ì‚¬ê°í˜• 6209" class="cls-9" width="2.568" height="13.969" transform="translate(18.202 65.533)"/>
              <rect id="ì‚¬ê°í˜•_6210" data-name="ì‚¬ê°í˜• 6210" class="cls-9" width="2.568" height="13.969" transform="translate(18.202 87.377)"/>
              <rect id="ì‚¬ê°í˜•_6211" data-name="ì‚¬ê°í˜• 6211" class="cls-9" width="2.568" height="13.969" transform="translate(9.101)"/>
              <rect id="ì‚¬ê°í˜•_6212" data-name="ì‚¬ê°í˜• 6212" class="cls-9" width="2.568" height="13.969" transform="translate(9.101 21.844)"/>
              <rect id="ì‚¬ê°í˜•_6213" data-name="ì‚¬ê°í˜• 6213" class="cls-9" width="2.568" height="13.969" transform="translate(9.101 43.688)"/>
              <rect id="ì‚¬ê°í˜•_6214" data-name="ì‚¬ê°í˜• 6214" class="cls-9" width="2.568" height="13.969" transform="translate(9.101 65.533)"/>
              <rect id="ì‚¬ê°í˜•_6215" data-name="ì‚¬ê°í˜• 6215" class="cls-9" width="2.568" height="13.969" transform="translate(9.101 87.377)"/>
              <rect id="ì‚¬ê°í˜•_6216" data-name="ì‚¬ê°í˜• 6216" class="cls-9" width="2.568" height="13.969"/>
              <rect id="ì‚¬ê°í˜•_6217" data-name="ì‚¬ê°í˜• 6217" class="cls-9" width="2.568" height="13.969" transform="translate(0 21.844)"/>
              <rect id="ì‚¬ê°í˜•_6218" data-name="ì‚¬ê°í˜• 6218" class="cls-9" width="2.568" height="13.969" transform="translate(0 43.688)"/>
              <rect id="ì‚¬ê°í˜•_6219" data-name="ì‚¬ê°í˜• 6219" class="cls-9" width="2.568" height="13.969" transform="translate(0 65.533)"/>
              <rect id="ì‚¬ê°í˜•_6220" data-name="ì‚¬ê°í˜• 6220" class="cls-9" width="2.568" height="13.969" transform="translate(0 87.377)"/>
            </g>
            <path id="íŒ¨ìŠ¤_12987" data-name="íŒ¨ìŠ¤ 12987" class="cls-10" d="M168.371,357.833h11.113l4.833,114.786H168.371Z" transform="translate(-168.371 -357.833)"/>
          </g>
          <g id="ê·¸ë£¹_18331" data-name="ê·¸ë£¹ 18331" transform="translate(74.608 32.832)">
            <path id="íŒ¨ìŠ¤_12988" data-name="íŒ¨ìŠ¤ 12988" class="cls-8" d="M131.831,296.711l31.987,6.739V473.879H131.831Z" transform="translate(-106.241 -296.711)"/>
            <rect id="ì‚¬ê°í˜•_6221" data-name="ì‚¬ê°í˜• 6221" class="cls-11" width="25.59" height="177.168" transform="translate(0)"/>
            <rect id="ì‚¬ê°í˜•_6222" data-name="ì‚¬ê°í˜• 6222" class="cls-12" width="57.577" height="0.815" transform="translate(57.577 14.001) rotate(180)"/>
            <rect id="ì‚¬ê°í˜•_6223" data-name="ì‚¬ê°í˜• 6223" class="cls-12" width="57.577" height="0.815" transform="translate(57.577 22.666) rotate(180)"/>
            <rect id="ì‚¬ê°í˜•_6224" data-name="ì‚¬ê°í˜• 6224" class="cls-12" width="57.577" height="0.815" transform="translate(57.577 31.331) rotate(180)"/>
            <rect id="ì‚¬ê°í˜•_6225" data-name="ì‚¬ê°í˜• 6225" class="cls-12" width="57.577" height="0.815" transform="translate(57.577 44.458) rotate(180)"/>
            <rect id="ì‚¬ê°í˜•_6226" data-name="ì‚¬ê°í˜• 6226" class="cls-12" width="57.577" height="0.815" transform="translate(57.577 54.11) rotate(180)"/>
            <rect id="ì‚¬ê°í˜•_6227" data-name="ì‚¬ê°í˜• 6227" class="cls-12" width="57.577" height="0.815" transform="translate(57.577 63.761) rotate(180)"/>
            <rect id="ì‚¬ê°í˜•_6228" data-name="ì‚¬ê°í˜• 6228" class="cls-12" width="57.577" height="0.815" transform="translate(57.577 73.413) rotate(180)"/>
            <rect id="ì‚¬ê°í˜•_6229" data-name="ì‚¬ê°í˜• 6229" class="cls-12" width="57.577" height="0.815" transform="translate(57.577 83.065) rotate(180)"/>
            <rect id="ì‚¬ê°í˜•_6230" data-name="ì‚¬ê°í˜• 6230" class="cls-12" width="57.577" height="0.815" transform="translate(57.577 92.717) rotate(180)"/>
            <rect id="ì‚¬ê°í˜•_6231" data-name="ì‚¬ê°í˜• 6231" class="cls-12" width="57.577" height="0.815" transform="translate(57.577 102.368) rotate(180)"/>
            <rect id="ì‚¬ê°í˜•_6232" data-name="ì‚¬ê°í˜• 6232" class="cls-12" width="57.577" height="0.815" transform="translate(57.577 112.02) rotate(180)"/>
            <rect id="ì‚¬ê°í˜•_6233" data-name="ì‚¬ê°í˜• 6233" class="cls-12" width="57.577" height="0.815" transform="translate(57.577 121.672) rotate(180)"/>
            <rect id="ì‚¬ê°í˜•_6234" data-name="ì‚¬ê°í˜• 6234" class="cls-12" width="57.577" height="0.815" transform="translate(57.577 131.324) rotate(180)"/>
            <rect id="ì‚¬ê°í˜•_6235" data-name="ì‚¬ê°í˜• 6235" class="cls-12" width="57.577" height="0.815" transform="translate(57.577 140.976) rotate(180)"/>
            <rect id="ì‚¬ê°í˜•_6236" data-name="ì‚¬ê°í˜• 6236" class="cls-12" width="57.577" height="0.815" transform="translate(57.577 153.341) rotate(180)"/>
            <rect id="ì‚¬ê°í˜•_6237" data-name="ì‚¬ê°í˜• 6237" class="cls-12" width="57.577" height="0.815" transform="translate(57.577 162.006) rotate(180)"/>
            <rect id="ì‚¬ê°í˜•_6238" data-name="ì‚¬ê°í˜• 6238" class="cls-12" width="57.577" height="0.815" transform="translate(57.577 170.671) rotate(180)"/>
          </g>
          <g id="ê·¸ë£¹_18332" data-name="ê·¸ë£¹ 18332" transform="translate(25.451)">
            <path id="íŒ¨ìŠ¤_12989" data-name="íŒ¨ìŠ¤ 12989" class="cls-2" d="M71.831,243.66H40.406l11.564-17.039h45Z" transform="translate(-40.406 -226.621)"/>
            <path id="íŒ¨ìŠ¤_12990" data-name="íŒ¨ìŠ¤ 12990" class="cls-13" d="M77.277,243.66l21.4-17.039v210h-21.4Z" transform="translate(-42.117 -226.621)"/>
            <rect id="ì‚¬ê°í˜•_6240" data-name="ì‚¬ê°í˜• 6240" class="cls-12" width="56.565" height="1.027" transform="translate(0 26.03)"/>
            <rect id="ì‚¬ê°í˜•_6241" data-name="ì‚¬ê°í˜• 6241" class="cls-12" width="56.565" height="1.027" transform="translate(0 36.952)"/>
            <rect id="ì‚¬ê°í˜•_6242" data-name="ì‚¬ê°í˜• 6242" class="cls-12" width="56.565" height="1.028" transform="translate(0 47.874)"/>
            <rect id="ì‚¬ê°í˜•_6243" data-name="ì‚¬ê°í˜• 6243" class="cls-12" width="56.565" height="1.028" transform="translate(0 58.796)"/>
            <rect id="ì‚¬ê°í˜•_6244" data-name="ì‚¬ê°í˜• 6244" class="cls-12" width="56.565" height="1.028" transform="translate(0 69.718)"/>
            <rect id="ì‚¬ê°í˜•_6245" data-name="ì‚¬ê°í˜• 6245" class="cls-12" width="56.565" height="1.028" transform="translate(0 80.64)"/>
            <rect id="ì‚¬ê°í˜•_6246" data-name="ì‚¬ê°í˜• 6246" class="cls-12" width="56.565" height="1.028" transform="translate(0 91.562)"/>
            <rect id="ì‚¬ê°í˜•_6247" data-name="ì‚¬ê°í˜• 6247" class="cls-12" width="56.565" height="1.028" transform="translate(0 102.484)"/>
            <rect id="ì‚¬ê°í˜•_6248" data-name="ì‚¬ê°í˜• 6248" class="cls-12" width="56.565" height="1.027" transform="translate(0 113.406)"/>
            <rect id="ì‚¬ê°í˜•_6249" data-name="ì‚¬ê°í˜• 6249" class="cls-12" width="56.565" height="1.027" transform="translate(0 124.329)"/>
            <rect id="ì‚¬ê°í˜•_6250" data-name="ì‚¬ê°í˜• 6250" class="cls-12" width="56.565" height="1.027" transform="translate(0 135.251)"/>
            <rect id="ì‚¬ê°í˜•_6251" data-name="ì‚¬ê°í˜• 6251" class="cls-12" width="56.565" height="1.028" transform="translate(0 146.173)"/>
            <rect id="ì‚¬ê°í˜•_6252" data-name="ì‚¬ê°í˜• 6252" class="cls-12" width="56.565" height="1.028" transform="translate(0 157.095)"/>
            <rect id="ì‚¬ê°í˜•_6253" data-name="ì‚¬ê°í˜• 6253" class="cls-12" width="56.565" height="1.028" transform="translate(0 168.017)"/>
            <rect id="ì‚¬ê°í˜•_6254" data-name="ì‚¬ê°í˜• 6254" class="cls-12" width="56.565" height="1.028" transform="translate(0 178.939)"/>
            <rect id="ì‚¬ê°í˜•_6255" data-name="ì‚¬ê°í˜• 6255" class="cls-12" width="56.565" height="1.028" transform="translate(0 189.861)"/>
            <rect id="ì‚¬ê°í˜•_6256" data-name="ì‚¬ê°í˜• 6256" class="cls-12" width="56.565" height="1.028" transform="translate(0 200.783)"/>
          </g>
          <g id="ê·¸ë£¹_18333" data-name="ê·¸ë£¹ 18333" transform="translate(-89 103.512)">
            <rect id="ì‚¬ê°í˜•_6257" data-name="ì‚¬ê°í˜• 6257" class="cls-8" width="29.206" height="99.588" transform="translate(0 6.9)"/>
            <rect id="ì‚¬ê°í˜•_6258" data-name="ì‚¬ê°í˜• 6258" class="cls-11" width="4.687" height="15.983" transform="translate(5.749 12.048)"/>
            <rect id="ì‚¬ê°í˜•_6259" data-name="ì‚¬ê°í˜• 6259" class="cls-11" width="4.687" height="15.983" transform="translate(17.248 12.048)"/>
            <rect id="ì‚¬ê°í˜•_6260" data-name="ì‚¬ê°í˜• 6260" class="cls-11" width="4.687" height="15.983" transform="translate(5.749 32.747)"/>
            <rect id="ì‚¬ê°í˜•_6261" data-name="ì‚¬ê°í˜• 6261" class="cls-11" width="4.687" height="15.983" transform="translate(17.248 32.747)"/>
            <rect id="ì‚¬ê°í˜•_6262" data-name="ì‚¬ê°í˜• 6262" class="cls-11" width="4.687" height="15.983" transform="translate(5.749 53.446)"/>
            <rect id="ì‚¬ê°í˜•_6263" data-name="ì‚¬ê°í˜• 6263" class="cls-11" width="4.687" height="15.983" transform="translate(17.248 53.446)"/>
            <rect id="ì‚¬ê°í˜•_6264" data-name="ì‚¬ê°í˜• 6264" class="cls-11" width="4.687" height="15.983" transform="translate(5.749 74.145)"/>
            <rect id="ì‚¬ê°í˜•_6265" data-name="ì‚¬ê°í˜• 6265" class="cls-11" width="4.687" height="15.983" transform="translate(17.248 74.145)"/>
            <path id="íŒ¨ìŠ¤_12991" data-name="íŒ¨ìŠ¤ 12991" class="cls-3" d="M22.955,376.169H-6.251l6.851-6.9H29.806Z" transform="translate(6.251 -369.269)"/>
            <path id="íŒ¨ìŠ¤_12992" data-name="íŒ¨ìŠ¤ 12992" class="cls-11" d="M34,376.169l6.851-6.9,6.851,6.9v99.588H34Z" transform="translate(-4.792 -369.269)"/>
          </g>
        </g>
      </g>
    </g>
    <g id="ì£¼ìœ ì†Œ" transform="translate(130.1 319.565)">
      <g id="ê·¸ë£¹_15495" data-name="ê·¸ë£¹ 15495" transform="translate(13.692 50.05)">
        <path id="íŒ¨ìŠ¤_9122" data-name="íŒ¨ìŠ¤ 9122" class="cls-14" d="M261.117,487.71v24.715h44.536V487.231Z" transform="translate(-261.117 -487.231)"/>
        <path id="í•©ì¹˜ê¸°_151" data-name="í•©ì¹˜ê¸° 151" class="cls-14" d="M0,24.649V0H12.8V24.649Z" transform="translate(44.536 0.548)"/>
      </g>
      <g id="ê·¸ë£¹_15497" data-name="ê·¸ë£¹ 15497" transform="translate(15.621 55.264)">
        <rect id="ì‚¬ê°í˜•_5275" data-name="ì‚¬ê°í˜• 5275" class="cls-3" width="18.64" height="19.982" transform="translate(0 0)"/>
        <rect id="ì‚¬ê°í˜•_5276" data-name="ì‚¬ê°í˜• 5276" class="cls-3" width="19.64" height="19.982" transform="translate(21.083 0)"/>
      </g>
      <path id="íŒ¨ìŠ¤_9215" data-name="íŒ¨ìŠ¤ 9215" class="cls-13" d="M0,0H48.167V10.913H0Z" transform="translate(9.658 39.985)"/>
      <rect id="ì‚¬ê°í˜•_5295" data-name="ì‚¬ê°í˜• 5295" class="cls-14" width="15.005" height="10.914" transform="translate(57.825 39.985)"/>
      <path id="íŒ¨ìŠ¤_9218" data-name="íŒ¨ìŠ¤ 9218" class="cls-15" d="M318.458,483.335H261.117V485.6l57.341,11.751Z" transform="translate(-247.425 -432.52)"/>
      <g id="ê·¸ë£¹_15500" data-name="ê·¸ë£¹ 15500" transform="translate(4.693 34.315)">
        <rect id="ì‚¬ê°í˜•_5297" data-name="ì‚¬ê°í˜• 5297" class="cls-16" width="3.128" height="40.931" transform="translate(-3)"/>
        <rect id="ì‚¬ê°í˜•_5298" data-name="ì‚¬ê°í˜• 5298" class="cls-14" width="3.128" height="40.931" transform="translate(68.167)"/>
      </g>
      <g id="ê·¸ë£¹_15501" data-name="ê·¸ë£¹ 15501" transform="translate(12.621 0.257)">
        <rect id="ì‚¬ê°í˜•_5300" data-name="ì‚¬ê°í˜• 5300" class="cls-14" width="39.42" height="25.023" rx="8" transform="translate(16.747 -0.753)"/>
        <rect id="ì‚¬ê°í˜•_5299" data-name="ì‚¬ê°í˜• 5299" class="cls-17" width="42.898" height="25.023" rx="8" transform="translate(0 -0.753)"/>
        <rect id="ì‚¬ê°í˜•_5864" data-name="ì‚¬ê°í˜• 5864" class="cls-14" width="3" height="2.874" transform="translate(11.325 25.023)"/>
        <rect id="ì‚¬ê°í˜•_5865" data-name="ì‚¬ê°í˜• 5865" class="cls-14" width="3" height="3.627" transform="translate(40.325 24.27)"/>
        <g id="ê·¸ë£¹_18084" data-name="ê·¸ë£¹ 18084" transform="translate(7.957 4.82)">
          <path id="íŒ¨ìŠ¤_12698" data-name="íŒ¨ìŠ¤ 12698" class="cls-3" d="M740.421,819.916a6.692,6.692,0,1,0,6.692,6.692,6.692,6.692,0,0,0-6.692-6.692" transform="translate(-722.13 -819.916)"/>
          <path id="íŒ¨ìŠ¤_12699" data-name="íŒ¨ìŠ¤ 12699" class="cls-3" d="M675.733,825.181a4.283,4.283,0,0,1,8.078,0,.166.166,0,0,1-.156.222h-7.765a.166.166,0,0,1-.156-.222m6.963,4.731a.11.11,0,0,0-.167-.028,4.282,4.282,0,0,1-6.8-1.851.166.166,0,0,1,.156-.222h8.9a6.737,6.737,0,0,1-.11-1.2,6.659,6.659,0,0,1,.892-3.337,6.693,6.693,0,1,0-1.8,8.7.111.111,0,0,0,.029-.144Z" transform="translate(-673.08 -819.915)"/>
          <path id="íŒ¨ìŠ¤_12700" data-name="íŒ¨ìŠ¤ 12700" class="cls-14" d="M754.629,837.055h-3.761v3.761a.261.261,0,0,1-.523,0v-3.761h-3.761a.261.261,0,1,1,0-.523h3.761v-3.761a.261.261,0,0,1,.523,0v3.761h3.761a.261.261,0,0,1,0,.523" transform="translate(-732.316 -830.102)"/>
        </g>
      </g>
      <path id="íŒ¨ìŠ¤_12351" data-name="íŒ¨ìŠ¤ 12351" class="cls-13" d="M0,0H57.825V7.3H0Z" transform="translate(0 28.154)"/>
      <rect id="ì‚¬ê°í˜•_5863" data-name="ì‚¬ê°í˜• 5863" class="cls-14" width="22.304" height="7.299" transform="translate(57.825 28.154)"/>
    </g>
    <g id="ê·¸ë£¹_18832" data-name="ê·¸ë£¹ 18832" transform="translate(-16.222 -12.688)">
      <g id="ê·¸ë£¹_18830" data-name="ê·¸ë£¹ 18830" transform="translate(38.776 125.975)">
        <rect id="ì‚¬ê°í˜•_6376" data-name="ì‚¬ê°í˜• 6376" class="cls-18" width="3.789" height="8.039" transform="translate(201.693 214.849)"/>
        <g id="ê·¸ë£¹_18314" data-name="ê·¸ë£¹ 18314" transform="translate(171.346 148.253)">
          <g id="ê·¸ë£¹_18313" data-name="ê·¸ë£¹ 18313" transform="translate(-10.621 0)">
            <path id="íŒ¨ìŠ¤_12952" data-name="íŒ¨ìŠ¤ 12952" class="cls-3" d="M-928.274,7576.325s-3.051,4.207-1.945-24.8,8.388-34.9,16.853-38.132c3.116-1.19,17.819-4,17.819-4s14.037-.55,15.936-.35c3,.316,1.412,6.75,5.3,9.142s11.586,2.73,19.028,0c2.59-.953,2.945-2.6,4.081-4.157,1.7-2.319-1.858-4.613-.329-4.985,1.714-.42,13.8.338,16.735,0,5.058.435,18.43,1.542,21.52,12.7s2.9,73.334-9.081,75.29-73.187-13.8-73.187-13.8l-13.031-2.394Z" transform="translate(941.219 -7436.242)"/>
            <g id="ê·¸ë£¹_18288" data-name="ê·¸ë£¹ 18288" transform="translate(45.284 0)">
              <g id="ê·¸ë£¹_18303" data-name="ê·¸ë£¹ 18303" transform="translate(0)">
                <g id="Introduction">
                  <path id="_-Background" data-name="ðŸŽ¨-Background" class="cls-19" d="M11.562,55.695c.863-6.23,2.837-12.279,3.121-18.6q.253-4.059.506-8.118a1.649,1.649,0,0,1,3.1-.763c1.905-2.114,5.318-1.8,7.921-1.738,15.324.543,29.887,10.908,35.147,25.36a1.388,1.388,0,0,1-.055,1.039c2.452,8.18-5.3,14.4-11.215,18.044-2.4,2.536,4.429,22.157,1.245,23.6-1.685.793-.757,5.42-13.528,6.6-15.2-.126-15.668-2.35-17.853-2.3l-.592-4.929.592-17.777c-1.291-.3,4.04,1.324,3.357,0-.42-.183-.833-.381-1.5-.735a19.869,19.869,0,0,1-10.24-19.679Z" transform="translate(-6.021 -15.439)"/>
                  <path id="íŒ¨ìŠ¤_12961" data-name="íŒ¨ìŠ¤ 12961" class="cls-20" d="M28.775,64.423c.45-1-.484-1.21-1.056-.7s-2.13,1.717-6.54,1.81-6.3-.306-8.508-1.111-6.322-3.1-8.477-6.454S.941,50.424,1.072,48.59,2.322,29.369,2.88,26.907s1.4-5.307.8-5.513S1.8,26.581,1.731,29.108-.82,47.383-.247,50.564s1.642,6.763,3.925,9.22S11.8,66.79,17.7,66.918,26.266,66.694,28.775,64.423Z" transform="translate(4.788 -3.681)"/>
                  <path id="_-Ink" data-name="ðŸ–-Ink" class="cls-21" d="M40.344,11.439h0c-5.754-.876-4.022-1.554-8.734-1.549s-5.859.729-8.881,1.875-3.4,3.489-4.072,3.479c-.851-.011-2.428,1.79-2.533,2.651a1.691,1.691,0,0,0-1.447.829,1.894,1.894,0,0,0-.368.768c-.49.116-.93-.243-2.313-.768S8.58,16.806,8.776,17.393c.045.133,2.264,2.809,1.906,3.745s-3.341-1.432-3.887-.8,1.059,3.582,2.7,5.456a5.179,5.179,0,0,0,3.417,2.038c1.079.22,1.5-1.112,2.4-1.579s1.327-.14,1.651-.288a11.408,11.408,0,0,1,2.114.288c1.086,1.4,2.508-.73,4.149-.288,1.762.475,1.67,1.651,3.48,1.867a24.873,24.873,0,0,0,8.137,0c.21.01,2.07-.721,2.28-.711,1.29,1.132,2.685,3.169,4.39,3.382a8.464,8.464,0,0,0,2.853-.14,2.893,2.893,0,0,0,1.277.759,5.807,5.807,0,0,0,2.612,4.507l-.027.107c-.378,1.54-.373,3.224.981,4.294a3.3,3.3,0,0,0,.594.372l-.046.106c-.7,1.635-.923,3.441.392,4.8a1.215,1.215,0,0,0,1.869-.211l.02-.032c.022-.038.046-.074.069-.111a.336.336,0,0,0,.171.169c.5.215.7.056,1.155-.165a7.1,7.1,0,0,1,1.32-.48,7.624,7.624,0,0,1,1.111-.205,5.948,5.948,0,0,1,3.5,6.237,4.226,4.226,0,0,1-2.314,3.385,3.683,3.683,0,0,1-1.919.277c-.863-.117-1.527-.661-2.42-.35a.837.837,0,0,0-.592.778,1.663,1.663,0,0,0,.534,1.371,20.717,20.717,0,0,0-1.675,1.83c-.68.726-3.108,3.022-3.692,3.876a5.1,5.1,0,0,0-.751,1.663c-.448,1.737,4.49,17.881,4.443,19.215-.015.4-3.491-11.39-3.692-15.286a18.945,18.945,0,0,1,2.157-1.643c.39-.3,1.258-1.967,1.535-2.089.178-.077,2.311-.415,2.482-.512.555.139,2.63-3.428,3.189-3.551a10.975,10.975,0,0,0,2.715-2.421l1.1-3.159c1.7-2.8,2.016-4.1,2.011-10.814S61.19,33.9,61.027,32.354a20.381,20.381,0,0,0-2.516-8.185c-1.226-2.1-2.451-5.3-4.377-6.777C50.888,14.354,45.076,12.175,40.344,11.439ZM56.3,48.9c.5-1.2-1.851-1.212-2.473-1.155l-.018,0c-1.4.139-.474,3.011-.033,2.657.116-.093.236-.179.359-.263a1.3,1.3,0,0,1-.312.538l-.034.032c-.677.608.534,1.564.983.759.239-.429-1.569-2.185-1.524-2.207l.081-.037c.539-.245,2.838-1.2,2.819-.346C56.145,48.971,56.268,48.971,56.3,48.9Z" transform="translate(-4.69 -9.89)"/>
                  <g id="face_Smiling" data-name="face/Smiling" transform="translate(6.984 24.279)">
                    <path id="_-Ink-2" data-name="ðŸ–-Ink" class="cls-22" d="M20.538,36.662a5.6,5.6,0,0,0,2.355-1.812,1.087,1.087,0,0,0,.22-.845,1.22,1.22,0,0,0-.474-.764,1.135,1.135,0,0,0-.85-.23,1.065,1.065,0,0,0-.719.475l-.043.059a3.71,3.71,0,0,1-1.359,1.141,3.062,3.062,0,0,1-1.682.3,4.515,4.515,0,0,1-2.742-1.572c-.1-.105-.206-.213-.309-.323a.486.486,0,0,0-.256-.2.551.551,0,0,0-.354.005.561.561,0,0,0-.278.211.516.516,0,0,0-.088.341,3.537,3.537,0,0,0,1.166,2.235,5,5,0,0,0,5.413.981ZM17.2,24.266c-1.039.632-2.623,2.106-1.505,3.673,1.316,1.382,3.211-.2,4.145-.919.866-.555,1.839.873,1.035,1.521-6.748,5-9.487-4.11-4.2-5.018C17.26,23.423,17.476,24.071,17.2,24.266ZM29.3,17.552c-.115-1.426-2.286-1.75-2.5-.339a5.778,5.778,0,0,0,.6,3.563,1.061,1.061,0,0,0,2.014-.41A11.5,11.5,0,0,0,29.3,17.552ZM11.772,16.92a1.158,1.158,0,0,0-1.263-.514c-1.636.478-1.154,2.8-.579,3.933a1.138,1.138,0,0,0,1.777.229c.743-.882,1.1-2.643.154-3.512A1.194,1.194,0,0,0,11.772,16.92Zm16.112-6.576-.258-.045c-.8-.138-1.793-.271-2.359.372a.934.934,0,0,0,0,1.3c.709.574,1.493.352,2.343.4a9.32,9.32,0,0,1,2.048.349,13.918,13.918,0,0,1,3.95,2.044c.166.111.335-.1.256-.256a8.161,8.161,0,0,0-3.56-3.32A8.8,8.8,0,0,0,27.884,10.345Z" transform="translate(-6.45 -7.387)"/>
                    <path id="_-Ink-3" data-name="ðŸ–-Ink" class="cls-22" d="M1.323,4.049l.2-.04C3.673,3.559,6.469,2.66,7.489.545c.039-.3,0-.363-.036-.405L7.442.126A.279.279,0,0,0,7.263,0L7.154.027A6.18,6.18,0,0,0,5.959.494L5.571.685a10.69,10.69,0,0,1-1.386.591,16.315,16.315,0,0,1-3.157.7,1.3,1.3,0,0,0-.633.24.951.951,0,0,0-.354.54.968.968,0,0,0,.109.809,1.025,1.025,0,0,0,.5.431A1.172,1.172,0,0,0,1.323,4.049Z" transform="matrix(-0.966, -0.259, 0.259, -0.966, 7.249, 5.878)"/>
                  </g>
                  <g id="accessories_Glasses-2" data-name="accessories/Glasses-2" transform="translate(0 28.612)">
                    <path id="_-Ink-4" data-name="ðŸ–-Ink" class="cls-22" d="M7.379,13.734a6.21,6.21,0,0,0,6.684,1.3C19.773,12.644,16.978,5.2,12.575,3.2a14.752,14.752,0,0,0-1.955-.536c-.061-.03-.192.056-.352-.025-4.855.542-5.961,8.082-2.889,11.093m18.414.442A7.049,7.049,0,0,0,34,16.274c5.625-2.216,3.63-8.816-.219-11.4-8.129-3.056-11.486,4.719-7.988,9.305M37.986,8.666,38,8.659l-.089-.04c.01.025.02.05.029.075a.33.33,0,0,1,.044-.03M3.509,5.977a2.518,2.518,0,0,1,1.5.395c.937-3.161,4.395-6.086,7.4-3.953a8.355,8.355,0,0,1,5.124,4.7,5.672,5.672,0,0,1,6.194.8c1.023-3.381,3.54-4.565,6.536-4.739,3.27-.536,6.529,2.641,7.546,5.19.846-.1,2.109-.365,2.9.157,5.163-1.354,14.189-2.1,15.239-1.349.748.287,1.158,2.053.114,2.149-.91-.129.106-1.294-.811-1.421-4.89-.3-9.637.682-14.474,1.1a2.831,2.831,0,0,1-2.572.542c1.173,4.323-1.359,7.265-5.152,8.146-5.873,1.35-10.983-3.906-9.447-9.373a8.436,8.436,0,0,0-5.764-.381C21.089,19.859,1.893,19.324,4.891,6.781c-2,.993-2.429-.6-1.382-.8" transform="translate(-2.958 -1.691)"/>
                  </g>
                </g>
              </g>
            </g>
            <path id="íŒ¨ìŠ¤_13348" data-name="íŒ¨ìŠ¤ 13348" class="cls-20" d="M32.937,23.553c.153-2.05-.426-1.643-.942-.833s-1,1.707,0,4.006.647,3.328,4.836,6.821S50.982,39.479,57,38.011A23.552,23.552,0,0,0,67.81,32.246c1.491-1.357,4.973-4.772,4.014-5.52s-2.33,2.5-4.994,4.419-4.451,4.206-11.474,5.5S37.2,32.7,35.487,29.734,32.784,25.6,32.937,23.553Z" transform="translate(19.918 50.778)"/>
            <path id="íŒ¨ìŠ¤_13352" data-name="íŒ¨ìŠ¤ 13352" class="cls-20" d="M174,235.324a14.483,14.483,0,0,0-5.935,1c-4.157,1.383-9.471,2.992-12.272,11.489a80.114,80.114,0,0,0-3.225,16.983,185.179,185.179,0,0,0,0,24.5c.193,2.209.477,6.536.972,6.516.625-.025.169-1.438,0-5.669-.164-4.1-.082-11.4,0-18.525.078-6.8,1.441-13.348,2.252-18s1.454-9.553,5.73-12.645,7.116-4.406,9.941-4.651S175.959,235.8,174,235.324Z" transform="translate(-141.742 -158.297)"/>
            <g id="ê·¸ë£¹_18804" data-name="ê·¸ë£¹ 18804" transform="matrix(0.966, -0.259, 0.259, 0.966, 0, 56.995)">
              <path id="íŒ¨ìŠ¤_12954" data-name="íŒ¨ìŠ¤ 12954" class="cls-23" d="M3.348,22.1C3.371,22.032-.825,9.869.146,6.308s2.86-3.933,5.4-4.458S14.095.011,16.9,0a5.808,5.808,0,0,1,5.384,4c.806,2.037,8.178,34.942,6.559,35.551s-13.506,3.9-17.577,4.592-3.178-8.252-3.178-8.252Z" transform="matrix(0.996, 0.087, -0.087, 0.996, 23.041, 0)"/>
              <path id="íŒ¨ìŠ¤_12960" data-name="íŒ¨ìŠ¤ 12960" class="cls-3" d="M4.665,33.185c-.4-.348-.169-2.831-1-5.48-1.043-3.317-3.1-7.448-2.581-9.655.852-3.653.643-5.7-.32-7.931C.232,8.892-.384,6.5.309,4.871c.379-.921,1.783-.985,2.96.207C5.89,7.732,5.51,14.643,6.878,14.76s3.117-2.786,5.1-5.517S22.338-.007,24.5.009s4.112-.222,3.937.947-2.887,2.8-4.509,4.2c-.723.549-2.321,2.355-4.381,4.426a8.984,8.984,0,0,0-1.953,2.764,4.936,4.936,0,0,1-1.255,1.029h0c1.041-1.428,6.382-8.041,8.469-8.79a3.025,3.025,0,0,1,1.442-.353c.48-.038,3.771.477,3.229,1.769s-.158.283-1.129,1.4.515,1.238.659,2.125c.234,1.085-3.509,6.537-3.509,6.537s-2.363,6.883-5.135,9.667a19.9,19.9,0,0,0-2.723,3.938c-1.854,3.227-3.676,7.471-4.119,7.534C13.329,37.62,5.665,34.063,4.665,33.185Z" transform="translate(23.903 7.549) rotate(16)"/>
              <path id="íŒ¨ìŠ¤_12953" data-name="íŒ¨ìŠ¤ 12953" class="cls-20" d="M4.68,30.773c-1.053-.906-4.146-7.525-3.239-11.3a10.8,10.8,0,0,0-.949-8.049,6.943,6.943,0,0,1-.01-5.1,2.02,2.02,0,0,1,3.292-.265c2.756,2.739,2.594,8.5,4.035,8.615s3.039-1.5,5.136-4.325S21.751.35,24.766.034s3.778,1.634,3.445,2.938-.955,1.666-2.668,3.117c-.763.569-2.452,2.44-4.627,4.585a9.338,9.338,0,0,0-2.064,2.862A5.215,5.215,0,0,1,17.526,14.6h0c1.1-1.48,6.744-8.328,8.945-9.107a3.238,3.238,0,0,1,1.52-.367c.506-.04,2.005.7,1.431,2.033s-2.169,2.368-3.195,3.522-5.3,5.145-5.3,5.145,6.252-7,7.611-6.64c.473.124,1,.007,1.153.922.245,1.122-2.514,7.251-2.514,7.251s-2.505,7.123-5.434,10.008-3.4,5.8-4.276,6.108c-.963-.064-1.373-.278-.485-1.634,1.481-2.964,2.487-2.654,5.166-6.539s4.118-7.835,5.862-11.455.44-3.9-.362-3.485-5.806,5.9-6.479,6.141-1.808.523-.244-1.386S29.78,7.4,28.531,6.367s-3.163.523-6.413,4.311-5.555,5.849-5.987,4.944S21.62,8.5,23.92,6.358s4.357-4.113,2.421-4.907-3.961.226-12.792,9.992c-3.771,4.169-3.973,4.581-5.182,5.263-1.063.624-2.1-.719-2.1-.719A48.144,48.144,0,0,0,3.777,7.824c-.436-.976-1.47-1.5-1.986-1.145-1.805,1.233.009,4.743.009,4.743s1.779,4.025,1.244,6.731-.786,3.7.49,6.8S5.733,31.678,4.68,30.773Z" transform="matrix(0.951, 0.309, -0.309, 0.951, 24.701, 5.76)"/>
              <path id="íŒ¨ìŠ¤_12955" data-name="íŒ¨ìŠ¤ 12955" class="cls-20" d="M.219,26.935C-1.9,30.136,12.08,1.688,12.08,1.688s2.46-4.032,1.415.365S2.343,23.734.219,26.935Z" transform="matrix(0.998, 0.07, -0.07, 0.998, 1.896, 39.839)"/>
              <path id="íŒ¨ìŠ¤_12956" data-name="íŒ¨ìŠ¤ 12956" class="cls-20" d="M4.507,32.983c-1.222-.615.751-3.992,2.569-8.44,2.994-7.328,7.7-17.086,4.327-18.857A50.023,50.023,0,0,0,1.474,1.623C-.433,1.006-.789-.595,2.216.232S14.192,3.61,14.119,6.8c-.035,1.5-.955,6.077-3.319,12.385C7.734,25.906,4.641,32.95,4.507,32.983Z" transform="translate(18.303 40.591)"/>
            </g>
          </g>
        </g>
      </g>
      <g id="ë§ˆìŠ¤í¬_ê·¸ë£¹_343" data-name="ë§ˆìŠ¤í¬ ê·¸ë£¹ 343" class="cls-24" transform="translate(169 261.341)">
        <g id="ê·¸ë£¹_18805" data-name="ê·¸ë£¹ 18805" transform="translate(8.326 109.913)">
          <path id="íŒ¨ìŠ¤_13387" data-name="íŒ¨ìŠ¤ 13387" class="cls-6" d="M-884.014,7489.434c-2.548,6.672-6.726,19.413-22.628,41.072s-46.653,53.963-46.653,53.963l16.487,1.319s28.89-30.29,43.445-51.774,25.6-42.188,22.072-43.424S-883.55,7488.539-884.014,7489.434Z" transform="translate(1006.385 -7515.131)"/>
          <path id="ì œì™¸_23" data-name="ì œì™¸ 23" class="cls-3" d="M47.77,92.039A44.281,44.281,0,0,1,30.538,6.979,44.281,44.281,0,0,1,65,88.561,44,44,0,0,1,47.77,92.039Zm0-79.726a35.345,35.345,0,1,0,13.8,2.786A35.233,35.233,0,0,0,47.77,12.314Z" transform="translate(30 23.959) rotate(-16)"/>
        </g>
        <path id="íŒ¨ìŠ¤_13394" data-name="íŒ¨ìŠ¤ 13394" class="cls-20" d="M8026.443,2826.153c.424,5.6.424,7.133,1.545,6.829s.021-2.524,0-5.882.363-8.821,1.909-12.924,7.065-17.275,22.728-21.305a39.082,39.082,0,0,1,14.02-.709,35.479,35.479,0,0,1,14.329,4.991c2.8,1.447,6.973,4.407,11.847,12.512a45.717,45.717,0,0,1,6.457,17.549c.169.984.171.621.654,1.021.554.145,1.064-.118.79-1.021-.019-.257-.43-2.384-.584-3.071-.988-4.54-7.036-17.816-10.766-21.922a41.262,41.262,0,0,0-11.927-8.711c-3.577-1.922-21.5-6.606-35.362,2.323S8026.019,2820.557,8026.443,2826.153Z" transform="translate(-7964.778 -2660.691)"/>
        <path id="íŒ¨ìŠ¤_13395" data-name="íŒ¨ìŠ¤ 13395" class="cls-20" d="M8020.389,2824.932c-.147,6.882.426,5.877-.451,6.24s-1.155-1.971-1-3.481c.021-.2-.078-1.369,0-2.147.271-2.728,1.263-10.681,3.082-15.232,2.1-5.261,9.646-19,23.388-24.859s29.217-3,34.943-.684,14.449,6.632,21.5,21.518,6.066,19.863,6.066,19.863-1.041.866-1.209-.983c0-.21-.206-1.264-.254-1.848-.9-3.715-1.8-9.82-7.1-17.55-2.305-3.366-2.364-5.3-4.633-8.455a43.575,43.575,0,0,0-4.841-5,34.142,34.142,0,0,0-12.024-6.664c-12.039-3.65-28.78-3.421-41.3,7.1a44.838,44.838,0,0,0-12.51,16.486A75.928,75.928,0,0,0,8020.389,2824.932Z" transform="translate(-7965.778 -2659.653)"/>
      </g>
      <path id="ì†" class="cls-3" d="M3.935,3.04c-8.473,8.741-.96,10.315,1.251,7.239A15.884,15.884,0,0,1,9.41,6.748h0S1.555,12.39,3.869,15.032s8.046-3.46,8.046-3.46h0c-.972.781-4.2,3.494-4.708,4.761a2.241,2.241,0,0,0,1.565,3.146c3.566-.57.069-.226,1.753,1.606,1.146,1.247,3.742.207,6.262-1.083a9.4,9.4,0,0,0,4.822-5.8c.712-4.029-1.657-10.534-7.331-13.444C11.481-.688,7.011-.133,3.935,3.04Z" transform="translate(293.473 394.945) rotate(13)"/>
      <path id="íŒ¨ìŠ¤_13391" data-name="íŒ¨ìŠ¤ 13391" class="cls-20" d="M299.7,403.836c-.855.473-4.493,3.242-5.94,3.036s-1.646-.467-1.318-1.988,2.006-3.1,4.373-4.4,6.4-3.873,9.589-.585,3.333,5.567,4.143,7.537,1,5.394-1.052,7.541-.226,1.639.82.443a7.066,7.066,0,0,0,1.608-6.308,16.216,16.216,0,0,0-3.094-7.663c-2.066-3-3.614-4.146-5.17-4.332a11.631,11.631,0,0,0-8.418,2.533c-3.818,3.238-3.777,4.279-3.913,4.933s-.271,4.219,3.913,3.084,6-3.161,5.928-3.534S300.555,403.363,299.7,403.836Z"/>
      <path id="íŒ¨ìŠ¤_13392" data-name="íŒ¨ìŠ¤ 13392" class="cls-20" d="M294.517,408.5a2.141,2.141,0,0,0,1.075,3.32c1.426.485,5.554-1.294,6.984-1.973s2.152-2.061.673-1.676-4.706,2.795-6.594,2.746-1.676-1.772-.779-2.746S295.36,407.235,294.517,408.5Z"/>
      <path id="íŒ¨ìŠ¤_13393" data-name="íŒ¨ìŠ¤ 13393" class="cls-20" d="M302.6,409a19.166,19.166,0,0,0-5.359,3.258c-.754.932-1.033,1.327-.3,2.845s5.662-.448,5.662-.448-3.638.589-4.163,1.955.411,2.365,3.179,2.653a8.185,8.185,0,0,0,3.5-.789c1.021-.353,1.961-.791,1.885-1.139,0,0-.484-.31-2.707.528s-3.13.622-4.1.334-1.291-1.017-.448-1.921c.483-.532,2.248-1.165,3.71-2.015,2.764-1.608.148-1.038-.864-.568s-4.544,1.752-4.993.568.6-2.363,2.973-3.3S303.672,408.686,302.6,409Z"/>
    </g>
  </g>
</svg>
