<svg xmlns="http://www.w3.org/2000/svg" xmlns:xlink="http://www.w3.org/1999/xlink" width="164.53" height="136.085" viewBox="0 0 164.53 136.085">
  <defs>
    <style>
      .cls-1, .cls-4, .cls-6, .cls-7, .cls-9 {
        fill: #fff;
      }

      .cls-1 {
        stroke: #707070;
      }

      .cls-2 {
        fill: #0f1f2e;
        clip-rule: evenodd;
      }

      .cls-3 {
        clip-path: url(#clip-path);
      }

      .cls-5 {
        fill: #ced8d3;
      }

      .cls-6, .cls-7, .cls-8 {
        stroke: #0f1f2e;
      }

      .cls-6 {
        isolation: isolate;
      }

      .cls-8 {
        fill: none;
        stroke-linecap: round;
      }

      .cls-10 {
        clip-path: url(#clip-path-2);
      }

      .cls-11 {
        fill: #34c678;
        font-size: 5px;
        font-family: Montserrat-Bold, Montserrat;
        font-weight: 700;
      }

      .cls-12, .cls-13 {
        stroke: none;
      }

      .cls-13 {
        fill: #0f1f2e;
      }

      .cls-14 {
        filter: url(#패스_12893);
      }
    </style>
    <clipPath id="clip-path">
      <path id="패스_12911" data-name="패스 12911" class="cls-1" d="M0,0H164.53V136.085H0Z"/>
    </clipPath>
    <filter id="패스_12893" x="16.816" y="34.912" width="108.356" height="90.9" filterUnits="userSpaceOnUse">
      <feOffset dx="6" dy="10" input="SourceAlpha"/>
      <feGaussianBlur stdDeviation="8" result="blur"/>
      <feFlood flood-opacity="0.161"/>
      <feComposite operator="in" in2="blur"/>
      <feComposite in="SourceGraphic"/>
    </filter>
    <clipPath id="clip-path-2">
      <path id="패스_12895" data-name="패스 12895" class="cls-2" d="M1.258,21.42,1.134.007,0,0,.124,21.413Zm.756,0L1.889.011l-.378,0,.124,21.413Zm2.456.014L4.346.026,3.023.018l.124,21.413Zm1.512.009L5.857.034l-.378,0L5.6,21.445Zm1.512.009L7.369.043,6.424.038l.124,21.413Zm2.456.014L9.825.058,8.313.049l.124,21.413Zm1.512.009L11.336.067l-.378,0,.124,21.413Zm1.889.011L13.226.078l-.378,0,.124,21.413Zm1.512.009L14.737.087,13.792.081l.124,21.413Zm3.023.018L17.76.1,16.438.1l.124,21.413Zm1.889.011L19.65.116l-.378,0L19.4,21.527Zm1.512.009L21.161.125l-.756,0,.124,21.413Zm.945.006L22.106.13l-.378,0,.124,21.413Zm1.511.009L23.617.139l-.756,0,.124,21.413Zm2.645.016L26.262.155l-.378,0,.124,21.413Zm1.323.008L27.585.162l-.378,0,.124,21.413Zm2.456.014L30.041.177,28.152.166l.124,21.413Zm1.889.011L31.931.188,30.8.181l.124,21.413Zm2.078.012L34.009.2,32.686.192l.124,21.413Zm1.512.009L35.52.209l-.378,0,.124,21.413Zm1.511.009L37.032.218,36.087.212l.124,21.413Z" transform="translate(0 0)"/>
    </clipPath>
  </defs>
  <g id="phone" class="cls-3">
    <g id="그룹_18333" data-name="그룹 18333" transform="translate(34.816 14.594)">
      <g id="그룹_18329" data-name="그룹 18329" transform="translate(0 3.917)">
        <g id="패스_12885" data-name="패스 12885" class="cls-4" transform="translate(37.3 101.085) rotate(-161)">
          <path class="cls-12" d="M 5.151775360107422 92.82585144042969 C 5.151651859283447 92.82585144042969 5.151548862457275 92.82585144042969 5.151425361633301 92.82585144042969 C 3.95826268196106 92.82578277587891 3.007525205612183 92.31438446044922 2.325637817382812 91.30583953857422 C 1.725025296211243 90.41748809814453 1.375762701034546 89.15587615966797 1.367400288581848 87.84449005126953 L 0.5000877380371094 5.303811550140381 C 0.4918002486228943 4.002674102783203 0.984987735748291 2.784024000167847 1.888812780380249 1.874423980712891 C 2.769487857818604 0.9881114363670349 3.941062688827515 0.4999989569187164 5.187725067138672 0.4999989569187164 L 5.215010166168213 0.5000871419906616 L 34.14775085449219 1.178973913192749 L 34.1519889831543 1.179073929786682 L 34.1562385559082 1.179098963737488 C 36.77878570556641 1.196089625358582 38.92682266235352 3.379615306854248 38.94929504394531 6.048919200897217 L 36.24128723144531 80.93266296386719 L 36.24090194702148 80.94328308105469 L 36.24097442626953 80.95392608642578 C 36.24916458129883 82.24034881591797 35.80910110473633 83.35630035400391 34.93297576904297 84.27075958251953 C 34.10282516479492 85.13726043701172 32.92129898071289 85.76592254638672 31.51614952087402 86.08881378173828 L 31.50897598266602 86.09046173095703 L 31.50183868408203 86.09232330322266 L 6.046865463256836 92.73681640625 C 5.73721170425415 92.7958984375 5.436158657073975 92.82585144042969 5.151775360107422 92.82585144042969 Z"/>
          <path class="cls-13" d="M 5.151762962341309 92.32585144042969 C 5.399904727935791 92.32585144042969 5.664005279541016 92.29989624023438 5.937202930450439 92.24868774414062 L 31.37556266784668 85.60853576660156 L 31.38981246948242 85.60481262207031 L 31.4041748046875 85.60150909423828 C 32.71403884887695 85.30052185058594 33.80942535400391 84.72074890136719 34.57193756103516 83.92485809326172 C 35.35499954223633 83.10752105712891 35.74832534790039 82.10903930664062 35.74098587036133 80.95711517333984 L 35.74084854125977 80.93585205078125 L 35.74161148071289 80.91459655761719 L 38.44921112060547 6.042193412780762 C 38.42324829101562 3.64958667755127 36.50011825561523 1.694293618202209 34.15299987792969 1.679086446762085 L 34.14451217651367 1.679036498069763 L 34.13601303100586 1.678836464881897 L 5.208136081695557 1.00006377696991 L 5.187725067138672 0.9999989867210388 C 4.075225353240967 0.9999989867210388 3.02961277961731 1.435698986053467 2.24348783493042 2.22684907913208 C 1.43422520160675 3.041286468505859 0.9926502704620361 4.133636474609375 1.000062704086304 5.298549175262451 L 1.867387771606445 87.84130096435547 C 1.875137805938721 89.05646514892578 2.193137645721436 90.21714782714844 2.739850282669067 91.02577209472656 C 3.323062658309937 91.88838958740234 4.134450435638428 92.32579803466797 5.151600360870361 92.32585144042969 L 5.151762962341309 92.32585144042969 M 5.151403427124023 93.32585144042969 C 2.206486463546753 93.32569122314453 0.884388267993927 90.51216888427734 0.8674127459526062 87.84767150878906 L 0.0001127532959799282 5.309061527252197 C -0.01861380971968174 2.369738101959229 2.300756454467773 7.202148708529421e-07 5.187719821929932 7.202148708529421e-07 C 5.19904088973999 7.202148708529421e-07 5.210574150085449 3.802490391535684e-05 5.221912860870361 0.0001114624028559774 L 34.15947341918945 0.6791114807128906 C 37.06219863891602 0.6979114413261414 39.43056106567383 3.105324029922485 39.44936370849609 6.056173801422119 L 36.74096298217773 80.95073699951172 C 36.75976181030273 83.90157318115234 34.56793594360352 85.90058898925781 31.62812614440918 86.57611083984375 L 6.157312870025635 93.22473907470703 C 5.802913188934326 93.29338836669922 5.467911243438721 93.32587432861328 5.151403427124023 93.32585144042969 Z"/>
        </g>
        <path id="빼기_156" data-name="빼기 156" class="cls-5" d="M4.8,0A7.179,7.179,0,0,0,2.37.508,3.813,3.813,0,0,0,.9,1.577,4.577,4.577,0,0,0,0,4.629L.7,83.864A3.943,3.943,0,0,0,1.613,86.4,2.975,2.975,0,0,0,3.87,87.494a3.08,3.08,0,0,0,.708-.08l3.788-.968-.076-.5a1.973,1.973,0,0,1,.21-1.489,1.894,1.894,0,0,1,1.186-.889L24.929,79.8a1.753,1.753,0,0,1,.433-.053,1.56,1.56,0,0,1,1.073.44,2.278,2.278,0,0,1,.622,1.115l.054.353,1.269-.324a5.8,5.8,0,0,0,2.6-1.315,3.3,3.3,0,0,0,.967-2.515l2.679-72.2a5.459,5.459,0,0,0-1.2-3.951A3.758,3.758,0,0,0,30.636.314H30.5Z" transform="translate(35.172 97.683) rotate(-161)"/>
        <path id="패스_9610" data-name="패스 9610" class="cls-6" d="M438.368,450.793s-15.427-22.051-15.865-27.025,2.924-28.2,3.279-30.037a69.45,69.45,0,0,0,1.557-8.494c.209-3.006-.893-9.074-1.2-12.708a73.195,73.195,0,0,0-.732-8.175c-.513-2.563.241-6.672-.464-8.441s-3.43-.652-3.43-.652-5.673.708-6.728,17.269c0,0-2.475,10.415-4.59,13.685-1.225,1.894-6.342,5.893-9.526,13.087-4.3,8.715-.175,16.262-1.332,18.111,0,0-1.224,3.827-4.712,3.092l-9.367-3.373s-.4,4.918,3.561,14.071c2.582,5.971,3.783,10.044,7.4,16.591" transform="translate(-361.836 -321.375)"/>
        <path id="패스_12889" data-name="패스 12889" class="cls-7" d="M0,6.64A3,3,0,0,0,3.433,4.682,4.8,4.8,0,0,0,2.808,0Z" transform="matrix(-0.999, 0.035, -0.035, -0.999, 26.829, 26.216)"/>
        <path id="패스_12890" data-name="패스 12890" class="cls-7" d="M0,8.909s3.641,3.428,5.569-.319S3.8,0,3.8,0Z" transform="matrix(-0.999, 0.035, -0.035, -0.999, 23.844, 36.471)"/>
        <path id="패스_12891" data-name="패스 12891" class="cls-7" d="M0,7.74s3.619,3.19,5.365-.056S3.371,0,3.371,0Z" transform="matrix(-0.999, 0.035, -0.035, -0.999, 19.463, 46.38)"/>
        <path id="패스_12892" data-name="패스 12892" class="cls-8" d="M2.429,16.155A23.682,23.682,0,0,0,0,0" transform="matrix(-0.966, 0.259, -0.259, -0.966, 44.085, 110.882)"/>
      </g>
      <g id="Box" transform="translate(0.001 34.318)">
        <g class="cls-14" transform="matrix(1, 0, 0, 1, -34.82, -48.91)">
          <path id="패스_12893-2" data-name="패스 12893" class="cls-9" d="M6.8,35.035,45.941,36.3c3.746.01,6.075-2.945,6.765-6.9l3.5-17.764c.856-4.19-2.044-6.222-6.8-6.938L9.794,0A6.811,6.811,0,0,0,3.03,6.9L0,28.1C.01,31.919,1.659,34.9,6.8,35.035Z" transform="translate(90.75 91.81) rotate(-173)"/>
        </g>
        <g id="그룹_18331" data-name="그룹 18331" class="cls-10" transform="translate(42.667 38.195) rotate(-163)">
          <g id="그룹_18330" data-name="그룹 18330" transform="translate(-2.763 0.349)">
            <path id="패스_12894" data-name="패스 12894" d="M0,20.875l40.867-4.158L40.758,0,.249,2.431Z"/>
          </g>
        </g>
        <text id="_1234" data-name="1234" class="cls-11" transform="translate(25.969 10.198) rotate(14)"><tspan x="0" y="0">1234</tspan></text>
      </g>
    </g>
  </g>
</svg>
