<svg xmlns="http://www.w3.org/2000/svg" width="32" height="32" viewBox="0 0 32 32">
    <defs>
        <clipPath id="qn3j97ivsa">
            <path data-name="사각형 7198" style="fill:none" d="M0 0h26v26H0z"/>
        </clipPath>
    </defs>
    <g data-name="New BI">
        <path data-name="사각형 7437" style="fill:none" d="M0 0h32v32H0z"/>
        <g data-name="그룹 20386" transform="translate(3 3)" style="clip-path:url(#qn3j97ivsa)">
            <path data-name="패스 19604" d="M13 26A13 13 0 1 0 0 13a13 13 0 0 0 13 13" transform="translate(0 -.001)" style="fill:#3cdc87"/>
            <path data-name="패스 19605" d="M4.689 1.624 1.421 4.891a.171.171 0 0 0 .119.295H12a.177.177 0 0 1 .175.175v10.458a.171.171 0 0 0 .295.119l3.267-3.267a.313.313 0 0 0 .092-.223V1.7a.17.17 0 0 0-.171-.171H4.911a.313.313 0 0 0-.223.092" transform="translate(4.079 4.564)" style="fill:#fff"/>
            <path data-name="패스 19606" d="m7.023 7.18-2.292-4.1a.18.18 0 0 0-.318 0L2.1 7.18a2.882 2.882 0 0 0 2.46 4.33 2.882 2.882 0 0 0 2.46-4.33" transform="translate(5.107 8.894)" style="fill:#fff"/>
        </g>
    </g>
</svg>
