<svg xmlns="http://www.w3.org/2000/svg" width="56" height="56" viewBox="0 0 56 56">
  <defs>
    <style>
      .cls-1 {
        fill: #fff;
        opacity: 0;
      }

      .cls-2 {
        fill: #aeaeae;
      }
    </style>
  </defs>
  <g id="BI" transform="translate(-49.144 -54.757)">
    <rect id="사각형_6148" data-name="사각형 6148" class="cls-1" width="56" height="56" transform="translate(49.144 54.757)"/>
    <g id="Shape" transform="translate(53.615 69.779)">
      <path id="패스_309" data-name="패스 309" class="cls-2" d="M300.634,832.866H293.6v7a.488.488,0,0,1-.977,0v-7H285.6a.487.487,0,1,1,0-.973h7.03v-7a.488.488,0,0,1,.977,0v7h7.029a.487.487,0,1,1,0,.973m-7.517-12.95a12.463,12.463,0,1,0,12.508,12.463,12.486,12.486,0,0,0-12.508-12.463" transform="translate(-258.732 -819.916)"/>
      <path id="패스_310" data-name="패스 310" class="cls-2" d="M224.917,829.722a8.016,8.016,0,0,1,15.1,0,.31.31,0,0,1-.292.413H225.209a.31.31,0,0,1-.292-.413m13.016,8.812a.206.206,0,0,0-.312-.052,8.019,8.019,0,0,1-12.7-3.446.31.31,0,0,1,.292-.413H241.1a13.126,13.126,0,0,1,1.764-9.149,12.467,12.467,0,1,0-2.924,16.9A.207.207,0,0,0,240,842.1Z" transform="translate(-219.958 -819.915)"/>
    </g>
  </g>
</svg>
