<svg xmlns="http://www.w3.org/2000/svg" width="155" height="140" viewBox="0 0 155 140">
    <defs>
        <clipPath id="clip-path"/>
        <style>
            .cls-3,.cls-7{fill:#fff}.cls-3,.cls-4{fill-rule:evenodd}.cls-4{fill:#0f1f2e}.cls-7,.cls-8{stroke:#0f1f2e;stroke-width:1.5px}.cls-11,.cls-8{fill:none}.cls-9{stroke:none}
        </style>
    </defs>
    <g id="img" transform="translate(-43 -278)">
        <g id="마스크_그룹_129" clip-path="url(#clip-path)">
            <g id="그룹_15258">
                <g id="그룹_15244" transform="translate(14.907 278)">
                    <g id="그룹_15247" transform="translate(84.998)">
                        <g id="Introduction">
                            <g id="variations">
                                <g id="images">
                                    <g id="a-person_bust">
                                        <g id="body_Paper" transform="translate(0 51.123)">
                                            <path id="_-Background" d="M19.5 21.393c1.07-4.151 2.054-5.91 3.954-7.353a20.69 20.69 0 0 1 8.159-3.311c3.944-.69 4.056-2.74 5.045-6.035A1.429 1.429 0 0 1 39 4.154a2.831 2.831 0 0 1 .272-.258c-.084-.472.6-1.827.581-2.278C39.608-3.1 41.15-5.468 45-6.348a43.151 43.151 0 0 1 7.341-.079c3.569.987 7.083 4.121 6.545 7.9A6.985 6.985 0 0 0 62.831 4.3q5.77.733 11.54 1.295a31.931 31.931 0 0 1 19.42 10.982 1.514 1.514 0 0 1 .181 1.838c.308 1.318 2.04 4.517.677 5.42 2.242 5.362 7.4 15.726 7.409 18.687.04 12.439-1.3 28.63-13.576 35.513a3.5 3.5 0 0 0-.774 1.737 4.67 4.67 0 0 1-4.644 3.751c-10.565.235-20.8-1.054-31.363-1.117a127.734 127.734 0 0 0-14.31 1.131 29.63 29.63 0 0 1-12.017-1.131 1.574 1.574 0 0 1-1.661.668c-4.027-.8-7.283-3.282-10.119-5.995-.867-1.577-4.251-6.07-2.906-7.634A24.65 24.65 0 0 1 11.7 53.839c-.307-.9.253-1.889 0-2.819-.183-.673-.651-.951-.887-1.617a4.953 4.953 0 0 1 .4-3.151c.153-.477-.282-.99-.4-1.476-.573-2.294.739-2.092 1.685-3.626-.014 0-.26-1.1-.259-1.094a4.422 4.422 0 0 1 .535-2.436 1.149 1.149 0 0 1 1.128-.666 41.508 41.508 0 0 0-1.665-4.354 45.581 45.581 0 0 0-4.083-7.57 1.465 1.465 0 0 1 1.272-2.183A64.126 64.126 0 0 0 19.5 21.393z" class="cls-3" transform="translate(-7.552 6.552)"/>
                                            <path id="_-Ink" d="M29.277 44.756a14.954 14.954 0 0 1 4.293-.942c-.792-.139-1.586-.273-2.386-.341a1.709 1.709 0 0 0-1.5.381 4.048 4.048 0 0 0-.6.98l.193-.078zm-14.586-4.983a17.127 17.127 0 0 1 6.466 1.6 2.94 2.94 0 0 1 1.788 1.894 4.174 4.174 0 0 1 .025 1.45c-.044.365-.055.83-.372 1.077a.684.684 0 0 1-.172.1 15.072 15.072 0 0 1 2.078 1.153 3.818 3.818 0 0 1 1.43 1.623c.022-.075.044-.145.066-.211a5.911 5.911 0 0 1 2.244-3.166.484.484 0 0 1-.265-.578 2.673 2.673 0 0 1 2.6-2.15 10.717 10.717 0 0 1 4.047 1.2c.448-.01.895 0 1.337.016a.057.057 0 0 1 0 .114c-.358.046-.717.1-1.075.155-.852.136-1.7.309-2.532.524a15.927 15.927 0 0 0-2.96.968A5.3 5.3 0 0 0 26.7 50.7c.038.327.164 1.314.618 1.212.383-.086.535-.885.669-1.181a3.354 3.354 0 0 1 1.779-1.647c.91-.409 1.883-.685 2.826-1.007l1.6-.548a3 3 0 0 1 1.651-.316.449.449 0 0 1 .2.741 2.4 2.4 0 0 1-1.181.626l-1.714.6c-.882.307-1.807.566-2.667.942l.027.061a.119.119 0 0 1 .139.136 6.478 6.478 0 0 0-.109 2.509c.157.631.711 1.33 1.43 1.144a.383.383 0 0 1-.079-.446c.285-.609 4.016-3.013 4.349-2.121.011.032-.023.055-.05.05-.284-.059-.759.425-.986.578-.328.221-.66.437-.985.664-.355.248-.7.509-1.038.777a2.74 2.74 0 0 1-.77.538.644.644 0 0 1 .34.4 1.6 1.6 0 0 0 .863 1.077 4.832 4.832 0 0 0 1.534.133 3.1 3.1 0 0 1 1.8.869c1.059.99 1.591 2.733 3.072 3.2a6.356 6.356 0 0 0 2.763-.023 10.341 10.341 0 0 1 2.983-.106 10.068 10.068 0 0 1 2.758.883 12.816 12.816 0 0 1 2.472 1.384c.151-.465.3-.926.419-1.4A16.693 16.693 0 0 0 51.869 57a28.485 28.485 0 0 0-.123-3.3c-.047-.546-.12-1.09-.167-1.637-.012-.138-.037-.285-.055-.432a37.736 37.736 0 0 0-4.069-1.973h-.011l-.128-.056a.026.026 0 0 1 0-.007.846.846 0 0 1-.335-.371 16.05 16.05 0 0 1-4.911-5.243 16.4 16.4 0 0 0-1.702-2.581 4.9 4.9 0 0 0-2.658-1.573 24.849 24.849 0 0 0-3.814-.581c-.7-.055-1.479-.141-2.24-.137a5.927 5.927 0 0 0-1.526.18 3.184 3.184 0 0 0-1.561 1.273c-.423.521-.845 1.043-1.24 1.585a15.194 15.194 0 0 0-1.035 1.6 9.645 9.645 0 0 0-.5 1.033 3 3 0 0 0-.147.4c-.031.131.026.27-.122.27.608.008.6.98 0 .944-2.364-.138 1.023-4.755 1.517-5.4.7-.911 1.424-2.1 2.546-2.523l.049-.017a5.786 5.786 0 0 1-.831-1.057 3.788 3.788 0 0 1-.641-1.293.267.267 0 0 1 .485-.2 8.658 8.658 0 0 1 .561 1.26c.191.417.425.812.609 1.233a5.632 5.632 0 0 1 1.409-.22c-.615-.833-1.666-2.439-1.792-2.645-.582-.955-1.135-1.94-1.664-2.926-.572-1.068-1.062-2.181-1.609-3.262-.311-.613-.624-1.23-.969-1.825a5.32 5.32 0 0 0-.392-.593 1.3 1.3 0 0 0-.1-.1l-.1-.056c-.2-.114-.269-.379-.409-.548a.94.94 0 0 0-.823-.307c-.717-.007-1.436.021-2.152.041q-1.578.044-3.153.126c-.318.017-.635.034-.953.054q-2.292.136-4.579.356c-1.348.129-2.7.339-4.045.44a128.234 128.234 0 0 0 6.151 12.716.537.537 0 0 1 .051.125zm10.135 11.183a5.1 5.1 0 0 1 .847.495 5.043 5.043 0 0 1-.043-.928 1.484 1.484 0 0 1-.804.433zM12.25 43.489a.061.061 0 0 1 .05.034 2.084 2.084 0 0 1-.428 2.44c-.349.344-1.108.732-1.084 1.3.021.457.518.84.73 1.217a1.245 1.245 0 0 1 .113 1.118c-.2.487-.768.681-.962 1.16-.245.608.153 1.341.433 1.87.26.49.6.98.82 1.5a15.748 15.748 0 0 1 3.987 3.171c1.261 1.32 2.342 2.873 4.344 2.834a.5.5 0 0 1 .443.248c.557.026 1.116.037 1.673.039.98 0 1.959-.005 2.937-.036a3.017 3.017 0 0 0 .022-.759c.012-.645.018-1.288.045-1.933l.022-.539a1.855 1.855 0 0 1-1.823.883c-1.259-.074-2.526-.28-3.773-.465-.657-.1-1.312-.208-1.967-.325-.538-.1-1.3-.071-1.672-.5a.226.226 0 0 1 .045-.352c.372-.183.606-.081 1.015 0q.747.145 1.5.275c.961.167 1.925.322 2.891.458.55.077 1.1.153 1.652.214a1.693 1.693 0 0 0 1.412-.241c.782-.732.344-1.959-.151-2.7a.045.045 0 0 1-.006-.041c-.466-.109-.932-.237-1.4-.327-.892-.172-1.791-.317-2.691-.446-1.849-.264-3.709-.439-5.568-.614-.46-.044-.465-.769 0-.726a79.259 79.259 0 0 1 7.987.991q.991.191 1.968.436a4.35 4.35 0 0 0 .961.2h.059c.632-.02.724-.561.377-1.012-.043-.055-.087-.111-.133-.163a9.017 9.017 0 0 0-2.166-1.727c-.883-.12-1.763-.388-2.627-.585l-6.4-1.458c-.418-.1-.241-.739.178-.645l4.861 1.1 2.371.538c.474.107 1.066.322 1.623.4a2.163 2.163 0 0 0 .782-.021c.777-.184.816-1.156.481-1.733a4.438 4.438 0 0 0-1.715-1.421c-1.091-.637-2.252-1.1-3.387-1.623l-.6-.133a20.466 20.466 0 0 1-3.611-.857c-.33-.14-.15-.661.177-.653a14.251 14.251 0 0 1 2.586.5l2.715.587a3.241 3.241 0 0 0 .709.153c.052-.025.07-.2.087-.322a4.078 4.078 0 0 0 .036-1.185c-.133-.873-.86-1.283-1.6-1.618a16.989 16.989 0 0 0-5.228-1.4c-.412-.043-.825-.07-1.24-.083-.487-.015-.889-.1-1.135.379a8.7 8.7 0 0 0-.725 2.598zm2.277 27.426c.357-1.236.26-2.556.5-3.817.126-.651.3-1.3.487-1.931a7.315 7.315 0 0 0 .434-1.594.047.047 0 0 0-.069-.04 3.847 3.847 0 0 0-1.179 1.4 9.412 9.412 0 0 0-.819 1.846 6.091 6.091 0 0 0-.225 4.133.453.453 0 0 0 .871.003zM25.571 54.54a7.484 7.484 0 0 1-.906-.155 3.463 3.463 0 0 1 .823 1.165c.027-.338.061-.674.107-1.009zm27.953 13.117c.217.106.44.2.659.3l1.318.6c.915.42 9.618 4.083 10.532 4.506 1.829.847 3.672 1.664 5.505 2.5q2.8 1.282 5.6 2.59c.877.41 1.761.8 2.644 1.2a8.394 8.394 0 0 0 2.515.994c.043 0 .057-.051.033-.079a4.515 4.515 0 0 0-1.223-.794c-.42-.237-.848-.459-1.274-.684-.888-.471-1.777-.938-2.674-1.392q-2.69-1.362-5.387-2.709c-1.833-.918-3.663-1.842-5.512-2.728-.871-.417-9.531-4.073-10.4-4.488l-1.418-.672c-.2-.1-.406-.2-.615-.287a4.647 4.647 0 0 0-.774-.162.4.4 0 0 0-.31.737 4.879 4.879 0 0 0 .781.568zm32.224-4.53a4.908 4.908 0 0 1 2.606 1.3c.03.038.082-.011.063-.049-.8-1.656-3.089-2.237-4.675-2.817-1.122-.411-2.272-.751-3.433-1.055a24.409 24.409 0 0 0-.315-4.062c-.119-1.407-.215-2.818-.265-4.229-.051-1.44.153-11.544.2-12.984s.233-2.852.315-4.282c.008-.138-.185-.145-.226-.031a18.41 18.41 0 0 0-.845 4.2c-.162 1.442-.431 11.534-.41 12.983.021 1.491.108 2.978.227 4.464.056.7.122 1.408.184 2.112a13.372 13.372 0 0 0 .178 1.59c-.7-.172-1.4-.334-2.1-.492-2.23-.5-4.469-.97-6.69-1.515-1.09-.267-10.459-3.777-11.544-4.061a23.1 23.1 0 0 0-3.149-.711c-.374-.043-.422.47-.174.643a12.1 12.1 0 0 0 2.97 1.351c.988.336 10.311 3.768 11.324 4.017 2.113.52 4.245.945 6.375 1.387s4.257.881 6.36 1.427c1.011.255 2.02.519 3.024.814zM12.419 25.519q2.407-.23 4.82-.368l.224-.012a.516.516 0 0 1 .031-.05 11.477 11.477 0 0 0 1.247-2.414 12.582 12.582 0 0 1 1.124-2.435c.563-.853 12.027-7.251 12.944-7.626.494-.2.981-.46 1.474-.694a1.138 1.138 0 0 1 .336-.969 2.529 2.529 0 0 1 .587-.35l.1-.036-.1.029c-.125.058-.135.041-.03-.05.006-.2.4-.619.487-.824a10.612 10.612 0 0 1 .869-2.089 2.416 2.416 0 0 1 2.693-.917 10.747 10.747 0 0 1 .53-3.119.035.035 0 0 1 .063-.009c.417.711 1.159 1.129 1.191 1.949a16.783 16.783 0 0 1-.2 2.563c.064.049.129.1.2.141a8.691 8.691 0 0 0 1.429.726 3.506 3.506 0 0 0 1.412.158A22.754 22.754 0 0 0 49.1 8.8a22.565 22.565 0 0 0 6.29-1.722A23.384 23.384 0 0 0 58 5.535c-.085-.272-2.3-4.849-2.3-4.849S57.076.467 57.359-.3c.044-.119 2.1 4.634 2.2 4.57a.486.486 0 0 1 .654.172c2.12 3.341 5.477 3.533 9 4.13 3.858.653 6.428 2.762 10.137 4.04 3.547 1.223 12.374 7.055 16.131 14.908s6.79 23.456 6.729 26a65.034 65.034 0 0 1-2.818 18.127 27.278 27.278 0 0 1-3.911 8.072 14.194 14.194 0 0 1-2.823 2.891 11.24 11.24 0 0 1-1.672 1.052 12.147 12.147 0 0 0-2.4 1.065 1.974 1.974 0 0 0-.506.688 3.74 3.74 0 0 1-.059 1.534.546.546 0 0 1-.313.352v.129c0 .02-.029.025-.033.005l-.018-.115a.476.476 0 0 1-.15.023c-1.865.007-10.617-.3-12.614-.367-4.246-.141-8.491-.188-12.738-.278-6.6-.14-23.584.066-24.918.192-2.276.214-4.53.593-6.8.829a25.364 25.364 0 0 1-6.865-.184.907.907 0 0 1-.756-.628.016.016 0 0 1-.008-.007 3.37 3.37 0 0 0-.342-.351 2.415 2.415 0 0 0-.457-.23 4.752 4.752 0 0 0-1-.248c-.376-.056-.756-.061-1.132-.108a8.931 8.931 0 0 1-.935-.174 9.431 9.431 0 0 1-1.609-.536 5.677 5.677 0 0 1-1.262-.8 10.974 10.974 0 0 1-2.119-2.128 15.973 15.973 0 0 1-1-1.428c-.53-.857-.982-1.748-1.439-2.645q-.249-.4-.455-.816c.892-.263.628-1.2-.392-.9-.05-.132-.1-.265-.141-.4a7.048 7.048 0 0 1-.306-.862l-.147-.4-.333-1.38a18.538 18.538 0 0 1-.527-2.242 14.872 14.872 0 0 1-.248-1.509 28.4 28.4 0 0 1-.322-3.706q.022-1.151.147-2.3c.036-.518.1-1.034.177-1.546.106-.761.21-1.515.385-2.267l.394-1.525a29.256 29.256 0 0 1 1.16-3.114c.024-.064.149-.2.223-.205.056 0 .135.05.109.119l-.007.02c.026-.058.05-.117.076-.174s.108-.162.174-.161h.02a.288.288 0 0 1-.049-.047 9.773 9.773 0 0 1-1.042-1.813 4.774 4.774 0 0 1-.579-1.588 1.824 1.824 0 0 1 .333-1.383c.354-.456 1.019-.669.649-1.327-.42-.749-1.037-1.4-.422-2.25a10.525 10.525 0 0 1 1.177-1.049 2.235 2.235 0 0 0 .614-1.615.048.048 0 0 1-.072-.029 5.22 5.22 0 0 1 .266-3.3 1.1 1.1 0 0 1 1.11-.753c-2.121-4.144-4.106-8.355-5.875-12.663-.059-.141-.117-.282-.174-.424a.442.442 0 0 1 .306-.539 39.066 39.066 0 0 1 4.677-.585z" class="cls-4" transform="translate(-7.412 3.187)"/>
                                        </g>
                                        <g id="head_Medium-Bangs-2" transform="translate(16.512)">
                                            <path id="_-Background-2" d="M-10.251 23.22c.288-.726.8-1.64 1.647-1.676.658-2.012 2.294-4.062 4.569-4.007 6.679-6.832 15.087-6.51 23.877-5.064 4.638.86 9.347 2.545 12.806 5.871 4.143 3.915 5.756 10.745 2.512 15.695 2.8 1.5 2.858 5.07 1.659 7.644 1.441 1 1.529 3.417-.094 4.178a1.475 1.475 0 0 1-.139 1.033 13.7 13.7 0 0 0 2.714 1.59 1.281 1.281 0 0 1 .7.841c2.843 1.866 9.932 6.426 9.848 10.055a3.792 3.792 0 0 1-3.068 3.636c1.015 2.03 1.786 4.4.814 6.591a14.156 14.156 0 0 1-2.382 2.642c-.177.152-3.064-1.174-4.467-1.85a2.8 2.8 0 0 1-3.8 2.091c-1.547-.466-2.5-1.776-3.473-2.968-1.295 2.826-5.1 2.858-7.567 1.64a9.7 9.7 0 0 1-4.829-5.152 26.55 26.55 0 0 1-16.192 2.173 1.576 1.576 0 0 1-1.8.789c-2.873-.864-6.049-.912-8.485-2.892-5.076-3.645-5.5-10.364-5.15-16.092.314-5.711.039-11.47 1.077-17.119a32.563 32.563 0 0 0-1.893-4.7c-.75-1.636-.733-4.069 1.116-4.949z" class="cls-3" transform="translate(12.359 -10.847)"/>
                                            <path id="_-Ink-2" d="M37.259 46.971a.269.269 0 0 0-.206.489c1.612 1.026 3.278 1.942 4.835 3.058a31.576 31.576 0 0 1 4.125 3.569l.141.145c1.153 1.187 2.431 2.7 2.444 4.449.01 1.361-1.039 2.847-2.5 2.668a.9.9 0 0 0-.866 1.137l.2.532c.814 2.152 1.643 4.591 1 6.855l-.024.081c-.156.518-.32.977-.921.966a5.61 5.61 0 0 1-1.662-.378 8.134 8.134 0 0 1-2.9-1.778.95.95 0 0 0-1.581.891v.028c.136.987-1.436 1.445-2.151 1.3-1.411-.279-2.417-1.694-3.218-2.772-.385-.518-1.321-.722-1.659 0a4.276 4.276 0 0 1-3.67 2.544 4.272 4.272 0 0 1-3.145-1.3l-.059-.062a3.646 3.646 0 0 0-1.046-.816.681.681 0 0 0-1.014.582 2.149 2.149 0 0 0 .671 1.624 6.21 6.21 0 0 0 1.332 1.053 6.112 6.112 0 0 0 3.262.861 6.219 6.219 0 0 0 4.593-2.333c1.128 1.349 2.527 2.588 4.344 2.555a3.776 3.776 0 0 0 3.237-1.832 10 10 0 0 0 2.807 1.356l.09.027c1.426.415 3.066.58 3.984-.836a7.181 7.181 0 0 0 .728-4.69 17.52 17.52 0 0 0-1.073-3.918 4.37 4.37 0 0 0 2.788-3.072c.55-2.09-.517-4.117-1.837-5.67a25.624 25.624 0 0 0-5.057-4.363 19.176 19.176 0 0 0-5.992-2.95zM-9.366 30.623c0-.058-.1-.078-.107-.015-.626 4.547-.951 8.411-1.252 12.989-.152 2.319 1.009 5.038.819 7.354a60.726 60.726 0 0 0-.415 6.732 10.563 10.563 0 0 0 4.582 8.375 19.649 19.649 0 0 0 9.209 3.336 23.4 23.4 0 0 0 5.676.026 6.941 6.941 0 0 0 1.544-.231l.415-.1c.755-.193 1.6-.455 1.706-1.349a.961.961 0 0 0-.549-.97 1.991 1.991 0 0 0-1.539.013 5.406 5.406 0 0 1-1.18.263 22.33 22.33 0 0 1-5.6.1 16.735 16.735 0 0 1-8.279-2.986c-.1-.072-.325-.253-.544-.444a8.26 8.26 0 0 1-2.436-3.336 14.924 14.924 0 0 1-.5-5.31c.048-4.12-1.328-8.641-1.271-12.761s-.033-7.56-.279-11.686zm31.4-19.253a33.868 33.868 0 0 0-11.1-.9C7.4 10.734 3.373 11.525.487 13.7a.153.153 0 0 0 .117.278c1.93-.308 3.811-.867 5.732-1.238a36.025 36.025 0 0 1 5.611-.686c6.364-.21 13.446 1.233 18.578 5.2A13.4 13.4 0 0 1 35.5 24.6a12.818 12.818 0 0 1-1.161 9.119.918.918 0 0 0 .325 1.239 4.015 4.015 0 0 1 2.328 3.6 3.841 3.841 0 0 1-.68 2.076c-.436.651-1.1 1.107-1.589 1.715a.673.673 0 0 0-.047.79c-.285.125-.593.192-.874.34a.373.373 0 0 0 0 .64 1.424 1.424 0 0 0 1.707-.522 2.42 2.42 0 0 0 .2-.279 2.973 2.973 0 0 0 1.341-.7 1.418 1.418 0 0 1 .207 2.2 2.926 2.926 0 0 1-1.263.8l-.056.02a2.35 2.35 0 0 0-1.174.619 7.7 7.7 0 0 0-.672-1.145 4.649 4.649 0 0 0-3.977-2.265 3 3 0 0 0-2.7 2.333c-.02.1.124.17.167.07.625-1.458 2.6-1.512 3.781-.752a6.3 6.3 0 0 1 2.447 4.147 5.216 5.216 0 0 1-1.03 4.6 3.116 3.116 0 0 1-1.788.9 2.738 2.738 0 0 1-.932-.063l-.208-.043A1.491 1.491 0 0 0 29.41 54l-.226.03-.128.06q-.167.075.03-.041a.548.548 0 0 0-.6.563.136.136 0 0 0-.034.028c-1.454 1.781-2.534 3.827-4.078 5.55l-.452.5a12.6 12.6 0 0 1-4.066 3.365l-.188.078c-.459.194-.92.46-.979 1.013a.96.96 0 0 0 .789.985c1.026.263 2.2-.649 2.947-1.247a19.489 19.489 0 0 0 4.095-4.652l.111-.172a12.976 12.976 0 0 0 2.057-4.792l.049.079.008.012a1.179 1.179 0 0 0 .186.2 1.639 1.639 0 0 0 .658.323 3.931 3.931 0 0 0 1.4.1 4.93 4.93 0 0 0 2.553-1.033c2.255-1.769 2.521-5.061 1.609-7.732a2.944 2.944 0 0 0 2.185-.757 3.27 3.27 0 0 0 1.355-2.052 2.265 2.265 0 0 0-1.19-2.262 6.242 6.242 0 0 0 1.345-3.5 5.62 5.62 0 0 0-2.531-4.841 14.67 14.67 0 0 0 .774-10.294C35.1 16.784 28.427 13.02 22.031 11.37zm5.677 51.148l-.019-.059c-.159-.521-.364-1.556-1.141-1.162-.743.377-.269 1.491-.009 2.034a2.25 2.25 0 0 0 1.568 1.309 1.756 1.756 0 0 0 1.641-.486 1.54 1.54 0 0 0 .258-.437.621.621 0 0 0 .045-.133.289.289 0 0 0 .075.129 6.613 6.613 0 0 1 .874 1.2c.056.1.233.03.189-.08-.277-.677-.23-1.723-.847-2.213-.543-.432-1.054-.092-1.342.411l-.015.026c-.422.761-1.088.036-1.279-.54zm5.912-2.446l-.057-.079c-.581-.795-1.561-1.75-2.542-1.011a.508.508 0 0 0 0 .86l.122.087a4.667 4.667 0 0 1 1.17 1.026 6.539 6.539 0 0 0 1.106 1.345 2.022 2.022 0 0 0 2.832-.1l.069-.088a2.748 2.748 0 0 0 .182-.259l.043.059.012.017.01.015a3.7 3.7 0 0 0 1.112 1.146 3.226 3.226 0 0 0 2.825.349.085.085 0 0 0-.023-.167 3.518 3.518 0 0 1-2.768-2l-.053-.119a1.606 1.606 0 0 0-.878-.991 1.176 1.176 0 0 0-1.259.357c-.264.291-.332.869-.808.742-.518-.134-.813-.787-1.098-1.189zm3.329-7.067a.5.5 0 0 0-.732.3 2.567 2.567 0 0 0 2.295 2.837 1.89 1.89 0 0 0 .94-.223c.227-.118.5-.421.744-.471.321-.065.606.364.833.583a8.486 8.486 0 0 0 .873.759.184.184 0 0 0 .268-.206l-.106-.284c-.385-1.01-1.049-2.484-2.29-2.065-.608.205-1.066.9-1.707.349-.517-.441-.565-1.156-1.121-1.579zm-5.478-5.169c-1.157-1.329-3.878-.627-4.394.99a1.088 1.088 0 0 0 .284 1.074 1.123 1.123 0 0 0 1.337.173c.384-.225.541-.592.823-.908a3.389 3.389 0 0 1 1.556-.9 1.666 1.666 0 0 1 .4.3c.062.062.179-.023.124-.1a1.669 1.669 0 0 0-.27-.278l.05-.015a.2.2 0 0 0 .088-.336zM23.95 33.162a.533.533 0 0 0-.528.529l.01.079a1.217 1.217 0 0 0 .791 1.1 4.358 4.358 0 0 0 1.447.378 3.621 3.621 0 0 0 .6 0l.043.249a10.7 10.7 0 0 1 .18 1.5 5.692 5.692 0 0 1-.7 2.553 5.44 5.44 0 0 0-.017 4.829.79.79 0 0 0 .7.4.83.83 0 0 0 .7-.4.8.8 0 0 0 .013-.8l-.013-.026a3.563 3.563 0 0 1-.318-2.477c.19-.793.62-1.5.812-2.3a4.906 4.906 0 0 0-.67-3.655 2.419 2.419 0 0 0 1.25-.779c.116-.124.053-.382-.151-.367l-.23.019a5.259 5.259 0 0 1-1.928-.071 3.3 3.3 0 0 1-.928-.441l-.063-.041a1.47 1.47 0 0 0-1-.279zm-1.574-9.512a4 4 0 0 0-3.74 2.443 6.054 6.054 0 0 0 .225 4.925l.186.433a4.4 4.4 0 0 0 1.422 2.049c.75.452 1.4-.072 1.178-.906a4.252 4.252 0 0 0-.778-1.289 11.4 11.4 0 0 1-.741-1.192 5.657 5.657 0 0 1-.751-2.642c.006-1.695 1.125-3.637 3-3.612a.1.1 0 0 0-.001-.209zm-8.338-2.734c.1-.078.011-.252-.1-.178a8.365 8.365 0 0 0-3.626 5.745 6.891 6.891 0 0 0 .492 3.725 2.5 2.5 0 0 0 1.556 1.47 1.318 1.318 0 0 0 1.571-.872.6.6 0 0 0-.268-.659 3.979 3.979 0 0 1-1.548-1.781 6.463 6.463 0 0 1-.47-2.493 5.96 5.96 0 0 1 2.393-4.958zm-23.352.869a.116.116 0 0 0-.14-.181 4.98 4.98 0 0 0-2.512 3.645 5.465 5.465 0 0 0 1.241 4.607c.652.61 1.82-.2 1.278-.986a6.636 6.636 0 0 1-1.014-1.67 5.259 5.259 0 0 1-.254-1.786 5.553 5.553 0 0 1 1.401-3.629zm16.9-1.87C5.222 19.8 3.791 22.5 3.463 24.509a5.1 5.1 0 0 0 .635 3.6l.041.063c.566.86 1.594 1.851 2.7 1.444a.642.642 0 0 0 .279-1.056c-.482-.584-1.227-.821-1.68-1.444a3.86 3.86 0 0 1-.646-2.424v-.094c.079-1.563.824-4.563 2.786-4.51.115 0 .114-.168.005-.173zM.2 19.467c-2.284-.292-3.675 2.4-4.1 4.248a7.18 7.18 0 0 0 .016 3.6l.026.082c.279.857 1.1 2.327 2.176 1.888.294-.12.595-.447.454-.8-.18-.451-.44-.568-.786-.856a2.293 2.293 0 0 1-.59-.855 6.056 6.056 0 0 1-.4-2.716L-3 23.95c.129-1.761 1.084-4.385 3.2-4.337.094.002.087-.135 0-.146zm-4.184-2.527c-1.271-.484-2.313.732-3.043 1.6a11.621 11.621 0 0 0-2.215 3.612 6.129 6.129 0 0 0-.115 3.775 5.011 5.011 0 0 0 .873 1.668l.051.063a1.326 1.326 0 0 0 1.487.632.5.5 0 0 0 .344-.606c-.1-.556-.388-.7-.759-1.088a3.488 3.488 0 0 1-.733-1.206 4.908 4.908 0 0 1-.128-2.845A9.892 9.892 0 0 1-6.9 19.606l.124-.2c.61-.964 1.479-2.449 2.765-2.292.111.018.111-.141.027-.174z" class="cls-4" transform="translate(12.042 -10.356)"/>
                                        </g>
                                    </g>
                                </g>
                            </g>
                            <path id="_-Ink-3" d="M157.807 46.348zm-5.59.765a11.089 11.089 0 0 0 2.025 4.819 1.163 1.163 0 0 0 1.975 0c.739-1.054.283-2.261-.273-3.273l-.165-.3a7.69 7.69 0 0 0-1.07-1.54l-.007-.046a1.259 1.259 0 1 0-2.486.34z" class="cls-4" transform="translate(-138.846 37.256)"/>
                        </g>
                        <g id="face_Smiling" transform="translate(15.668 26.713)">
                            <path id="_-Ink-4" fill-rule="evenodd" d="M36.4 49.362a5.319 5.319 0 0 0 2.235-1.72 1.032 1.032 0 0 0 .209-.8 1.158 1.158 0 0 0-.45-.725 1.077 1.077 0 0 0-.807-.218 1.011 1.011 0 0 0-.682.451l-.04.056a3.522 3.522 0 0 1-1.29 1.083 2.906 2.906 0 0 1-1.6.281 4.285 4.285 0 0 1-2.6-1.492c-.1-.1-.2-.2-.293-.307a.461.461 0 0 0-.243-.187.523.523 0 0 0-.336 0 .533.533 0 0 0-.264.2.49.49 0 0 0-.083.324 3.357 3.357 0 0 0 1.107 2.121 4.747 4.747 0 0 0 5.138.931z" transform="translate(-21.871 -28.351)"/>
                            <g id="face_Smile-Big">
                                <path id="_-Ink-5" d="M23.52 25.731c-1.585-.906-5.563-1.832-5.815 1.015a3.009 3.009 0 0 0 2 2.88l.043.018c1.069.439 2.964.934 3.889-.017.77-.792-.251-2.211-1.208-1.562-.492.333-1.526.088-2.075-.071l-.034-.01c-.592-.174-1.381-.729-1.136-1.457.217-.644 1.138-.761 1.716-.782a22.835 22.835 0 0 1 2.554.234.134.134 0 0 0 .066-.248zm-6.567-4.578c-2.152-.1-3.49 2.244-3 4.165a.848.848 0 0 0 .816.62l.09-.008a.8.8 0 0 0 .141-.023.852.852 0 0 0 .621-.814l-.007-.107c-.05-.907.048-1.953 1.129-2.173.916-.186 1.428.694 1.439 1.5a.2.2 0 0 0 .292.167A1.52 1.52 0 0 0 19 22.593a2.226 2.226 0 0 0-2.047-1.44zm15.966.5a3.447 3.447 0 0 0-4.013 1.693.591.591 0 0 0-.495.595 1.661 1.661 0 0 0 .447 1.077.978.978 0 0 0 1.611-.4l.009-.03a1.607 1.607 0 0 1 2.022-1.109c1 .348.97 1.4 1.67 2.013a.242.242 0 0 0 .28.036c.744-.359.61-1.439.345-2.057a3.252 3.252 0 0 0-1.876-1.816zm2.132-4.745c-1.269-1.292-4.577-2.542-5.445-.156a.949.949 0 0 0 .661 1.161 17.805 17.805 0 0 0 2.236-.122 3.372 3.372 0 0 1 1.775.643c1.382 1.069 1.686 2.877 2.65 4.238a.079.079 0 0 0 .147-.04 7.523 7.523 0 0 0-2.023-5.721zm-16.546-1.269a4.259 4.259 0 0 0-2.642-.008 5.134 5.134 0 0 0-2.238 1.427 5.685 5.685 0 0 0-.73.98c-.108.186-.221.57-.344.8a1.186 1.186 0 0 0-.353 1.872l.027.027.079.079a1.279 1.279 0 0 0 1.236.326c.975-.282 1.093-1.048 1.431-1.861a3.331 3.331 0 0 1 1.068-1.362 5.144 5.144 0 0 1 4.207-.7c.07.021.153-.068.1-.133a3.991 3.991 0 0 0-.728-.848 3.891 3.891 0 0 0-1.113-.599z" class="cls-4" transform="translate(-11.875 -15.406)"/>
                            </g>
                        </g>
                    </g>
                </g>
                <g id="합치기_67" fill="#3ddb87">
                    <path d="M24.501 48.25c-3.207 0-6.317-.629-9.245-1.867-2.828-1.196-5.368-2.908-7.55-5.09-2.181-2.18-3.894-4.72-5.09-7.548C1.378 30.818.75 27.707.75 24.501c0-2.642.43-5.236 1.28-7.71.821-2.393 2.017-4.632 3.555-6.654l.228-.3-.104-.36-1.903-6.648 7.08 1.896.324.087.28-.185C15.359 2.091 19.857.75 24.502.75c3.207 0 6.317.628 9.245 1.866 2.828 1.196 5.368 2.909 7.55 5.09 2.18 2.182 3.894 4.722 5.09 7.55 1.238 2.928 1.866 6.038 1.866 9.245 0 3.206-.628 6.317-1.866 9.244-1.196 2.828-2.91 5.368-5.09 7.549-2.182 2.181-4.722 3.893-7.55 5.09-2.928 1.237-6.038 1.865-9.245 1.865z" class="cls-9" transform="rotate(180 50.5 177)"/>
                    <path fill="#0f1f2e" d="M24.501 1.5c-4.498 0-8.855 1.298-12.599 3.755l-.562.368-.649-.174-5.8-1.553 1.54 5.374.206.723-.455.598c-1.49 1.959-2.648 4.126-3.443 6.443C1.917 19.43 1.5 21.942 1.5 24.5c0 3.105.608 6.117 1.807 8.952 1.158 2.738 2.817 5.198 4.93 7.31 2.113 2.113 4.573 3.771 7.311 4.93 2.835 1.198 5.847 1.806 8.953 1.806 3.106 0 6.118-.608 8.953-1.806 2.738-1.159 5.198-2.817 7.311-4.93 2.113-2.112 3.772-4.572 4.93-7.31 1.199-2.835 1.807-5.847 1.807-8.952 0-3.106-.608-6.118-1.807-8.953-1.158-2.738-2.817-5.198-4.93-7.311-2.113-2.113-4.573-3.772-7.312-4.93-2.834-1.2-5.846-1.807-8.952-1.807m0-1.5c13.531 0 24.501 10.97 24.501 24.5 0 13.532-10.97 24.5-24.501 24.5S0 38.031 0 24.5c0-5.567 1.859-10.702 4.988-14.817L2.72 1.761l8.36 2.24C14.934 1.47 19.545 0 24.5 0z" transform="rotate(180 50.5 177)"/>
                </g>
                <g id="그룹_15257" transform="translate(-79 -456)">
                    <g id="사각형_4167" class="cls-7">
                        <path d="M0 0h16v7a4 4 0 0 1-4 4H4a4 4 0 0 1-4-4V0z" class="cls-9" transform="translate(148 785)"/>
                        <path d="M1.5.75h13a.75.75 0 0 1 .75.75V7A3.25 3.25 0 0 1 12 10.25H4A3.25 3.25 0 0 1 .75 7V1.5A.75.75 0 0 1 1.5.75z" class="cls-11" transform="translate(148 785)"/>
                    </g>
                    <g id="사각형_4166" class="cls-7" transform="translate(147 780)">
                        <rect width="18" height="7" class="cls-9" rx="2"/>
                        <rect width="16.5" height="5.5" x=".75" y=".75" class="cls-11" rx="1.25"/>
                    </g>
                    <g id="사각형_4170" class="cls-8">
                        <path d="M3 0a3 3 0 0 1 3 3v3H3a3 3 0 0 1-3-3 3 3 0 0 1 3-3z" class="cls-9" transform="translate(150.5 775)"/>
                        <path d="M3 .75A2.25 2.25 0 0 1 5.25 3v1.5a.75.75 0 0 1-.75.75H3A2.25 2.25 0 0 1 .75 3 2.25 2.25 0 0 1 3 .75z" class="cls-11" transform="translate(150.5 775)"/>
                    </g>
                    <g id="사각형_4171" class="cls-8">
                        <path d="M3 0a3 3 0 0 1 3 3 3 3 0 0 1-3 3H0V3a3 3 0 0 1 3-3z" class="cls-9" transform="translate(155 775)"/>
                        <path d="M3 .75A2.25 2.25 0 0 1 5.25 3 2.25 2.25 0 0 1 3 5.25H1.5a.75.75 0 0 1-.75-.75V3A2.25 2.25 0 0 1 3 .75z" class="cls-11" transform="translate(155 775)"/>
                    </g>
                    <g id="사각형_4172" class="cls-7" transform="translate(155 779)">
                        <path d="M0 0H1.5V16H0z" class="cls-9"/>
                        <rect height="14.5" x=".75" y=".75" class="cls-11"/>
                    </g>
                </g>
            </g>
        </g>
    </g>
</svg>
