<svg xmlns="http://www.w3.org/2000/svg" xmlns:xlink="http://www.w3.org/1999/xlink" width="63" height="10" viewBox="0 0 63 10">
  <defs>
    <clipPath id="clip-S_on">
      <rect width="63" height="10"/>
    </clipPath>
  </defs>
  <g id="S_on" clip-path="url(#clip-S_on)">
    <g id="Star" transform="translate(-24 -1401)">
      <path id="패스_147" data-name="패스 147" d="M53.649,102.113l-3.3-.452-1.485-2.847a.422.422,0,0,0-.551-.182.4.4,0,0,0-.191.182l-1.485,2.847-3.3.452a.406.406,0,0,0-.33.275.4.4,0,0,0,.1.393L45.5,105l-.557,3.121a.4.4,0,0,0,.165.393.43.43,0,0,0,.433.039l2.948-1.492,2.948,1.492.186.039a.341.341,0,0,0,.247-.079.4.4,0,0,0,.165-.393L51.484,105l2.392-2.218a.4.4,0,0,0,.1-.393A.407.407,0,0,0,53.649,102.113Z" transform="translate(-18.994 1302.407)" fill="#fee35d"/>
      <path id="패스_147-2" data-name="패스 147" d="M53.649,102.113l-3.3-.452-1.485-2.847a.422.422,0,0,0-.551-.182.4.4,0,0,0-.191.182l-1.485,2.847-3.3.452a.406.406,0,0,0-.33.275.4.4,0,0,0,.1.393L45.5,105l-.557,3.121a.4.4,0,0,0,.165.393.43.43,0,0,0,.433.039l2.948-1.492,2.948,1.492.186.039a.341.341,0,0,0,.247-.079.4.4,0,0,0,.165-.393L51.484,105l2.392-2.218a.4.4,0,0,0,.1-.393A.407.407,0,0,0,53.649,102.113Z" transform="translate(-5.994 1302.407)" fill="#fee35d"/>
      <path id="패스_147-3" data-name="패스 147" d="M53.649,102.113l-3.3-.452-1.485-2.847a.422.422,0,0,0-.551-.182.4.4,0,0,0-.191.182l-1.485,2.847-3.3.452a.406.406,0,0,0-.33.275.4.4,0,0,0,.1.393L45.5,105l-.557,3.121a.4.4,0,0,0,.165.393.43.43,0,0,0,.433.039l2.948-1.492,2.948,1.492.186.039a.341.341,0,0,0,.247-.079.4.4,0,0,0,.165-.393L51.484,105l2.392-2.218a.4.4,0,0,0,.1-.393A.407.407,0,0,0,53.649,102.113Z" transform="translate(7.006 1302.407)" fill="#fee35d"/>
      <path id="패스_147-4" data-name="패스 147" d="M53.649,102.113l-3.3-.452-1.485-2.847a.422.422,0,0,0-.551-.182.4.4,0,0,0-.191.182l-1.485,2.847-3.3.452a.406.406,0,0,0-.33.275.4.4,0,0,0,.1.393L45.5,105l-.557,3.121a.4.4,0,0,0,.165.393.43.43,0,0,0,.433.039l2.948-1.492,2.948,1.492.186.039a.341.341,0,0,0,.247-.079.4.4,0,0,0,.165-.393L51.484,105l2.392-2.218a.4.4,0,0,0,.1-.393A.407.407,0,0,0,53.649,102.113Z" transform="translate(20.006 1302.407)" fill="#fee35d"/>
      <path id="패스_147-5" data-name="패스 147" d="M53.649,102.113l-3.3-.452-1.485-2.847a.422.422,0,0,0-.551-.182.4.4,0,0,0-.191.182l-1.485,2.847-3.3.452a.406.406,0,0,0-.33.275.4.4,0,0,0,.1.393L45.5,105l-.557,3.121a.4.4,0,0,0,.165.393.43.43,0,0,0,.433.039l2.948-1.492,2.948,1.492.186.039a.341.341,0,0,0,.247-.079.4.4,0,0,0,.165-.393L51.484,105l2.392-2.218a.4.4,0,0,0,.1-.393A.407.407,0,0,0,53.649,102.113Z" transform="translate(33.006 1302.407)" fill="#fee35d"/>
    </g>
  </g>
</svg>
