<svg xmlns="http://www.w3.org/2000/svg" width="20" height="20" viewBox="0 0 20 20">
  <defs>
    <style>
      .cls-1 {
        fill: #fff;
        opacity: 0;
      }

      .cls-2 {
        fill: #3ddb87;
      }
    </style>
  </defs>
  <g id="_2" data-name="2" transform="translate(-271 -207.839)">
    <rect id="사각형_5492" data-name="사각형 5492" class="cls-1" width="20" height="20" transform="translate(271 207.839)"/>
    <path id="패스_289" data-name="패스 289" class="cls-2" d="M1726.061,841.183h-2.24a3.609,3.609,0,0,1-3.609-3.609v-2.24c-.347-.395-.786-.154-.786.189v2.051a3.609,3.609,0,0,1-3.609,3.609h-2.24c-.395.347-.154.786.189.786h2.051a3.609,3.609,0,0,1,3.609,3.609v2.24c.347.395.786.154.786-.189v-2.051a3.609,3.609,0,0,1,3.609-3.609h2.051c.344,0,.584-.44.189-.786" transform="translate(-1438.907 -623.045)"/>
  </g>
</svg>
